<svg width="227" height="70" viewBox="0 0 227 70" fill="none" xmlns="http://www.w3.org/2000/svg">
<path fill-rule="evenodd" clip-rule="evenodd" d="M30 0C13.4315 0 0 13.4315 0 30V40C0 56.5685 13.4315 70 30 70H155.996C172.219 70 183.663 57.9921 185.722 44.2677C188.885 47.0439 195.273 47.2877 198.311 44.1667C199.967 42.4655 204.802 42.9141 208.578 43.2645C209.914 43.3884 211.117 43.5 212 43.5L227 42C215.123 42 190.26 35.131 181.132 23.5842C180.32 22.3618 179.402 21.1706 178.375 20.0195L169.446 10.0195C163.754 3.64475 155.614 0 147.068 0H30Z" fill="#2969F6"/>
</svg>
