<!-- Generated by IcoMoon.io -->
<svg version="1.1" xmlns="http://www.w3.org/2000/svg" width="31" height="32" viewBox="0 0 31 32">
<path d="M27.819 0.217c0.014 0.017 0.036 0.024 0.057 0.018l0.041-0.011c0.026-0.007 0.053-0.005 0.077 0.005l0.862 0.351c0.048 0.020 0.102 0.018 0.149-0.004 0.042-0.020 0.090-0.023 0.134-0.010l0.012 0.004c0.072 0.022 0.15 0.005 0.206-0.044l0.198-0.173c0.051-0.045 0.118-0.068 0.186-0.064 0.055 0.003 0.107 0.024 0.149 0.059l0.116 0.096c0.030 0.024 0.043 0.063 0.035 0.101l-0.001 0.004c-0.010 0.045 0.013 0.090 0.054 0.109 0.047 0.022 0.069 0.077 0.050 0.125l-0.080 0.204c-0.018 0.045-0.054 0.080-0.099 0.096l-0.036 0.013c-0.073 0.026-0.108 0.108-0.076 0.179l0.030 0.067c0.016 0.035-0.002 0.075-0.038 0.088l-0.009 0.003c-0.039 0.014-0.052 0.062-0.025 0.093 0.019 0.022 0.019 0.056-0.001 0.077l-0.051 0.056c-0.026 0.028-0.039 0.066-0.037 0.104l0.004 0.069c0.003 0.052-0.011 0.104-0.040 0.148l-0.041 0.061c-0.013 0.019-0.033 0.032-0.055 0.034-0.050 0.006-0.081 0.058-0.064 0.105l0.028 0.079c0.015 0.041 0.010 0.086-0.011 0.123l-0.116 0.2c-0.024 0.041-0.061 0.072-0.106 0.089l-0.131 0.049c-0.071 0.027-0.094 0.116-0.044 0.173 0.038 0.043 0.036 0.109-0.006 0.149l-0.059 0.057c-0.045 0.044-0.067 0.107-0.057 0.169l0.009 0.059c0.006 0.036 0.020 0.070 0.041 0.1l0.145 0.204c0.022 0.032 0.007 0.076-0.030 0.087-0.020 0.006-0.035 0.022-0.039 0.043l-0.042 0.212c-0.003 0.015 0.007 0.030 0.023 0.032l0.052 0.007c0.022 0.003 0.030-0.027 0.010-0.036-0.014-0.006-0.015-0.026-0.002-0.034l0.078-0.045c0.018-0.011 0.040-0.012 0.059-0.003l0.638 0.281c0.042 0.018 0.067 0.063 0.060 0.108-0.007 0.049 0.022 0.096 0.068 0.112l0.082 0.028c0.054 0.018 0.098 0.058 0.121 0.11l0.043 0.095c0.007 0.016 0.007 0.034 0.001 0.050-0.020 0.048 0.024 0.099 0.074 0.086l0.047-0.012c0.016-0.004 0.034-0.004 0.050 0.002l0.29 0.096c0.015 0.005 0.031 0.002 0.042-0.009 0.028-0.025 0.072-0.005 0.071 0.032l-0.003 0.449c-0.001 0.131-0.105 0.237-0.236 0.24l-0.036 0.001c-0.035 0.001-0.069 0.008-0.101 0.022l-0.123 0.052c-0.145 0.061-0.314 0.010-0.4-0.122l-0.048-0.073c-0.028-0.042-0.074-0.069-0.125-0.071-0.041-0.002-0.081 0.013-0.112 0.041l-0.181 0.165c-0.072 0.066-0.167 0.101-0.264 0.098l-0.136-0.004c-0.065-0.002-0.126 0.035-0.154 0.094-0.042 0.086-0.002 0.19 0.087 0.226l0.090 0.037c0.038 0.015 0.071 0.040 0.098 0.071l0.143 0.167c0.14 0.162 0.185 0.385 0.122 0.59l-0.083 0.267c-0.030 0.095-0.116 0.16-0.215 0.162l-0.009 0c-0.049 0.001-0.098-0.015-0.136-0.047l-0.008-0.006c-0.049-0.040-0.114-0.053-0.174-0.034l-0.024 0.007c-0.044 0.013-0.079 0.047-0.093 0.091-0.023 0.070-0.095 0.11-0.167 0.093l-0.081-0.019c-0.067-0.016-0.137 0.010-0.177 0.065-0.030 0.041-0.077 0.066-0.127 0.069l-0.134 0.008c-0.035 0.002-0.060 0.033-0.055 0.068s-0.020 0.065-0.054 0.068l-0.195 0.015c-0.109 0.008-0.194 0.097-0.197 0.206-0.002 0.072-0.041 0.139-0.103 0.176l-0.244 0.148c-0.127 0.077-0.198 0.221-0.18 0.368l0.018 0.152c0.005 0.042 0.033 0.079 0.072 0.095 0.030 0.013 0.054 0.037 0.066 0.068l0.008 0.022c0.031 0.085-0.010 0.179-0.093 0.215l-0.020 0.009c-0.043 0.018-0.078 0.052-0.098 0.094l-0.154 0.319c-0.019 0.040-0.062 0.064-0.106 0.059l-0.018-0.002c-0.027-0.003-0.053 0.009-0.069 0.031l-0.009 0.012c-0.025 0.036-0.007 0.085 0.034 0.097 0.021 0.006 0.037 0.022 0.043 0.043l0.079 0.261c0.025 0.083 0.069 0.159 0.127 0.222l0.041 0.044c0.125 0.135 0.202 0.307 0.218 0.49l0.050 0.565c0.004 0.043-0.004 0.085-0.023 0.124l-0.053 0.107c-0.037 0.074 0.003 0.164 0.082 0.186 0.054 0.015 0.093 0.064 0.096 0.12l0.013 0.238c0.006 0.107 0.049 0.209 0.121 0.289l0.22 0.241c0.022 0.024 0.051 0.040 0.082 0.045l0.088 0.015c0.078 0.013 0.109 0.108 0.054 0.165-0.019 0.020-0.046 0.030-0.073 0.029l-0.346-0.010c-0.050-0.002-0.096 0.031-0.11 0.079-0.008 0.025-0.006 0.052 0.004 0.076l0.087 0.201c0.019 0.045 0.054 0.082 0.097 0.105 0.060 0.032 0.102 0.091 0.112 0.159l0.014 0.095c0.025 0.171-0.061 0.34-0.215 0.419l-0.143 0.073c-0.023 0.012-0.050 0.013-0.074 0.003-0.045-0.019-0.098 0.003-0.116 0.049l-0.024 0.063c-0.010 0.026-0.013 0.055-0.008 0.083l0.013 0.070c0.016 0.084-0.007 0.17-0.061 0.235-0.033 0.040-0.054 0.088-0.063 0.139l-0.045 0.289c-0.009 0.058 0.012 0.118 0.056 0.157l0.036 0.032c0.048 0.043 0.055 0.117 0.015 0.168l-0.013 0.016c-0.041 0.052-0.025 0.128 0.034 0.159 0.041 0.021 0.063 0.067 0.055 0.112l-0.018 0.102c-0.008 0.046-0.049 0.079-0.096 0.076-0.035-0.002-0.066-0.024-0.079-0.057l-0.015-0.037c-0.014-0.035-0.047-0.059-0.084-0.062l-0.065-0.005c-0.050-0.004-0.086 0.049-0.063 0.094 0.010 0.020 0.030 0.033 0.052 0.035l0.025 0.002c0.052 0.004 0.094 0.045 0.1 0.097l0.001 0.005c0.006 0.061-0.037 0.116-0.097 0.125l-0.103 0.015c-0.026 0.004-0.053 0.003-0.079-0.002l-0.122-0.026c-0.057-0.012-0.096-0.063-0.095-0.121 0.002-0.046-0.024-0.089-0.065-0.11l-0.035-0.018c-0.070-0.036-0.086-0.128-0.032-0.185l0.038-0.041c0.026-0.028 0.023-0.072-0.007-0.096-0.023-0.018-0.055-0.019-0.078-0.003l-0.095 0.066c-0.089 0.062-0.12 0.18-0.073 0.277l0.090 0.186c0.020 0.041 0.029 0.086 0.026 0.131l-0.007 0.112c-0.006 0.094 0.070 0.172 0.164 0.17 0.066-0.001 0.127 0.038 0.152 0.099l0.048 0.117c0.035 0.084 0.032 0.18-0.008 0.262l-0.044 0.090c-0.011 0.023-0.032 0.041-0.057 0.049l-0.096 0.029c-0.032 0.010-0.040 0.052-0.013 0.072l0.022 0.017c0.019 0.015 0.012 0.045-0.011 0.050-0.030 0.006-0.030 0.049 0 0.055l0.139 0.030c0.036 0.008 0.056 0.045 0.042 0.079l-0.092 0.231c-0.019 0.048-0.016 0.102 0.008 0.148 0.035 0.067 0.024 0.149-0.028 0.204l-0.181 0.194c-0.067 0.071-0.093 0.172-0.070 0.267l0.020 0.086c0.016 0.068-0.012 0.139-0.070 0.177-0.025 0.016-0.055 0.026-0.085 0.027l-0.27 0.010c-0.039 0.002-0.076 0.018-0.102 0.047l-0.062 0.066c-0.023 0.024-0.021 0.063 0.004 0.085 0.022 0.020 0.026 0.053 0.010 0.078l-0.087 0.127c-0.065 0.096-0.051 0.225 0.034 0.303l0.009 0.008c0.086 0.080 0.104 0.21 0.043 0.31l-0.344 0.564c-0.019 0.031-0.013 0.072 0.015 0.096l0.028 0.024c0.021 0.018 0.054 0.013 0.068-0.012 0.009-0.017 0.028-0.025 0.047-0.022l0.691 0.12c0.042 0.007 0.075 0.042 0.079 0.085s0.036 0.077 0.078 0.085l0.059 0.011c0.102 0.019 0.164 0.124 0.13 0.223l-0.005 0.014c-0.020 0.059-0.001 0.125 0.048 0.165 0.077 0.062 0.073 0.181-0.007 0.238l-0.044 0.031c-0.033 0.024-0.058 0.057-0.071 0.096l-0.099 0.301c-0.027 0.082 0.014 0.171 0.094 0.203l0.123 0.050c0.047 0.019 0.099-0.015 0.1-0.066 0-0.026 0.015-0.049 0.037-0.062l0.090-0.050c0.141-0.079 0.319-0.006 0.364 0.149l0.121 0.413c0.009 0.030 0.029 0.054 0.057 0.069 0.038 0.020 0.085 0.016 0.119-0.010l0.027-0.020c0.026-0.020 0.058-0.031 0.091-0.033l0.034-0.002c0.167-0.009 0.304 0.131 0.291 0.298l-0.015 0.208c-0.003 0.034 0 0.067 0.008 0.1l0.053 0.225c0.022 0.095-0.050 0.185-0.147 0.184-0.038-0-0.075 0.014-0.103 0.040l-0.004 0.004c-0.046 0.043-0.064 0.109-0.045 0.169l0.042 0.137c0.013 0.043 0.010 0.089-0.009 0.13l-0.051 0.106c-0.017 0.035-0.001 0.077 0.035 0.092 0.043 0.018 0.056 0.073 0.025 0.107l-0.147 0.168c-0.052 0.059-0.069 0.141-0.047 0.216l0.065 0.214c0.015 0.050-0.001 0.103-0.041 0.136-0.047 0.039-0.061 0.106-0.032 0.16l0.267 0.498c0.026 0.049 0.077 0.080 0.133 0.080h0.015c0.050 0 0.095 0.029 0.116 0.074 0.023 0.050 0.075 0.080 0.13 0.074l0.056-0.006c0.021-0.002 0.041 0.006 0.055 0.022 0.025 0.029 0.019 0.074-0.014 0.095l-0.161 0.103c-0.023 0.015-0.048 0.025-0.074 0.031l-0.493 0.109c-0.119 0.026-0.18 0.159-0.122 0.266 0.016 0.029 0.023 0.063 0.022 0.096l-0.020 0.384c-0.005 0.089-0.057 0.168-0.136 0.208l-0.1 0.050c-0.054 0.027-0.079 0.090-0.059 0.146 0.009 0.025 0.009 0.053 0 0.078l-0.15 0.445c-0.010 0.030 0.002 0.064 0.029 0.080 0.052 0.031 0.041 0.109-0.018 0.124l-0.011 0.003c-0.028 0.007-0.049 0.029-0.054 0.058l-0.015 0.084c-0.006 0.036-0.022 0.069-0.045 0.096l-0.346 0.408c-0.068 0.080-0.078 0.195-0.024 0.286 0.057 0.096 0.043 0.218-0.035 0.298l-0.075 0.078c-0.030 0.031-0.070 0.051-0.114 0.055-0.078 0.008-0.142 0.064-0.16 0.14l-0.042 0.173c-0.021 0.085-0.099 0.144-0.187 0.141l-0.142-0.005c-0.058-0.002-0.1 0.054-0.083 0.109 0.013 0.042-0.009 0.086-0.049 0.102-0.025 0.010-0.044 0.031-0.050 0.057l-0.028 0.108c-0.014 0.054-0.067 0.089-0.123 0.080-0.032-0.005-0.064 0.005-0.089 0.026l-0.065 0.057c-0.022 0.019-0.025 0.052-0.008 0.075 0.023 0.030 0.009 0.075-0.028 0.086l-0.104 0.032c-0.062 0.019-0.101 0.081-0.091 0.146l0.003 0.021c0.009 0.061-0.018 0.121-0.069 0.155l-0.622 0.406c-0.069 0.045-0.148 0.073-0.23 0.081l-0.287 0.027c-0.041 0.004-0.076 0.033-0.086 0.073l-0.002 0.008c-0.010 0.038 0.006 0.077 0.040 0.097l0.003 0.002c0.043 0.026 0.054 0.083 0.024 0.123-0.024 0.032-0.067 0.043-0.103 0.026l-0.117-0.054c-0.021-0.010-0.046-0.004-0.061 0.013-0.020 0.023-0.056 0.024-0.077 0.002l-0.071-0.075c-0.017-0.019-0.048-0.016-0.062 0.006l-0.004 0.006c-0.015 0.024-0.051 0.021-0.062-0.005-0.006-0.013-0.018-0.021-0.032-0.021h-0.576c-0.050 0-0.090-0.043-0.086-0.093 0.004-0.055-0.043-0.099-0.097-0.092l-0.215 0.028c-0.047 0.006-0.084 0.041-0.093 0.088-0.010 0.054-0.060 0.092-0.115 0.088l-0.483-0.034c-0.083-0.006-0.165 0.013-0.237 0.055-0.159 0.092-0.359 0.069-0.493-0.057l-0.075-0.070c-0.064-0.060-0.094-0.147-0.082-0.233 0.023-0.163-0.105-0.309-0.27-0.306l-0.096 0.002c-0.052 0.001-0.104-0.010-0.151-0.032l-0.31-0.141c-0.029-0.013-0.062-0.008-0.086 0.013s-0.058 0.026-0.087 0.012l-0.121-0.058c-0.042-0.020-0.072-0.058-0.083-0.104-0.017-0.074-0.086-0.124-0.162-0.118l-0.242 0.022c-0.044 0.004-0.084 0.028-0.107 0.066l-0.002 0.003c-0.023 0.036-0.026 0.081-0.010 0.121 0.028 0.067-0.004 0.144-0.070 0.173l-0.074 0.032c-0.065 0.028-0.111 0.089-0.122 0.159l-0.001 0.008c-0.011 0.077-0.067 0.139-0.142 0.159l-0.119 0.032c-0.067 0.018-0.098 0.096-0.061 0.155 0.019 0.030 0.021 0.068 0.006 0.1l-0.035 0.073c-0.027 0.056-0.099 0.075-0.15 0.038l-0.015-0.010c-0.028-0.020-0.067-0.019-0.093 0.003-0.032 0.026-0.078 0.022-0.106-0.008l-0.017-0.019c-0.025-0.028-0.062-0.040-0.099-0.032l-0.612 0.131c-0.039 0.008-0.077-0.016-0.086-0.054-0.005-0.022 0-0.045 0.014-0.062l0.116-0.145c0.023-0.029 0.031-0.067 0.020-0.102-0.012-0.041-0.047-0.072-0.089-0.079l-0.246-0.043c-0.043-0.007-0.087-0.005-0.129 0.006l-0.090 0.025c-0.105 0.029-0.215-0.032-0.245-0.137l-0.013-0.044c-0.009-0.029-0.004-0.061 0.013-0.087 0.058-0.086-0.033-0.194-0.127-0.152l-0.055 0.024c-0.067 0.029-0.144-0.006-0.165-0.076l-0.17-0.576c-0.032-0.107-0.114-0.192-0.22-0.227l-0.308-0.103c-0.052-0.017-0.074-0.079-0.045-0.126l0.034-0.055c0.008-0.012 0.003-0.029-0.010-0.035-0.025-0.013-0.013-0.050 0.014-0.047l0.034 0.004c0.017 0.002 0.032-0.010 0.034-0.027l0.009-0.067c0.006-0.046 0.043-0.082 0.090-0.086l0.003-0c0.043-0.004 0.084 0.019 0.103 0.058l0.002 0.005c0.024 0.049 0.080 0.074 0.133 0.058l0.173-0.053c0.067-0.020 0.127-0.063 0.168-0.12l0.053-0.073c0.043-0.060 0.047-0.139 0.011-0.203l-0.006-0.011c-0.024-0.042-0.027-0.091-0.011-0.136 0.038-0.102-0.034-0.212-0.142-0.218l-0.074-0.004-0.628 0.021c-0.032 0.001-0.064-0.004-0.095-0.014-0.071-0.025-0.127-0.078-0.155-0.147l-0.171-0.419c-0.063-0.155-0.183-0.28-0.334-0.352l-0.052-0.024c-0.073-0.034-0.135-0.087-0.181-0.153l-0.044-0.064c-0.082-0.119-0.23-0.174-0.369-0.137l-0.147 0.038c-0.063 0.016-0.107 0.072-0.107 0.137-0.001 0.069-0.050 0.127-0.117 0.139l-0.006 0.001c-0.079 0.015-0.133 0.089-0.122 0.168l0.021 0.158c0.005 0.039-0.015 0.077-0.050 0.096s-0.054 0.055-0.050 0.093l0.003 0.033c0.009 0.087-0.062 0.162-0.149 0.157l-0.671-0.034c-0.076-0.004-0.15 0.024-0.205 0.078l-0.067 0.066c-0.029 0.029-0.071 0.039-0.11 0.027-0.071-0.021-0.143 0.032-0.144 0.106l-0.001 0.086c-0 0.044-0.017 0.086-0.046 0.118l-0.022 0.024c-0.058 0.064-0.143 0.095-0.228 0.084l-0.398-0.050c-0.052-0.007-0.105 0.009-0.145 0.043-0.057 0.048-0.137 0.058-0.204 0.026l-0.159-0.077c-0.038-0.018-0.083-0.002-0.1 0.037-0.012 0.027-0.040 0.045-0.069 0.044l-0.133-0.003c-0.053-0.001-0.104 0.013-0.149 0.040l-0.409 0.249c-0.039 0.024-0.085 0.034-0.13 0.030l-0.013-0.001c-0.085-0.009-0.153-0.072-0.169-0.156-0.010-0.055-0.044-0.102-0.092-0.131l-0.194-0.113c-0.101-0.059-0.229-0.036-0.303 0.054l-0.089 0.107c-0.086 0.104-0.253 0.067-0.288-0.063-0.014-0.053-0.053-0.095-0.105-0.113l-0.453-0.162c-0.055-0.020-0.092-0.073-0.090-0.132l0.003-0.107c0.001-0.025-0.021-0.045-0.046-0.043-0.021 0.002-0.041-0.012-0.045-0.032l-0.014-0.062c-0.010-0.045-0.046-0.079-0.092-0.087l-0.417-0.072c-0.054-0.009-0.094-0.056-0.095-0.111l-0-0.010c-0.001-0.056-0.045-0.101-0.101-0.102-0.057-0.002-0.102-0.049-0.101-0.106l0.001-0.045c0.002-0.085 0.074-0.152 0.16-0.146l0.304 0.021c0.029 0.002 0.058-0.009 0.078-0.030l0.008-0.008c0.029-0.030 0.032-0.078 0.006-0.111l-0.001-0.002c-0.021-0.028-0.023-0.066-0.004-0.095 0.022-0.033 0.017-0.078-0.013-0.105l-0.088-0.083c-0.075-0.071-0.093-0.183-0.043-0.274l0.083-0.152c0.038-0.070 0.054-0.151 0.045-0.231l-0.022-0.191c-0.004-0.035-0.028-0.065-0.062-0.076l-0.017-0.006c-0.026-0.008-0.043-0.032-0.045-0.059-0.002-0.042-0.043-0.071-0.083-0.059s-0.082-0.016-0.083-0.058l-0.005-0.141c-0.002-0.065-0.053-0.118-0.117-0.123l-0.039-0.003c-0.048-0.004-0.084-0.046-0.081-0.094 0.002-0.033-0.015-0.065-0.043-0.082l-0.27-0.159c-0.078-0.046-0.124-0.132-0.118-0.222 0.007-0.124-0.081-0.233-0.204-0.252l-0.138-0.022c-0.083-0.013-0.164 0.032-0.197 0.109-0.028 0.067-0.094 0.111-0.167 0.112l-0.944 0.010c-0.032 0-0.062 0.015-0.081 0.041-0.025 0.033-0.068 0.048-0.109 0.037l-0.402-0.107c-0.026-0.007-0.049-0.020-0.067-0.039l-0.014-0.014c-0.041-0.041-0.104-0.048-0.154-0.018-0.033 0.020-0.054 0.054-0.059 0.092l-0.008 0.067c-0.013 0.116-0.101 0.209-0.215 0.229l-0.009 0.002c-0.016 0.003-0.032 0.004-0.049 0.003l-0.090-0.006c-0.033-0.002-0.061-0.025-0.069-0.057l-0.009-0.036c-0.009-0.037 0.022-0.070 0.059-0.064 0.031 0.005 0.059-0.017 0.061-0.048l0.003-0.056c0.002-0.030 0.016-0.058 0.040-0.076l0.258-0.196-0.074 0.053c-0.206 0.149-0.477 0.176-0.708 0.071l-0.14-0.063c-0.054-0.025-0.115-0.030-0.172-0.016l-0.144 0.035c-0.077 0.019-0.153-0.034-0.163-0.112-0.003-0.028 0.002-0.056 0.015-0.080l0.065-0.119c0.027-0.050 0.025-0.112-0.007-0.16l-0.052-0.079c-0.029-0.044-0.009-0.104 0.041-0.122 0.025-0.009 0.054-0.005 0.075 0.011l0.004 0.003c0.055 0.040 0.132 0.009 0.145-0.057l0.005-0.025c0.005-0.025 0.018-0.047 0.037-0.063l0.024-0.020c0.054-0.045 0.080-0.116 0.067-0.186l-0.068-0.367c-0.022-0.121-0.098-0.226-0.206-0.285l-0.076-0.042c-0.034-0.019-0.061-0.049-0.075-0.085-0.020-0.050-0.063-0.087-0.115-0.101l-0.146-0.038c-0.151-0.039-0.273-0.15-0.325-0.298l-0.122-0.348c-0.022-0.063-0.054-0.123-0.095-0.176l-0.018-0.024c-0.072-0.095-0.111-0.209-0.112-0.328l-0.002-0.142c-0.002-0.14-0.088-0.264-0.218-0.315l-0.092-0.036c-0.057-0.022-0.097-0.073-0.107-0.133-0.014-0.087-0.091-0.149-0.179-0.144l-0.503 0.030c-0.201 0.012-0.378-0.132-0.407-0.332-0.010-0.070-0.001-0.142 0.027-0.207l0.050-0.116c0.031-0.073 0.021-0.156-0.027-0.22l-0.024-0.032c-0.072-0.096-0.037-0.235 0.073-0.285l0.021-0.009c0.032-0.015 0.057-0.041 0.069-0.074 0.016-0.042 0.010-0.089-0.016-0.125l-0.118-0.165c-0.056-0.078-0.088-0.17-0.094-0.265l-0.020-0.329c-0.003-0.045 0.010-0.089 0.037-0.125 0.042-0.056 0.111-0.085 0.18-0.075l0.128 0.018c0.016 0.002 0.033-0.001 0.047-0.010 0.046-0.029 0.042-0.098-0.007-0.121l-0.038-0.018c-0.048-0.023-0.067-0.082-0.041-0.129l0.044-0.079c0.035-0.063 0.028-0.14-0.016-0.196l-0.144-0.184c-0.030-0.038-0.027-0.092 0.006-0.127 0.021-0.022 0.050-0.033 0.080-0.030l0.259 0.025c0.032 0.003 0.064-0.006 0.090-0.026 0.034-0.026 0.052-0.067 0.049-0.109l-0.007-0.112c-0.002-0.035-0.016-0.068-0.040-0.094-0.069-0.076-0.045-0.198 0.047-0.242l0.526-0.252c0.033-0.016 0.058-0.045 0.068-0.080l0.055-0.187c0.008-0.028-0.019-0.052-0.046-0.041l-0.035 0.014c-0.025 0.010-0.047-0.020-0.029-0.041 0.011-0.012 0.007-0.032-0.007-0.039l-0.062-0.034c-0.049-0.027-0.058-0.094-0.016-0.132l0.187-0.173c0.022-0.021 0.048-0.037 0.077-0.049l0.012-0.005c0.123-0.050 0.182-0.19 0.131-0.313-0.030-0.072-0.023-0.153 0.019-0.219l0.021-0.033c0.059-0.093 0.064-0.211 0.015-0.309l-0.222-0.44c-0.039-0.077-0.126-0.118-0.21-0.097l-0.024 0.006c-0.048 0.012-0.098-0.002-0.133-0.036-0.022-0.022-0.037-0.051-0.041-0.082l-0.007-0.055c-0.019-0.141 0.064-0.277 0.198-0.325l0.133-0.048c0.028-0.010 0.048-0.035 0.051-0.064 0.004-0.032-0.012-0.063-0.041-0.078l-0.145-0.078c-0.085-0.046-0.145-0.127-0.163-0.222l-0.031-0.166c-0.008-0.045-0.031-0.086-0.065-0.117-0.057-0.052-0.081-0.131-0.063-0.207l0.088-0.365c0.011-0.044-0.009-0.090-0.048-0.113-0.033-0.019-0.074-0.018-0.107 0.003l-0.032 0.021c-0.080 0.052-0.188 0.026-0.234-0.057l-0.083-0.148c-0.014-0.024-0.020-0.052-0.019-0.080l0.002-0.039c0.001-0.031 0.020-0.059 0.048-0.073 0.071-0.034 0.062-0.138-0.014-0.159l-0.018-0.005c-0.017-0.005-0.032-0.014-0.043-0.026l-0.109-0.117c-0.036-0.039-0.037-0.099-0.002-0.139 0.025-0.029 0.065-0.042 0.103-0.033l0.179 0.043c0.023 0.006 0.048-0.001 0.065-0.017 0.035-0.032 0.030-0.088-0.010-0.113l-0.109-0.069c-0.024-0.015-0.037-0.042-0.034-0.070 0.004-0.037-0.020-0.070-0.055-0.079l-0.079-0.020c-0.076-0.019-0.124-0.092-0.113-0.17 0.004-0.028 0.016-0.054 0.034-0.075l0.14-0.165c0.044-0.052 0.042-0.128-0.004-0.178l-0.039-0.042c-0.034-0.037-0.028-0.096 0.013-0.125 0.032-0.023 0.076-0.020 0.106 0.007l0.115 0.107c0.028 0.026 0.064 0.042 0.101 0.046 0.086 0.008 0.165-0.048 0.186-0.132l0.011-0.043c0.009-0.038 0.008-0.078-0.002-0.115l-0.009-0.030c-0.055-0.192 0.066-0.39 0.261-0.429l0.008-0.002c0.145-0.029 0.256-0.147 0.277-0.294l0.004-0.027c0.007-0.046 0.022-0.091 0.044-0.133l0.144-0.263c0.018-0.032 0.011-0.072-0.015-0.098-0.021-0.020-0.050-0.027-0.078-0.020l-0.14 0.039c-0.037 0.010-0.075-0.011-0.085-0.048-0.009-0.030 0.004-0.063 0.032-0.079l0.1-0.059c0.027-0.016 0.057-0.023 0.088-0.021l0.095 0.005c0.054 0.003 0.096-0.045 0.086-0.098-0.005-0.023 0.001-0.048 0.016-0.066l0.047-0.060c0.055-0.071 0.069-0.166 0.035-0.249l-0.013-0.031c-0.063-0.157 0.011-0.336 0.167-0.402l0.011-0.005c0.095-0.040 0.165-0.123 0.189-0.224l0.028-0.122c0.028-0.12 0.094-0.227 0.188-0.306l0.123-0.103c0.040-0.034 0.070-0.078 0.085-0.128 0.039-0.126 0.162-0.206 0.292-0.19l0.090 0.011c0.146 0.017 0.291-0.053 0.369-0.178 0.063-0.1 0.077-0.224 0.038-0.335l-0.061-0.175c-0.017-0.049-0.002-0.103 0.038-0.135s0.096-0.037 0.141-0.011l0.106 0.063c0.021 0.013 0.049 0.008 0.065-0.011 0.027-0.032 0.006-0.081-0.036-0.083-0.027-0.001-0.049-0.024-0.048-0.051l0.001-0.022c0.001-0.024 0.013-0.046 0.034-0.059l0.154-0.097c0.036-0.023 0.083-0.020 0.116 0.008 0.024 0.020 0.057 0.027 0.087 0.020l0.016-0.004c0.061-0.015 0.099-0.075 0.088-0.136l-0.006-0.033c-0.008-0.044 0.021-0.087 0.065-0.097l0.019-0.004c0.061-0.013 0.079-0.093 0.030-0.132-0.029-0.024-0.036-0.066-0.015-0.097 0.028-0.041 0.087-0.043 0.117-0.004l0.046 0.059c0.027 0.035 0.071 0.050 0.114 0.040l0.004-0.001c0.048-0.012 0.082-0.055 0.081-0.105l-0-0.006c-0.001-0.040-0.027-0.076-0.065-0.090l-0.035-0.012c-0.041-0.015-0.058-0.064-0.035-0.1l0.005-0.008c0.012-0.018 0.011-0.042-0.001-0.060-0.022-0.032-0.004-0.077 0.035-0.084l0.016-0.003c0.035-0.007 0.053-0.044 0.038-0.076l-0.024-0.048c-0.009-0.018 0.006-0.039 0.026-0.036 0.024 0.003 0.038-0.027 0.020-0.043l-0.026-0.024c-0.018-0.017-0.015-0.047 0.007-0.058l0.044-0.024c0.038-0.020 0.049-0.070 0.024-0.104l-0.076-0.106c-0.015-0.021-0.007-0.052 0.017-0.062 0.022-0.009 0.047 0.002 0.055 0.024l0.033 0.093c0.006 0.017 0.021 0.028 0.039 0.030 0.034 0.003 0.058-0.031 0.045-0.062l-0.080-0.195c-0.021-0.052 0.012-0.11 0.068-0.118 0.045-0.006 0.077-0.046 0.074-0.092l-0.008-0.096c-0.002-0.030 0.019-0.058 0.049-0.063l0.002-0c0.037-0.007 0.071 0.024 0.067 0.062-0.003 0.027 0.013 0.052 0.039 0.060l0.144 0.049c0.045 0.015 0.094 0.017 0.14 0.006l0.624-0.156c0.080-0.020 0.163-0.029 0.245-0.027l0.105 0.003c0.062 0.002 0.123-0.010 0.18-0.034l0.107-0.046c0.142-0.061 0.307-0.004 0.381 0.131 0.041 0.075 0.113 0.129 0.197 0.148l0.301 0.068c0.060 0.013 0.1 0.069 0.095 0.13-0.003 0.033 0.007 0.066 0.029 0.091l0.065 0.076c0.033 0.038 0.073 0.069 0.119 0.090l0.028 0.013c0.121 0.057 0.261 0.063 0.387 0.017l0.061-0.022c0.116-0.043 0.21-0.128 0.265-0.238l0.115-0.231c0.016-0.032 0.011-0.070-0.011-0.097-0.021-0.026-0.027-0.061-0.014-0.092l0.053-0.123c0.032-0.075 0.093-0.134 0.168-0.165l0.407-0.163c0.055-0.022 0.082-0.085 0.059-0.14-0.021-0.052 0.002-0.112 0.052-0.137l0.127-0.062c0.036-0.018 0.076-0.026 0.116-0.026l0.204 0.002c0.133 0.002 0.254 0.076 0.315 0.193l0.020 0.039c0.038 0.073 0.108 0.125 0.19 0.14 0.056 0.010 0.113 0.003 0.165-0.021l0.073-0.034c0.102-0.047 0.216-0.061 0.325-0.038l0.494 0.102c0.142 0.029 0.286 0.043 0.43 0.042l0.364-0.003c0.069-0.001 0.138 0.009 0.205 0.028l0.265 0.075c0.039 0.011 0.070 0.038 0.087 0.075 0.031 0.068 0.111 0.099 0.179 0.068l0.279-0.126c0.127-0.057 0.275-0.046 0.392 0.030 0.108 0.070 0.242 0.085 0.363 0.042l0.111-0.040c0.138-0.050 0.289-0.052 0.429-0.004l0.040 0.014c0.067 0.023 0.13 0.054 0.189 0.095l0.393 0.27c0.057 0.039 0.085 0.108 0.073 0.176-0.006 0.032-0.021 0.063-0.044 0.087l-0.085 0.091c-0.016 0.018-0.038 0.030-0.061 0.035l-0.111 0.023c-0.033 0.007-0.047 0.046-0.027 0.072 0.019 0.024 0.008 0.060-0.021 0.070l-0.069 0.025 0.325-0.077c0.162-0.038 0.33-0.038 0.492 0l0.919 0.218c0.052 0.013 0.105-0.019 0.119-0.072 0.012-0.046 0.055-0.077 0.102-0.074l0.102 0.006c0.099 0.006 0.19-0.054 0.224-0.148l0.022-0.062c0.043-0.12 0.155-0.201 0.283-0.206l0.127-0.004c0.102-0.004 0.201-0.039 0.283-0.1l0.037-0.028c0.082-0.062 0.177-0.103 0.278-0.12l0.017-0.003c0.084-0.015 0.166-0.045 0.238-0.091l0.19-0.118c0.056-0.035 0.093-0.093 0.099-0.159l0.004-0.037c0.007-0.073 0.063-0.132 0.135-0.144l0.019-0.003c0.058-0.010 0.103-0.056 0.112-0.114 0.007-0.047 0.038-0.087 0.082-0.105l0.343-0.144c0.039-0.016 0.061-0.057 0.052-0.098-0.009-0.047-0.054-0.078-0.102-0.070l-0.054 0.009c-0.109 0.019-0.198-0.087-0.161-0.191l0.090-0.253c0.027-0.076 0.022-0.159-0.013-0.232l-0.097-0.202c-0.052-0.108-0.045-0.236 0.019-0.338 0.070-0.113 0.199-0.176 0.331-0.164l0.094 0.009c0.034 0.003 0.067-0.005 0.095-0.024l0.002-0.001c0.065-0.044 0.083-0.132 0.040-0.198-0.022-0.033-0.029-0.073-0.020-0.111l0.026-0.112c0.015-0.067-0.035-0.13-0.104-0.13-0.046 0-0.087-0.030-0.101-0.074l-0.131-0.414c-0.016-0.050-0.022-0.103-0.019-0.156l0.005-0.083c0.003-0.051 0.025-0.099 0.061-0.135 0.038-0.038 0.089-0.060 0.142-0.062l0.126-0.004c0.109-0.003 0.217 0.027 0.308 0.088l0.094 0.063c0.066 0.044 0.148 0.057 0.225 0.037l0.026-0.007c0.071-0.019 0.147-0.002 0.204 0.045l0.005 0.004c0.088 0.074 0.218 0.067 0.298-0.015 0.046-0.047 0.11-0.071 0.175-0.065l0.114 0.009c0.127 0.011 0.244 0.074 0.322 0.175l0.081 0.105c0.064 0.082 0.17 0.118 0.271 0.091 0.075-0.020 0.154-0.006 0.217 0.039l0.617 0.443c0.037 0.027 0.069 0.061 0.091 0.101 0.084 0.148 0.269 0.204 0.421 0.126l0.207-0.105c0.047-0.024 0.103-0.010 0.133 0.033 0.026 0.038 0.074 0.054 0.118 0.040l0.194-0.063c0.040-0.013 0.083-0.011 0.121 0.005 0.075 0.031 0.161 0.007 0.209-0.058l0.041-0.055c0.058-0.080 0.157-0.12 0.254-0.104l0.103 0.016c0.119 0.019 0.21 0.118 0.219 0.238l0.005 0.060c0.006 0.078 0.062 0.144 0.139 0.161 0.052 0.012 0.107 0 0.15-0.033l0.411-0.317c0.056-0.043 0.125-0.065 0.195-0.063l0.044 0.001c0.107 0.003 0.203-0.064 0.238-0.164 0.017-0.047 0.047-0.088 0.088-0.118l0.279-0.202c0.040-0.029 0.072-0.066 0.095-0.109l0.108-0.201c0.021-0.040 0.070-0.055 0.11-0.036 0.026 0.013 0.044 0.038 0.047 0.067l0.005 0.040c0.003 0.031-0.012 0.061-0.040 0.076l-0.009 0.005c-0.032 0.017-0.044 0.057-0.028 0.089 0.019 0.037 0.067 0.048 0.1 0.022l0.353-0.274c0.036-0.028 0.067-0.062 0.093-0.1l0.086-0.13c0.044-0.066 0.123-0.098 0.2-0.082 0.116 0.025 0.227-0.061 0.232-0.18l0.007-0.17c0.003-0.063 0.051-0.115 0.114-0.122l0.046-0.005c0.016-0.002 0.030-0.012 0.037-0.027 0.015-0.031 0.057-0.037 0.079-0.010l0.008 0.010z"></path>
</svg>
