<!-- Generated by IcoMoon.io -->
<svg version="1.1" xmlns="http://www.w3.org/2000/svg" width="41" height="32" viewBox="0 0 41 32">
<path d="M30.752 0.338c0.021-0.027 0.061-0.032 0.088-0.011s0.032 0.059 0.013 0.086l-0.040 0.056c-0.042 0.059-0.030 0.142 0.029 0.186l0.386 0.292c0.076 0.058 0.136 0.134 0.175 0.221 0.068 0.154 0.201 0.269 0.362 0.314l1.063 0.295c0.106 0.029 0.185 0.118 0.203 0.227l0.006 0.040c0.019 0.123-0.060 0.24-0.181 0.268l-0.184 0.042c-0.101 0.023-0.138 0.148-0.065 0.222 0.044 0.045 0.051 0.115 0.016 0.167l-0.037 0.054c-0.053 0.079-0.047 0.183 0.014 0.255l0.525 0.624c0.025 0.030 0.063 0.045 0.102 0.039 0.042-0.006 0.077-0.034 0.091-0.073l0.033-0.089c0.033-0.087 0.14-0.119 0.214-0.062 0.041 0.031 0.061 0.082 0.053 0.133l-0.002 0.010c-0.013 0.079 0.041 0.153 0.12 0.165 0.060 0.009 0.108 0.056 0.119 0.115l0.111 0.591c0.030 0.159 0.125 0.298 0.262 0.384l0.141 0.088c0.126 0.078 0.188 0.228 0.154 0.372l-0.036 0.155c-0.007 0.030 0.003 0.062 0.027 0.082l0.031 0.027c0.033 0.029 0.024 0.083-0.017 0.099-0.020 0.008-0.034 0.025-0.037 0.046l-0.038 0.262c-0.009 0.064 0.011 0.129 0.054 0.177 0.092 0.102 0.068 0.263-0.051 0.333l-0.080 0.047c-0.049 0.029-0.112 0.018-0.148-0.026-0.042-0.050-0.117-0.056-0.166-0.013l-0.016 0.014c-0.055 0.049-0.062 0.133-0.015 0.19l0.62 0.76c0.034 0.041 0.060 0.088 0.078 0.137l0.034 0.095c0.061 0.171 0.242 0.268 0.418 0.224 0.185-0.046 0.374 0.065 0.426 0.248 0.039 0.137 0.155 0.239 0.296 0.258l0.047 0.006c0.128 0.017 0.241 0.091 0.309 0.201l0.025 0.041c0.050 0.081 0.077 0.174 0.079 0.27l0.002 0.103c0.006 0.383 0.252 0.72 0.614 0.844l0.29 0.099c0.117 0.040 0.219 0.114 0.294 0.212l0.097 0.128c0.026 0.034 0.063 0.058 0.105 0.067l0.051 0.011c0.094 0.021 0.14 0.127 0.092 0.21-0.020 0.035-0.025 0.077-0.013 0.115l0.136 0.425c0.017 0.053 0.003 0.111-0.036 0.151-0.066 0.066-0.056 0.176 0.021 0.229l0.483 0.333c0.041 0.028 0.047 0.088 0.011 0.123-0.016 0.015-0.024 0.037-0.024 0.059l0.010 0.44c0.005 0.225-0.085 0.442-0.249 0.598l-0.135 0.128c-0.056 0.053-0.129 0.084-0.206 0.087-0.165 0.005-0.298 0.138-0.304 0.303l-0.019 0.516c-0.002 0.051-0.026 0.099-0.067 0.131-0.095 0.074-0.088 0.22 0.014 0.284l0.039 0.025c0.066 0.042 0.103 0.118 0.095 0.196l-0.020 0.191c-0.008 0.075 0.008 0.15 0.047 0.215l0.018 0.030c0.054 0.091 0.153 0.145 0.259 0.141 0.066-0.002 0.13 0.018 0.183 0.057l0.109 0.081c0.055 0.041 0.089 0.103 0.095 0.171 0.012 0.142-0.102 0.263-0.244 0.258l-0.592-0.018c-0.12-0.004-0.237-0.035-0.342-0.092l-0.35-0.19c-0.13-0.070-0.273-0.115-0.419-0.131l-0.339-0.038c-0.076-0.008-0.145-0.045-0.194-0.104-0.142-0.169-0.413-0.128-0.498 0.076l-0.155 0.372c-0.018 0.044-0.046 0.083-0.082 0.114l-0.11 0.097c-0.023 0.020-0.032 0.052-0.024 0.081l0.001 0.005c0.008 0.030 0.035 0.051 0.066 0.053 0.055 0.003 0.087 0.065 0.057 0.112l-0.027 0.043c-0.028 0.044-0.019 0.103 0.023 0.136l0.328 0.262c0.055 0.044 0.119 0.078 0.187 0.099l0.238 0.074c0.101 0.031 0.19 0.092 0.257 0.174 0.060 0.074 0.139 0.131 0.229 0.165l0.073 0.027c0.078 0.029 0.143 0.084 0.185 0.156l0.104 0.181c0.044 0.076 0.142 0.101 0.216 0.054 0.054-0.034 0.124-0.031 0.175 0.008l0.1 0.075c0.079 0.059 0.179 0.081 0.276 0.060l0.425-0.093c0.113-0.025 0.231-0.015 0.338 0.028l0.066 0.026c0.062 0.025 0.116 0.067 0.154 0.123 0.096 0.139 0.279 0.186 0.431 0.112l0.306-0.149c0.050-0.024 0.106-0.035 0.161-0.029l0.139 0.014c0.132 0.013 0.214 0.149 0.163 0.271-0.011 0.028-0.029 0.052-0.051 0.072l-0.755 0.67c-0.064 0.057-0.115 0.127-0.15 0.206l-0.042 0.096c-0.057 0.13-0.043 0.28 0.038 0.397 0.051 0.073 0.124 0.128 0.209 0.156l1.090 0.356c0.115 0.038 0.192 0.145 0.191 0.266-0.001 0.111-0.068 0.211-0.171 0.254l-0.588 0.244c-0.078 0.032-0.092 0.137-0.025 0.189 0.021 0.016 0.035 0.038 0.041 0.063l0.128 0.569c0.012 0.051 0.004 0.105-0.022 0.151-0.063 0.111-0.014 0.252 0.105 0.301l0.256 0.105c0.024 0.010 0.040 0.031 0.043 0.057 0.005 0.039-0.023 0.075-0.063 0.079l-0.176 0.018c-0.051 0.005-0.090 0.048-0.091 0.099-0.001 0.047-0.035 0.088-0.081 0.097l-1.154 0.235c-0.061 0.012-0.12-0.027-0.132-0.087-0.012-0.056-0.064-0.095-0.121-0.089l-0.215 0.023c-0.044 0.005-0.084-0.023-0.096-0.066-0.009-0.034-0.038-0.060-0.074-0.065l-0.060-0.009c-0.070-0.010-0.139 0.023-0.175 0.083l-0.005 0.009c-0.027 0.045-0.029 0.101-0.006 0.148 0.049 0.099-0.019 0.216-0.129 0.223l-0.566 0.036c-0.032 0.002-0.061-0.020-0.067-0.051-0.010-0.048-0.067-0.068-0.104-0.037l-0.098 0.081c-0.055 0.046-0.138 0.034-0.177-0.026-0.015-0.023-0.037-0.040-0.063-0.048l-0.109-0.036c-0.12-0.039-0.238 0.067-0.211 0.19l0.002 0.008c0.020 0.095-0.050 0.186-0.147 0.19-0.077 0.003-0.145-0.049-0.161-0.125l-0.218-1.030c-0.018-0.083-0.107-0.129-0.184-0.095s-0.165-0.011-0.184-0.093l-0.047-0.206c-0.004-0.019 0.001-0.039 0.015-0.053 0.030-0.031 0.017-0.082-0.024-0.095l-0.124-0.039c-0.030-0.009-0.054-0.031-0.068-0.059-0.039-0.081-0.152-0.087-0.199-0.011l-0.076 0.121c-0.040 0.064-0.114 0.099-0.19 0.089l-0.346-0.047c-0.022-0.003-0.043-0.010-0.062-0.021-0.069-0.040-0.1-0.123-0.076-0.199l0.009-0.028c0.013-0.040 0.014-0.082 0.002-0.122l-0.071-0.241c-0.012-0.041-0.055-0.064-0.096-0.052-0.043 0.012-0.088-0.015-0.097-0.059l-0.004-0.019c-0.011-0.052-0.061-0.085-0.113-0.075l-0.473 0.098c-0.038 0.008-0.077-0.006-0.102-0.035l-0.085-0.101c-0.020-0.024-0.058-0.015-0.065 0.015-0.004 0.016-0.019 0.028-0.036 0.028l-0.089 0.002c-0.081 0.002-0.147 0.067-0.151 0.148l-0.001 0.025c-0.004 0.094-0.079 0.169-0.172 0.174l-0.008 0.001c-0.091 0.005-0.166 0.073-0.179 0.163l-0.128 0.886c-0.016 0.11-0.135 0.171-0.233 0.119-0.093-0.049-0.207 0.003-0.231 0.105l-0.021 0.092c-0.020 0.083-0.082 0.148-0.164 0.172l-0.269 0.075c-0.073 0.021-0.126 0.085-0.131 0.161-0.004 0.061 0.024 0.121 0.074 0.157l0.048 0.035c0.077 0.056 0.121 0.146 0.118 0.241l-0.007 0.212c-0.001 0.045-0.022 0.088-0.056 0.118-0.028 0.025-0.064 0.039-0.102 0.041l-0.352 0.015c-0.042 0.002-0.079 0.025-0.1 0.061l-0.015 0.025c-0.020 0.035-0.062 0.051-0.101 0.039-0.040-0.013-0.065-0.054-0.058-0.096l0.004-0.024c0.012-0.070-0.043-0.134-0.115-0.133l-0.256 0.005c-0.065 0.001-0.129-0.022-0.178-0.065-0.11-0.097-0.277-0.084-0.372 0.027l-0.025 0.029c-0.044 0.052-0.105 0.087-0.172 0.1l-0.557 0.106c-0.039 0.007-0.075 0.028-0.101 0.058l-0.090 0.105c-0.077 0.090-0.225 0.034-0.223-0.085 0.001-0.047-0.025-0.091-0.067-0.114l-0.744-0.401c-0.047-0.025-0.099-0.040-0.152-0.043l-0.058-0.004c-0.053-0.003-0.104-0.026-0.142-0.065l-0.076-0.078c-0.058-0.059-0.156-0.050-0.202 0.020-0.015 0.023-0.037 0.040-0.062 0.050l-0.418 0.162c-0.082 0.032-0.17 0.042-0.257 0.031l-0.134-0.018c-0.176-0.023-0.342 0.084-0.394 0.254-0.053 0.176-0.23 0.284-0.411 0.251l-0.421-0.076c-0.036-0.006-0.072 0.001-0.103 0.020l-0.186 0.119c-0.074 0.047-0.162-0.034-0.121-0.111 0.020-0.038 0.009-0.084-0.026-0.109l-0.012-0.009c-0.041-0.029-0.097-0.025-0.132 0.011l-0.091 0.092c-0.028 0.028-0.021 0.075 0.013 0.094 0.035 0.020 0.041 0.068 0.011 0.096l-0.007 0.006c-0.022 0.020-0.028 0.052-0.015 0.079l0.061 0.124c0.039 0.079 0.019 0.175-0.050 0.232l-0.077 0.064c-0.038 0.031-0.043 0.086-0.013 0.124 0.023 0.029 0.026 0.069 0.007 0.101l-0.127 0.216c-0.017 0.029-0.012 0.066 0.012 0.089 0.034 0.033 0.027 0.090-0.014 0.115l-0.214 0.129c-0.060 0.036-0.097 0.1-0.1 0.171-0.002 0.080-0.050 0.151-0.124 0.183l-0.734 0.321c-0.036 0.016-0.070 0.036-0.099 0.062l-0.222 0.188c-0.047 0.040-0.053 0.11-0.014 0.157l0.020 0.024c0.020 0.025 0.022 0.059 0.004 0.086-0.021 0.031-0.063 0.040-0.095 0.021l-0.020-0.012c-0.052-0.031-0.117 0.006-0.117 0.067 0 0.024-0.011 0.046-0.030 0.061l-0.154 0.121c-0.021 0.016-0.051-0.001-0.049-0.027 0.004-0.033-0.041-0.047-0.057-0.017l-0.073 0.138c-0.016 0.030-0.054 0.041-0.084 0.023l-0.137-0.082c-0.053-0.032-0.122-0-0.132 0.061-0.007 0.041-0.042 0.072-0.083 0.073l-0.090 0.003c-0.080 0.003-0.154-0.043-0.187-0.116l-0.066-0.146c-0.069-0.152-0.238-0.231-0.399-0.186l-0.097 0.027c-0.109 0.030-0.223-0.025-0.267-0.13-0.031-0.073-0.098-0.125-0.176-0.136l-0.167-0.023c-0.076-0.011-0.151 0.026-0.19 0.092-0.041 0.070-0.122 0.106-0.201 0.090l-0.113-0.023c-0.101-0.020-0.205 0.022-0.263 0.107l-0.092 0.135c-0.027 0.039-0.081 0.050-0.121 0.025-0.038-0.024-0.089-0.016-0.117 0.020l-0.047 0.059c-0.016 0.020-0.044 0.023-0.063 0.007-0.022-0.018-0.056-0.011-0.069 0.015l-0.032 0.067c-0.028 0.058-0.102 0.076-0.154 0.038l-0.096-0.071c-0.034-0.025-0.082-0.015-0.104 0.021-0.018 0.030-0.055 0.043-0.088 0.029l-0.098-0.040c-0.042-0.017-0.077-0.048-0.098-0.088l-0.1-0.187c-0.022-0.041-0.072-0.058-0.115-0.040-0.027 0.012-0.058 0.009-0.083-0.006l-0.157-0.097c-0.056-0.034-0.123-0.044-0.186-0.028l-0.084 0.021c-0.046 0.012-0.094-0.006-0.121-0.044-0.025-0.035-0.067-0.053-0.109-0.047l-0.209 0.030c-0.067 0.010-0.135-0.013-0.183-0.060l-0.053-0.052c-0.013-0.013-0.031-0.019-0.050-0.017-0.035 0.004-0.060 0.036-0.054 0.071l0.004 0.026c0.009 0.055-0.036 0.105-0.092 0.1l-0.369-0.031c-0.075-0.006-0.14 0.049-0.148 0.123-0.005 0.052-0.039 0.097-0.088 0.115l-0.016 0.006c-0.027 0.010-0.056 0.013-0.084 0.008l-0.483-0.080c-0.047-0.008-0.091-0.032-0.122-0.068l-0.111-0.128c-0.047-0.055-0.136-0.041-0.165 0.025-0.021 0.047-0.075 0.070-0.124 0.053l-0.423-0.153c-0.046-0.017-0.097 0.010-0.108 0.058-0.008 0.035-0.038 0.060-0.073 0.063l-0.13 0.011c-0.034 0.003-0.068-0.001-0.101-0.011l-0.131-0.041c-0.176-0.055-0.366-0.046-0.536 0.023l-0.379 0.155c-0.037 0.015-0.063 0.049-0.067 0.089l-0.006 0.054c-0.005 0.043-0.048 0.070-0.088 0.056-0.032-0.011-0.068 0.004-0.082 0.035l-0.123 0.268c-0.021 0.046-0.069 0.075-0.12 0.073-0.114-0.006-0.175 0.131-0.095 0.212l0.115 0.116c0.047 0.047 0.065 0.116 0.048 0.181l-0.052 0.195c-0.047 0.175-0.178 0.314-0.349 0.372l-0.085 0.029c-0.090 0.030-0.168 0.089-0.221 0.168l-0.057 0.085c-0.094 0.139-0.066 0.326 0.065 0.431l0.173 0.14c0.046 0.037 0.053 0.105 0.014 0.151l-0.012 0.014c-0.032 0.037-0.027 0.093 0.011 0.124 0.022 0.018 0.034 0.046 0.032 0.075l-0.008 0.107c-0.012 0.146-0.129 0.261-0.275 0.269l-0.563 0.032c-0.13 0.007-0.257-0.041-0.349-0.134-0.113-0.114-0.277-0.16-0.433-0.121l-0.043 0.011c-0.193 0.048-0.343 0.198-0.39 0.391l-0.015 0.061c-0.062 0.252-0.27 0.441-0.526 0.479l-0.179 0.026c-0.104 0.015-0.202 0.057-0.286 0.121l-0.009 0.007c-0.068 0.053-0.148 0.089-0.233 0.106l-0.33 0.067c-0.085 0.017-0.145 0.094-0.14 0.181 0.004 0.077-0.043 0.148-0.116 0.174l-0.166 0.059c-0.018 0.007-0.037 0.011-0.057 0.014-0.069 0.011-0.14-0.004-0.2-0.040l-0.477-0.285c-0.069-0.041-0.157-0.033-0.217 0.020-0.032 0.028-0.053 0.067-0.060 0.109l-0.022 0.135c-0.019 0.117-0.074 0.225-0.157 0.309l-0.173 0.175c-0.067 0.067-0.16 0.101-0.254 0.092-0.069-0.007-0.133-0.035-0.184-0.082l-0.236-0.217c-0.137-0.126-0.325-0.183-0.509-0.153l-0.508 0.082c-0.095 0.015-0.182-0.057-0.185-0.154-0.002-0.075 0.049-0.141 0.122-0.159l0.155-0.037c0.091-0.022 0.16-0.097 0.173-0.19l0.017-0.122c0.002-0.017-0.006-0.034-0.021-0.043-0.038-0.022-0.021-0.081 0.023-0.080l0.088 0.003c0.042 0.001 0.074-0.037 0.066-0.078l-0.11-0.555c-0.037-0.189-0.178-0.342-0.363-0.396l-0.143-0.041c-0.079-0.023-0.146-0.075-0.189-0.145l-0.020-0.032c-0.028-0.046-0.039-0.1-0.030-0.153 0.016-0.099 0.095-0.176 0.195-0.189l0.117-0.015c0.087-0.011 0.158-0.075 0.178-0.161l0.031-0.132c0.014-0.059-0.029-0.115-0.089-0.119-0.046-0.002-0.084-0.037-0.091-0.082l-0.010-0.067c-0.011-0.068-0.059-0.125-0.125-0.145l-0.146-0.045c-0.067-0.020-0.111-0.085-0.105-0.156 0.008-0.085-0.058-0.159-0.143-0.162l-0.074-0.003c-0.054-0.002-0.106-0.023-0.145-0.061l-0.404-0.39c-0.020-0.019-0.046-0.031-0.074-0.032l-0.067-0.003c-0.049-0.002-0.080-0.053-0.060-0.097 0.013-0.030 0.004-0.065-0.023-0.084l-0.027-0.020c-0.043-0.031-0.058-0.088-0.035-0.136l0.068-0.143c0.016-0.034 0.048-0.058 0.085-0.065 0.083-0.014 0.124-0.11 0.076-0.18l-0.151-0.222c-0.015-0.022-0.017-0.050-0.005-0.074 0.020-0.041-0.001-0.090-0.044-0.103l-0.689-0.213c-0.262-0.081-0.451-0.31-0.481-0.583l-0.048-0.437c-0.013-0.119-0.080-0.225-0.182-0.287-0.089-0.055-0.153-0.144-0.176-0.246l-0.074-0.333c-0.006-0.026-0.019-0.051-0.039-0.070l-0.004-0.004c-0.053-0.052-0.054-0.137-0.002-0.19 0.064-0.066 0.045-0.174-0.037-0.215l-0.131-0.064c-0.046-0.022-0.099-0.021-0.144 0.003-0.062 0.034-0.139 0.022-0.188-0.029l-0.259-0.27c-0.048-0.050-0.054-0.126-0.015-0.183l0.014-0.020c0.032-0.047 0.026-0.11-0.015-0.149s-0.047-0.102-0.015-0.149l0.423-0.619c0.029-0.042 0.016-0.099-0.028-0.125-0.026-0.015-0.042-0.043-0.043-0.073l-0.001-0.041c-0.004-0.113-0.119-0.188-0.223-0.146l-0.103 0.041c-0.112 0.045-0.239 0-0.299-0.105l-0.281-0.494c-0.019-0.033-0.004-0.075 0.032-0.089l0.012-0.005c0.017-0.006 0.028-0.022 0.028-0.040 0-0.043 0.056-0.060 0.079-0.024l0.018 0.028c0.024 0.036 0.079 0.030 0.094-0.010l0.184-0.487c0.033-0.089 0.131-0.136 0.222-0.108 0.126 0.039 0.251-0.068 0.23-0.198-0.015-0.089 0.040-0.175 0.127-0.2l0.388-0.109c0.053-0.015 0.088-0.065 0.084-0.12l-0.001-0.020c-0.004-0.050-0.045-0.088-0.095-0.088-0.036 0-0.069-0.020-0.085-0.053l-0.038-0.076c-0.021-0.043-0.029-0.092-0.021-0.14l0.132-0.826c0.007-0.044-0.002-0.090-0.025-0.129l-0.121-0.203c-0.040-0.067 0.019-0.149 0.095-0.133 0.033 0.007 0.068-0.005 0.089-0.032l0.027-0.035c0.033-0.042 0.086-0.061 0.138-0.050 0.087 0.019 0.134 0.114 0.096 0.194l-0.030 0.063c-0.014 0.029-0.039 0.052-0.070 0.061-0.082 0.026-0.109 0.129-0.050 0.192l0.217 0.229c0.074 0.078 0.182 0.113 0.287 0.093l0.353-0.067c0.045-0.009 0.090 0.011 0.115 0.048 0.030 0.045 0.088 0.063 0.138 0.041l0.28-0.12c0.028-0.012 0.059-0.017 0.089-0.014l0.132 0.013c0.077 0.008 0.134-0.070 0.105-0.141-0.023-0.055 0.006-0.118 0.063-0.137l0.094-0.031c0.047-0.015 0.087-0.049 0.111-0.093l0.325-0.606c0.033-0.062 0.087-0.109 0.153-0.134 0.116-0.044 0.191-0.157 0.187-0.281l-0.005-0.176c-0.002-0.070-0.018-0.14-0.047-0.204l-0.089-0.2c-0.014-0.031-0.015-0.067-0.004-0.099l0.010-0.028c0.022-0.062 0.093-0.090 0.151-0.060 0.024 0.012 0.051 0.015 0.077 0.008l0.263-0.071c0.099-0.027 0.186-0.085 0.249-0.166l0.033-0.043c0.044-0.057 0.106-0.098 0.177-0.114 0.051-0.012 0.105-0.011 0.156 0.003l0.087 0.024c0.239 0.065 0.422 0.257 0.477 0.498l0.045 0.198c0.009 0.039 0.027 0.076 0.054 0.106l0.060 0.070c0.075 0.087 0.211 0.079 0.276-0.015 0.036-0.052 0.041-0.12 0.013-0.177l-0.028-0.056c-0.050-0.1-0.005-0.221 0.097-0.265l0.018-0.008c0.031-0.013 0.056-0.037 0.071-0.067l0.121-0.246c0.019-0.038 0.075-0.031 0.084 0.010 0.005 0.022 0.025 0.037 0.048 0.035l0.217-0.020c0.189-0.017 0.344 0.147 0.315 0.335l-0.024 0.156c-0.035 0.225 0.118 0.435 0.342 0.473l1.541 0.256c0.093 0.015 0.164 0.092 0.173 0.186l0.010 0.11c0.003 0.031 0.026 0.056 0.056 0.060 0.034 0.005 0.066-0.016 0.075-0.049l0.259-0.983c0.017-0.063 0.066-0.112 0.129-0.128 0.086-0.022 0.143-0.104 0.134-0.192l-0.011-0.112c-0.009-0.092 0.049-0.177 0.137-0.203 0.080-0.023 0.136-0.094 0.138-0.177l0.002-0.050c0.003-0.089 0.051-0.17 0.128-0.215l0.035-0.021c0.141-0.083 0.32-0.051 0.425 0.074l0.295 0.352c0.049 0.058 0.121 0.092 0.196 0.092 0.075 0 0.145-0.032 0.194-0.089l0.267-0.31c0.033-0.038 0.086-0.052 0.134-0.035s0.101 0.004 0.134-0.035l0.071-0.083c0.090-0.106 0.245-0.129 0.362-0.053l0.076 0.049c0.061 0.039 0.131 0.060 0.203 0.060l0.11 0.001c0.14 0.001 0.276 0.040 0.395 0.114l0.327 0.202c0.108 0.067 0.248 0.052 0.339-0.037 0.052-0.051 0.123-0.079 0.195-0.078l0.151 0.001c0.089 0.001 0.176-0.028 0.247-0.082 0.075-0.057 0.168-0.086 0.263-0.081l0.523 0.025c0.080 0.004 0.159-0.022 0.221-0.073l0.029-0.024c0.053-0.043 0.121-0.062 0.188-0.052 0.11 0.017 0.218-0.045 0.259-0.149l0.064-0.161c0.012-0.031 0.042-0.052 0.076-0.053 0.042-0.001 0.077-0.033 0.082-0.075l0.037-0.347c0.003-0.029-0.008-0.057-0.030-0.076-0.057-0.050-0.029-0.143 0.046-0.154l0.607-0.085c0.070-0.010 0.134-0.047 0.178-0.103 0.042-0.054 0.062-0.121 0.057-0.189l-0.005-0.063c-0.005-0.070 0.015-0.14 0.058-0.195l0.182-0.237c0.023-0.030 0.068-0.030 0.091 0 0.036 0.048 0.113 0.015 0.102-0.044l-0.001-0.007c-0.005-0.028 0.011-0.056 0.038-0.066l0.166-0.058c0.034-0.012 0.066-0.031 0.093-0.056l0.095-0.088c0.156-0.144 0.254-0.34 0.277-0.551l0.041-0.372c0.009-0.080 0.037-0.156 0.082-0.223l0.053-0.078c0.015-0.022 0.035-0.039 0.058-0.050l0.017-0.008c0.046-0.022 0.1-0.013 0.137 0.023l0.049 0.049c0.039 0.039 0.106 0.024 0.125-0.028l0.009-0.024c0.007-0.019 0.026-0.031 0.046-0.028 0.035 0.004 0.060-0.032 0.044-0.063l-0.101-0.199c-0.012-0.024-0.007-0.053 0.012-0.071 0.036-0.035 0.017-0.096-0.033-0.103l-0.034-0.005c-0.042-0.006-0.071-0.046-0.065-0.088l0.038-0.244c0.007-0.048 0.026-0.093 0.053-0.133l0.766-1.112c0.019-0.027 0.026-0.060 0.022-0.093l-0.017-0.122c-0.007-0.050 0.044-0.088 0.090-0.067 0.033 0.015 0.071-0 0.085-0.033l0.007-0.016c0.016-0.038 0.001-0.083-0.036-0.102l-0.073-0.039c-0.069-0.037-0.104-0.116-0.085-0.192l0.082-0.331c0.007-0.030 0.026-0.056 0.053-0.071 0.050-0.031 0.070-0.094 0.045-0.148l-0.070-0.152c-0.027-0.060-0.035-0.127-0.021-0.191l0.036-0.168c0.022-0.101-0.016-0.205-0.097-0.268-0.1-0.077-0.132-0.215-0.077-0.328l0.209-0.427c0.038-0.077 0.044-0.165 0.017-0.247l-0.002-0.006c-0.046-0.141 0.010-0.296 0.137-0.374l0.109-0.067c0.055-0.034 0.125-0.028 0.174 0.014 0.063 0.055 0.159 0.046 0.211-0.019l0.2-0.25c0.057-0.072 0.135-0.124 0.223-0.151l0.82-0.248c0.046-0.014 0.082-0.052 0.092-0.1 0.008-0.036 0-0.074-0.021-0.104l-0.262-0.378c-0.023-0.032-0.055-0.056-0.093-0.067l-0.044-0.013c-0.044-0.013-0.075-0.052-0.077-0.098l-0.001-0.015c-0.002-0.029 0.012-0.056 0.036-0.072 0.051-0.035 0.047-0.111-0.008-0.14l-0.307-0.16c-0.015-0.008-0.033-0.009-0.049-0.002-0.056 0.024-0.106-0.045-0.065-0.091l0.026-0.029c0.035-0.039 0.012-0.101-0.040-0.107-0.043-0.005-0.069-0.050-0.052-0.090l0.040-0.091c0.020-0.046 0.064-0.078 0.115-0.082l0.767-0.063c0.097-0.008 0.195-0.004 0.29 0.013l0.174 0.030c0.088 0.015 0.17 0.054 0.238 0.112l0.053 0.045c0.031 0.027 0.055 0.061 0.069 0.1 0.019 0.052 0.018 0.11-0.001 0.162l-0.139 0.374c-0.059 0.158-0.087 0.327-0.083 0.495l0.005 0.195c0.003 0.097 0.026 0.193 0.069 0.28l0.075 0.151c0.043 0.087 0.124 0.15 0.219 0.171l0.060 0.013c0.066 0.014 0.12 0.060 0.145 0.123l0.018 0.045c0.025 0.061 0.088 0.097 0.153 0.087 0.073-0.011 0.143 0.035 0.16 0.107l0.024 0.102c0.012 0.049 0.061 0.079 0.109 0.066 0.036-0.009 0.062-0.039 0.067-0.075l0.021-0.163c0.019-0.147 0.134-0.264 0.281-0.286l0.023-0.003c0.123-0.018 0.226-0.101 0.269-0.218l0.025-0.068c0.022-0.058 0.070-0.103 0.129-0.12l0.026-0.008c0.044-0.013 0.079-0.045 0.094-0.088 0.022-0.059 0.079-0.097 0.142-0.093l0.019 0.001c0.084 0.005 0.152 0.073 0.157 0.157l0.020 0.318c0.016 0.261 0.222 0.472 0.483 0.494l0.263 0.022c0.298 0.025 0.584-0.119 0.741-0.373l0.167-0.271c0.026-0.042 0.070-0.070 0.12-0.074 0.084-0.008 0.148-0.081 0.143-0.165l-0.008-0.154c-0.005-0.098 0.035-0.194 0.11-0.258l0.102-0.088c0.070-0.060 0.124-0.135 0.16-0.22l0.005-0.012c0.107-0.254 0.363-0.412 0.637-0.394l0.326 0.022c0.056 0.004 0.104 0.039 0.125 0.090 0.048 0.117 0.211 0.122 0.266 0.009l0.034-0.070c0.018-0.037 0.023-0.079 0.014-0.119l-0.067-0.294c-0.084-0.365 0.084-0.74 0.411-0.922l0.202-0.112c0.031-0.017 0.066-0.023 0.1-0.018l0.057 0.008c0.044 0.006 0.086-0.020 0.1-0.062 0.016-0.051-0.014-0.105-0.066-0.116l-0.565-0.13c-0.026-0.006-0.052-0.006-0.078 0-0.112 0.026-0.217-0.062-0.211-0.176l0.018-0.341c0.008-0.15 0.094-0.285 0.227-0.355l0.375-0.199c0.089-0.048 0.12-0.161 0.066-0.247l-0.038-0.061c-0.020-0.032-0.059-0.046-0.095-0.034-0.042 0.014-0.088-0.008-0.103-0.050l-0.019-0.052c-0.036-0.101 0.056-0.201 0.159-0.172 0.060 0.016 0.123-0.011 0.152-0.065l0.337-0.637c0.012-0.023 0.013-0.050 0.003-0.074-0.020-0.047 0.006-0.102 0.055-0.116l0.085-0.025c0.044-0.013 0.092-0.007 0.131 0.017l0.093 0.057c0.197 0.12 0.454 0.055 0.57-0.144l0.079-0.135c0.041-0.070 0.12-0.11 0.201-0.101l0.046 0.005c0.043 0.005 0.084-0.013 0.111-0.046l0.038-0.047z"></path>
</svg>
