<!-- Generated by IcoMoon.io -->
<svg version="1.1" xmlns="http://www.w3.org/2000/svg" width="60" height="32" viewBox="0 0 60 32">
<path stroke-linejoin="round" stroke-linecap="round" stroke-miterlimit="4" stroke-width="0.6667" stroke="#000" fill="#000" d="M16.439 1.342c0.287-0.391 0.773-0.583 1.25-0.494l0.922 0.173c0.137 0.026 0.255 0.111 0.322 0.233 0.181 0.327 0.654 0.319 0.824-0.014l0.066-0.131c0.022-0.044 0.050-0.084 0.084-0.121l0.206-0.225c0.069-0.076 0.166-0.12 0.268-0.122 0.067-0.002 0.133 0.015 0.192 0.047l0.161 0.090c0.123 0.069 0.232 0.162 0.318 0.273l0.906 1.165c0.077 0.099 0.112 0.225 0.097 0.35l-0.021 0.17c-0.028 0.226 0.167 0.417 0.393 0.384 0.076-0.011 0.153 0.003 0.219 0.041l0.333 0.187c0.204 0.114 0.444 0.144 0.669 0.083 0.157-0.043 0.3-0.128 0.413-0.246l0.471-0.495c0.17-0.178 0.429-0.239 0.66-0.155 0.351 0.127 0.735-0.083 0.816-0.448l0.035-0.159c0.029-0.132 0.125-0.239 0.252-0.283l0.045-0.016c0.118-0.041 0.249-0.008 0.334 0.083 0.045 0.048 0.073 0.109 0.082 0.175l0.090 0.712c0.025 0.196-0.023 0.394-0.134 0.557-0.195 0.286-0.186 0.665 0.022 0.941l0.471 0.626c0.183 0.243 0.525 0.3 0.778 0.132 0.173-0.115 0.27-0.315 0.253-0.522-0.008-0.092-0.038-0.18-0.087-0.258l-0.468-0.731c-0.083-0.129-0.109-0.287-0.073-0.436l0.022-0.090c0.023-0.093 0.082-0.172 0.165-0.219 0.141-0.081 0.319-0.053 0.428 0.067l0.233 0.254c0.124 0.135 0.196 0.309 0.204 0.493l0.047 1.056c0.010 0.223 0.085 0.437 0.217 0.617l0.021 0.029c0.163 0.224 0.409 0.373 0.683 0.416 0.153 0.024 0.309 0.013 0.457-0.031l0.834-0.247c0.338-0.1 0.703 0.020 0.915 0.303l0.179 0.239c0.134 0.178 0.374 0.239 0.576 0.146 0.126-0.058 0.27-0.058 0.396 0l0.050 0.023c0.227 0.105 0.496 0.056 0.671-0.123l0.283-0.288c0.198-0.201 0.462-0.324 0.743-0.346l0.645-0.049c0.059-0.005 0.119-0.014 0.177-0.027 0.525-0.121 1.066 0.124 1.323 0.597l0.79 1.46c0.188 0.348 0.522 0.593 0.91 0.669l0.273 0.053c0.128 0.025 0.26 0.004 0.375-0.059 0.245-0.135 0.352-0.431 0.248-0.692l-0.199-0.502c-0.025-0.062-0.031-0.13-0.020-0.196 0.032-0.18 0.194-0.308 0.377-0.297l0.029 0.002c0.111 0.007 0.215 0.061 0.284 0.148l0.146 0.184c0.179 0.226 0.453 0.355 0.74 0.349l0.324-0.007c0.088-0.002 0.173-0.030 0.245-0.080 0.159-0.111 0.227-0.314 0.17-0.498-0.025-0.080-0.072-0.153-0.135-0.208l-0.467-0.404c-0.067-0.058-0.114-0.135-0.134-0.221-0.051-0.212-0.255-0.351-0.471-0.32l-0.549 0.079c-0.112 0.016-0.224-0.028-0.294-0.116-0.064-0.080-0.085-0.185-0.058-0.284l0.012-0.045c0.025-0.090 0.079-0.168 0.155-0.222l0.057-0.041c0.106-0.077 0.234-0.118 0.366-0.116l0.044 0.001c0.184 0.002 0.36 0.072 0.495 0.197l0.609 0.561c0.132 0.122 0.303 0.192 0.482 0.198l0.104 0.004c0.114 0.004 0.225-0.034 0.314-0.105 0.090-0.073 0.149-0.176 0.168-0.29l0.021-0.128c0.016-0.099 0.014-0.201-0.007-0.3l-0.037-0.176c-0.021-0.098-0.071-0.187-0.144-0.255l-0.19-0.179c-0.070-0.065-0.080-0.172-0.025-0.25 0.059-0.082 0.171-0.104 0.257-0.050l0.166 0.105c0.089 0.056 0.152 0.145 0.176 0.248l0.145 0.626c0.032 0.137 0.145 0.24 0.284 0.26 0.137 0.019 0.272-0.046 0.341-0.166l0.105-0.182c0.103-0.177 0.117-0.393 0.037-0.581l-0.112-0.265c-0.098-0.232-0.032-0.501 0.163-0.66l0.088-0.072c0.101-0.083 0.238-0.106 0.361-0.061 0.169 0.062 0.269 0.237 0.237 0.414l-0.037 0.203c-0.026 0.143-0.001 0.291 0.072 0.417l0.171 0.297c0.11 0.191 0.264 0.352 0.45 0.471l0.305 0.195c0.192 0.123 0.433 0.142 0.642 0.051 0.12-0.052 0.222-0.137 0.296-0.245l0.165-0.245c0.194-0.287 0.512-0.466 0.858-0.483l0.228-0.011c0.081-0.004 0.159-0.033 0.223-0.084l0.073-0.058c0.171-0.136 0.425-0.065 0.502 0.14 0.038 0.102 0.124 0.177 0.23 0.201l1.602 0.365c0.115 0.026 0.234 0.037 0.352 0.032l0.068-0.003c0.316-0.014 0.613-0.155 0.823-0.392l0.027-0.030c0.103-0.116 0.231-0.207 0.375-0.264 0.211-0.084 0.445-0.094 0.662-0.027l1.185 0.364c0.202 0.062 0.421-0.010 0.546-0.18 0.131-0.178 0.129-0.421-0.005-0.597l-0.244-0.319c-0.089-0.116-0.112-0.269-0.061-0.406 0.061-0.165 0.217-0.276 0.393-0.279l0.223-0.004c0.184-0.003 0.363 0.062 0.502 0.182l0.425 0.366c0.155 0.133 0.372 0.165 0.558 0.082 0.144-0.064 0.251-0.189 0.293-0.341l0.050-0.183c0.051-0.185 0.213-0.319 0.404-0.335 0.090-0.008 0.181 0.012 0.261 0.056l0.679 0.375c0.65 0.359 1.145 0.946 1.39 1.648l0.149 0.428c0.095 0.273 0.135 0.563 0.117 0.852l-0.011 0.175c-0.019 0.3 0.048 0.599 0.194 0.862l0.162 0.294c0.043 0.077 0.108 0.141 0.186 0.182 0.3 0.158 0.329 0.578 0.051 0.772-0.060 0.042-0.128 0.068-0.201 0.077l-0.104 0.013c-0.302 0.039-0.563 0.231-0.689 0.508l-0.11 0.241c-0.182 0.399-0.58 0.656-1.018 0.658l-0.349 0.002c-0.149 0.001-0.289-0.071-0.375-0.193-0.063-0.090-0.092-0.199-0.082-0.309l0.002-0.023c0.018-0.176-0.055-0.348-0.194-0.458l-0.061-0.048-0.273-0.161c-0.043-0.025-0.098 0.006-0.098 0.056 0 0.059-0.071 0.087-0.111 0.044l-0.027-0.029c-0.043-0.045-0.119-0.027-0.136 0.033l-0.010 0.034c-0.014 0.050-0.064 0.080-0.114 0.071l-0.112-0.020c-0.109-0.020-0.217 0.042-0.254 0.147l-0.631 1.77c-0.067 0.187-0.293 0.26-0.457 0.146-0.080-0.056-0.181-0.069-0.273-0.037l-0.143 0.051c-0.221 0.078-0.468 0.019-0.631-0.15l-0.094-0.099c-0.076-0.080-0.173-0.138-0.279-0.169-0.194-0.055-0.402-0.014-0.56 0.112l-0.222 0.176c-0.092 0.073-0.199 0.126-0.314 0.153-0.287 0.069-0.589-0.024-0.787-0.243l-0.661-0.731c-0.044-0.049-0.077-0.108-0.094-0.172l-0.068-0.248c-0.056-0.207-0.317-0.273-0.465-0.118-0.056 0.058-0.133 0.089-0.214 0.085l-0.363-0.019c-0.182-0.010-0.265 0.222-0.119 0.331 0.036 0.027 0.061 0.066 0.070 0.11l0.179 0.855c0.005 0.026 0.002 0.053-0.009 0.076-0.031 0.066-0.112 0.091-0.174 0.054l-0.179-0.107c-0.065-0.039-0.142-0.053-0.217-0.039l-0.188 0.035c-0.169 0.032-0.306 0.156-0.355 0.32-0.072 0.242-0.325 0.38-0.567 0.31l-0.934-0.271c-0.049-0.014-0.099 0.015-0.112 0.064-0.017 0.065-0.097 0.089-0.147 0.044l-0.418-0.371c-0.1-0.089-0.154-0.22-0.144-0.353l0.005-0.078c0.009-0.132-0.027-0.264-0.101-0.373l-0.082-0.121c-0.162-0.239-0.463-0.341-0.737-0.252-0.085 0.028-0.175 0.037-0.264 0.029l-1.165-0.115c-0.206-0.020-0.41 0.060-0.547 0.216l-0.075 0.085c-0.158 0.18-0.421 0.224-0.629 0.105l-0.159-0.090c-0.071-0.040-0.159-0.037-0.226 0.010-0.098 0.068-0.122 0.203-0.053 0.3l0.91 1.273c0.075 0.105 0.174 0.192 0.288 0.253l0.303 0.162c0.104 0.056 0.23 0.046 0.324-0.024 0.108-0.080 0.256-0.080 0.363 0.001l0.023 0.018c0.072 0.054 0.119 0.133 0.133 0.222l0.092 0.598c0.027 0.176-0.003 0.357-0.085 0.515l-0.081 0.156c-0.073 0.14-0.208 0.236-0.363 0.26-0.11 0.017-0.223-0.004-0.319-0.059l-0.199-0.113c-0.089-0.051-0.163-0.125-0.214-0.214l-0.172-0.302c-0.066-0.115-0.214-0.153-0.327-0.084-0.104 0.063-0.239 0.037-0.312-0.061l-0.87-1.175c-0.032-0.043-0.085-0.063-0.137-0.051-0.077 0.017-0.123 0.097-0.098 0.172l0.16 0.489c0.045 0.137-0.040 0.282-0.181 0.311l-0.017 0.004c-0.093 0.019-0.162 0.096-0.172 0.19-0.006 0.063-0.040 0.119-0.092 0.155l-0.405 0.282c-0.071 0.049-0.113 0.13-0.113 0.217 0 0.068-0.026 0.133-0.073 0.183l-0.334 0.349c-0.18 0.188-0.227 0.468-0.117 0.705l0.049 0.106c0.016 0.035 0.023 0.074 0.019 0.112l-0.013 0.125c-0.007 0.068-0.074 0.112-0.14 0.092-0.082-0.025-0.16 0.051-0.136 0.134l0.005 0.018c0.021 0.073-0.032 0.147-0.108 0.151l-0.25 0.012c-0.081 0.004-0.159-0.025-0.218-0.081l-0.016-0.015c-0.084-0.080-0.211-0.096-0.312-0.039-0.078 0.044-0.129 0.125-0.134 0.215l-0.016 0.279c-0.008 0.135-0.146 0.223-0.272 0.172-0.108-0.044-0.231 0.015-0.264 0.127l-0.004 0.014c-0.017 0.059-0.059 0.107-0.115 0.132l-0.196 0.088c-0.147 0.067-0.314 0.079-0.469 0.034l-0.675-0.195c-0.208-0.060-0.432 0.021-0.552 0.201l-0.031 0.046c-0.049 0.073-0.123 0.125-0.208 0.146l-0.286 0.071c-0.040 0.010-0.063 0.051-0.052 0.090 0.019 0.063-0.050 0.116-0.106 0.082l-0.126-0.076c-0.040-0.024-0.091-0.025-0.131-0.001l-0.566 0.329c-0.093 0.054-0.212 0.033-0.28-0.051-0.086-0.105-0.246-0.108-0.335-0.006l-0.089 0.102c-0.044 0.050-0.117 0.059-0.172 0.022l-0.042-0.029c-0.059-0.040-0.139-0.006-0.151 0.064-0.008 0.047-0.050 0.081-0.098 0.080l-0.101-0.002c-0.077-0.002-0.149 0.038-0.189 0.105l-0.013 0.021c-0.037 0.061-0.046 0.136-0.026 0.204l0.040 0.137c0.060 0.205 0.003 0.427-0.149 0.577l-0.34 0.338c-0.159 0.157-0.277 0.35-0.345 0.563l-0.183 0.573c-0.159 0.497-0.474 0.929-0.899 1.232-0.477 0.34-0.814 0.842-0.949 1.412l-0.086 0.363c-0.032 0.134-0.092 0.26-0.177 0.368-0.122 0.156-0.29 0.27-0.479 0.326l-0.918 0.273c-0.352 0.105-0.727 0.103-1.079-0.004-0.309-0.094-0.636-0.107-0.952-0.037l-1.87 0.415c-0.128 0.028-0.26 0.027-0.387-0.004l-0.331-0.081c-0.183-0.045-0.372 0.040-0.461 0.206-0.050 0.095-0.136 0.166-0.238 0.198l-0.019 0.006c-0.106 0.034-0.221 0.028-0.324-0.017l-0.197-0.087c-0.214-0.094-0.454-0.112-0.68-0.052l-0.146 0.039c-0.195 0.052-0.369 0.163-0.499 0.318-0.095 0.114-0.215 0.204-0.35 0.265l-0.195 0.087c-0.273 0.122-0.57 0.179-0.868 0.165l-1.371-0.063c-0.169-0.008-0.337-0.037-0.5-0.086-0.376-0.115-0.778-0.118-1.156-0.009l-0.474 0.136c-0.191 0.055-0.385 0.094-0.582 0.118l-5.427 0.65c-0.358 0.043-0.699 0.174-0.993 0.381l-0.334 0.235c-0.131 0.092-0.286 0.144-0.447 0.149-0.374 0.011-0.693 0.275-0.773 0.64l-0.046 0.21c-0.034 0.154-0.101 0.299-0.197 0.425l-0.98 1.29c-0.061 0.080-0.097 0.177-0.103 0.277l-0.007 0.112c-0.010 0.177-0.145 0.322-0.321 0.346-0.079 0.011-0.152 0.046-0.209 0.102l-0.128 0.124c-0.080 0.078-0.145 0.17-0.192 0.272l-0.068 0.147c-0.148 0.321-0.416 0.572-0.746 0.699l-0.489 0.188c-0.063 0.024-0.134 0.019-0.194-0.013-0.114-0.063-0.258-0.019-0.317 0.098l-0.078 0.155c-0.093 0.184-0.311 0.266-0.503 0.19l-0.175-0.070c-0.123-0.049-0.264-0.013-0.348 0.090-0.060 0.073-0.15 0.114-0.244 0.111l-0.336-0.010c-0.635-0.019-1.087-0.625-0.924-1.24l0.176-0.663c0.050-0.188 0.135-0.364 0.251-0.52l0.573-0.77c0.048-0.065 0.087-0.137 0.114-0.213l0.211-0.591c0.035-0.099-0.016-0.208-0.116-0.243l-0.026-0.009c-0.078-0.028-0.122-0.111-0.102-0.191 0.015-0.059-0.004-0.121-0.050-0.16l-0.687-0.601c-0.044-0.038-0.074-0.089-0.087-0.146l-0.013-0.055c-0.024-0.103 0.032-0.207 0.13-0.246 0.093-0.036 0.148-0.132 0.133-0.23l-0.028-0.182c-0.014-0.090-0.054-0.173-0.117-0.238l-0.684-0.719c-0.046-0.048-0.048-0.124-0.004-0.175l0.022-0.025c0.045-0.052 0.028-0.133-0.034-0.162-0.051-0.024-0.073-0.085-0.050-0.137l0.041-0.091c0.021-0.047 0.024-0.099 0.008-0.148l-0.222-0.692c-0.053-0.165-0.030-0.344 0.062-0.49 0.088-0.139 0.113-0.309 0.069-0.467l-0.002-0.006c-0.056-0.204-0.001-0.422 0.145-0.575l1.304-1.361c0.188-0.196 0.238-0.487 0.127-0.735l-0.072-0.161c-0.038-0.085-0.035-0.183 0.008-0.266 0.034-0.064 0.090-0.115 0.157-0.142l0.084-0.033c0.117-0.047 0.247-0.048 0.364-0.003l0.24 0.091c0.174 0.066 0.366-0.045 0.395-0.229 0.019-0.118 0.106-0.212 0.222-0.24l0.096-0.023c0.195-0.047 0.335-0.219 0.34-0.42l0.006-0.254c0.004-0.149 0.109-0.277 0.254-0.31 0.179-0.042 0.289-0.225 0.239-0.402l-0.005-0.016c-0.041-0.146 0.032-0.3 0.172-0.361 0.072-0.031 0.154-0.033 0.228-0.005l0.388 0.148c0.066 0.025 0.139 0.022 0.202-0.009 0.077-0.038 0.129-0.111 0.14-0.196l0.009-0.074c0.017-0.137-0.039-0.272-0.147-0.357l-0.233-0.183c-0.081-0.064-0.12-0.167-0.103-0.268l0.014-0.083c0.010-0.060-0.016-0.12-0.067-0.154-0.085-0.056-0.093-0.178-0.015-0.244l0.546-0.458c0.091-0.076 0.2-0.127 0.316-0.148l0.176-0.032c0.343-0.062 0.649-0.254 0.854-0.535l1.16-1.593c0.207-0.283 0.436-0.549 0.687-0.794l0.724-0.707c0.371-0.362 0.809-0.647 1.289-0.841l0.322-0.13c0.276-0.111 0.571-0.166 0.868-0.161l0.095 0.001c0.214 0.003 0.426-0.033 0.627-0.108 0.278-0.103 0.577-0.133 0.87-0.087l0.466 0.073c0.204 0.032 0.395 0.122 0.55 0.259 0.198 0.175 0.454 0.272 0.719 0.272h0.743c0.231 0 0.44-0.137 0.532-0.35 0.055-0.126 0.062-0.268 0.022-0.4l-0.284-0.927c-0.096-0.314-0.144-0.64-0.141-0.969l0.027-3.17c0.002-0.222-0.053-0.442-0.158-0.637-0.11-0.204-0.165-0.434-0.158-0.665l0.020-0.68c0.002-0.057-0.017-0.114-0.052-0.159-0.068-0.088-0.069-0.209-0.004-0.298l0.45-0.614z"></path>
</svg>
