<!-- Generated by IcoMoon.io -->
<svg version="1.1" xmlns="http://www.w3.org/2000/svg" width="51" height="32" viewBox="0 0 51 32">
<path d="M11.793 6.073c0.053-0.25 0.356-0.349 0.546-0.178 0.030 0.027 0.064 0.048 0.101 0.062l0.534 0.209c0.067 0.026 0.139 0.039 0.21 0.038 0.205-0.003 0.397 0.108 0.493 0.289 0.039 0.074 0.095 0.138 0.162 0.187l0.134 0.096c0.12 0.086 0.26 0.141 0.407 0.157l0.339 0.039c0.062 0.007 0.117 0.044 0.148 0.098 0.022 0.039 0.030 0.085 0.022 0.13l-0.037 0.206c-0.015 0.083 0.002 0.168 0.047 0.239 0.038 0.060 0.094 0.106 0.159 0.132l0.118 0.047c0.059 0.023 0.124 0.027 0.185 0.011 0.101-0.027 0.208 0.001 0.283 0.074l0.091 0.089c0.064 0.063 0.144 0.108 0.231 0.131l0.125 0.033c0.091 0.024 0.175 0.070 0.244 0.135 0.103 0.097 0.238 0.151 0.379 0.154l0.168 0.003c0.038 0.001 0.075 0.013 0.105 0.036l0.051 0.038c0.017 0.013 0.026 0.033 0.025 0.054-0.004 0.065 0.080 0.092 0.115 0.038l0.116-0.181c0.016-0.025 0.022-0.054 0.017-0.083l-0.032-0.193c-0.015-0.093 0.016-0.187 0.085-0.251l0.13-0.123c0.062-0.058 0.055-0.159-0.014-0.208-0.037-0.026-0.084-0.032-0.126-0.016l-0.027 0.010c-0.119 0.045-0.247-0.037-0.256-0.164l-0.017-0.243c-0.006-0.086 0.058-0.16 0.144-0.167l0.23-0.019c0.085-0.007 0.109-0.119 0.035-0.161-0.030-0.017-0.047-0.050-0.044-0.084l0.003-0.029c0.006-0.062 0.055-0.111 0.117-0.117l0.093-0.009c0.054-0.005 0.096-0.050 0.099-0.105l0.001-0.019c0.002-0.045-0.031-0.085-0.076-0.091s-0.078-0.045-0.076-0.091l0.004-0.102c0.003-0.069-0.030-0.134-0.086-0.173l-0.154-0.107c-0.065-0.045-0.116-0.107-0.147-0.179-0.033-0.076-0.043-0.16-0.028-0.241l0.094-0.534c0.021-0.117 0.065-0.227 0.132-0.325l0.295-0.436c0.064-0.094 0.049-0.221-0.035-0.298-0.101-0.093-0.099-0.254 0.006-0.344l0.081-0.070c0.038-0.033 0.068-0.074 0.088-0.121l0.029-0.068c0.053-0.125 0.144-0.23 0.26-0.3l0.343-0.206c0.085-0.051 0.128-0.152 0.105-0.249-0.049-0.204 0.179-0.36 0.352-0.242l0.205 0.141c0.047 0.032 0.109 0.030 0.153-0.006 0.045-0.037 0.109-0.038 0.156-0.004l0.072 0.053c0.074 0.054 0.175 0.055 0.249 0.001 0.071-0.050 0.165-0.053 0.238-0.006l0.226 0.144c0.066 0.042 0.149 0.046 0.219 0.012 0.095-0.047 0.144-0.155 0.117-0.257l-0.024-0.090c-0.016-0.059-0.009-0.121 0.018-0.175l0.056-0.112c0.022-0.043 0.071-0.064 0.117-0.050 0.066 0.020 0.132-0.032 0.128-0.101l-0.003-0.053c-0.005-0.082 0.064-0.15 0.147-0.144l0.020 0.001c0.047 0.003 0.093-0.015 0.125-0.049l0.103-0.111c0.043-0.047 0.099-0.080 0.16-0.096l0.080-0.020c0.074-0.019 0.152 0.006 0.201 0.064l0.006 0.007c0.042 0.050 0.108 0.074 0.173 0.062 0.045-0.008 0.085-0.033 0.112-0.069l0.077-0.102c0.046-0.061 0.125-0.089 0.199-0.070 0.050 0.012 0.102 0.005 0.146-0.022l0.294-0.179c0.042-0.025 0.091-0.035 0.14-0.027 0.124 0.020 0.237-0.074 0.238-0.2l0.002-0.148c0.002-0.101 0.060-0.193 0.151-0.236 0.069-0.033 0.148-0.034 0.218-0.005l0.15 0.064c0.054 0.023 0.117 0.015 0.163-0.022l0.055-0.043c0.026-0.020 0.034-0.055 0.021-0.085-0.019-0.043 0.008-0.093 0.055-0.1l0.306-0.044c0.048-0.007 0.095 0.018 0.116 0.062 0.014 0.029 0.039 0.050 0.069 0.059l0.266 0.078c0.069 0.020 0.099 0.102 0.058 0.162-0.022 0.032-0.059 0.050-0.098 0.046l-0.144-0.013c-0.040-0.004-0.077 0.022-0.089 0.061s0.007 0.079 0.042 0.098l0.203 0.106c0.094 0.049 0.207 0.045 0.298-0.010 0.062-0.038 0.108-0.096 0.13-0.165l0.089-0.275c0.020-0.063 0.061-0.118 0.115-0.155 0.113-0.078 0.265-0.070 0.369 0.020l0.548 0.473c0.022 0.019 0.035 0.046 0.035 0.075l0.001 0.044c0.001 0.053 0.056 0.088 0.104 0.065l0.229-0.092c0.054-0.022 0.097-0.065 0.118-0.119 0.050-0.129 0.208-0.175 0.32-0.095l0.081 0.058c0.020 0.014 0.034 0.035 0.039 0.059l0.014 0.066c0.016 0.072 0.114 0.082 0.144 0.014 0.008-0.017 0.022-0.031 0.039-0.039l0.197-0.087c0.091-0.040 0.198-0.016 0.264 0.059 0.080 0.091 0.217 0.104 0.313 0.030l0.020-0.015c0.050-0.039 0.113-0.058 0.177-0.053l0.249 0.019c0.020 0.002 0.039 0.008 0.055 0.020l0.058 0.041c0.052 0.037 0.040 0.117-0.021 0.136-0.028 0.009-0.049 0.034-0.053 0.063l-0.001 0.010c-0.005 0.035 0.011 0.069 0.040 0.089l0.094 0.063c0.116 0.079 0.079 0.259-0.059 0.285l-0.030 0.006c-0.062 0.012-0.105 0.068-0.101 0.131 0.004 0.054 0.043 0.099 0.096 0.112l0.28 0.064c0.069 0.016 0.14-0.019 0.17-0.083 0.028-0.060 0.092-0.095 0.158-0.085l0.053 0.008c0.064 0.010 0.12 0.047 0.155 0.102l0.081 0.13c0.059 0.095 0.152 0.164 0.259 0.193l0.163 0.045c0.062 0.017 0.108 0.067 0.121 0.129l0.007 0.035c0.006 0.031-0.003 0.064-0.025 0.087-0.046 0.049-0.031 0.129 0.030 0.157l0.369 0.171c0.043 0.020 0.068 0.067 0.059 0.115-0.007 0.039 0.008 0.079 0.040 0.103l0.497 0.376c0.023 0.017 0.054 0.019 0.078 0.005 0.048-0.027 0.107 0.008 0.107 0.062v0.051c0 0.038 0.021 0.072 0.054 0.090l0.582 0.304c0.054 0.028 0.104 0.065 0.146 0.109l0.176 0.182c0.015 0.016 0.037 0.023 0.059 0.020l0.012-0.002c0.042-0.006 0.077 0.032 0.068 0.073-0.010 0.046 0.035 0.086 0.080 0.070l0.127-0.044c0.017-0.006 0.031-0.021 0.035-0.038l0.001-0.006c0.011-0.047 0.075-0.054 0.097-0.011 0.008 0.015 0.022 0.026 0.039 0.028l0.355 0.055c0.162 0.025 0.327-0.004 0.471-0.082l0.101-0.055c0.054-0.029 0.114-0.044 0.176-0.044l0.173 0.002c0.087 0.001 0.16 0.067 0.168 0.154 0.009 0.092 0.089 0.16 0.18 0.154l0.37-0.024c0.087-0.006 0.172 0.029 0.231 0.094l0.084 0.093c0.081 0.090 0.225 0.080 0.293-0.019l0.015-0.022c0.025-0.036 0.065-0.058 0.109-0.058l0.015-0c0.051-0.001 0.096 0.031 0.112 0.080 0.019 0.059 0.081 0.092 0.141 0.075l0.1-0.029c0.038-0.011 0.077-0.011 0.115-0.002l0.040 0.010c0.135 0.034 0.241 0.139 0.274 0.275l0.033 0.132c0.007 0.028 0.025 0.053 0.050 0.067 0.050 0.029 0.114 0.014 0.146-0.034l0.122-0.187c0.049-0.075 0.131-0.123 0.22-0.128l0.026-0.002c0.072-0.005 0.138-0.043 0.179-0.104 0.030-0.045 0.074-0.078 0.126-0.094l0.139-0.042c0.048-0.015 0.086-0.051 0.102-0.099 0.026-0.076 0.105-0.12 0.183-0.102l0.077 0.018c0.104 0.024 0.211-0.022 0.266-0.114l0.027-0.046c0.103-0.174 0.339-0.209 0.487-0.072l0.234 0.215c0.046 0.042 0.051 0.113 0.012 0.162s-0.034 0.119 0.011 0.162l0.552 0.515c0.131 0.122 0.151 0.322 0.047 0.467l-0.070 0.098c-0.071 0.099-0.052 0.237 0.044 0.313l0.016 0.013c0.086 0.068 0.104 0.192 0.041 0.282-0.074 0.105-0.036 0.251 0.079 0.306l0.302 0.146c0.103 0.050 0.156 0.166 0.126 0.276-0.041 0.151 0.073 0.3 0.229 0.3h0.265c0.111 0 0.218 0.042 0.3 0.118l0.249 0.231c0.051 0.047 0.122 0.065 0.189 0.047l0.028-0.008c0.041-0.011 0.084-0.003 0.118 0.022 0.052 0.038 0.072 0.108 0.046 0.167l-0.036 0.084c-0.026 0.061-0.083 0.102-0.149 0.108l-0.043 0.004c-0.13 0.011-0.19 0.166-0.102 0.262 0.045 0.049 0.054 0.121 0.023 0.18l-0.053 0.099c-0.076 0.142-0.032 0.319 0.102 0.409l1.217 0.82c0.192 0.13 0.255 0.384 0.144 0.588-0.109 0.2-0.051 0.449 0.135 0.581l0.095 0.068c0.229 0.163 0.281 0.481 0.116 0.709l-0.179 0.246c-0.068 0.093-0.046 0.224 0.049 0.29 0.089 0.062 0.21 0.045 0.278-0.039l0.055-0.067c0.099-0.122 0.275-0.146 0.404-0.056l0.125 0.088c0.011 0.008 0.018 0.020 0.019 0.033 0.004 0.040 0.053 0.056 0.079 0.026l0.36-0.412c0.035-0.039 0.026-0.1-0.017-0.129-0.041-0.027-0.051-0.083-0.022-0.123l0.456-0.619c0.010-0.014 0.024-0.024 0.040-0.029l0.167-0.054c0.037-0.012 0.033-0.065-0.005-0.072-0.027-0.005-0.040-0.036-0.024-0.058l0.038-0.052c0.030-0.042 0.012-0.101-0.037-0.118l-0.046-0.016c-0.031-0.011-0.044-0.048-0.026-0.076 0.011-0.017 0.031-0.026 0.051-0.023l0.068 0.011c0.052 0.008 0.105-0.011 0.141-0.050l0.118-0.131c0.173-0.192 0.466-0.214 0.665-0.050l0.637 0.521c0.035 0.028 0.078 0.045 0.123 0.048 0.068 0.004 0.13 0.041 0.167 0.098l0.014 0.022c0.057 0.089 0.16 0.135 0.264 0.119l0.603-0.093c0.035-0.005 0.057-0.039 0.049-0.073s0.014-0.068 0.049-0.073l0.141-0.023c0.034-0.006 0.059-0.036 0.057-0.071-0.002-0.038 0.027-0.070 0.065-0.072l0.514-0.022c0.146-0.006 0.274 0.098 0.297 0.243 0.025 0.159 0.177 0.267 0.336 0.238l0.061-0.011c0.046-0.008 0.093-0.007 0.138 0.003l0.064 0.014c0.133 0.030 0.233 0.14 0.249 0.276 0.019 0.161 0.155 0.283 0.317 0.283l0.109 0.001c0.13 0.001 0.247 0.077 0.3 0.194 0.040 0.088 0.116 0.154 0.209 0.181l0.078 0.023c0.096 0.028 0.167 0.109 0.183 0.208 0.022 0.14-0.073 0.271-0.212 0.294l-0.185 0.031c-0.15 0.025-0.255 0.163-0.239 0.314l0.009 0.089c0.009 0.090-0.049 0.174-0.137 0.197-0.086 0.023-0.144 0.104-0.137 0.193l0.042 0.515c0.004 0.042 0.037 0.075 0.079 0.079 0.041 0.003 0.074 0.035 0.079 0.075l0.031 0.261c0.008 0.071-0.058 0.128-0.127 0.109-0.026-0.007-0.054-0.003-0.078 0.011l-0.086 0.051c-0.027 0.016-0.028 0.056-0.002 0.073 0.029 0.019 0.025 0.063-0.007 0.076l-0.035 0.015c-0.027 0.011-0.042 0.039-0.039 0.067l0.056 0.441c0.010 0.081-0.023 0.162-0.087 0.212-0.045 0.036-0.076 0.087-0.085 0.144l-0.021 0.125c-0.011 0.064-0.011 0.129 0.001 0.193l0.037 0.207c0.033 0.186 0.205 0.315 0.393 0.294l0.232-0.025c0.054-0.006 0.104 0.031 0.115 0.084s0.062 0.091 0.117 0.084l0.14-0.018c0.137-0.017 0.264 0.078 0.285 0.214l0.26 1.656c0.018 0.115-0.072 0.218-0.188 0.215l-0.054-0.001c-0.034-0.001-0.066 0.017-0.084 0.047l-0.004 0.007c-0.022 0.038-0.070 0.053-0.11 0.034-0.045-0.021-0.099 0.001-0.116 0.048l-0.037 0.103c-0.013 0.035-0.055 0.049-0.086 0.028-0.042-0.028-0.097 0.007-0.089 0.056l0.242 1.57c0.019 0.122-0.002 0.247-0.059 0.356l-0.122 0.235c-0.027 0.051-0.080 0.083-0.137 0.082-0.074-0.001-0.139 0.052-0.152 0.125l-0.006 0.031c-0.019 0.109-0.127 0.178-0.234 0.15l-0.26-0.068c-0.052-0.013-0.094-0.050-0.116-0.099-0.035-0.080-0.123-0.121-0.206-0.098l-0.125 0.034c-0.065 0.018-0.135-0.004-0.178-0.056l-0.045-0.055c-0.029-0.035-0.079-0.043-0.118-0.019-0.052 0.033-0.121 0.004-0.136-0.056l-0.036-0.148c-0.009-0.040-0.031-0.076-0.061-0.103l-0.195-0.174c-0.032-0.029-0.082-0.023-0.106 0.013-0.019 0.028-0.056 0.039-0.087 0.025l-0.35-0.153c-0.032-0.014-0.068-0.018-0.103-0.010l-0.026 0.006c-0.056 0.013-0.114-0.013-0.142-0.063l-0.041-0.074c-0.016-0.028-0.052-0.037-0.079-0.018l-0.089 0.064c-0.015 0.011-0.007 0.034 0.011 0.034 0.020 0 0.026 0.027 0.009 0.036l-0.24 0.123c-0.026 0.013-0.057 0.012-0.082-0.003l-0.152-0.094c-0.025-0.015-0.055 0.007-0.049 0.035 0.004 0.017-0.006 0.033-0.023 0.038l-0.13 0.038c-0.085 0.025-0.138 0.108-0.127 0.195l0.034 0.255c0.009 0.065-0.009 0.131-0.048 0.183-0.061 0.081-0.067 0.191-0.014 0.278l0.068 0.114c0.035 0.059 0.016 0.135-0.042 0.17l-0.024 0.014c-0.064 0.039-0.069 0.13-0.009 0.175l0.066 0.049c0.044 0.033 0.031 0.101-0.022 0.115-0.032 0.009-0.052 0.040-0.048 0.073l0.052 0.349c0.023 0.157 0.167 0.268 0.325 0.25 0.152-0.017 0.292 0.085 0.322 0.235l0.029 0.143c0.035 0.174-0.099 0.336-0.277 0.334l-0.191-0.002c-0.050-0.001-0.091 0.040-0.091 0.090 0 0.043-0.031 0.080-0.074 0.088l-0.285 0.053c-0.144 0.027-0.24 0.166-0.213 0.31l0.011 0.059c0.018 0.099 0.107 0.168 0.208 0.162 0.102-0.006 0.192 0.066 0.208 0.167l0.016 0.1c0.026 0.16-0.076 0.314-0.234 0.352l-0.429 0.103c-0.042 0.010-0.075 0.045-0.082 0.088-0.008 0.048-0.047 0.084-0.095 0.090l-0.609 0.072c-0.066 0.008-0.133 0.009-0.2 0.002l-0.861-0.083c-0.047-0.005-0.086-0.038-0.097-0.084s-0.052-0.081-0.1-0.084l-0.345-0.026c-0.104-0.008-0.192 0.076-0.188 0.18 0.003 0.090-0.063 0.167-0.151 0.179l-0.333 0.046c-0.101 0.014-0.199-0.037-0.247-0.126-0.042-0.079-0.124-0.128-0.213-0.129l-0.674-0.003c-0.042-0-0.083-0.015-0.115-0.042l-0.016-0.013c-0.043-0.037-0.061-0.095-0.047-0.149 0.031-0.117-0.086-0.219-0.198-0.173l-0.189 0.078c-0.030 0.012-0.062 0.019-0.094 0.019l-0.821 0.003c-0.082 0-0.152-0.060-0.163-0.141-0.013-0.098 0.063-0.186 0.162-0.186h0.15c0.136 0 0.255-0.094 0.286-0.227l0.076-0.321c0.021-0.090 0.005-0.184-0.046-0.261l-0.118-0.178c-0.027-0.041-0.019-0.096 0.019-0.128s0.047-0.088 0.018-0.13l-0.018-0.026c-0.040-0.057-0.118-0.073-0.177-0.036l-0.019 0.012c-0.090 0.057-0.209 0.007-0.233-0.097l-0.064-0.281c-0.017-0.075-0.095-0.119-0.168-0.095l-0.086 0.028c-0.029 0.009-0.059-0.008-0.065-0.038-0.005-0.022 0.007-0.045 0.027-0.055l0.098-0.049c0.078-0.039 0.12-0.126 0.103-0.211l-0.039-0.199c-0.019-0.095-0.091-0.171-0.186-0.194l-0.046-0.011c-0.050-0.012-0.090-0.047-0.109-0.095-0.033-0.083 0.009-0.177 0.093-0.207l0.062-0.023c0.107-0.039 0.167-0.153 0.139-0.264l-0.042-0.163c-0.039-0.152-0.191-0.245-0.344-0.212l-0.517 0.114c-0.069 0.015-0.121-0.062-0.082-0.12l0.003-0.005c0.020-0.030 0.015-0.070-0.012-0.094l-0.014-0.012c-0.017-0.015-0.042-0.016-0.060-0.002-0.031 0.023-0.074 0.002-0.077-0.036l-0.005-0.085c-0.002-0.035 0.015-0.069 0.045-0.087l0.054-0.033c0.043-0.026 0.067-0.074 0.062-0.124-0.004-0.037-0.024-0.071-0.056-0.092l-0.065-0.044c-0.069-0.047-0.156-0.063-0.237-0.043l-1.497 0.366c-0.166 0.041-0.332-0.067-0.363-0.235-0.028-0.15-0.164-0.254-0.315-0.243l-0.221 0.017c-0.202 0.015-0.396-0.083-0.503-0.255l-0.023-0.036c-0.167-0.267-0.509-0.365-0.792-0.226l-1.63 0.797c-0.099 0.048-0.217-0.013-0.233-0.123-0.010-0.067-0.060-0.121-0.126-0.135l-2.022-0.451c-0.127-0.028-0.248-0.081-0.356-0.154l-0.14-0.095c-0.174-0.118-0.392-0.15-0.593-0.087l-0.081 0.025c-0.111 0.035-0.231 0.027-0.337-0.021-0.115-0.053-0.246-0.057-0.364-0.012l-0.241 0.093c-0.133 0.051-0.275 0.076-0.418 0.072l-0.469-0.013c-0.139-0.004-0.278 0.018-0.409 0.064l-0.119 0.042c-0.145 0.051-0.271 0.147-0.359 0.273l-0.044 0.063c-0.074 0.106-0.184 0.182-0.31 0.212l-0.32 0.079c-0.042 0.010-0.086-0.008-0.107-0.046-0.019-0.034-0.057-0.053-0.096-0.048l-0.465 0.056c-0.191 0.023-0.359-0.126-0.358-0.319l0.001-0.114c0.001-0.133-0.116-0.236-0.248-0.219l-0.137 0.018c-0.032 0.004-0.062-0.016-0.070-0.047-0.007-0.029-0.034-0.049-0.064-0.048l-0.066 0.002c-0.088 0.003-0.152 0.084-0.137 0.17l0.182 1.019c0.023 0.13-0.061 0.254-0.19 0.28-0.125 0.026-0.209 0.144-0.191 0.27l0.046 0.343c0.006 0.043 0.041 0.076 0.084 0.079 0.041 0.003 0.075 0.033 0.083 0.074l0.055 0.273c0.026 0.129 0.143 0.218 0.274 0.209 0.136-0.009 0.255 0.087 0.276 0.221l0.065 0.434c0.020 0.135-0.067 0.262-0.2 0.291l-0.117 0.026c-0.058 0.013-0.116-0.019-0.138-0.074-0.023-0.061-0.091-0.091-0.152-0.069l-0.11 0.040c-0.057 0.021-0.092 0.078-0.084 0.138 0.009 0.071-0.041 0.136-0.111 0.145l-0.177 0.023c-0.178 0.023-0.298 0.193-0.261 0.368l0.060 0.289c0.033 0.157 0.202 0.244 0.349 0.179 0.142-0.063 0.306 0.017 0.346 0.167l0.011 0.043c0.024 0.094 0.111 0.158 0.208 0.154 0.107-0.004 0.2 0.074 0.213 0.18l0.006 0.046c0.012 0.095-0.030 0.189-0.109 0.244l-0.015 0.010c-0.090 0.063-0.137 0.171-0.12 0.28l0.075 0.484c0.035 0.226 0.248 0.38 0.474 0.343l0.146-0.024c0.143-0.024 0.279 0.073 0.303 0.216l0.026 0.155c0.006 0.035-0.014 0.069-0.048 0.082-0.031 0.011-0.051 0.041-0.049 0.074l0.015 0.273c0.005 0.085-0.058 0.159-0.143 0.169-0.091 0.010-0.155 0.094-0.141 0.185l0.036 0.228c0.019 0.12-0.056 0.236-0.173 0.268-0.12 0.033-0.195 0.153-0.172 0.276l0.064 0.333c0.011 0.058 0.064 0.099 0.123 0.096 0.056-0.003 0.107 0.034 0.121 0.089l0.12 0.465c0.007 0.027 0.003 0.057-0.012 0.081l-0.059 0.099c-0.010 0.016-0.032 0.017-0.043 0.003-0.016-0.021-0.049-0.007-0.047 0.019l0.006 0.064c0.002 0.020-0.009 0.039-0.028 0.046l-0.004 0.002c-0.041 0.016-0.042 0.074-0.002 0.092l0.14 0.064c0.034 0.016 0.044 0.059 0.019 0.088-0.034 0.040-0 0.101 0.052 0.092l0.074-0.012c0.042-0.007 0.083 0.019 0.094 0.060l0.052 0.183c0.017 0.059 0.015 0.122-0.005 0.18l-0.014 0.040c-0.039 0.113-0.123 0.205-0.231 0.254l-0.168 0.076c-0.101 0.046-0.211 0.072-0.322 0.077l-0.191 0.008c-0.16 0.007-0.321-0.008-0.478-0.042l-1.548-0.344-0.55-0.206c-0.216-0.081-0.444-0.13-0.674-0.147-0.305-0.022-0.611 0.015-0.902 0.107l-0.898 0.285c-0.417 0.132-0.846 0.221-1.281 0.265l-0.152 0.016c-0.548 0.056-1.085 0.193-1.592 0.407-0.285 0.12-0.58 0.217-0.882 0.288l-0.632 0.149-1.476 0.282c-0.212 0.041-0.432-0.014-0.6-0.149-0.057-0.045-0.106-0.099-0.148-0.159l-0.037-0.054c-0.256-0.373-0.703-0.566-1.15-0.497l-2.707 0.414c-0.135 0.021-0.262-0.067-0.29-0.201l-0.003-0.016c-0.030-0.14-0.174-0.224-0.311-0.18-0.157 0.050-0.318-0.068-0.316-0.233l0.004-0.511c0.001-0.067 0.043-0.126 0.107-0.147l0.002-0.001c0.052-0.018 0.091-0.062 0.101-0.116l0.003-0.015c0.014-0.074-0.033-0.145-0.106-0.161-0.043-0.009-0.079-0.039-0.097-0.079l-0.049-0.111c-0.070-0.16-0.242-0.251-0.414-0.218l-0.618 0.119c-0.213 0.041-0.355 0.243-0.322 0.457 0.033 0.216-0.112 0.419-0.327 0.457l-1.476 0.267c-0.094 0.017-0.159 0.105-0.148 0.2 0.004 0.035 0.018 0.068 0.041 0.095l0.072 0.085c0.082 0.098 0.043 0.247-0.075 0.295-0.116 0.047-0.247-0.033-0.255-0.158-0.004-0.063-0.040-0.12-0.096-0.15l-0.080-0.043c-0.12-0.065-0.191-0.194-0.182-0.33l0.016-0.235c0.002-0.033-0.013-0.065-0.040-0.085-0.031-0.023-0.073-0.024-0.106-0.005l-0.328 0.194c-0.044 0.026-0.095 0.038-0.146 0.034l-0.071-0.005c-0.11-0.008-0.19-0.109-0.171-0.218 0.007-0.039 0.025-0.074 0.053-0.102l0.115-0.114c0.045-0.045 0.067-0.108 0.058-0.171-0.017-0.115-0.128-0.192-0.241-0.167l-0.466 0.103c-0.092 0.020-0.188 0.020-0.281-0.001l-0.7-0.159c-0.084-0.019-0.142-0.096-0.138-0.182 0.006-0.105-0.081-0.192-0.186-0.187l-0.967 0.049c-0.184 0.009-0.282-0.214-0.15-0.343 0.047-0.046 0.068-0.111 0.058-0.176l-0.183-1.119c-0.060-0.368 0.173-0.72 0.535-0.809l0.403-0.099c0.124-0.030 0.205-0.149 0.189-0.276l-0.015-0.115c-0.005-0.042-0.037-0.074-0.079-0.081-0.038-0.006-0.068-0.035-0.077-0.072l-0.038-0.165c-0.016-0.069 0.020-0.139 0.085-0.168 0.061-0.027 0.097-0.091 0.087-0.157l-0.082-0.548c-0.013-0.086 0.041-0.168 0.124-0.192 0.086-0.024 0.139-0.109 0.124-0.197l-0.1-0.554c-0.011-0.061 0.023-0.122 0.081-0.145 0.055-0.022 0.088-0.077 0.082-0.136l-0.017-0.157c-0.021-0.194-0.203-0.33-0.396-0.295l-0.347 0.063c-0.057 0.010-0.116 0.003-0.168-0.022l-0.010-0.005c-0.049-0.023-0.089-0.063-0.113-0.112l-0.071-0.143c-0.025-0.051-0.001-0.113 0.052-0.133 0.045-0.017 0.070-0.065 0.060-0.112l-0.128-0.549c-0.012-0.053-0.004-0.108 0.023-0.155l0.046-0.080c0.025-0.044 0.079-0.064 0.127-0.046 0.066 0.024 0.137-0.022 0.141-0.092l0.011-0.189c0.004-0.070 0.038-0.135 0.093-0.178l0.007-0.006c0.051-0.041 0.086-0.099 0.098-0.163l0.004-0.024c0.025-0.144 0.143-0.255 0.288-0.271l0.51-0.057c0.065-0.007 0.112-0.065 0.106-0.13l-0.024-0.247c-0.003-0.032 0.036-0.050 0.058-0.027 0.007 0.008 0.018 0.011 0.029 0.010l0.135-0.018c0.149-0.019 0.29 0.074 0.331 0.218l0.042 0.151-0.015-0.067c-0.070-0.315 0.122-0.628 0.434-0.71l0.414-0.108c0.058-0.015 0.095-0.071 0.087-0.13l-0.005-0.037c-0.006-0.044 0.025-0.084 0.068-0.090l0.018-0.002c0.034-0.005 0.058-0.036 0.053-0.070-0.005-0.036-0.041-0.060-0.076-0.051l-0.435 0.107c-0.070 0.017-0.14-0.028-0.153-0.099-0.012-0.066 0.030-0.13 0.095-0.145l0.172-0.040c0.165-0.039 0.269-0.202 0.234-0.368l-0.071-0.334c-0.022-0.105 0.054-0.206 0.161-0.213 0.097-0.007 0.18 0.066 0.188 0.163l0.004 0.046c0.007 0.093 0.089 0.162 0.182 0.154 0.094-0.008 0.176 0.063 0.182 0.158l0.037 0.631c0.003 0.055 0.043 0.102 0.098 0.114s0.111-0.015 0.136-0.065l0.1-0.197c0.012-0.024 0.037-0.039 0.064-0.038 0.054 0.001 0.089-0.057 0.063-0.104l-0.155-0.278c-0.043-0.077 0.006-0.174 0.094-0.184l0.030-0.003c0.040-0.005 0.071-0.036 0.075-0.076 0.004-0.039 0.034-0.069 0.073-0.075l1.253-0.187c0.088-0.013 0.15-0.092 0.142-0.18-0.007-0.087 0.052-0.164 0.138-0.18l0.439-0.078c0.035-0.006 0.062-0.036 0.064-0.072 0.002-0.031 0.022-0.057 0.051-0.068l0.066-0.024c0.067-0.025 0.114-0.086 0.121-0.157l0.011-0.11c0.014-0.144 0.115-0.264 0.254-0.302 0.185-0.051 0.295-0.242 0.244-0.427l-0.072-0.26c-0.015-0.056-0.062-0.097-0.12-0.106-0.073-0.011-0.127-0.074-0.125-0.148l0.015-0.548c0.004-0.143-0.115-0.26-0.258-0.253l-0.026 0.001c-0.125 0.006-0.231-0.093-0.232-0.219l-0-0.048c-0.001-0.049-0.027-0.094-0.069-0.118-0.066-0.038-0.089-0.123-0.050-0.189l0.036-0.062c0.022-0.037 0.031-0.079 0.028-0.122l-0.010-0.131c-0.009-0.11 0.062-0.21 0.169-0.239 0.109-0.030 0.181-0.135 0.168-0.247l-0.29-2.515c-0.005-0.045 0.020-0.089 0.063-0.106l0.008-0.003c0.036-0.015 0.058-0.051 0.056-0.090-0.004-0.051 0.036-0.095 0.087-0.096l0.156-0.005c0.056-0.002 0.099-0.049 0.096-0.105-0.003-0.052 0.035-0.098 0.087-0.104l0.729-0.091c0.073-0.009 0.141 0.037 0.16 0.108 0.021 0.080 0.104 0.127 0.184 0.103l0.075-0.022c0.114-0.034 0.181-0.151 0.153-0.266l-0.012-0.050c-0.040-0.163 0.081-0.32 0.249-0.324l0.069-0.002c0.061-0.001 0.117 0.033 0.144 0.088 0.038 0.080 0.136 0.112 0.214 0.070l0.918-0.492 0.076-0.050c0.111-0.073 0.169-0.203 0.151-0.335-0.025-0.181 0.097-0.351 0.277-0.384l0.074-0.014c0.104-0.019 0.183-0.103 0.195-0.208 0.018-0.158-0.119-0.289-0.276-0.264l-0.274 0.044c-0.063 0.010-0.123-0.031-0.136-0.094-0.013-0.061-0.070-0.102-0.131-0.095l-0.031 0.004c-0.045 0.005-0.090-0.009-0.123-0.040l-0.346-0.321c-0.132-0.122-0.309-0.183-0.488-0.168l-0.007 0.001c-0.084 0.007-0.168-0.003-0.248-0.031l-0.15-0.051c-0.087-0.030-0.154-0.099-0.181-0.186l-0.056-0.176c-0.020-0.063-0.089-0.097-0.151-0.073-0.049 0.019-0.104 0.002-0.134-0.039l-0.010-0.014c-0.016-0.022-0.025-0.048-0.026-0.075l-0.028-0.58c-0.005-0.094 0.061-0.176 0.153-0.194 0.058-0.011 0.118 0.006 0.161 0.046l0.036 0.033c0.063 0.058 0.148 0.084 0.233 0.072l0.209-0.030c0.088-0.013 0.168-0.059 0.222-0.13l0.177-0.231c0.039-0.051 0.114-0.053 0.157-0.005 0.020 0.023 0.050 0.036 0.080 0.035l0.085-0.004c0.122-0.005 0.23 0.077 0.259 0.196l0.018 0.074c0.012 0.052 0.054 0.092 0.106 0.102 0.028 0.005 0.056 0.002 0.082-0.010l0.222-0.1c0.055-0.025 0.12-0.016 0.166 0.022 0.035 0.029 0.082 0.041 0.127 0.034l0.157-0.026c0.031-0.005 0.052-0.034 0.048-0.065-0.004-0.030 0.015-0.058 0.044-0.064l0.045-0.010c0.060-0.014 0.12 0.027 0.129 0.088l0.038 0.243c0.016 0.1 0.097 0.178 0.198 0.189 0.134 0.015 0.251-0.091 0.25-0.226l-0.002-0.233c-0-0.040 0.005-0.080 0.016-0.119l0.157-0.564c0.012-0.044 0.043-0.081 0.085-0.101 0.045-0.021 0.077-0.062 0.087-0.111l0.1-0.473z"></path>
</svg>
