<!-- Generated by IcoMoon.io -->
<svg version="1.1" xmlns="http://www.w3.org/2000/svg" width="24" height="32" viewBox="0 0 24 32">
<path d="M12.481 0.221c0.071-0.076 0.196-0.058 0.242 0.036l0.037 0.076c0.026 0.052 0.084 0.081 0.141 0.069 0.045-0.009 0.091 0.006 0.122 0.041l0.056 0.064c0.082 0.093 0.060 0.237-0.046 0.301l-0.124 0.076c-0.037 0.022-0.045 0.072-0.018 0.105l0.007 0.009c0.019 0.024 0.017 0.059-0.005 0.080-0.025 0.024-0.024 0.064 0.002 0.087l0.077 0.068c0.013 0.011 0.027 0.020 0.042 0.026l0.588 0.246c0.054 0.023 0.112 0.036 0.17 0.038l0.269 0.012c0.091 0.004 0.171-0.058 0.19-0.147l0.003-0.016c0.019-0.089 0.105-0.147 0.194-0.132 0.092 0.016 0.153 0.102 0.138 0.194l-0.149 0.917c-0.004 0.023-0.014 0.044-0.030 0.061-0.034 0.035-0.041 0.088-0.019 0.132l0.28 0.543c0.067 0.131 0.001 0.29-0.139 0.334l-0.086 0.027c-0.048 0.015-0.080 0.060-0.080 0.11l0 0.028c0.001 0.074-0.078 0.122-0.143 0.087-0.047-0.024-0.105-0.007-0.13 0.039l-0.068 0.121c-0.048 0.086 0.012 0.193 0.11 0.196l0.031 0.001c0.037 0.001 0.070 0.026 0.081 0.061 0.012 0.037 0.047 0.062 0.086 0.061l0.237-0.005c0.064-0.001 0.128 0.013 0.186 0.041l0.108 0.053c0.036 0.018 0.075 0.027 0.115 0.029l0.063 0.003c0.045 0.002 0.089-0.016 0.119-0.049 0.034-0.037 0.085-0.055 0.135-0.048l0.483 0.067c0.018 0.002 0.036 0.001 0.053-0.006 0.073-0.026 0.149 0.028 0.148 0.105l-0.008 0.895c-0.001 0.109 0.093 0.195 0.201 0.184 0.070-0.007 0.138 0.027 0.174 0.086l0.019 0.030c0.046 0.074 0.129 0.117 0.216 0.109l0.14-0.012c0.050-0.004 0.094 0.033 0.098 0.083s-0.033 0.093-0.082 0.097l-0.078 0.007c-0.048 0.004-0.092 0.028-0.121 0.067l-0.007 0.009c-0.031 0.041-0.044 0.092-0.038 0.143l0.023 0.176c0.009 0.072-0.007 0.145-0.045 0.206l-0.019 0.030c-0.066 0.107-0.050 0.245 0.039 0.334 0.044 0.043 0.1 0.070 0.161 0.076l0.134 0.014c0.048 0.005 0.088 0.037 0.105 0.082l0.012 0.033c0.017 0.047-0.007 0.099-0.054 0.116-0.057 0.020-0.078 0.089-0.042 0.138l0.010 0.013c0.013 0.018 0.020 0.039 0.020 0.062l-0.001 0.078c-0.001 0.084-0.059 0.156-0.141 0.175l-0.058 0.013c-0.037 0.008-0.066 0.039-0.072 0.077-0.006 0.035-0.030 0.064-0.064 0.074l-0.047 0.015c-0.077 0.025-0.127 0.099-0.121 0.18l0.106 1.346c0.009 0.117 0.056 0.228 0.134 0.316l0.152 0.173c0.074 0.084 0.082 0.208 0.019 0.301l-0.024 0.036c-0.021 0.031-0.029 0.069-0.022 0.106l0.026 0.136c0.003 0.014-0.008 0.027-0.022 0.028-0.023 0.001-0.031 0.030-0.012 0.043l0.131 0.087c0.029 0.020 0.041 0.057 0.026 0.090l-0.006 0.014c-0.017 0.039-0.005 0.083 0.028 0.109l0.158 0.121c0.051 0.039 0.117 0.054 0.18 0.041l0.091-0.019c0.047-0.010 0.094 0.014 0.114 0.057 0.024 0.051 0.084 0.073 0.135 0.050l0.114-0.051c0.139-0.062 0.299 0.025 0.322 0.176l0.080 0.52c0.010 0.066 0.075 0.108 0.139 0.090 0.036-0.010 0.075-0.001 0.103 0.023l0.026 0.023c0.089 0.078 0.076 0.22-0.026 0.28l-0.202 0.121c-0.089 0.053-0.138 0.155-0.124 0.258l0.002 0.017c0.009 0.065-0.012 0.131-0.056 0.18-0.034 0.038-0.054 0.086-0.057 0.137l-0.001 0.023c-0.006 0.115 0.056 0.224 0.159 0.275l0.102 0.051c0.081 0.041 0.171 0.057 0.261 0.047l0.475-0.054c0.149-0.017 0.297 0.032 0.407 0.133l0.012 0.011c0.1 0.092 0.157 0.223 0.154 0.36-0.002 0.097 0.027 0.193 0.081 0.274l0.084 0.125c0.031 0.046 0.045 0.102 0.038 0.158l-0.004 0.034c-0.004 0.034-0.020 0.065-0.044 0.088-0.048 0.045-0.059 0.116-0.028 0.173l0.012 0.023c0.017 0.031 0.043 0.056 0.074 0.072l0.153 0.078c0.053 0.027 0.111 0.042 0.171 0.043l0.35 0.007c0.051 0.001 0.090 0.047 0.083 0.098-0.006 0.041 0.018 0.081 0.058 0.094l0.931 0.301c0.117 0.038 0.183 0.16 0.151 0.279l-0.014 0.050c-0.020 0.074 0.013 0.152 0.081 0.188 0.051 0.027 0.084 0.080 0.086 0.138l0.002 0.044c0.002 0.049-0.011 0.097-0.037 0.138l-0.013 0.021c-0.060 0.096-0.066 0.216-0.014 0.317l0.026 0.050c0.067 0.132 0.199 0.218 0.346 0.228l1.247 0.082c0.235 0.015 0.419 0.21 0.421 0.446l0.001 0.118c0.001 0.065 0.031 0.126 0.083 0.165l0.018 0.014c0.039 0.029 0.088 0.039 0.135 0.028 0.050-0.012 0.102 0 0.141 0.033l0.010 0.009c0.063 0.052 0.085 0.14 0.053 0.215l-0.179 0.436c-0.016 0.039-0.019 0.083-0.008 0.124 0.034 0.121-0.056 0.242-0.182 0.244l-0.792 0.015c-0.038 0.001-0.077-0.001-0.115-0.006l-0.616-0.077c-0.043-0.005-0.084 0.020-0.098 0.060-0.012 0.032-0.041 0.056-0.075 0.060l-0.121 0.016c-0.115 0.015-0.21 0.096-0.243 0.207l-0.032 0.109c-0.009 0.030-0.012 0.062-0.008 0.093l0.005 0.043c0.013 0.113-0.074 0.214-0.188 0.218-0.089 0.003-0.165 0.066-0.184 0.153l-0.019 0.084c-0.017 0.075-0.005 0.153 0.033 0.22l0.012 0.022c0.040 0.070 0.056 0.152 0.046 0.232l-0.026 0.208c-0.009 0.069-0.043 0.131-0.096 0.176-0.066 0.055-0.102 0.138-0.098 0.224l0.013 0.266c0.004 0.088-0.058 0.166-0.145 0.181l-0.061 0.010c-0.070 0.012-0.135-0.040-0.139-0.111-0.004-0.064-0.056-0.113-0.12-0.113l-0.337 0.001c-0.108 0-0.194 0.091-0.189 0.199l0.001 0.015c0.005 0.1-0.074 0.183-0.174 0.184l-0.035 0c-0.078 0.001-0.141 0.065-0.14 0.143 0 0.033-0.011 0.066-0.032 0.092l-0.017 0.021c-0.040 0.049-0.1 0.078-0.164 0.078l-1.209 0.009c-0.097 0.001-0.178 0.074-0.188 0.17-0.010 0.095-0.089 0.168-0.185 0.17l-0.564 0.015c-0.144 0.004-0.259 0.121-0.26 0.265l-0 0.054c-0.001 0.115-0.093 0.209-0.209 0.211-0.107 0.001-0.196 0.083-0.208 0.189l-0.015 0.138c-0.006 0.055-0.050 0.098-0.106 0.103-0.061 0.005-0.107 0.056-0.106 0.117l0.006 0.313c0.001 0.033 0.014 0.064 0.038 0.086 0.029 0.028 0.043 0.068 0.036 0.108l-0.029 0.173c-0.008 0.050 0.018 0.1 0.064 0.121 0.041 0.019 0.066 0.059 0.066 0.104l-0.012 0.941c-0.001 0.040-0.032 0.073-0.072 0.074-0.042 0.002-0.074 0.037-0.072 0.079l0.002 0.040c0.003 0.056-0.035 0.105-0.089 0.117l-0.122 0.027c-0.076 0.017-0.141 0.067-0.177 0.137l-0.206 0.405c-0.018 0.035-0.026 0.074-0.022 0.113 0.008 0.108 0.097 0.192 0.205 0.196l0.598 0.018c0.149 0.004 0.254 0.147 0.214 0.29-0.009 0.033-0.011 0.068-0.005 0.102l0.018 0.101c0.007 0.041-0.004 0.084-0.032 0.116-0.025 0.029-0.062 0.046-0.1 0.047l-0.148 0.005c-0.063 0.002-0.114 0.050-0.12 0.113-0.005 0.054-0.044 0.098-0.097 0.11l-0.22 0.050c-0.105 0.024-0.16 0.14-0.111 0.237 0.014 0.027 0.020 0.057 0.018 0.087l-0.048 0.636c-0.014 0.188-0.065 0.371-0.15 0.539-0.053 0.106-0.12 0.205-0.197 0.294l-0.297 0.342c-0.042 0.049-0.101 0.081-0.164 0.092-0.109 0.018-0.218-0.031-0.277-0.125l-0.167-0.264c-0.048-0.076-0.122-0.133-0.209-0.159l-0.011-0.003c-0.125-0.038-0.262-0.005-0.355 0.087s-0.23 0.125-0.355 0.087l-0.050-0.015c-0.064-0.019-0.132-0.024-0.198-0.014l-0.019 0.003c-0.079 0.012-0.159 0.007-0.236-0.016l-0.175-0.053c-0.267-0.081-0.553-0.076-0.817 0.014l-0.307 0.104c-0.168 0.057-0.343 0.095-0.52 0.113l-0.223 0.023c-0.215 0.022-0.431 0.004-0.639-0.052-0.271-0.073-0.555-0.081-0.83-0.022l-0.352 0.075c-0.043 0.009-0.084 0.029-0.119 0.056l-0.065 0.052c-0.047 0.038-0.068 0.1-0.053 0.158 0.019 0.075-0.021 0.154-0.094 0.182l-0.105 0.040c-0.050 0.019-0.094 0.053-0.126 0.097l-1.328 1.831c-0.046 0.064-0.1 0.122-0.16 0.172l-0.27 0.23c-0.005 0.004-0.011 0.006-0.017 0.006-0.024 0-0.035-0.029-0.018-0.045l0.209-0.201c0.035-0.034 0.050-0.083 0.041-0.13l-0.019-0.098c-0.013-0.065-0.044-0.124-0.091-0.17l-0.134-0.132c-0.065-0.064-0.141-0.116-0.224-0.154-0.221-0.1-0.475-0.089-0.687 0.028l-0.026 0.014c-0.063 0.034-0.12 0.078-0.17 0.129-0.098 0.1-0.223 0.17-0.36 0.202l-0.078 0.018c-0.055 0.013-0.108 0.033-0.157 0.060l-0.176 0.097c-0.176 0.097-0.398 0.043-0.509-0.125s-0.074-0.396 0.086-0.52l0.35-0.27c0.020-0.016 0.050-0.014 0.067 0.005 0.016 0.017 0.041 0.020 0.061 0.009l0.096-0.053c0.122-0.068 0.133-0.239 0.021-0.322l-0.048-0.036c-0.103-0.076-0.124-0.221-0.048-0.323l0.090-0.121c0.055-0.075 0.050-0.178-0.013-0.246l-0.023-0.025c-0.055-0.059-0.145-0.067-0.209-0.018-0.045 0.035-0.107 0.042-0.159 0.018l-0.625-0.281c-0.081-0.036-0.087-0.149-0.010-0.193 0.040-0.024 0.061-0.070 0.052-0.116l-0.068-0.323c-0.012-0.058-0.070-0.095-0.128-0.081-0.042 0.010-0.086-0.006-0.111-0.042l-0.267-0.375c-0.012-0.017-0.034-0.023-0.053-0.016-0.023 0.009-0.050-0.003-0.058-0.026l-0.002-0.005c-0.011-0.030-0.047-0.042-0.074-0.026l-0.007 0.004c-0.028 0.017-0.064 0.001-0.070-0.031-0.007-0.037-0.054-0.051-0.080-0.023-0.021 0.022-0.057 0.019-0.073-0.007l-0.022-0.035c-0.019-0.029-0.055-0.042-0.088-0.031-0.029 0.010-0.060 0.001-0.080-0.021l-0.169-0.189c-0.050-0.056-0.013-0.145 0.061-0.149l0.103-0.006c0.017-0.001 0.028-0.020 0.019-0.035-0.009-0.017 0.004-0.037 0.023-0.035l0.382 0.033c0.155 0.013 0.278-0.127 0.244-0.279l-0.256-1.143c-0.011-0.050 0.022-0.1 0.074-0.108l0.006-0.001c0.038-0.006 0.076 0.016 0.090 0.052 0.013 0.034 0.046 0.055 0.082 0.053l0.603-0.037c0.051-0.003 0.099 0.024 0.123 0.068 0.033 0.059 0.105 0.084 0.167 0.058l0.243-0.104c0.030-0.013 0.046-0.044 0.040-0.076-0.005-0.028 0.007-0.057 0.032-0.071l0.178-0.109c0.103-0.063 0.152-0.186 0.121-0.302l-0.032-0.118c-0.022-0.083 0.028-0.167 0.111-0.188 0.070-0.017 0.143 0.018 0.174 0.084l0.093 0.198c0.052 0.111 0.184 0.158 0.294 0.104l0.019-0.009c0.088-0.043 0.131-0.145 0.1-0.238-0.015-0.046-0.013-0.095 0.006-0.139l0.32-0.744c0.008-0.018 0.025-0.030 0.045-0.032 0.026-0.002 0.047-0.023 0.049-0.049l0.009-0.149c0.007-0.124-0.088-0.229-0.212-0.234l-0.192-0.008c-0.041-0.002-0.070-0.040-0.061-0.080 0.007-0.031-0.009-0.062-0.038-0.075l-0.016-0.007c-0.040-0.017-0.087-0.001-0.108 0.037l-0.057 0.101c-0.066 0.117-0.223 0.145-0.326 0.058l-0.443-0.375c-0.017-0.015-0.043-0.014-0.060 0.001-0.021 0.019-0.054 0.015-0.069-0.009l-0.404-0.646c-0.038-0.060-0.121-0.069-0.171-0.018s-0.131 0.042-0.17-0.017l-0.082-0.126c-0.026-0.039-0.078-0.049-0.116-0.023-0.037 0.025-0.087 0.017-0.114-0.020l-0.046-0.063c-0.054-0.074-0.159-0.089-0.232-0.034l-0.102 0.078c-0.137 0.104-0.333 0.067-0.423-0.080l-0.216-0.355c-0.131-0.216-0.403-0.299-0.633-0.194l-0.128 0.059c-0.049 0.022-0.105 0.023-0.154 0.001l-0.031-0.014c-0.040-0.018-0.067-0.055-0.073-0.098l-0.002-0.013c-0.008-0.058 0.031-0.113 0.088-0.124l0.039-0.008c0.033-0.007 0.055-0.036 0.053-0.069-0.002-0.039-0.038-0.067-0.076-0.061l-0.12 0.018c-0.096 0.015-0.186-0.051-0.202-0.146l-0.001-0.009c-0.017-0.103 0.053-0.2 0.157-0.215l0.096-0.014c0.022-0.003 0.040-0.020 0.046-0.041 0.007-0.030 0.038-0.048 0.068-0.040l0.052 0.014c0.046 0.012 0.095-0.008 0.12-0.049 0.048-0.079-0.013-0.181-0.106-0.171l-0.277 0.028c-0.13 0.013-0.249-0.077-0.271-0.206l-0.060-0.351c-0.007-0.039-0.040-0.069-0.080-0.071s-0.073-0.032-0.080-0.072l-0.074-0.443c-0.033-0.201-0.22-0.339-0.422-0.312l-0.182 0.024c-0.126 0.017-0.238-0.080-0.241-0.207l-0.002-0.11c-0.001-0.038 0.026-0.072 0.064-0.080 0.030-0.006 0.054-0.029 0.061-0.059l0.056-0.231c0.004-0.018 0.004-0.038-0.001-0.056l-0.004-0.016c-0.013-0.047-0.061-0.076-0.109-0.065-0.052 0.011-0.103-0.023-0.111-0.076l-0.030-0.188c-0.012-0.074-0.078-0.126-0.152-0.122-0.073 0.005-0.138-0.046-0.151-0.118l-0.008-0.045c-0.020-0.106 0.051-0.209 0.157-0.229l0.207-0.039c0.031-0.006 0.054-0.033 0.054-0.066 0-0.037 0.030-0.067 0.067-0.066l0.141 0.001c0.131 0.001 0.23-0.119 0.204-0.248l-0.021-0.105c-0.022-0.11-0.125-0.186-0.238-0.173-0.117 0.013-0.222-0.069-0.24-0.185l-0.038-0.257c-0.004-0.024 0.012-0.048 0.035-0.054 0.039-0.011 0.049-0.061 0.017-0.086l-0.047-0.036c-0.044-0.034-0.040-0.102 0.008-0.13l0.016-0.009c0.044-0.025 0.058-0.082 0.032-0.125l-0.051-0.084c-0.039-0.064-0.034-0.145 0.011-0.204 0.029-0.039 0.042-0.088 0.035-0.136l-0.026-0.186c-0.009-0.065 0.031-0.128 0.094-0.146l0.095-0.028c0.012-0.003 0.019-0.015 0.017-0.027-0.004-0.020 0.018-0.035 0.036-0.025l0.111 0.070c0.018 0.012 0.042 0.013 0.061 0.003l0.179-0.092c0.012-0.006 0.008-0.025-0.006-0.025s-0.018-0.017-0.008-0.024l0.066-0.046c0.019-0.013 0.045-0.007 0.056 0.014l0.029 0.055c0.020 0.037 0.062 0.057 0.103 0.047l0.022-0.005c0.026-0.006 0.052-0.003 0.076 0.007l0.258 0.113c0.023 0.010 0.050 0.002 0.064-0.018 0.018-0.026 0.055-0.030 0.078-0.009l0.142 0.128c0.022 0.020 0.038 0.046 0.045 0.075l0.026 0.11c0.011 0.044 0.061 0.065 0.1 0.041 0.028-0.018 0.065-0.012 0.087 0.014l0.033 0.040c0.032 0.038 0.083 0.055 0.131 0.041l0.090-0.025c0.061-0.017 0.126 0.014 0.152 0.072 0.016 0.036 0.048 0.063 0.086 0.073l0.193 0.049c0.078 0.020 0.157-0.031 0.171-0.11l0.004-0.021c0.010-0.055 0.058-0.094 0.114-0.093 0.043 0.001 0.083-0.023 0.103-0.062l0.089-0.173c0.041-0.080 0.056-0.17 0.042-0.259l-0.179-1.162c-0.006-0.036 0.035-0.062 0.065-0.041 0.023 0.016 0.054 0.005 0.063-0.021l0.026-0.074c0.012-0.035 0.052-0.052 0.086-0.036 0.029 0.014 0.064 0.003 0.080-0.025l0.003-0.005c0.013-0.021 0.036-0.034 0.061-0.034l0.040 0.001c0.086 0.002 0.153-0.075 0.14-0.16l-0.191-1.22c-0.016-0.101-0.109-0.171-0.21-0.158l-0.099 0.013c-0.041 0.005-0.080-0.022-0.089-0.063s-0.046-0.068-0.087-0.063l-0.167 0.018c-0.139 0.015-0.265-0.079-0.291-0.216l-0.028-0.15c-0.009-0.049-0.009-0.1-0-0.149l0.016-0.089c0.008-0.042 0.030-0.079 0.063-0.105 0.048-0.037 0.072-0.097 0.065-0.157l-0.040-0.325c-0.002-0.021 0.009-0.040 0.028-0.049l0.025-0.011c0.023-0.010 0.026-0.042 0.005-0.056-0.020-0.013-0.019-0.042 0.002-0.054l0.062-0.036c0.017-0.010 0.038-0.013 0.057-0.007 0.051 0.014 0.1-0.028 0.094-0.081l-0.023-0.19c-0.004-0.031-0.029-0.055-0.060-0.057s-0.057-0.028-0.060-0.059l-0.031-0.378c-0.005-0.066 0.037-0.126 0.101-0.142 0.065-0.017 0.108-0.079 0.101-0.145l-0.007-0.065c-0.011-0.112 0.066-0.213 0.176-0.232l0.139-0.023c0.103-0.017 0.173-0.114 0.157-0.217-0.011-0.073-0.064-0.133-0.135-0.154l-0.057-0.017c-0.069-0.020-0.125-0.069-0.155-0.134-0.040-0.087-0.126-0.143-0.221-0.144l-0.081-0.001c-0.119-0.001-0.219-0.091-0.233-0.21-0.012-0.1-0.086-0.182-0.184-0.204l-0.047-0.011c-0.033-0.007-0.068-0.008-0.101-0.002-0.142 0.026-0.276-0.071-0.298-0.213l-0.014-0.094c-0.005-0.031-0.014-0.062-0.027-0.090l-0.11-0.244c-0.020-0.043-0.033-0.090-0.039-0.137l-0.052-0.389c-0.006-0.044 0.024-0.084 0.067-0.092 0.025-0.005 0.046-0.020 0.058-0.042l0.022-0.042c0.025-0.047 0.028-0.103 0.008-0.153l-0.157-0.389c-0.011-0.028-0.019-0.058-0.022-0.088l-0.023-0.208c-0.006-0.054-0.052-0.094-0.106-0.093l-0.022 0c-0.031 0-0.060-0.019-0.070-0.049-0.008-0.022-0.005-0.047 0.009-0.067l0.184-0.268c0.046-0.066 0.127-0.099 0.206-0.082l0.058 0.012c0.054 0.011 0.093 0.057 0.097 0.111 0.003 0.043 0.029 0.082 0.067 0.101l0.093 0.046c0.037 0.019 0.078 0.030 0.12 0.032l0.292 0.015c0.030 0.002 0.058 0.018 0.075 0.043 0.020 0.030 0.055 0.047 0.091 0.043l0.024-0.003c0.049-0.006 0.090-0.037 0.109-0.082l0.039-0.093c0.052-0.124 0.178-0.2 0.312-0.187l0.656 0.063c0.113 0.011 0.219 0.061 0.3 0.141l0.393 0.392c0.041 0.041 0.111 0.030 0.138-0.022l0.003-0.007c0.026-0.051-0.007-0.112-0.064-0.118-0.038-0.004-0.069-0.034-0.073-0.072l-0-0.004c-0.002-0.023-0.014-0.044-0.033-0.059l-0.124-0.097c-0.057-0.045-0.069-0.126-0.029-0.185l0.023-0.034c0.014-0.020 0.037-0.031 0.061-0.029 0.033 0.003 0.064-0.020 0.071-0.052l0.010-0.044c0.014-0.060 0.071-0.1 0.132-0.092l0.171 0.023c0.075 0.010 0.144-0.040 0.159-0.114l0.014-0.069c0.007-0.038 0.044-0.063 0.082-0.056 0.032 0.006 0.064-0.011 0.077-0.041l0.033-0.073c0.034-0.077 0.119-0.119 0.201-0.098l0.24 0.060c0.040 0.010 0.064 0.052 0.051 0.092-0.011 0.033 0.004 0.069 0.034 0.085l0.102 0.056c0.141 0.077 0.313-0.023 0.315-0.184l0.005-0.369c0.001-0.097 0.051-0.187 0.132-0.24 0.043-0.028 0.077-0.066 0.1-0.112l0.028-0.055c0.041-0.081 0.125-0.132 0.216-0.13l0.11 0.002c0.061 0.001 0.114-0.045 0.12-0.106s0.059-0.108 0.121-0.106l0.328 0.011c0.067 0.002 0.125-0.045 0.137-0.11l0.007-0.036c0.009-0.051-0.023-0.101-0.074-0.112-0.061-0.014-0.093-0.080-0.066-0.136l0.008-0.017c0.022-0.046 0.010-0.101-0.029-0.134l-0.098-0.083c-0.038-0.032-0.042-0.089-0.009-0.126l0.018-0.020c0.018-0.020 0.047-0.024 0.070-0.010 0.025 0.015 0.057 0.008 0.073-0.016l0.011-0.016c0.013-0.018 0.006-0.044-0.013-0.054-0.028-0.015-0.026-0.055 0.003-0.067l0.163-0.070c0.016-0.007 0.028-0.020 0.033-0.036 0.014-0.043 0.069-0.055 0.099-0.022l0.050 0.054c0.020 0.022 0.050 0.033 0.080 0.029 0.044-0.006 0.077-0.041 0.080-0.085l0.019-0.296c0.002-0.035 0.033-0.061 0.068-0.058 0.040 0.004 0.073-0.031 0.068-0.070l-0.016-0.124c-0.010-0.076 0.042-0.146 0.117-0.159 0.035-0.006 0.066-0.025 0.088-0.052l0.011-0.013c0.040-0.051 0.103-0.077 0.167-0.070l0.174 0.020c0.016 0.002 0.028 0.014 0.031 0.029 0.004 0.025 0.033 0.038 0.055 0.024l0.069-0.046c0.014-0.009 0.031-0.011 0.047-0.006l0.063 0.022c0.019 0.007 0.037-0.012 0.029-0.031-0.005-0.012 0.001-0.025 0.012-0.030l0.133-0.057c0.073-0.031 0.115-0.109 0.101-0.187l-0.020-0.114c-0.005-0.027-0.018-0.052-0.038-0.071l-0.039-0.036c-0.033-0.031-0.033-0.083 0-0.113 0.011-0.010 0.025-0.017 0.039-0.019l0.343-0.057c0.066-0.011 0.13-0.032 0.19-0.063l0.487-0.249c0.138-0.071 0.171-0.254 0.066-0.368-0.026-0.028-0.058-0.050-0.094-0.063l-0.414-0.148c-0.247-0.088-0.313-0.407-0.121-0.587 0.081-0.088 0.19-0.144 0.308-0.16l0.163-0.022c0.121-0.016 0.245-0.010 0.363 0.020l1.473 0.364c0.030 0.008 0.062 0.008 0.093 0.002l0.193-0.040c0.021-0.004 0.040 0.010 0.042 0.031 0.001 0.017 0.015 0.031 0.032 0.032l0.058 0.005c0.053 0.005 0.101-0.031 0.112-0.084l0.037-0.186c0.005-0.027 0.018-0.052 0.037-0.072z"></path>
</svg>
