<!-- Generated by IcoMoon.io -->
<svg version="1.1" xmlns="http://www.w3.org/2000/svg" width="22" height="32" viewBox="0 0 22 32">
<path fill="#e0fc52" d="M5.314 2.257c0-1.332 1.086-2.43 2.403-2.231 1.534 0.232 3.031 0.685 4.443 1.35 2.141 1.008 4.034 2.476 5.542 4.299s2.596 3.958 3.185 6.25c0.589 2.292 0.664 4.686 0.22 7.011s-1.395 4.523-2.786 6.437c-1.391 1.915-3.188 3.498-5.262 4.639s-4.374 1.808-6.736 1.957c-1.557 0.098-3.116-0.032-4.628-0.381-1.298-0.3-1.903-1.72-1.413-2.959s1.893-1.816 3.208-1.6c0.833 0.137 1.682 0.18 2.53 0.126 1.653-0.104 3.263-0.572 4.715-1.37s2.709-1.907 3.683-3.247c0.974-1.34 1.639-2.879 1.95-4.506s0.258-3.303-0.154-4.908-1.173-3.098-2.229-4.375c-1.056-1.276-2.381-2.304-3.88-3.009-0.769-0.362-1.573-0.634-2.399-0.814-1.301-0.283-2.393-1.337-2.393-2.669z"></path>
</svg>
