<!-- Generated by IcoMoon.io -->
<svg version="1.1" xmlns="http://www.w3.org/2000/svg" width="32" height="32" viewBox="0 0 32 32">
<path fill="#e0fc52" d="M16.097 2.257c0-1.332 1.086-2.43 2.403-2.231 2.996 0.453 5.821 1.746 8.134 3.754 2.924 2.537 4.834 6.045 5.38 9.878s-0.31 7.734-2.41 10.986c-2.1 3.252-5.303 5.638-9.021 6.718s-7.7 0.782-11.216-0.838c-3.516-1.621-6.329-4.456-7.922-7.985s-1.86-7.513-0.75-11.223c0.878-2.934 2.57-5.54 4.857-7.528 1.005-0.874 2.51-0.528 3.224 0.596s0.356 2.599-0.591 3.536c-1.333 1.318-2.325 2.958-2.869 4.778-0.776 2.596-0.59 5.386 0.525 7.856s3.084 4.454 5.545 5.589c2.461 1.135 5.249 1.343 7.851 0.587s4.845-2.426 6.315-4.702c1.47-2.277 2.069-5.007 1.687-7.69s-1.719-5.138-3.766-6.914c-1.435-1.245-3.151-2.098-4.983-2.497-1.301-0.283-2.393-1.337-2.393-2.669z"></path>
</svg>
