<!-- Generated by IcoMoon.io -->
<svg version="1.1" xmlns="http://www.w3.org/2000/svg" width="32" height="32" viewBox="0 0 32 32">
<path fill="#e0fc52" d="M16 3.008c0-1.661 1.358-3.037 2.99-2.726 2.14 0.407 4.184 1.249 6.003 2.485 2.653 1.803 4.702 4.361 5.883 7.343s1.438 6.25 0.738 9.38c-0.7 3.13-2.324 5.978-4.662 8.173s-5.282 3.638-8.45 4.139c-3.168 0.502-6.413 0.040-9.315-1.326s-5.327-3.572-6.959-6.333c-1.119-1.893-1.831-3.986-2.103-6.147-0.207-1.648 1.25-2.918 2.908-2.813s2.872 1.56 3.265 3.174c0.232 0.952 0.603 1.871 1.108 2.724 1.019 1.723 2.532 3.099 4.343 3.952s3.836 1.14 5.813 0.827c1.977-0.313 3.814-1.213 5.273-2.583s2.472-3.147 2.909-5.1c0.437-1.953 0.276-3.992-0.461-5.853s-2.016-3.457-3.671-4.582c-0.82-0.557-1.713-0.986-2.649-1.277-1.586-0.493-2.963-1.796-2.963-3.458z"></path>
</svg>
