<!-- Generated by IcoMoon.io -->
<svg version="1.1" xmlns="http://www.w3.org/2000/svg" width="21" height="32" viewBox="0 0 21 32">
<path fill="#e0fc52" d="M0.127 2.957c0-1.745 1.422-3.184 3.148-2.923 2.774 0.419 5.447 1.39 7.858 2.867 3.312 2.030 5.998 4.936 7.762 8.397s2.536 7.343 2.231 11.215c-0.222 2.818-1.008 5.552-2.299 8.043-0.803 1.549-2.803 1.854-4.215 0.828s-1.688-2.994-0.986-4.592c0.662-1.506 1.070-3.12 1.2-4.775 0.213-2.711-0.327-5.428-1.562-7.851s-3.115-4.457-5.433-5.878c-1.416-0.867-2.961-1.486-4.568-1.835-1.705-0.371-3.135-1.752-3.135-3.497z"></path>
</svg>
