<!-- Generated by IcoMoon.io -->
<svg version="1.1" xmlns="http://www.w3.org/2000/svg" width="31" height="32" viewBox="0 0 31 32">
<path fill="#e0fc52" d="M3.415 11.725c1.771 0.691 1.662 1.76 1.524 3.104-0.068 0.659-0.803 0.626-1.579 0.591-1.193-0.053-2.48-0.111-1.578 2.337 0.845 2.292 2.148 2.413 3.358 2.527 0.923 0.086 1.792 0.168 2.361 1.203 0.527 0.958-0.341 1.545-1.259 2.164-1.372 0.926-2.852 1.926 0.077 4.353 2.812 2.33 3.754 0.711 4.592-0.729 0.619-1.063 1.18-2.027 2.394-1.236s1.302 1.774 1.384 2.702c0.111 1.256 0.213 2.411 3.095 2.856 2.874 0.444 2.539-0.968 2.145-2.635-0.293-1.239-0.62-2.619 0.311-3.483 0.904-0.839 1.258 0.147 1.665 1.279 0.576 1.604 1.258 3.502 3.76 0.916 2.761-2.854 1.256-4.494 0.151-5.697-0.602-0.656-1.085-1.182-0.694-1.705 0.466-0.622 1.236-0.572 2.094-0.516 1.187 0.077 2.542 0.164 3.488-1.501 1.099-1.932-1.021-3.134-2.617-4.039-0.773-0.438-1.422-0.807-1.524-1.155-0.098-0.336 0.141-0.671 0.435-1.082 0.638-0.892 1.531-2.142-0.225-4.534-1.42-1.935-2.442-1.053-3.417-0.211-0.786 0.678-1.542 1.33-2.451 0.46-0.994-0.952-0.953-1.196-0.88-1.64 0.077-0.466 0.19-1.153-0.817-3.111-1.573-3.059-3.591-0.057-4.404 1.827-5.274-9.337-6.778-0.488-6.415 2.337 0.194 1.507-0.651 1.342-2.040 1.070-1.215-0.238-2.846-0.558-4.565 0.088-2.947 1.108-0.143 2.768 1.628 3.459zM19.082 13.348c0.68 1.321-0.111 4.728-2.38 4.513-1.622-0.154-2.261-1.606-2.797-2.823-0.401-0.911-0.744-1.69-1.397-1.694-1.527-0.009 3.239-3.986 6.574 0.004z"></path>
</svg>
