<!-- Generated by IcoMoon.io -->
<svg version="1.1" xmlns="http://www.w3.org/2000/svg" width="50" height="32" viewBox="0 0 50 32">
<path fill="#e0fc52" d="M38.882 3.16c0.5 5.091-2.16 11.020 9.661 13.336 3.67 6.753-3.037 1.693-9.849 0.358s3.643 10.076-2.474 12.622c-6.116 2.546-4.333-2.306-2.763-10.32s-3.009-1.63-8.128 0.071c-5.119 1.701 5.084 10.151-0.753 12.335s-0.909-17.654-3.525-10.677c-2.616 6.977-3.637 12.186-6.485 10.796s9.301-17.734 0.29-7.849c-9.011 9.885-14.087 1.816-14.696-0.384s9.483-1.678 13.478-4.016c3.995-2.338-7.83-5.696-5.398-8.548s2.569 1.752 6.184 4.541 11.464 3.079 6.604-0.786c-4.86-3.865-5.638-8.387-2.401-10.041s4.271 6.871 9.68 7.931c5.41 1.060-3.383-5.032-3.603-10.277s3.885 0.345 7.747 5.055c3.862 4.71 6.274 7.263 3.206 0.628s2.6-11.141 3.225-4.777z"></path>
</svg>
