<!-- Generated by IcoMoon.io -->
<svg version="1.1" xmlns="http://www.w3.org/2000/svg" width="17" height="32" viewBox="0 0 17 32">
<path fill="#e0fc52" d="M9.046 31.799c-1.409 0.101-1.208-3.555-1.006-5.535-0.839-0.838-3.22-2.677-6.038-3.321-3.522-0.805-2.113-8.956 2.013-2.516 3.301 5.152 4.059 4.361 4.025 3.321v-9.761c0-3.623-1.912-3.12-4.528-4.83s-3.22-2.616 0-3.623c3.22-1.006 3.421 7.95 4.528 3.12s-1.308-4.73-1.912-5.736c-0.483-0.805 1.878-2.281 3.12-2.918 5.333 3.925 1.308 1.409 0 6.541s1.308 3.321 2.918 0c1.61-3.321 2.818-2.717 4.528 0s-3.019 1.711-6.138 4.327c-3.12 2.616-0.805 9.56-1.308 12.88s2.113-0.302 2.918-2.616c0.805-2.314 1.912-2.616 3.522-0.704s-6.005 4.603-6.44 5.836c-0.604 1.711 1.218 5.433-0.201 5.535z"></path>
</svg>
