<!-- Generated by IcoMoon.io -->
<svg version="1.1" xmlns="http://www.w3.org/2000/svg" width="104" height="32" viewBox="0 0 104 32">
<path fill="#2969f6" d="M13.714 0c-7.574 0-13.714 6.14-13.714 13.714v4.571c0 7.574 6.14 13.714 13.714 13.714h57.598c7.416 0 12.648-5.489 13.589-11.763 1.446 1.269 4.366 1.381 5.755-0.046 0.757-0.778 2.967-0.573 4.694-0.412 0.611 0.057 1.161 0.108 1.564 0.108l6.857-0.686c-5.43 0-16.795-3.14-20.968-8.419-0.371-0.559-0.791-1.103-1.26-1.63l-4.082-4.571c-2.602-2.914-6.323-4.58-10.23-4.58h-53.517z"></path>
</svg>
