<!-- Generated by IcoMoon.io -->
<svg version="1.1" xmlns="http://www.w3.org/2000/svg" width="21" height="32" viewBox="0 0 21 32">
<path fill="#d3d3d3" d="M15.933 31.625c-0.857 1.865-2.373-5.502-3.127-9.858-5.006 1.817-6.439-1.686-7.584-3.337-1.056-1.522-3.282-0.188 0.61-2.224 2.908-1.52 5.602 0.572 6.796 2.045-0.695-1.29-0.303-4.81-1.605-4.066-1.427 0.816-5.066-0.889-8.126-2.89s-4.488-1.185 0.008-2.722c4.495-1.537 7.513 3.034 8.28 2.854s-1.837-4.369-1.212-5.155c0.5-0.629 1.527 3.054 1.979 4.975 0.375-1.848 1.932-4.684 3.073-5.523 2.070-1.522 2.744-4.165 2.586 0.672-0.126 3.87-3.493 6.261-5.16 6.973-0.12 1.692 0.734 4.041 1.176 5.004 0.843-4.678 4.871-5.679 6.779-5.594-0.198 9.487-5.006 6.937-6.066 8.626s2.664 7.887 1.593 10.218z"></path>
<path fill="#d3d3d3" d="M7.005 3.291c-1.39-0.953-0.086-2.433 0.739-3.054 1.359-0.831 2.017 1.233 2.176 2.369-0.393 0.626-1.525 1.639-2.915 0.685z"></path>
</svg>
