<!-- Generated by IcoMoon.io -->
<svg version="1.1" xmlns="http://www.w3.org/2000/svg" width="15" height="32" viewBox="0 0 15 32">
<path fill="#fff" d="M0.602 19.878c-1.565 0.869 1.202 3.618 3.212 5.085 0.614 0.081 1.614 0.986 0.698 3.959-1.145 3.716 1.176 4.628 1.582-1.745 0.443-2.058 7.808-3.056 6.763-5.004s-2.736 0.703-5.108 2.518c-2.372 1.815-0.612 0.040-0.485-2.947s7.379-3.062 6.105-5.146c-1.274-2.083-2.424 0.856-4.761 2.506s-0.669-1.695-0.403-2.929c0.266-1.235 7.508-2.862 5.963-4.487s-4.173 2.977-5.397 3.058c-1.223 0.081 0.115-3.335 0.816-3.787s6.178-2.287 4.751-4.059c-1.427-1.772-1.248 0.593-3.567 2.16s-1.335-0.201-1.556-1.972c-0.222-1.771 2.849-7.225-0.028-7.070s-0.043 7.399-0.634 9.339c-0.59 1.94-1.226-3.107-2.777-4.302s-1.624 0.339-0.316 3.464c1.308 3.124 2.705 0.238 2.432 3.108s0.356 2.747-1.273 2.31c-1.629-0.437-0.795-4.306-3.371-4.344s0.826 3.365 2.553 4.943c1.727 1.578 1.41 1.854 0.789 4.736s-2.124-4.937-4.077-4.669 0.266 4.364 2.471 4.926c2.205 0.561 1.891 2.819 0.958 5.547s-3.775-6.068-5.341-5.199z"></path>
</svg>
