<!-- Generated by IcoMoon.io -->
<svg version="1.1" xmlns="http://www.w3.org/2000/svg" width="47" height="32" viewBox="0 0 47 32">
<path fill="#e0fc52" d="M8.409 20.387c-0.175-0.036-0.441-0.169-0.111-0.415 0.412-0.308 0.68-0.232 0.708 0.058s-0.368 0.66-0.597 0.358zM13.553 18.025c-0.15-0.033-0.296-0.066-0.417-0.108-0.725-0.251-1.372-0.078-0.937 0.251 0.386 0.292 0.585 0.283 0.763 0.275 0.023-0.001 0.045-0.002 0.067-0.002 0.101-0.002 0.124 0.012 0.166 0.037 0.023 0.014 0.053 0.032 0.106 0.053 0.167 0.071 0.322 0.24-0.4 0.355-0.351 0.055-0.809 0.237-1.278 0.423-0.738 0.292-1.501 0.594-1.907 0.431 0.014-0.317-0.41-0.939-0.74-1.286-0.413-0.434-0.739-0.094-0.486 0.481 0.143 0.325 0.319 0.42 0.485 0.51 0.128 0.069 0.251 0.136 0.347 0.302l0.031 0.486c-0.003 0.21-0.134 0.311-0.28 0.425-0.096 0.074-0.198 0.154-0.276 0.273-0.211 0.323-0.009 0.596 0.385 0.59 0.301-0.005 0.329-0.268 0.358-0.532 0.010-0.093 0.020-0.186 0.042-0.268-0.111-0.168 0.035-0.459 0.257-0.519 0.051-0.014 0.137-0.033 0.247-0.057 0.481-0.108 1.424-0.318 1.945-0.629 0.512-0.305 1.014-0.342 1.2-0.322 0.007-0.001 0.015-0.002 0.022-0.003 0.218-0.027 0.444-0.054 0.077 0.372-0.427 0.495-0.64 1.146-0.37 1.074 0.072-0.019 0.129-0.027 0.178-0.033 0.174-0.023 0.259-0.034 0.584-0.502 0.418-0.602 0.806-1.24 0.703-1.623-0.074-0.276-0.485-0.367-0.871-0.453z"></path>
<path fill="#e0fc52" d="M40.212 14.291c0.152-0.093 0.357-0.31-0.038-0.428-0.493-0.149-0.718 0.015-0.646 0.297s0.571 0.494 0.683 0.132zM34.571 13.833c0.13-0.082 0.256-0.163 0.355-0.244 0.596-0.484 1.262-0.543 0.967-0.085-0.262 0.406-0.453 0.466-0.623 0.519-0.022 0.007-0.043 0.013-0.064 0.021-0.096 0.033-0.112 0.053-0.143 0.092-0.017 0.021-0.039 0.049-0.081 0.086-0.133 0.124-0.22 0.336 0.497 0.196 0.348-0.068 0.842-0.054 1.346-0.040 0.793 0.022 1.613 0.045 1.94-0.248-0.122-0.293 0.064-1.023 0.256-1.462 0.24-0.549 0.662-0.342 0.621 0.286-0.023 0.354-0.156 0.504-0.281 0.645-0.097 0.109-0.189 0.213-0.223 0.402l0.137 0.468c0.075 0.196 0.232 0.247 0.408 0.303 0.115 0.037 0.239 0.077 0.352 0.162 0.309 0.231 0.213 0.557-0.16 0.686-0.284 0.098-0.401-0.139-0.518-0.377-0.041-0.084-0.082-0.168-0.132-0.238 0.047-0.196-0.19-0.419-0.419-0.399-0.053 0.005-0.14 0.016-0.251 0.031-0.489 0.064-1.446 0.189-2.042 0.075-0.586-0.112-1.069 0.026-1.238 0.109-0.007 0.002-0.015 0.003-0.022 0.005-0.214 0.049-0.436 0.101 0.055 0.376 0.57 0.319 0.993 0.858 0.715 0.882-0.074 0.006-0.13 0.019-0.179 0.030-0.171 0.038-0.255 0.057-0.721-0.272-0.598-0.423-1.181-0.889-1.216-1.284-0.025-0.285 0.33-0.511 0.664-0.724z"></path>
<path fill="#e0fc52" d="M27.776 31.667c0.114 0.137 0.356 0.31 0.419-0.097 0.078-0.509-0.115-0.709-0.384-0.598s-0.41 0.635-0.035 0.695zM27.441 26.018c0.1 0.116 0.197 0.23 0.291 0.317 0.563 0.522 0.714 1.174 0.219 0.945-0.439-0.203-0.525-0.383-0.601-0.544-0.010-0.020-0.019-0.040-0.029-0.060-0.046-0.090-0.069-0.103-0.111-0.129-0.024-0.014-0.053-0.032-0.097-0.068-0.141-0.114-0.363-0.171-0.125 0.52 0.116 0.335 0.171 0.826 0.228 1.327 0.089 0.788 0.181 1.604 0.517 1.886 0.273-0.162 1.022-0.080 1.483 0.048 0.577 0.16 0.431 0.607-0.196 0.655-0.354 0.027-0.521-0.084-0.678-0.188-0.122-0.080-0.238-0.157-0.43-0.164l-0.444 0.201c-0.184 0.102-0.212 0.265-0.243 0.447-0.021 0.119-0.043 0.247-0.111 0.371-0.186 0.338-0.522 0.289-0.701-0.062-0.137-0.268 0.081-0.416 0.301-0.566 0.077-0.053 0.155-0.105 0.217-0.164 0.201 0.019 0.389-0.247 0.337-0.471-0.012-0.052-0.035-0.136-0.065-0.244-0.131-0.475-0.389-1.405-0.36-2.012 0.029-0.595-0.175-1.055-0.281-1.21-0.003-0.007-0.005-0.014-0.008-0.021-0.079-0.205-0.161-0.418-0.364 0.107-0.236 0.609-0.71 1.103-0.773 0.832-0.017-0.072-0.037-0.126-0.055-0.173-0.062-0.164-0.092-0.244 0.169-0.751 0.335-0.652 0.715-1.294 1.102-1.384 0.279-0.065 0.552 0.255 0.81 0.555z"></path>
<path fill="#e0fc52" d="M9.075 5.94c-0.098-0.149-0.193-0.431 0.215-0.372 0.51 0.073 0.645 0.317 0.46 0.541s-0.726 0.207-0.675-0.169zM14.382 7.906c-0.082-0.129-0.163-0.255-0.219-0.371-0.335-0.69-0.915-1.025-0.84-0.485 0.066 0.479 0.214 0.614 0.345 0.734 0.017 0.015 0.033 0.030 0.049 0.046 0.073 0.070 0.079 0.096 0.091 0.144 0.007 0.027 0.015 0.060 0.037 0.113 0.068 0.168 0.057 0.397-0.533-0.032-0.287-0.209-0.74-0.404-1.203-0.605-0.728-0.315-1.481-0.641-1.653-1.044 0.234-0.214 0.374-0.954 0.386-1.433 0.015-0.599-0.456-0.589-0.683-0.003-0.129 0.331-0.072 0.522-0.018 0.703 0.042 0.14 0.081 0.273 0.032 0.459l-0.322 0.366c-0.151 0.146-0.315 0.126-0.498 0.103-0.12-0.015-0.249-0.031-0.388-0.002-0.377 0.079-0.428 0.415-0.145 0.689 0.216 0.209 0.422 0.043 0.629-0.123 0.073-0.059 0.146-0.117 0.22-0.16 0.040-0.197 0.35-0.3 0.548-0.185 0.046 0.027 0.12 0.074 0.215 0.134 0.416 0.264 1.231 0.782 1.82 0.93 0.578 0.146 0.958 0.475 1.076 0.621 0.006 0.005 0.012 0.009 0.018 0.014 0.173 0.135 0.353 0.275-0.209 0.317-0.652 0.048-1.263 0.358-1.021 0.497 0.064 0.037 0.11 0.072 0.149 0.103 0.139 0.107 0.207 0.159 0.768 0.058 0.721-0.131 1.447-0.307 1.645-0.651 0.143-0.248-0.083-0.602-0.295-0.936z"></path>
<path fill="#e0fc52" d="M31.911 2.44c0.149-0.098 0.431-0.193 0.373 0.215-0.073 0.509-0.317 0.645-0.542 0.46s-0.207-0.726 0.169-0.675zM29.943 7.747c0.129-0.082 0.256-0.163 0.371-0.219 0.69-0.335 1.025-0.915 0.485-0.84-0.479 0.066-0.614 0.214-0.734 0.345-0.015 0.017-0.030 0.033-0.046 0.049-0.070 0.073-0.096 0.079-0.144 0.091-0.027 0.007-0.060 0.015-0.113 0.037-0.168 0.068-0.397 0.058 0.032-0.533 0.209-0.287 0.405-0.74 0.605-1.203 0.315-0.728 0.641-1.481 1.044-1.653 0.214 0.234 0.954 0.374 1.433 0.386 0.599 0.014 0.589-0.456 0.003-0.683-0.331-0.129-0.522-0.072-0.703-0.018-0.14 0.042-0.273 0.081-0.459 0.032l-0.366-0.322c-0.146-0.151-0.126-0.315-0.103-0.498 0.015-0.12 0.031-0.249 0.002-0.388-0.079-0.377-0.415-0.428-0.689-0.145-0.209 0.216-0.043 0.422 0.123 0.629 0.059 0.073 0.117 0.146 0.16 0.22 0.197 0.040 0.3 0.35 0.185 0.548-0.027 0.046-0.074 0.12-0.134 0.215-0.264 0.416-0.782 1.231-0.931 1.82-0.146 0.578-0.475 0.958-0.621 1.076-0.005 0.006-0.009 0.012-0.014 0.018-0.135 0.173-0.276 0.353-0.317-0.209-0.048-0.651-0.358-1.262-0.497-1.021-0.037 0.064-0.072 0.11-0.103 0.149-0.107 0.139-0.159 0.207-0.058 0.768 0.131 0.721 0.307 1.446 0.651 1.645 0.248 0.143 0.603-0.083 0.936-0.296z"></path>
<path fill="#e0fc52" d="M13.997 25.169c-0.169 0.056-0.466 0.074-0.304-0.304 0.203-0.473 0.473-0.541 0.642-0.304s0.012 0.755-0.338 0.608zM15.761 22.759c-0.105 0.163-0.235 0.366-0.42 0.585-0.078 0.092-0.134 0.171-0.182 0.239-0.112 0.158-0.184 0.259-0.392 0.336-0.326 0.119-0.557-0.122-0.789-0.364-0.155-0.162-0.311-0.325-0.495-0.379-0.575-0.169-0.687 0.288-0.18 0.659 0.286 0.21 0.486 0.204 0.675 0.199 0.146-0.004 0.285-0.008 0.452 0.088l0.203 0.338c0.102 0.184 0.040 0.337-0.030 0.508-0.046 0.112-0.095 0.232-0.102 0.374-0.021 0.385 0.29 0.521 0.628 0.318 0.258-0.155 0.151-0.396 0.044-0.639-0.038-0.086-0.076-0.171-0.098-0.253-0.023-0.087-0.046-0.155-0.065-0.212-0.056-0.166-0.078-0.232 0.028-0.366 0.022-0.028 0.045-0.063 0.072-0.106 0.072-0.113 0.178-0.28 0.401-0.502 0.45-0.45 0.793-0.501 0.995-0.532 0.158-0.024 0.231-0.035 0.201-0.212-0.064-0.382-0.258-0.415-0.487-0.455-0.014-0.002-0.029-0.005-0.043-0.008-0.15-0.027-0.252 0.132-0.415 0.385z"></path>
<path fill="#e0fc52" d="M36.597 20.698c0.178-0.005 0.464-0.090 0.182-0.39-0.352-0.375-0.63-0.346-0.708-0.066s0.248 0.714 0.526 0.456zM34.116 19.037c0.154 0.118 0.346 0.264 0.595 0.406 0.104 0.060 0.184 0.114 0.253 0.162 0.159 0.11 0.262 0.181 0.484 0.181 0.347 0.001 0.482-0.305 0.616-0.612 0.091-0.206 0.181-0.412 0.336-0.526 0.482-0.355 0.744 0.035 0.395 0.558-0.197 0.295-0.387 0.358-0.566 0.418-0.138 0.046-0.27 0.090-0.394 0.237l-0.075 0.387c-0.033 0.208 0.078 0.33 0.202 0.467 0.081 0.090 0.168 0.186 0.224 0.316 0.151 0.354-0.094 0.589-0.481 0.514-0.295-0.057-0.278-0.321-0.26-0.586 0.006-0.093 0.012-0.187 0.005-0.272-0.008-0.089-0.010-0.162-0.011-0.221-0.004-0.175-0.006-0.244-0.152-0.334-0.030-0.019-0.063-0.044-0.104-0.075-0.107-0.082-0.263-0.202-0.549-0.335-0.577-0.269-0.916-0.2-1.117-0.159-0.157 0.032-0.228 0.046-0.261-0.131-0.071-0.381 0.101-0.479 0.302-0.594 0.013-0.007 0.025-0.014 0.038-0.022 0.132-0.077 0.282 0.037 0.522 0.22z"></path>
<path fill="#e0fc52" d="M17.157 3.195c0.036-0.175 0.169-0.441 0.416-0.111 0.308 0.412 0.232 0.68-0.058 0.708s-0.66-0.367-0.358-0.597zM18.362 5.927c-0.089-0.173-0.2-0.387-0.296-0.656-0.041-0.113-0.081-0.201-0.116-0.277-0.081-0.176-0.133-0.289-0.095-0.508 0.060-0.342 0.384-0.421 0.71-0.501 0.218-0.053 0.437-0.107 0.576-0.24 0.434-0.413 0.095-0.739-0.481-0.485-0.325 0.143-0.42 0.319-0.51 0.485-0.069 0.128-0.136 0.251-0.302 0.347l-0.394 0.007c-0.21-0.003-0.311-0.134-0.425-0.28-0.074-0.096-0.154-0.198-0.273-0.276-0.323-0.211-0.596-0.009-0.59 0.385 0.005 0.3 0.268 0.329 0.532 0.358 0.093 0.010 0.186 0.020 0.268 0.042 0.087 0.023 0.157 0.038 0.216 0.049 0.172 0.035 0.24 0.048 0.303 0.207 0.013 0.033 0.032 0.070 0.056 0.115 0.062 0.119 0.153 0.294 0.234 0.598 0.165 0.614 0.038 0.937-0.037 1.127-0.059 0.149-0.085 0.217 0.084 0.28 0.363 0.136 0.489-0.016 0.638-0.194 0.009-0.011 0.019-0.022 0.028-0.034 0.099-0.117 0.012-0.284-0.126-0.552z"></path>
<path fill="#e0fc52" d="M32.93 26.488c0.062 0.167 0.090 0.464-0.294 0.314-0.48-0.186-0.557-0.454-0.326-0.631s0.754-0.038 0.619 0.317zM30.461 24.808c0.167 0.099 0.374 0.222 0.599 0.4 0.094 0.074 0.175 0.128 0.245 0.174 0.162 0.107 0.266 0.175 0.349 0.381 0.13 0.321-0.103 0.561-0.337 0.801-0.157 0.161-0.314 0.322-0.362 0.508-0.149 0.58 0.311 0.677 0.665 0.157 0.2-0.293 0.188-0.493 0.176-0.681-0.009-0.145-0.017-0.284 0.072-0.454l0.331-0.214c0.18-0.108 0.335-0.051 0.509 0.012 0.114 0.042 0.235 0.086 0.377 0.089 0.385 0.008 0.511-0.308 0.296-0.639-0.163-0.252-0.401-0.137-0.64-0.022-0.084 0.041-0.169 0.081-0.25 0.106-0.086 0.026-0.153 0.052-0.209 0.073-0.164 0.062-0.229 0.086-0.367-0.016-0.029-0.021-0.065-0.042-0.108-0.068-0.116-0.068-0.285-0.169-0.516-0.384-0.465-0.434-0.528-0.775-0.565-0.976-0.029-0.157-0.042-0.229-0.219-0.193-0.379 0.077-0.406 0.273-0.438 0.503-0.002 0.014-0.004 0.029-0.006 0.043-0.022 0.151 0.14 0.247 0.399 0.401z"></path>
<path fill="#e0fc52" d="M24.969 2.49c0.080-0.159 0.277-0.382 0.43-0 0.191 0.478 0.048 0.717-0.239 0.669s-0.542-0.526-0.191-0.669zM25.426 5.441c-0.041-0.19-0.093-0.425-0.116-0.71-0.010-0.12-0.026-0.215-0.040-0.298-0.032-0.191-0.053-0.314 0.040-0.515 0.146-0.315 0.48-0.308 0.816-0.3 0.225 0.005 0.45 0.010 0.618-0.082 0.526-0.287 0.283-0.689-0.339-0.593-0.351 0.054-0.488 0.199-0.618 0.336-0.1 0.106-0.196 0.207-0.381 0.257l-0.382-0.095c-0.202-0.058-0.266-0.21-0.338-0.38-0.047-0.112-0.097-0.231-0.192-0.337-0.257-0.287-0.574-0.163-0.669 0.219-0.073 0.292 0.173 0.387 0.421 0.483 0.087 0.034 0.175 0.068 0.248 0.11 0.078 0.045 0.142 0.077 0.196 0.104 0.157 0.078 0.219 0.109 0.238 0.279 0.004 0.035 0.013 0.076 0.024 0.126 0.029 0.131 0.072 0.324 0.071 0.639-0 0.636-0.206 0.915-0.328 1.079-0.095 0.129-0.139 0.188 0.008 0.292 0.315 0.225 0.477 0.111 0.666-0.023 0.012-0.008 0.024-0.017 0.036-0.025 0.125-0.087 0.085-0.271 0.021-0.566z"></path>
<path fill="#e0fc52" d="M21.735 30.148c-0.095 0.151-0.314 0.353-0.428-0.043-0.142-0.495 0.025-0.718 0.305-0.642s0.487 0.577 0.123 0.685zM21.576 27.167c0.022 0.193 0.050 0.432 0.044 0.718-0.002 0.12 0.004 0.217 0.010 0.3 0.013 0.193 0.021 0.318-0.092 0.508-0.177 0.299-0.509 0.258-0.842 0.217-0.223-0.027-0.446-0.055-0.624 0.020-0.552 0.233-0.35 0.657 0.277 0.624 0.354-0.019 0.506-0.149 0.649-0.273 0.11-0.095 0.216-0.186 0.405-0.218l0.371 0.133c0.195 0.078 0.244 0.236 0.298 0.412 0.036 0.116 0.074 0.24 0.157 0.354 0.227 0.311 0.554 0.22 0.688-0.151 0.102-0.283-0.134-0.403-0.37-0.523-0.083-0.042-0.167-0.085-0.236-0.135-0.073-0.053-0.134-0.091-0.184-0.123-0.148-0.093-0.207-0.13-0.209-0.301-0-0.036-0.005-0.077-0.011-0.128-0.016-0.134-0.039-0.329-0.007-0.643 0.064-0.633 0.297-0.889 0.435-1.041 0.108-0.118 0.157-0.173 0.021-0.292-0.291-0.255-0.463-0.158-0.665-0.044-0.013 0.007-0.025 0.014-0.038 0.021-0.133 0.074-0.112 0.261-0.078 0.561z"></path>
<path fill="#e0fc52" d="M18.667 26.081c-0.254 0.324 0.038 0.383 0.215 0.372 0.3 0.232 0.586-0.228 0.484-0.501s-0.381-0.277-0.699 0.128z"></path>
<path fill="#e0fc52" d="M33.062 21.987c0.35 0.217 0.096 0.373-0.075 0.424-0.203 0.321-0.629-0.014-0.626-0.305s0.263-0.39 0.701-0.119z"></path>
<path fill="#e0fc52" d="M21.735 5.604c-0.254 0.324 0.038 0.383 0.215 0.372 0.3 0.232 0.586-0.228 0.484-0.501s-0.381-0.277-0.699 0.128z"></path>
<path fill="#e0fc52" d="M11.035 11.939c0.459-0.038 1.434 1.099 1.864 1.672-0 0.478-0.621 0.765-1.099 1.386s-1.099 0.956-1.338 0.813c-0.239-0.143 0.43-1.147 1.1-1.434 0.535-0.229 0.223-0.351 0-0.382-0.175-0.068-0.669-0.162-1.243 0-0.717 0.203-3.346 0.096-3.633 0.096-0.229 0-0.159 0.382-0.096 0.573 0.127 0.239 0.306 0.784-0 1.051-0.382 0.335-0.574 0.048-0.621-0.334-0.038-0.306 0.144-1.051 0.239-1.386l-1.099 0-0.144 1.004c-0.064 0.239-0.258 0.688-0.526 0.574-0.335-0.143-0.096-0.573 0.239-1.195 0.268-0.497 0.048-0.462-0.096-0.382l-1.147 0c-0.287 0-0.143 0.765-0.287 1.147s-0.382 0.335-0.574 0c-0.153-0.268 0.319-1.195 0.574-1.529-0.080-0.143-0.306-0.526-0.573-0.908-0.335-0.478-0.191-0.765 0.191-0.908s0.526 0.382 0.526 1.242c-0 0.86 0.669 0.478 1.051 0.573s0.621-0.239 0.239-0.908c-0.382-0.669-0.526-1.29 0-0.908 0.421 0.306 0.526 1.274 0.526 1.72 0.558 0.095 1.577 0.229 1.195-0-0.478-0.287-0.335-0.956-0.43-1.577s0.526-0.287 0.813 0.239c0.229 0.421 0.095 1.131-0 1.434 0.574 0.43 3.728-0.096 4.636-0.001 0.726 0.076 0.621-0.127 0.478-0.239-0.127-0.096-0.421-0.296-0.574-0.334-0.191-0.048-0.335-0.239-0.669-0.669s-0.096-0.382 0.478-0.43z"></path>
<path fill="#e0fc52" d="M1.905 13.469c-0.382 0.153-0.159 0.351-0 0.43 0.143 0.351 0.621 0.095 0.669-0.191s-0.191-0.43-0.669-0.239z"></path>
<path fill="#e0fc52" d="M31.789 8.652c-0.417 0.196-0.692 1.669-0.778 2.381 0.239 0.414 0.92 0.351 1.645 0.65s1.43 0.278 1.565 0.034c0.135-0.244-0.946-0.778-1.669-0.692-0.578 0.069-0.368-0.192-0.191-0.331 0.118-0.146 0.498-0.475 1.076-0.621 0.722-0.183 2.946-1.59 3.194-1.734 0.199-0.115 0.329 0.251 0.369 0.449 0.009 0.271 0.127 0.832 0.526 0.911 0.498 0.098 0.521-0.245 0.371-0.6-0.12-0.284-0.65-0.839-0.9-1.081l0.952-0.55 0.626 0.797c0.175 0.175 0.568 0.467 0.742 0.234 0.218-0.291-0.204-0.544-0.804-0.915-0.48-0.297-0.273-0.376-0.108-0.379l0.993-0.574c0.248-0.143 0.507 0.591 0.822 0.85s0.498 0.099 0.497-0.287c-0.001-0.308-0.873-0.875-1.261-1.038-0.003-0.164 0.002-0.608 0.043-1.073 0.051-0.581-0.217-0.758-0.62-0.691s-0.264 0.594 0.166 1.339c0.43 0.745-0.341 0.748-0.624 1.022s-0.658 0.104-0.661-0.667c-0.003-0.771-0.19-1.38-0.454-0.786-0.211 0.475 0.182 1.367 0.405 1.753-0.435 0.362-1.252 0.987-1.035 0.598 0.271-0.487-0.188-0.995-0.416-1.581s-0.599 0.015-0.584 0.613c0.011 0.479 0.483 1.027 0.717 1.242-0.282 0.659-3.277 1.781-4.016 2.318-0.591 0.429-0.602 0.2-0.533 0.032 0.063-0.147 0.216-0.467 0.33-0.577 0.142-0.137 0.17-0.374 0.245-0.914s-0.108-0.379-0.629-0.133z"></path>
<path fill="#e0fc52" d="M40.461 5.411c0.407-0.059 0.313 0.224 0.215 0.372 0.051 0.376-0.49 0.394-0.675 0.169s-0.049-0.468 0.46-0.542z"></path>
</svg>
