<svg width="139" height="207" viewBox="0 0 139 207" fill="none" xmlns="http://www.w3.org/2000/svg">
<path d="M34.375 14.6C34.375 5.98436 41.3978 -1.11971 49.9167 0.167822C59.8415 1.66783 69.5243 4.60093 78.6561 8.89799C92.508 15.4162 104.75 24.9122 114.508 36.7079C124.267 48.5037 131.3 62.3083 135.108 77.1363C138.915 91.9643 139.401 107.45 136.533 122.488C133.664 137.525 127.511 151.744 118.513 164.13C109.514 176.515 97.8927 186.761 84.4773 194.136C71.062 201.511 56.1839 205.834 40.9052 206.795C30.8329 207.428 20.7502 206.591 10.9702 204.332C2.57558 202.393 -1.33888 193.203 1.83275 185.192V185.192C5.00438 177.182 14.0805 173.443 22.5823 174.839C27.9726 175.723 33.4615 176.001 38.9461 175.656C49.6412 174.983 60.0559 171.958 69.4466 166.795C78.8374 161.633 86.9726 154.46 93.2714 145.791C99.5703 137.121 103.877 127.168 105.886 116.641C107.894 106.115 107.553 95.275 104.888 84.8954C102.223 74.5158 97.2992 64.8526 90.4684 56.5955C83.6376 48.3385 75.0681 41.6914 65.3717 37.1286C60.3993 34.7888 55.1934 33.0267 49.856 31.8651C41.4374 30.0329 34.375 23.2156 34.375 14.6V14.6Z" fill="#E0FC52"/>
</svg>
