<svg width="209" height="207" viewBox="0 0 209 207" fill="none" xmlns="http://www.w3.org/2000/svg">
<path d="M104.125 14.6C104.125 5.98436 111.148 -1.1199 119.667 0.16765C139.049 3.09697 157.322 11.4654 172.287 24.4507C191.202 40.8644 203.559 63.5524 207.087 88.3463C210.616 113.14 205.079 138.375 191.495 159.414C177.91 180.453 157.189 195.884 133.14 202.871C109.091 209.858 83.3276 207.932 60.5842 197.447C37.8409 186.962 19.6448 168.622 9.33898 145.797C-0.966854 122.972 -2.69023 97.195 4.48548 73.2012C10.1624 54.2191 21.1074 37.3619 35.9021 24.5035C42.405 18.8518 52.1416 21.0869 56.7581 28.3613V28.3613C61.3746 35.6357 59.064 45.176 52.9377 51.234C44.3158 59.7597 37.8987 70.3663 34.3773 82.1409C29.3543 98.9365 30.5607 116.981 37.7748 132.958C44.9889 148.936 57.7261 161.773 73.6465 169.113C89.5668 176.452 107.601 177.8 124.435 172.909C141.27 168.019 155.774 157.217 165.284 142.49C174.793 127.762 178.669 110.098 176.199 92.7424C173.729 75.3867 165.079 59.5051 151.838 48.0155C142.556 39.9607 131.454 34.4437 119.606 31.865C111.188 30.0327 104.125 23.2156 104.125 14.6V14.6Z" fill="#E0FC52"/>
</svg>
