<svg width="87" height="190" viewBox="0 0 87 190" fill="none" xmlns="http://www.w3.org/2000/svg">
<path d="M3.57166 118.025C-5.72301 123.183 10.7071 139.509 22.641 148.218C26.2881 148.699 32.2225 154.075 26.7834 171.725C19.9845 193.788 33.766 199.204 36.176 161.363C38.8084 149.144 82.5367 143.219 76.3332 131.653C70.1297 120.088 60.0902 135.826 46.0051 146.602C31.92 157.377 42.373 146.842 43.1256 129.103C43.8782 111.364 86.9369 110.921 79.3724 98.551C71.8079 86.1805 64.9792 103.634 51.1047 113.432C37.2302 123.23 47.1347 103.37 48.7142 96.0383C50.2936 88.7065 93.2924 79.045 84.1185 69.3966C74.9446 59.7483 59.3399 87.0748 52.0757 87.556C44.8115 88.0371 52.7607 67.7562 56.9193 65.0716C61.0779 62.3871 93.6017 51.4922 85.1271 40.9717C76.6526 30.4511 77.72 44.4906 63.9508 53.7997C50.1816 63.1088 56.0249 52.6039 54.7094 42.0912C53.3939 31.5784 71.6229 -0.809074 54.5455 0.115302C37.4681 1.03968 54.2882 44.0463 50.7834 55.5666C47.2786 67.0868 43.5049 37.12 34.2933 30.0209C25.0817 22.9219 24.6529 32.0359 32.4201 50.5877C40.1873 69.1394 48.4826 52.002 46.8576 69.0419C45.2325 86.0818 48.9701 85.3524 39.2997 82.7577C29.6292 80.163 34.5782 57.1901 19.2828 56.9639C3.98744 56.7378 24.185 76.9443 34.4418 86.3145C44.6987 95.6846 42.811 97.324 39.1257 114.432C35.4403 131.539 26.5159 85.1187 14.9202 86.7125C3.32451 88.3063 16.4984 112.626 29.5905 115.958C42.6826 119.29 40.817 132.698 35.2816 148.895C29.7463 165.093 12.8663 112.867 3.57166 118.025Z" fill="white"/>
</svg>
