<svg width="102" height="159" viewBox="0 0 102 159" fill="none" xmlns="http://www.w3.org/2000/svg">
<path d="M79.1688 157.138C74.9128 166.407 67.3793 129.802 63.6312 108.157C38.7582 117.185 31.6391 99.7781 25.9481 91.576C20.7005 84.0131 9.64023 90.6399 28.9812 80.5272C43.4292 72.9729 56.8141 83.3689 62.7513 90.6897C59.2982 84.2824 61.2478 66.7888 54.775 70.4881C47.6844 74.5406 29.6043 66.0705 14.3971 56.1302C-0.810149 46.1899 -7.90133 50.2421 14.4349 42.6054C36.7711 34.9687 51.7639 57.6805 55.5752 56.7845C59.3865 55.8884 46.4501 35.0785 49.553 31.1692C52.0352 28.0418 57.1426 46.3457 59.386 55.8885C61.2484 46.7053 68.9855 32.6148 74.6531 28.4479C84.9407 20.8844 88.2882 7.75152 87.5039 31.7869C86.8765 51.0152 70.1503 62.8979 61.8657 66.4357C61.2686 74.8444 65.5136 86.5139 67.7108 91.2976C71.8984 68.0522 91.9121 63.0819 101.395 63.5024C100.412 110.641 76.5195 97.972 71.2533 106.365C65.9871 114.759 84.4887 145.552 79.1688 157.138Z" fill="#D3D3D3"/>
<path d="M34.8071 16.3503C27.9015 11.6135 34.3781 4.26063 38.4796 1.17626C45.2308 -2.95508 48.4995 7.3009 49.2899 12.9453C47.3396 16.0539 41.7127 21.087 34.8071 16.3503Z" fill="#D3D3D3"/>
</svg>
