<svg width="105" height="158" viewBox="0 0 105 158" fill="none" xmlns="http://www.w3.org/2000/svg">
<path d="M0.625001 14.6C0.625001 5.98436 7.64797 -1.11975 16.1669 0.167806C29.8643 2.23805 43.064 7.03259 54.9649 14.3254C71.3184 24.3469 84.5822 38.6955 93.2897 55.785C101.997 72.8744 105.809 92.0389 104.304 111.16C103.209 125.074 99.3295 138.571 92.9533 150.87C88.9876 158.518 79.1123 160.024 72.1421 154.96V154.96C65.1719 149.896 63.8079 140.175 67.2739 132.288C70.5422 124.85 72.5574 116.884 73.2006 108.712C74.254 95.3273 71.5855 81.9121 65.4903 69.9495C59.395 57.9869 50.1104 47.9428 38.6629 40.9278C31.6736 36.6447 24.0442 33.5927 16.1061 31.8651C7.68753 30.0329 0.625001 23.2156 0.625001 14.6V14.6Z" fill="#E0FC52"/>
</svg>
