<!-- Generated by IcoMoon.io -->
<svg version="1.1" xmlns="http://www.w3.org/2000/svg" width="26" height="32" viewBox="0 0 26 32">
<path stroke-linejoin="round" stroke-linecap="round" stroke-miterlimit="4" stroke-width="0.3497" stroke="#000" fill="#000" d="M0.419 14.673c-0.086-0.021-0.155-0.087-0.18-0.173-0.019-0.066-0.010-0.138 0.025-0.198l0.178-0.3c0.122-0.206 0.14-0.458 0.048-0.679l-0.026-0.063c-0.074-0.178-0.061-0.38 0.035-0.548l0.027-0.047c0.031-0.054 0.049-0.114 0.052-0.176l0.004-0.070c0.006-0.106 0.070-0.199 0.167-0.242l0.161-0.071c0.047-0.021 0.070-0.075 0.051-0.123-0.010-0.027-0.032-0.047-0.059-0.057l-0.17-0.058c-0.109-0.037-0.196-0.121-0.238-0.228-0.037-0.094-0.036-0.199 0.003-0.293l0.179-0.429c0.042-0.101 0.030-0.217-0.031-0.308-0.086-0.127-0.072-0.297 0.034-0.408l0.385-0.402c0.047-0.049 0.080-0.109 0.097-0.174l0.021-0.082c0.008-0.033 0.028-0.062 0.055-0.082 0.049-0.038 0.118-0.041 0.171-0.008s0.12 0.030 0.17-0.006l0.067-0.048c0.054-0.039 0.092-0.096 0.107-0.161l0.199-0.843c0.018-0.074 0.067-0.137 0.135-0.173l0.071-0.037c0.038-0.020 0.084-0.018 0.121 0.005 0.050 0.031 0.115 0.023 0.154-0.020l0.265-0.286c0.052-0.056 0.136-0.065 0.199-0.021l0.035 0.024c0.025 0.017 0.057 0.019 0.083 0.006 0.033-0.017 0.073-0.009 0.097 0.018l0.071 0.079c0.056 0.062 0.142 0.087 0.223 0.064l0.192-0.054c0.1-0.028 0.206-0.027 0.306 0.003l0.447 0.136c0.089 0.027 0.184-0.012 0.228-0.094 0.015-0.028 0.036-0.051 0.062-0.069l0.437-0.295c0.148-0.1 0.336-0.122 0.503-0.058l0.144 0.055c0.031 0.012 0.057 0.035 0.073 0.064 0.045 0.084 0.16 0.099 0.224 0.028l0.225-0.247c0.083-0.091 0.207-0.136 0.329-0.119l0.639 0.091c0.073 0.010 0.138 0.051 0.178 0.113l0.029 0.044c0.022 0.033 0.057 0.055 0.096 0.061 0.068 0.010 0.134-0.031 0.154-0.097l0.005-0.017c0.026-0.085 0.117-0.132 0.202-0.105l0.034 0.011c0.062 0.020 0.131-0.004 0.167-0.058 0.035-0.052 0.099-0.076 0.159-0.060l0.069 0.018c0.073 0.019 0.151 0.004 0.211-0.042l0.328-0.245c0.101-0.075 0.213-0.133 0.333-0.17l0.711-0.221c0.026-0.008 0.053-0.014 0.080-0.019l0.026-0.004c0.14-0.021 0.282 0.018 0.39 0.108l0.145 0.12c0.051 0.042 0.122 0.053 0.183 0.028 0.069-0.028 0.114-0.096 0.113-0.171l-0.002-0.106c-0.001-0.061 0.014-0.12 0.044-0.173l0.077-0.135c0.022-0.039 0.021-0.088-0.005-0.126-0.025-0.037-0.027-0.084-0.006-0.123 0.045-0.085-0.020-0.187-0.116-0.181l-0.501 0.033c-0.038 0.002-0.075-0-0.112-0.008l-0.317-0.069c-0.046-0.010-0.087-0.039-0.112-0.079-0.045-0.072-0.031-0.167 0.033-0.223l0.008-0.007c0.026-0.024 0.046-0.054 0.056-0.088l0.052-0.178c0.042-0.143-0.030-0.296-0.167-0.355-0.053-0.023-0.111-0.029-0.167-0.020l-0.024 0.004c-0.159 0.028-0.309-0.086-0.325-0.247l-0.001-0.006c-0.001-0.010-0.001-0.020-0.001-0.030 0.007-0.122 0.122-0.208 0.241-0.179l0.139 0.033c0.069 0.016 0.141-0.002 0.193-0.049l0.049-0.045c0.050-0.045 0.125-0.047 0.177-0.005 0.063 0.051 0.156 0.036 0.2-0.032l0.116-0.181c0.047-0.074 0.062-0.164 0.039-0.249l-0.002-0.008c-0.029-0.111 0.008-0.23 0.095-0.304 0.168-0.143 0.127-0.413-0.075-0.503-0.077-0.034-0.137-0.1-0.164-0.18l-0.131-0.39c-0.027-0.080-0.014-0.169 0.034-0.238 0.041-0.059 0.104-0.098 0.174-0.11l0.014-0.002c0.128-0.022 0.228-0.123 0.248-0.251l0.019-0.122c0.014-0.088 0.003-0.178-0.032-0.26l-0.062-0.145c-0.029-0.068-0.021-0.147 0.022-0.208 0.037-0.053 0.096-0.087 0.16-0.091l0.014-0.001c0.149-0.011 0.254-0.153 0.22-0.299l-0.011-0.048c-0.028-0.121 0.026-0.246 0.132-0.31l0.159-0.096c0.016-0.010 0.027-0.027 0.029-0.046l0.002-0.019c0.003-0.028 0.031-0.047 0.058-0.038l0.027 0.009c0.026 0.008 0.049-0.017 0.039-0.042-0.010-0.023 0.011-0.048 0.035-0.043l0.216 0.044c0.026 0.005 0.050 0.018 0.070 0.036l0.132 0.12c0.043 0.039 0.037 0.108-0.013 0.139-0.041 0.026-0.054 0.080-0.028 0.121l0.038 0.061c0.026 0.042 0.071 0.069 0.12 0.074l0.093 0.009c0.073 0.007 0.146-0.010 0.21-0.046 0.152-0.089 0.348-0.055 0.46 0.081l0.036 0.044c0.034 0.042 0.076 0.077 0.124 0.103l0.315 0.174c0.071 0.039 0.157 0.036 0.225-0.007 0.061-0.039 0.138-0.045 0.204-0.017l0.35 0.148c0.045 0.019 0.095 0.025 0.144 0.018 0.117-0.017 0.232 0.044 0.282 0.152l0.337 0.722c0.044 0.093 0.076 0.191 0.097 0.292l0.13 0.621c0.014 0.067 0.058 0.123 0.12 0.152 0.059 0.028 0.127 0.028 0.187 0.001l0.050-0.023c0.062-0.029 0.135-0.023 0.192 0.015 0.037 0.025 0.064 0.062 0.077 0.104l0.076 0.251c0.016 0.052 0.049 0.097 0.095 0.127 0.11 0.072 0.138 0.221 0.062 0.329l-0.149 0.211c-0.063 0.089-0.094 0.197-0.087 0.306l0.015 0.259c0.004 0.071 0.034 0.138 0.085 0.189 0.045 0.045 0.074 0.104 0.083 0.168l0.002 0.015c0.015 0.112 0.086 0.21 0.188 0.258l0.129 0.061c0.36 0.171 0.455 0.64 0.19 0.937l-0.232 0.26c-0.064 0.071-0.098 0.165-0.096 0.26 0.002 0.091 0.037 0.177 0.098 0.244l0.164 0.181c0.172 0.189 0.409 0.308 0.664 0.333l0.236 0.023c0.040 0.004 0.078 0.015 0.113 0.033 0.125 0.064 0.194 0.202 0.169 0.341l-0.048 0.264c-0.011 0.061 0.027 0.121 0.088 0.136l0.026 0.007c0.032 0.008 0.056 0.035 0.059 0.068 0.006 0.054-0.043 0.098-0.096 0.086l-0.479-0.109c-0.17-0.039-0.341 0.062-0.389 0.23-0.034 0.117-0.001 0.243 0.086 0.327l0.559 0.546c0.031 0.030 0.047 0.071 0.046 0.114-0.004 0.116 0.117 0.193 0.221 0.142l0.234-0.117c0.094-0.047 0.206-0.043 0.296 0.011l0.643 0.384c0.044 0.026 0.1 0.020 0.137-0.014 0.078-0.073 0.205-0.008 0.192 0.098l-0.018 0.145c-0.007 0.059 0.017 0.117 0.064 0.154l0.114 0.088c0.133 0.102 0.145 0.299 0.026 0.417-0.070 0.070-0.098 0.172-0.073 0.268l0.186 0.703c0.019 0.072 0.073 0.129 0.144 0.152l0.032 0.010c0.044 0.015 0.093 0.008 0.132-0.018 0.045-0.030 0.070-0.083 0.066-0.137l-0.012-0.155c-0.010-0.127 0.041-0.251 0.137-0.334l0.155-0.134c0.027-0.024 0.038-0.062 0.027-0.096-0.023-0.071 0.045-0.138 0.115-0.114l0.023 0.008c0.027 0.009 0.058 0.007 0.083-0.007l0.017-0.010c0.103-0.057 0.228 0.023 0.219 0.14l-0.039 0.517c-0.003 0.041-0.012 0.081-0.028 0.119l-0.161 0.394c-0.028 0.069 0.023 0.144 0.097 0.144 0.035 0 0.068-0.018 0.087-0.047l0.071-0.106c0.079-0.119 0.223-0.176 0.362-0.144l0.042 0.010c0.087 0.020 0.161 0.076 0.205 0.154l0.026 0.047c0.047 0.085 0.141 0.132 0.237 0.119l0.064-0.008c0.035-0.005 0.071 0.008 0.095 0.034 0.033 0.035 0.040 0.089 0.016 0.131l-0.035 0.061c-0.036 0.064-0.104 0.103-0.177 0.104l-0.395 0.004c-0.075 0.001-0.149 0.023-0.212 0.064l-0.024 0.015c-0.076 0.049-0.129 0.128-0.147 0.217-0.016 0.085 0.001 0.174 0.048 0.246l0.054 0.082c0.044 0.068 0.117 0.112 0.198 0.119 0.117 0.011 0.227-0.056 0.271-0.165l0.048-0.121c0.022-0.055 0.055-0.104 0.096-0.146l0.12-0.121c0.040-0.041 0.098-0.060 0.155-0.052 0.046 0.007 0.088 0.031 0.117 0.068l0.096 0.122c0.022 0.028 0.058 0.041 0.093 0.032 0.044-0.011 0.073-0.053 0.068-0.099l-0.071-0.572c-0.016-0.126 0.080-0.238 0.207-0.243 0.028-0.001 0.057 0.004 0.083 0.014l0.607 0.226c0.050 0.019 0.107 0.004 0.141-0.038 0.030-0.036 0.037-0.086 0.019-0.13l-0.076-0.177c-0.015-0.035-0.005-0.075 0.025-0.099 0.024-0.019 0.056-0.024 0.084-0.012l0.119 0.049c0.033 0.013 0.063 0.034 0.088 0.060l0.012 0.013c0.082 0.087 0.085 0.222 0.006 0.312l-0.024 0.027c-0.045 0.051-0.056 0.123-0.029 0.185 0.013 0.028 0.032 0.053 0.057 0.071l0.399 0.289c0.109 0.079 0.236 0.129 0.37 0.145 0.173 0.021 0.333 0.098 0.458 0.219l0.404 0.394c0.035 0.035 0.075 0.065 0.117 0.090l0.325 0.194c0.060 0.036 0.087 0.108 0.067 0.174-0.010 0.031-0.029 0.059-0.055 0.078l-0.204 0.149c-0.044 0.032-0.063 0.088-0.049 0.141 0.011 0.040 0.041 0.073 0.080 0.087l0.302 0.114c0.060 0.023 0.098 0.082 0.093 0.146-0.003 0.039-0.022 0.074-0.052 0.099l-0.246 0.203c-0.040 0.033-0.045 0.091-0.013 0.131 0.026 0.033 0.027 0.080 0.002 0.114l-0.44 0.6c-0.034 0.047-0.034 0.111 0.002 0.157 0.018 0.024 0.028 0.053 0.027 0.083l-0.011 0.357c-0.004 0.122 0.025 0.242 0.083 0.349 0.056 0.103 0.084 0.218 0.083 0.334l-0.014 1.663c-0.001 0.172 0.023 0.344 0.074 0.508l0.149 0.486c0.021 0.069 0.017 0.143-0.012 0.21-0.048 0.111-0.158 0.183-0.279 0.183h-0.39c-0.139 0-0.273-0.051-0.377-0.142-0.081-0.072-0.181-0.119-0.289-0.136l-0.244-0.038c-0.154-0.024-0.311-0.008-0.456 0.046-0.105 0.039-0.217 0.058-0.329 0.056l-0.050-0.001c-0.156-0.002-0.311 0.026-0.455 0.085l-0.169 0.068c-0.252 0.101-0.482 0.251-0.676 0.441l-0.38 0.371c-0.132 0.129-0.252 0.268-0.361 0.417l-0.609 0.835c-0.108 0.148-0.268 0.248-0.448 0.281l-0.093 0.017c-0.061 0.011-0.118 0.038-0.166 0.078l-0.286 0.24c-0.041 0.034-0.037 0.099 0.008 0.128 0.027 0.017 0.041 0.049 0.035 0.080l-0.008 0.044c-0.009 0.053 0.011 0.107 0.054 0.141l0.122 0.096c0.057 0.045 0.086 0.116 0.077 0.187l-0.005 0.039c-0.005 0.044-0.033 0.083-0.073 0.103-0.033 0.016-0.072 0.018-0.106 0.005l-0.203-0.078c-0.039-0.015-0.082-0.014-0.12 0.003-0.073 0.032-0.112 0.112-0.090 0.189l0.002 0.009c0.026 0.093-0.032 0.189-0.126 0.211-0.076 0.018-0.131 0.085-0.133 0.163l-0.003 0.133c-0.002 0.105-0.076 0.196-0.178 0.22l-0.051 0.012c-0.061 0.015-0.107 0.064-0.117 0.126-0.015 0.097-0.116 0.155-0.207 0.12l-0.126-0.048c-0.062-0.023-0.13-0.023-0.191 0.002l-0.044 0.018c-0.035 0.014-0.065 0.040-0.082 0.074-0.023 0.044-0.024 0.095-0.004 0.14l0.038 0.084c0.058 0.13 0.032 0.282-0.067 0.385l-0.684 0.714c-0.077 0.080-0.106 0.195-0.076 0.302l0.001 0.003c0.023 0.083 0.010 0.172-0.036 0.245-0.048 0.077-0.060 0.171-0.032 0.257l0.117 0.363c0.008 0.025 0.007 0.053-0.004 0.077l-0.021 0.048c-0.012 0.027-0 0.059 0.026 0.072 0.033 0.016 0.041 0.058 0.018 0.085l-0.012 0.013c-0.023 0.026-0.022 0.066 0.002 0.091l0.359 0.377c0.033 0.034 0.054 0.078 0.061 0.125l0.014 0.095c0.008 0.052-0.021 0.102-0.070 0.12-0.052 0.020-0.081 0.075-0.068 0.129l0.007 0.029c0.007 0.030 0.023 0.057 0.046 0.077l0.36 0.315c0.024 0.021 0.034 0.053 0.026 0.084-0.011 0.042 0.012 0.085 0.053 0.1l0.013 0.005c0.052 0.018 0.079 0.076 0.061 0.128l-0.111 0.31c-0.014 0.040-0.034 0.077-0.060 0.112l-0.239 0.321c-0.101 0.136-0.176 0.291-0.22 0.455l-0.184 0.692c-0.030 0.113-0.126 0.195-0.241 0.209-0.15 0.017-0.287-0.085-0.313-0.234l-0.017-0.098c-0.014-0.083-0.055-0.159-0.117-0.217l-0.311-0.292c-0.054-0.051-0.084-0.123-0.082-0.197 0.002-0.063-0.019-0.125-0.060-0.174l-0.062-0.075c-0.032-0.039-0.042-0.091-0.027-0.139 0.028-0.085-0.027-0.175-0.116-0.189l-0.249-0.040c-0.068-0.011-0.125-0.059-0.146-0.125l-0.008-0.024c-0.013-0.042-0.047-0.075-0.089-0.088-0.046-0.014-0.096-0.003-0.131 0.029l-0.004 0.003c-0.060 0.054-0.152 0.049-0.206-0.011l-0.034-0.039c-0.042-0.048-0.105-0.072-0.168-0.065l-0.119 0.013c-0.079 0.009-0.151-0.045-0.166-0.123-0.008-0.046-0.038-0.086-0.080-0.107l-0.192-0.098c-0.070-0.036-0.123-0.098-0.148-0.172-0.019-0.056-0.020-0.116-0.005-0.173l0.012-0.044c0.034-0.124 0.013-0.257-0.058-0.365l-0.111-0.17c-0.026-0.040-0.063-0.072-0.107-0.092-0.070-0.032-0.121-0.094-0.14-0.168l-0.046-0.18c-0.020-0.080-0.088-0.14-0.17-0.15l-0.047-0.006c-0.025-0.003-0.050 0.004-0.070 0.021-0.043 0.036-0.109 0.025-0.137-0.024l-0.108-0.182c-0.022-0.037-0.059-0.064-0.102-0.074-0.082-0.018-0.135-0.097-0.122-0.179l0.079-0.496c0.025-0.159 0.107-0.302 0.231-0.404 0.237-0.195 0.307-0.528 0.17-0.802l-0.006-0.012c-0.057-0.115-0.146-0.21-0.256-0.276l-0.205-0.123c-0.063-0.038-0.109-0.097-0.131-0.167-0.028-0.089-0.095-0.159-0.183-0.191l-0.015-0.006c-0.074-0.027-0.136-0.079-0.174-0.147l-0.184-0.323c-0.053-0.094-0.047-0.21 0.016-0.298l0.051-0.070c0.033-0.046 0.036-0.107 0.007-0.155-0.034-0.059-0.022-0.134 0.030-0.179l0.028-0.025c0.027-0.024 0.037-0.062 0.025-0.095-0.011-0.031-0.004-0.067 0.020-0.091l0.079-0.081c0.099-0.101 0.102-0.261 0.008-0.366l-0.019-0.021c-0.031-0.034-0.069-0.061-0.111-0.077l-0.123-0.049c-0.176-0.070-0.278-0.255-0.244-0.442l0.004-0.021c0.014-0.075 0.002-0.152-0.034-0.22-0.024-0.045-0.057-0.083-0.098-0.113l-0.267-0.195c-0.121-0.088-0.226-0.196-0.312-0.319-0.129-0.185-0.302-0.335-0.503-0.436l-0.217-0.108c-0.046-0.023-0.086-0.054-0.119-0.093l-0.039-0.045c-0.053-0.062-0.074-0.144-0.057-0.224 0.020-0.094-0.013-0.192-0.087-0.254l-0.023-0.020c-0.040-0.034-0.088-0.057-0.139-0.067l-0.369-0.073c-0.091-0.018-0.173 0.056-0.165 0.148 0.003 0.033-0.006 0.066-0.026 0.093l-0.254 0.351c-0.051 0.071-0.153 0.079-0.215 0.017-0.020-0.020-0.045-0.033-0.073-0.039l-0.653-0.129c-0.041-0.008-0.070-0.045-0.067-0.087 0.002-0.030-0.013-0.059-0.038-0.075l-0.213-0.137c-0.065-0.042-0.099-0.117-0.089-0.193 0.009-0.063-0.013-0.127-0.059-0.171l-0.002-0.002c-0.046-0.044-0.069-0.107-0.061-0.17l0.020-0.165c0.011-0.096-0.021-0.193-0.088-0.263-0.050-0.053-0.082-0.121-0.089-0.193l-0.011-0.108c-0.007-0.066 0.011-0.133 0.050-0.187l0.024-0.033c0.062-0.087 0.055-0.205-0.017-0.283-0.036-0.039-0.057-0.090-0.059-0.143l-0.012-0.272c-0.002-0.039 0.008-0.078 0.029-0.111l0.018-0.029c0.037-0.060 0.028-0.137-0.022-0.187-0.043-0.043-0.106-0.056-0.162-0.034l-0.211 0.083c-0.042 0.016-0.077 0.045-0.103 0.081l-0.071 0.102c-0.029 0.042-0.086 0.053-0.129 0.027-0.033-0.020-0.074-0.019-0.105 0.003l-0.183 0.129c-0.085 0.060-0.19 0.083-0.292 0.065-0.174-0.031-0.347 0.060-0.421 0.221l-0.102 0.221c-0.015 0.033-0.019 0.070-0.011 0.106l0.003 0.014c0.012 0.055-0.008 0.111-0.053 0.145-0.035 0.026-0.079 0.036-0.121 0.026l-0.338-0.083c-0.111-0.027-0.206-0.099-0.262-0.199-0.048-0.086-0.064-0.186-0.045-0.283l0.143-0.717c0.020-0.099-0.004-0.203-0.067-0.283-0.081-0.104-0.213-0.154-0.343-0.129l-0.15 0.029c-0.192 0.037-0.39-0.023-0.53-0.159l-0.251-0.245c-0.108-0.105-0.175-0.246-0.189-0.397-0.028-0.314-0.284-0.56-0.599-0.576l-0.146-0.007c-0.189-0.010-0.369-0.086-0.508-0.216l-0.492-0.461c-0.063-0.059-0.101-0.14-0.107-0.227l-0.002-0.036c-0.004-0.069-0.037-0.134-0.090-0.179-0.044-0.037-0.1-0.059-0.158-0.060l-0.062-0.001c-0.085-0.002-0.161-0.052-0.196-0.129-0.028-0.061-0.083-0.106-0.148-0.122l-0.273-0.068z"></path>
</svg>
