<!-- Generated by IcoMoon.io -->
<svg version="1.1" xmlns="http://www.w3.org/2000/svg" width="37" height="32" viewBox="0 0 37 32">
<path d="M29.455 0.23c0.025-0.015 0.055-0.017 0.081-0.006 0.039 0.016 0.063 0.057 0.056 0.099l-0.032 0.203c-0.010 0.065-0.053 0.12-0.114 0.146-0.071 0.030-0.117 0.101-0.116 0.178l0.006 0.429c0.002 0.122 0.031 0.242 0.085 0.351l0.079 0.158c0.038 0.076 0.104 0.136 0.183 0.167 0.062 0.024 0.116 0.066 0.155 0.12l0.034 0.047c0.068 0.094 0.164 0.164 0.275 0.199l0.106 0.034c0.070 0.022 0.129 0.069 0.168 0.131l0.024 0.038c0.071 0.115 0.218 0.156 0.338 0.095 0.055-0.028 0.119-0.035 0.179-0.021l0.021 0.005c0.153 0.037 0.24 0.2 0.187 0.348-0.011 0.029-0.016 0.060-0.016 0.091l0.003 0.731c0 0.066-0.012 0.132-0.037 0.193-0.064 0.157-0.045 0.336 0.050 0.476l0.080 0.118c0.044 0.065 0.069 0.141 0.074 0.219 0.006 0.104 0.049 0.203 0.122 0.278l0.537 0.555c0.060 0.062 0.113 0.13 0.159 0.202l0.3 0.474c0.095 0.15 0.272 0.227 0.446 0.195 0.114-0.021 0.232 0.005 0.327 0.071l0.279 0.194c0.125 0.087 0.265 0.149 0.413 0.183l0.036 0.008c0.111 0.025 0.216 0.070 0.311 0.131 0.149 0.096 0.268 0.231 0.346 0.39l0.306 0.627c0.037 0.075 0.092 0.14 0.162 0.187l0.196 0.134c0.023 0.015 0.052 0.018 0.076 0.005 0.033-0.016 0.072-0.007 0.094 0.022l0.291 0.385c0.056 0.074 0.033 0.18-0.048 0.224-0.045 0.024-0.074 0.070-0.078 0.12l-0.005 0.060c-0.005 0.062 0.011 0.123 0.047 0.174l0.067 0.095 0.546 0.719c0.066 0.087 0.054 0.209-0.026 0.283-0.038 0.035-0.088 0.054-0.14 0.054l-0.301 0.002c-0.122 0.001-0.23 0.081-0.267 0.197-0.037 0.118 0.008 0.246 0.11 0.315l0.281 0.191c0.025 0.017 0.040 0.046 0.039 0.076-0.001 0.043-0.033 0.079-0.076 0.086l-0.070 0.011c-0.042 0.006-0.080 0.028-0.107 0.060l-0.278 0.333c-0.051 0.061-0.142 0.066-0.199 0.011-0.068-0.065-0.18-0.043-0.219 0.043l-0.116 0.256c-0.043 0.095-0.033 0.206 0.026 0.291l0.074 0.107c0.048 0.070 0.143 0.090 0.215 0.046 0.030-0.018 0.066-0.026 0.101-0.023l0.145 0.016c0.036 0.004 0.066 0.029 0.076 0.063l0.002 0.008c0.012 0.038-0.006 0.078-0.041 0.096-0.055 0.027-0.059 0.104-0.009 0.139 0.015 0.011 0.026 0.026 0.032 0.044l0.139 0.468c0.005 0.018 0.019 0.033 0.036 0.041 0.056 0.024 0.050 0.105-0.009 0.121l-0.332 0.087c-0.090 0.024-0.137 0.124-0.096 0.208l0.006 0.014c0.036 0.075-0.005 0.165-0.084 0.189-0.048 0.014-0.085 0.055-0.094 0.104-0.011 0.060-0.062 0.105-0.123 0.11l-0.063 0.004c-0.096 0.006-0.175 0.075-0.195 0.169l-0.013 0.060c-0.009 0.039-0.007 0.081 0.006 0.119 0.050 0.158-0.076 0.316-0.241 0.302l-0.078-0.006c-0.080-0.006-0.156 0.038-0.19 0.111l-0.003 0.006c-0.053 0.114 0.019 0.247 0.144 0.265l0.102 0.014c0.062 0.009 0.101 0.071 0.082 0.13-0.007 0.021-0.020 0.038-0.037 0.051l-0.292 0.211c-0.065 0.047-0.146 0.070-0.226 0.064l-0.021-0.002c-0.151-0.011-0.288 0.086-0.329 0.231l-0.026 0.092c-0.018 0.062 0.002 0.128 0.050 0.171 0.040 0.036 0.061 0.088 0.055 0.142l-0.039 0.393c-0.010 0.101 0.070 0.188 0.171 0.187 0.096-0.001 0.173 0.077 0.172 0.173l-0.002 0.154c-0.001 0.083 0.030 0.163 0.086 0.224l0.009 0.010c0.076 0.081 0.11 0.194 0.091 0.303l-0.173 0.996c-0.008 0.045-0.007 0.090 0.003 0.135 0.029 0.136 0.136 0.242 0.272 0.27l0.383 0.079c0.068 0.014 0.124 0.062 0.149 0.127 0.040 0.106-0.014 0.224-0.121 0.263l-0.353 0.128c-0.052 0.019-0.070 0.084-0.036 0.127 0.033 0.042 0.018 0.103-0.031 0.125l-0.33 0.146c-0.049 0.022-0.073 0.078-0.053 0.128 0.014 0.036 0.006 0.077-0.021 0.105l-0.101 0.107c-0.042 0.045-0.071 0.1-0.083 0.16l-0.036 0.178c-0.012 0.062-0.070 0.105-0.133 0.099l-0.070-0.006c-0.020-0.002-0.036-0.018-0.038-0.038-0.002-0.025-0.026-0.043-0.050-0.037l-0.23 0.048c-0.036 0.008-0.074 0.007-0.11-0.002l-1.753-0.433c-0.141-0.035-0.288-0.043-0.432-0.023l-0.194 0.026c-0.141 0.019-0.27 0.086-0.367 0.191-0.228 0.213-0.149 0.592 0.145 0.697l0.488 0.173c0.044 0.016 0.083 0.042 0.114 0.076 0.125 0.138 0.085 0.356-0.081 0.44l-0.577 0.295c-0.072 0.037-0.15 0.063-0.23 0.075l-0.401 0.064c-0.018 0.003-0.035 0.011-0.049 0.024-0.041 0.037-0.041 0.101 0 0.138l0.045 0.041c0.025 0.023 0.041 0.053 0.047 0.086l0.022 0.134c0.015 0.093-0.035 0.185-0.122 0.223l-0.157 0.068c-0.013 0.006-0.020 0.021-0.015 0.035 0.008 0.022-0.013 0.043-0.034 0.035l-0.076-0.027c-0.019-0.007-0.041-0.004-0.058 0.008l-0.080 0.054c-0.024 0.017-0.058 0.002-0.063-0.027-0.003-0.018-0.018-0.031-0.035-0.033l-0.207-0.025c-0.077-0.010-0.153 0.022-0.201 0.083l-0.012 0.015c-0.026 0.033-0.063 0.055-0.105 0.063-0.090 0.016-0.152 0.101-0.14 0.192l0.019 0.145c0.006 0.048-0.033 0.090-0.082 0.085-0.043-0.004-0.080 0.028-0.083 0.071l-0.020 0.346c-0.003 0.054-0.045 0.098-0.099 0.104-0.035 0.004-0.069-0.009-0.093-0.035l-0.059-0.064c-0.037-0.039-0.102-0.025-0.119 0.027-0.006 0.019-0.020 0.035-0.039 0.043l-0.196 0.084c-0.034 0.015-0.036 0.062-0.004 0.079 0.023 0.012 0.030 0.042 0.015 0.064l-0.014 0.020c-0.020 0.028-0.057 0.037-0.087 0.020-0.027-0.016-0.062-0.010-0.082 0.013l-0.021 0.024c-0.040 0.044-0.034 0.113 0.012 0.151l0.115 0.095c0.047 0.039 0.061 0.105 0.035 0.16l-0.009 0.020c-0.032 0.067 0.006 0.146 0.079 0.162 0.060 0.014 0.099 0.073 0.088 0.134l-0.008 0.043c-0.014 0.078-0.084 0.134-0.163 0.131l-0.395-0.013c-0.073-0.002-0.135 0.052-0.143 0.124s-0.069 0.126-0.141 0.124l-0.132-0.003c-0.108-0.002-0.209 0.058-0.258 0.154l-0.033 0.066c-0.028 0.054-0.069 0.1-0.119 0.134-0.097 0.065-0.156 0.173-0.157 0.29l-0.006 0.435c-0.002 0.191-0.207 0.311-0.375 0.219l-0.118-0.065c-0.036-0.020-0.053-0.062-0.042-0.101 0.014-0.047-0.014-0.097-0.062-0.109l-0.285-0.072c-0.097-0.024-0.197 0.024-0.239 0.115l-0.041 0.091c-0.016 0.034-0.053 0.053-0.090 0.046-0.044-0.009-0.086 0.020-0.095 0.064l-0.017 0.085c-0.017 0.087-0.099 0.145-0.187 0.133l-0.204-0.028c-0.074-0.010-0.143 0.038-0.159 0.111l-0.012 0.053c-0.009 0.039-0.045 0.065-0.085 0.062-0.029-0.002-0.057 0.011-0.073 0.035l-0.027 0.040c-0.048 0.071-0.033 0.167 0.034 0.221l0.147 0.116c0.022 0.017 0.036 0.043 0.039 0.070l0 0.005c0.005 0.046 0.041 0.082 0.087 0.086 0.068 0.007 0.107 0.079 0.077 0.14l-0.004 0.009c-0.032 0.063-0.116 0.076-0.166 0.027l-0.47-0.468c-0.096-0.096-0.222-0.155-0.357-0.168l-0.78-0.075c-0.159-0.015-0.308 0.075-0.369 0.222l-0.046 0.112c-0.023 0.054-0.073 0.092-0.132 0.098l-0.027 0.003c-0.043 0.004-0.084-0.016-0.107-0.052-0.020-0.031-0.053-0.050-0.090-0.052l-0.347-0.018c-0.050-0.003-0.098-0.016-0.143-0.038l-0.109-0.055c-0.047-0.023-0.078-0.070-0.081-0.122-0.004-0.066-0.052-0.121-0.117-0.135l-0.067-0.014c-0.094-0.020-0.191 0.019-0.245 0.098l-0.22 0.322c-0.016 0.023-0.019 0.052-0.010 0.079 0.013 0.034 0.045 0.056 0.081 0.056h0.027c0.064 0 0.117 0.048 0.124 0.111l0.028 0.248c0.004 0.036 0.013 0.072 0.027 0.106l0.187 0.462c0.024 0.059 0.020 0.125-0.010 0.181l-0.026 0.050c-0.014 0.027-0.040 0.045-0.069 0.051-0.052 0.009-0.087 0.058-0.080 0.11l0.068 0.507c0.004 0.027 0.011 0.054 0.022 0.079 0.082 0.183-0.046 0.392-0.247 0.4l-0.256 0.011c-0.033 0.001-0.059 0.030-0.057 0.063 0.002 0.030-0.020 0.057-0.050 0.062l-0.123 0.020c-0.030 0.005-0.050 0.034-0.043 0.064s-0.013 0.060-0.043 0.064l-0.529 0.082c-0.091 0.014-0.182-0.027-0.232-0.105l-0.012-0.020c-0.032-0.050-0.087-0.082-0.147-0.086-0.039-0.002-0.077-0.017-0.108-0.042l-0.558-0.457c-0.175-0.143-0.432-0.124-0.584 0.044l-0.104 0.115c-0.031 0.034-0.078 0.051-0.124 0.044l-0.060-0.009c-0.018-0.003-0.035 0.005-0.045 0.020-0.016 0.024-0.004 0.057 0.023 0.067l0.040 0.014c0.043 0.015 0.059 0.067 0.032 0.104l-0.033 0.046c-0.014 0.019-0.003 0.047 0.021 0.051 0.033 0.006 0.037 0.052 0.004 0.063l-0.146 0.048c-0.014 0.005-0.026 0.013-0.035 0.025l-0.4 0.543c-0.026 0.035-0.017 0.084 0.019 0.108 0.038 0.025 0.045 0.079 0.015 0.113l-0.316 0.361c-0.023 0.026-0.066 0.012-0.069-0.022-0.001-0.012-0.007-0.022-0.017-0.029l-0.11-0.077c-0.113-0.079-0.267-0.057-0.354 0.049l-0.048 0.059c-0.060 0.074-0.166 0.088-0.244 0.034-0.083-0.058-0.102-0.172-0.043-0.254l0.157-0.216c0.145-0.199 0.099-0.478-0.102-0.621l-0.083-0.059c-0.163-0.116-0.213-0.334-0.118-0.51 0.097-0.179 0.042-0.402-0.126-0.516l-1.067-0.719c-0.117-0.079-0.156-0.234-0.089-0.358l0.046-0.086c0.027-0.052 0.019-0.115-0.020-0.158-0.077-0.084-0.024-0.22 0.090-0.23l0.038-0.003c0.058-0.005 0.108-0.041 0.131-0.095l0.031-0.074c0.022-0.052 0.005-0.113-0.041-0.147-0.030-0.022-0.068-0.029-0.104-0.019l-0.025 0.007c-0.059 0.016-0.121 0-0.166-0.041l-0.218-0.203c-0.071-0.066-0.165-0.103-0.263-0.103h-0.232c-0.137 0-0.237-0.13-0.201-0.263 0.026-0.097-0.020-0.198-0.11-0.242l-0.265-0.128c-0.101-0.049-0.134-0.177-0.070-0.269 0.055-0.079 0.040-0.187-0.036-0.247l-0.014-0.011c-0.084-0.067-0.101-0.187-0.039-0.274l0.061-0.086c0.091-0.128 0.073-0.303-0.041-0.41l-0.484-0.451c-0.040-0.037-0.044-0.099-0.010-0.142s0.030-0.105-0.011-0.142l-0.205-0.188c-0.13-0.12-0.338-0.089-0.428 0.063l-0.024 0.040c-0.048 0.080-0.142 0.121-0.233 0.1l-0.068-0.016c-0.069-0.016-0.138 0.023-0.161 0.089-0.014 0.042-0.048 0.074-0.090 0.087l-0.122 0.037c-0.045 0.014-0.084 0.043-0.11 0.082-0.035 0.053-0.093 0.087-0.157 0.091l-0.023 0.001c-0.078 0.005-0.15 0.047-0.193 0.112l-0.107 0.164c-0.028 0.043-0.084 0.056-0.128 0.030-0.022-0.013-0.038-0.034-0.044-0.059l-0.029-0.116c-0.029-0.118-0.122-0.211-0.24-0.241l-0.035-0.009c-0.033-0.008-0.068-0.008-0.101 0.002l-0.088 0.025c-0.052 0.015-0.107-0.014-0.124-0.066-0.014-0.042-0.054-0.071-0.098-0.070l-0.013 0c-0.038 0.001-0.074 0.020-0.095 0.051l-0.013 0.019c-0.060 0.087-0.186 0.096-0.257 0.017l-0.074-0.082c-0.052-0.057-0.126-0.087-0.203-0.082l-0.324 0.021c-0.080 0.005-0.15-0.054-0.158-0.135-0.007-0.076-0.071-0.134-0.147-0.135l-0.151-0.001c-0.054-0-0.107 0.013-0.154 0.039l-0.088 0.048c-0.126 0.068-0.271 0.094-0.413 0.072l-0.312-0.048c-0.015-0.002-0.027-0.011-0.034-0.025-0.019-0.038-0.075-0.032-0.085 0.010l-0.001 0.005c-0.004 0.016-0.015 0.028-0.030 0.034l-0.111 0.039c-0.039 0.014-0.079-0.021-0.070-0.062 0.008-0.036-0.023-0.069-0.059-0.064l-0.010 0.001c-0.019 0.003-0.038-0.004-0.052-0.018l-0.154-0.16c-0.037-0.039-0.080-0.071-0.128-0.096l-0.51-0.266c-0.029-0.015-0.048-0.046-0.048-0.079v-0.044c0-0.048-0.052-0.078-0.093-0.055-0.022 0.012-0.049 0.011-0.069-0.005l-0.436-0.33c-0.028-0.021-0.041-0.056-0.035-0.090 0.008-0.041-0.014-0.083-0.052-0.1l-0.323-0.15c-0.054-0.025-0.067-0.095-0.027-0.138 0.019-0.020 0.027-0.049 0.022-0.076l-0.006-0.031c-0.011-0.055-0.052-0.099-0.106-0.114l-0.143-0.040c-0.094-0.026-0.175-0.087-0.227-0.17l-0.071-0.114c-0.030-0.048-0.080-0.081-0.136-0.089l-0.046-0.007c-0.058-0.009-0.114 0.022-0.139 0.075-0.026 0.056-0.088 0.087-0.149 0.073l-0.245-0.056c-0.046-0.011-0.081-0.050-0.084-0.098-0.004-0.055 0.034-0.105 0.088-0.115l0.026-0.005c0.121-0.023 0.154-0.181 0.052-0.25l-0.082-0.056c-0.025-0.017-0.039-0.047-0.035-0.078l0.001-0.009c0.003-0.026 0.022-0.048 0.047-0.055 0.053-0.017 0.064-0.087 0.018-0.119l-0.051-0.036c-0.014-0.010-0.031-0.016-0.049-0.017l-0.218-0.017c-0.056-0.004-0.111 0.012-0.155 0.047l-0.017 0.014c-0.084 0.065-0.204 0.054-0.274-0.026-0.058-0.066-0.151-0.086-0.232-0.051l-0.173 0.076c-0.015 0.007-0.027 0.019-0.034 0.034-0.026 0.059-0.112 0.050-0.126-0.012l-0.013-0.058c-0.005-0.021-0.017-0.039-0.034-0.052l-0.071-0.051c-0.098-0.070-0.237-0.029-0.281 0.084-0.019 0.048-0.056 0.086-0.104 0.105-0.106 0.042-0.225-0.017-0.254-0.128l-0.269-1.044c-0.060-0.231-0.045-0.476 0.043-0.698l0.333-0.846c0.013-0.032 0.034-0.061 0.062-0.081 0.055-0.041 0.128-0.048 0.19-0.018l0.233 0.112c0.062 0.030 0.114 0.075 0.152 0.132 0.075 0.112 0.204 0.177 0.339 0.169l0.097-0.006c0.077-0.004 0.153 0.007 0.225 0.034l0.037 0.014c0.109 0.041 0.225 0.055 0.341 0.043l0.74-0.082c0.015-0.002 0.030 0.003 0.041 0.012 0.030 0.023 0.031 0.069 0.001 0.092-0.033 0.025-0.030 0.075 0.006 0.095l0.194 0.112c0.105 0.061 0.239 0.018 0.29-0.092l0.009-0.019c0.021-0.045 0.026-0.096 0.015-0.144l-0.020-0.089c-0.033-0.15 0.005-0.307 0.103-0.425l0.774-0.925c0.064-0.076 0.034-0.193-0.058-0.23-0.066-0.026-0.103-0.096-0.089-0.165l0.068-0.328c0.030-0.146-0.054-0.292-0.196-0.338-0.151-0.050-0.235-0.21-0.19-0.363l0.036-0.119c0.061-0.206 0.268-0.333 0.48-0.294l0.983 0.18c0.151 0.028 0.293-0.082 0.304-0.235 0.009-0.118-0.063-0.226-0.175-0.264l-0.26-0.088c-0.106-0.036-0.179-0.134-0.183-0.246l-0.004-0.118c-0.002-0.055-0.041-0.102-0.095-0.113l-0.057-0.012c-0.052-0.011-0.078-0.070-0.051-0.116 0.011-0.019 0.030-0.032 0.051-0.037l0.191-0.040c0.318-0.066 0.498-0.404 0.375-0.705l-0.198-0.484c-0.018-0.044-0.042-0.085-0.071-0.123l-0.142-0.181c-0.024-0.031-0.030-0.073-0.016-0.109 0.031-0.079-0.035-0.163-0.119-0.151l-0.514 0.074c-0.126 0.018-0.253-0.028-0.339-0.122-0.063-0.070-0.15-0.114-0.244-0.124l-0.516-0.055c-0.033-0.004-0.066-0.014-0.096-0.029l-0.115-0.061c-0.069-0.036-0.093-0.123-0.054-0.19l0.045-0.077c0.016-0.028 0.005-0.064-0.025-0.078-0.040-0.019-0.043-0.075-0.005-0.098l0.034-0.021c0.026-0.016 0.040-0.046 0.036-0.076l-0.008-0.060c-0.011-0.077-0.072-0.136-0.149-0.145l-0.077-0.009c-0.063-0.007-0.121-0.036-0.165-0.082l-0.023-0.024c-0.067-0.070-0.103-0.165-0.1-0.262l0.013-0.384c0.001-0.032-0.005-0.063-0.017-0.093l-0.036-0.085c-0.029-0.069 0.005-0.148 0.076-0.174 0.058-0.021 0.093-0.079 0.085-0.14l-0.021-0.157c-0.014-0.102-0.074-0.192-0.164-0.242l-0.553-0.309c-0.082-0.046-0.179-0.051-0.266-0.016-0.051 0.021-0.108 0.028-0.163 0.019l-0.319-0.049c-0.134-0.020-0.246-0.112-0.292-0.239l-0.033-0.091c-0.032-0.088-0.115-0.147-0.208-0.149-0.058-0.002-0.114 0.019-0.158 0.058l-0.022 0.020c-0.095 0.085-0.242 0.078-0.329-0.016l-0.014-0.016c-0.046-0.050-0.115-0.072-0.182-0.060-0.056 0.011-0.114-0.003-0.159-0.038l-0.145-0.114c-0.067-0.053-0.123-0.119-0.162-0.195l-0.176-0.337c-0.038-0.074-0.123-0.111-0.203-0.090-0.059 0.015-0.121-0.001-0.166-0.042l-0.002-0.002c-0.021-0.020-0.038-0.044-0.048-0.071l-0.076-0.203c-0.133-0.358-0.069-0.759 0.169-1.058l0.566-0.712c0.142-0.178 0.144-0.431 0.005-0.611-0.060-0.078-0.095-0.171-0.102-0.269l-0.016-0.233c-0.005-0.066 0.004-0.133 0.024-0.196l0.042-0.13c0.024-0.075 0.083-0.133 0.158-0.158l0.059-0.019c0.093-0.031 0.146-0.13 0.119-0.224-0.036-0.124 0.064-0.245 0.193-0.233l0.127 0.012c0.015 0.001 0.029 0.009 0.038 0.021l0.013 0.017c0.020 0.026 0.061 0.021 0.072-0.010 0.007-0.020 0.029-0.031 0.050-0.026l0.102 0.028c0.056 0.015 0.096 0.064 0.1 0.122l0.001 0.021c0.003 0.048 0.038 0.088 0.084 0.098 0.041 0.009 0.083-0.007 0.108-0.040l0.227-0.297c0.032-0.042 0.048-0.095 0.044-0.148-0.006-0.094 0.048-0.182 0.135-0.218l0.223-0.092c0.069-0.029 0.132-0.071 0.184-0.124l0.198-0.202c0.086-0.088 0.218-0.111 0.329-0.058l0.204 0.097c0.040 0.019 0.088 0 0.104-0.041s0.063-0.060 0.103-0.042l0.268 0.121c0.043 0.019 0.093-0.002 0.109-0.046 0.012-0.033 0.043-0.054 0.078-0.053l0.041 0.001c0.067 0.002 0.126-0.045 0.139-0.111l0.025-0.13c0.028-0.143 0.156-0.244 0.301-0.237l0.094 0.004c0.040 0.002 0.079-0.009 0.112-0.030l0.031-0.020c0.101-0.065 0.101-0.213 0-0.279-0.081-0.053-0.1-0.162-0.042-0.239l0.13-0.173c0.075-0.099 0.215-0.122 0.317-0.051l0.171 0.119c0.088 0.061 0.208-0.006 0.202-0.113-0.004-0.073 0.053-0.134 0.126-0.136l0.090-0.002c0.048-0.001 0.094-0.022 0.127-0.057 0.080-0.086 0.219-0.073 0.282 0.025l0.008 0.012c0.032 0.049 0.084 0.081 0.143 0.087l0.031 0.003c0.053 0.005 0.104 0.027 0.144 0.062l0.284 0.249c0.033 0.029 0.082 0.029 0.115-0.001 0.029-0.026 0.071-0.029 0.104-0.009l0.059 0.037c0.059 0.037 0.138 0.019 0.175-0.040l0.003-0.004c0.027-0.043 0.024-0.099-0.007-0.139-0.060-0.076-0.010-0.188 0.086-0.195l0.313-0.021c0.053-0.003 0.104-0.022 0.148-0.053l0.082-0.059c0.053-0.038 0.12-0.052 0.184-0.037l0.242 0.056c0.027 0.006 0.041 0.037 0.027 0.062-0.011 0.019-0.005 0.043 0.013 0.055l0.087 0.060c0.027 0.018 0.058 0.028 0.090 0.028h0.041c0.064 0 0.12-0.043 0.135-0.105 0.012-0.048 0.049-0.086 0.097-0.1l0.004-0.001c0.052-0.015 0.091-0.057 0.103-0.109l0.015-0.066c0.014-0.063-0.025-0.126-0.088-0.142l-0.061-0.015c-0.044-0.011-0.067-0.060-0.045-0.1 0.011-0.021 0.033-0.036 0.057-0.037l0.478-0.033c0.222-0.016 0.432-0.11 0.59-0.267l0.418-0.415c0.034-0.034 0.057-0.078 0.066-0.125l0.015-0.082c0.005-0.028-0.004-0.056-0.024-0.075-0.039-0.037-0.033-0.101 0.012-0.13l0.262-0.168c0.035-0.023 0.082-0.008 0.099 0.030 0.015 0.035 0.056 0.050 0.090 0.034l0.047-0.022c0.035-0.016 0.075-0.014 0.109 0.005l0.013 0.008c0.066 0.038 0.15 0.020 0.194-0.042l0.044-0.061c0.059-0.082 0.164-0.116 0.26-0.085l0.15 0.048c0.072 0.023 0.149 0.028 0.223 0.014l1.078-0.206c0.24-0.046 0.488-0.031 0.722 0.042l0.545 0.171c0.098 0.031 0.177 0.106 0.212 0.203l0.085 0.237c0.019 0.052 0.077 0.077 0.128 0.055 0.042-0.018 0.091-0.004 0.117 0.033l0.413 0.603c0.039 0.057 0.088 0.108 0.143 0.15l0.273 0.205c0.077 0.058 0.104 0.16 0.065 0.248-0.026 0.059-0.023 0.126 0.008 0.183l0.091 0.166c0.095 0.172 0.269 0.286 0.465 0.304l0.437 0.040c0.025 0.002 0.050-0.003 0.072-0.016l0.047-0.028c0.029-0.018 0.039-0.055 0.023-0.085-0.018-0.032-0.004-0.073 0.029-0.088l0.256-0.115c0.030-0.014 0.057-0.033 0.079-0.057l0.112-0.122c0.070-0.077 0.196-0.053 0.234 0.044 0.021 0.054 0.073 0.090 0.131 0.090h0.212c0.098 0 0.191 0.046 0.25 0.124l0.012 0.015c0.040 0.053 0.099 0.089 0.165 0.1l0.124 0.022c0.045 0.008 0.079 0.045 0.083 0.090 0.004 0.041 0.033 0.076 0.073 0.088l0.117 0.034c0.039 0.011 0.079 0.014 0.119 0.008l0.296-0.045c0.036-0.006 0.072 0.014 0.087 0.047l0.003 0.007c0.021 0.048-0.010 0.102-0.062 0.107-0.046 0.005-0.077 0.048-0.067 0.093l0.012 0.053c0.009 0.041-0.002 0.083-0.031 0.113l-0.017 0.018c-0.069 0.073-0.060 0.19 0.020 0.251l0.304 0.233c0.062 0.048 0.134 0.080 0.21 0.096l0.039 0.008c0.174 0.035 0.355-0.018 0.482-0.142l0.029-0.028c0.049-0.048 0.085-0.108 0.103-0.175l0.086-0.314c0.012-0.042 0.056-0.066 0.098-0.053 0.030 0.010 0.062 0.001 0.083-0.023l0.080-0.094c0.038-0.044 0.090-0.075 0.147-0.087l0.076-0.016c0.122-0.025 0.23-0.095 0.301-0.197l0.018-0.025c0.075-0.106 0.184-0.183 0.31-0.219l0.288-0.081c0.149-0.042 0.286-0.119 0.399-0.226 0.101-0.095 0.221-0.167 0.353-0.212l0.263-0.088c0.212-0.071 0.433-0.11 0.657-0.114l0.566-0.012c0.079-0.002 0.159 0.012 0.233 0.042l0.016 0.006c0.090 0.035 0.187 0.046 0.282 0.030l0.438-0.071c0.035-0.006 0.060-0.038 0.057-0.074s0.022-0.070 0.059-0.074l0.213-0.027c0.049-0.006 0.098 0.005 0.14 0.030 0.063 0.038 0.141 0.042 0.207 0.011l1.211-0.576c0.171-0.081 0.311-0.216 0.399-0.383l0.040-0.076c0.037-0.071 0.091-0.132 0.156-0.179 0.099-0.071 0.219-0.104 0.34-0.094l0.365 0.030c0.219 0.018 0.438-0.033 0.626-0.146l0.41-0.246z"></path>
</svg>
