<!-- Generated by IcoMoon.io -->
<svg version="1.1" xmlns="http://www.w3.org/2000/svg" width="45" height="32" viewBox="0 0 45 32">
<path d="M40.178 28.031c0.064 0.063 0.153 0.092 0.242 0.080l0.147-0.020c0.124-0.017 0.227 0.092 0.204 0.215-0.020 0.105-0.125 0.17-0.227 0.142l-0.173-0.048c-0.038-0.011-0.073-0.031-0.101-0.058l-0.336-0.334c-0.053-0.053-0.008-0.143 0.067-0.131 0.016 0.003 0.030 0.010 0.042 0.021l0.136 0.134zM13.263 26.913c0.003-0 0.005-0 0.008 0l1.244 0.21 0.923 0.285c0.233 0.072 0.479 0.086 0.719 0.041l0.105-0.020c0.102-0.019 0.201-0.056 0.291-0.109l0.171-0.1c0.216-0.127 0.488-0.108 0.684 0.047l0.033 0.026c0.060 0.047 0.131 0.078 0.206 0.090l0.152 0.024c0.055 0.009 0.11-0.011 0.147-0.052 0.055-0.061 0.146-0.072 0.214-0.026l0.211 0.144c0.065 0.044 0.141 0.071 0.219 0.078l0.575 0.047c0.022 0.002 0.042 0.008 0.061 0.019 0.115 0.065 0.093 0.237-0.034 0.271l-0.089 0.024c-0.020 0.006-0.041 0.008-0.062 0.006l-1.896-0.135-3.883-0.821c-0.029-0.006-0.027-0.047 0.002-0.051zM36.867 25.95c0.067-0.003 0.095 0.084 0.039 0.121-0.013 0.009-0.022 0.021-0.027 0.036l-0.027 0.090c-0.026 0.085-0.085 0.156-0.164 0.197l-0.14 0.071c-0.099 0.050-0.156 0.157-0.144 0.267l0.026 0.242c0.003 0.029-0.019 0.054-0.048 0.054-0.023 0-0.042-0.015-0.047-0.037l-0.076-0.319c-0.039-0.163 0.013-0.334 0.136-0.448l0.26-0.24c0.018-0.017 0.042-0.027 0.068-0.028l0.145-0.006zM41.555 25.681c0.009 0.016 0.014 0.033 0.017 0.051l0.41 2.474c0.036 0.219 0.095 0.434 0.174 0.641l1.030 2.68c0.020 0.052-0.003 0.111-0.053 0.136-0.060 0.030-0.133-0.001-0.153-0.065l-0.216-0.696c-0.020-0.064-0.051-0.124-0.092-0.177l-0.144-0.187c-0.043-0.056-0.114-0.083-0.184-0.068-0.067 0.014-0.12 0.063-0.14 0.128l-0.047 0.157c-0.024 0.079-0.068 0.15-0.128 0.206l-0.092 0.085c-0.041 0.038-0.092 0.062-0.147 0.070l-0.044 0.006c-0.094 0.013-0.185-0.039-0.222-0.126-0.023-0.054-0.023-0.116 0.001-0.169l0.159-0.357c0.041-0.093 0.069-0.19 0.084-0.291l0.11-0.754c0.013-0.087-0.013-0.175-0.071-0.242l-0.045-0.052c-0.017-0.019-0.026-0.044-0.027-0.070l-0.002-0.075c-0.002-0.071 0.083-0.108 0.134-0.059 0.062 0.059 0.161-0.008 0.128-0.088l-0.149-0.361c-0.017-0.041-0.049-0.073-0.090-0.089l-0.044-0.017c-0.077-0.031-0.122-0.111-0.108-0.192l0.024-0.142c0.007-0.042-0.028-0.080-0.071-0.076-0.033 0.003-0.064-0.019-0.070-0.052l-0.079-0.399c-0.016-0.079-0.054-0.151-0.111-0.208l-0.071-0.070c-0.045-0.045-0.108-0.066-0.172-0.058-0.080 0.011-0.147 0.069-0.169 0.147l-0.022 0.079c-0.051 0.18-0.296 0.206-0.383 0.041-0.020-0.038-0.051-0.069-0.090-0.088l-0.106-0.054c-0.11-0.056-0.157-0.188-0.108-0.301 0.026-0.058 0.026-0.124 0.002-0.183l-0.014-0.033c-0.033-0.080-0.098-0.143-0.179-0.174l-0.297-0.113c-0.034-0.013-0.057-0.046-0.058-0.082-0.001-0.056 0.049-0.1 0.105-0.090l0.416 0.070c0.071 0.012 0.144 0.006 0.212-0.019l0.030-0.011c0.201-0.072 0.422 0.030 0.498 0.23l0.043 0.113c0.012 0.032 0.037 0.057 0.069 0.070 0.051 0.020 0.109 0.003 0.141-0.041l0.095-0.13c0.051-0.070 0.072-0.156 0.061-0.241l-0.078-0.554c-0.009-0.063 0.016-0.126 0.065-0.167l0.016-0.013c0.080-0.065 0.201-0.041 0.25 0.050zM1.406 23.77c0.125 0.061 0.266 0.084 0.404 0.067l0.356-0.046c0.019-0.002 0.037 0.005 0.049 0.019 0.026 0.031 0.011 0.077-0.027 0.088l-0.132 0.038c-0.026 0.008-0.047 0.028-0.054 0.054-0.013 0.044 0.013 0.090 0.058 0.101l3.643 0.857-3.216-0.683-0.878-0.314c-0.245-0.088-0.475-0.215-0.68-0.376l-0.118-0.093c-0.152-0.12-0.281-0.266-0.38-0.432l-0.039-0.065c-0.104-0.172-0.165-0.366-0.18-0.567l-0.019-0.268c-0.004-0.058 0.008-0.116 0.034-0.168l0.084-0.165c0.016-0.030 0.049-0.047 0.083-0.040 0.036 0.008 0.061 0.039 0.060 0.076l-0.014 0.681c-0.002 0.092 0.010 0.184 0.036 0.272l0.027 0.092c0.044 0.149 0.117 0.288 0.214 0.409 0.11 0.137 0.248 0.247 0.405 0.324l0.282 0.138zM19.926 1.084c-0.010-0.215 0.187-0.38 0.397-0.332l0.41 0.093c0.090 0.020 0.184 0.021 0.275 0l0.452-0.102c0.112-0.025 0.221 0.050 0.238 0.164 0.009 0.062-0.013 0.125-0.058 0.169l-0.114 0.111c-0.028 0.027-0.046 0.062-0.053 0.1-0.018 0.106 0.059 0.205 0.167 0.213l0.071 0.005c0.049 0.004 0.098-0.008 0.141-0.033l0.327-0.189c0.031-0.018 0.070-0.017 0.099 0.004 0.027 0.019 0.042 0.050 0.040 0.083l-0.015 0.23c-0.009 0.132 0.061 0.257 0.178 0.319l0.077 0.041c0.055 0.029 0.091 0.085 0.095 0.147 0.008 0.122 0.135 0.2 0.249 0.154 0.115-0.047 0.153-0.193 0.073-0.288l-0.068-0.080c-0.023-0.027-0.037-0.059-0.041-0.094-0.011-0.093 0.052-0.178 0.144-0.195l1.443-0.261c0.21-0.038 0.352-0.236 0.321-0.447-0.031-0.21 0.109-0.406 0.317-0.446l0.601-0.116c0.169-0.033 0.338 0.057 0.407 0.215l0.048 0.11c0.017 0.039 0.052 0.068 0.094 0.077 0.070 0.015 0.115 0.083 0.103 0.154l-0.003 0.015c-0.009 0.054-0.048 0.098-0.1 0.116-0.061 0.021-0.104 0.078-0.104 0.143l-0.004 0.499c-0.001 0.16 0.155 0.275 0.307 0.226 0.133-0.043 0.273 0.039 0.302 0.175l0.004 0.017c0.028 0.13 0.152 0.216 0.283 0.196l2.645-0.404c0.437-0.067 0.873 0.122 1.123 0.486l0.036 0.052c0.040 0.058 0.089 0.111 0.144 0.155 0.165 0.132 0.379 0.185 0.587 0.145l0.694-0.133c0.485-0.093 0.987-0.024 1.43 0.197l0.283 0.141c0.068 0.034 0.13 0.079 0.182 0.135 0.088 0.093 0.147 0.209 0.169 0.335l0.18 1.007c0.008 0.047 0.050 0.080 0.098 0.078s0.089 0.032 0.098 0.079l0.222 1.27c0.007 0.041 0.029 0.077 0.062 0.103 0.066 0.052 0.16 0.047 0.221-0.012l0.101-0.098c0.051-0.050 0.117-0.082 0.188-0.091l0.123-0.016c0.081-0.010 0.163 0.012 0.227 0.063l0.025 0.020c0.054 0.042 0.123 0.059 0.191 0.046l0.139-0.028c0.050-0.010 0.083-0.059 0.073-0.11s0.023-0.1 0.073-0.11l0.039-0.008c0.068-0.013 0.114-0.077 0.106-0.146l-0.009-0.076c-0.014-0.112 0.063-0.216 0.174-0.237l0.861-0.161c0.098-0.018 0.183 0.068 0.165 0.165-0.010 0.052-0.048 0.094-0.099 0.109l-0.076 0.022c-0.137 0.039-0.22 0.178-0.19 0.317l0.032 0.15c0.023 0.105 0.123 0.175 0.229 0.159 0.096-0.014 0.189 0.041 0.222 0.133l0.035 0.097c0.006 0.016 0.010 0.032 0.013 0.049l0.003 0.016c0.021 0.135-0.070 0.263-0.205 0.286s-0.225 0.149-0.205 0.284l0.297 2.021c0.017 0.113 0.118 0.193 0.232 0.184 0.116-0.010 0.218 0.074 0.233 0.189l0.134 1.114c0.010 0.081 0.084 0.139 0.165 0.128 0.076-0.009 0.146 0.040 0.162 0.115l0.062 0.287c0.014 0.066 0.071 0.114 0.139 0.117 0.072 0.003 0.132 0.058 0.141 0.13l0.004 0.034c0.013 0.103 0.107 0.177 0.211 0.164l0.401-0.048c0.1-0.012 0.191 0.059 0.204 0.159 0.013 0.102 0.108 0.173 0.21 0.158l0.122-0.018c0.167-0.025 0.322 0.090 0.347 0.257l0.121 0.809c0.027 0.179 0.188 0.307 0.369 0.292 0.179-0.015 0.34 0.111 0.368 0.288l0.039 0.244c0.034 0.209-0.111 0.406-0.32 0.436l-0.019 0.003c-0.195 0.028-0.332 0.209-0.306 0.404l0.039 0.295c0.007 0.053-0.033 0.1-0.086 0.102-0.048 0.002-0.086 0.041-0.087 0.089l-0.002 0.202c-0 0.048-0.038 0.088-0.086 0.091l-0.008 0.001c-0.045 0.003-0.079 0.040-0.078 0.085 0.001 0.043-0.030 0.079-0.072 0.084l-0.798 0.105c-0.064 0.008-0.109 0.066-0.103 0.13s-0.039 0.121-0.103 0.13l-0.085 0.012c-0.116 0.016-0.196 0.124-0.178 0.239l0.021 0.136c0.026 0.165 0.176 0.28 0.342 0.262l0.179-0.019c0.065-0.007 0.124 0.038 0.134 0.103s0.071 0.111 0.136 0.103l0.264-0.032c0.219-0.027 0.418 0.13 0.445 0.349l0.039 0.327c0.018 0.152-0.078 0.295-0.226 0.335-0.155 0.042-0.252 0.196-0.223 0.354l0.033 0.182c0.017 0.093 0.099 0.159 0.194 0.156s0.177 0.064 0.194 0.157l0.017 0.095c0.029 0.161 0.181 0.27 0.343 0.245l1.133-0.172c0.137-0.021 0.265 0.074 0.285 0.212l0.019 0.135c0.007 0.048-0.023 0.093-0.070 0.106-0.049 0.013-0.080 0.063-0.069 0.113l0.039 0.178c0.032 0.147 0.172 0.245 0.321 0.223l0.218-0.031c0.118-0.017 0.238 0.007 0.34 0.067l0.71 0.418c0.057 0.034 0.124 0.048 0.19 0.039 0.171-0.022 0.326 0.105 0.338 0.277l0.195 2.722c0.004 0.059 0.056 0.103 0.115 0.098 0.093-0.008 0.151 0.1 0.091 0.173l-0.136 0.166c-0.014 0.018-0.032 0.033-0.052 0.045l-0.234 0.138c-0.165 0.097-0.346 0.167-0.534 0.205l-1.017 0.206c-0.286 0.058-0.554 0.181-0.784 0.361l-0.253 0.198c-0.122 0.095-0.214 0.224-0.265 0.37l-0.088 0.256c-0.054 0.156-0.198 0.264-0.363 0.271l-0.072 0.003c-0.082 0.004-0.161-0.032-0.213-0.096-0.064-0.080-0.169-0.114-0.268-0.088l-0.061 0.016c-0.080 0.021-0.165 0.014-0.24-0.021l-0.23-0.105c-0.153-0.070-0.326-0.086-0.489-0.044l-0.157 0.041c-0.182 0.047-0.32 0.196-0.353 0.381-0.013 0.073-0.009 0.148 0.012 0.219l0.076 0.257c0.105 0.358 0.084 0.741-0.061 1.084l-0.176 0.419c-0.042 0.1-0.093 0.197-0.151 0.289l-0.113 0.178c-0.026 0.042-0.059 0.080-0.096 0.112l-0.342 0.299c-0.069 0.060-0.176 0.042-0.221-0.038-0.015-0.027-0.039-0.049-0.068-0.062l-0.019-0.008c-0.066-0.029-0.142-0.021-0.201 0.020l-0.027 0.019-0.172 0.149c-0.018 0.016-0.032 0.035-0.040 0.057-0.052 0.134-0.247 0.119-0.277-0.022l-0.009-0.044c-0.007-0.034-0.003-0.070 0.012-0.101l0.013-0.026c0.045-0.093 0.023-0.205-0.054-0.275-0.029-0.027-0.065-0.046-0.104-0.055l-0.399-0.096c-0.091-0.022-0.152-0.108-0.142-0.2 0.003-0.032 0.015-0.063 0.034-0.089l0.052-0.073c0.071-0.099 0.191-0.151 0.312-0.133l0.31 0.046c0.033 0.005 0.063-0.021 0.063-0.054 0-0.026-0.019-0.049-0.045-0.054l-0.192-0.033c-0.117-0.020-0.21-0.11-0.232-0.227l-0.023-0.115c-0.031-0.158 0.032-0.319 0.161-0.415 0.048-0.036 0.088-0.082 0.117-0.135l0.121-0.222c0.010-0.018 0.011-0.040 0.003-0.059l-0.005-0.012c-0.018-0.044 0.018-0.090 0.065-0.084 0.025 0.003 0.045 0.022 0.051 0.047l0.026 0.12c0.027 0.121 0.197 0.129 0.235 0.011 0.011-0.035 0.038-0.063 0.072-0.076l0.131-0.051c0.192-0.074 0.41 0.004 0.511 0.183l0.066 0.117c0.008 0.014 0.011 0.030 0.008 0.046-0.006 0.039-0.043 0.065-0.082 0.059-0.047-0.008-0.089 0.032-0.084 0.079l0.001 0.010c0.003 0.030 0.024 0.056 0.053 0.066l0.039 0.014c0.071 0.025 0.149-0.008 0.18-0.076l0.135-0.291c0.028-0.061 0.044-0.127 0.046-0.194l0.015-0.491c0.005-0.158-0.076-0.306-0.212-0.387-0.050-0.030-0.093-0.069-0.128-0.116l-0.169-0.23c-0.035-0.047-0.091-0.073-0.149-0.070-0.051 0.003-0.097 0.029-0.128 0.069l-0.030 0.041c-0.036 0.048-0.055 0.107-0.055 0.167v0.090c0 0.047 0.012 0.093 0.034 0.134l0.054 0.1c0.060 0.112-0.001 0.25-0.124 0.28l-0.045 0.011c-0.035 0.009-0.063 0.034-0.075 0.067-0.018 0.050-0.071 0.079-0.123 0.068l-0.183-0.038c-0.055-0.012-0.107-0.037-0.149-0.074l-0.186-0.164c-0.029-0.025-0.066-0.039-0.104-0.039-0.064 0-0.122-0.039-0.146-0.099l-0.023-0.058c-0.021-0.052-0.070-0.087-0.126-0.088-0.036-0.001-0.069-0.015-0.095-0.040l-0.347-0.343c-0.074-0.073-0.181-0.103-0.282-0.079-0.122 0.029-0.249-0.020-0.32-0.124l-0.026-0.038c-0.046-0.069-0.068-0.151-0.062-0.234l0.005-0.063c0.008-0.097-0.011-0.194-0.053-0.281l-0.128-0.263c-0.011-0.023-0.032-0.040-0.057-0.046-0.068-0.017-0.127 0.049-0.102 0.115l0.105 0.28c0.019 0.050 0.021 0.104 0.006 0.154l-0.127 0.434c-0.020 0.070-0.018 0.144 0.005 0.213l0.068 0.197c0.026 0.076 0.109 0.116 0.184 0.089l0.018-0.007c0.050-0.018 0.106 0 0.136 0.044 0.027 0.039 0.029 0.090 0.004 0.13l-0.136 0.222c-0.041 0.067-0.067 0.144-0.074 0.222l-0.035 0.381c-0.005 0.058-0.047 0.106-0.104 0.12-0.083 0.020-0.163-0.041-0.167-0.126l-0.024-0.547c-0.006-0.139-0.061-0.271-0.155-0.374l-0.13-0.141c-0.101-0.109-0.178-0.238-0.229-0.377l-0.154-0.427c-0.040-0.112-0.111-0.21-0.204-0.283-0.088-0.069-0.156-0.161-0.197-0.265l-0.045-0.114c-0.036-0.092-0.089-0.176-0.155-0.248l-0.205-0.224c-0.033-0.036-0.081-0.056-0.13-0.053-0.065 0.004-0.122 0.046-0.144 0.107l-0.064 0.174c-0.039 0.105-0.169 0.14-0.255 0.068l-0.052-0.043c-0.038-0.032-0.094-0.028-0.127 0.009-0.046 0.051-0.022 0.132 0.044 0.15l0.269 0.075c0.084 0.023 0.151 0.086 0.179 0.169l0.285 0.829c0.030 0.088 0.083 0.166 0.154 0.227l0.14 0.121c0.066 0.056 0.093 0.146 0.072 0.23-0.013 0.050-0.043 0.095-0.084 0.126l-0.386 0.289c-0.054 0.040-0.13 0.032-0.174-0.019-0.032-0.037-0.039-0.088-0.020-0.133l0.115-0.271c0.058-0.136 0.061-0.29 0.007-0.428l-0.073-0.188c-0.018-0.047-0.057-0.083-0.106-0.098-0.084-0.025-0.173 0.023-0.2 0.106l-0.081 0.25c-0.019 0.058-0.064 0.103-0.122 0.122l-0.173 0.055c-0.028 0.009-0.041 0.042-0.025 0.068 0.012 0.020 0.037 0.027 0.058 0.018l0.111-0.051c0.065-0.030 0.141-0.019 0.196 0.027l0.046 0.039c0.026 0.022 0.047 0.048 0.063 0.078l0.047 0.085c0.028 0.050 0.037 0.109 0.026 0.166l-0.003 0.016c-0.017 0.089 0.021 0.179 0.097 0.228l0.065 0.042c0.060 0.039 0.080 0.118 0.046 0.181-0.052 0.097-0.191 0.097-0.243 0.001l-0.035-0.065c-0.016-0.029-0.039-0.053-0.067-0.069l-0.006-0.003c-0.087-0.050-0.197-0.030-0.26 0.047l-0.084 0.104c-0.029 0.035-0.073 0.053-0.118 0.047-0.061-0.008-0.108-0.059-0.111-0.12l-0.010-0.161c-0.004-0.061-0.032-0.119-0.078-0.16-0.105-0.093-0.268-0.073-0.346 0.043l-0.096 0.141c-0.009 0.013-0.014 0.029-0.013 0.045 0.003 0.078-0.101 0.108-0.14 0.040l-0.676-1.168c-0.028-0.048-0.065-0.090-0.109-0.123l-0.2-0.15c-0.065-0.049-0.14-0.085-0.219-0.104l-0.075-0.019c-0.065-0.016-0.134-0.014-0.198 0.008l-0.138 0.047c-0.068 0.023-0.144-0.002-0.184-0.062l-0.024-0.035c-0.049-0.073-0.156-0.076-0.209-0.006-0.020 0.026-0.049 0.044-0.082 0.049l-0.127 0.020c-0.122 0.020-0.248-0.011-0.346-0.086l-0.494-0.375c-0.069-0.052-0.169-0.028-0.206 0.051-0.022 0.047-0.068 0.077-0.12 0.078l-0.298 0.008c-0.094 0.002-0.176 0.064-0.204 0.153-0.019 0.060-0.012 0.124 0.020 0.178l0.125 0.214c0.050 0.086-0 0.195-0.098 0.213-0.030 0.006-0.062 0.001-0.089-0.012l-0.242-0.119c-0.034-0.017-0.066-0.037-0.095-0.061l-0.119-0.095c-0.023-0.018-0.039-0.044-0.044-0.073l-0.011-0.058c-0.009-0.048-0.060-0.075-0.105-0.055-0.028 0.012-0.060 0.007-0.082-0.014l-0.154-0.143c-0.035-0.032-0.090 0.001-0.077 0.046 0.007 0.027-0.010 0.054-0.038 0.058l-0.137 0.023c-0.095 0.016-0.159 0.107-0.142 0.202l0.215 1.188c0.013 0.073-0.029 0.146-0.1 0.17-0.076 0.026-0.159-0.012-0.189-0.087l-0.018-0.045c-0.018-0.046-0.053-0.084-0.097-0.106l-0.025-0.013c-0.127-0.063-0.281-0.020-0.357 0.1l-0.061 0.097c-0.029 0.045-0.078 0.073-0.132 0.073-0.066 0-0.125 0.041-0.147 0.103l-0.042 0.118c-0.020 0.055-0.066 0.097-0.123 0.111l-0.046 0.012c-0.020 0.005-0.042 0.001-0.059-0.012-0.052-0.037-0.123 0.006-0.113 0.069l0.028 0.186c0.006 0.036 0.026 0.069 0.056 0.090l0.091 0.063c0.098 0.068 0.033 0.223-0.085 0.2-0.023-0.004-0.047-0.002-0.068 0.008l-0.060 0.028c-0.094 0.044-0.161 0.131-0.178 0.234l-0.021 0.127c-0.009 0.052 0.004 0.106 0.035 0.148l0.081 0.109c0.067 0.091-0.003 0.219-0.116 0.211-0.026-0.002-0.051-0.012-0.072-0.028l-0.176-0.139c-0.108-0.084-0.251-0.108-0.38-0.063l-0.169 0.059c-0.023 0.008-0.041 0.027-0.046 0.051-0.014 0.058-0.090 0.075-0.127 0.027l-0.98-1.259c-0.014-0.018-0.033-0.032-0.055-0.040-0.043-0.016-0.092-0.007-0.127 0.024l-0.054 0.049c-0.043 0.038-0.071 0.091-0.079 0.148l-0.032 0.225c-0.014 0.099-0.106 0.167-0.205 0.151l-0.043-0.007c-0.054-0.008-0.097-0.053-0.103-0.108-0.008-0.072 0.048-0.135 0.12-0.135 0.057 0 0.106-0.040 0.118-0.095l0.038-0.178c0.029-0.135-0.025-0.275-0.138-0.355l-0.044-0.031c-0.041-0.029-0.087-0.051-0.135-0.064l-0.076-0.021c-0.146-0.040-0.301-0.041-0.447-0.004l-0.204 0.052c-0.017 0.005-0.034 0.012-0.050 0.021-0.054 0.033-0.088 0.091-0.088 0.154l-0.002 0.205c-0.001 0.043-0.046 0.070-0.084 0.050-0.021-0.011-0.033-0.034-0.030-0.058l0.035-0.28c0.010-0.077 0.041-0.149 0.091-0.208l0.027-0.033c0.102-0.122 0.108-0.298 0.015-0.427l-0.079-0.11c-0.015-0.021-0.020-0.048-0.012-0.073l0.073-0.223c0.020-0.063-0.067-0.103-0.101-0.046-0.013 0.022-0.039 0.032-0.063 0.025l-0.014-0.004c-0.060-0.018-0.113 0.042-0.089 0.099l0.028 0.067c0.011 0.026 0.011 0.055 0.001 0.081l-0.079 0.202c-0.042 0.108-0.112 0.203-0.204 0.275l-0.246 0.194c-0.183 0.144-0.427 0.184-0.647 0.107l-0.096-0.034c-0.089-0.031-0.164-0.093-0.212-0.175-0.065-0.111-0.179-0.184-0.307-0.196l-0.167-0.016c-0.043-0.004-0.086 0.012-0.116 0.044-0.044 0.047-0.050 0.118-0.016 0.172l0.003 0.004c0.032 0.050 0.031 0.115-0.004 0.164l-0.084 0.117c-0.028 0.039-0.025 0.092 0.006 0.127 0.047 0.054 0.026 0.138-0.041 0.164l-0.016 0.006c-0.015 0.006-0.031 0.008-0.046 0.007l-0.432-0.022c-0.104-0.006-0.209 0.007-0.309 0.037-0.141 0.042-0.29 0.049-0.434 0.022l-0.607-0.117c-0.105-0.020-0.213-0.015-0.315 0.016-0.12 0.036-0.248 0.037-0.369 0.003l-0.446-0.126c-0.084-0.024-0.174-0.022-0.258 0.006l-0.112 0.037c-0.045 0.015-0.081 0.047-0.101 0.090-0.022 0.049-0.067 0.084-0.119 0.095l-0.526 0.108c-0.103 0.021-0.21 0.010-0.307-0.032-0.098-0.043-0.207-0.053-0.312-0.031l-0.301 0.065c-0.103 0.022-0.203 0.056-0.299 0.099l-0.534 0.244c-0.034 0.016-0.061 0.044-0.076 0.079l-0.038 0.092c-0.004 0.009-0.001 0.020 0.007 0.026 0.019 0.014 0.005 0.044-0.017 0.038l-0.539-0.119-3.652-1.088 0.132 0.023c0.091 0.016 0.183-0.023 0.235-0.098 0.041-0.059 0.053-0.134 0.032-0.203l-0.073-0.24c-0.003-0.011-0.002-0.022 0.004-0.032 0.016-0.029 0.059-0.027 0.073 0.003l0.004 0.009c0.010 0.022 0.035 0.032 0.058 0.024l0.013-0.005c0.032-0.012 0.047-0.048 0.035-0.079l-0.047-0.116c-0.021-0.053-0.066-0.093-0.12-0.108l-0.245-0.069c-0.042-0.012-0.087-0.002-0.12 0.027l-0.086 0.075c-0.018 0.016-0.017 0.044 0.002 0.058l0.009 0.007c0.028 0.021 0.011 0.065-0.024 0.062-0.008-0.001-0.015-0.004-0.021-0.010l-0.342-0.341c-0.083-0.083-0.195-0.129-0.312-0.127-0.092 0.001-0.183-0.027-0.258-0.081l-0.205-0.146c-0.106-0.076-0.188-0.181-0.235-0.304l-0.049-0.128c-0.034-0.088-0.103-0.159-0.19-0.195l-0.082-0.034c-0.074-0.031-0.158-0.016-0.217 0.038-0.046 0.042-0.11 0.061-0.171 0.051l-0.484-0.079c-0.126-0.020-0.243-0.078-0.336-0.165l-0.025-0.023c-0.055-0.052-0.098-0.116-0.124-0.186l-0.012-0.033c-0.052-0.138-0.171-0.24-0.316-0.27l-0.041-0.009c-0.167-0.035-0.337 0.047-0.414 0.2-0.067 0.134-0.206 0.215-0.355 0.208l-0.826-0.040c-0.021-0.001-0.042 0.007-0.057 0.022-0.044 0.044-0.12 0.018-0.128-0.044l-0.031-0.257c-0.006-0.051-0.044-0.092-0.095-0.102-0.072-0.014-0.114-0.088-0.088-0.157l0.010-0.028c0.010-0.025 0.026-0.048 0.048-0.064l0.192-0.144c0.074-0.056 0.155-0.101 0.242-0.133l0.111-0.042c0.187-0.070 0.385-0.109 0.585-0.114l0.485-0.012c0.218-0.006 0.435-0.039 0.644-0.1l0.074-0.021c0.070-0.020 0.139-0.046 0.205-0.077l0.303-0.139c0.082-0.038 0.15-0.099 0.195-0.177l0.014-0.025c0.065-0.112 0.182-0.184 0.312-0.191l0.044-0.002c0.050-0.003 0.099-0.021 0.138-0.052 0.088-0.069 0.118-0.189 0.073-0.292l-0.27-0.613c-0.030-0.068-0.072-0.13-0.124-0.184l-0.080-0.081c-0.032-0.032-0.072-0.055-0.116-0.065-0.067-0.015-0.137 0-0.192 0.042l-0.117 0.088c-0.079 0.060-0.175 0.095-0.275 0.099-0.065 0.003-0.13-0.008-0.191-0.030l-1.498-0.556c-0.129-0.048-0.182-0.201-0.11-0.318 0.038-0.061 0.103-0.1 0.175-0.103l0.045-0.002c0.083-0.004 0.157-0.055 0.191-0.131l0.005-0.012c0.045-0.099 0.159-0.147 0.261-0.109 0.047 0.018 0.099 0.017 0.146-0.001l0.143-0.055c0.056-0.021 0.118 0.002 0.146 0.055 0.014 0.026 0.037 0.047 0.066 0.056l0.668 0.231c0.169 0.058 0.346 0.093 0.525 0.102l0.263 0.013c0.153 0.008 0.306-0.015 0.45-0.068 0.117-0.043 0.241-0.066 0.366-0.069l0.1-0.002c0.209-0.005 0.418 0.028 0.616 0.097l0.227 0.079c0.276 0.096 0.564 0.152 0.855 0.167l0.020 0.001c0.203 0.010 0.404 0.040 0.601 0.088l0.403 0.099c0.213 0.052 0.435 0.057 0.65 0.015l0.244-0.048c0.11-0.022 0.212-0.073 0.295-0.148l0.12-0.109c0.017-0.015 0.028-0.035 0.033-0.057 0.014-0.062-0.028-0.122-0.090-0.131l-0.136-0.020c-0.026-0.004-0.053-0.003-0.079 0.002l-0.344 0.067c-0.057 0.011-0.111 0.030-0.163 0.057l-0.204 0.106c-0.028 0.014-0.047 0.040-0.054 0.071-0.011 0.048-0.054 0.082-0.103 0.082h-0.079c-0.038 0-0.076-0.011-0.108-0.031l-0.207-0.13c-0.068-0.043-0.054-0.146 0.023-0.168l0.012-0.004c0.038-0.011 0.061-0.048 0.056-0.087l-0.004-0.024c-0.003-0.018-0.017-0.033-0.036-0.037l-0.064-0.012c-0.042-0.008-0.038-0.069 0.004-0.071 0.038-0.002 0.047-0.055 0.011-0.070l-0.050-0.020c-0.014-0.006-0.024-0.017-0.028-0.031l-0.032-0.112c-0.015-0.053 0.001-0.11 0.042-0.147l0.059-0.054c0.035-0.032 0.033-0.088-0.004-0.117l-0.031-0.025c-0.040-0.032-0.024-0.095 0.026-0.104 0.027-0.005 0.047-0.028 0.048-0.055l0.008-0.185c0.003-0.073-0.021-0.144-0.068-0.199l-0.004-0.004c-0.028-0.033-0.062-0.059-0.1-0.078l-0.136-0.066c-0.266-0.13-0.575-0.138-0.847-0.021l-0.327 0.14c-0.332 0.142-0.717-0.005-0.871-0.332-0.104-0.222-0.322-0.37-0.567-0.385-0.139-0.009-0.273-0.060-0.381-0.148l-0.632-0.508c-0.043-0.035-0.059-0.094-0.040-0.146 0.018-0.048 0.062-0.080 0.113-0.083l0.313-0.017c0.055-0.003 0.084-0.065 0.051-0.109-0.031-0.041-0.006-0.101 0.044-0.109l0.411-0.064c0.174-0.027 0.293-0.19 0.267-0.364l-0.057-0.37c-0.007-0.048-0.052-0.081-0.099-0.073-0.045 0.007-0.088-0.022-0.098-0.067l-0.014-0.058c-0.019-0.082 0.032-0.164 0.113-0.183l0.386-0.091c0.048-0.011 0.098 0 0.136 0.032 0.035 0.029 0.080 0.041 0.125 0.034l0.459-0.074c0.064-0.010 0.117-0.054 0.139-0.114 0.021-0.057 0.070-0.1 0.13-0.113l0.167-0.035c0.189-0.040 0.316-0.219 0.292-0.411l-0.008-0.066c-0.015-0.119 0.047-0.235 0.156-0.288l0.163-0.079c0.061-0.029 0.083-0.105 0.048-0.163-0.062-0.103 0.055-0.22 0.158-0.157l1.072 0.649c0.045 0.027 0.097 0.039 0.149 0.034 0.139-0.013 0.238-0.14 0.217-0.278l-0.009-0.058c-0.025-0.162 0.086-0.314 0.248-0.339l0.698-0.11c0.123-0.019 0.239 0.062 0.263 0.184 0.024 0.119 0.135 0.2 0.255 0.185l0.326-0.040c0.126-0.015 0.213-0.133 0.191-0.259l-0.023-0.128c-0.008-0.046 0.021-0.089 0.067-0.099s0.075-0.054 0.067-0.1l-0.072-0.4c-0.007-0.038 0.020-0.074 0.058-0.079 0.037-0.005 0.070 0.021 0.076 0.057l0.006 0.042c0.009 0.061 0.066 0.103 0.127 0.093l0.086-0.013c0.087-0.013 0.172 0.032 0.21 0.112l0.016 0.033c0.044 0.092 0.139 0.148 0.241 0.141l0.818-0.057c0.187-0.013 0.352 0.121 0.378 0.306 0.027 0.197 0.21 0.333 0.406 0.303l0.35-0.053c0.025-0.004 0.051 0.004 0.070 0.020l0.002 0.002c0.047 0.041 0.12 0.019 0.137-0.041 0.009-0.033 0.038-0.057 0.072-0.061l0.375-0.042c0.039-0.004 0.070-0.035 0.075-0.075 0.004-0.037 0.033-0.068 0.070-0.074l1.534-0.264c0.054-0.009 0.091-0.061 0.082-0.115s-0.061-0.091-0.115-0.082l-0.067 0.011c-0.085 0.014-0.165-0.042-0.182-0.126s-0.097-0.14-0.182-0.126l-0.563 0.092c-0.037 0.006-0.075 0.002-0.109-0.013-0.066-0.028-0.111-0.088-0.12-0.159l-0.001-0.005c-0.013-0.106 0.057-0.204 0.162-0.227l0.791-0.171c0.075-0.016 0.124-0.088 0.112-0.163-0.013-0.080 0.044-0.155 0.125-0.165l0.423-0.052c0.081-0.010 0.136-0.086 0.119-0.166-0.014-0.070-0.079-0.118-0.151-0.11l-0.054 0.006c-0.093 0.010-0.181-0.047-0.21-0.136l-0.132-0.405c-0.031-0.094-0.002-0.198 0.074-0.263s0.185-0.077 0.274-0.031l0.336 0.177c0.235 0.124 0.526 0.050 0.674-0.171 0.167-0.249 0.089-0.588-0.17-0.739l-0.923-0.539c-0.19-0.111-0.336-0.284-0.415-0.489-0.118-0.31-0.067-0.659 0.133-0.924l0.133-0.175c0.038-0.050 0.066-0.108 0.080-0.169l0.019-0.079c0.038-0.159 0.181-0.271 0.344-0.271h0.257c0.015 0 0.028-0.010 0.032-0.025 0.007-0.030 0.047-0.034 0.061-0.007l0.078 0.154c0.014 0.027 0.040 0.046 0.070 0.051l0.116 0.018c0.053 0.008 0.1-0.036 0.093-0.090-0.004-0.032 0.012-0.063 0.039-0.079l0.206-0.125c0.071-0.043 0.116-0.12 0.117-0.203 0.003-0.12 0.092-0.22 0.21-0.236l0.022-0.003c0.106-0.015 0.211 0.035 0.268 0.126l0.035 0.057c0.038 0.062 0.102 0.105 0.175 0.116l0.050 0.008c0.027 0.004 0.055-0.002 0.078-0.016 0.065-0.041 0.071-0.133 0.012-0.183-0.028-0.023-0.043-0.059-0.040-0.095l0.003-0.047c0.007-0.097 0.080-0.177 0.177-0.191l0.017-0.002c0.181-0.026 0.259-0.245 0.135-0.379l-0.213-0.231c-0.015-0.016-0.031-0.032-0.049-0.045l-0.19-0.146c-0.023-0.017-0.050-0.026-0.079-0.025-0.067 0.003-0.124-0.050-0.126-0.117l-0.012-0.399c-0.004-0.123 0.068-0.236 0.182-0.285 0.126-0.054 0.2-0.187 0.178-0.323l-0.031-0.198c-0.048-0.302-0.331-0.509-0.634-0.463l-0.379 0.058c-0.068 0.010-0.136-0.026-0.165-0.088-0.009-0.018-0.014-0.038-0.015-0.059l-0.043-0.858c-0.004-0.086 0.050-0.163 0.132-0.188 0.081-0.025 0.135-0.101 0.132-0.185l-0.004-0.105c-0.001-0.043 0.024-0.082 0.065-0.097 0.064-0.024 0.132 0.021 0.135 0.089l0.023 0.482c0.012 0.238 0.225 0.414 0.461 0.38 0.215-0.031 0.366-0.226 0.343-0.442l-0.105-0.992c-0.010-0.092 0.038-0.181 0.121-0.224 0.086-0.044 0.134-0.138 0.12-0.233l-0.033-0.224c-0.001-0.010-0.004-0.019-0.009-0.028-0.024-0.050-0.086-0.069-0.134-0.041l-0.133 0.076c-0.155 0.089-0.35-0.017-0.358-0.196l-0.007-0.142z"></path>
</svg>
