<!-- Generated by IcoMoon.io -->
<svg version="1.1" xmlns="http://www.w3.org/2000/svg" width="18" height="32" viewBox="0 0 18 32">
<path stroke-linejoin="round" stroke-linecap="round" stroke-miterlimit="4" stroke-width="0.2949" stroke="#000" fill="#000" d="M1.004 6.46c0.030-0.029 0.078-0.031 0.109-0.002l0.019 0.017c0.025 0.022 0.058 0.032 0.091 0.025l0.341-0.065c0.111-0.021 0.209-0.085 0.273-0.179 0.044-0.064 0.069-0.14 0.074-0.218 0.005-0.096 0.042-0.187 0.105-0.259l0.062-0.071c0.023-0.026 0.047-0.050 0.073-0.072l0.265-0.226c0.042-0.036 0.095-0.058 0.15-0.063 0.071-0.006 0.137-0.041 0.183-0.096l0.018-0.022c0.043-0.052 0.108-0.082 0.176-0.080l0.874 0.020c0.027 0.001 0.036-0.036 0.012-0.048-0.008-0.004-0.013-0.012-0.014-0.021l-0.006-0.104c-0.003-0.048 0.033-0.088 0.081-0.091l0.039-0.003c0.044-0.003 0.070-0.049 0.050-0.088-0.013-0.026-0.006-0.058 0.018-0.076l0.070-0.053c0.028-0.021 0.047-0.052 0.054-0.086l0.012-0.061c0.009-0.045 0.053-0.074 0.097-0.064l0.027 0.006c0.038 0.008 0.074-0.022 0.073-0.061-0.001-0.034 0.025-0.062 0.059-0.063l0.002-0c0.040-0.001 0.069-0.040 0.058-0.078l-0.010-0.036c-0.012-0.044 0.010-0.091 0.052-0.108l0.152-0.064c0.072-0.030 0.128-0.089 0.154-0.163l0.031-0.088c0.045-0.127 0.171-0.207 0.305-0.193l0.034 0.003c0.119 0.012 0.23-0.062 0.265-0.176l0.034-0.112c0.018-0.058 0.076-0.094 0.136-0.083 0.062 0.011 0.122-0.027 0.137-0.087l0.069-0.265c0.012-0.047 0.060-0.075 0.107-0.063 0.051 0.013 0.103-0.022 0.109-0.075l0.035-0.282c0.005-0.039 0.041-0.066 0.079-0.061 0.055 0.008 0.097-0.049 0.073-0.099l-0.024-0.050c-0.010-0.022-0.012-0.046-0.006-0.069l0.063-0.232c0.005-0.017 0.018-0.030 0.034-0.035 0.035-0.010 0.068 0.020 0.062 0.055l-0.010 0.063c-0.010 0.063 0.046 0.116 0.109 0.103l0.297-0.063c0.018-0.004 0.033-0.017 0.038-0.035 0.012-0.039-0.025-0.075-0.063-0.063l-0.059 0.018c-0.058 0.018-0.115-0.031-0.107-0.092l0.014-0.106c0.004-0.030 0.029-0.053 0.059-0.054 0.024-0.001 0.046-0.016 0.055-0.038l0.025-0.059c0.025-0.059 0.081-0.098 0.145-0.099l0.081-0.002c0.093-0.002 0.174-0.065 0.2-0.155l0.019-0.067c0.008-0.029 0.030-0.051 0.059-0.059 0.031-0.009 0.064-0.001 0.086 0.022l0.036 0.036c0.071 0.072 0.189 0.067 0.254-0.011l0.134-0.161c0.116-0.139 0.318-0.169 0.469-0.070 0.033 0.022 0.070 0.038 0.108 0.048l0.321 0.081c0.067 0.017 0.136-0.017 0.164-0.080 0.015-0.034 0.043-0.061 0.077-0.074l0.054-0.021c0.064-0.025 0.113-0.078 0.133-0.144 0.034-0.112 0.148-0.179 0.262-0.155l0.081 0.017c0.128 0.027 0.25-0.065 0.26-0.195 0.005-0.070 0.044-0.133 0.105-0.169l0.26-0.155c0.050-0.030 0.113-0.029 0.161 0.003 0.043 0.028 0.069 0.076 0.070 0.127l0 0.055c0.001 0.145 0.122 0.26 0.267 0.254l0.104-0.005c0.16-0.007 0.305 0.094 0.355 0.246l0.013 0.039c0.032 0.099 0.1 0.182 0.191 0.232l0.261 0.145c0.066 0.037 0.114 0.099 0.131 0.173l0.023 0.095c0.018 0.073 0.086 0.123 0.161 0.118 0.098-0.007 0.178 0.079 0.164 0.176l-0.036 0.251c-0.007 0.048-0.024 0.095-0.049 0.136l-0.254 0.413c-0.029 0.047-0.049 0.099-0.060 0.154-0.040 0.199 0.051 0.4 0.227 0.501l0.217 0.125c0.111 0.064 0.177 0.184 0.172 0.312-0.008 0.193 0.144 0.354 0.337 0.357l0.032 0.001c0.078 0.001 0.154 0.027 0.216 0.074l0.079 0.059 0.278 0.272c0.035 0.034 0.022 0.094-0.024 0.11l-0.033 0.011c-0.019 0.007-0.029 0.029-0.020 0.048l0.002 0.004c0.011 0.023-0.008 0.049-0.033 0.046-0.032-0.003-0.049 0.036-0.025 0.057l0.207 0.177c0.016 0.014 0.041 0.003 0.043-0.018 0.001-0.014 0.014-0.025 0.028-0.024l0.081 0.007c0.054 0.005 0.097 0.050 0.097 0.104l0 0.015c0.001 0.059 0.043 0.109 0.102 0.119l0.122 0.021c0.093 0.016 0.171 0.080 0.206 0.168l0.008 0.020c0.023 0.057 0.062 0.107 0.113 0.142l0.181 0.124c0.020 0.013 0.043 0.020 0.067 0.019 0.038-0.002 0.072-0.025 0.089-0.059l0.057-0.115c0.037-0.075 0.103-0.131 0.182-0.156l0.095-0.030c0.159-0.050 0.319 0.074 0.309 0.24l-0.012 0.223c-0.002 0.042 0.036 0.075 0.077 0.067 0.034-0.007 0.068 0.015 0.076 0.048l0.127 0.528c0.011 0.046 0.055 0.077 0.103 0.070 0.055-0.008 0.092-0.062 0.077-0.116l-0.005-0.018c-0.015-0.057 0.017-0.115 0.074-0.132l0.016-0.005c0.079-0.024 0.16 0.034 0.162 0.116l0.004 0.118c0.001 0.033 0.013 0.064 0.034 0.088 0.063 0.074 0.037 0.188-0.053 0.226l-0.172 0.073c-0.085 0.036-0.147 0.112-0.165 0.202l-0.028 0.139c-0.005 0.025 0.005 0.050 0.025 0.065l0.036 0.026c0.034 0.026 0.020 0.080-0.023 0.085-0.029 0.003-0.048 0.031-0.040 0.059l0.017 0.061c0.007 0.025 0.004 0.052-0.009 0.075l-0.013 0.024c-0.053 0.097-0.002 0.217 0.105 0.246l0.145 0.039c0.105 0.028 0.184 0.113 0.207 0.219l0.077 0.361c0.009 0.045-0.002 0.092-0.031 0.128-0.049 0.060-0.135 0.074-0.2 0.033l-0.011-0.007c-0.077-0.049-0.18-0.026-0.229 0.051l-0.066 0.103c-0.086 0.133-0.262 0.173-0.397 0.089l-0.074-0.046c-0.019-0.012-0.040-0.019-0.062-0.020l-0.032-0.002c-0.040-0.003-0.077 0.022-0.091 0.060l-0.004 0.010c-0.009 0.026-0.032 0.044-0.059 0.048-0.037 0.005-0.065 0.037-0.064 0.075l0.005 0.177c0.001 0.030 0.007 0.061 0.018 0.089l0.195 0.504c0.021 0.053-0.007 0.113-0.062 0.131-0.037 0.012-0.064 0.046-0.068 0.085l-0.006 0.062c-0.003 0.028-0.024 0.050-0.051 0.055-0.030 0.005-0.052 0.031-0.051 0.062l0.004 0.295c0.001 0.047 0.034 0.087 0.080 0.097l0.004 0.001c0.032 0.007 0.065-0.004 0.088-0.027 0.038-0.040 0.103-0.039 0.139 0.002l0.153 0.175c0.025 0.029 0.063 0.043 0.101 0.038l0.007-0.001c0.092-0.012 0.157 0.087 0.111 0.167-0.017 0.029-0.020 0.064-0.008 0.095l0.094 0.249c0.018 0.047 0.022 0.099 0.011 0.149-0.014 0.064-0.004 0.132 0.030 0.189l0.242 0.415c0.032 0.055 0.112 0.055 0.144 0 0.017-0.030 0.052-0.046 0.086-0.040l0.274 0.045c0.133 0.022 0.204 0.168 0.141 0.286l-0.009 0.017c-0.058 0.108 0.005 0.242 0.126 0.264 0.036 0.007 0.068 0.024 0.094 0.050l0.472 0.469c0.040 0.039 0.095 0.057 0.15 0.049 0.068-0.011 0.124-0.060 0.142-0.127l0.015-0.055c0.011-0.040 0.044-0.071 0.085-0.079 0.064-0.013 0.125 0.034 0.131 0.099l0.005 0.062c0.004 0.049-0.014 0.097-0.049 0.131l-0.221 0.217c-0.019 0.018-0.024 0.046-0.014 0.070 0.016 0.039-0.009 0.082-0.051 0.088l-0.192 0.025c-0.112 0.015-0.193 0.114-0.185 0.226l0.008 0.114c0.007 0.101 0.059 0.193 0.142 0.251l0.11 0.078c0.128 0.090 0.206 0.234 0.21 0.39l0.001 0.031c0 0.005 0 0.011-0.001 0.016l-0.010 0.081c-0.004 0.036-0.044 0.055-0.075 0.037-0.027-0.016-0.063-0.003-0.073 0.028l-0.042 0.131c-0.014 0.043-0.046 0.078-0.087 0.097l-0.032 0.014c-0.049 0.022-0.089 0.059-0.114 0.106l-0.006 0.011c-0.060 0.111-0.036 0.249 0.058 0.333l0.065 0.058c0.089 0.080 0.136 0.198 0.126 0.317l-0.009 0.112c-0.003 0.043-0.024 0.083-0.056 0.112l-0.003 0.003c-0.068 0.060-0.172 0.052-0.23-0.018l-0.013-0.015c-0.042-0.050-0.112-0.063-0.169-0.033-0.044 0.024-0.072 0.070-0.072 0.12l-0.001 0.218c-0.001 0.114 0.076 0.215 0.187 0.245l0.184 0.049c0.051 0.013 0.078 0.069 0.057 0.117-0.014 0.034-0.048 0.055-0.085 0.052l-0.006-0c-0.042-0.003-0.080 0.022-0.095 0.061l-0.043 0.114c-0.008 0.022-0.019 0.042-0.033 0.061l-0.065 0.089c-0.023 0.032-0.029 0.072-0.016 0.109 0.023 0.064 0.095 0.095 0.157 0.069 0.030-0.013 0.065-0.012 0.095 0.001l0.174 0.078c0.030 0.013 0.064 0.014 0.094 0.002 0.047-0.018 0.1-0.006 0.134 0.031l0.12 0.128c0.025 0.027 0.064 0.036 0.098 0.023 0.071-0.026 0.141 0.041 0.118 0.114l-0.085 0.264c-0.017 0.052-0.056 0.095-0.108 0.115l-0.078 0.031c-0.034 0.013-0.055 0.049-0.049 0.085 0.005 0.034 0.032 0.061 0.065 0.066l0.042 0.007c0.034 0.006 0.060 0.035 0.061 0.070s-0.024 0.067-0.060 0.073l-0.017 0.003c-0.047 0.008-0.080 0.051-0.075 0.099l0.001 0.013c0.004 0.041 0.031 0.076 0.070 0.090l0.112 0.040c0.069 0.025 0.126 0.075 0.16 0.14l0.060 0.115c0.037 0.071 0.045 0.153 0.024 0.23-0.023 0.082-0.011 0.169 0.031 0.242 0.030 0.053 0.045 0.113 0.043 0.174l-0.005 0.111c-0.002 0.041-0.015 0.081-0.038 0.115l-0.009 0.013c-0.053 0.077-0.046 0.18 0.017 0.249l0.049 0.054c0.051 0.056 0.044 0.144-0.015 0.191-0.042 0.034-0.059 0.091-0.043 0.143l0.046 0.142c0.020 0.062 0.081 0.102 0.145 0.095l0.004-0c0.043-0.005 0.086 0.013 0.114 0.046 0.014 0.017 0.023 0.037 0.027 0.059l0.031 0.164c0.016 0.086-0.012 0.175-0.075 0.236-0.032 0.031-0.071 0.053-0.113 0.065l-0.088 0.024c-0.086 0.024-0.178 0.009-0.252-0.041l-0.061-0.041c-0.024-0.016-0.052-0.023-0.081-0.018l-0.044 0.006c-0.029 0.004-0.056-0.012-0.066-0.040-0.014-0.039-0.061-0.053-0.094-0.028l-0.108 0.083c-0.027 0.021-0.067 0.012-0.083-0.018-0.028-0.052-0.107-0.031-0.105 0.028l0.003 0.072c0.001 0.025-0.011 0.049-0.032 0.063l-0.164 0.109c-0.030 0.020-0.043 0.056-0.034 0.091 0.008 0.029-0 0.060-0.022 0.082l-0.054 0.052c-0.060 0.058-0.148 0.074-0.225 0.042l-0.033-0.014c-0.053-0.022-0.113-0.017-0.161 0.014-0.060 0.039-0.137 0.037-0.195-0.004l-0.407-0.288c-0.042-0.030-0.1-0.023-0.134 0.016-0.015 0.018-0.036 0.030-0.060 0.033l-0.131 0.022c-0.117 0.019-0.197 0.127-0.183 0.244 0.009 0.070-0.017 0.139-0.068 0.188l-0.022 0.020c-0.062 0.058-0.156 0.068-0.228 0.022l-0.198-0.125c-0.051-0.032-0.117 0.009-0.111 0.069 0.005 0.055-0.050 0.096-0.101 0.074l-0.102-0.043c-0.047-0.020-0.102-0.012-0.141 0.020l-0.002 0.001c-0.046 0.037-0.064 0.1-0.045 0.156l0.014 0.041c0.023 0.069 0.008 0.146-0.040 0.201l-0.076 0.088c-0.037 0.042-0.039 0.105-0.005 0.15 0.058 0.077 0.006 0.187-0.090 0.191l-0.259 0.011c-0.082 0.003-0.157 0.046-0.202 0.114l-0.442 0.675c-0.037 0.056-0.020 0.131 0.037 0.165 0.048 0.029 0.069 0.089 0.049 0.142l-0.001 0.002c-0.015 0.040-0.008 0.086 0.020 0.119l0.115 0.139c0.047 0.057 0.071 0.129 0.069 0.202-0.003 0.079-0.037 0.155-0.096 0.209l-0.020 0.018c-0.070 0.065-0.112 0.155-0.116 0.251l-0.006 0.127c-0.007 0.147 0.034 0.292 0.117 0.413l0.003 0.004c0.076 0.112 0.118 0.244 0.12 0.38l0.006 0.402v0.111c0 0.035-0.005 0.071-0.014 0.105l-0.017 0.063c-0.020 0.071-0.007 0.148 0.035 0.209 0.059 0.087 0.058 0.202-0.003 0.288l-0.096 0.136c-0.011 0.015-0.015 0.035-0.011 0.054 0.009 0.039-0.018 0.077-0.057 0.082l-0.034 0.004c-0.051 0.006-0.089 0.051-0.086 0.102l0.001 0.014c0.002 0.025 0.012 0.049 0.029 0.068l0.090 0.099c0.055 0.060 0.063 0.15 0.020 0.219-0.030 0.048-0.035 0.107-0.016 0.16l0.045 0.121c0.054 0.146 0.029 0.31-0.067 0.432l-0.032 0.041c-0.046 0.058-0.079 0.125-0.098 0.196l-0.115 0.437c-0.016 0.059-0.067 0.102-0.128 0.108s-0.111 0.047-0.127 0.106l-0.033 0.12c-0.019 0.067-0.066 0.122-0.13 0.151-0.082 0.037-0.179 0.023-0.247-0.036l-0.188-0.162c-0.062-0.053-0.141-0.082-0.222-0.080l-0.099 0.001c-0.078 0.001-0.147 0.050-0.174 0.123-0.022 0.061-0.012 0.128 0.027 0.18l0.108 0.141c0.059 0.078 0.060 0.185 0.002 0.264-0.055 0.075-0.152 0.107-0.242 0.080l-0.524-0.161c-0.096-0.029-0.2-0.025-0.293 0.012-0.064 0.026-0.121 0.065-0.166 0.117l-0.012 0.013c-0.093 0.105-0.224 0.167-0.364 0.173l-0.030 0.001c-0.052 0.002-0.105-0.002-0.156-0.014l-0.709-0.161c-0.047-0.011-0.085-0.044-0.102-0.089-0.034-0.091-0.146-0.122-0.222-0.062l-0.033 0.026c-0.028 0.022-0.063 0.035-0.099 0.037l-0.101 0.005c-0.153 0.008-0.294 0.087-0.379 0.214l-0.073 0.108c-0.032 0.048-0.078 0.086-0.131 0.109-0.093 0.040-0.199 0.032-0.284-0.023l-0.135-0.086c-0.082-0.052-0.15-0.124-0.199-0.208l-0.076-0.131c-0.032-0.056-0.043-0.121-0.032-0.185l0.016-0.090c0.014-0.078-0.030-0.156-0.105-0.183-0.054-0.020-0.115-0.009-0.16 0.027l-0.039 0.032c-0.086 0.071-0.115 0.189-0.072 0.292l0.050 0.117c0.035 0.083 0.029 0.179-0.016 0.257l-0.047 0.080c-0.031 0.053-0.090 0.082-0.151 0.073-0.062-0.009-0.112-0.054-0.126-0.115l-0.064-0.277c-0.011-0.045-0.039-0.085-0.078-0.11l-0.074-0.046c-0.038-0.024-0.088-0.014-0.114 0.022-0.025 0.035-0.020 0.082 0.011 0.111l0.084 0.079c0.032 0.030 0.054 0.070 0.064 0.113l0.017 0.078c0.009 0.044 0.010 0.088 0.003 0.132l-0.009 0.057c-0.008 0.050-0.035 0.096-0.074 0.128s-0.088 0.048-0.139 0.047l-0.046-0.002c-0.079-0.003-0.155-0.034-0.213-0.088l-0.269-0.248c-0.060-0.055-0.138-0.086-0.219-0.087l-0.020-0c-0.058-0.001-0.115 0.017-0.162 0.051l-0.025 0.018c-0.033 0.024-0.057 0.059-0.068 0.098l-0.005 0.020c-0.012 0.044-0.003 0.090 0.026 0.126 0.031 0.039 0.081 0.059 0.13 0.051l0.243-0.035c0.096-0.014 0.186 0.047 0.208 0.141 0.009 0.038 0.030 0.072 0.059 0.098l0.206 0.179c0.028 0.024 0.049 0.056 0.060 0.092 0.025 0.082-0.005 0.172-0.075 0.221-0.032 0.022-0.070 0.035-0.109 0.035l-0.143 0.003c-0.127 0.003-0.248-0.054-0.328-0.154l-0.065-0.082c-0.031-0.039-0.076-0.063-0.126-0.066l-0.013-0.001c-0.081-0.005-0.153 0.051-0.167 0.131-0.005 0.029-0.002 0.059 0.009 0.087l0.088 0.222c0.046 0.115-0.001 0.246-0.11 0.306-0.051 0.028-0.109 0.037-0.166 0.026l-0.121-0.024c-0.172-0.033-0.319-0.142-0.402-0.296l-0.434-0.803c-0.063-0.117-0.197-0.177-0.326-0.147l-0.14 0.032c-0.043 0.010-0.087-0.009-0.109-0.047-0.024-0.041-0.072-0.059-0.117-0.046l-0.078 0.024c-0.067 0.021-0.14-0.001-0.185-0.055l-0.045-0.055c-0.065-0.079-0.19-0.058-0.226 0.038l-0.017 0.045c-0.009 0.023-0.031 0.039-0.056 0.040-0.039 0.001-0.069-0.036-0.061-0.074l0.015-0.064c0.011-0.050-0.012-0.1-0.057-0.124l-0.112-0.059c-0.050-0.027-0.063-0.093-0.027-0.137l0.069-0.083c0.028-0.034-0-0.084-0.044-0.078-0.020 0.003-0.040-0.008-0.050-0.026l-0.153-0.3c-0.013-0.025-0.033-0.045-0.057-0.059l-0.090-0.049c-0.071-0.038-0.063-0.144 0.014-0.17l0.033-0.011c0.035-0.012 0.052-0.052 0.036-0.085-0.009-0.019-0.028-0.032-0.049-0.035l-0.147-0.017c-0.048-0.006-0.071-0.062-0.041-0.1 0.038-0.047-0.007-0.115-0.065-0.098l-0.067 0.019c-0.058 0.017-0.114-0.032-0.105-0.092l0.008-0.055c0.011-0.075-0.050-0.142-0.126-0.136l-0.037 0.003c-0.059 0.004-0.11-0.041-0.113-0.1l-0-0.003c-0.003-0.061-0.058-0.106-0.119-0.097l-0.026 0.004c-0.028 0.004-0.055-0.009-0.068-0.034-0.015-0.027-0.009-0.061 0.015-0.082l0.048-0.041c0.053-0.045 0.066-0.121 0.031-0.181l-0.002-0.004c-0.021-0.037-0.026-0.081-0.013-0.121l0.096-0.294c0.009-0.027 0.002-0.056-0.016-0.077l-0.071-0.079c-0.031-0.035 0.002-0.089 0.047-0.077l0.002 0.001c0.022 0.006 0.044-0.006 0.052-0.026 0.007-0.019 0.001-0.040-0.015-0.052l-0.052-0.038c-0.043-0.032-0.062-0.088-0.047-0.139 0.020-0.071-0.022-0.147-0.094-0.164l-0.003-0.001c-0.046-0.011-0.082-0.046-0.096-0.091l-0.043-0.14c-0.008-0.025 0-0.052 0.020-0.069l0.001-0.001c0.024-0.021 0.059-0.021 0.084-0.001 0.048 0.041 0.12-0.006 0.103-0.067l-0.003-0.012c-0.015-0.052 0.034-0.1 0.086-0.083l0.060 0.019c0.026 0.008 0.055 0 0.072-0.021 0.033-0.040 0.011-0.101-0.041-0.11l-0.063-0.011c-0.036-0.006-0.067-0.031-0.080-0.066l-0.133-0.349c-0.012-0.032-0.036-0.058-0.066-0.073-0.060-0.030-0.089-0.1-0.068-0.164l0.047-0.142c0.019-0.059 0.019-0.122-0.001-0.181l-0.032-0.092c-0.014-0.042-0.005-0.088 0.025-0.121l0.066-0.072c0.028-0.031 0.015-0.081-0.024-0.093-0.018-0.006-0.037-0.003-0.052 0.008l-0.058 0.043c-0.040 0.030-0.098 0.017-0.123-0.027l-0.034-0.060c-0.016-0.029 0.005-0.064 0.038-0.064 0.026 0 0.046-0.023 0.043-0.048l-0.017-0.142c-0.004-0.033 0.002-0.067 0.017-0.097l0.055-0.108c0.036-0.072 0.020-0.159-0.040-0.213l-0.102-0.092c-0.047-0.042-0.035-0.119 0.023-0.146 0.076-0.035 0.066-0.145-0.015-0.165-0.025-0.006-0.046-0.022-0.057-0.045l-0.003-0.005c-0.022-0.044-0.010-0.097 0.030-0.125l0.017-0.013c0.032-0.023 0.073-0.030 0.111-0.018l0.053 0.017c0.036 0.012 0.076-0.003 0.096-0.036 0.016-0.028 0.015-0.062-0.004-0.088l-0.086-0.12c-0.033-0.046-0.036-0.107-0.007-0.155 0.030-0.051 0.025-0.115-0.012-0.161l-0.087-0.11c-0.045-0.057-0.037-0.14 0.018-0.188l0.084-0.072c0.049-0.042 0.030-0.122-0.033-0.137-0.045-0.011-0.072-0.059-0.056-0.103l0.066-0.192c0.014-0.041 0.018-0.086 0.011-0.129l-0.053-0.318c-0.005-0.030 0.005-0.060 0.027-0.082 0.026-0.026 0.035-0.065 0.022-0.099l-0.097-0.262c-0.013-0.035 0.009-0.072 0.046-0.077 0.052-0.008 0.068-0.074 0.025-0.104l-0.047-0.033c-0.029-0.020-0.041-0.057-0.030-0.091l0.012-0.038c0.011-0.032 0.009-0.067-0.006-0.098l-0.026-0.056c-0.034-0.072-0.033-0.156 0.001-0.228l0.035-0.073c0.010-0.020 0.010-0.044 0.002-0.064l-0.008-0.019c-0.014-0.037 0.008-0.077 0.046-0.085 0.029-0.006 0.049-0.031 0.050-0.060l0.003-0.095c0.004-0.101 0.087-0.18 0.188-0.179l0.125 0.002c0.056 0.001 0.102-0.046 0.098-0.103-0.002-0.029 0.010-0.058 0.031-0.077l0.062-0.056c0.028-0.026 0.033-0.069 0.010-0.101l-0.066-0.091c-0.017-0.023 0.003-0.055 0.031-0.049 0.024 0.005 0.044-0.019 0.035-0.042l-0.021-0.054c-0.010-0.024 0.002-0.052 0.026-0.062 0.031-0.013 0.039-0.053 0.016-0.077l-0.048-0.051c-0.018-0.019-0.028-0.045-0.027-0.071l0.002-0.058c0.003-0.069-0.025-0.135-0.075-0.181l-0.081-0.074c-0.042-0.038-0.065-0.092-0.065-0.149l0.002-0.166c0-0.032 0.028-0.056 0.060-0.052 0.043 0.006 0.074-0.040 0.053-0.078l-0.028-0.050c-0.015-0.028-0.013-0.061 0.005-0.087l0.009-0.012c0.036-0.050 0.021-0.121-0.032-0.152l-0.027-0.016c-0.057-0.033-0.081-0.102-0.058-0.163l0.034-0.088c0.033-0.085 0.015-0.181-0.045-0.249l-0.148-0.166c-0.094-0.106-0.149-0.241-0.154-0.382l-0.011-0.299c-0.005-0.146-0.069-0.284-0.177-0.383-0.19-0.173-0.233-0.456-0.102-0.677l0.090-0.153c0.015-0.026 0.037-0.048 0.063-0.063l0.090-0.053c0.042-0.025 0.096-0.008 0.116 0.037 0.017 0.038 0.061 0.057 0.101 0.044l0.004-0.001c0.044-0.015 0.068-0.061 0.056-0.105l-0.076-0.282c-0.010-0.038-0.005-0.078 0.015-0.113 0.024-0.041 0.026-0.092 0.006-0.135l-0.026-0.057c-0.050-0.111-0.020-0.243 0.073-0.321l0.066-0.055c0.026-0.022 0.046-0.051 0.058-0.084l0.013-0.037c0.021-0.059 0.079-0.098 0.142-0.093l0.004 0c0.077 0.005 0.143-0.054 0.146-0.131l0-0.013c0.002-0.045 0.030-0.085 0.071-0.103 0.050-0.021 0.079-0.075 0.070-0.129l-0.007-0.039c-0.006-0.031-0.020-0.060-0.041-0.083l-0.227-0.246c-0.031-0.034-0.067-0.063-0.106-0.087l-0.154-0.095c-0.156-0.096-0.203-0.302-0.103-0.456 0.029-0.045 0.069-0.082 0.116-0.108l0.018-0.010c0.135-0.075 0.21-0.224 0.19-0.376l-0.012-0.090c-0.007-0.056-0.040-0.106-0.089-0.135-0.044-0.027-0.075-0.070-0.086-0.12l-0.046-0.213c-0.019-0.090-0.057-0.175-0.109-0.251l-0.216-0.309c-0.051-0.072-0.049-0.169 0.004-0.24 0.077-0.102 0.042-0.249-0.072-0.306l-0.143-0.071c-0.027-0.014-0.047-0.039-0.052-0.069s-0.026-0.057-0.054-0.070l-0.158-0.075c-0.036-0.017-0.059-0.054-0.059-0.094 0-0.032 0.015-0.062 0.040-0.082l0.085-0.066c0.111-0.086 0.154-0.234 0.106-0.366l-0.078-0.216c-0.023-0.063-0.031-0.131-0.023-0.197l0.008-0.067c0.009-0.077 0.049-0.148 0.112-0.194l0.068-0.050c0.021-0.016 0.035-0.040 0.037-0.066 0.005-0.051 0.049-0.088 0.1-0.084l0.083 0.007c0.084 0.007 0.161-0.046 0.184-0.127l0.029-0.098c0.020-0.067-0.016-0.137-0.082-0.161l-0.008-0.003c-0.094-0.034-0.114-0.157-0.036-0.219 0.021-0.017 0.047-0.026 0.073-0.027l0.080-0.004c0.039-0.002 0.071-0.033 0.072-0.072l0.001-0.033c0.001-0.022 0.019-0.040 0.042-0.040 0.027 0 0.047-0.025 0.041-0.051l-0.024-0.108c-0.007-0.033-0.027-0.061-0.055-0.080l-0.044-0.029c-0.072-0.047-0.116-0.127-0.118-0.213l-0-0.019c-0.003-0.159 0.119-0.292 0.278-0.303l0.343-0.023c0.060-0.004 0.106-0.054 0.106-0.114 0-0.036-0.017-0.071-0.047-0.092l-0.295-0.215c-0.030-0.022-0.039-0.061-0.023-0.094 0.026-0.051-0.013-0.111-0.070-0.108l-0.032 0.001c-0.029 0.001-0.057-0.011-0.075-0.033l-0.059-0.069c-0.027-0.032-0.024-0.080 0.008-0.108 0.022-0.020 0.031-0.050 0.023-0.078l-0.040-0.147c-0.008-0.028 0-0.057 0.021-0.077z"></path>
</svg>
