<!-- Generated by IcoMoon.io -->
<svg version="1.1" xmlns="http://www.w3.org/2000/svg" width="61" height="32" viewBox="0 0 61 32">
<path d="M45.789 0.597c0.064-0.155 0.244-0.226 0.396-0.156l0.148 0.068c0.044 0.021 0.092 0.034 0.141 0.039l0.312 0.033c0.131 0.014 0.263-0.005 0.385-0.056l0.314-0.13c0.085-0.035 0.182-0.019 0.251 0.041 0.060 0.052 0.090 0.131 0.081 0.209l-0.028 0.237c-0.009 0.075 0.009 0.151 0.052 0.214 0.052 0.077 0.135 0.128 0.228 0.138l0.028 0.003c0.1 0.011 0.191 0.062 0.253 0.14l0.032 0.040c0.091 0.114 0.227 0.183 0.373 0.189l0.351 0.014c0.338 0.014 0.649 0.188 0.837 0.47l0.24 0.358c0.053 0.080 0.062 0.181 0.023 0.269s-0.031 0.189 0.022 0.268l0.027 0.041c0.034 0.052 0.055 0.112 0.060 0.174l0.027 0.335c0.011 0.14 0.14 0.24 0.279 0.215 0.075-0.013 0.152 0.011 0.207 0.064l0.035 0.034c0.069 0.067 0.162 0.1 0.258 0.093l0.063-0.005c0.249-0.019 0.44-0.227 0.439-0.476l-0.006-0.894c-0-0.034-0.006-0.069-0.016-0.101l-0.099-0.316c-0.011-0.034 0.011-0.070 0.047-0.076 0.020-0.003 0.041 0.004 0.055 0.020l0.225 0.264c0.026 0.030 0.042 0.067 0.047 0.106l0.022 0.169c0.006 0.049 0.058 0.079 0.104 0.059 0.027-0.011 0.057-0.007 0.079 0.013l0.15 0.132c0.125 0.11 0.167 0.287 0.103 0.442l-0.052 0.126c-0.018 0.045-0.056 0.080-0.102 0.095l-0.014 0.004c-0.117 0.038-0.147 0.19-0.054 0.27 0.021 0.018 0.046 0.031 0.074 0.036l0.233 0.045c0.047 0.009 0.074 0.058 0.057 0.102-0.012 0.031-0.002 0.066 0.023 0.086l0.099 0.081c0.075 0.061 0.109 0.159 0.087 0.253l-0.010 0.043c-0.016 0.071-0.008 0.146 0.024 0.211l0.029 0.061c0.086 0.181 0.051 0.396-0.088 0.54s-0.175 0.36-0.087 0.541l0.239 0.496c0.027 0.056-0.001 0.122-0.059 0.143l-0.009 0.003c-0.055 0.019-0.079 0.083-0.052 0.134 0.019 0.036 0.058 0.056 0.098 0.050l0.232-0.034c0.112-0.017 0.225 0.012 0.316 0.079l0.254 0.189c0.148 0.11 0.359 0.021 0.383-0.162l0.011-0.084c0.009-0.070 0.069-0.123 0.14-0.124l0.1-0.002c0.020-0 0.037 0.015 0.039 0.036 0.002 0.035 0.046 0.049 0.068 0.022l0.021-0.025c0.011-0.013 0.028-0.020 0.045-0.018l0.536 0.063c0.058 0.014 0.097 0.068 0.094 0.127l-0.010 0.172c-0.013 0.236 0.217 0.41 0.44 0.333l0.221-0.076c0.132-0.046 0.277 0.019 0.331 0.149l0.032 0.076c0.020 0.048 0.066 0.080 0.118 0.083l0.183 0.008c0.036 0.002 0.058-0.039 0.038-0.068-0.019-0.027-0.002-0.064 0.031-0.068l0.248-0.028c0.056-0.006 0.106-0.036 0.137-0.082l0.167-0.243c0.025-0.037 0.013-0.087-0.027-0.108-0.047-0.025-0.054-0.090-0.012-0.123l0.348-0.283c0.047-0.038 0.077-0.093 0.085-0.152 0.013-0.096 0.084-0.175 0.178-0.199l0.038-0.010c0.127-0.032 0.26 0.022 0.328 0.135l0.114 0.188c0.036 0.060 0.082 0.113 0.137 0.156l0.042 0.034c0.2 0.16 0.458 0.227 0.711 0.184l0.080-0.014c0.135-0.023 0.273-0.020 0.406 0.009l0.326 0.070c0.187 0.040 0.365 0.114 0.526 0.218l0.27 0.175c0.384 0.248 0.575 0.708 0.481 1.155l-0.094 0.447c-0.012 0.056-0.049 0.102-0.1 0.127-0.047 0.023-0.083 0.065-0.097 0.116l-0.18 0.647c-0.012 0.045-0.019 0.091-0.018 0.137l0.002 0.268c0.001 0.155-0.133 0.276-0.287 0.259-0.116-0.013-0.209-0.102-0.227-0.217l-0.044-0.279c-0.011-0.070-0.079-0.116-0.149-0.101l-0.051 0.012c-0.033 0.008-0.056 0.040-0.051 0.074 0.005 0.036-0.019 0.068-0.055 0.074l-0.18 0.030c-0.052 0.009-0.105-0.006-0.146-0.039-0.054-0.044-0.128-0.054-0.191-0.025l-0.255 0.115c-0.030 0.013-0.063 0.017-0.094 0.011-0.060-0.012-0.108-0.058-0.122-0.117l-0.020-0.085c-0.033-0.136-0.157-0.23-0.297-0.224l-0.098 0.004c-0.035 0.001-0.069-0.013-0.092-0.040-0.048-0.055-0.135-0.052-0.18 0.006l-0.203 0.265c-0.062 0.081-0.153 0.134-0.255 0.149l-0.24 0.034c-0.097 0.014-0.195-0.017-0.267-0.083l-0.041-0.038c-0.050-0.046-0.118-0.065-0.185-0.053-0.106 0.020-0.181 0.114-0.176 0.222l0.032 0.666c0.002 0.031 0.012 0.061 0.031 0.086l0.012 0.016c0.035 0.048 0.098 0.067 0.154 0.045 0.071-0.027 0.151 0.011 0.173 0.084l0.064 0.203c0.032 0.1 0.109 0.18 0.208 0.214l0.172 0.059c0.092 0.031 0.188 0.043 0.285 0.035l0.008-0.001c0.206-0.018 0.409 0.052 0.56 0.193l0.396 0.369c0.038 0.035 0.090 0.052 0.142 0.046l0.036-0.004c0.071-0.008 0.136 0.039 0.151 0.109 0.015 0.072 0.084 0.12 0.156 0.108l0.315-0.050c0.18-0.029 0.337 0.122 0.316 0.303-0.014 0.12-0.105 0.217-0.223 0.239l-0.085 0.016c-0.207 0.038-0.346 0.233-0.317 0.441 0.021 0.15-0.046 0.3-0.173 0.384l-0.087 0.057-1.054 0.565c-0.090 0.048-0.201 0.011-0.245-0.080-0.030-0.063-0.095-0.103-0.165-0.102l-0.079 0.002c-0.192 0.004-0.331 0.185-0.285 0.372l0.014 0.057c0.032 0.132-0.045 0.267-0.175 0.306l-0.086 0.026c-0.091 0.027-0.187-0.026-0.211-0.118-0.021-0.082-0.1-0.134-0.184-0.124l-0.837 0.105c-0.059 0.007-0.103 0.060-0.1 0.12 0.004 0.064-0.046 0.118-0.11 0.12l-0.179 0.005c-0.059 0.002-0.104 0.052-0.1 0.111 0.003 0.044-0.023 0.086-0.064 0.103l-0.009 0.004c-0.049 0.020-0.078 0.070-0.072 0.122l0.332 2.887c0.015 0.129-0.067 0.25-0.193 0.284-0.122 0.033-0.204 0.148-0.194 0.274l0.012 0.15c0.004 0.049-0.008 0.097-0.032 0.14l-0.042 0.071c-0.044 0.076-0.018 0.173 0.058 0.217 0.049 0.028 0.079 0.079 0.079 0.135l0.001 0.055c0.002 0.144 0.122 0.258 0.266 0.251l0.030-0.001c0.165-0.008 0.301 0.126 0.297 0.291l-0.018 0.629c-0.002 0.085 0.059 0.158 0.143 0.17 0.066 0.010 0.12 0.057 0.137 0.121l0.082 0.299c0.058 0.213-0.067 0.433-0.28 0.49-0.16 0.044-0.276 0.181-0.292 0.346l-0.012 0.126c-0.008 0.082-0.062 0.152-0.139 0.18l-0.076 0.028c-0.033 0.012-0.056 0.043-0.058 0.078-0.003 0.041-0.033 0.075-0.074 0.082l-0.504 0.089c-0.098 0.017-0.167 0.107-0.158 0.206 0.009 0.101-0.063 0.192-0.163 0.207l-1.438 0.214c-0.044 0.007-0.078 0.042-0.083 0.086-0.005 0.046-0.041 0.081-0.087 0.087l-0.035 0.004c-0.101 0.012-0.158 0.122-0.108 0.211l0.178 0.319c0.030 0.054-0.010 0.121-0.072 0.119-0.031-0.001-0.059 0.017-0.073 0.044l-0.114 0.225c-0.029 0.058-0.093 0.088-0.156 0.075s-0.108-0.067-0.112-0.13l-0.043-0.724c-0.006-0.108-0.101-0.19-0.209-0.181-0.107 0.009-0.2-0.070-0.208-0.177l-0.004-0.053c-0.009-0.111-0.105-0.194-0.216-0.186-0.123 0.008-0.211 0.124-0.185 0.245l0.082 0.383c0.041 0.19-0.078 0.378-0.268 0.422l-0.198 0.046c-0.075 0.018-0.123 0.091-0.109 0.166 0.015 0.082 0.096 0.134 0.176 0.114l0.5-0.123c0.041-0.010 0.081 0.017 0.087 0.059 0.006 0.039-0.022 0.076-0.061 0.081l-0.020 0.003c-0.050 0.007-0.085 0.053-0.078 0.103l0.006 0.043c0.009 0.068-0.033 0.131-0.099 0.149l-0.475 0.124c-0.358 0.094-0.578 0.454-0.498 0.815l0.017 0.077-0.049-0.173c-0.047-0.166-0.209-0.273-0.38-0.251l-0.155 0.020c-0.012 0.002-0.024-0.003-0.033-0.012-0.026-0.027-0.070-0.006-0.067 0.030l0.028 0.283c0.008 0.075-0.047 0.141-0.121 0.15l-0.586 0.065c-0.167 0.019-0.302 0.145-0.331 0.311l-0.005 0.027c-0.013 0.074-0.053 0.141-0.112 0.188l-0.008 0.006c-0.063 0.050-0.102 0.124-0.107 0.204l-0.012 0.196c-0.006 0.091-0.097 0.151-0.182 0.119-0.047-0.017-0.080-0.059-0.087-0.108l-0.108-0.755c-0.031-0.213-0.261-0.332-0.453-0.234l-0.082 0.042c-0.061 0.031-0.134 0.023-0.188-0.020-0.041-0.033-0.094-0.046-0.146-0.035l-0.26 0.057c-0.030 0.006-0.049 0.035-0.043 0.065 0.006 0.035-0.020 0.067-0.055 0.067h-0.315c-0.119 0-0.181 0.14-0.102 0.228 0.019 0.021 0.031 0.047 0.034 0.075l0.016 0.133c0.036 0.299-0.169 0.574-0.466 0.623l-0.562 0.093c-0.123 0.020-0.244-0.044-0.297-0.156s-0.173-0.176-0.296-0.156l-0.915 0.148c-0.189 0.030-0.321 0.202-0.303 0.392l0.008 0.081c0.016 0.17 0.175 0.289 0.343 0.257l0.067-0.013c0.103-0.020 0.204 0.039 0.238 0.138 0.042 0.122-0.035 0.253-0.162 0.275l-0.946 0.166c-0.087 0.015-0.144 0.098-0.129 0.184 0.014 0.080 0.086 0.137 0.168 0.131l0.007-0c0.085-0.006 0.161 0.053 0.175 0.138l0.066 0.382c0.014 0.081-0.041 0.159-0.122 0.172-0.083 0.014-0.138 0.093-0.122 0.176l0.025 0.125c0.007 0.035 0.028 0.066 0.057 0.086 0.057 0.039 0.076 0.114 0.044 0.175l-0.169 0.317c-0.076 0.142-0.212 0.242-0.37 0.272l-2.856 0.547-0.112 0.006c-0.073 0.004-0.14-0.040-0.166-0.108-0.032-0.082-0.122-0.126-0.206-0.1l-0.379 0.116c-0.183 0.056-0.381 0.021-0.533-0.095l-0.415-0.317c-0.177-0.135-0.406-0.184-0.623-0.132l-0.373 0.089c-0.119 0.028-0.203 0.135-0.201 0.258l0.001 0.087c0.001 0.071-0.048 0.134-0.117 0.15-0.078 0.019-0.128 0.094-0.115 0.173l0.028 0.175c0.030 0.184-0.092 0.358-0.275 0.393l-0.577 0.112c-0.044 0.009-0.087-0.015-0.104-0.057-0.026-0.066-0.114-0.079-0.158-0.024l-0.032 0.040c-0.051 0.063-0.149 0.060-0.195-0.007l-0.002-0.003c-0.027-0.038-0.073-0.059-0.119-0.052l-0.005 0.001c-0.073 0.010-0.14-0.041-0.151-0.113l-0.043-0.3c-0.014-0.093-0.099-0.159-0.193-0.147-0.077 0.010-0.151-0.034-0.181-0.106l-0.102-0.247c-0.025-0.061-0.087-0.099-0.153-0.095-0.068 0.005-0.131-0.035-0.155-0.099l-0.004-0.011c-0.028-0.073-0.102-0.118-0.18-0.108l-1.093 0.14c-0.071 0.009-0.122 0.073-0.115 0.145s-0.044 0.135-0.115 0.145l-1.403 0.18c-0.188 0.024-0.362-0.102-0.398-0.288l-0.017-0.088c-0.027-0.144 0.065-0.283 0.209-0.312 0.173-0.036 0.265-0.227 0.184-0.384l-0.008-0.015c-0.023-0.045-0.034-0.095-0.030-0.145l0.010-0.167c0.006-0.104 0.090-0.186 0.194-0.192 0.116-0.006 0.204-0.107 0.193-0.223l-0.064-0.723c-0.009-0.099-0.102-0.169-0.199-0.149-0.094 0.019-0.184-0.045-0.198-0.14l-0.049-0.337c-0.040-0.276-0.302-0.463-0.576-0.412l-0.334 0.063c-0.028 0.005-0.057-0.002-0.079-0.020-0.035-0.029-0.086-0.029-0.122-0.001l-0.061 0.049c-0.113 0.092-0.283 0.029-0.309-0.114l-0.243-1.332c-0.005-0.024-0.005-0.049-0.002-0.073 0.013-0.097 0.084-0.177 0.18-0.2l0.152-0.036c0.236-0.056 0.389-0.285 0.35-0.524l-0.041-0.254c-0.050-0.309-0.342-0.517-0.65-0.463l-0.222 0.039c-0.159 0.028-0.314-0.070-0.356-0.226-0.041-0.151-0.187-0.248-0.342-0.228l-0.171 0.022c-0.119 0.015-0.232-0.057-0.269-0.171-0.038-0.119-0.159-0.191-0.281-0.169l-0.226 0.040c-0.161 0.029-0.28 0.166-0.288 0.329l-0.005 0.101c-0.003 0.066-0.042 0.125-0.101 0.154l-0.012 0.006c-0.070 0.034-0.155 0.014-0.202-0.049l-0.007-0.009c-0.031-0.042-0.084-0.064-0.136-0.056-0.078 0.011-0.132 0.084-0.121 0.162l0.047 0.341c0.025 0.179-0.109 0.34-0.289 0.349l-0.133 0.006c-0.071 0.003-0.129 0.057-0.139 0.127l-0.001 0.008c-0.005 0.039-0.028 0.073-0.062 0.094l-0.004 0.002c-0.077 0.047-0.177 0.002-0.192-0.087l-0.003-0.018c-0.009-0.054-0.058-0.093-0.113-0.089-0.074 0.005-0.13-0.064-0.111-0.136l0.037-0.134c0.017-0.064 0.064-0.115 0.126-0.138l0.011-0.004c0.107-0.040 0.168-0.153 0.143-0.264l-0.046-0.207c-0.055-0.249-0.297-0.411-0.548-0.366l-0.459 0.082c-0.051 0.009-0.087 0.055-0.085 0.107 0.002 0.050-0.032 0.095-0.081 0.106l-0.1 0.021c-0.102 0.022-0.205-0.035-0.239-0.134l-0.012-0.035c-0.046-0.13-0.213-0.166-0.308-0.066-0.026 0.027-0.059 0.046-0.095 0.053l-0.323 0.069c-0.12 0.026-0.237-0.053-0.259-0.174-0.023-0.128-0.153-0.208-0.278-0.169l-0.408 0.127c-0.318 0.099-0.652-0.098-0.719-0.423l-0.066-0.317c-0.023-0.112-0.13-0.188-0.244-0.171-0.059 0.008-0.119-0.008-0.166-0.046l-0.068-0.054c-0.085-0.068-0.106-0.188-0.049-0.281 0.047-0.076 0.042-0.174-0.013-0.245l-0.243-0.313c-0.047-0.061-0.115-0.101-0.191-0.114l-0.131-0.021c-0.048-0.008-0.086-0.045-0.095-0.093-0.011-0.061-0.069-0.103-0.131-0.094l-1.019 0.151c-0.058 0.009-0.114-0.027-0.129-0.084-0.016-0.058-0.075-0.095-0.134-0.083l-0.603 0.116c-0.19 0.037-0.314 0.222-0.275 0.411 0.043 0.207-0.107 0.403-0.318 0.417l-0.2 0.013c-0.137 0.009-0.253 0.105-0.288 0.238-0.026 0.099-0.098 0.179-0.193 0.216l-0.109 0.043c-0.075 0.029-0.16 0.018-0.225-0.030-0.057-0.043-0.131-0.057-0.2-0.038l-0.073 0.019c-0.142 0.038-0.288-0.046-0.327-0.188l-0.011-0.038c-0.028-0.101-0.124-0.168-0.229-0.161l-0.056 0.004c-0.026 0.002-0.052-0.007-0.072-0.026-0.059-0.056-0.156-0.016-0.158 0.065l-0.003 0.102c-0.002 0.068-0.053 0.125-0.121 0.134l-0.035 0.005c-0.089 0.012-0.174-0.044-0.198-0.131l-0.027-0.096c-0.038-0.137-0.168-0.227-0.309-0.215l-0.601 0.050c-0.056 0.005-0.109-0.030-0.126-0.084-0.020-0.060-0.082-0.095-0.144-0.081l-0.777 0.183c-0.079 0.019-0.124 0.103-0.095 0.179 0.029 0.075-0.015 0.159-0.093 0.178l-0.212 0.054c-0.060 0.015-0.108 0.061-0.127 0.12-0.023 0.074-0.092 0.124-0.169 0.125l-0.657 0.008c-0.112 0.002-0.219-0.045-0.296-0.127l-0.152-0.164c-0.081-0.088-0.221-0.084-0.298 0.008l-0.066 0.079c-0.062 0.073-0.178 0.059-0.22-0.027-0.020-0.042-0.061-0.070-0.108-0.074l-1.191-0.1c-0.357-0.030-0.713 0.064-1.009 0.265l-0.229 0.156c-0.18 0.122-0.4 0.172-0.614 0.138l-0.066-0.010c-0.104-0.016-0.211-0.005-0.309 0.033-0.127 0.049-0.267 0.053-0.398 0.012l-0.544-0.171c-0.136-0.043-0.278-0.065-0.42-0.067l-0.421-0.004c-0.096-0.001-0.189 0.034-0.26 0.099-0.094 0.085-0.223 0.118-0.346 0.088l-0.264-0.063c-0.188-0.046-0.35-0.166-0.446-0.334l-0.132-0.229c-0.040-0.069-0.112-0.113-0.192-0.115-0.136-0.005-0.238-0.125-0.221-0.26l0.018-0.137c0.009-0.072-0.006-0.146-0.045-0.208l-0.109-0.174c-0.060-0.097-0.198-0.107-0.271-0.019-0.050 0.060-0.135 0.078-0.205 0.042l-0.173-0.088c-0.19-0.098-0.424-0.032-0.536 0.15l-0.114 0.185c-0.154 0.25-0.499 0.295-0.712 0.093-0.129-0.122-0.317-0.16-0.483-0.097l-0.28 0.107c-0.121 0.046-0.258 0.017-0.349-0.074-0.029-0.029-0.053-0.064-0.070-0.102l-0.021-0.049c-0.051-0.117-0.055-0.25-0.011-0.371l0.011-0.031c0.043-0.118 0.032-0.25-0.030-0.359-0.043-0.076-0.062-0.164-0.054-0.251l0-0.004c0.011-0.125-0.031-0.249-0.117-0.341l-0.172-0.185c-0.020-0.022-0.031-0.051-0.029-0.081l0-0.004c0.003-0.067 0.066-0.114 0.131-0.099 0.036 0.008 0.073-0.003 0.099-0.029l0.075-0.075c0.037-0.037 0.064-0.084 0.078-0.135l0.075-0.287c0.024-0.091 0.096-0.16 0.188-0.18 0.085-0.018 0.154-0.080 0.183-0.163l0.016-0.048c0.037-0.109 0.016-0.23-0.055-0.32l-0.012-0.015c-0.127-0.159-0.102-0.391 0.056-0.52l0.831-0.679c0.041-0.033 0.054-0.089 0.032-0.137-0.027-0.060 0.001-0.13 0.062-0.154l0.931-0.376c0.139-0.056 0.256-0.158 0.33-0.288 0.1-0.176 0.275-0.297 0.474-0.329l0.36-0.058c0.321-0.052 0.648 0.047 0.887 0.267l0.169 0.155c0.061 0.057 0.14 0.091 0.223 0.099 0.114 0.011 0.227-0.030 0.307-0.112l0.209-0.211c0.1-0.102 0.167-0.232 0.189-0.373l0.026-0.163c0.008-0.051 0.034-0.098 0.072-0.132 0.073-0.064 0.179-0.074 0.263-0.024l0.576 0.345c0.073 0.044 0.158 0.060 0.242 0.048 0.023-0.004 0.046-0.009 0.069-0.017l0.2-0.072c0.088-0.031 0.145-0.117 0.14-0.21-0.005-0.105 0.067-0.197 0.169-0.218l0.399-0.081c0.102-0.021 0.198-0.065 0.281-0.128l0.011-0.009c0.101-0.077 0.22-0.128 0.345-0.146l0.216-0.032c0.31-0.046 0.561-0.275 0.635-0.579l0.018-0.074c0.057-0.233 0.238-0.415 0.471-0.472l0.052-0.013c0.188-0.047 0.387 0.009 0.523 0.146 0.111 0.112 0.264 0.17 0.422 0.161l0.681-0.039c0.177-0.010 0.319-0.149 0.333-0.325l0.010-0.129c0.003-0.034-0.012-0.068-0.038-0.090-0.046-0.038-0.052-0.105-0.013-0.15l0.014-0.017c0.047-0.055 0.039-0.137-0.017-0.182l-0.209-0.169c-0.157-0.127-0.191-0.353-0.078-0.521l0.069-0.103c0.064-0.095 0.158-0.167 0.267-0.203l0.103-0.035c0.207-0.070 0.366-0.238 0.422-0.449l0.063-0.235c0.021-0.078-0.001-0.161-0.058-0.218l-0.138-0.14c-0.097-0.098-0.023-0.263 0.115-0.257 0.062 0.003 0.119-0.032 0.145-0.088l0.148-0.324c0.017-0.038 0.060-0.056 0.1-0.042 0.049 0.017 0.101-0.016 0.106-0.067l0.007-0.065c0.005-0.048 0.036-0.090 0.081-0.108l0.458-0.187c0.206-0.084 0.435-0.094 0.648-0.028l0.158 0.049c0.039 0.012 0.081 0.017 0.122 0.013l0.157-0.013c0.043-0.004 0.078-0.034 0.088-0.076 0.014-0.058 0.075-0.090 0.131-0.070l0.511 0.185c0.059 0.021 0.124-0.007 0.15-0.064 0.036-0.080 0.142-0.096 0.199-0.030l0.134 0.155c0.038 0.044 0.090 0.073 0.148 0.083l0.583 0.097c0.034 0.006 0.069 0.002 0.102-0.010l0.019-0.007c0.059-0.022 0.1-0.076 0.106-0.139 0.009-0.090 0.088-0.156 0.178-0.149l0.446 0.037c0.067 0.006 0.122-0.054 0.111-0.12l-0.005-0.031c-0.007-0.042 0.023-0.081 0.065-0.086 0.022-0.002 0.044 0.005 0.060 0.021l0.064 0.063c0.059 0.057 0.14 0.084 0.221 0.072l0.252-0.036c0.051-0.007 0.102 0.014 0.132 0.056 0.033 0.046 0.091 0.067 0.146 0.054l0.101-0.025c0.076-0.019 0.157-0.007 0.225 0.035l0.19 0.117c0.030 0.018 0.067 0.021 0.1 0.007 0.052-0.022 0.112-0.001 0.138 0.048l0.121 0.226c0.026 0.048 0.068 0.086 0.118 0.107l0.118 0.048c0.039 0.016 0.084 0.001 0.106-0.035 0.026-0.044 0.084-0.055 0.125-0.025l0.116 0.086c0.063 0.046 0.152 0.024 0.186-0.046l0.039-0.080c0.015-0.031 0.056-0.040 0.083-0.018 0.023 0.019 0.058 0.016 0.077-0.008l0.057-0.072c0.034-0.043 0.095-0.053 0.142-0.024 0.049 0.031 0.114 0.018 0.146-0.030l0.111-0.162c0.070-0.103 0.195-0.154 0.318-0.129l0.137 0.027c0.096 0.019 0.193-0.025 0.243-0.109 0.047-0.080 0.138-0.124 0.23-0.111l0.202 0.028c0.095 0.013 0.176 0.076 0.213 0.164 0.053 0.126 0.191 0.193 0.323 0.157l0.117-0.033c0.194-0.054 0.399 0.042 0.482 0.225l0.080 0.176c0.040 0.088 0.129 0.143 0.226 0.14l0.109-0.004c0.050-0.002 0.093-0.039 0.101-0.089 0.012-0.074 0.095-0.112 0.159-0.074l0.165 0.099c0.036 0.021 0.082 0.008 0.101-0.028l0.088-0.167c0.019-0.036 0.073-0.019 0.068 0.021-0.003 0.032 0.033 0.052 0.059 0.033l0.187-0.146c0.023-0.018 0.036-0.045 0.036-0.074 0-0.073 0.079-0.118 0.142-0.080l0.023 0.014c0.039 0.023 0.089 0.012 0.115-0.025 0.022-0.032 0.020-0.074-0.005-0.103l-0.024-0.029c-0.048-0.057-0.040-0.142 0.016-0.19l0.268-0.227c0.036-0.031 0.077-0.056 0.12-0.075l0.887-0.388c0.088-0.039 0.146-0.125 0.149-0.221 0.003-0.085 0.048-0.162 0.12-0.206l0.259-0.156c0.049-0.030 0.058-0.098 0.016-0.139-0.029-0.028-0.035-0.073-0.014-0.108l0.153-0.261c0.023-0.038 0.019-0.087-0.009-0.122-0.037-0.046-0.030-0.113 0.016-0.15l0.093-0.077c0.083-0.068 0.108-0.184 0.060-0.28l-0.075-0.15c-0.016-0.032-0.009-0.071 0.018-0.095l0.009-0.008c0.036-0.033 0.029-0.092-0.014-0.116-0.041-0.023-0.049-0.080-0.016-0.114l0.11-0.111c0.043-0.043 0.11-0.048 0.16-0.013l0.015 0.011c0.042 0.030 0.055 0.086 0.031 0.132-0.049 0.093 0.058 0.192 0.146 0.135l0.224-0.144c0.037-0.024 0.081-0.032 0.124-0.025l0.508 0.092c0.218 0.040 0.432-0.091 0.497-0.303 0.062-0.205 0.264-0.334 0.476-0.306l0.162 0.021c0.105 0.014 0.212 0.001 0.31-0.037l0.505-0.196c0.031-0.012 0.057-0.033 0.075-0.061 0.055-0.084 0.174-0.096 0.244-0.024l0.092 0.094c0.045 0.046 0.107 0.074 0.171 0.078l0.070 0.004c0.064 0.004 0.127 0.022 0.184 0.052l0.899 0.484c0.050 0.027 0.082 0.080 0.081 0.137-0.002 0.143 0.176 0.211 0.269 0.102l0.109-0.127c0.032-0.037 0.075-0.061 0.122-0.071l0.673-0.128c0.081-0.015 0.154-0.058 0.208-0.121l0.030-0.035c0.115-0.135 0.317-0.149 0.45-0.032 0.059 0.052 0.137 0.080 0.216 0.079l0.309-0.006c0.086-0.002 0.153 0.075 0.139 0.161l-0.005 0.029c-0.009 0.051 0.021 0.1 0.070 0.116 0.047 0.015 0.097-0.004 0.122-0.047l0.018-0.031c0.025-0.044 0.071-0.071 0.121-0.074l0.426-0.018c0.046-0.002 0.089-0.019 0.123-0.050 0.041-0.036 0.065-0.088 0.067-0.143l0.008-0.256c0.004-0.115-0.050-0.224-0.143-0.291l-0.058-0.042c-0.060-0.044-0.094-0.115-0.090-0.189 0.006-0.092 0.069-0.17 0.158-0.195l0.325-0.091c0.099-0.028 0.175-0.107 0.198-0.207l0.026-0.111c0.029-0.123 0.167-0.186 0.279-0.127 0.118 0.062 0.263-0.011 0.282-0.144l0.155-1.071c0.016-0.109 0.107-0.192 0.216-0.197l0.010-0c0.113-0.006 0.204-0.097 0.209-0.21l0.001-0.031c0.004-0.098 0.084-0.177 0.182-0.179l0.107-0.003c0.020-0.001 0.038-0.015 0.043-0.034 0.009-0.036 0.055-0.047 0.079-0.018l0.102 0.122c0.030 0.036 0.077 0.052 0.123 0.043l0.572-0.118c0.063-0.013 0.123 0.027 0.136 0.090l0.005 0.023c0.011 0.053 0.065 0.086 0.117 0.071 0.049-0.014 0.101 0.014 0.116 0.063l0.086 0.292c0.014 0.048 0.014 0.1-0.002 0.148l-0.011 0.034c-0.030 0.092 0.008 0.192 0.092 0.24 0.023 0.013 0.049 0.022 0.075 0.026l0.418 0.057c0.091 0.012 0.18-0.030 0.229-0.107l0.092-0.146c0.058-0.092 0.194-0.084 0.241 0.013 0.017 0.034 0.046 0.060 0.082 0.071l0.149 0.047c0.049 0.016 0.065 0.077 0.029 0.114-0.016 0.017-0.023 0.041-0.018 0.064l0.057 0.249c0.023 0.099 0.129 0.152 0.222 0.112s0.201 0.014 0.222 0.114l0.264 1.245c0.019 0.091 0.101 0.155 0.194 0.151 0.118-0.005 0.203-0.115 0.178-0.23l-0.002-0.009c-0.032-0.149 0.11-0.277 0.255-0.23l0.132 0.043c0.031 0.010 0.058 0.031 0.076 0.058 0.047 0.072 0.147 0.087 0.214 0.032l0.118-0.098c0.045-0.038 0.114-0.013 0.126 0.044 0.008 0.038 0.042 0.065 0.081 0.062l0.684-0.044c0.133-0.009 0.215-0.15 0.156-0.27-0.028-0.057-0.025-0.124 0.007-0.179l0.006-0.011c0.043-0.073 0.127-0.113 0.211-0.101l0.073 0.011c0.043 0.006 0.078 0.037 0.089 0.079 0.014 0.051 0.063 0.085 0.116 0.079l0.259-0.027c0.069-0.007 0.133 0.039 0.147 0.107 0.015 0.073 0.086 0.12 0.16 0.105l1.394-0.284c0.056-0.011 0.097-0.060 0.098-0.118 0.001-0.062 0.049-0.113 0.11-0.12l0.212-0.022c0.048-0.005 0.082-0.048 0.076-0.096-0.004-0.031-0.024-0.057-0.052-0.068l-0.31-0.127c-0.143-0.059-0.202-0.229-0.126-0.363 0.031-0.055 0.041-0.12 0.027-0.182l-0.154-0.688c-0.007-0.030-0.024-0.057-0.049-0.076-0.081-0.062-0.065-0.189 0.030-0.228l0.71-0.294c0.124-0.051 0.206-0.172 0.207-0.306 0.001-0.146-0.092-0.276-0.231-0.322l-1.317-0.43c-0.103-0.034-0.191-0.1-0.253-0.188-0.097-0.141-0.115-0.323-0.046-0.48l0.051-0.116c0.042-0.095 0.104-0.18 0.181-0.249l0.902-0.801c0.033-0.030 0.060-0.067 0.077-0.108z"></path>
</svg>
