<!-- Generated by IcoMoon.io -->
<svg version="1.1" xmlns="http://www.w3.org/2000/svg" width="33" height="32" viewBox="0 0 33 32">
<path stroke-linejoin="round" stroke-linecap="round" stroke-miterlimit="4" stroke-width="1.5238" stroke="#000" fill="#000" d="M28.060 7.445c-0.116 0.21-0.192 0.44-0.226 0.678l-0.168 1.185c-0.047 0.334 0.046 0.673 0.257 0.936 0.174 0.217 0.269 0.487 0.269 0.765v0.149c0 0.48 0.209 0.935 0.572 1.248l1.002 0.863c0.64 0.552 1.047 1.325 1.14 2.165 0.095 0.864-0.15 1.732-0.684 2.418l-0.601 0.772c-0.422 0.543-0.972 0.973-1.601 1.253l-0.466 0.207c-0.968 0.43-2.085 0.356-2.987-0.199l-0.43-0.265c-0.333-0.205-0.725-0.292-1.113-0.248l-0.267 0.030c-0.274 0.031-0.525 0.166-0.702 0.377-0.141 0.168-0.227 0.375-0.247 0.594l-0.132 1.462c-0.023 0.259 0.090 0.511 0.3 0.665 0.167 0.122 0.275 0.309 0.299 0.515l0.076 0.675c0.057 0.504-0.055 1.012-0.318 1.445l-0.035 0.057c-0.236 0.389-0.36 0.835-0.36 1.29v0.335c0 0.3 0.037 0.598 0.111 0.889l0.263 1.036c0.14 0.553-0.012 1.139-0.403 1.553-0.458 0.486-1.163 0.65-1.789 0.419l-0.033-0.012c-0.338-0.125-0.627-0.353-0.828-0.651l-0.773-1.148c-0.272-0.404-0.494-0.839-0.661-1.296l-0.805-2.201c-0.085-0.234-0.146-0.476-0.18-0.722l-0.306-2.218c-0.084-0.611-0.635-1.048-1.249-0.991-0.311 0.029-0.62-0.070-0.857-0.273l-0.794-0.681c-0.144-0.123-0.319-0.205-0.506-0.236-0.374-0.061-0.684-0.322-0.809-0.68l-0.733-2.097c-0.213-0.61-0.789-1.019-1.435-1.019h-0.038c-0.303 0-0.599-0.098-0.842-0.28-0.265-0.198-0.452-0.483-0.527-0.806l-0.231-0.988c-0.208-0.89-0.939-1.563-1.844-1.697-0.32-0.047-0.647-0.024-0.957 0.067l-1.204 0.356c-0.206 0.061-0.402 0.148-0.585 0.26l-0.367 0.224c-0.222 0.136-0.393 0.34-0.488 0.583l-0.091 0.233c-0.101 0.259-0.335 0.444-0.611 0.481-0.372 0.050-0.725-0.177-0.834-0.536l-0.092-0.303c-0.077-0.254-0.063-0.528 0.041-0.773l1.3-3.075c0.153-0.363 0.232-0.753 0.232-1.146 0-0.577 0.17-1.141 0.488-1.623l0.076-0.115c0.147-0.222 0.32-0.427 0.514-0.609l0.86-0.804c0.271-0.253 0.648-0.358 1.010-0.281l0.223 0.047c0.348 0.074 0.704-0.085 0.882-0.393 0.132-0.228 0.146-0.506 0.038-0.746l-0.081-0.182c-0.096-0.215-0.253-0.398-0.451-0.525l-1.515-0.973c-0.164-0.105-0.274-0.277-0.302-0.47l-0.004-0.026c-0.036-0.253 0.083-0.503 0.303-0.634 0.085-0.051 0.181-0.081 0.28-0.088l3.061-0.215c0.637-0.045 1.276-0.016 1.906 0.085l0.735 0.118c1.285 0.206 2.471 0.818 3.383 1.748l1.831 1.867c0.842 0.859 2.155 1.047 3.205 0.459 0.398-0.223 0.846-0.34 1.302-0.34h3.025c0.482 0 0.95-0.158 1.333-0.449 0.259-0.197 0.472-0.449 0.622-0.737l0.29-0.557c0.309-0.594 0.837-1.046 1.471-1.259 0.517-0.174 1.076-0.181 1.597-0.019l1.624 0.505c0.297 0.092 0.566 0.255 0.786 0.475 0.358 0.358 0.558 0.844 0.558 1.35v0.611c0 0.413-0.217 0.797-0.571 1.010-0.274 0.165-0.604 0.211-0.913 0.128l-0.109-0.029c-0.323-0.087-0.666-0.059-0.971 0.080l-0.222 0.101c-0.389 0.177-0.711 0.474-0.917 0.849z"></path>
</svg>
