<!-- Generated by IcoMoon.io -->
<svg version="1.1" xmlns="http://www.w3.org/2000/svg" width="26" height="32" viewBox="0 0 26 32">
<path d="M11.44 3.701c-0.059-0.052-0.139-0.073-0.216-0.056l-0.1 0.022c-0.124 0.027-0.236-0.080-0.214-0.205 0.018-0.104-0.058-0.201-0.163-0.209l-0.204-0.015c-0.085-0.006-0.164-0.042-0.226-0.1l-0.524-0.503c-0.008-0.008-0.015-0.016-0.021-0.026-0.035-0.056-0.023-0.129 0.028-0.171l0.072-0.060c0.072-0.060 0.103-0.156 0.078-0.246l-0.102-0.377c-0.004-0.014 0.002-0.030 0.015-0.038 0.026-0.016 0.020-0.055-0.010-0.061l-0.054-0.012c-0.012-0.003-0.023-0.010-0.031-0.020l-0.287-0.362c-0.067-0.084-0.143-0.16-0.227-0.227l-0.106-0.084c-0.099-0.078-0.211-0.138-0.331-0.178l-0.179-0.059c-0.027-0.009-0.052-0.023-0.073-0.042l-0.097-0.088c-0.059-0.054-0.154-0.031-0.182 0.044-0.027 0.072-0.116 0.097-0.176 0.050l-0.173-0.137c-0.013-0.010-0.031-0.012-0.046-0.005-0.019 0.009-0.029 0.031-0.023 0.052l0.033 0.109c0.010 0.032-0.004 0.067-0.034 0.083-0.015 0.008-0.033 0.011-0.050 0.007l-0.759-0.185c-0.077-0.019-0.154 0.030-0.17 0.107-0.008 0.038-0.031 0.071-0.064 0.091l-0.098 0.059c-0.025 0.015-0.054 0.018-0.082 0.010-0.046-0.014-0.096 0.006-0.118 0.048l-0.002 0.003c-0.030 0.056-0.103 0.073-0.155 0.035l-0.147-0.108c-0.063-0.046-0.143-0.063-0.219-0.044l-0.14 0.034c-0.020 0.005-0.038 0.014-0.053 0.028l-0.038 0.034c-0.026 0.023-0.029 0.063-0.008 0.090 0.013 0.017 0.017 0.040 0.011 0.060l-0.026 0.084c-0.040 0.129-0.187 0.19-0.308 0.13-0.055-0.028-0.12-0.030-0.177-0.007l-0.074 0.031c-0.048 0.020-0.103 0.004-0.133-0.038l-0.015-0.021c-0.019-0.026-0.052-0.037-0.083-0.028s-0.052 0.039-0.052 0.071v0.012c0 0.067-0.071 0.111-0.131 0.081l-0.219-0.11c-0.055-0.028-0.098-0.075-0.119-0.133l-0.090-0.244c-0.020-0.054 0.006-0.115 0.059-0.138 0.042-0.018 0.068-0.060 0.066-0.106l-0.010-0.178c-0.001-0.021-0.005-0.043-0.012-0.063l-0.024-0.073c-0.019-0.059-0.074-0.098-0.136-0.097-0.051 0.001-0.098 0.029-0.122 0.074-0.015 0.028-0.040 0.051-0.070 0.063l-0.242 0.103c-0.022 0.009-0.038 0.027-0.046 0.050l-0.003 0.010c-0.013 0.039-0.056 0.059-0.095 0.044-0.022-0.009-0.048-0.005-0.068 0.008l-0.058 0.040c-0.022 0.016-0.053 0.014-0.073-0.004-0.028-0.024-0.070-0.018-0.090 0.013l-0.038 0.060c-0.015 0.024-0.039 0.041-0.067 0.047-0.048 0.010-0.082 0.051-0.083 0.099l-0.001 0.058c-0.001 0.053-0.027 0.104-0.069 0.136l-0.022 0.017c-0.078 0.059-0.184 0.065-0.267 0.014l-0.008-0.005c-0.129-0.080-0.299-0.026-0.36 0.113l-0.049 0.112c-0.023 0.053-0.033 0.111-0.029 0.169l0.010 0.134c0.005 0.064-0.007 0.127-0.035 0.184-0.073 0.149-0.239 0.229-0.401 0.192l-0.358-0.082c-0.114-0.026-0.234-0.012-0.339 0.040-0.063 0.031-0.119 0.074-0.164 0.128l-0.115 0.136c-0.013 0.016-0.020 0.036-0.020 0.056 0.001 0.050 0.046 0.088 0.096 0.081l0.065-0.010c0.083-0.012 0.158 0.050 0.163 0.133l0.023 0.443c0.005 0.104-0.019 0.207-0.070 0.298l-0.277 0.49c-0.021 0.037-0.057 0.062-0.099 0.068l-0.127 0.018c-0.020 0.003-0.037-0.013-0.036-0.033 0.001-0.022-0.019-0.038-0.040-0.032l-0.302 0.092c-0.124 0.038-0.198 0.164-0.171 0.291l0.197 0.932 0.205 0.695c0.005 0.016 0.017 0.028 0.033 0.032 0.027 0.007 0.055-0.012 0.058-0.040l0.029-0.265c0.006-0.057 0.047-0.103 0.103-0.116 0.036-0.009 0.074-0.002 0.105 0.018l0.355 0.232c0.115 0.075 0.215 0.171 0.295 0.282l0.254 0.352c0.026 0.037 0.057 0.070 0.091 0.1 0.224 0.194 0.268 0.526 0.102 0.771l-0.008 0.012c-0.072 0.106-0.107 0.233-0.101 0.361l0.011 0.216c0 0.006 0.003 0.012 0.008 0.017 0.020 0.020-0.001 0.052-0.028 0.043l-0.186-0.070c-0.009-0.003-0.019-0.005-0.029-0.004l-0.033 0.002c-0.116 0.007-0.208 0.102-0.211 0.218l-0.003 0.111c-0.003 0.104 0.063 0.197 0.162 0.229 0.034 0.011 0.065 0.030 0.090 0.054l0.078 0.075c0.069 0.066 0.123 0.145 0.16 0.233l0.063 0.149c0.047 0.113 0.123 0.211 0.22 0.286l0.088 0.068c0.030 0.024 0.055 0.054 0.071 0.089 0.031 0.066 0.031 0.142 0.001 0.209l-0.069 0.148c-0.045 0.096-0.012 0.211 0.078 0.269l0.060 0.039c0.022 0.014 0.051 0.017 0.075 0.006l0.002-0.001c0.042-0.019 0.091 0.003 0.105 0.047 0.018 0.056-0.030 0.111-0.088 0.1l-0.2-0.037c-0.027-0.005-0.056-0.001-0.081 0.012-0.047 0.025-0.074 0.076-0.066 0.129l0.007 0.049c0.005 0.033 0.024 0.063 0.054 0.080l0.067 0.039c0.038 0.022 0.040 0.077 0.004 0.102-0.021 0.015-0.030 0.041-0.024 0.065l0.012 0.045c0.008 0.030-0.012 0.059-0.043 0.063-0.056 0.007-0.060 0.087-0.005 0.099l0.015 0.003c0.013 0.003 0.027 0.001 0.038-0.006l0.108-0.063c0.061-0.036 0.133-0.050 0.204-0.039l0.057 0.009c0.115 0.018 0.201 0.115 0.204 0.231 0.001 0.051 0.019 0.1 0.050 0.14l0.031 0.040c0.089 0.115 0.107 0.27 0.047 0.403l-0.032 0.071c-0.039 0.086-0.1 0.16-0.178 0.214l-0.215 0.15c-0.044 0.031-0.072 0.081-0.074 0.135-0.003 0.060-0.036 0.115-0.089 0.144l-0.056 0.032c-0.045 0.025-0.1 0.027-0.147 0.006l-0.016-0.007c-0.040-0.018-0.086-0.015-0.123 0.008l-0.006 0.004c-0.008 0.005-0.015 0.011-0.021 0.018-0.025 0.030-0.026 0.072-0.004 0.104 0.024 0.035 0.020 0.082-0.010 0.112l-0.089 0.088c-0.010 0.009-0.013 0.024-0.008 0.036 0.009 0.024-0.011 0.050-0.037 0.045l-0.033-0.006c-0.023-0.004-0.041 0.019-0.032 0.040 0.006 0.015-0.001 0.032-0.016 0.038l-0.017 0.007c-0.033 0.014-0.040 0.057-0.013 0.081l0.312 0.264c0.037 0.031 0.066 0.071 0.084 0.116l0.024 0.060c0.033 0.082 0.045 0.171 0.037 0.26l-0.012 0.124c-0.004 0.042-0.018 0.082-0.041 0.117l-0.050 0.076c-0.022 0.033-0.059 0.051-0.098 0.048l-0.052-0.004c-0.058-0.005-0.099 0.054-0.076 0.107 0.008 0.019 0.009 0.040 0.001 0.059l-0.008 0.021c-0.025 0.063 0.003 0.134 0.064 0.163l0.143 0.068c0.095 0.045 0.159 0.137 0.169 0.241l0.008 0.078c0.008 0.085-0.030 0.167-0.099 0.217l-0.050 0.035c-0.047 0.033-0.109 0.036-0.158 0.006l-0.053-0.032c-0.057-0.034-0.13-0.004-0.147 0.060-0.015 0.058 0.025 0.116 0.084 0.123l0.227 0.026c0.049 0.006 0.089 0.041 0.101 0.088 0.009 0.036 0 0.075-0.024 0.104l-0.199 0.239c-0.020 0.023-0.049 0.036-0.080 0.034l-0.004-0c-0.077-0.006-0.127 0.080-0.084 0.144 0.021 0.032 0.060 0.047 0.097 0.039l0.053-0.012c0.042-0.009 0.079-0.034 0.104-0.070l0.006-0.009c0.031-0.045 0.079-0.075 0.133-0.084l0.308-0.050c0.169-0.028 0.339 0.043 0.438 0.182l0.031 0.043c0.032 0.044 0.050 0.096 0.051 0.15l0.003 0.091c0.003 0.070 0.051 0.129 0.119 0.145l0.022 0.005c0.027 0.006 0.050 0.023 0.064 0.047l0.024 0.040c0.013 0.022 0.041 0.031 0.065 0.020 0.043-0.020 0.088 0.025 0.066 0.068l-0.1 0.2c-0.020 0.039-0.018 0.086 0.005 0.124l0.016 0.026c0.024 0.040 0.063 0.070 0.109 0.082l0.319 0.086c0.015 0.004 0.030 0.004 0.045 0.001 0.073-0.017 0.135 0.056 0.106 0.125l-0.056 0.138c-0.017 0.043-0.016 0.090 0.003 0.132l0.031 0.066c0.024 0.052-0.001 0.113-0.055 0.133-0.056 0.021-0.081 0.087-0.052 0.139l0.224 0.404c0.026 0.046 0.005 0.104-0.043 0.124-0.023 0.010-0.041 0.029-0.050 0.053l-0.068 0.196c-0.015 0.043-0.039 0.083-0.070 0.116l-0.024 0.026c-0.111 0.118-0.104 0.305 0.017 0.413 0.116 0.105 0.128 0.285 0.025 0.404l-0.098 0.114c-0.011 0.012-0.017 0.027-0.020 0.043l-0.006 0.044c-0.003 0.024 0.014 0.047 0.039 0.048 0.040 0.003 0.054 0.055 0.021 0.078l-0.075 0.051c-0.037 0.025-0.044 0.078-0.014 0.111l0.253 0.283c0.072 0.080 0.109 0.186 0.103 0.294l-0.008 0.141c-0.002 0.043-0.024 0.083-0.058 0.109-0.058 0.044-0.075 0.122-0.042 0.186l0.106 0.202c0.015 0.029 0.014 0.064-0.004 0.092-0.022 0.035-0.018 0.080 0.010 0.111l0.171 0.187c0.021 0.023 0.025 0.056 0.011 0.083-0.012 0.022-0.011 0.049 0.002 0.071l0.119 0.203c0.036 0.062 0.040 0.138 0.009 0.203-0.020 0.043-0.054 0.078-0.096 0.1l-0.302 0.159c-0.051 0.027-0.051 0.099-0 0.126 0.044 0.023 0.051 0.083 0.014 0.116l-0.263 0.233c-0.024 0.022-0.019 0.061 0.011 0.075 0.028 0.013 0.035 0.050 0.013 0.072l-0.041 0.043c-0.022 0.023-0.056 0.028-0.084 0.012-0.030-0.017-0.067-0.009-0.088 0.017l-0.105 0.133c-0.025 0.032-0.068 0.045-0.106 0.032-0.050-0.016-0.104 0.010-0.122 0.060l-0.003 0.007c-0.012 0.033-0.040 0.058-0.074 0.067l-0.328 0.080c-0.040 0.010-0.071 0.039-0.084 0.078-0.024 0.075-0.114 0.105-0.179 0.060l-0.090-0.063c-0.044-0.031-0.104-0.029-0.146 0.004l-0.009 0.007c-0.036 0.029-0.050 0.077-0.034 0.12 0.012 0.033 0.007 0.069-0.013 0.097l-0.038 0.055c-0.030 0.043-0.093 0.043-0.123 0.001-0.025-0.035-0.075-0.042-0.109-0.014l-0.102 0.085c-0.012 0.010-0.028 0.014-0.044 0.010-0.039-0.010-0.072 0.028-0.058 0.065l0.148 0.379c0.026 0.065 0.023 0.139-0.007 0.202l-0.13 0.277c-0.023 0.049-0.025 0.106-0.005 0.157 0.030 0.076 0.102 0.126 0.184 0.127l0.031 0c0.14 0.002 0.25 0.12 0.242 0.26l-0.013 0.212c-0.003 0.056 0.029 0.108 0.082 0.129l0.030 0.012c0.056 0.022 0.080 0.088 0.052 0.141-0.024 0.046-0.009 0.103 0.034 0.131l0.030 0.020c0.076 0.051 0.085 0.16 0.017 0.222l-0.041 0.037c-0.029 0.027-0.049 0.062-0.056 0.101l-0.021 0.109c-0.023 0.12-0.004 0.245 0.055 0.352l0.102 0.186c0.049 0.089 0.085 0.186 0.106 0.286l0.042 0.202c0.018 0.085 0.063 0.162 0.128 0.219l0.124 0.11c0.018 0.016 0.042 0.022 0.065 0.017l0.009-0.002c0.046-0.010 0.088 0.029 0.082 0.076-0.003 0.023-0.018 0.043-0.040 0.053l-0.194 0.085c-0.058 0.025-0.090 0.088-0.077 0.149 0.006 0.032 0.024 0.060 0.050 0.079l0.074 0.056c0.156 0.119 0.197 0.337 0.094 0.504l-0.054 0.089c-0.051 0.084-0.126 0.151-0.215 0.192l-0.225 0.104c-0.075 0.035-0.128 0.105-0.14 0.186l-0.003 0.022c-0.012 0.075 0.018 0.149 0.077 0.196 0.044 0.035 0.072 0.085 0.079 0.141l0.024 0.209c0.006 0.053 0.026 0.104 0.059 0.147 0.059 0.077 0.151 0.12 0.248 0.116l0.040-0.002c0.068-0.003 0.135 0.013 0.195 0.046l0.191 0.105c0.082 0.045 0.12 0.144 0.089 0.232-0.011 0.032-0.014 0.067-0.007 0.1l0.022 0.114c0.003 0.016 0.017 0.029 0.033 0.030 0.031 0.003 0.045 0.039 0.024 0.062l-0.037 0.041c-0.025 0.028-0.022 0.070 0.007 0.094l0.128 0.108c0.052 0.044 0.12 0.062 0.187 0.051l0.040-0.007c0.040-0.007 0.081 0.003 0.114 0.026 0.082 0.057 0.197 0.022 0.23-0.072l0.009-0.026c0.007-0.020 0.022-0.037 0.042-0.046 0.048-0.023 0.106 0.005 0.117 0.057l0.035 0.162c0.013 0.060 0.051 0.112 0.106 0.142l0.022 0.012c0.012 0.006 0.024 0.011 0.037 0.014l0.011 0.002c0.082 0.017 0.125 0.107 0.088 0.181l-0.007 0.015c-0.010 0.021-0.029 0.037-0.051 0.044-0.061 0.021-0.080 0.097-0.036 0.144l0.16 0.169c0.055 0.059 0.137 0.085 0.216 0.070l0.259-0.049c0.033-0.006 0.068 0.008 0.087 0.036 0.023 0.034 0.067 0.046 0.105 0.030l0.207-0.088c0.020-0.009 0.043-0.012 0.065-0.010l0.098 0.009c0.056 0.005 0.098-0.052 0.076-0.104-0.017-0.040 0.004-0.087 0.046-0.1l0.070-0.023c0.035-0.011 0.064-0.036 0.082-0.068l0.241-0.449c0.024-0.046 0.065-0.081 0.113-0.1 0.086-0.033 0.141-0.116 0.139-0.208l-0.004-0.13c-0.002-0.053-0.013-0.104-0.035-0.152l-0.065-0.144c-0.011-0.024-0.012-0.051-0.003-0.075l0.008-0.022c0.016-0.044 0.068-0.065 0.11-0.043 0.017 0.009 0.038 0.011 0.056 0.006l0.194-0.051c0.074-0.020 0.139-0.063 0.185-0.125l0.023-0.031c0.032-0.043 0.079-0.074 0.131-0.086 0.037-0.009 0.077-0.008 0.114 0.002l0.065 0.018c0.177 0.048 0.313 0.19 0.353 0.369l0.033 0.149c0.007 0.029 0.020 0.057 0.040 0.079l0.044 0.050c0.056 0.064 0.156 0.058 0.204-0.011 0.027-0.039 0.030-0.089 0.009-0.132l-0.020-0.041c-0.037-0.074-0.004-0.164 0.072-0.196l0.014-0.006c0.023-0.010 0.041-0.028 0.052-0.050l0.089-0.183c0.014-0.029 0.056-0.023 0.063 0.008 0.004 0.017 0.019 0.028 0.036 0.026l0.161-0.016c0.139-0.014 0.254 0.108 0.233 0.246l-0.018 0.117c-0.026 0.166 0.087 0.322 0.253 0.349l1.144 0.188c0.069 0.011 0.122 0.068 0.128 0.138l0.007 0.081c0.002 0.023 0.019 0.041 0.042 0.045 0.025 0.004 0.049-0.012 0.055-0.036l0.192-0.726c0.012-0.047 0.049-0.083 0.095-0.096 0.064-0.017 0.106-0.078 0.099-0.144l-0.008-0.083c-0.007-0.068 0.036-0.131 0.102-0.15 0.059-0.017 0.1-0.070 0.102-0.131l0.001-0.036c0.002-0.065 0.038-0.125 0.094-0.158l0.027-0.016c0.104-0.061 0.237-0.038 0.315 0.054l0.218 0.259c0.036 0.043 0.090 0.068 0.146 0.068 0.055 0 0.108-0.024 0.144-0.066l0.198-0.227c0.024-0.028 0.064-0.038 0.099-0.025s0.075 0.003 0.099-0.026l0.053-0.062c0.067-0.078 0.181-0.095 0.268-0.040l0.056 0.036c0.045 0.028 0.097 0.044 0.15 0.044l0.081 0.001c0.104 0.001 0.207 0.030 0.295 0.085l0.238 0.148c0.081 0.050 0.185 0.039 0.254-0.026 0.039-0.038 0.092-0.058 0.146-0.058l0.112 0.001c0.066 0.001 0.13-0.020 0.183-0.060 0.056-0.041 0.124-0.062 0.193-0.059l0.385 0.017c0.060 0.003 0.119-0.017 0.166-0.055l0.023-0.019c0.039-0.032 0.090-0.045 0.14-0.038 0.082 0.012 0.162-0.033 0.193-0.11l0.049-0.121c0.009-0.023 0.031-0.037 0.055-0.038 0.030-0.001 0.056-0.024 0.059-0.054l0.028-0.258c0.002-0.021-0.006-0.042-0.022-0.056-0.042-0.037-0.021-0.106 0.034-0.114l0.453-0.065c0.052-0.008 0.099-0.035 0.131-0.076 0.031-0.040 0.046-0.090 0.042-0.14l-0.003-0.043c-0.004-0.052 0.011-0.104 0.043-0.146l0.138-0.179c0.017-0.022 0.050-0.021 0.066 0.001 0.026 0.035 0.082 0.011 0.074-0.033l-0.001-0.005c-0.004-0.021 0.008-0.042 0.028-0.048l0.123-0.041c0.026-0.009 0.049-0.022 0.069-0.041l0.072-0.067c0.114-0.106 0.186-0.249 0.203-0.404l0.031-0.28c0.006-0.058 0.027-0.113 0.059-0.161l0.040-0.058c0.011-0.017 0.027-0.030 0.045-0.038l0.011-0.005c0.034-0.016 0.075-0.008 0.102 0.018l0.036 0.036c0.029 0.029 0.079 0.019 0.094-0.020l0.007-0.019c0.005-0.014 0.019-0.022 0.033-0.020 0.025 0.003 0.043-0.023 0.032-0.045l-0.074-0.149c-0.009-0.017-0.005-0.038 0.009-0.052 0.027-0.026 0.012-0.071-0.025-0.076l-0.025-0.004c-0.032-0.005-0.054-0.035-0.048-0.066l0.030-0.181c0.006-0.035 0.019-0.068 0.039-0.096l0.569-0.826c0.013-0.020 0.019-0.043 0.016-0.067l-0.011-0.090c-0.005-0.036 0.033-0.063 0.066-0.048 0.024 0.011 0.052 0 0.062-0.024l0.005-0.012c0.012-0.028 0-0.061-0.027-0.075l-0.054-0.029c-0.051-0.028-0.077-0.086-0.063-0.143l0.063-0.246c0.006-0.021 0.019-0.040 0.038-0.052 0.038-0.023 0.051-0.070 0.032-0.11l-0.056-0.114c-0.022-0.045-0.029-0.097-0.018-0.146l0.026-0.121c0.016-0.075-0.012-0.152-0.072-0.198-0.074-0.057-0.098-0.159-0.057-0.243l0.155-0.317c0.028-0.056 0.032-0.121 0.013-0.181l-0.001-0.004c-0.033-0.105 0.009-0.22 0.104-0.277l0.080-0.049c0.040-0.025 0.092-0.021 0.128 0.010 0.047 0.040 0.118 0.033 0.157-0.015l0.148-0.183c0.043-0.053 0.101-0.092 0.166-0.112l0.607-0.184c0.034-0.010 0.060-0.039 0.068-0.074 0.006-0.027 0-0.055-0.016-0.077l-0.194-0.28c-0.017-0.024-0.041-0.041-0.069-0.050l-0.033-0.010c-0.032-0.009-0.055-0.038-0.057-0.072l-0.001-0.012c-0.001-0.021 0.009-0.041 0.026-0.052 0.038-0.025 0.035-0.080-0.005-0.101l-0.229-0.119c-0.011-0.006-0.025-0.006-0.036-0.001-0.042 0.018-0.079-0.034-0.048-0.067l0.020-0.022c0.026-0.028 0.009-0.074-0.029-0.079-0.031-0.004-0.050-0.036-0.038-0.065l0.028-0.067c0.015-0.035 0.048-0.059 0.086-0.062l0.572-0.045c0.068-0.005 0.137-0.003 0.204 0.009l0.131 0.022c0.067 0.011 0.13 0.041 0.182 0.086l0.038 0.033c0.023 0.020 0.040 0.045 0.050 0.074 0.014 0.039 0.014 0.082-0 0.121l-0.102 0.279c-0.043 0.116-0.063 0.238-0.061 0.362l0.003 0.144c0.001 0.073 0.019 0.144 0.051 0.209l0.054 0.11c0.032 0.065 0.092 0.112 0.163 0.127l0.044 0.009c0.049 0.011 0.089 0.044 0.108 0.090l0.015 0.036c0.019 0.044 0.065 0.070 0.113 0.062 0.054-0.009 0.106 0.026 0.119 0.079l0.017 0.074c0.008 0.036 0.045 0.059 0.081 0.049 0.026-0.007 0.046-0.029 0.049-0.055l0.016-0.12c0.014-0.108 0.099-0.194 0.207-0.21l0.018-0.003c0.091-0.013 0.167-0.075 0.199-0.161l0.019-0.050c0.016-0.043 0.051-0.076 0.096-0.089l0.019-0.006c0.032-0.009 0.058-0.033 0.070-0.065 0.016-0.044 0.059-0.072 0.105-0.069l0.014 0.001c0.063 0.004 0.112 0.054 0.116 0.116l0.015 0.235c0.012 0.194 0.164 0.349 0.358 0.366l0.198 0.017c0.219 0.019 0.429-0.087 0.544-0.274l0.125-0.203c0.019-0.031 0.052-0.052 0.089-0.054 0.062-0.005 0.109-0.058 0.106-0.12l-0.006-0.117c-0.004-0.073 0.026-0.143 0.081-0.191l0.075-0.065c0.052-0.045 0.093-0.101 0.119-0.164l0.003-0.008c0.077-0.188 0.266-0.305 0.468-0.291l0.245 0.016c0.041 0.003 0.077 0.029 0.093 0.067 0.035 0.087 0.156 0.090 0.197 0.006l0.025-0.052c0.013-0.028 0.017-0.059 0.010-0.088l-0.050-0.22c-0.062-0.269 0.062-0.547 0.303-0.681l0.148-0.083c0.023-0.013 0.050-0.018 0.076-0.014l0.044 0.006c0.033 0.005 0.064-0.015 0.074-0.046 0.012-0.038-0.011-0.078-0.049-0.086l-0.418-0.096c-0.019-0.004-0.039-0.004-0.058 0-0.083 0.020-0.161-0.046-0.156-0.131l0.015-0.253c0.006-0.11 0.070-0.209 0.167-0.261l0.279-0.148c0.066-0.035 0.088-0.119 0.048-0.182l-0.028-0.044c-0.015-0.023-0.044-0.034-0.070-0.025-0.031 0.010-0.065-0.006-0.076-0.037l-0.014-0.038c-0.027-0.075 0.041-0.149 0.118-0.128 0.044 0.012 0.091-0.008 0.112-0.048l0.25-0.472c0.009-0.017 0.010-0.037 0.002-0.055-0.015-0.035 0.004-0.075 0.041-0.086l0.061-0.018c0.033-0.010 0.068-0.005 0.097 0.012l0.070 0.042c0.146 0.088 0.336 0.040 0.422-0.107l0.059-0.101c0.031-0.052 0.089-0.081 0.149-0.075l0.029 0.003c0.034 0.004 0.068-0.010 0.090-0.038 0.031-0.039 0.028-0.095-0.006-0.131l-0.085-0.090c-0.060-0.064-0.082-0.155-0.056-0.239l0.089-0.288c0.005-0.016 0.001-0.032-0.009-0.045-0.019-0.022-0.014-0.055 0.010-0.071l0.242-0.154c0.049-0.031 0.063-0.097 0.031-0.146-0.024-0.036-0.023-0.084 0.003-0.119l0.065-0.089c0.054-0.073 0.065-0.169 0.030-0.253l-0.003-0.007c-0.003-0.008-0.006-0.017-0.008-0.026-0.011-0.049 0-0.101 0.032-0.141l0.072-0.090c0.020-0.025 0.026-0.058 0.017-0.089-0.011-0.035-0.040-0.062-0.076-0.068l-0.219-0.038c-0.038-0.007-0.076-0.005-0.113 0.006l-0.077 0.022c-0.093 0.026-0.189-0.028-0.216-0.12l-0.011-0.038c-0.008-0.026-0.003-0.054 0.012-0.076 0.051-0.076-0.029-0.171-0.112-0.134l-0.048 0.021c-0.059 0.026-0.127-0.006-0.145-0.067l-0.15-0.51c-0.028-0.094-0.1-0.168-0.193-0.198l-0.273-0.089c-0.046-0.015-0.066-0.070-0.040-0.111l0.031-0.048c0.007-0.011 0.003-0.025-0.008-0.031-0.022-0.011-0.012-0.044 0.012-0.041l0.030 0.003c0.015 0.002 0.028-0.009 0.030-0.023l0.008-0.060c0.006-0.040 0.038-0.072 0.078-0.076l0.002-0c0.039-0.004 0.076 0.016 0.093 0.052l0.002 0.004c0.021 0.044 0.071 0.066 0.117 0.052l0.152-0.046c0.059-0.018 0.111-0.055 0.147-0.105l0.047-0.065c0.038-0.053 0.042-0.122 0.010-0.179l-0.006-0.010c-0.021-0.036-0.024-0.080-0.009-0.119 0.033-0.090-0.031-0.186-0.126-0.19l-0.482-0.020c-0.192-0.008-0.362-0.127-0.435-0.306l-0.071-0.175c-0.055-0.136-0.16-0.246-0.294-0.308l-0.045-0.021c-0.065-0.030-0.12-0.077-0.161-0.135l-0.038-0.054c-0.073-0.105-0.204-0.154-0.328-0.122l-0.129 0.034c-0.055 0.014-0.094 0.063-0.095 0.12-0.002 0.061-0.046 0.112-0.106 0.122l-0.004 0.001c-0.070 0.012-0.117 0.077-0.108 0.148l0.018 0.138c0.005 0.035-0.013 0.069-0.044 0.086s-0.048 0.050-0.044 0.084l0.003 0.026c0.008 0.076-0.054 0.142-0.131 0.138l-0.591-0.030c-0.067-0.003-0.133 0.021-0.181 0.068l-0.058 0.057c-0.026 0.025-0.063 0.035-0.098 0.025-0.064-0.019-0.128 0.029-0.128 0.095l-0.001 0.075c-0 0.038-0.015 0.075-0.040 0.103l-0.018 0.021c-0.050 0.056-0.125 0.084-0.2 0.075l-0.351-0.044c-0.046-0.006-0.092 0.008-0.128 0.038-0.050 0.042-0.121 0.051-0.18 0.022l-0.137-0.067c-0.034-0.016-0.075-0.002-0.091 0.032-0.011 0.024-0.036 0.039-0.062 0.039l-0.114-0.003c-0.047-0.001-0.092 0.011-0.132 0.036l-0.361 0.22c-0.034 0.021-0.073 0.030-0.112 0.026l-0.011-0.001c-0.076-0.007-0.138-0.063-0.151-0.138-0.009-0.048-0.038-0.091-0.081-0.116l-0.169-0.099c-0.089-0.052-0.202-0.031-0.268 0.048l-0.076 0.093c-0.076 0.092-0.224 0.061-0.256-0.054-0.013-0.046-0.047-0.083-0.092-0.099l-0.4-0.145c-0.049-0.018-0.081-0.064-0.079-0.116l0.002-0.095c0.001-0.022-0.019-0.040-0.041-0.038-0.019 0.002-0.036-0.010-0.040-0.029l-0.012-0.055c-0.009-0.040-0.041-0.070-0.081-0.077l-0.369-0.065c-0.047-0.008-0.082-0.049-0.083-0.097l-0-0.010c-0.001-0.049-0.040-0.088-0.089-0.089-0.050-0.001-0.090-0.042-0.089-0.092l0.001-0.041c0.002-0.075 0.065-0.133 0.14-0.128l0.267 0.018c0.027 0.002 0.053-0.009 0.071-0.028l0.007-0.008c0.025-0.027 0.027-0.069 0.005-0.098l-0.001-0.002c-0.019-0.024-0.020-0.058-0.003-0.084 0.019-0.029 0.015-0.068-0.011-0.092l-0.076-0.073c-0.066-0.063-0.081-0.161-0.037-0.241l0.073-0.132c0.034-0.062 0.048-0.133 0.040-0.204l-0.019-0.168c-0.004-0.031-0.025-0.057-0.055-0.067l-0.015-0.005c-0.023-0.007-0.038-0.028-0.039-0.052-0.002-0.037-0.038-0.063-0.073-0.052s-0.072-0.014-0.073-0.052l-0.004-0.125c-0.002-0.057-0.047-0.103-0.103-0.107l-0.034-0.002c-0.042-0.003-0.074-0.040-0.072-0.082 0.002-0.029-0.013-0.057-0.038-0.072l-0.24-0.141c-0.069-0.040-0.109-0.116-0.105-0.195 0.006-0.109-0.071-0.205-0.179-0.222l-0.121-0.019c-0.074-0.012-0.146 0.028-0.176 0.096-0.026 0.059-0.084 0.098-0.148 0.098l-0.83 0.009c-0.029 0-0.055 0.014-0.072 0.037-0.022 0.030-0.061 0.043-0.097 0.034l-0.352-0.094c-0.023-0.006-0.044-0.018-0.060-0.035l-0.012-0.013c-0.036-0.037-0.092-0.044-0.135-0.017-0.029 0.018-0.048 0.047-0.051 0.081l-0.007 0.059c-0.011 0.102-0.088 0.184-0.189 0.202l-0.010 0.002c-0.013 0.002-0.026 0.003-0.040 0.002l-0.079-0.004c-0.030-0.002-0.055-0.022-0.062-0.051l-0.008-0.032c-0.008-0.031 0.019-0.061 0.051-0.056 0.026 0.004 0.051-0.016 0.052-0.042l0.003-0.050c0.002-0.027 0.015-0.051 0.036-0.067l0.227-0.172-0.068 0.048c-0.182 0.13-0.42 0.153-0.623 0.061l-0.124-0.056c-0.048-0.022-0.101-0.027-0.152-0.014l-0.127 0.031c-0.068 0.017-0.135-0.030-0.144-0.099-0.003-0.024 0.001-0.049 0.013-0.071l0.057-0.105c0.024-0.044 0.022-0.099-0.006-0.141l-0.046-0.070c-0.025-0.039-0.008-0.091 0.036-0.107 0.023-0.008 0.048-0.004 0.067 0.010l0.004 0.003c0.048 0.036 0.117 0.009 0.128-0.050l0.004-0.022c0.004-0.022 0.016-0.041 0.032-0.055l0.021-0.018c0.048-0.040 0.070-0.102 0.059-0.164l-0.060-0.323c-0.020-0.107-0.087-0.199-0.182-0.251l-0.067-0.037c-0.031-0.017-0.055-0.044-0.068-0.077-0.018-0.045-0.056-0.078-0.102-0.090l-0.129-0.033c-0.133-0.034-0.239-0.132-0.285-0.261l-0.108-0.307c-0.020-0.056-0.048-0.108-0.084-0.155l-0.016-0.021c-0.063-0.083-0.098-0.185-0.099-0.289l-0.001-0.122c-0.001-0.123-0.077-0.234-0.192-0.28l-0.079-0.032c-0.050-0.020-0.085-0.064-0.094-0.117-0.013-0.077-0.082-0.132-0.16-0.128l-0.442 0.026c-0.177 0.011-0.333-0.117-0.359-0.292-0.009-0.062-0.001-0.125 0.024-0.182l0.044-0.103c0.027-0.064 0.018-0.138-0.023-0.193l-0.021-0.028c-0.064-0.085-0.033-0.208 0.064-0.252l0.019-0.009c0.027-0.012 0.048-0.035 0.059-0.063 0.014-0.036 0.009-0.077-0.013-0.109l-0.105-0.147c-0.048-0.068-0.077-0.148-0.082-0.231l-0.019-0.288c-0.003-0.041 0.009-0.082 0.034-0.114 0.037-0.049 0.097-0.074 0.158-0.066l0.115 0.015c0.014 0.002 0.027-0.001 0.039-0.008 0.040-0.025 0.037-0.084-0.005-0.105l-0.036-0.017c-0.042-0.020-0.059-0.072-0.036-0.112l0.039-0.070c0.030-0.055 0.025-0.122-0.013-0.172l-0.129-0.166c-0.025-0.033-0.023-0.079 0.005-0.109 0.018-0.019 0.044-0.029 0.070-0.027l0.228 0.022c0.028 0.003 0.057-0.005 0.079-0.023 0.030-0.023 0.046-0.059 0.044-0.096l-0.005-0.071c-0.003-0.049-0.021-0.095-0.051-0.134l-0.062-0.080c-0.022-0.029-0.047-0.055-0.075-0.080l-0.155-0.137zM14.181 13.693c0 0.070-0.037 0.136-0.098 0.172-0.046 0.028-0.102 0.035-0.154 0.021l-0.021-0.006c-0.056-0.015-0.116-0.010-0.168 0.014l-0.025 0.011c-0.075 0.034-0.135 0.095-0.166 0.172l-0.026 0.063c-0.041 0.098-0.049 0.206-0.024 0.309l0.064 0.266c0.033 0.138 0.115 0.259 0.231 0.342l0.018 0.013c0.125 0.089 0.206 0.228 0.223 0.38 0.015 0.14-0.025 0.281-0.112 0.392l-0.113 0.145c-0.072 0.092-0.166 0.166-0.273 0.214l-0.083 0.037c-0.167 0.075-0.361 0.062-0.517-0.035l-0.074-0.046c-0.058-0.036-0.126-0.051-0.193-0.043l-0.046 0.005c-0.047 0.005-0.091 0.029-0.121 0.065-0.024 0.029-0.039 0.065-0.043 0.103l-0.023 0.253c-0.004 0.045 0.016 0.088 0.052 0.115 0.029 0.021 0.048 0.053 0.052 0.089l0.013 0.117c0.010 0.087-0.009 0.175-0.055 0.25l-0.006 0.010c-0.041 0.067-0.062 0.144-0.062 0.223v0.058c0 0.052 0.006 0.103 0.019 0.154l0.046 0.179c0.024 0.095-0.002 0.197-0.070 0.268-0.079 0.084-0.201 0.112-0.309 0.072l-0.006-0.002c-0.058-0.022-0.108-0.061-0.143-0.113l-0.134-0.198c-0.047-0.070-0.085-0.145-0.114-0.224l-0.139-0.379c-0.015-0.041-0.026-0.084-0.031-0.127l-0.051-0.384c-0.014-0.106-0.109-0.181-0.215-0.172-0.054 0.005-0.107-0.012-0.148-0.047l-0.137-0.118c-0.025-0.021-0.055-0.035-0.087-0.041-0.065-0.011-0.118-0.056-0.14-0.117l-0.126-0.362c-0.037-0.106-0.137-0.177-0.249-0.177h-0.006c-0.052 0-0.103-0.017-0.145-0.048-0.047-0.035-0.081-0.085-0.094-0.142l-0.039-0.168c-0.036-0.154-0.162-0.27-0.319-0.293-0.055-0.008-0.112-0.004-0.165 0.012l-0.211 0.062c-0.034 0.010-0.066 0.024-0.096 0.042l-0.064 0.038c-0.040 0.024-0.070 0.060-0.087 0.103l-0.016 0.041c-0.017 0.045-0.058 0.077-0.105 0.083-0.064 0.009-0.125-0.031-0.144-0.093l-0.016-0.055c-0.013-0.044-0.011-0.092 0.007-0.134l0.23-0.544c0.023-0.054 0.035-0.112 0.035-0.171 0-0.108 0.040-0.212 0.111-0.292l0.229-0.257c0.044-0.050 0.112-0.072 0.176-0.058l0.031 0.007c0.061 0.013 0.124-0.016 0.154-0.071 0.022-0.039 0.023-0.086 0.005-0.127l-0.014-0.032c-0.017-0.038-0.044-0.070-0.079-0.092l-0.26-0.167c-0.029-0.019-0.048-0.049-0.053-0.084l-0-0.003c-0.005-0.044 0.016-0.087 0.053-0.109 0.015-0.009 0.032-0.014 0.049-0.015l0.529-0.037c0.11-0.008 0.221-0.003 0.329 0.015l0.127 0.020c0.222 0.036 0.427 0.141 0.585 0.302l0.317 0.323c0.146 0.148 0.373 0.181 0.554 0.079 0.069-0.038 0.146-0.059 0.225-0.059h0.524c0.083 0 0.163-0.027 0.229-0.077 0.045-0.034 0.082-0.078 0.108-0.129l0.048-0.093c0.053-0.104 0.146-0.183 0.257-0.22 0.088-0.029 0.183-0.030 0.271-0.002l0.284 0.088c0.051 0.016 0.098 0.044 0.136 0.082 0.062 0.062 0.097 0.146 0.097 0.233v0.12z"></path>
<path d="M11.44 3.701c-0.059-0.052-0.139-0.073-0.216-0.056l-0.1 0.022c-0.124 0.027-0.236-0.080-0.214-0.205 0.018-0.104-0.058-0.201-0.163-0.209l-0.204-0.015c-0.085-0.006-0.164-0.042-0.226-0.1l-0.524-0.503c-0.008-0.008-0.015-0.016-0.021-0.026-0.035-0.056-0.023-0.129 0.028-0.171l0.072-0.060c0.072-0.060 0.103-0.156 0.078-0.246l-0.102-0.377c-0.004-0.014 0.002-0.030 0.015-0.038 0.026-0.016 0.020-0.055-0.010-0.061l-0.054-0.012c-0.012-0.003-0.023-0.010-0.031-0.020l-0.287-0.362c-0.067-0.084-0.143-0.16-0.227-0.227l-0.106-0.084c-0.099-0.078-0.211-0.138-0.331-0.178l-0.179-0.059c-0.027-0.009-0.052-0.023-0.073-0.042l-0.097-0.088c-0.059-0.054-0.154-0.031-0.182 0.044-0.027 0.072-0.116 0.097-0.176 0.050l-0.173-0.137c-0.013-0.010-0.031-0.012-0.046-0.005-0.019 0.009-0.029 0.031-0.023 0.052l0.033 0.109c0.010 0.032-0.004 0.067-0.034 0.083-0.015 0.008-0.033 0.011-0.050 0.007l-0.759-0.185c-0.077-0.019-0.154 0.030-0.17 0.107-0.008 0.038-0.031 0.071-0.064 0.091l-0.098 0.059c-0.025 0.015-0.054 0.018-0.082 0.010-0.046-0.014-0.096 0.006-0.118 0.048l-0.002 0.003c-0.030 0.056-0.103 0.073-0.155 0.035l-0.147-0.108c-0.063-0.046-0.143-0.063-0.219-0.044l-0.14 0.034c-0.020 0.005-0.038 0.014-0.053 0.028l-0.038 0.034c-0.026 0.023-0.029 0.063-0.008 0.090 0.013 0.017 0.017 0.040 0.011 0.060l-0.026 0.084c-0.040 0.129-0.187 0.19-0.308 0.13-0.055-0.028-0.12-0.030-0.177-0.007l-0.074 0.031c-0.048 0.020-0.103 0.004-0.133-0.038l-0.015-0.021c-0.019-0.026-0.052-0.037-0.083-0.028s-0.052 0.039-0.052 0.071v0.012c0 0.067-0.071 0.111-0.131 0.081l-0.219-0.11c-0.055-0.028-0.098-0.075-0.119-0.133l-0.090-0.244c-0.020-0.054 0.006-0.115 0.059-0.138 0.042-0.018 0.068-0.060 0.066-0.106l-0.010-0.178c-0.001-0.021-0.005-0.043-0.012-0.063l-0.024-0.073c-0.019-0.059-0.074-0.098-0.136-0.097-0.051 0.001-0.098 0.029-0.122 0.074-0.015 0.028-0.040 0.051-0.070 0.063l-0.242 0.103c-0.022 0.009-0.038 0.027-0.046 0.050l-0.003 0.010c-0.013 0.039-0.056 0.059-0.095 0.044-0.022-0.009-0.048-0.005-0.068 0.008l-0.058 0.040c-0.022 0.016-0.053 0.014-0.073-0.004-0.028-0.024-0.070-0.018-0.090 0.013l-0.038 0.060c-0.015 0.024-0.039 0.041-0.067 0.047-0.048 0.010-0.082 0.051-0.083 0.099l-0.001 0.058c-0.001 0.053-0.027 0.104-0.069 0.136l-0.022 0.017c-0.078 0.059-0.184 0.065-0.267 0.014l-0.008-0.005c-0.129-0.080-0.299-0.026-0.36 0.113l-0.049 0.112c-0.023 0.053-0.033 0.111-0.029 0.169l0.010 0.134c0.005 0.064-0.007 0.127-0.035 0.184-0.073 0.149-0.239 0.229-0.401 0.192l-0.358-0.082c-0.114-0.026-0.234-0.012-0.339 0.040-0.063 0.031-0.119 0.074-0.164 0.128l-0.115 0.136c-0.013 0.016-0.020 0.036-0.020 0.056 0.001 0.050 0.046 0.088 0.096 0.081l0.065-0.010c0.083-0.012 0.158 0.050 0.163 0.133l0.023 0.443c0.005 0.104-0.019 0.207-0.070 0.298l-0.277 0.49c-0.021 0.037-0.057 0.062-0.099 0.068l-0.127 0.018c-0.020 0.003-0.037-0.013-0.036-0.033 0.001-0.022-0.019-0.038-0.040-0.032l-0.302 0.092c-0.124 0.038-0.198 0.164-0.171 0.291l0.197 0.932 0.205 0.695c0.005 0.016 0.017 0.028 0.033 0.032 0.027 0.007 0.055-0.012 0.058-0.040l0.029-0.265c0.006-0.057 0.047-0.103 0.103-0.116 0.036-0.009 0.074-0.002 0.105 0.018l0.355 0.232c0.115 0.075 0.215 0.171 0.295 0.282l0.254 0.352c0.026 0.037 0.057 0.070 0.091 0.1 0.224 0.194 0.268 0.526 0.102 0.771l-0.008 0.012c-0.072 0.106-0.107 0.233-0.101 0.361l0.011 0.216c0 0.006 0.003 0.012 0.008 0.017 0.020 0.020-0.001 0.052-0.028 0.043l-0.186-0.070c-0.009-0.003-0.019-0.005-0.029-0.004l-0.033 0.002c-0.116 0.007-0.208 0.102-0.211 0.218l-0.003 0.111c-0.003 0.104 0.063 0.197 0.162 0.229 0.034 0.011 0.065 0.030 0.090 0.054l0.078 0.075c0.069 0.066 0.123 0.145 0.16 0.233l0.063 0.149c0.047 0.113 0.123 0.211 0.22 0.286l0.088 0.068c0.030 0.024 0.055 0.054 0.071 0.089 0.031 0.066 0.031 0.142 0.001 0.209l-0.069 0.148c-0.045 0.096-0.012 0.211 0.078 0.269l0.060 0.039c0.022 0.014 0.051 0.017 0.075 0.006l0.002-0.001c0.042-0.019 0.091 0.003 0.105 0.047 0.018 0.056-0.030 0.111-0.088 0.1l-0.2-0.037c-0.027-0.005-0.056-0.001-0.081 0.012-0.047 0.025-0.074 0.076-0.066 0.129l0.007 0.049c0.005 0.033 0.024 0.063 0.054 0.080l0.067 0.039c0.038 0.022 0.040 0.077 0.004 0.102-0.021 0.015-0.030 0.041-0.024 0.065l0.012 0.045c0.008 0.030-0.012 0.059-0.043 0.063-0.056 0.007-0.060 0.087-0.005 0.099l0.015 0.003c0.013 0.003 0.027 0.001 0.038-0.006l0.108-0.063c0.061-0.036 0.133-0.050 0.204-0.039l0.057 0.009c0.115 0.018 0.201 0.115 0.204 0.231 0.001 0.051 0.019 0.1 0.050 0.14l0.031 0.040c0.089 0.115 0.107 0.27 0.047 0.403l-0.032 0.071c-0.039 0.086-0.1 0.16-0.178 0.214l-0.215 0.15c-0.044 0.031-0.072 0.081-0.074 0.135-0.003 0.060-0.036 0.115-0.089 0.144l-0.056 0.032c-0.045 0.025-0.1 0.027-0.147 0.006l-0.016-0.007c-0.040-0.018-0.086-0.015-0.123 0.008l-0.006 0.004c-0.008 0.005-0.015 0.011-0.021 0.018-0.025 0.030-0.026 0.072-0.004 0.104 0.024 0.035 0.020 0.082-0.010 0.112l-0.089 0.088c-0.010 0.009-0.013 0.024-0.008 0.036 0.009 0.024-0.011 0.050-0.037 0.045l-0.033-0.006c-0.023-0.004-0.041 0.019-0.032 0.040 0.006 0.015-0.001 0.032-0.016 0.038l-0.017 0.007c-0.033 0.014-0.040 0.057-0.013 0.081l0.312 0.264c0.037 0.031 0.066 0.071 0.084 0.116l0.024 0.060c0.033 0.082 0.045 0.171 0.037 0.26l-0.012 0.124c-0.004 0.042-0.018 0.082-0.041 0.117l-0.050 0.076c-0.022 0.033-0.059 0.051-0.098 0.048l-0.052-0.004c-0.058-0.005-0.099 0.054-0.076 0.107 0.008 0.019 0.009 0.040 0.001 0.059l-0.008 0.021c-0.025 0.063 0.003 0.134 0.064 0.163l0.143 0.068c0.095 0.045 0.159 0.137 0.169 0.241l0.008 0.078c0.008 0.085-0.030 0.167-0.099 0.217l-0.050 0.035c-0.047 0.033-0.109 0.036-0.158 0.006l-0.053-0.032c-0.057-0.034-0.13-0.004-0.147 0.060-0.015 0.058 0.025 0.116 0.084 0.123l0.227 0.026c0.049 0.006 0.089 0.041 0.101 0.088 0.009 0.036 0 0.075-0.024 0.104l-0.199 0.239c-0.020 0.023-0.049 0.036-0.080 0.034l-0.004-0c-0.077-0.006-0.127 0.080-0.084 0.144 0.021 0.032 0.060 0.047 0.097 0.039l0.053-0.012c0.042-0.009 0.079-0.034 0.104-0.070l0.006-0.009c0.031-0.045 0.079-0.075 0.133-0.084l0.308-0.050c0.169-0.028 0.339 0.043 0.438 0.182l0.031 0.043c0.032 0.044 0.050 0.096 0.051 0.15l0.003 0.091c0.003 0.070 0.051 0.129 0.119 0.145l0.022 0.005c0.027 0.006 0.050 0.023 0.064 0.047l0.024 0.040c0.013 0.022 0.041 0.031 0.065 0.020 0.043-0.020 0.088 0.025 0.066 0.068l-0.1 0.2c-0.020 0.039-0.018 0.086 0.005 0.124l0.016 0.026c0.024 0.040 0.063 0.070 0.109 0.082l0.319 0.086c0.015 0.004 0.030 0.004 0.045 0.001 0.073-0.017 0.135 0.056 0.106 0.125l-0.056 0.138c-0.017 0.043-0.016 0.090 0.003 0.132l0.031 0.066c0.024 0.052-0.001 0.113-0.055 0.133-0.056 0.021-0.081 0.087-0.052 0.139l0.224 0.404c0.026 0.046 0.005 0.104-0.043 0.124-0.023 0.010-0.041 0.029-0.050 0.053l-0.068 0.196c-0.015 0.043-0.039 0.083-0.070 0.116l-0.024 0.026c-0.111 0.118-0.104 0.305 0.017 0.413 0.116 0.105 0.128 0.285 0.025 0.404l-0.098 0.114c-0.011 0.012-0.017 0.027-0.020 0.043l-0.006 0.044c-0.003 0.024 0.014 0.047 0.039 0.048 0.040 0.003 0.054 0.055 0.021 0.078l-0.075 0.051c-0.037 0.025-0.044 0.078-0.014 0.111l0.253 0.283c0.072 0.080 0.109 0.186 0.103 0.294l-0.008 0.141c-0.002 0.043-0.024 0.083-0.058 0.109-0.058 0.044-0.075 0.122-0.042 0.186l0.106 0.202c0.015 0.029 0.014 0.064-0.004 0.092-0.022 0.035-0.018 0.080 0.010 0.111l0.171 0.187c0.021 0.023 0.025 0.056 0.011 0.083-0.012 0.022-0.011 0.049 0.002 0.071l0.119 0.203c0.036 0.062 0.040 0.138 0.009 0.203-0.020 0.043-0.054 0.078-0.096 0.1l-0.302 0.159c-0.051 0.027-0.051 0.099-0 0.126 0.044 0.023 0.051 0.083 0.014 0.116l-0.263 0.233c-0.024 0.022-0.019 0.061 0.011 0.075 0.028 0.013 0.035 0.050 0.013 0.072l-0.041 0.043c-0.022 0.023-0.056 0.028-0.084 0.012-0.030-0.017-0.067-0.009-0.088 0.017l-0.105 0.133c-0.025 0.032-0.068 0.045-0.106 0.032-0.050-0.016-0.104 0.010-0.122 0.060l-0.003 0.007c-0.012 0.033-0.040 0.058-0.074 0.067l-0.328 0.080c-0.040 0.010-0.071 0.039-0.084 0.078-0.024 0.075-0.114 0.105-0.179 0.060l-0.090-0.063c-0.044-0.031-0.104-0.029-0.146 0.004l-0.009 0.007c-0.036 0.029-0.050 0.077-0.034 0.12 0.012 0.033 0.007 0.069-0.013 0.097l-0.038 0.055c-0.030 0.043-0.093 0.043-0.123 0.001-0.025-0.035-0.075-0.042-0.109-0.014l-0.102 0.085c-0.012 0.010-0.028 0.014-0.044 0.010-0.039-0.010-0.072 0.028-0.058 0.065l0.148 0.379c0.026 0.065 0.023 0.139-0.007 0.202l-0.13 0.277c-0.023 0.049-0.025 0.106-0.005 0.157 0.030 0.076 0.102 0.126 0.184 0.127l0.031 0c0.14 0.002 0.25 0.12 0.242 0.26l-0.013 0.212c-0.003 0.056 0.029 0.108 0.082 0.129l0.030 0.012c0.056 0.022 0.080 0.088 0.052 0.141-0.024 0.046-0.009 0.103 0.034 0.131l0.030 0.020c0.076 0.051 0.085 0.16 0.017 0.222l-0.041 0.037c-0.029 0.027-0.049 0.062-0.056 0.101l-0.021 0.109c-0.023 0.12-0.004 0.245 0.055 0.352l0.102 0.186c0.049 0.089 0.085 0.186 0.106 0.286l0.042 0.202c0.018 0.085 0.063 0.162 0.128 0.219l0.124 0.11c0.018 0.016 0.042 0.022 0.065 0.017l0.009-0.002c0.046-0.010 0.088 0.029 0.082 0.076-0.003 0.023-0.018 0.043-0.040 0.053l-0.194 0.085c-0.058 0.025-0.090 0.088-0.077 0.149 0.006 0.032 0.024 0.060 0.050 0.079l0.074 0.056c0.156 0.119 0.197 0.337 0.094 0.504l-0.054 0.089c-0.051 0.084-0.126 0.151-0.215 0.192l-0.225 0.104c-0.075 0.035-0.128 0.105-0.14 0.186l-0.003 0.022c-0.012 0.075 0.018 0.149 0.077 0.196 0.044 0.035 0.072 0.085 0.079 0.141l0.024 0.209c0.006 0.053 0.026 0.104 0.059 0.147 0.059 0.077 0.151 0.12 0.248 0.116l0.040-0.002c0.068-0.003 0.135 0.013 0.195 0.046l0.191 0.105c0.082 0.045 0.12 0.144 0.089 0.232-0.011 0.032-0.014 0.067-0.007 0.1l0.022 0.114c0.003 0.016 0.017 0.029 0.033 0.030 0.031 0.003 0.045 0.039 0.024 0.062l-0.037 0.041c-0.025 0.028-0.022 0.070 0.007 0.094l0.128 0.108c0.052 0.044 0.12 0.062 0.187 0.051l0.040-0.007c0.040-0.007 0.081 0.003 0.114 0.026 0.082 0.057 0.197 0.022 0.23-0.072l0.009-0.026c0.007-0.020 0.022-0.037 0.042-0.046 0.048-0.023 0.106 0.005 0.117 0.057l0.035 0.162c0.013 0.060 0.051 0.112 0.106 0.142l0.022 0.012c0.012 0.006 0.024 0.011 0.037 0.014l0.011 0.002c0.082 0.017 0.125 0.107 0.088 0.181l-0.007 0.015c-0.010 0.021-0.029 0.037-0.051 0.044-0.061 0.021-0.080 0.097-0.036 0.144l0.16 0.169c0.055 0.059 0.137 0.085 0.216 0.070l0.259-0.049c0.033-0.006 0.068 0.008 0.087 0.036 0.023 0.034 0.067 0.046 0.105 0.030l0.207-0.088c0.020-0.009 0.043-0.012 0.065-0.010l0.098 0.009c0.056 0.005 0.098-0.052 0.076-0.104-0.017-0.040 0.004-0.087 0.046-0.1l0.070-0.023c0.035-0.011 0.064-0.036 0.082-0.068l0.241-0.449c0.024-0.046 0.065-0.081 0.113-0.1 0.086-0.033 0.141-0.116 0.139-0.208l-0.004-0.13c-0.002-0.053-0.013-0.104-0.035-0.152l-0.065-0.144c-0.011-0.024-0.012-0.051-0.003-0.075l0.008-0.022c0.016-0.044 0.068-0.065 0.11-0.043 0.017 0.009 0.038 0.011 0.056 0.006l0.194-0.051c0.074-0.020 0.139-0.063 0.185-0.125l0.023-0.031c0.032-0.043 0.079-0.074 0.131-0.086 0.037-0.009 0.077-0.008 0.114 0.002l0.065 0.018c0.177 0.048 0.313 0.19 0.353 0.369l0.033 0.149c0.007 0.029 0.020 0.057 0.040 0.079l0.044 0.050c0.056 0.064 0.156 0.058 0.204-0.011 0.027-0.039 0.030-0.089 0.009-0.132l-0.020-0.041c-0.037-0.074-0.004-0.164 0.072-0.196l0.014-0.006c0.023-0.010 0.041-0.028 0.052-0.050l0.089-0.183c0.014-0.029 0.056-0.023 0.063 0.008 0.004 0.017 0.019 0.028 0.036 0.026l0.161-0.016c0.139-0.014 0.254 0.108 0.233 0.246l-0.018 0.117c-0.026 0.166 0.087 0.322 0.253 0.349l1.144 0.188c0.069 0.011 0.122 0.068 0.128 0.138l0.007 0.081c0.002 0.023 0.019 0.041 0.042 0.045 0.025 0.004 0.049-0.012 0.055-0.036l0.192-0.726c0.012-0.047 0.049-0.083 0.095-0.096 0.064-0.017 0.106-0.078 0.099-0.144l-0.008-0.083c-0.007-0.068 0.036-0.131 0.102-0.15 0.059-0.017 0.1-0.070 0.102-0.131l0.001-0.036c0.002-0.065 0.038-0.125 0.094-0.158l0.027-0.016c0.104-0.061 0.237-0.038 0.315 0.054l0.218 0.259c0.036 0.043 0.090 0.068 0.146 0.068 0.055 0 0.108-0.024 0.144-0.066l0.198-0.227c0.024-0.028 0.064-0.038 0.099-0.025s0.075 0.003 0.099-0.026l0.053-0.062c0.067-0.078 0.181-0.095 0.268-0.040l0.056 0.036c0.045 0.028 0.097 0.044 0.15 0.044l0.081 0.001c0.104 0.001 0.207 0.030 0.295 0.085l0.238 0.148c0.081 0.050 0.185 0.039 0.254-0.026 0.039-0.038 0.092-0.058 0.146-0.058l0.112 0.001c0.066 0.001 0.13-0.020 0.183-0.060 0.056-0.041 0.124-0.062 0.193-0.059l0.385 0.017c0.060 0.003 0.119-0.017 0.166-0.055l0.023-0.019c0.039-0.032 0.090-0.045 0.14-0.038 0.082 0.012 0.162-0.033 0.193-0.11l0.049-0.121c0.009-0.023 0.031-0.037 0.055-0.038 0.030-0.001 0.056-0.024 0.059-0.054l0.028-0.258c0.002-0.021-0.006-0.042-0.022-0.056-0.042-0.037-0.021-0.106 0.034-0.114l0.453-0.065c0.052-0.008 0.099-0.035 0.131-0.076 0.031-0.040 0.046-0.090 0.042-0.14l-0.003-0.043c-0.004-0.052 0.011-0.104 0.043-0.146l0.138-0.179c0.017-0.022 0.050-0.021 0.066 0.001 0.026 0.035 0.082 0.011 0.074-0.033l-0.001-0.005c-0.004-0.021 0.008-0.042 0.028-0.048l0.123-0.041c0.026-0.009 0.049-0.022 0.069-0.041l0.072-0.067c0.114-0.106 0.186-0.249 0.203-0.404l0.031-0.28c0.006-0.058 0.027-0.113 0.059-0.161l0.040-0.058c0.011-0.017 0.027-0.030 0.045-0.038l0.011-0.005c0.034-0.016 0.075-0.008 0.102 0.018l0.036 0.036c0.029 0.029 0.079 0.019 0.094-0.020l0.007-0.019c0.005-0.014 0.019-0.022 0.033-0.020 0.025 0.003 0.043-0.023 0.032-0.045l-0.074-0.149c-0.009-0.017-0.005-0.038 0.009-0.052 0.027-0.026 0.012-0.071-0.025-0.076l-0.025-0.004c-0.032-0.005-0.054-0.035-0.048-0.066l0.030-0.181c0.006-0.035 0.019-0.068 0.039-0.096l0.569-0.826c0.013-0.020 0.019-0.043 0.016-0.067l-0.011-0.090c-0.005-0.036 0.033-0.063 0.066-0.048 0.024 0.011 0.052 0 0.062-0.024l0.005-0.012c0.012-0.028 0-0.061-0.027-0.075l-0.054-0.029c-0.051-0.028-0.077-0.086-0.063-0.143l0.063-0.246c0.006-0.021 0.019-0.040 0.038-0.052 0.038-0.023 0.051-0.070 0.032-0.11l-0.056-0.114c-0.022-0.045-0.029-0.097-0.018-0.146l0.026-0.121c0.016-0.075-0.012-0.152-0.072-0.198-0.074-0.057-0.098-0.159-0.057-0.243l0.155-0.317c0.028-0.056 0.032-0.121 0.013-0.181l-0.001-0.004c-0.033-0.105 0.009-0.22 0.104-0.277l0.080-0.049c0.040-0.025 0.092-0.021 0.128 0.010 0.047 0.040 0.118 0.033 0.157-0.015l0.148-0.183c0.043-0.053 0.101-0.092 0.166-0.112l0.607-0.184c0.034-0.010 0.060-0.039 0.068-0.074 0.006-0.027 0-0.055-0.016-0.077l-0.194-0.28c-0.017-0.024-0.041-0.041-0.069-0.050l-0.033-0.010c-0.032-0.009-0.055-0.038-0.057-0.072l-0.001-0.012c-0.001-0.021 0.009-0.041 0.026-0.052 0.038-0.025 0.035-0.080-0.005-0.101l-0.229-0.119c-0.011-0.006-0.025-0.006-0.036-0.001-0.042 0.018-0.079-0.034-0.048-0.067l0.020-0.022c0.026-0.028 0.009-0.074-0.029-0.079-0.031-0.004-0.050-0.036-0.038-0.065l0.028-0.067c0.015-0.035 0.048-0.059 0.086-0.062l0.572-0.045c0.068-0.005 0.137-0.003 0.204 0.009l0.131 0.022c0.067 0.011 0.13 0.041 0.182 0.086l0.038 0.033c0.023 0.020 0.040 0.045 0.050 0.074 0.014 0.039 0.014 0.082-0 0.121l-0.102 0.279c-0.043 0.116-0.063 0.238-0.061 0.362l0.003 0.144c0.001 0.073 0.019 0.144 0.051 0.209l0.054 0.11c0.032 0.065 0.092 0.112 0.163 0.127l0.044 0.009c0.049 0.011 0.089 0.044 0.108 0.090l0.015 0.036c0.019 0.044 0.065 0.070 0.113 0.062 0.054-0.009 0.106 0.026 0.119 0.079l0.017 0.074c0.008 0.036 0.045 0.059 0.081 0.049 0.026-0.007 0.046-0.029 0.049-0.055l0.016-0.12c0.014-0.108 0.099-0.194 0.207-0.21l0.018-0.003c0.091-0.013 0.167-0.075 0.199-0.161l0.019-0.050c0.016-0.043 0.051-0.076 0.096-0.089l0.019-0.006c0.032-0.009 0.058-0.033 0.070-0.065 0.016-0.044 0.059-0.072 0.105-0.069l0.014 0.001c0.063 0.004 0.112 0.054 0.116 0.116l0.015 0.235c0.012 0.194 0.164 0.349 0.358 0.366l0.198 0.017c0.219 0.019 0.429-0.087 0.544-0.274l0.125-0.203c0.019-0.031 0.052-0.052 0.089-0.054 0.062-0.005 0.109-0.058 0.106-0.12l-0.006-0.117c-0.004-0.073 0.026-0.143 0.081-0.191l0.075-0.065c0.052-0.045 0.093-0.101 0.119-0.164l0.003-0.008c0.077-0.188 0.266-0.305 0.468-0.291l0.245 0.016c0.041 0.003 0.077 0.029 0.093 0.067 0.035 0.087 0.156 0.090 0.197 0.006l0.025-0.052c0.013-0.028 0.017-0.059 0.010-0.088l-0.050-0.22c-0.062-0.269 0.062-0.547 0.303-0.681l0.148-0.083c0.023-0.013 0.050-0.018 0.076-0.014l0.044 0.006c0.033 0.005 0.064-0.015 0.074-0.046 0.012-0.038-0.011-0.078-0.049-0.086l-0.418-0.096c-0.019-0.004-0.039-0.004-0.058 0-0.083 0.020-0.161-0.046-0.156-0.131l0.015-0.253c0.006-0.11 0.070-0.209 0.167-0.261l0.279-0.148c0.066-0.035 0.088-0.119 0.048-0.182l-0.028-0.044c-0.015-0.023-0.044-0.034-0.070-0.025-0.031 0.010-0.065-0.006-0.076-0.037l-0.014-0.038c-0.027-0.075 0.041-0.149 0.118-0.128 0.044 0.012 0.091-0.008 0.112-0.048l0.25-0.472c0.009-0.017 0.010-0.037 0.002-0.055-0.015-0.035 0.004-0.075 0.041-0.086l0.061-0.018c0.033-0.010 0.068-0.005 0.097 0.012l0.070 0.042c0.146 0.088 0.336 0.040 0.422-0.107l0.059-0.101c0.031-0.052 0.089-0.081 0.149-0.075l0.029 0.003c0.034 0.004 0.068-0.010 0.090-0.038 0.031-0.039 0.028-0.095-0.006-0.131l-0.085-0.090c-0.060-0.064-0.082-0.155-0.056-0.239l0.089-0.288c0.005-0.016 0.001-0.032-0.009-0.045-0.019-0.022-0.014-0.055 0.010-0.071l0.242-0.154c0.049-0.031 0.063-0.097 0.031-0.146-0.024-0.036-0.023-0.084 0.003-0.119l0.065-0.089c0.054-0.073 0.065-0.169 0.030-0.253l-0.003-0.007c-0.003-0.008-0.006-0.017-0.008-0.026-0.011-0.049 0-0.101 0.032-0.141l0.072-0.090c0.020-0.025 0.026-0.058 0.017-0.089-0.011-0.035-0.040-0.062-0.076-0.068l-0.219-0.038c-0.038-0.007-0.076-0.005-0.113 0.006l-0.077 0.022c-0.093 0.026-0.189-0.028-0.216-0.12l-0.011-0.038c-0.008-0.026-0.003-0.054 0.012-0.076 0.051-0.076-0.029-0.171-0.112-0.134l-0.048 0.021c-0.059 0.026-0.127-0.006-0.145-0.067l-0.15-0.51c-0.028-0.094-0.1-0.168-0.193-0.198l-0.273-0.089c-0.046-0.015-0.066-0.070-0.040-0.111l0.031-0.048c0.007-0.011 0.003-0.025-0.008-0.031-0.022-0.011-0.012-0.044 0.012-0.041l0.030 0.003c0.015 0.002 0.028-0.009 0.030-0.023l0.008-0.060c0.006-0.040 0.038-0.072 0.078-0.076l0.002-0c0.039-0.004 0.076 0.016 0.093 0.052l0.002 0.004c0.021 0.044 0.071 0.066 0.117 0.052l0.152-0.046c0.059-0.018 0.111-0.055 0.147-0.105l0.047-0.065c0.038-0.053 0.042-0.122 0.010-0.179l-0.006-0.010c-0.021-0.036-0.024-0.080-0.009-0.119 0.033-0.090-0.031-0.186-0.126-0.19l-0.482-0.020c-0.192-0.008-0.362-0.127-0.435-0.306l-0.071-0.175c-0.055-0.136-0.16-0.246-0.294-0.308l-0.045-0.021c-0.065-0.030-0.12-0.077-0.161-0.135l-0.038-0.054c-0.073-0.105-0.204-0.154-0.328-0.122l-0.129 0.034c-0.055 0.014-0.094 0.063-0.095 0.12-0.002 0.061-0.046 0.112-0.106 0.122l-0.004 0.001c-0.070 0.012-0.117 0.077-0.108 0.148l0.018 0.138c0.005 0.035-0.013 0.069-0.044 0.086s-0.048 0.050-0.044 0.084l0.003 0.026c0.008 0.076-0.054 0.142-0.131 0.138l-0.591-0.030c-0.067-0.003-0.133 0.021-0.181 0.068l-0.058 0.057c-0.026 0.025-0.063 0.035-0.098 0.025-0.064-0.019-0.128 0.029-0.128 0.095l-0.001 0.075c-0 0.038-0.015 0.075-0.040 0.103l-0.018 0.021c-0.050 0.056-0.125 0.084-0.2 0.075l-0.351-0.044c-0.046-0.006-0.092 0.008-0.128 0.038-0.050 0.042-0.121 0.051-0.18 0.022l-0.137-0.067c-0.034-0.016-0.075-0.002-0.091 0.032-0.011 0.024-0.036 0.039-0.062 0.039l-0.114-0.003c-0.047-0.001-0.092 0.011-0.132 0.036l-0.361 0.22c-0.034 0.021-0.073 0.030-0.112 0.026l-0.011-0.001c-0.076-0.007-0.138-0.063-0.151-0.138-0.009-0.048-0.038-0.091-0.081-0.116l-0.169-0.099c-0.089-0.052-0.202-0.031-0.268 0.048l-0.076 0.093c-0.076 0.092-0.224 0.061-0.256-0.054-0.013-0.046-0.047-0.083-0.092-0.099l-0.4-0.145c-0.049-0.018-0.081-0.064-0.079-0.116l0.002-0.095c0.001-0.022-0.019-0.040-0.041-0.038-0.019 0.002-0.036-0.010-0.040-0.029l-0.012-0.055c-0.009-0.040-0.041-0.070-0.081-0.077l-0.369-0.065c-0.047-0.008-0.082-0.049-0.083-0.097l-0-0.010c-0.001-0.049-0.040-0.088-0.089-0.089-0.050-0.001-0.090-0.042-0.089-0.092l0.001-0.041c0.002-0.075 0.065-0.133 0.14-0.128l0.267 0.018c0.027 0.002 0.053-0.009 0.071-0.028l0.007-0.008c0.025-0.027 0.027-0.069 0.005-0.098l-0.001-0.002c-0.019-0.024-0.020-0.058-0.003-0.084 0.019-0.029 0.015-0.068-0.011-0.092l-0.076-0.073c-0.066-0.063-0.081-0.161-0.037-0.241l0.073-0.132c0.034-0.062 0.048-0.133 0.040-0.204l-0.019-0.168c-0.004-0.031-0.025-0.057-0.055-0.067l-0.015-0.005c-0.023-0.007-0.038-0.028-0.039-0.052-0.002-0.037-0.038-0.063-0.073-0.052s-0.072-0.014-0.073-0.052l-0.004-0.125c-0.002-0.057-0.047-0.103-0.103-0.107l-0.034-0.002c-0.042-0.003-0.074-0.040-0.072-0.082 0.002-0.029-0.013-0.057-0.038-0.072l-0.24-0.141c-0.069-0.040-0.109-0.116-0.105-0.195 0.006-0.109-0.071-0.205-0.179-0.222l-0.121-0.019c-0.074-0.012-0.146 0.028-0.176 0.096-0.026 0.059-0.084 0.098-0.148 0.098l-0.83 0.009c-0.029 0-0.055 0.014-0.072 0.037-0.022 0.030-0.061 0.043-0.097 0.034l-0.352-0.094c-0.023-0.006-0.044-0.018-0.060-0.035l-0.012-0.013c-0.036-0.037-0.092-0.044-0.135-0.017-0.029 0.018-0.048 0.047-0.051 0.081l-0.007 0.059c-0.011 0.102-0.088 0.184-0.189 0.202l-0.010 0.002c-0.013 0.002-0.026 0.003-0.040 0.002l-0.079-0.004c-0.030-0.002-0.055-0.022-0.062-0.051l-0.008-0.032c-0.008-0.031 0.019-0.061 0.051-0.056 0.026 0.004 0.051-0.016 0.052-0.042l0.003-0.050c0.002-0.027 0.015-0.051 0.036-0.067l0.227-0.172-0.068 0.048c-0.182 0.13-0.42 0.153-0.623 0.061l-0.124-0.056c-0.048-0.022-0.101-0.027-0.152-0.014l-0.127 0.031c-0.068 0.017-0.135-0.030-0.144-0.099-0.003-0.024 0.001-0.049 0.013-0.071l0.057-0.105c0.024-0.044 0.022-0.099-0.006-0.141l-0.046-0.070c-0.025-0.039-0.008-0.091 0.036-0.107 0.023-0.008 0.048-0.004 0.067 0.010l0.004 0.003c0.048 0.036 0.117 0.009 0.128-0.050l0.004-0.022c0.004-0.022 0.016-0.041 0.032-0.055l0.021-0.018c0.048-0.040 0.070-0.102 0.059-0.164l-0.060-0.323c-0.020-0.107-0.087-0.199-0.182-0.251l-0.067-0.037c-0.031-0.017-0.055-0.044-0.068-0.077-0.018-0.045-0.056-0.078-0.102-0.090l-0.129-0.033c-0.133-0.034-0.239-0.132-0.285-0.261l-0.108-0.307c-0.020-0.056-0.048-0.108-0.084-0.155l-0.016-0.021c-0.063-0.083-0.098-0.185-0.099-0.289l-0.001-0.122c-0.001-0.123-0.077-0.234-0.192-0.28l-0.079-0.032c-0.050-0.020-0.085-0.064-0.094-0.117-0.013-0.077-0.082-0.132-0.16-0.128l-0.442 0.026c-0.177 0.011-0.333-0.117-0.359-0.292-0.009-0.062-0.001-0.125 0.024-0.182l0.044-0.103c0.027-0.064 0.018-0.138-0.023-0.193l-0.021-0.028c-0.064-0.085-0.033-0.208 0.064-0.252l0.019-0.009c0.027-0.012 0.048-0.035 0.059-0.063 0.014-0.036 0.009-0.077-0.013-0.109l-0.105-0.147c-0.048-0.068-0.077-0.148-0.082-0.231l-0.019-0.288c-0.003-0.041 0.009-0.082 0.034-0.114 0.037-0.049 0.097-0.074 0.158-0.066l0.115 0.015c0.014 0.002 0.027-0.001 0.039-0.008 0.040-0.025 0.037-0.084-0.005-0.105l-0.036-0.017c-0.042-0.020-0.059-0.072-0.036-0.112l0.039-0.070c0.030-0.055 0.025-0.122-0.013-0.172l-0.129-0.166c-0.025-0.033-0.023-0.079 0.005-0.109 0.018-0.019 0.044-0.029 0.070-0.027l0.228 0.022c0.028 0.003 0.057-0.005 0.079-0.023 0.030-0.023 0.046-0.059 0.044-0.096l-0.005-0.071c-0.003-0.049-0.021-0.095-0.051-0.134l-0.062-0.080c-0.022-0.029-0.047-0.055-0.075-0.080l-0.155-0.137zM14.181 13.693c0 0.070-0.037 0.136-0.098 0.172-0.046 0.028-0.102 0.035-0.154 0.021l-0.021-0.006c-0.056-0.015-0.116-0.010-0.168 0.014l-0.025 0.011c-0.075 0.034-0.135 0.095-0.166 0.172l-0.026 0.063c-0.041 0.098-0.049 0.206-0.024 0.309l0.064 0.266c0.033 0.138 0.115 0.259 0.231 0.342l0.018 0.013c0.125 0.089 0.206 0.228 0.223 0.38 0.015 0.14-0.025 0.281-0.112 0.392l-0.113 0.145c-0.072 0.092-0.166 0.166-0.273 0.214l-0.083 0.037c-0.167 0.075-0.361 0.062-0.517-0.035l-0.074-0.046c-0.058-0.036-0.126-0.051-0.193-0.043l-0.046 0.005c-0.047 0.005-0.091 0.029-0.121 0.065-0.024 0.029-0.039 0.065-0.043 0.103l-0.023 0.253c-0.004 0.045 0.016 0.088 0.052 0.115 0.029 0.021 0.048 0.053 0.052 0.089l0.013 0.117c0.010 0.087-0.009 0.175-0.055 0.25l-0.006 0.010c-0.041 0.067-0.062 0.144-0.062 0.223v0.058c0 0.052 0.006 0.103 0.019 0.154l0.046 0.179c0.024 0.095-0.002 0.197-0.070 0.268-0.079 0.084-0.201 0.112-0.309 0.072l-0.006-0.002c-0.058-0.022-0.108-0.061-0.143-0.113l-0.134-0.198c-0.047-0.070-0.085-0.145-0.114-0.224l-0.139-0.379c-0.015-0.041-0.026-0.084-0.031-0.127l-0.051-0.384c-0.014-0.106-0.109-0.181-0.215-0.172-0.054 0.005-0.107-0.012-0.148-0.047l-0.137-0.118c-0.025-0.021-0.055-0.035-0.087-0.041-0.065-0.011-0.118-0.056-0.14-0.117l-0.126-0.362c-0.037-0.106-0.137-0.177-0.249-0.177h-0.006c-0.052 0-0.103-0.017-0.145-0.048-0.047-0.035-0.081-0.085-0.094-0.142l-0.039-0.168c-0.036-0.154-0.162-0.27-0.319-0.293-0.055-0.008-0.112-0.004-0.165 0.012l-0.211 0.062c-0.034 0.010-0.066 0.024-0.096 0.042l-0.064 0.038c-0.040 0.024-0.070 0.060-0.087 0.103l-0.016 0.041c-0.017 0.045-0.058 0.077-0.105 0.083-0.064 0.009-0.125-0.031-0.144-0.093l-0.016-0.055c-0.013-0.044-0.011-0.092 0.007-0.134l0.23-0.544c0.023-0.054 0.035-0.112 0.035-0.171 0-0.108 0.040-0.212 0.111-0.292l0.229-0.257c0.044-0.050 0.112-0.072 0.176-0.058l0.031 0.007c0.061 0.013 0.124-0.016 0.154-0.071 0.022-0.039 0.023-0.086 0.005-0.127l-0.014-0.032c-0.017-0.038-0.044-0.070-0.079-0.092l-0.26-0.167c-0.029-0.019-0.048-0.049-0.053-0.084l-0-0.003c-0.005-0.044 0.016-0.087 0.053-0.109 0.015-0.009 0.032-0.014 0.049-0.015l0.529-0.037c0.11-0.008 0.221-0.003 0.329 0.015l0.127 0.020c0.222 0.036 0.427 0.141 0.585 0.302l0.317 0.323c0.146 0.148 0.373 0.181 0.554 0.079 0.069-0.038 0.146-0.059 0.225-0.059h0.524c0.083 0 0.163-0.027 0.229-0.077 0.045-0.034 0.082-0.078 0.108-0.129l0.048-0.093c0.053-0.104 0.146-0.183 0.257-0.22 0.088-0.029 0.183-0.030 0.271-0.002l0.284 0.088c0.051 0.016 0.098 0.044 0.136 0.082 0.062 0.062 0.097 0.146 0.097 0.233v0.12z"></path>
</svg>
