<!-- Generated by IcoMoon.io -->
<svg version="1.1" xmlns="http://www.w3.org/2000/svg" width="23" height="32" viewBox="0 0 23 32">
<path stroke-linejoin="round" stroke-linecap="round" stroke-miterlimit="4" stroke-width="0.2832" stroke="#000" fill="#000" d="M4.958 0.324c0.002 0.015 0.005 0.030 0.009 0.044l0.199 0.607c0.013 0.040 0.018 0.082 0.013 0.124-0.013 0.12 0.048 0.236 0.154 0.292l0.297 0.159c0.083 0.045 0.187 0.018 0.239-0.061 0.040-0.062 0.113-0.093 0.186-0.080l0.152 0.028c0.045 0.008 0.075 0.050 0.070 0.095l-0.001 0.013c-0.005 0.042 0.026 0.079 0.067 0.083 0.029 0.003 0.053 0.021 0.063 0.048l0.036 0.098c0.026 0.070 0.084 0.124 0.156 0.146l0.092 0.028c0.107 0.032 0.221 0.022 0.32-0.029l0.233-0.119c0.107-0.054 0.228-0.071 0.345-0.048l0.046 0.009c0.059 0.012 0.114 0.038 0.16 0.077l0.029 0.025c0.112 0.095 0.275 0.098 0.39 0.006l0.024-0.020c0.060-0.048 0.094-0.121 0.092-0.198l-0.006-0.19c-0.001-0.034 0.026-0.061 0.059-0.061 0.017 0 0.034 0.008 0.045 0.021l0.065 0.076c0.087 0.102 0.083 0.252-0.008 0.35-0.055 0.059-0.079 0.139-0.068 0.218l0.013 0.085c0.018 0.118 0.097 0.217 0.208 0.259 0.072 0.028 0.133 0.080 0.17 0.148l0.102 0.184c0.039 0.070 0.109 0.118 0.189 0.13 0.067 0.010 0.128 0.045 0.169 0.099l0.017 0.022c0.062 0.082 0.16 0.13 0.262 0.129l0.028-0c0.084-0.001 0.165 0.026 0.232 0.076l0.022 0.017c0.099 0.074 0.223 0.106 0.346 0.088l0.216-0.032c0.048-0.007 0.098 0.007 0.134 0.040l0.031 0.028c0.050 0.044 0.057 0.121 0.014 0.172-0.027 0.032-0.035 0.076-0.023 0.116l0.046 0.15c0.007 0.022-0 0.046-0.018 0.061-0.021 0.017-0.027 0.047-0.014 0.072l0.156 0.287c0.034 0.063 0.099 0.104 0.171 0.107 0.038 0.002 0.076-0.007 0.11-0.026l0.494-0.275c0.11-0.061 0.238-0.080 0.36-0.054 0.141 0.030 0.288-0 0.406-0.083l0.093-0.065c0.083-0.058 0.154-0.132 0.208-0.217l0.123-0.192c0.027-0.042 0.060-0.078 0.098-0.109 0.21-0.167 0.518-0.114 0.66 0.113l0.091 0.145c0.051 0.081 0.081 0.173 0.089 0.269l0.010 0.119c0.012 0.142 0.052 0.281 0.117 0.408l0.010 0.019c0.059 0.114 0.136 0.217 0.23 0.305 0.132 0.124 0.293 0.214 0.468 0.262l0.244 0.067c0.247 0.068 0.51 0.047 0.743-0.058l0.053-0.024c0.159-0.072 0.335-0.096 0.507-0.069 0.096 0.015 0.189 0.045 0.275 0.089l0.299 0.154c0.053 0.027 0.11 0.044 0.169 0.050l0.277 0.027c0.147 0.014 0.246 0.158 0.205 0.3-0.015 0.053-0.011 0.109 0.011 0.159l0.309 0.715c0.149 0.344 0.443 0.604 0.802 0.708l0.034 0.010c0.181 0.053 0.346 0.151 0.479 0.284 0.224 0.224 0.532 0.343 0.849 0.328l0.221-0.011c0.074-0.004 0.146-0.018 0.216-0.042l0.020-0.007c0.13-0.045 0.243-0.126 0.328-0.235 0.117-0.15 0.289-0.247 0.478-0.269l0.523-0.060c0.052-0.006 0.104 0.003 0.15 0.027 0.064 0.033 0.139 0.038 0.207 0.014l0.359-0.127c0.107-0.038 0.219 0.039 0.224 0.152 0.001 0.035 0.014 0.068 0.035 0.096l0.030 0.039c0.119 0.156 0.074 0.381-0.097 0.478l-0.518 0.292c-0.233 0.132-0.389 0.366-0.421 0.632l-0.007 0.058c-0.024 0.206 0.019 0.415 0.125 0.594l0.109 0.186c0.121 0.206 0.286 0.381 0.484 0.514l0.2 0.135c0.063 0.042 0.121 0.091 0.174 0.145l0.134 0.138c0.166 0.17 0.238 0.41 0.195 0.643l-0.019 0.099c-0.033 0.177 0.025 0.359 0.153 0.485l0.086 0.084c0.065 0.064 0.097 0.154 0.086 0.244l-0.005 0.043c-0.008 0.071-0.051 0.134-0.115 0.166-0.031 0.016-0.065 0.024-0.099 0.024l-0.147-0.001c-0.251-0.001-0.489 0.113-0.645 0.311l-0.206 0.261c-0.085 0.107-0.203 0.184-0.335 0.217-0.152 0.039-0.283 0.133-0.369 0.264l-0.693 1.065c-0.027 0.042-0.043 0.089-0.046 0.139-0.011 0.171-0.168 0.295-0.337 0.267l-0.204-0.034c-0.033-0.005-0.066-0.008-0.099-0.006l-0.449 0.020c-0.124 0.005-0.243 0.049-0.341 0.124-0.14 0.108-0.321 0.149-0.494 0.111l-0.407-0.088c-0.041-0.009-0.083 0.001-0.116 0.027l-0.075 0.059c-0.034 0.027-0.034 0.079 0.001 0.105 0.023 0.018 0.033 0.049 0.022 0.076l-0.142 0.384c-0.015 0.040-0.006 0.086 0.023 0.117 0.040 0.043 0.106 0.050 0.153 0.015l0.022-0.016c0.051-0.038 0.121-0.038 0.173-0l0.076 0.056c0.041 0.031 0.091 0.049 0.142 0.053l0.004 0c0.127 0.009 0.233 0.102 0.258 0.227 0.009 0.044 0.028 0.085 0.056 0.12l0.192 0.241c0.044 0.055 0.046 0.132 0.006 0.19l-0.002 0.003c-0.042 0.061-0.036 0.143 0.016 0.196l0.058 0.059c0.021 0.021 0.054 0.024 0.078 0.006 0.021-0.016 0.050-0.016 0.071-0l0.094 0.069c0.025 0.018 0.044 0.044 0.053 0.074l0.034 0.11c0.020 0.063 0.102 0.079 0.143 0.028l0.007-0.009c0.033-0.040 0.095-0.036 0.122 0.008 0.015 0.025 0.043 0.038 0.072 0.035l0.322-0.037c0.173-0.020 0.347 0.039 0.472 0.161l0.063 0.061c0.042 0.041 0.096 0.069 0.154 0.080 0.158 0.030 0.313-0.069 0.351-0.226l0.015-0.061c0.020-0.082 0.068-0.154 0.134-0.204l0.060-0.045c0.078-0.059 0.184-0.067 0.27-0.020 0.054 0.029 0.096 0.078 0.116 0.136l0.042 0.12c0.070 0.2 0.027 0.422-0.115 0.58l-0.216 0.242c-0.315 0.352-0.816 0.471-1.256 0.299l-0.931-0.366c-0.031-0.012-0.065-0.005-0.088 0.018-0.022 0.022-0.030 0.054-0.021 0.084l0.011 0.035c0.011 0.035-0.013 0.072-0.050 0.074-0.022 0.002-0.041 0.016-0.049 0.037l-0.035 0.095c-0.012 0.032-0.016 0.066-0.012 0.099l0.011 0.094c0.009 0.082-0.015 0.163-0.067 0.227l-0.047 0.057c-0.020 0.024-0.030 0.055-0.027 0.087 0.006 0.068-0.047 0.128-0.116 0.13l-0.025 0.001c-0.078 0.003-0.14 0.068-0.139 0.146l0.001 0.093c0 0.042-0.025 0.079-0.064 0.095-0.036 0.014-0.060 0.048-0.063 0.086l-0.005 0.059c-0.003 0.040-0.028 0.076-0.066 0.091l-0.055 0.023c-0.036 0.015-0.048 0.060-0.025 0.092 0.016 0.021 0.015 0.051-0 0.072-0.026 0.034-0.009 0.083 0.032 0.094l0.011 0.003c0.026 0.007 0.046 0.029 0.049 0.056l0.019 0.145c0.006 0.046-0.009 0.092-0.040 0.125l-0.097 0.103c-0.023 0.024-0.015 0.063 0.014 0.078 0.018 0.009 0.028 0.027 0.027 0.047l-0.003 0.048c-0.003 0.045-0.029 0.084-0.070 0.103l-0.025 0.012c-0.049 0.023-0.077 0.076-0.067 0.13 0.006 0.034-0.003 0.069-0.024 0.096l-0.135 0.168c-0.091 0.114-0.090 0.277 0.003 0.39 0.066 0.080 0.168 0.121 0.271 0.11l0.331-0.036c0.034-0.004 0.067 0.012 0.086 0.041 0.023 0.036 0.067 0.051 0.107 0.037l0.213-0.078c0.065-0.024 0.138-0.013 0.194 0.029l0.036 0.027c0.017 0.013 0.039 0.019 0.061 0.017l0.066-0.006c0.029-0.003 0.052 0.025 0.044 0.054-0.005 0.020 0.004 0.040 0.022 0.049l0.134 0.066c0.062 0.031 0.106 0.088 0.12 0.156l0.12 0.601c0.014 0.072-0.019 0.145-0.083 0.182-0.054 0.031-0.087 0.089-0.086 0.152l0.003 0.117c0.002 0.117 0.060 0.225 0.156 0.293l0.253 0.179c0.046 0.032 0.063 0.092 0.042 0.144-0.018 0.044-0.009 0.094 0.024 0.128l0.061 0.065c0.046 0.049 0.068 0.117 0.057 0.183l-0.013 0.083c-0.004 0.028 0.007 0.056 0.030 0.074l0.006 0.005c0.036 0.027 0.038 0.080 0.005 0.11-0.027 0.024-0.031 0.066-0.010 0.095l0.087 0.119c0.019 0.025 0.055 0.029 0.078 0.008 0.039-0.035 0.1 0.002 0.087 0.053l-0.010 0.040c-0.004 0.014-0.003 0.028 0.003 0.041l0.019 0.047c0.045 0.11-0.005 0.235-0.114 0.283l-0.276 0.122c-0.048 0.021-0.099 0.032-0.152 0.033l-0.172 0.002c-0.077 0.001-0.144 0.055-0.162 0.13-0.024 0.104 0.053 0.204 0.16 0.207l0.119 0.003c0.043 0.001 0.081 0.026 0.101 0.063l0.022 0.043c0.015 0.029 0.050 0.042 0.080 0.030 0.026-0.010 0.055-0.002 0.073 0.019l0.053 0.066c0.030 0.038 0.039 0.089 0.022 0.134l-0.015 0.040c-0.009 0.026-0.003 0.055 0.016 0.074 0.030 0.031 0.080 0.027 0.106-0.007l0.279-0.367c0.006-0.008 0.016-0.011 0.025-0.008l0.079 0.024c0.011 0.004 0.018-0.011 0.009-0.018-0.005-0.003-0.006-0.009-0.003-0.014l0.080-0.115c0.013-0.019 0.032-0.033 0.054-0.040 0.053-0.017 0.11 0.011 0.13 0.063l0.253 0.666c0.027 0.070 0.015 0.15-0.031 0.209l-0.009 0.012c-0.024 0.031-0.037 0.069-0.036 0.108 0.001 0.102-0.086 0.183-0.188 0.174l-0.149-0.012c-0.17-0.014-0.319 0.112-0.333 0.282l-0.017 0.208c-0.007 0.081-0.069 0.145-0.149 0.155-0.074 0.009-0.134 0.066-0.147 0.14l-0.044 0.252c-0.015 0.086-0.051 0.166-0.105 0.234l-0.077 0.096c-0.075 0.094-0.121 0.208-0.132 0.327l-0.022 0.245c-0.004 0.049-0.033 0.093-0.076 0.117-0.101 0.056-0.102 0.202-0.002 0.259l0.19 0.108c0.022 0.013 0.036 0.035 0.038 0.060 0.003 0.043-0.031 0.080-0.074 0.081l-0.604 0.009c-0.17 0.003-0.281 0.18-0.209 0.335 0.018 0.038 0.045 0.070 0.080 0.094l0.063 0.043c0.051 0.035 0.072 0.1 0.050 0.159l-0.007 0.018c-0.016 0.044-0.003 0.094 0.034 0.123 0.026 0.021 0.041 0.052 0.041 0.085v0.265c0 0.044-0.029 0.083-0.072 0.094-0.032 0.008-0.057 0.032-0.067 0.063l-0.083 0.252c-0.020 0.060-0.029 0.122-0.029 0.185l0.002 0.417c0 0.089-0.062 0.166-0.149 0.184s-0.15 0.096-0.149 0.185l0 0.046c0.001 0.061-0.021 0.119-0.062 0.165l-0.043 0.049c-0.093 0.104-0.232 0.155-0.37 0.134l-0.752-0.112c-0.085-0.013-0.172-0.017-0.258-0.013l-0.358 0.017c-0.047 0.002-0.093 0.020-0.13 0.050l-0.065 0.053c-0.041 0.033-0.099 0.034-0.142 0.003-0.035-0.026-0.081-0.030-0.119-0.011-0.047 0.023-0.104 0.011-0.138-0.029l-0.212-0.252c-0.078-0.092-0.202-0.131-0.318-0.098-0.089 0.025-0.163 0.089-0.199 0.174l-0.025 0.057c-0.013 0.029-0.035 0.054-0.063 0.068-0.070 0.037-0.156 0.008-0.191-0.063l-0.103-0.212c-0.064-0.132-0.2-0.213-0.346-0.207l-1.061 0.041c-0.060 0.002-0.114 0.040-0.136 0.096-0.021 0.055-0.073 0.092-0.132 0.096l-0.668 0.042c-0.030 0.002-0.056 0.023-0.064 0.052-0.010 0.037-0.047 0.059-0.084 0.051l-0.41-0.093c-0.066-0.015-0.113-0.073-0.113-0.141v-0.081c0-0.034-0.027-0.061-0.060-0.062-0.027-0.001-0.051-0.019-0.058-0.045l-0.046-0.166c-0.018-0.063-0.014-0.131 0.011-0.191l0.171-0.416c0.032-0.078 0.010-0.168-0.054-0.222l-0.012-0.010c-0.040-0.034-0.094-0.047-0.145-0.034-0.048 0.012-0.099 0.001-0.138-0.029l-0.019-0.014c-0.053-0.040-0.085-0.103-0.085-0.17l-0.001-0.122c-0.001-0.242-0.189-0.441-0.43-0.457l-1.281-0.084c-0.151-0.010-0.286-0.099-0.355-0.234l-0.027-0.053c-0.053-0.103-0.047-0.226 0.014-0.323l0.013-0.020c0.028-0.044 0.041-0.096 0.038-0.148l-0.002-0.047c-0.003-0.059-0.036-0.111-0.088-0.139-0.069-0.037-0.103-0.117-0.082-0.193l0.014-0.051c0.033-0.122-0.035-0.248-0.156-0.287l-0.955-0.306c-0.041-0.013-0.066-0.054-0.060-0.096 0.008-0.052-0.032-0.099-0.085-0.1l-0.36-0.007c-0.061-0.001-0.121-0.016-0.175-0.044l-0.158-0.080c-0.032-0.016-0.058-0.041-0.075-0.073l-0.013-0.024c-0.032-0.058-0.019-0.131 0.030-0.175 0.026-0.023 0.043-0.056 0.047-0.090l0.004-0.036c0.006-0.056-0.008-0.113-0.039-0.159l-0.088-0.13c-0.056-0.083-0.085-0.181-0.084-0.281 0.002-0.14-0.056-0.274-0.159-0.368l-0.013-0.012c-0.112-0.103-0.264-0.152-0.415-0.135l-0.491 0.055c-0.091 0.010-0.184-0.006-0.266-0.048l-0.104-0.052c-0.107-0.054-0.171-0.166-0.163-0.285l0.002-0.023c0.003-0.052 0.024-0.101 0.059-0.14 0.046-0.050 0.067-0.118 0.058-0.186l-0.002-0.017c-0.014-0.106 0.036-0.21 0.127-0.265l0.208-0.124c0.104-0.062 0.117-0.208 0.026-0.288l-0.027-0.023c-0.029-0.026-0.069-0.035-0.106-0.024-0.066 0.019-0.133-0.024-0.143-0.092l-0.082-0.534c-0.024-0.154-0.188-0.244-0.331-0.18l-0.113 0.051c-0.053 0.024-0.116 0.001-0.141-0.051-0.022-0.044-0.071-0.068-0.119-0.058l-0.091 0.019c-0.065 0.013-0.132-0.002-0.184-0.042l-0.162-0.123c-0.035-0.027-0.047-0.073-0.030-0.113l0.007-0.017c0.014-0.033 0.002-0.071-0.027-0.091l-0.134-0.088c-0.019-0.013-0.011-0.043 0.012-0.043 0.015-0 0.025-0.014 0.023-0.028l-0.027-0.14c-0.007-0.038 0.001-0.077 0.023-0.109l0.026-0.037c0.066-0.096 0.058-0.225-0.020-0.312l-0.154-0.174c-0.080-0.090-0.128-0.203-0.137-0.323l-0.109-1.383c-0.007-0.083 0.045-0.159 0.124-0.185l0.048-0.015c0.035-0.011 0.060-0.040 0.066-0.076 0.006-0.039 0.036-0.070 0.074-0.079l0.059-0.013c0.085-0.019 0.146-0.095 0.146-0.182v-0.079c0-0.022-0.007-0.043-0.020-0.061l-0.009-0.012c-0.036-0.050-0.014-0.121 0.044-0.142 0.048-0.018 0.073-0.071 0.056-0.119l-0.012-0.033c-0.017-0.046-0.058-0.079-0.107-0.084l-0.137-0.014c-0.063-0.007-0.123-0.035-0.168-0.080-0.091-0.091-0.107-0.234-0.038-0.344l0.018-0.029c0.040-0.063 0.056-0.138 0.047-0.212l-0.023-0.181c-0.007-0.052 0.007-0.105 0.039-0.146l0.007-0.009c0.030-0.039 0.075-0.064 0.124-0.068l0.081-0.007c0.050-0.005 0.088-0.049 0.084-0.099s-0.048-0.088-0.099-0.085l-0.148 0.011c-0.090 0.007-0.176-0.037-0.223-0.114l-0.019-0.030c-0.038-0.061-0.107-0.096-0.179-0.089-0.111 0.011-0.208-0.077-0.207-0.189l0.008-0.919c0.001-0.079-0.078-0.135-0.152-0.108-0.017 0.006-0.036 0.008-0.054 0.006l-0.497-0.069c-0.051-0.007-0.102 0.011-0.137 0.049-0.032 0.034-0.077 0.053-0.124 0.050l-0.067-0.004c-0.039-0.002-0.077-0.012-0.113-0.029l-0.114-0.055c-0.059-0.028-0.123-0.042-0.189-0.041l-0.245 0.005c-0.040 0.001-0.076-0.025-0.088-0.063-0.012-0.037-0.045-0.062-0.083-0.063l-0.031-0.001c-0.101-0.003-0.163-0.113-0.113-0.201l0.070-0.125c0.026-0.047 0.086-0.065 0.134-0.040 0.067 0.035 0.147-0.014 0.147-0.090l-0-0.029c-0.001-0.052 0.033-0.098 0.082-0.113l0.089-0.028c0.144-0.046 0.212-0.209 0.143-0.343l-0.287-0.558c-0.023-0.045-0.015-0.099 0.019-0.135 0.016-0.017 0.027-0.039 0.031-0.062l0.153-0.944c0.015-0.094-0.048-0.183-0.142-0.199-0.092-0.016-0.18 0.044-0.199 0.135l-0.003 0.016c-0.019 0.091-0.102 0.155-0.195 0.151l-0.274-0.013c-0.060-0.003-0.119-0.016-0.174-0.039l-0.604-0.252c-0.016-0.007-0.031-0.016-0.044-0.027l-0.079-0.069c-0.027-0.024-0.028-0.066-0.003-0.091 0.023-0.023 0.025-0.059 0.004-0.084l-0.005-0.006c-0.028-0.034-0.019-0.084 0.018-0.107l0.13-0.079c0.108-0.066 0.131-0.213 0.047-0.308l-0.058-0.066c-0.031-0.035-0.079-0.051-0.125-0.042-0.059 0.012-0.118-0.017-0.144-0.071l-0.135-0.277c-0.027-0.072 0.006-0.152 0.077-0.184l0.235-0.104c0.042-0.019 0.055-0.072 0.026-0.108-0.030-0.037-0.014-0.093 0.031-0.109l0.304-0.111c0.092-0.033 0.139-0.136 0.104-0.227-0.021-0.056-0.070-0.097-0.128-0.109l-0.33-0.069c-0.117-0.024-0.21-0.116-0.235-0.233-0.008-0.038-0.009-0.078-0.002-0.116l0.15-0.86c0.016-0.095-0.012-0.192-0.078-0.262l-0.008-0.009c-0.049-0.052-0.076-0.122-0.075-0.193l0.002-0.133c0.001-0.083-0.066-0.15-0.148-0.149-0.088 0.001-0.156-0.075-0.148-0.162l0.034-0.339c0.005-0.046-0.013-0.091-0.048-0.122-0.041-0.037-0.058-0.094-0.043-0.147l0.023-0.079c0.036-0.125 0.154-0.208 0.284-0.199l0.018 0.001c0.070 0.005 0.139-0.015 0.195-0.056l0.252-0.182c0.015-0.011 0.026-0.026 0.032-0.044 0.016-0.051-0.017-0.105-0.071-0.112l-0.088-0.012c-0.108-0.015-0.17-0.13-0.124-0.228l0.002-0.005c0.029-0.063 0.095-0.101 0.164-0.096l0.068 0.005c0.142 0.011 0.251-0.125 0.208-0.261-0.010-0.033-0.012-0.069-0.005-0.103l0.011-0.051c0.017-0.081 0.086-0.14 0.168-0.146l0.054-0.004c0.053-0.004 0.096-0.043 0.106-0.095 0.008-0.043 0.039-0.078 0.081-0.090 0.069-0.021 0.104-0.098 0.073-0.163l-0.006-0.012c-0.035-0.073 0.005-0.159 0.083-0.179l0.286-0.075c0.051-0.013 0.056-0.083 0.008-0.104-0.015-0.006-0.026-0.019-0.031-0.035l-0.12-0.404c-0.005-0.015-0.014-0.029-0.027-0.038-0.043-0.030-0.039-0.096 0.008-0.12 0.030-0.015 0.045-0.050 0.035-0.083l-0.002-0.006c-0.009-0.030-0.035-0.051-0.066-0.054l-0.125-0.014c-0.030-0.003-0.061 0.003-0.087 0.019-0.062 0.038-0.144 0.021-0.185-0.039l-0.064-0.092c-0.051-0.074-0.060-0.17-0.022-0.251l0.1-0.221c0.034-0.074 0.13-0.093 0.189-0.037 0.049 0.047 0.128 0.043 0.172-0.010l0.24-0.288c0.023-0.028 0.056-0.047 0.093-0.052l0.060-0.009c0.037-0.006 0.064-0.037 0.065-0.074 0.001-0.026-0.012-0.051-0.034-0.066l-0.243-0.165c-0.088-0.060-0.127-0.17-0.095-0.272s0.124-0.17 0.23-0.17l0.26-0.001c0.045-0 0.088-0.017 0.121-0.047 0.070-0.063 0.079-0.169 0.023-0.244l-0.301-0.396c-0.102-0.134-0.105-0.318-0.009-0.456 0.044-0.063 0.105-0.111 0.176-0.139l0.421-0.164c0.060-0.023 0.126 0.016 0.133 0.080 0.008 0.073 0.090 0.111 0.151 0.071l0.229-0.151c0.038-0.025 0.053-0.075 0.035-0.117-0.021-0.047 0.001-0.102 0.047-0.124l0.16-0.073c0.033-0.015 0.054-0.047 0.056-0.083 0.002-0.032 0.019-0.060 0.046-0.077l0.036-0.022c0.077-0.048 0.106-0.147 0.066-0.228l-0.179-0.371c-0.031-0.063-0.050-0.132-0.056-0.202l-0.002-0.023c-0.035-0.366 0.278-0.67 0.643-0.625 0.12 0.015 0.241-0.008 0.347-0.066l0.189-0.103c0.037-0.020 0.080-0.024 0.119-0.012 0.059 0.018 0.102 0.070 0.109 0.132l0.004 0.039z"></path>
</svg>
