<!-- Generated by IcoMoon.io -->
<svg version="1.1" xmlns="http://www.w3.org/2000/svg" width="31" height="32" viewBox="0 0 31 32">
<path stroke-linejoin="round" stroke-linecap="round" stroke-miterlimit="4" stroke-width="0.3232" stroke="#000" fill="#000" d="M16.009 0.396c0.036-0.104 0.131-0.176 0.241-0.183l0.114-0.007c0.169-0.010 0.328 0.076 0.412 0.223l0.227 0.398c0.031 0.054 0.082 0.093 0.141 0.11 0.071 0.019 0.128 0.071 0.155 0.139l0.027 0.069c0.029 0.071 0.078 0.133 0.142 0.175l0.193 0.129c0.090 0.060 0.191 0.101 0.298 0.119l0.395 0.068c0.127 0.022 0.252-0.047 0.301-0.167 0.042-0.104 0.144-0.172 0.256-0.171l0.167 0.001c0.043 0 0.085-0.018 0.114-0.050 0.058-0.065 0.16-0.067 0.221-0.005l0.11 0.112c0.062 0.063 0.075 0.158 0.032 0.235-0.025 0.046-0.031 0.101-0.017 0.152l0.015 0.052c0.022 0.074 0.069 0.138 0.133 0.181l0.267 0.178c0.059 0.039 0.128 0.062 0.199 0.064 0.066 0.002 0.131-0.013 0.189-0.044l0.296-0.156c0.059-0.031 0.128-0.037 0.191-0.016 0.058 0.019 0.107 0.059 0.137 0.112l0.178 0.315c0.052 0.092 0.077 0.196 0.072 0.301l-0.009 0.202c-0.002 0.044 0.016 0.086 0.049 0.115 0.035 0.030 0.082 0.042 0.127 0.031l0.104-0.025c0.031-0.007 0.054-0.031 0.061-0.061l0.009-0.040c0.008-0.032 0.043-0.048 0.072-0.033s0.036 0.053 0.015 0.078l-0.015 0.018c-0.015 0.017-0.021 0.040-0.015 0.062l0.087 0.344c0.007 0.027-0.004 0.055-0.026 0.071l-0.007 0.005c-0.035 0.024-0.035 0.076 0 0.1 0.017 0.012 0.027 0.032 0.026 0.052l-0.015 0.37c-0.007 0.183 0.131 0.339 0.313 0.354l0.245 0.020c0.039 0.003 0.069 0.036 0.069 0.074 0 0.027 0.014 0.051 0.038 0.065l0.523 0.3c0.112 0.065 0.173 0.193 0.151 0.32-0.030 0.174 0.091 0.337 0.267 0.359l0.263 0.033c0.076 0.009 0.152-0.011 0.213-0.056 0.042-0.031 0.092-0.051 0.144-0.056l0.614-0.068c0.045-0.005 0.085-0.028 0.113-0.063l0.007-0.010c0.030-0.039 0.077-0.060 0.126-0.055l0.030 0.003c0.058 0.005 0.103 0.055 0.101 0.114-0.002 0.062 0.048 0.114 0.11 0.114l0.148 0.001c0.154 0.001 0.274-0.133 0.255-0.286l-0.023-0.191c-0.004-0.036 0.005-0.073 0.026-0.103 0.050-0.070 0.15-0.081 0.215-0.024l0.633 0.561c0.064 0.056 0.145 0.089 0.23 0.092l0.049 0.002c0.111 0.004 0.21 0.071 0.254 0.173 0.019 0.044 0.027 0.092 0.023 0.139l-0.003 0.033c-0.016 0.185 0.092 0.358 0.265 0.425l0.316 0.123c0.090 0.042 0.193 0.050 0.289 0.022l0.154-0.045c0.103-0.030 0.214-0.022 0.313 0.022l0.079 0.035c0.121 0.054 0.197 0.176 0.193 0.308l-0.006 0.212c-0.002 0.058-0.049 0.104-0.107 0.104-0.035 0-0.068 0.017-0.088 0.045l-0.084 0.119c-0.025 0.036-0.033 0.081-0.020 0.123l0.005 0.016c0.016 0.052-0.006 0.109-0.052 0.137-0.039 0.024-0.061 0.068-0.057 0.114l0.008 0.083c0.007 0.074 0.046 0.141 0.107 0.183l0.235 0.163c0.094 0.065 0.117 0.195 0.052 0.289-0.020 0.029-0.033 0.063-0.036 0.098l-0.020 0.193c-0.024 0.234 0.040 0.468 0.178 0.658l0.753 1.031c0.2 0.274 0.439 0.517 0.709 0.721l0.441 0.25c0.081 0.046 0.143 0.117 0.178 0.202l0.016 0.038c0.024 0.059 0.029 0.125 0.012 0.187l-0.037 0.14c-0.011 0.041 0.006 0.085 0.043 0.108 0.071 0.044 0.058 0.15-0.022 0.175l-0.141 0.045c-0.049 0.016-0.088 0.053-0.106 0.102l-0.044 0.122c-0.031 0.086-0.018 0.181 0.033 0.256 0.054 0.079 0.065 0.18 0.029 0.268l-0.048 0.117c-0.062 0.152-0.193 0.265-0.353 0.305l-0.418 0.104c-0.085 0.021-0.152 0.087-0.175 0.172l-0.008 0.031c-0.037 0.134-0.188 0.2-0.311 0.135l-0.032-0.017c-0.026-0.014-0.057-0.018-0.086-0.010l-0.014 0.004c-0.046 0.011-0.078 0.052-0.078 0.099 0 0.051-0.037 0.094-0.087 0.101l-0.050 0.008c-0.030 0.005-0.060 0.001-0.088-0.011l-0.445-0.19c-0.044-0.019-0.096-0.008-0.129 0.028-0.023 0.025-0.057 0.039-0.091 0.037l-0.055-0.003c-0.084-0.005-0.164 0.039-0.204 0.113-0.049 0.090-0.155 0.134-0.253 0.105l-0.032-0.010c-0.18-0.054-0.355 0.096-0.33 0.282l0.021 0.158c0.008 0.062-0.005 0.125-0.039 0.178-0.067 0.106-0.051 0.245 0.039 0.333l0.046 0.045c0.139 0.136 0.139 0.361-0.001 0.497l-0.060 0.058c-0.123 0.12-0.323 0.105-0.427-0.032l-0.012-0.016c-0.026-0.035-0.063-0.061-0.104-0.075-0.112-0.038-0.234 0.019-0.277 0.13l-0.138 0.361c-0.017 0.044-0.028 0.089-0.035 0.136l-0.097 0.698c-0.013 0.091-0.077 0.167-0.165 0.194-0.062 0.019-0.113 0.063-0.142 0.121l-0.088 0.177c-0.016 0.031-0.049 0.050-0.084 0.046l-0.076-0.009c-0.027-0.003-0.047 0.023-0.038 0.049 0.010 0.028-0.016 0.056-0.045 0.047l-0.171-0.054c-0.041-0.013-0.085-0.004-0.117 0.025l-0.037 0.033c-0.017 0.015-0.023 0.039-0.014 0.060 0.018 0.045-0.028 0.088-0.072 0.068l-0.15-0.072c-0.051-0.025-0.113-0.009-0.146 0.037l-0.018 0.025c-0.028 0.040-0.074 0.064-0.123 0.064l-0.126 0.001c-0.034 0-0.061 0.030-0.058 0.064l0.003 0.031c0.005 0.051-0.061 0.076-0.091 0.034-0.013-0.018-0.037-0.026-0.058-0.018l-0.218 0.078c-0.053 0.019-0.094 0.063-0.11 0.117-0.020 0.073-0.085 0.124-0.16 0.127l-0.367 0.016c-0.173 0.008-0.291 0.179-0.237 0.343 0.011 0.032 0.015 0.066 0.013 0.099l-0.040 0.592c-0.007 0.11-0.090 0.2-0.199 0.216-0.043 0.006-0.086 0.001-0.125-0.016l-0.327-0.138c-0.062-0.026-0.132-0.020-0.189 0.015-0.063 0.040-0.143 0.042-0.208 0.006l-0.291-0.16c-0.044-0.024-0.083-0.056-0.114-0.095l-0.034-0.041c-0.103-0.126-0.285-0.157-0.425-0.075-0.058 0.034-0.127 0.049-0.194 0.043l-0.086-0.008c-0.045-0.004-0.086-0.030-0.111-0.068l-0.036-0.056c-0.024-0.038-0.012-0.088 0.026-0.112 0.046-0.028 0.051-0.092 0.012-0.129l-0.122-0.111c-0.018-0.017-0.041-0.028-0.065-0.033l-0.2-0.041c-0.023-0.005-0.042 0.018-0.032 0.040 0.010 0.023-0.012 0.046-0.036 0.039l-0.025-0.008c-0.025-0.008-0.051 0.009-0.053 0.035l-0.002 0.018c-0.002 0.017-0.012 0.033-0.027 0.042l-0.147 0.089c-0.098 0.059-0.148 0.175-0.122 0.287l0.010 0.045c0.031 0.135-0.066 0.265-0.204 0.276l-0.013 0.001c-0.060 0.005-0.114 0.036-0.148 0.085-0.039 0.056-0.047 0.129-0.020 0.192l0.057 0.134c0.032 0.076 0.043 0.159 0.030 0.24l-0.018 0.113c-0.019 0.119-0.111 0.212-0.229 0.232l-0.013 0.002c-0.065 0.011-0.123 0.048-0.161 0.102-0.045 0.064-0.057 0.146-0.032 0.22l0.121 0.36c0.025 0.074 0.080 0.135 0.151 0.166 0.186 0.083 0.224 0.333 0.069 0.465-0.081 0.069-0.115 0.178-0.088 0.282l0.002 0.007c0.021 0.078 0.007 0.162-0.036 0.23l-0.107 0.167c-0.040 0.063-0.126 0.077-0.185 0.030-0.048-0.039-0.117-0.037-0.163 0.005l-0.045 0.041c-0.048 0.044-0.115 0.061-0.179 0.046l-0.129-0.031c-0.11-0.026-0.216 0.053-0.223 0.166-0.001 0.009-0 0.019 0 0.028l0.001 0.006c0.015 0.149 0.153 0.254 0.3 0.228l0.022-0.004c0.052-0.009 0.106-0.003 0.154 0.018 0.127 0.054 0.193 0.195 0.154 0.328l-0.048 0.165c-0.009 0.031-0.027 0.059-0.051 0.081l-0.008 0.007c-0.059 0.052-0.071 0.139-0.030 0.206 0.023 0.037 0.060 0.064 0.103 0.073l0.293 0.064c0.034 0.007 0.069 0.010 0.104 0.008l0.463-0.030c0.089-0.006 0.149 0.089 0.107 0.167-0.019 0.036-0.017 0.080 0.006 0.114s0.025 0.080 0.004 0.116l-0.071 0.124c-0.028 0.049-0.042 0.104-0.040 0.16l0.002 0.098c0.001 0.069-0.040 0.132-0.104 0.159-0.057 0.023-0.122 0.013-0.169-0.026l-0.134-0.111c-0.101-0.083-0.232-0.119-0.361-0.1l-0.024 0.004c-0.025 0.004-0.050 0.010-0.074 0.017l-0.658 0.204c-0.111 0.034-0.215 0.088-0.308 0.157l-0.303 0.227c-0.056 0.042-0.128 0.056-0.195 0.038l-0.064-0.017c-0.056-0.014-0.115 0.008-0.147 0.056-0.034 0.050-0.097 0.072-0.155 0.054l-0.031-0.010c-0.078-0.025-0.162 0.019-0.186 0.097l-0.005 0.015c-0.019 0.061-0.079 0.099-0.142 0.090-0.036-0.006-0.068-0.026-0.088-0.056l-0.027-0.040c-0.038-0.057-0.097-0.095-0.165-0.104l-0.591-0.084c-0.113-0.016-0.227 0.025-0.304 0.109l-0.208 0.229c-0.059 0.065-0.166 0.052-0.207-0.026-0.014-0.027-0.038-0.048-0.067-0.059l-0.133-0.051c-0.155-0.059-0.328-0.039-0.465 0.053l-0.404 0.273c-0.024 0.016-0.044 0.038-0.058 0.063-0.041 0.075-0.129 0.111-0.211 0.086l-0.414-0.126c-0.092-0.028-0.19-0.029-0.282-0.003l-0.178 0.050c-0.074 0.021-0.154-0.002-0.206-0.059l-0.066-0.073c-0.023-0.025-0.060-0.032-0.090-0.017-0.025 0.013-0.054 0.011-0.077-0.005l-0.032-0.022c-0.058-0.040-0.136-0.032-0.184 0.020l-0.245 0.265c-0.037 0.040-0.097 0.048-0.143 0.019-0.034-0.021-0.076-0.023-0.112-0.005l-0.066 0.034c-0.063 0.032-0.108 0.091-0.124 0.16l-0.184 0.779c-0.014 0.060-0.049 0.113-0.099 0.149l-0.062 0.045c-0.046 0.033-0.109 0.035-0.158 0.006s-0.112-0.027-0.158 0.008c-0.025 0.019-0.043 0.046-0.050 0.076l-0.020 0.076c-0.016 0.060-0.047 0.116-0.090 0.161l-0.356 0.371c-0.098 0.102-0.111 0.26-0.032 0.377 0.057 0.084 0.068 0.191 0.029 0.285l-0.165 0.396c-0.036 0.086-0.037 0.183-0.003 0.271 0.039 0.099 0.119 0.176 0.22 0.211l0.157 0.054c0.025 0.009 0.045 0.028 0.054 0.052 0.017 0.044-0.004 0.095-0.047 0.114l-0.149 0.066c-0.089 0.040-0.149 0.126-0.154 0.224l-0.003 0.065c-0.003 0.057-0.019 0.113-0.048 0.163l-0.025 0.043c-0.089 0.154-0.101 0.341-0.032 0.506l0.024 0.058c0.085 0.204 0.069 0.437-0.044 0.627l-0.191 0.321c-0.016 0.027-0.020 0.059-0.011 0.089 0.024 0.081-0.047 0.158-0.129 0.141l-0.194-0.038c-0.053-0.010-0.108-0.002-0.156 0.024l-0.117 0.063c-0.139 0.075-0.303 0.093-0.455 0.049l-0.288-0.084-0.401-0.18c-0.067-0.030-0.12-0.086-0.147-0.154l-0.014-0.035c-0.058-0.146-0.234-0.204-0.367-0.121-0.089 0.055-0.203 0.050-0.287-0.014l-0.136-0.104c-0.099-0.076-0.238-0.072-0.332 0.010-0.045 0.039-0.103 0.062-0.163 0.064l-0.152 0.006c-0.272 0.010-0.525-0.142-0.644-0.386l-0.331-0.678c-0.021-0.043-0.061-0.073-0.107-0.083-0.068-0.013-0.118-0.071-0.123-0.14l-0.002-0.029c-0.004-0.066-0.042-0.125-0.1-0.156l-0.095-0.051c-0.118-0.063-0.26-0.060-0.376 0.008l-0.147 0.086c-0.064 0.038-0.142 0.046-0.213 0.022-0.055-0.018-0.114-0.018-0.168 0.002l-0.078 0.028c-0.054 0.019-0.102 0.053-0.137 0.098l-0.070 0.087c-0.040 0.050-0.108 0.069-0.168 0.048-0.026-0.009-0.048-0.025-0.066-0.046l-0.056-0.068c-0.053-0.063-0.088-0.139-0.102-0.22l-0.011-0.064c-0.034-0.191-0.165-0.35-0.346-0.419-0.054-0.021-0.104-0.049-0.148-0.085l-0.124-0.1c-0.151-0.122-0.271-0.278-0.348-0.456l-0.076-0.175c-0.022-0.051-0.033-0.107-0.031-0.162 0.004-0.114 0.060-0.219 0.152-0.286l0.086-0.062c0.022-0.016 0.048-0.025 0.075-0.025 0.089-0.001 0.15-0.089 0.121-0.173l-0.070-0.201c-0.029-0.083 0.002-0.176 0.076-0.225 0.122-0.081 0.113-0.262-0.015-0.331l-0.323-0.173c-0.012-0.007-0.026-0.010-0.040-0.011-0.067-0.004-0.11-0.074-0.082-0.135l0.011-0.025c0.013-0.030 0.013-0.064 0-0.094l-0.028-0.064c-0.035-0.079-0.030-0.17 0.012-0.245l0.077-0.137c0.064-0.113 0.004-0.256-0.121-0.29l-0.022-0.006c-0.048-0.013-0.087-0.048-0.104-0.095-0.026-0.069-0.097-0.11-0.169-0.098l-0.008 0.001c-0.067 0.011-0.135-0.021-0.168-0.080l-0.064-0.112c-0.030-0.053-0.074-0.098-0.127-0.129l-0.069-0.040c-0.054-0.032-0.090-0.086-0.099-0.148-0.016-0.115-0.124-0.193-0.238-0.172l-0.152 0.028c-0.033 0.006-0.066-0-0.094-0.018-0.057-0.036-0.078-0.109-0.049-0.17l0.058-0.121c0.034-0.072-0.019-0.154-0.098-0.153-0.037 0-0.071 0.020-0.090 0.052l-0.066 0.109c-0.037 0.061-0.123 0.065-0.166 0.009-0.023-0.031-0.027-0.072-0.009-0.106l0.253-0.494c0.005-0.011 0.014-0.019 0.024-0.025 0.047-0.026 0.039-0.097-0.013-0.111l-0.104-0.029c-0.034-0.010-0.061-0.036-0.072-0.069l-0.014-0.043c-0.014-0.042-0.012-0.088 0.005-0.129l0.011-0.028c0.022-0.055 0.064-0.1 0.118-0.125 0.074-0.035 0.125-0.106 0.134-0.188l0.092-0.819c0.012-0.104 0.014-0.21 0.006-0.315l-0.019-0.27c-0.014-0.2-0.046-0.399-0.096-0.593l-0.407-1.609c-0.036-0.141-0.142-0.254-0.28-0.299l-0.015-0.005c-0.096-0.031-0.176-0.098-0.223-0.188l-0.064-0.123c-0.058-0.112-0.019-0.25 0.090-0.314 0.039-0.023 0.071-0.056 0.091-0.097l0.239-0.467c0.063-0.124 0.139-0.241 0.227-0.35l0.702-0.873c0.074-0.092 0.122-0.201 0.14-0.318l0.007-0.043c0.012-0.076 0.041-0.148 0.086-0.211l0.022-0.031c0.051-0.071 0.125-0.123 0.21-0.146 0.064-0.017 0.122-0.051 0.169-0.098l0.091-0.090c0.048-0.048 0.091-0.101 0.126-0.159l0.158-0.255c0.050-0.081 0.114-0.151 0.19-0.208 0.092-0.070 0.168-0.16 0.221-0.263l0.085-0.165c0.066-0.128 0.158-0.24 0.271-0.329l0.132-0.104c0.105-0.083 0.176-0.201 0.201-0.332l0.027-0.146c0.022-0.119 0.111-0.215 0.228-0.246 0.070-0.019 0.132-0.062 0.174-0.121l1.237-1.734 1.021-1.154c0.045-0.051 0.075-0.113 0.086-0.18l0.001-0.006c0.021-0.122 0.104-0.224 0.218-0.269 0.054-0.021 0.102-0.056 0.14-0.101l0.314-0.371c0.030-0.036 0.046-0.081 0.044-0.128l-0.003-0.088c-0.002-0.066 0.053-0.118 0.118-0.114 0.026 0.002 0.052-0.005 0.073-0.021l0.168-0.124c0.027-0.020 0.052-0.041 0.076-0.065l1.338-1.326c0.235-0.233 0.492-0.442 0.769-0.623l0.456-0.3c0.224-0.147 0.418-0.336 0.572-0.555l0.251-0.358c0.078-0.112 0.188-0.198 0.315-0.247 0.211-0.081 0.368-0.261 0.421-0.481l0.025-0.105c0.035-0.146 0.116-0.277 0.231-0.375 0.071-0.060 0.152-0.105 0.24-0.133l0.454-0.145c0.199-0.064 0.405-0.107 0.613-0.129l1.113-0.119c0.037-0.004 0.074-0.005 0.112-0.003l0.332 0.019c0.146 0.008 0.276-0.092 0.306-0.235 0.017-0.084 0.070-0.157 0.146-0.199l0.056-0.031c0.093-0.052 0.164-0.136 0.2-0.237l0.416-1.186c0.058-0.167 0.102-0.338 0.13-0.513l0.107-0.667c0.012-0.074 0.004-0.15-0.022-0.22l-0.023-0.062c-0.014-0.036-0.017-0.075-0.009-0.113l0.033-0.158c0.009-0.041-0.022-0.080-0.064-0.081-0.024-0.001-0.047-0.014-0.058-0.036l-0.025-0.047c-0.020-0.039-0.024-0.084-0.009-0.125l0.016-0.046z"></path>
</svg>
