<!-- Generated by IcoMoon.io -->
<svg version="1.1" xmlns="http://www.w3.org/2000/svg" width="37" height="32" viewBox="0 0 37 32">
<path stroke-linejoin="round" stroke-linecap="round" stroke-miterlimit="4" stroke-width="0.3657" stroke="#000" fill="#000" d="M16.96 29.806c0.201 0.108 0.424 0.167 0.652 0.17l0.362 0.006c0.147 0.002 0.294-0.007 0.44-0.027l0.553-0.076c0.325-0.045 0.656 0.020 0.94 0.185l0.114 0.066c0.040 0.023 0.083 0.041 0.128 0.053l0.367 0.095c0.114 0.029 0.175 0.155 0.127 0.263-0.029 0.066-0.093 0.109-0.165 0.113l-0.042 0.002c-0.085 0.004-0.163 0.050-0.208 0.123l-0.012 0.019c-0.069 0.112-0.203 0.167-0.331 0.134l-0.269-0.068c-0.102-0.026-0.209-0.028-0.312-0.005l-0.046 0.010c-0.131 0.029-0.251 0.094-0.345 0.189l-0.074 0.074c-0.050 0.050-0.084 0.114-0.097 0.183l-0.025 0.125c-0.006 0.031 0.003 0.064 0.024 0.088l0.104 0.115c0.019 0.021 0.004 0.055-0.024 0.055-0.009 0-0.017-0.003-0.024-0.010l-0.954-0.972-0.253-0.199c-0.457-0.358-0.861-0.779-1.201-1.249l-0.027-0.037 0.134 0.18c0.123 0.165 0.28 0.3 0.461 0.398zM1.383 2.051c-0.038-0.161 0.028-0.329 0.165-0.422l0.317-0.214c0.18-0.122 0.396-0.178 0.613-0.161l1.145 0.094c0.040 0.003 0.075 0.027 0.092 0.063 0.035 0.073 0.135 0.086 0.187 0.023l0.056-0.067c0.066-0.078 0.185-0.081 0.254-0.006l0.127 0.139c0.064 0.070 0.155 0.109 0.25 0.108l0.56-0.007c0.066-0.001 0.124-0.044 0.144-0.107 0.016-0.050 0.057-0.089 0.108-0.102l0.18-0.046c0.067-0.017 0.103-0.088 0.079-0.152s0.013-0.137 0.081-0.153l0.662-0.156c0.053-0.012 0.106 0.018 0.123 0.069 0.015 0.046 0.060 0.075 0.108 0.071l0.516-0.043c0.12-0.010 0.231 0.067 0.263 0.183l0.023 0.082c0.021 0.074 0.093 0.121 0.169 0.111l0.030-0.004c0.058-0.008 0.101-0.056 0.103-0.114l0.003-0.087c0.002-0.069 0.085-0.103 0.135-0.055 0.016 0.016 0.038 0.024 0.061 0.022l0.048-0.004c0.089-0.007 0.171 0.051 0.194 0.137l0.009 0.033c0.034 0.122 0.159 0.193 0.281 0.16l0.058-0.016c0.060-0.016 0.124-0.004 0.174 0.033 0.056 0.042 0.131 0.052 0.196 0.025l0.090-0.036c0.079-0.032 0.139-0.1 0.162-0.182 0.031-0.113 0.131-0.194 0.248-0.202l0.17-0.011c0.179-0.012 0.307-0.179 0.271-0.355-0.033-0.162 0.072-0.319 0.234-0.35l0.515-0.099c0.050-0.010 0.099 0.021 0.113 0.070 0.013 0.047 0.060 0.077 0.108 0.070l0.871-0.126c0.052-0.007 0.1 0.027 0.11 0.079 0.007 0.040 0.039 0.071 0.079 0.078l0.114 0.020c0.065 0.011 0.123 0.046 0.163 0.098l0.207 0.266c0.047 0.060 0.051 0.143 0.011 0.208-0.049 0.079-0.030 0.182 0.042 0.239l0.058 0.046c0.040 0.032 0.091 0.046 0.141 0.039 0.097-0.014 0.188 0.050 0.207 0.146l0.056 0.27c0.058 0.277 0.342 0.445 0.613 0.361l0.348-0.108c0.106-0.033 0.216 0.035 0.234 0.144 0.017 0.103 0.117 0.17 0.218 0.148l0.275-0.059c0.031-0.007 0.059-0.022 0.081-0.046 0.081-0.085 0.223-0.055 0.262 0.056l0.011 0.030c0.030 0.084 0.117 0.133 0.204 0.114l0.089-0.019c0.042-0.009 0.071-0.047 0.069-0.090-0.002-0.044 0.029-0.083 0.072-0.091l0.387-0.069c0.214-0.038 0.42 0.099 0.467 0.311l0.039 0.177c0.021 0.094-0.031 0.19-0.121 0.224l-0.009 0.003c-0.053 0.020-0.093 0.065-0.108 0.12l-0.029 0.112c-0.016 0.061 0.033 0.12 0.096 0.116 0.047-0.003 0.089 0.029 0.097 0.075l0.003 0.016c0.014 0.076 0.1 0.114 0.166 0.074l0.002-0.002c0.029-0.018 0.048-0.047 0.053-0.081l0.001-0.006c0.008-0.060 0.058-0.105 0.118-0.108l0.113-0.006c0.153-0.008 0.267-0.145 0.246-0.297l-0.041-0.293c-0.009-0.065 0.036-0.125 0.101-0.135 0.044-0.007 0.087 0.011 0.114 0.047l0.007 0.009c0.040 0.053 0.112 0.071 0.172 0.042l0.011-0.005c0.050-0.025 0.084-0.075 0.086-0.131l0.004-0.086c0.006-0.139 0.108-0.256 0.245-0.28l0.192-0.034c0.105-0.019 0.207 0.043 0.24 0.144 0.031 0.097 0.128 0.159 0.229 0.146l0.14-0.018c0.133-0.017 0.258 0.066 0.294 0.194 0.038 0.133 0.169 0.216 0.305 0.193l0.186-0.032c0.264-0.045 0.513 0.134 0.555 0.398l0.034 0.214c0.032 0.204-0.098 0.398-0.299 0.446l-0.132 0.032c-0.080 0.019-0.139 0.085-0.15 0.166-0.003 0.020-0.002 0.041 0.001 0.062l0.207 1.139c0.022 0.121 0.166 0.174 0.262 0.096l0.052-0.043c0.031-0.025 0.075-0.024 0.104 0.001 0.019 0.016 0.044 0.023 0.068 0.018l0.283-0.053c0.233-0.044 0.456 0.115 0.49 0.351l0.042 0.286c0.012 0.081 0.089 0.135 0.169 0.119 0.083-0.016 0.162 0.043 0.17 0.127l0.055 0.616c0.009 0.098-0.066 0.184-0.165 0.19-0.088 0.005-0.159 0.075-0.165 0.164l-0.009 0.145c-0.003 0.043 0.006 0.086 0.026 0.124l0.007 0.014c0.069 0.134-0.008 0.297-0.156 0.328-0.121 0.026-0.2 0.144-0.177 0.265l0.014 0.074c0.030 0.16 0.179 0.268 0.34 0.248l1.194-0.153c0.062-0.008 0.106-0.063 0.099-0.125s0.038-0.117 0.099-0.125l0.929-0.119c0.066-0.008 0.13 0.030 0.153 0.092l0.003 0.009c0.020 0.054 0.074 0.089 0.132 0.085 0.056-0.004 0.109 0.028 0.13 0.080l0.087 0.209c0.026 0.062 0.090 0.1 0.157 0.093 0.081-0.009 0.155 0.048 0.167 0.129l0.037 0.254c0.009 0.062 0.066 0.105 0.128 0.096l0.004-0.001c0.040-0.005 0.080 0.012 0.102 0.045l0.002 0.003c0.039 0.057 0.123 0.061 0.166 0.007l0.027-0.033c0.038-0.047 0.113-0.036 0.135 0.021 0.014 0.035 0.051 0.056 0.088 0.048l0.493-0.095c0.156-0.030 0.26-0.18 0.234-0.337l-0.025-0.15c-0.011-0.068 0.032-0.133 0.099-0.149 0.060-0.014 0.102-0.068 0.101-0.13l-0.001-0.072c-0.002-0.104 0.068-0.195 0.169-0.219l0.32-0.076c0.184-0.044 0.377-0.003 0.527 0.112l0.355 0.271c0.129 0.099 0.298 0.129 0.454 0.081l0.323-0.099c0.072-0.022 0.148 0.015 0.175 0.085 0.022 0.058 0.079 0.095 0.141 0.092l0.092-0.005 2.435-0.467c0.132-0.025 0.246-0.109 0.31-0.227l0.149-0.277c0.028-0.052 0.011-0.116-0.039-0.147-0.026-0.016-0.044-0.043-0.050-0.073l-0.021-0.11c-0.014-0.070 0.033-0.138 0.104-0.149 0.070-0.012 0.116-0.077 0.104-0.147l-0.056-0.326c-0.012-0.071-0.078-0.12-0.149-0.114s-0.136-0.044-0.147-0.114c-0.012-0.073 0.038-0.142 0.111-0.155l0.805-0.141c0.109-0.019 0.175-0.132 0.138-0.236-0.029-0.084-0.116-0.133-0.203-0.116l-0.057 0.011c-0.143 0.028-0.279-0.075-0.292-0.22l-0.006-0.069c-0.014-0.161 0.098-0.306 0.258-0.332l0.777-0.126c0.104-0.017 0.207 0.037 0.252 0.133s0.148 0.15 0.252 0.133l0.478-0.077c0.253-0.041 0.429-0.275 0.398-0.529l-0.014-0.113c-0.003-0.024-0.013-0.046-0.029-0.064-0.067-0.075-0.014-0.194 0.087-0.194h0.268c0.030 0 0.053-0.027 0.047-0.057-0.005-0.025 0.012-0.050 0.037-0.055l0.222-0.049c0.044-0.010 0.089 0.001 0.124 0.030 0.045 0.037 0.108 0.043 0.16 0.017l0.069-0.035c0.161-0.083 0.357 0.017 0.383 0.197l0.085 0.593c0.011 0.078-0.004 0.157-0.043 0.225-0.044 0.077-0.058 0.168-0.038 0.255l0.112 0.482c0.011 0.046-0.014 0.093-0.058 0.11-0.052 0.020-0.076 0.080-0.051 0.13l0.068 0.14c0.024 0.050 0.065 0.089 0.115 0.112l0.010 0.004c0.049 0.022 0.104 0.029 0.157 0.020l0.344-0.061c0.188-0.033 0.364 0.099 0.385 0.288l0.017 0.149c0.007 0.059-0.027 0.115-0.082 0.137-0.058 0.023-0.091 0.084-0.080 0.146l0.098 0.539c0.016 0.086-0.037 0.169-0.121 0.192-0.082 0.023-0.134 0.103-0.122 0.187l0.080 0.535c0.010 0.065-0.025 0.128-0.084 0.155-0.064 0.029-0.098 0.098-0.082 0.167l0.036 0.157c0.008 0.037 0.038 0.064 0.075 0.070 0.040 0.007 0.072 0.039 0.077 0.079l0.015 0.112c0.016 0.124-0.063 0.24-0.184 0.269l-0.392 0.097c-0.353 0.087-0.58 0.43-0.521 0.789l0.179 1.095c0.010 0.063-0.011 0.127-0.056 0.172-0.129 0.127-0.033 0.347 0.149 0.337l0.794-0.042c0.182-0.010 0.333 0.141 0.323 0.323l0.011 0.546c0.003 0.178 0.197 0.288 0.352 0.199l0.129-0.074c0.048-0.028 0.11-0.009 0.134 0.041 0.004 0.009 0.007 0.018 0.009 0.028l0.033 0.223c0.014 0.095-0.034 0.189-0.12 0.233-0.083 0.043-0.131 0.132-0.121 0.224l0.105 0.992c0.023 0.216-0.129 0.411-0.343 0.442-0.236 0.034-0.449-0.142-0.461-0.38l-0.024-0.482c-0.003-0.068-0.072-0.113-0.135-0.089-0.040 0.015-0.066 0.054-0.065 0.097l0.004 0.105c0.003 0.085-0.051 0.161-0.132 0.185-0.082 0.025-0.137 0.103-0.132 0.188l0.043 0.858c0.001 0.020 0.006 0.040 0.015 0.059 0.029 0.063 0.097 0.099 0.165 0.088l0.379-0.058c0.303-0.046 0.586 0.161 0.634 0.463l0.031 0.198c0.022 0.136-0.052 0.269-0.178 0.323-0.113 0.049-0.185 0.162-0.182 0.285l0.012 0.399c0.002 0.067 0.059 0.12 0.126 0.117 0.028-0.001 0.056 0.008 0.079 0.025l0.19 0.146c0.018 0.014 0.034 0.029 0.049 0.045l0.213 0.231c0.124 0.135 0.046 0.353-0.135 0.379l-0.017 0.002c-0.096 0.014-0.17 0.093-0.177 0.191l-0.003 0.047c-0.003 0.036 0.013 0.072 0.040 0.095 0.059 0.049 0.053 0.142-0.012 0.183-0.023 0.015-0.051 0.021-0.078 0.016l-0.050-0.008c-0.072-0.011-0.136-0.054-0.175-0.116l-0.035-0.057c-0.056-0.091-0.161-0.141-0.267-0.126l-0.022 0.003c-0.119 0.017-0.208 0.117-0.21 0.236-0.002 0.083-0.046 0.16-0.117 0.203l-0.206 0.125c-0.027 0.016-0.042 0.047-0.039 0.079 0.006 0.054-0.040 0.098-0.094 0.090l-0.116-0.018c-0.030-0.005-0.056-0.024-0.070-0.051l-0.078-0.154c-0.014-0.027-0.054-0.022-0.061 0.007-0.003 0.015-0.016 0.025-0.032 0.025h-0.256c-0.164 0-0.306 0.112-0.344 0.271l-0.019 0.079c-0.015 0.061-0.042 0.119-0.080 0.169l-0.133 0.175c-0.201 0.264-0.251 0.613-0.133 0.923 0.078 0.206 0.224 0.378 0.415 0.489l0.923 0.539c0.259 0.151 0.337 0.49 0.17 0.739-0.148 0.221-0.439 0.294-0.674 0.171l-0.336-0.177c-0.089-0.047-0.197-0.035-0.274 0.031s-0.105 0.168-0.074 0.263l0.132 0.406c0.029 0.089 0.117 0.146 0.21 0.136l0.054-0.006c0.071-0.007 0.136 0.040 0.151 0.11 0.016 0.080-0.039 0.156-0.119 0.166l-0.423 0.052c-0.081 0.010-0.137 0.085-0.125 0.165 0.012 0.075-0.037 0.147-0.112 0.163l-0.791 0.171c-0.104 0.023-0.174 0.121-0.161 0.227l0.001 0.005c0.009 0.071 0.054 0.131 0.12 0.159 0.034 0.014 0.072 0.019 0.109 0.013l0.563-0.092c0.085-0.014 0.165 0.042 0.182 0.126s0.097 0.14 0.182 0.126l0.067-0.011c0.054-0.009 0.106 0.028 0.115 0.082s-0.027 0.106-0.082 0.116l-1.534 0.264c-0.037 0.006-0.065 0.036-0.070 0.074-0.004 0.039-0.035 0.070-0.075 0.075l-0.375 0.042c-0.034 0.004-0.063 0.028-0.072 0.061-0.017 0.060-0.090 0.082-0.137 0.041l-0.002-0.002c-0.019-0.017-0.045-0.024-0.070-0.020l-0.35 0.053c-0.196 0.030-0.379-0.107-0.407-0.303-0.026-0.185-0.191-0.319-0.378-0.306l-0.818 0.057c-0.102 0.007-0.198-0.049-0.241-0.141l-0.016-0.033c-0.038-0.080-0.123-0.125-0.21-0.112l-0.086 0.013c-0.061 0.009-0.118-0.033-0.127-0.094l-0.006-0.042c-0.006-0.037-0.039-0.062-0.076-0.057-0.038 0.005-0.065 0.041-0.058 0.079l0.072 0.4c0.008 0.046-0.021 0.090-0.067 0.1s-0.075 0.054-0.067 0.099l0.023 0.128c0.022 0.125-0.065 0.243-0.191 0.259l-0.326 0.040c-0.12 0.015-0.232-0.066-0.255-0.185-0.024-0.122-0.14-0.203-0.263-0.184l-0.698 0.11c-0.162 0.025-0.273 0.177-0.248 0.339l0.009 0.058c0.021 0.138-0.078 0.265-0.217 0.279-0.052 0.005-0.104-0.007-0.149-0.034l-1.072-0.65c-0.102-0.062-0.22 0.055-0.157 0.158 0.035 0.058 0.013 0.133-0.048 0.163l-0.163 0.079c-0.108 0.052-0.171 0.168-0.156 0.288l0.008 0.066c0.024 0.192-0.102 0.371-0.292 0.411l-0.167 0.035c-0.060 0.013-0.109 0.055-0.13 0.113-0.022 0.060-0.075 0.104-0.139 0.114l-0.459 0.074c-0.044 0.007-0.090-0.005-0.125-0.034-0.038-0.031-0.088-0.043-0.136-0.032l-0.385 0.091c-0.082 0.019-0.133 0.101-0.114 0.183l0.014 0.058c0.010 0.044 0.053 0.073 0.098 0.067 0.048-0.007 0.092 0.026 0.1 0.073l0.056 0.37c0.027 0.174-0.093 0.337-0.267 0.364l-0.411 0.064c-0.051 0.008-0.075 0.067-0.044 0.109 0.033 0.044 0.003 0.106-0.051 0.109l-0.315 0.017c-0.050 0.003-0.094 0.035-0.111 0.081-0.020 0.052-0.072 0.085-0.128 0.081l-0.528-0.041c-0.208-0.016-0.409 0.083-0.522 0.259-0.065 0.101-0.161 0.179-0.273 0.222l-0.7 0.271c-0.135 0.052-0.288 0.023-0.394-0.075-0.058-0.054-0.131-0.088-0.209-0.098l-0.271-0.035c-0.106-0.014-0.209-0.041-0.308-0.081l-0.355-0.144c-0.17-0.069-0.352-0.107-0.535-0.11l-0.16-0.003c-0.175-0.003-0.347 0.042-0.498 0.131l-0.091 0.054c-0.066 0.039-0.121 0.093-0.163 0.157l-0.054 0.084c-0.128 0.199-0.399 0.244-0.584 0.098-0.037-0.029-0.079-0.052-0.124-0.066l-0.167-0.054c-0.111-0.036-0.226-0.058-0.342-0.065l-0.526-0.032c-0.074-0.004-0.146 0.020-0.202 0.068-0.060 0.051-0.138 0.075-0.216 0.067l-0.168-0.018c-0.121-0.013-0.238 0.049-0.296 0.157-0.065 0.122-0.207 0.184-0.341 0.148l-0.418-0.111c-0.080-0.021-0.164-0.031-0.247-0.028l-0.439 0.016c-0.088 0.003-0.176-0.013-0.257-0.047l-0.388-0.161c-0.1-0.042-0.148-0.157-0.105-0.257l0.047-0.111c0.013-0.031 0-0.068-0.030-0.084-0.046-0.024-0.047-0.090-0.001-0.115l0.024-0.013c0.054-0.029 0.056-0.105 0.005-0.138l-0.078-0.049c-0.045-0.029-0.069-0.081-0.061-0.133l0.045-0.302c0.025-0.166-0.021-0.334-0.125-0.465l-0.082-0.103c-0.121-0.153-0.127-0.367-0.014-0.526 0.099-0.139 0.109-0.323 0.024-0.471l-0.068-0.119c-0.064-0.112-0.093-0.242-0.081-0.371l0.011-0.122c0.014-0.158-0.060-0.311-0.193-0.397l-0.061-0.040c-0.041-0.027-0.090-0.039-0.138-0.035-0.097 0.009-0.189-0.049-0.223-0.14l-0.123-0.328c-0.048-0.126-0.132-0.235-0.241-0.314l-0.157-0.112c-0.036-0.026-0.078-0.041-0.123-0.044-0.103-0.008-0.19-0.080-0.216-0.18l-0.1-0.383c-0.073-0.281 0.096-0.568 0.377-0.64l0.289-0.074c0.048-0.012 0.082-0.054 0.085-0.103 0.003-0.053 0.043-0.096 0.095-0.105l0.383-0.064c0.058-0.010 0.115 0.018 0.144 0.069s0.086 0.078 0.143 0.069l0.896-0.143c0.15-0.024 0.242-0.177 0.194-0.321-0.047-0.139 0.037-0.287 0.18-0.318l0.122-0.026c0.033-0.007 0.066-0.007 0.099-0.001l0.046 0.009c0.123 0.024 0.239-0.067 0.245-0.192l0.004-0.082c0.002-0.037 0.026-0.068 0.061-0.079 0.043-0.014 0.068-0.057 0.059-0.101l-0.088-0.434c-0.006-0.031 0.009-0.061 0.038-0.074 0.030-0.014 0.045-0.047 0.037-0.078l-0.367-1.356c-0.020-0.074-0.093-0.122-0.169-0.109l-0.023 0.004c-0.050 0.008-0.1-0.016-0.123-0.061-0.025-0.046-0.076-0.070-0.127-0.060l-0.301 0.058c-0.077 0.015-0.138 0.074-0.155 0.15-0.020 0.089-0.099 0.153-0.191 0.153l-0.605 0.004c-0.174 0.001-0.316-0.138-0.319-0.311l-0.004-0.213c-0.001-0.033 0.023-0.063 0.056-0.068 0.035-0.006 0.068 0.015 0.078 0.048l0.015 0.052c0.018 0.063 0.080 0.102 0.144 0.092l0.077-0.012c0.122-0.020 0.202-0.137 0.177-0.258l-0.047-0.222c-0.024-0.111 0.046-0.22 0.157-0.245 0.1-0.023 0.168-0.115 0.161-0.217l-0.009-0.135c-0.016-0.226-0.232-0.384-0.452-0.33l-1.206 0.296c-0.157 0.038-0.316-0.055-0.36-0.21l-0.045-0.161c-0.014-0.050-0.063-0.083-0.114-0.076-0.076 0.010-0.136-0.062-0.114-0.135l0.008-0.026c0.027-0.089-0.050-0.174-0.141-0.157l-0.536 0.103c-0.212 0.041-0.42-0.091-0.472-0.301l-0.067-0.269c-0.014-0.056-0.069-0.091-0.125-0.081s-0.11-0.025-0.125-0.079l-0.013-0.047c-0.020-0.076 0.016-0.155 0.086-0.189l0.203-0.098c0.074-0.036 0.107-0.124 0.074-0.2l-0.010-0.023c-0.020-0.046-0.068-0.074-0.118-0.070-0.053 0.004-0.102-0.027-0.12-0.077l-0.018-0.051c-0.004-0.011-0.007-0.022-0.009-0.034l-0.073-0.432c-0.011-0.068 0.032-0.133 0.1-0.148 0.072-0.016 0.116-0.088 0.097-0.159l-0.022-0.084c-0.027-0.106-0.131-0.175-0.24-0.158l-0.051 0.008c-0.115 0.018-0.221-0.068-0.226-0.185l-0.003-0.068c-0.003-0.058 0.037-0.11 0.095-0.121 0.062-0.012 0.103-0.072 0.093-0.134l-0.112-0.705c-0.017-0.105 0.052-0.204 0.155-0.226 0.108-0.023 0.177-0.129 0.153-0.237l-0.034-0.157c-0.032-0.146-0.172-0.242-0.32-0.219l-0.132 0.020c-0.060 0.009-0.118-0.026-0.137-0.083-0.017-0.052-0.067-0.086-0.121-0.085l-0.4 0.011c-0.112 0.003-0.221-0.033-0.31-0.101s-0.15-0.165-0.176-0.273l-0.001-0.005c-0.018-0.089 0.039-0.177 0.129-0.195l0.062-0.013c0.114-0.024 0.192-0.129 0.182-0.246l-0.029-0.316c-0.009-0.099 0.025-0.196 0.094-0.267l0.068-0.070c0.037-0.038 0.053-0.093 0.041-0.145-0.019-0.083-0.099-0.137-0.183-0.121l-0.579 0.108c-0.147 0.027-0.24 0.174-0.201 0.318 0.036 0.138-0.046 0.279-0.184 0.315l-0.287 0.074c-0.013 0.003-0.027 0.005-0.041 0.005-0.096 0-0.171-0.082-0.162-0.178l0.007-0.074c0.015-0.159-0.133-0.285-0.288-0.244l-0.153 0.041c-0.056 0.015-0.114-0.012-0.139-0.064-0.023-0.049-0.076-0.076-0.129-0.067l-1.42 0.25c-0.116 0.020-0.228-0.053-0.255-0.168s-0.138-0.188-0.254-0.168l-0.065 0.011c-0.157 0.027-0.307-0.077-0.337-0.233l-0.303-1.587c-0.024-0.125 0.049-0.248 0.17-0.287l0.024-0.008c0.112-0.036 0.177-0.153 0.149-0.268l-0.025-0.102c-0.019-0.076 0.032-0.151 0.11-0.161l0.014-0.002c0.059-0.008 0.102-0.059 0.1-0.118l-0.002-0.045c-0.001-0.031-0.025-0.057-0.056-0.060-0.027-0.003-0.049-0.023-0.055-0.050l-0.023-0.112c-0.023-0.112-0.129-0.188-0.243-0.173l-0.372 0.048c-0.326 0.042-0.628-0.176-0.692-0.498l-0.26-1.316c-0.007-0.034 0.003-0.070 0.027-0.096 0.036-0.039 0.039-0.099 0.006-0.141l-0.187-0.245c-0.040-0.052-0.090-0.096-0.147-0.128l-0.222-0.125c-0.089-0.050-0.136-0.151-0.116-0.252 0.010-0.049 0.004-0.099-0.017-0.144l-0.158-0.343c-0.049-0.106-0.004-0.231 0.1-0.282 0.105-0.052 0.149-0.179 0.098-0.285l-0.161-0.336c-0.011-0.024-0.029-0.043-0.052-0.057l-0.079-0.047c-0.077-0.045-0.057-0.162 0.031-0.179 0.025-0.005 0.046-0.019 0.061-0.039l0.105-0.149c0.060-0.085 0.163-0.129 0.266-0.113l0.122 0.019c0.065 0.010 0.127-0.029 0.146-0.091l0.009-0.030c0.012-0.038 0.048-0.064 0.088-0.063l0.243 0.006c0.032 0.001 0.044-0.043 0.015-0.058-0.014-0.007-0.020-0.023-0.014-0.038l0.006-0.017c0.012-0.033 0.053-0.044 0.081-0.022l0.067 0.054c0.027 0.022 0.063 0.030 0.098 0.022l0.191-0.046c0.046-0.011 0.079-0.053 0.079-0.1 0-0.052-0.039-0.096-0.090-0.102l-0.205-0.026c-0.14-0.018-0.254-0.121-0.286-0.258l-0.010-0.042z"></path>
</svg>
