<!-- Generated by IcoMoon.io -->
<svg version="1.1" xmlns="http://www.w3.org/2000/svg" width="24" height="32" viewBox="0 0 24 32">
<path d="M11.878 0.429c0.018-0.022 0.052-0.023 0.072-0.003l0.026 0.026c0.023 0.023 0.057 0.031 0.088 0.019l0.197-0.075c0.086-0.033 0.182-0.013 0.249 0.050 0.11 0.104 0.288 0.081 0.367-0.048l0.059-0.095c0.058-0.094 0.178-0.127 0.276-0.077l0.089 0.046c0.036 0.018 0.080 0.009 0.106-0.022 0.038-0.045 0.109-0.040 0.14 0.010l0.056 0.090c0.020 0.032 0.028 0.069 0.023 0.106l-0.009 0.069c-0.008 0.069 0.044 0.131 0.114 0.133 0.042 0.001 0.079 0.024 0.1 0.060l0.067 0.118c0.049 0.086 0.131 0.149 0.228 0.172l0.137 0.034c0.063 0.016 0.131-0.002 0.179-0.046 0.037-0.034 0.085-0.052 0.135-0.051l0.219 0.003c0.072 0.001 0.143 0.013 0.211 0.034l0.28 0.088c0.067 0.021 0.14 0.019 0.205-0.007 0.051-0.020 0.106-0.026 0.16-0.018l0.043 0.007c0.099 0.015 0.178 0.089 0.202 0.186l0.007 0.028c0.020 0.083 0.089 0.145 0.174 0.156l0.125 0.016c0.031 0.004 0.055 0.031 0.055 0.062 0 0.029-0.020 0.054-0.048 0.061l-0.116 0.028c-0.021 0.005-0.043 0-0.059-0.013l-0.041-0.033c-0.017-0.013-0.042-0.007-0.049 0.013l-0.004 0.010c-0.003 0.009 0 0.019 0.009 0.023 0.017 0.009 0.010 0.036-0.009 0.035l-0.147-0.004c-0.024-0.001-0.046 0.015-0.053 0.038l-0.006 0.018c-0.012 0.038-0.049 0.061-0.088 0.055l-0.074-0.012c-0.062-0.010-0.125 0.017-0.161 0.068l-0.063 0.090c-0.009 0.012-0.022 0.021-0.037 0.024-0.053 0.010-0.065 0.081-0.019 0.108l0.048 0.028c0.014 0.008 0.025 0.020 0.031 0.034l0.097 0.204c0.031 0.064 0.004 0.141-0.060 0.173s-0.090 0.107-0.060 0.171l0.096 0.208c0.012 0.027 0.016 0.058 0.010 0.087-0.012 0.061 0.016 0.122 0.070 0.152l0.134 0.075c0.035 0.019 0.065 0.046 0.089 0.077l0.113 0.149c0.020 0.026 0.018 0.062-0.004 0.086-0.014 0.016-0.020 0.037-0.016 0.058l0.157 0.797c0.039 0.195 0.222 0.327 0.419 0.302l0.225-0.029c0.069-0.009 0.133 0.037 0.147 0.105l0.014 0.068c0.003 0.016 0.017 0.028 0.033 0.030 0.019 0.002 0.033 0.018 0.034 0.036l0.001 0.027c0.001 0.036-0.025 0.067-0.060 0.072l-0.008 0.001c-0.047 0.006-0.078 0.052-0.066 0.098l0.015 0.062c0.017 0.069-0.022 0.14-0.090 0.162l-0.015 0.005c-0.073 0.024-0.117 0.098-0.103 0.174l0.184 0.961c0.018 0.095 0.109 0.158 0.204 0.141l0.039-0.007c0.070-0.012 0.138 0.033 0.154 0.102s0.084 0.114 0.154 0.102l0.86-0.152c0.032-0.006 0.064 0.011 0.078 0.040 0.015 0.032 0.050 0.048 0.084 0.039l0.093-0.025c0.094-0.025 0.184 0.051 0.174 0.148l-0.004 0.045c-0.005 0.058 0.040 0.108 0.098 0.108 0.008 0 0.017-0.001 0.025-0.003l0.174-0.045c0.084-0.022 0.134-0.107 0.111-0.19-0.023-0.088 0.033-0.176 0.122-0.193l0.35-0.065c0.051-0.009 0.1 0.023 0.111 0.073 0.007 0.032-0.002 0.064-0.025 0.088l-0.041 0.042c-0.042 0.043-0.063 0.102-0.057 0.162l0.018 0.192c0.007 0.070-0.041 0.134-0.11 0.149l-0.038 0.008c-0.054 0.011-0.089 0.064-0.078 0.118l0.001 0.003c0.015 0.066 0.053 0.124 0.107 0.165s0.12 0.063 0.188 0.061l0.242-0.006c0.033-0.001 0.063 0.020 0.073 0.051 0.012 0.035 0.047 0.056 0.083 0.050l0.080-0.012c0.089-0.014 0.174 0.044 0.194 0.133l0.021 0.095c0.014 0.065-0.027 0.13-0.093 0.144-0.063 0.013-0.104 0.073-0.094 0.137l0.068 0.427c0.006 0.038-0.019 0.074-0.057 0.081-0.035 0.007-0.059 0.038-0.057 0.073l0.002 0.041c0.003 0.071 0.067 0.123 0.137 0.112l0.031-0.005c0.066-0.010 0.129 0.031 0.145 0.096l0.013 0.051c0.011 0.043-0.016 0.087-0.059 0.096-0.041 0.009-0.067 0.049-0.060 0.090l0.044 0.261c0.001 0.007 0.003 0.014 0.005 0.020l0.011 0.031c0.011 0.030 0.041 0.049 0.073 0.047 0.030-0.002 0.059 0.015 0.071 0.043l0.006 0.014c0.020 0.046 0 0.099-0.045 0.121l-0.123 0.060c-0.043 0.021-0.065 0.069-0.052 0.115l0.008 0.029c0.009 0.033 0.042 0.054 0.076 0.048s0.068 0.015 0.076 0.049l0.041 0.163c0.032 0.127 0.157 0.207 0.286 0.182l0.325-0.063c0.055-0.011 0.102 0.041 0.085 0.095l-0.005 0.016c-0.013 0.044 0.023 0.088 0.069 0.082 0.031-0.004 0.061 0.016 0.069 0.046l0.027 0.098c0.026 0.094 0.123 0.151 0.218 0.127l0.73-0.179c0.133-0.033 0.264 0.063 0.274 0.2l0.006 0.082c0.004 0.062-0.037 0.117-0.098 0.131-0.067 0.015-0.109 0.081-0.095 0.149l0.029 0.135c0.015 0.073-0.033 0.144-0.107 0.156l-0.047 0.008c-0.039 0.006-0.076-0.018-0.087-0.056l-0.009-0.032c-0.006-0.021-0.026-0.033-0.047-0.029s-0.034 0.021-0.034 0.042l0.002 0.129c0.002 0.105 0.088 0.189 0.193 0.189l0.366-0.002c0.055-0 0.103-0.039 0.116-0.093 0.010-0.046 0.047-0.082 0.094-0.091l0.182-0.035c0.031-0.006 0.062 0.009 0.077 0.037s0.044 0.042 0.075 0.037l0.014-0.002c0.046-0.008 0.090 0.021 0.103 0.066l0.222 0.821c0.005 0.019-0.004 0.039-0.022 0.047s-0.027 0.026-0.023 0.045l0.053 0.263c0.005 0.027-0.010 0.053-0.036 0.061-0.021 0.007-0.036 0.026-0.037 0.048l-0.002 0.050c-0.004 0.076-0.074 0.131-0.148 0.116l-0.028-0.005c-0.020-0.004-0.040-0.004-0.060 0.001l-0.074 0.016c-0.087 0.019-0.138 0.109-0.109 0.193 0.029 0.087-0.026 0.18-0.117 0.194l-0.542 0.087c-0.035 0.006-0.069-0.011-0.087-0.042s-0.052-0.047-0.087-0.042l-0.232 0.039c-0.032 0.005-0.055 0.032-0.057 0.064-0.002 0.030-0.023 0.055-0.052 0.062l-0.175 0.045c-0.17 0.044-0.273 0.218-0.228 0.388l0.061 0.232c0.016 0.061 0.069 0.105 0.131 0.109 0.027 0.002 0.052 0.011 0.074 0.027l0.095 0.068c0.066 0.047 0.117 0.114 0.146 0.19l0.075 0.198c0.021 0.055 0.076 0.090 0.135 0.085 0.029-0.003 0.059 0.005 0.084 0.021l0.037 0.024c0.080 0.052 0.125 0.145 0.117 0.241l-0.007 0.074c-0.007 0.078 0.010 0.157 0.049 0.225l0.041 0.072c0.052 0.090 0.046 0.201-0.014 0.285-0.069 0.096-0.065 0.226 0.008 0.319l0.050 0.063c0.063 0.079 0.090 0.181 0.076 0.281l-0.027 0.183c-0.005 0.032 0.010 0.063 0.037 0.081l0.047 0.030c0.031 0.020 0.030 0.066-0.003 0.084l-0.015 0.008c-0.028 0.015-0.027 0.055 0.001 0.070 0.018 0.010 0.026 0.032 0.018 0.051l-0.044 0.103c-0.020 0.047-0.061 0.082-0.111 0.093l-1.146 0.271-1.202 0.44c-0.097 0.036-0.202 0.044-0.304 0.024l-0.015-0.003c-0.102-0.020-0.209-0.008-0.304 0.033-0.116 0.049-0.21 0.141-0.264 0.255l-0.048 0.104c-0.026 0.057-0.029 0.123-0.007 0.182l0.015 0.041c0.008 0.023 0.024 0.042 0.045 0.054l0.066 0.041c0.009 0.006 0.022 0.004 0.029-0.005 0.011-0.014 0.034-0.009 0.038 0.009l0.093 0.408c0.007 0.033 0.007 0.067-0.001 0.1l-0.109 0.456c-0.030 0.127-0.108 0.238-0.216 0.311-0.048 0.032-0.090 0.072-0.125 0.118l-0.131 0.174c-0.065 0.086-0.123 0.178-0.171 0.275l-0.43 0.85-0.349 0.572c-0.073 0.12-0.158 0.232-0.253 0.335l-0.044 0.047c-0.103 0.111-0.19 0.235-0.258 0.37-0.078 0.154-0.18 0.294-0.302 0.416l-0.603 0.601-0.93 1.124c-0.18 0.218-0.384 0.414-0.608 0.586l-3.316 2.546c-0.124 0.095-0.24 0.202-0.345 0.318l-0.383 0.421c-0.028 0.030-0.048 0.067-0.059 0.107l-0.053 0.193c-0.008 0.031-0.040 0.049-0.071 0.041l-0.014-0.004c-0.025-0.006-0.050 0.009-0.055 0.034-0.003 0.015 0.002 0.032 0.013 0.042l0.245 0.228c0.027 0.025 0.069 0.027 0.097 0.003l0.006-0.005c0.027-0.021 0.032-0.059 0.013-0.088-0.015-0.022-0.014-0.052 0.001-0.074 0.023-0.033 0.070-0.040 0.101-0.013l0.053 0.047c0.007 0.006 0.011 0.015 0.011 0.024l-0 0.006c-0 0.031 0.040 0.042 0.056 0.016 0.005-0.008 0.012-0.013 0.021-0.015l0.232-0.034c0.039-0.006 0.080 0.001 0.115 0.019l0.103 0.054c0.020 0.011 0.045 0.005 0.060-0.012l0.010-0.013c0.012-0.015 0.035-0.017 0.049-0.003 0.011 0.011 0.013 0.028 0.005 0.041l-0.049 0.078c-0.024 0.039-0.029 0.086-0.014 0.129l0.019 0.052c0.023 0.064 0.020 0.134-0.007 0.196l-0.025 0.056c-0.032 0.073-0.043 0.154-0.030 0.233l0.046 0.298c0.034 0.217 0.018 0.439-0.047 0.649l-0.075 0.243c-0.013 0.041-0.017 0.085-0.012 0.128l0.022 0.214c0.006 0.059-0.037 0.111-0.095 0.117l-0.003 0c-0.046 0.005-0.083 0.040-0.091 0.085-0.007 0.042-0.039 0.075-0.081 0.084l-0.099 0.019c-0.037 0.007-0.076-0.004-0.104-0.029-0.015-0.014-0.026-0.031-0.032-0.050l-0.076-0.225c-0.027-0.079-0.014-0.166 0.033-0.235 0.039-0.057 0.055-0.127 0.043-0.196l-0.038-0.219c-0.009-0.050-0.022-0.1-0.040-0.148l-0.010-0.026c-0.044-0.116-0.107-0.224-0.187-0.319l-0.166-0.198c-0.091-0.109-0.198-0.203-0.317-0.281-0.13-0.085-0.273-0.148-0.423-0.188l-0.19-0.050c-0.078-0.020-0.153-0.050-0.224-0.089l-0.041-0.022c-0.154-0.084-0.33-0.118-0.505-0.098l-0.223 0.025c-0.048 0.006-0.097-0.006-0.138-0.032-0.076-0.048-0.174-0.043-0.245 0.012l-0.058 0.045c-0.070 0.053-0.159 0.076-0.245 0.062l-0.107-0.017c-0.084-0.013-0.169 0.012-0.232 0.069-0.032 0.029-0.070 0.050-0.111 0.062l-0.097 0.028c-0.055 0.016-0.1 0.054-0.124 0.105-0.017 0.036-0.045 0.066-0.080 0.086l-0.095 0.055c-0.037 0.021-0.076 0.038-0.116 0.050l-0.197 0.059c-0.169 0.050-0.331 0.12-0.484 0.207l-0.449 0.256c-0.030 0.017-0.064 0.028-0.098 0.033-0.076 0.009-0.144 0.051-0.187 0.115l-0.006 0.008c-0.037 0.055-0.051 0.121-0.041 0.186l0.009 0.058c0.005 0.035-0.004 0.072-0.026 0.1-0.034 0.043-0.091 0.059-0.142 0.041l-0.067-0.023c-0.032-0.011-0.061-0.029-0.085-0.053l-0.199-0.195c-0.050-0.049-0.116-0.078-0.186-0.080s-0.136-0.031-0.186-0.080l-0.046-0.045c-0.041-0.040-0.097-0.062-0.155-0.060l-0.039 0.001c-0.026 0.001-0.052 0.012-0.071 0.030-0.049 0.047-0.043 0.128 0.012 0.167l0.010 0.007c0.037 0.026 0.053 0.072 0.040 0.114-0.008 0.029-0.029 0.053-0.056 0.066l-0.184 0.087c-0.078 0.037-0.111 0.131-0.072 0.208 0.013 0.026 0.033 0.048 0.058 0.064l0.138 0.084c0.021 0.013 0.035 0.036 0.037 0.061 0.002 0.035-0.020 0.068-0.053 0.079l-0.337 0.108c-0.106 0.034-0.219 0.034-0.325-0l-0.28-0.090c-0.101-0.033-0.206-0.054-0.311-0.064l-0.069-0.006c-0.234-0.021-0.462-0.082-0.675-0.181l-0.881-0.405c-0.286-0.132-0.527-0.344-0.692-0.612l-0.145-0.235c-0.049-0.080-0.077-0.171-0.081-0.265l-0.007-0.162c-0.005-0.118-0.079-0.222-0.188-0.265-0.171-0.068-0.241-0.273-0.146-0.43l0.036-0.060c0.019-0.032 0.043-0.060 0.070-0.084l0.093-0.082c0.205-0.181 0.492-0.235 0.749-0.141l0.151 0.055c0.027 0.010 0.056 0.012 0.084 0.007l0.133-0.025c0.056-0.010 0.103 0.042 0.087 0.096-0.004 0.013-0.004 0.027-0 0.041l0.012 0.047c0.035 0.132 0.169 0.212 0.301 0.181l0.065-0.015c0.173-0.041 0.28-0.214 0.239-0.387l-0.047-0.197c-0.028-0.117 0.045-0.234 0.162-0.26s0.191-0.145 0.162-0.262l-0.143-0.577c-0.013-0.052-0.059-0.088-0.112-0.089-0.086-0.001-0.141-0.092-0.103-0.169l0.146-0.299c0.017-0.034 0.039-0.064 0.066-0.091l0.064-0.063c0.062-0.061 0.149-0.089 0.235-0.078l0.145 0.019c0.055 0.007 0.108-0.027 0.123-0.081 0.006-0.020 0.006-0.041 0.001-0.061l-0.003-0.012c-0.031-0.115 0.071-0.223 0.188-0.197 0.024 0.005 0.049 0.005 0.073-0.001l0.422-0.107c0.103-0.026 0.168-0.128 0.149-0.233-0.019-0.103 0.044-0.204 0.145-0.232l0.136-0.037c0.182-0.050 0.293-0.233 0.253-0.417l-0.12-0.555c-0.009-0.043-0.006-0.087 0.010-0.128l0.007-0.017c0.012-0.030 0.014-0.063 0.007-0.095l-0.019-0.083c-0.010-0.043 0.017-0.085 0.060-0.094l0.038-0.008c0.028-0.006 0.044-0.036 0.033-0.063s0.005-0.057 0.033-0.063l1.27-0.273c0.142-0.030 0.259-0.128 0.316-0.261 0.065-0.154 0.038-0.332-0.069-0.461-0.141-0.169-0.142-0.417-0-0.585l0.219-0.26c0.217-0.258 0.178-0.646-0.087-0.855-0.214-0.169-0.287-0.461-0.177-0.71l0.030-0.068c0.072-0.165 0.078-0.351 0.015-0.52l-0.248-0.668c-0.071-0.192 0.062-0.398 0.266-0.412l0.223-0.016c0.049-0.004 0.086-0.047 0.081-0.096-0.004-0.046-0.043-0.081-0.089-0.080l-0.127 0.002c-0.027 0-0.050-0.019-0.053-0.046-0.004-0.029 0.017-0.056 0.047-0.059l0.176-0.019c0.056-0.006 0.104-0.041 0.126-0.093 0.017-0.040 0.050-0.070 0.090-0.085l0.082-0.029c0.034-0.012 0.069-0.019 0.105-0.020l0.507-0.021c0.095-0.004 0.171-0.080 0.176-0.175 0.004-0.079 0.057-0.147 0.133-0.168l0.073-0.021c0.175-0.049 0.351 0.077 0.359 0.259l0.010 0.212c0.001 0.024 0.020 0.043 0.044 0.044 0.019 0.001 0.036 0.014 0.042 0.033l0.015 0.047c0.014 0.045-0 0.094-0.036 0.124l-0.069 0.059c-0.083 0.070-0.112 0.185-0.073 0.286l0.077 0.201c0.028 0.073 0.014 0.155-0.038 0.214l-0.082 0.094c-0.060 0.069-0.030 0.176 0.056 0.205 0.043 0.014 0.091 0.004 0.125-0.026l0.112-0.101c0.023-0.021 0.035-0.051 0.032-0.081-0.004-0.040 0.017-0.078 0.053-0.096l0.133-0.066c0.029-0.015 0.065-0.007 0.085 0.020 0.019 0.025 0.053 0.034 0.082 0.021l0.009-0.004c0.042-0.018 0.061-0.067 0.042-0.108l-0.075-0.168c-0.015-0.034-0.004-0.075 0.027-0.096s0.042-0.062 0.027-0.096l-0.005-0.012c-0.021-0.048 0-0.104 0.048-0.125l0.031-0.014c0.053-0.024 0.083-0.080 0.075-0.137l-0.013-0.086c-0.004-0.029 0.009-0.058 0.033-0.074 0.039-0.026 0.092-0.011 0.112 0.032l0.334 0.735c-0.041-0.14-0.004-0.291 0.097-0.395l0.128-0.132c0.107-0.11 0.283-0.113 0.393-0.007l0.094 0.090c0.053 0.051 0.058 0.135 0.010 0.192-0.049 0.058-0.043 0.144 0.013 0.195l0.037 0.033c0.027 0.025 0.061 0.041 0.097 0.047l0.139 0.024c0.146 0.025 0.262 0.137 0.292 0.282l0.052 0.252c0.010 0.049 0.057 0.081 0.107 0.073l0.023-0.004c0.030-0.005 0.060 0.012 0.071 0.040s0.039 0.044 0.069 0.040l0.183-0.025c0.163-0.022 0.278-0.172 0.258-0.335l-0.052-0.42c-0.004-0.029 0.011-0.058 0.037-0.072 0.034-0.019 0.078-0.007 0.097 0.027l0.015 0.025c0.022 0.039 0.067 0.058 0.11 0.049l0.23-0.050c0.034-0.007 0.063-0.028 0.081-0.057 0.023-0.038 0.024-0.084 0.004-0.123l-0.054-0.104c-0.020-0.038-0.005-0.084 0.033-0.103 0.024-0.012 0.053-0.011 0.076 0.004l0.123 0.079c0.070 0.045 0.12 0.114 0.14 0.194l0.058 0.226c0.012 0.047 0.040 0.089 0.080 0.118l0.125 0.091c0.033 0.024 0.038 0.072 0.011 0.103-0.029 0.033-0.021 0.085 0.017 0.107l0.366 0.212c0.061 0.035 0.137-0.011 0.133-0.082-0.002-0.029 0.012-0.058 0.035-0.076l0.193-0.147c0.099-0.075 0.233-0.086 0.343-0.028l0.129 0.068c0.036 0.019 0.080 0.015 0.111-0.011 0.027-0.022 0.065-0.029 0.098-0.017l0.047 0.017c0.051 0.018 0.107 0.014 0.154-0.012l0.086-0.047c0.079-0.043 0.176-0.035 0.246 0.021 0.075 0.059 0.179 0.064 0.26 0.013l0.348-0.221c0.023-0.015 0.035-0.042 0.029-0.068-0.011-0.053-0.078-0.070-0.113-0.030l-0.009 0.010c-0.035 0.040-0.099 0.030-0.12-0.019l-0.012-0.027c-0.007-0.015-0.017-0.028-0.030-0.037l-0.036-0.026c-0.015-0.011-0.034-0.012-0.050-0.003l-0.018 0.010c-0.013 0.007-0.029 0.002-0.036-0.011l-0.012-0.023c-0.011-0.020-0.041-0.011-0.039 0.012 0.001 0.018-0.020 0.029-0.034 0.018l-0.031-0.026c-0.021-0.017-0.053-0.007-0.061 0.019l-0.005 0.016c-0.007 0.025-0.033 0.040-0.059 0.034l-0.040-0.010c-0.038-0.009-0.059-0.049-0.046-0.086 0.015-0.043-0.017-0.088-0.063-0.088l-0.147 0.002c-0.035 0.001-0.063-0.030-0.059-0.066 0.003-0.028-0.014-0.055-0.041-0.063l-0.093-0.029c-0.033-0.010-0.036-0.056-0.004-0.070 0.035-0.015 0.027-0.067-0.011-0.071l-0.031-0.004c-0.012-0.001-0.023-0.008-0.031-0.017l-0.022-0.028c-0.018-0.023-0.021-0.054-0.009-0.080l0.034-0.072c0.012-0.025-0.009-0.054-0.037-0.050l-0.016 0.003c-0.013 0.002-0.025-0.008-0.025-0.022l0.001-0.037c0-0.017-0.024-0.022-0.030-0.006-0.003 0.008-0.012 0.012-0.020 0.009l-0.032-0.013c-0.021-0.009-0.045-0.001-0.058 0.017l-0.043 0.064c-0.007 0.010-0.019 0.017-0.031 0.017-0.025 0-0.043-0.024-0.036-0.047l0.011-0.040c0.009-0.030-0.028-0.051-0.050-0.030l-0.036 0.035c-0.013 0.012-0.034-0-0.029-0.017 0.003-0.011-0.005-0.022-0.017-0.022l-0.043 0.001c-0.026 0-0.048-0.020-0.049-0.047l-0-0.009c-0.001-0.028-0.022-0.052-0.050-0.055l-0.046-0.005c-0.026-0.003-0.040-0.031-0.028-0.054 0.010-0.018 0.003-0.041-0.016-0.050l-0.052-0.026c-0.020-0.010-0.026-0.036-0.012-0.054 0.009-0.012 0.010-0.029 0.001-0.042l-0.081-0.115c-0.002-0.002-0.005-0.004-0.008-0.004-0.010 0-0.012-0.015-0.002-0.017l0.39-0.092c0.035-0.008 0.048-0.052 0.022-0.078l-0.025-0.025c-0.012-0.012-0.018-0.028-0.019-0.044l-0.001-0.041c-0.001-0.047 0.017-0.093 0.050-0.126l0.033-0.033c0.065-0.065 0.093-0.158 0.076-0.248l-0.030-0.16c-0.022-0.116-0.008-0.235 0.039-0.343l0.045-0.103c0.053-0.122 0.080-0.254 0.079-0.388l-0.002-0.323c-0.001-0.086-0.021-0.172-0.061-0.249l-0.151-0.298c-0.043-0.084-0.015-0.187 0.064-0.238l0.036-0.024c0.011-0.007 0.025-0.011 0.038-0.010 0.045 0.004 0.078-0.042 0.060-0.083l-0.021-0.048c-0.008-0.018-0.022-0.034-0.040-0.043l-0.030-0.016c-0.062-0.033-0.138-0.029-0.196 0.011l-0.051 0.035c-0.088 0.061-0.21 0.030-0.259-0.066l-0.049-0.097c-0.011-0.021-0.004-0.047 0.015-0.061 0.015-0.011 0.023-0.030 0.019-0.048l-0.024-0.125c-0.018-0.096-0.11-0.161-0.207-0.145l-0.042 0.007c-0.032 0.005-0.059 0.025-0.073 0.054s-0.040 0.047-0.070 0.053l-0.363 0.071c-0.153 0.030-0.305-0.059-0.353-0.208l-0.129-0.396c-0.012-0.037-0.058-0.048-0.086-0.021-0.009 0.009-0.021 0.014-0.034 0.015l-0.295 0.015c-0.091 0.005-0.171-0.058-0.189-0.146-0.021-0.104-0.126-0.168-0.228-0.14l-0.245 0.066c-0.039 0.010-0.080-0.005-0.102-0.039-0.037-0.056-0.005-0.132 0.061-0.144l0.054-0.010c0.059-0.011 0.103-0.061 0.106-0.121l0.032-0.598c0.003-0.054 0.037-0.101 0.086-0.122 0.062-0.025 0.097-0.090 0.084-0.156l-0.044-0.223c-0.026-0.133-0.148-0.225-0.283-0.214l-0.154 0.013c-0.058 0.005-0.102 0.055-0.099 0.114l0.002 0.029c0.002 0.035-0.021 0.066-0.055 0.075-0.038 0.010-0.077-0.013-0.088-0.051l-0.078-0.281c-0.010-0.036-0.046-0.058-0.082-0.050l-0.002 0.001c-0.040 0.008-0.078-0.020-0.082-0.060-0.003-0.034 0.019-0.065 0.052-0.073l0.252-0.060c0.189-0.045 0.309-0.229 0.274-0.42l-0.125-0.68c-0.019-0.102 0.045-0.201 0.146-0.226 0.099-0.024 0.163-0.121 0.147-0.222l-0.097-0.59c-0.039-0.237-0.262-0.398-0.5-0.36l-0.044 0.007c-0.027 0.004-0.054 0.014-0.077 0.029l-0.038 0.023c-0.040 0.025-0.064 0.069-0.064 0.116l0.001 0.061c0 0.013 0.007 0.024 0.019 0.029 0.024 0.012 0.025 0.045 0.002 0.059l-0.027 0.016c-0.015 0.009-0.025 0.026-0.025 0.044l0.001 0.090c0.001 0.082-0.047 0.156-0.122 0.19l-0.195 0.086c-0.046 0.020-0.099-0.005-0.112-0.053-0.012-0.043-0.056-0.068-0.099-0.057l-0.017 0.004c-0.054 0.014-0.109-0.019-0.121-0.074l-0.071-0.305c-0.009-0.039 0.006-0.081 0.038-0.105s0.047-0.064 0.039-0.102l-0.010-0.047c-0.021-0.1-0.121-0.162-0.219-0.136l-0.014 0.004c-0.108 0.028-0.217-0.041-0.237-0.151l-0.056-0.303c-0.029-0.159-0.198-0.251-0.348-0.188l-0.027 0.011c-0.014 0.006-0.028 0.015-0.038 0.027l-0.006 0.007c-0.065 0.069-0.181 0.028-0.189-0.067-0.007-0.093-0.12-0.135-0.186-0.070l-0.072 0.071c-0.068 0.067-0.183 0.036-0.209-0.056-0.012-0.041-0.001-0.086 0.027-0.118l0.056-0.062c0.010-0.011 0.012-0.027 0.005-0.041-0.010-0.020-0.036-0.025-0.053-0.012l-0.14 0.107c-0.016 0.012-0.038 0.010-0.051-0.005-0.014-0.016-0.012-0.041 0.004-0.054l0.123-0.099c0.043-0.035 0.069-0.087 0.070-0.142l0.007-0.303c0-0.012-0.004-0.025-0.011-0.035-0.016-0.021-0.043-0.028-0.067-0.018l-0.075 0.032c-0.074 0.032-0.161 0.003-0.201-0.067l-0.050-0.088c-0.084-0.147-0.014-0.335 0.146-0.391l0.136-0.048c0.050-0.018 0.085-0.062 0.090-0.114 0.003-0.026 0.013-0.051 0.030-0.072l0.163-0.201c0.032-0.039 0.042-0.091 0.027-0.138l-0.016-0.052c-0.007-0.024 0-0.051 0.019-0.068l0.046-0.041c0.030-0.027 0.010-0.077-0.030-0.075-0.033 0.001-0.056-0.034-0.040-0.064l0.057-0.106c0.009-0.017 0.014-0.036 0.013-0.055l-0.003-0.177c-0-0.019 0.013-0.036 0.031-0.041 0.025-0.007 0.038-0.035 0.027-0.058l-0.117-0.249c-0.030-0.064-0.033-0.136-0.010-0.203 0.021-0.059 0.062-0.108 0.115-0.139l0.043-0.026c0.082-0.048 0.144-0.124 0.176-0.213l0.099-0.277c0.025-0.069-0.010-0.146-0.078-0.174-0.045-0.018-0.096-0.011-0.135 0.018l-0.011 0.008c-0.072 0.054-0.174 0.039-0.227-0.033l-0.022-0.029c-0.025-0.034-0.038-0.075-0.037-0.117 0.001-0.033 0.010-0.066 0.027-0.094l0.073-0.123c0.051-0.086 0.119-0.16 0.201-0.219l0.223-0.16c0.012-0.009 0.021-0.021 0.026-0.035 0.016-0.048-0.023-0.096-0.073-0.092l-0.338 0.031c-0.007 0.001-0.014-0.005-0.013-0.013 0.001-0.014-0.019-0.018-0.024-0.004l-0.009 0.027c-0.002 0.007-0.008 0.011-0.015 0.011h-0.022c-0.023 0-0.043-0.016-0.047-0.039l-0.172-0.979c-0.014-0.080-0.082-0.139-0.164-0.142l-0.158-0.005c-0.033-0.001-0.058 0.029-0.050 0.061s-0.016 0.061-0.048 0.061l-0.214 0.003c-0.011 0-0.021 0.004-0.030 0.012-0.023 0.021-0.018 0.059 0.010 0.073l0.009 0.004c0.014 0.007 0.024 0.021 0.026 0.036l0.003 0.022c0.004 0.032-0.031 0.055-0.059 0.037-0.029-0.019-0.066 0.007-0.058 0.040l0.018 0.077c0.008 0.034-0.011 0.069-0.043 0.081l-0.070 0.026c-0.022 0.008-0.047 0.011-0.071 0.009l-0.093-0.010c-0.101-0.011-0.197-0.051-0.277-0.113l-0.213-0.168c-0.080-0.063-0.191-0.067-0.275-0.010-0.103 0.069-0.241 0.046-0.317-0.052l-0.162-0.212c-0.023-0.030-0.035-0.066-0.034-0.104 0.001-0.053-0.024-0.104-0.066-0.136l-0.067-0.051c-0.104-0.078-0.146-0.213-0.106-0.337l0.013-0.040c0.007-0.021 0.009-0.044 0.005-0.067l-0.012-0.064c-0.003-0.015-0.015-0.027-0.030-0.031-0.033-0.007-0.041-0.049-0.014-0.069l0.013-0.010c0.017-0.012 0.040-0.012 0.056 0.002l0.051 0.041c0.034 0.028 0.085 0.008 0.091-0.035 0.003-0.021 0.018-0.039 0.039-0.045l0.19-0.060c0.13-0.041 0.228-0.149 0.255-0.283l0.050-0.243c0.022-0.107 0.136-0.167 0.236-0.125l0.047 0.020c0.033 0.014 0.071 0.007 0.098-0.017 0.022-0.020 0.052-0.028 0.080-0.022l0.011 0.002c0.043 0.009 0.078 0.041 0.089 0.084l0.054 0.202c0.011 0.039 0.056 0.057 0.090 0.036 0.026-0.016 0.036-0.048 0.023-0.076l-0.009-0.020c-0.013-0.029-0.009-0.063 0.011-0.087l0.050-0.064c0.037-0.047 0.053-0.106 0.045-0.165l-0.012-0.088c-0.006-0.043 0.009-0.086 0.040-0.115l0.037-0.035c0.016-0.015 0.021-0.037 0.014-0.058-0.010-0.029 0.005-0.060 0.034-0.070l0.002-0.001c0.020-0.007 0.041-0.003 0.057 0.011l0.418 0.376c0.024 0.021 0.056 0.029 0.087 0.020l0.015-0.004c0.020-0.006 0.042-0.001 0.058 0.012l0.022 0.019c0.017 0.015 0.018 0.041 0.001 0.056-0.026 0.024-0.008 0.067 0.028 0.065l0.166-0.010c0.017-0.001 0.034 0.002 0.049 0.010l0.076 0.038c0.038 0.019 0.083 0.010 0.111-0.022 0.020-0.022 0.049-0.034 0.079-0.031l0.103 0.010c0.019 0.002 0.037-0.003 0.053-0.013 0.043-0.029 0.103-0.010 0.121 0.039s-0.013 0.099-0.063 0.107l-0.003 0.001c-0.025 0.004-0.046 0.020-0.056 0.043-0.011 0.024-0.034 0.041-0.060 0.044l-0.070 0.007c-0.063 0.006-0.097 0.079-0.060 0.131 0.021 0.030 0.058 0.043 0.093 0.032l0.115-0.035c0.071-0.022 0.146 0.018 0.168 0.090 0.011 0.035 0.035 0.064 0.067 0.081l0.034 0.017c0.024 0.012 0.050 0.020 0.076 0.023l0.14 0.017c0.036 0.004 0.072 0 0.106-0.012l0.199-0.070c0.018-0.006 0.038 0.004 0.044 0.022 0.006 0.021 0.030 0.030 0.049 0.020l0.049-0.027c0.014-0.008 0.032-0.004 0.042 0.010s0.026 0.018 0.040 0.011l0.034-0.016c0.030-0.014 0.045-0.049 0.035-0.081-0.007-0.020-0.004-0.042 0.008-0.059l0.026-0.037c0.024-0.035 0.061-0.059 0.103-0.066l0.383-0.065c0.068-0.012 0.135 0.024 0.165 0.086 0.017 0.036 0.047 0.064 0.085 0.078l0.072 0.027c0.029 0.011 0.060 0.018 0.091 0.021l0.44 0.040c0.020 0.002 0.040-0.009 0.049-0.027s0.027-0.029 0.047-0.028l0.011 0.001c0.033 0.002 0.057-0.032 0.043-0.063-0.010-0.022-0-0.048 0.022-0.058l0.031-0.014c0.022-0.010 0.038-0.030 0.044-0.054l0.003-0.012c0.014-0.060 0.076-0.095 0.134-0.076l0.119 0.037c0.034 0.011 0.056 0.044 0.052 0.080-0.004 0.039 0.022 0.074 0.061 0.082l0.097 0.018c0.021 0.004 0.043-0.007 0.051-0.027l0.005-0.012c0.006-0.015 0.001-0.032-0.013-0.040-0.024-0.014-0.020-0.050 0.007-0.058l0.007-0.002c0.014-0.004 0.023-0.016 0.025-0.030l0.045-0.398c0.003-0.024-0.001-0.049-0.012-0.071l-0.057-0.116c-0.029-0.060 0.028-0.125 0.091-0.104 0.020 0.007 0.042 0.005 0.060-0.005l0.159-0.087c0.073-0.040 0.156-0.061 0.239-0.060l0.228 0.003c0.014 0 0.028-0.006 0.038-0.017z"></path>
</svg>
