<!-- Generated by IcoMoon.io -->
<svg version="1.1" xmlns="http://www.w3.org/2000/svg" width="41" height="32" viewBox="0 0 41 32">
<path d="M11.646 0.839c0.102-0.106 0.249-0.157 0.395-0.138l0.089 0.012c0.057 0.007 0.109 0.035 0.146 0.079 0.069 0.080 0.183 0.103 0.278 0.057l0.28-0.137c0.125-0.061 0.275-0.028 0.363 0.079 0.041 0.050 0.097 0.085 0.159 0.101l0.167 0.041c0.056 0.014 0.114 0.007 0.166-0.019 0.072-0.037 0.121-0.108 0.129-0.19l0.019-0.197c0.011-0.117 0.078-0.221 0.179-0.281l0.005-0.003c0.15-0.088 0.342-0.055 0.455 0.077l0.028 0.033c0.028 0.033 0.065 0.056 0.106 0.068l0.042 0.012c0.051 0.015 0.091 0.056 0.102 0.108 0.014 0.065 0.071 0.113 0.138 0.114l0.336 0.007c0.11 0.002 0.2 0.087 0.21 0.196 0.010 0.114 0.108 0.201 0.223 0.196l0.027-0.001c0.109-0.004 0.207 0.064 0.241 0.167l0.027 0.083c0.006 0.019 0.018 0.035 0.034 0.047l0.044 0.032c0.041 0.030 0.1 0.003 0.103-0.048 0.002-0.026 0.018-0.048 0.042-0.057l0.225-0.084c0.044-0.016 0.091-0.018 0.136-0.004l0.067 0.020c0.025 0.008 0.044 0.027 0.052 0.052 0.021 0.065 0.109 0.075 0.143 0.016l0.039-0.066c0.039-0.065 0.129-0.075 0.181-0.020l0.055 0.059c0.066 0.071 0.178 0.073 0.248 0.007l0.011-0.010c0.024-0.023 0.054-0.039 0.087-0.047l0.153-0.036c0.124-0.030 0.253-0.028 0.377 0.005l1.406 0.374c0.071 0.019 0.139 0.051 0.198 0.094l0.075 0.054c0.067 0.048 0.149 0.071 0.231 0.065 0.072-0.005 0.14-0.032 0.197-0.077l0.178-0.143c0.089-0.071 0.189-0.128 0.296-0.169l0.403-0.152c0.035-0.013 0.063-0.038 0.079-0.071 0.025-0.050 0.019-0.11-0.015-0.154l-0.003-0.003c-0.025-0.032-0.062-0.053-0.103-0.058l-0.188-0.022c-0.036-0.004-0.067-0.028-0.079-0.063-0.018-0.049 0.006-0.103 0.054-0.123l0.588-0.239c0.042-0.017 0.086-0.026 0.131-0.026h0.035c0.072 0 0.142 0.030 0.192 0.082 0.111 0.116 0.297 0.108 0.398-0.016l0.056-0.068c0.115-0.141 0.32-0.168 0.467-0.062l0.592 0.427c0.022 0.016 0.033 0.043 0.027 0.070-0.013 0.060 0.053 0.105 0.104 0.072l0.228-0.149c0.048-0.031 0.108-0.038 0.162-0.018l0.199 0.075c0.095 0.036 0.129 0.154 0.067 0.235l-0.017 0.022c-0.039 0.050-0.032 0.122 0.015 0.165 0.045 0.041 0.112 0.043 0.159 0.005l0.066-0.053c0.048-0.039 0.078-0.096 0.082-0.158l0.002-0.037c0.007-0.112 0.076-0.211 0.178-0.258l0.344-0.159c0.078-0.036 0.164-0.048 0.248-0.035l0.109 0.017c0.065 0.010 0.132-0.011 0.179-0.057 0.077-0.074 0.197-0.080 0.28-0.013l0.083 0.067c0.070 0.057 0.115 0.14 0.122 0.23l0.064 0.732c0.034 0.391 0.228 0.75 0.536 0.992l0.95 0.748c0.043 0.034 0.053 0.095 0.023 0.141-0.028 0.042-0.022 0.098 0.014 0.133l0.179 0.177c0.079 0.079 0.106 0.196 0.069 0.301s-0.010 0.224 0.070 0.303l0.015 0.014 0.289 0.241c0.101 0.084 0.224 0.138 0.354 0.154l0.108 0.014c0.247 0.032 0.442 0.226 0.475 0.473l0.027 0.205c0.003 0.022 0.015 0.043 0.034 0.056l0.033 0.023c0.032 0.022 0.076 0.005 0.084-0.033 0.006-0.029 0.035-0.048 0.064-0.042l0.115 0.025c0.040 0.009 0.076 0.032 0.101 0.065l0.061 0.082c0.094 0.126 0.115 0.292 0.054 0.437l-0.011 0.026c-0.023 0.055-0.056 0.105-0.097 0.149l-0.272 0.288c-0.059 0.063-0.059 0.161 0.002 0.223 0.041 0.042 0.056 0.104 0.038 0.16l-0.022 0.070c-0.022 0.070-0.016 0.145 0.016 0.21l0.091 0.184c0.031 0.064 0.078 0.119 0.136 0.16l0.133 0.094c0.059 0.042 0.137 0.045 0.199 0.007 0.056-0.034 0.125-0.035 0.182-0.004l0.308 0.17c0.058 0.032 0.129 0.035 0.189 0.007l0.088-0.041c0.035-0.016 0.078-0.007 0.102 0.024 0.033 0.041 0.095 0.042 0.13 0.003l0.066-0.075c0.022-0.025 0.059-0.031 0.087-0.014l0.013 0.007c0.023 0.013 0.032 0.041 0.022 0.065-0.014 0.033 0.009 0.070 0.045 0.073l0.068 0.005c0.058 0.004 0.108-0.042 0.108-0.1l0.002-0.317c0.001-0.141 0.076-0.272 0.198-0.343l0.134-0.078c0.036-0.021 0.080-0.024 0.119-0.008l0.055 0.023c0.038 0.016 0.056 0.059 0.040 0.097-0.023 0.056 0.027 0.115 0.086 0.101l0.494-0.116c0.027-0.006 0.049-0.025 0.060-0.050 0.015-0.034 0.049-0.055 0.086-0.052l0.251 0.017c0.053 0.004 0.105-0.014 0.145-0.048 0.047-0.040 0.109-0.056 0.169-0.045l0.685 0.131c0.17 0.032 0.273 0.207 0.219 0.371-0.011 0.035-0.016 0.072-0.014 0.109l0.020 0.296c0.007 0.103 0.044 0.201 0.107 0.283 0.147 0.19 0.144 0.456-0.005 0.644l-0.596 0.75c-0.25 0.315-0.318 0.738-0.178 1.115l0.080 0.214c0.011 0.029 0.028 0.054 0.050 0.075l0.002 0.002c0.047 0.043 0.113 0.060 0.175 0.044 0.085-0.022 0.174 0.018 0.214 0.095l0.185 0.355c0.042 0.080 0.1 0.15 0.171 0.206l0.153 0.12c0.047 0.037 0.108 0.052 0.167 0.040 0.070-0.014 0.143 0.010 0.191 0.063l0.015 0.016c0.092 0.099 0.246 0.106 0.346 0.017l0.024-0.021c0.046-0.041 0.105-0.063 0.166-0.061 0.099 0.003 0.186 0.065 0.219 0.157l0.035 0.096c0.049 0.134 0.167 0.23 0.308 0.252l0.336 0.051c0.058 0.009 0.117 0.002 0.172-0.020 0.091-0.037 0.194-0.031 0.28 0.017l0.583 0.326c0.095 0.053 0.159 0.147 0.173 0.255l0.022 0.166c0.008 0.064-0.029 0.125-0.090 0.147-0.074 0.027-0.111 0.11-0.080 0.183l0.038 0.089c0.013 0.031 0.020 0.064 0.018 0.098l-0.014 0.405c-0.003 0.102 0.034 0.202 0.105 0.276l0.024 0.026c0.046 0.048 0.107 0.079 0.173 0.086l0.081 0.009c0.081 0.009 0.145 0.072 0.157 0.153l0.009 0.063c0.005 0.032-0.011 0.064-0.038 0.080l-0.036 0.022c-0.040 0.024-0.037 0.083 0.006 0.103 0.031 0.015 0.043 0.053 0.026 0.082l-0.047 0.081c-0.041 0.071-0.015 0.162 0.057 0.2l0.121 0.064c0.031 0.017 0.066 0.027 0.101 0.031l0.544 0.058c0.099 0.011 0.19 0.057 0.257 0.13 0.090 0.099 0.224 0.148 0.357 0.129l0.542-0.078c0.089-0.013 0.158 0.075 0.126 0.159-0.015 0.039-0.009 0.082 0.017 0.115l0.15 0.191c0.031 0.039 0.056 0.083 0.075 0.129l0.208 0.51c0.129 0.317-0.060 0.673-0.395 0.743l-0.201 0.042c-0.023 0.005-0.042 0.019-0.054 0.039-0.029 0.048-0.001 0.111 0.054 0.122l0.060 0.013c0.057 0.012 0.098 0.061 0.1 0.119l0.004 0.124c0.004 0.118 0.081 0.222 0.193 0.26l0.273 0.092c0.118 0.040 0.194 0.154 0.184 0.278-0.012 0.161-0.161 0.277-0.321 0.248l-1.036-0.19c-0.223-0.041-0.441 0.093-0.505 0.31l-0.038 0.126c-0.048 0.161 0.041 0.33 0.2 0.382 0.149 0.049 0.238 0.202 0.207 0.357l-0.072 0.345c-0.015 0.073 0.024 0.147 0.094 0.174 0.097 0.039 0.129 0.162 0.061 0.242l-0.816 0.975c-0.104 0.124-0.144 0.29-0.109 0.448l0.021 0.093c0.011 0.051 0.006 0.104-0.016 0.152l-0.010 0.020c-0.054 0.116-0.195 0.161-0.306 0.097l-0.204-0.118c-0.037-0.022-0.041-0.074-0.006-0.101 0.032-0.024 0.031-0.073-0.001-0.097-0.012-0.009-0.028-0.014-0.044-0.012l-0.78 0.087c-0.122 0.014-0.245-0.002-0.359-0.045l-0.039-0.015c-0.076-0.028-0.157-0.041-0.237-0.036l-0.102 0.006c-0.142 0.008-0.278-0.059-0.357-0.178-0.040-0.060-0.095-0.108-0.16-0.139l-0.245-0.118c-0.065-0.031-0.143-0.024-0.201 0.019-0.030 0.022-0.052 0.052-0.066 0.086l-0.314 0.798c-0.116 0.296-0.136 0.621-0.057 0.929l0.305 1.186c0.005 0.021-0.005 0.042-0.024 0.051-0.029 0.013-0.062-0.007-0.062-0.039l-0.001-0.077c-0.001-0.027-0.012-0.052-0.033-0.070l-0.507-0.437c-0.096-0.083-0.236-0.090-0.341-0.018-0.050 0.035-0.088 0.085-0.107 0.143l-0.082 0.254c-0.021 0.064-0.063 0.118-0.121 0.153-0.084 0.051-0.188 0.055-0.275 0.009l-0.188-0.098c-0.033-0.017-0.049-0.055-0.039-0.090s0.045-0.060 0.082-0.056l0.133 0.012c0.036 0.003 0.070-0.013 0.090-0.043 0.037-0.055 0.010-0.131-0.054-0.15l-0.246-0.072c-0.028-0.008-0.051-0.028-0.064-0.055-0.019-0.041-0.063-0.064-0.107-0.058l-0.282 0.040c-0.043 0.006-0.069 0.052-0.051 0.092 0.012 0.027 0.004 0.060-0.020 0.079l-0.051 0.040c-0.043 0.034-0.101 0.041-0.151 0.020l-0.138-0.059c-0.065-0.027-0.138-0.026-0.202 0.004-0.084 0.040-0.139 0.125-0.14 0.218l-0.002 0.137c-0.002 0.116-0.106 0.203-0.22 0.185-0.045-0.007-0.090 0.002-0.129 0.025l-0.272 0.165c-0.040 0.025-0.089 0.032-0.135 0.020-0.069-0.017-0.141 0.008-0.184 0.065l-0.072 0.094c-0.025 0.034-0.062 0.056-0.103 0.064-0.060 0.011-0.121-0.011-0.16-0.057l-0.006-0.007c-0.046-0.054-0.118-0.077-0.186-0.059l-0.074 0.019c-0.057 0.015-0.108 0.045-0.148 0.089l-0.095 0.103c-0.030 0.032-0.072 0.049-0.115 0.046l-0.019-0.001c-0.076-0.005-0.139 0.057-0.135 0.133l0.003 0.049c0.003 0.063-0.057 0.111-0.118 0.093-0.043-0.013-0.088 0.007-0.108 0.047l-0.052 0.103c-0.025 0.050-0.031 0.108-0.017 0.162l0.022 0.083c0.025 0.095-0.020 0.194-0.108 0.238-0.065 0.032-0.141 0.028-0.202-0.011l-0.209-0.133c-0.068-0.043-0.155-0.041-0.22 0.006-0.069 0.049-0.162 0.049-0.231-0.001l-0.066-0.049c-0.043-0.032-0.103-0.030-0.145 0.004s-0.099 0.035-0.142 0.006l-0.19-0.131c-0.16-0.11-0.37 0.035-0.325 0.223 0.021 0.090-0.018 0.183-0.097 0.23l-0.317 0.19c-0.107 0.065-0.192 0.162-0.24 0.277l-0.027 0.063c-0.018 0.043-0.046 0.081-0.081 0.112l-0.075 0.064c-0.097 0.083-0.099 0.232-0.006 0.318 0.078 0.071 0.091 0.189 0.032 0.276l-0.273 0.403c-0.061 0.091-0.103 0.193-0.122 0.301l-0.087 0.494c-0.013 0.075-0.004 0.153 0.026 0.223 0.029 0.067 0.076 0.124 0.136 0.166l0.142 0.098c0.052 0.036 0.082 0.096 0.080 0.159l-0.004 0.094c-0.002 0.042 0.029 0.078 0.070 0.084s0.072 0.042 0.071 0.084l-0.001 0.018c-0.002 0.050-0.041 0.092-0.091 0.097l-0.087 0.008c-0.057 0.006-0.102 0.051-0.108 0.108l-0.003 0.026c-0.003 0.031 0.013 0.062 0.040 0.077 0.069 0.039 0.046 0.143-0.033 0.149l-0.213 0.017c-0.079 0.006-0.138 0.075-0.133 0.154l0.016 0.225c0.008 0.117 0.127 0.193 0.236 0.151l0.025-0.009c0.039-0.015 0.082-0.009 0.116 0.015 0.064 0.046 0.071 0.138 0.013 0.192l-0.12 0.113c-0.063 0.059-0.092 0.146-0.078 0.232l0.030 0.178c0.005 0.026-0.001 0.054-0.016 0.076l-0.107 0.168c-0.032 0.050-0.11 0.025-0.106-0.035 0.001-0.020-0.007-0.038-0.023-0.050l-0.047-0.035c-0.028-0.021-0.062-0.033-0.097-0.033l-0.156-0.002c-0.13-0.002-0.255-0.053-0.35-0.142-0.064-0.060-0.141-0.103-0.225-0.125l-0.116-0.030c-0.080-0.021-0.154-0.063-0.214-0.121l-0.084-0.082c-0.069-0.067-0.168-0.094-0.262-0.069-0.057 0.015-0.117 0.012-0.171-0.010l-0.109-0.043c-0.061-0.024-0.112-0.067-0.147-0.122-0.042-0.066-0.057-0.144-0.044-0.221l0.034-0.191c0.007-0.041 0-0.084-0.020-0.12-0.028-0.050-0.079-0.084-0.136-0.091l-0.313-0.036c-0.136-0.016-0.265-0.066-0.376-0.145l-0.124-0.089c-0.063-0.045-0.114-0.104-0.15-0.172-0.089-0.167-0.266-0.271-0.455-0.267-0.066 0.001-0.133-0.011-0.194-0.035l-0.239-0.093c-0.203-0.079-0.39-0.195-0.552-0.341l-0.059-0.053c-0.088-0.079-0.183-0.152-0.282-0.216l-0.502-0.325c-0.181-0.117-0.383-0.201-0.594-0.246l-0.171-0.037c-0.108-0.023-0.219-0.025-0.327-0.007l-0.065 0.011c-0.203 0.034-0.412-0.020-0.572-0.149l-0.034-0.027c-0.044-0.035-0.081-0.078-0.11-0.126l-0.091-0.152c-0.055-0.090-0.162-0.134-0.264-0.108l-0.031 0.008c-0.076 0.019-0.132 0.082-0.143 0.16-0.007 0.048-0.031 0.092-0.069 0.123l-0.28 0.228c-0.033 0.027-0.028 0.079 0.010 0.099 0.032 0.017 0.042 0.057 0.021 0.087l-0.135 0.196c-0.025 0.037-0.066 0.061-0.111 0.066l-0.2 0.022c-0.026 0.003-0.040 0.033-0.025 0.055 0.016 0.024-0.002 0.056-0.031 0.055l-0.147-0.007c-0.042-0.002-0.079-0.028-0.095-0.067l-0.026-0.061c-0.043-0.104-0.16-0.156-0.267-0.12l-0.178 0.061c-0.18 0.062-0.365-0.078-0.354-0.268l0.008-0.139c0.003-0.048-0.029-0.091-0.076-0.103l-0.432-0.051c-0.014-0.002-0.028 0.004-0.036 0.015l-0.017 0.020c-0.018 0.021-0.053 0.010-0.055-0.018-0.001-0.016-0.015-0.029-0.031-0.029l-0.081 0.001c-0.057 0.001-0.105 0.043-0.113 0.1l-0.009 0.067c-0.020 0.147-0.19 0.219-0.309 0.13l-0.205-0.152c-0.073-0.054-0.164-0.077-0.254-0.064l-0.187 0.028c-0.032 0.005-0.064-0.011-0.079-0.040-0.022-0.041-0.002-0.092 0.042-0.108l0.007-0.003c0.047-0.017 0.069-0.070 0.047-0.115l-0.192-0.4c-0.070-0.146-0.042-0.32 0.070-0.436s0.14-0.289 0.071-0.435l-0.023-0.049c-0.025-0.053-0.032-0.113-0.019-0.17l0.008-0.034c0.017-0.076-0.010-0.155-0.070-0.204l-0.080-0.065c-0.021-0.017-0.028-0.045-0.019-0.070 0.014-0.036-0.008-0.075-0.046-0.082l-0.188-0.036c-0.022-0.004-0.043-0.014-0.060-0.029-0.075-0.065-0.050-0.187 0.044-0.218l0.011-0.004c0.037-0.012 0.067-0.040 0.082-0.076l0.042-0.102c0.051-0.124 0.018-0.267-0.083-0.356l-0.121-0.106c-0.018-0.015-0.042-0.019-0.064-0.010-0.037 0.016-0.078-0.008-0.084-0.047l-0.018-0.136c-0.004-0.031-0.017-0.061-0.038-0.085l-0.182-0.212c-0.011-0.013-0.027-0.019-0.044-0.016-0.028 0.005-0.046 0.033-0.038 0.061l0.080 0.254c0.008 0.026 0.013 0.054 0.013 0.082l0.005 0.72c0.001 0.201-0.153 0.368-0.354 0.384l-0.051 0.004c-0.077 0.006-0.152-0.021-0.207-0.075l-0.028-0.027c-0.044-0.043-0.106-0.062-0.167-0.051-0.111 0.019-0.215-0.061-0.224-0.174l-0.022-0.27c-0.004-0.050-0.021-0.098-0.049-0.14l-0.022-0.033c-0.043-0.064-0.049-0.146-0.018-0.216s0.025-0.152-0.018-0.217l-0.193-0.289c-0.151-0.227-0.402-0.367-0.674-0.378l-0.283-0.012c-0.118-0.005-0.227-0.060-0.301-0.152l-0.026-0.033c-0.050-0.063-0.124-0.104-0.204-0.113l-0.023-0.002c-0.074-0.008-0.141-0.049-0.183-0.111-0.034-0.051-0.049-0.112-0.042-0.173l0.022-0.191c0.007-0.063-0.017-0.127-0.065-0.169-0.056-0.049-0.134-0.061-0.202-0.033l-0.253 0.105c-0.098 0.041-0.205 0.056-0.31 0.045l-0.126-0.013c-0.122-0.013-0.242-0.046-0.354-0.097l-0.068-0.031c-0.107-0.049-0.222-0.080-0.339-0.092l-0.125-0.012c-0.113-0.011-0.227 0.009-0.329 0.059l-0.216 0.105c-0.148 0.072-0.326 0.025-0.419-0.109-0.037-0.054-0.090-0.095-0.15-0.119l-0.064-0.026c-0.105-0.042-0.219-0.051-0.329-0.027l-0.414 0.091c-0.094 0.020-0.192-0.001-0.268-0.059l-0.097-0.073c-0.050-0.038-0.117-0.041-0.17-0.008-0.072 0.045-0.168 0.021-0.21-0.053l-0.101-0.176c-0.040-0.070-0.104-0.124-0.18-0.152l-0.071-0.027c-0.087-0.033-0.164-0.088-0.223-0.16-0.065-0.080-0.152-0.139-0.25-0.169l-0.232-0.072c-0.066-0.021-0.128-0.053-0.181-0.096l-0.32-0.255c-0.040-0.032-0.050-0.089-0.022-0.132l0.027-0.042c0.029-0.046-0.002-0.106-0.056-0.109-0.030-0.002-0.056-0.023-0.064-0.052l-0.001-0.004c-0.008-0.029 0.001-0.059 0.023-0.079l0.107-0.095c0.035-0.031 0.062-0.069 0.079-0.111l0.151-0.362c0.083-0.199 0.347-0.239 0.485-0.074 0.047 0.057 0.115 0.093 0.188 0.101l0.329 0.037c0.143 0.016 0.282 0.059 0.408 0.128l0.341 0.185c0.102 0.056 0.216 0.086 0.333 0.090l0.576 0.017c0.138 0.004 0.25-0.113 0.238-0.252-0.006-0.066-0.039-0.126-0.093-0.166l-0.106-0.079c-0.051-0.038-0.114-0.058-0.178-0.055-0.103 0.004-0.199-0.049-0.252-0.137l-0.017-0.029c-0.038-0.063-0.054-0.136-0.046-0.209l0.020-0.186c0.008-0.076-0.028-0.15-0.092-0.191l-0.038-0.024c-0.099-0.063-0.106-0.204-0.013-0.277 0.039-0.031 0.063-0.078 0.065-0.127l0.018-0.502c0.006-0.161 0.135-0.289 0.296-0.295 0.075-0.002 0.147-0.033 0.201-0.084l0.131-0.125c0.159-0.151 0.247-0.363 0.242-0.582l-0.009-0.428c-0-0.021 0.008-0.042 0.023-0.057 0.035-0.034 0.030-0.092-0.011-0.12l-0.47-0.324c-0.075-0.051-0.085-0.158-0.021-0.223 0.038-0.039 0.052-0.095 0.035-0.147l-0.132-0.413c-0.012-0.037-0.008-0.078 0.012-0.112 0.047-0.081 0.002-0.184-0.089-0.205l-0.050-0.011c-0.041-0.009-0.077-0.032-0.102-0.065l-0.094-0.125c-0.073-0.096-0.172-0.168-0.286-0.207l-0.282-0.096c-0.352-0.12-0.591-0.449-0.598-0.821l-0.002-0.1c-0.002-0.093-0.028-0.183-0.077-0.262l-0.025-0.040c-0.066-0.107-0.176-0.179-0.3-0.195l-0.046-0.006c-0.137-0.018-0.25-0.118-0.288-0.251-0.051-0.179-0.234-0.287-0.415-0.242-0.171 0.043-0.347-0.051-0.407-0.218l-0.033-0.093c-0.017-0.049-0.043-0.094-0.075-0.134l-0.603-0.739c-0.045-0.056-0.039-0.137 0.015-0.185l0.016-0.014c0.048-0.042 0.121-0.037 0.162 0.012 0.035 0.043 0.097 0.053 0.144 0.025l0.078-0.046c0.115-0.068 0.139-0.225 0.050-0.324-0.042-0.047-0.062-0.11-0.053-0.172l0.037-0.255c0.003-0.020 0.016-0.037 0.035-0.045 0.040-0.016 0.049-0.068 0.016-0.096l-0.031-0.026c-0.023-0.020-0.033-0.051-0.026-0.080l0.035-0.15c0.033-0.14-0.027-0.286-0.15-0.361l-0.137-0.085c-0.134-0.083-0.226-0.219-0.255-0.373l-0.108-0.575c-0.011-0.058-0.057-0.103-0.116-0.112-0.077-0.012-0.129-0.084-0.116-0.161l0.002-0.010c0.008-0.049-0.011-0.099-0.051-0.13-0.072-0.055-0.177-0.025-0.208 0.060l-0.032 0.087c-0.014 0.038-0.048 0.066-0.089 0.071-0.037 0.005-0.075-0.009-0.099-0.038l-0.511-0.607c-0.059-0.071-0.065-0.172-0.013-0.248l0.036-0.053c0.034-0.051 0.028-0.119-0.015-0.163-0.071-0.072-0.036-0.194 0.063-0.216l0.179-0.041c0.118-0.027 0.195-0.141 0.177-0.26l-0.006-0.039c-0.017-0.106-0.094-0.193-0.197-0.221l-1.034-0.287c-0.157-0.044-0.287-0.156-0.353-0.305-0.037-0.085-0.096-0.159-0.17-0.215l-0.376-0.284c-0.057-0.043-0.069-0.123-0.028-0.181l0.009-0.013c0.036-0.050 0.025-0.119-0.023-0.157-0.005-0.004-0.010-0.008-0.014-0.013l-0.098-0.105c-0.13-0.141-0.176-0.34-0.119-0.523l0.081-0.261c0.006-0.020 0.001-0.042-0.013-0.057-0.025-0.027-0.019-0.070 0.012-0.089l0.319-0.204c0.065-0.041 0.083-0.128 0.041-0.192-0.032-0.048-0.030-0.11 0.004-0.157l0.158-0.216c0.026-0.035 0.031-0.081 0.015-0.121-0.030-0.072 0.013-0.153 0.089-0.17l0.642-0.137c0.042-0.009 0.085 0.005 0.114 0.037l0.019 0.022c0.032 0.035 0.086 0.040 0.123 0.010 0.031-0.025 0.076-0.027 0.108-0.003l0.017 0.012c0.059 0.042 0.142 0.021 0.173-0.044l0.041-0.085c0.018-0.037 0.015-0.081-0.007-0.115-0.043-0.068-0.008-0.158 0.070-0.179l0.137-0.037c0.086-0.023 0.151-0.095 0.164-0.184l0.001-0.009c0.012-0.082 0.065-0.151 0.141-0.184l0.085-0.037c0.077-0.033 0.113-0.122 0.081-0.2-0.019-0.046-0.014-0.098 0.012-0.14l0.002-0.004c0.027-0.043 0.073-0.072 0.124-0.076l0.28-0.025c0.088-0.008 0.167 0.050 0.187 0.136 0.012 0.052 0.047 0.097 0.096 0.12l0.14 0.067c0.033 0.016 0.073 0.010 0.101-0.014s0.066-0.030 0.1-0.015l0.358 0.163c0.055 0.025 0.115 0.038 0.175 0.036l0.111-0.002c0.191-0.003 0.339 0.165 0.313 0.354-0.014 0.1 0.021 0.2 0.095 0.27l0.087 0.081c0.155 0.145 0.386 0.172 0.57 0.065 0.083-0.048 0.178-0.070 0.274-0.064l0.559 0.039c0.064 0.004 0.121-0.039 0.133-0.102 0.010-0.054 0.054-0.095 0.108-0.102l0.249-0.032c0.063-0.008 0.117 0.043 0.112 0.107-0.004 0.058 0.041 0.107 0.1 0.107h0.666c0.016 0 0.031 0.009 0.037 0.024 0.013 0.030 0.054 0.033 0.072 0.005l0.005-0.007c0.016-0.025 0.051-0.028 0.071-0.007l0.082 0.086c0.024 0.026 0.066 0.025 0.089-0.002 0.018-0.020 0.046-0.026 0.070-0.015l0.135 0.062c0.042 0.019 0.091 0.006 0.119-0.030 0.035-0.046 0.022-0.112-0.028-0.142l-0.003-0.002c-0.039-0.023-0.057-0.069-0.046-0.112l0.002-0.009c0.012-0.046 0.052-0.080 0.1-0.085l0.331-0.032c0.095-0.009 0.186-0.041 0.266-0.093l0.72-0.469c0.060-0.039 0.091-0.109 0.080-0.179l-0.004-0.025c-0.012-0.074 0.033-0.146 0.105-0.168l0.12-0.037c0.042-0.013 0.059-0.064 0.032-0.099-0.020-0.027-0.016-0.065 0.009-0.087l0.075-0.065c0.028-0.025 0.066-0.035 0.102-0.030 0.064 0.010 0.125-0.030 0.142-0.093l0.032-0.125c0.008-0.030 0.029-0.054 0.058-0.065 0.047-0.018 0.072-0.070 0.057-0.118-0.020-0.064 0.029-0.128 0.096-0.126l0.165 0.006c0.102 0.004 0.192-0.065 0.216-0.163l0.049-0.2c0.021-0.088 0.096-0.152 0.185-0.162 0.050-0.005 0.096-0.028 0.131-0.064l0.077-0.079z"></path>
</svg>
