<!-- Generated by IcoMoon.io -->
<svg version="1.1" xmlns="http://www.w3.org/2000/svg" width="610" height="32" viewBox="0 0 610 32">
<path fill="#2969f6" d="M29.793 7.882l-12.205 6.606c-2.319 1.255-5.176 0.927-7.15-0.821-4.050-3.588-10.438-0.712-10.438 4.699v2.195c0 3.42 2.385 6.377 5.727 7.1l7.509 1.626c3.523 0.763 7.205 0.168 10.309-1.665l8.788-5.189c4.326-2.555 9.675-2.654 14.094-0.263l8.73 4.725c4.138 2.24 9.113 2.303 13.307 0.169l6.759-3.439c3.734-1.9 8.112-2.069 11.982-0.463l11.041 4.584c4.139 1.718 8.842 1.399 12.711-0.861l2.679-1.565c4.881-2.852 10.984-2.564 15.575 0.734l3.695 2.655c4.866 3.496 11.394 3.591 16.36 0.24l5.624-3.796c4.158-2.806 9.483-3.231 14.034-1.12l5.861 2.72c4.915 2.28 10.696 1.591 14.936-1.782l1.795-1.427c5.145-4.093 12.417-4.154 17.631-0.15l0.646 0.496c5.073 3.896 12.116 3.954 17.252 0.141l1.774-1.317c4.937-3.665 11.664-3.768 16.711-0.256l3.303 2.299c4.934 3.433 11.486 3.42 16.405-0.035l6.248-4.388c5.137-3.607 12.027-3.435 16.978 0.424 4.424 3.448 10.456 3.986 15.419 1.376l3.786-1.991c4.235-2.227 9.301-2.191 13.504 0.095l4.123 2.243c4.484 2.439 9.927 2.306 14.286-0.349l5.476-3.335c4.573-2.785 10.318-2.785 14.892 0l5.355 3.261c4.424 2.694 9.96 2.788 14.472 0.245l2.574-1.45c4.66-2.626 10.397-2.434 14.871 0.497l5.272 3.453c5.166 3.384 11.922 3.073 16.755-0.772l1.272-1.011c4.834-3.845 11.588-4.156 16.755-0.772l5.004 3.278c4.615 3.022 10.554 3.125 15.27 0.264l2.68-1.626c3.684-2.235 8.179-2.692 12.238-1.244l3.005 1.072c4.278 1.527 9.027 0.933 12.797-1.6l4.714-3.168c4.522-3.038 10.376-3.247 15.103-0.538l5.335 3.058c4.897 2.807 11.027 2.246 15.334-1.403s10.436-4.209 15.334-1.403l6.232 3.572c4.248 2.435 9.448 2.53 13.781 0.25l5.949-3.128c3.688-1.939 8.039-2.176 11.915-0.647l11.702 4.615c4.226 1.667 9.044 0.314 11.786-3.308l2.157-2.851c2.461-3.252 1.576-7.918-1.907-10.041l-1.085-0.662c-2.205-1.344-5.054-0.926-6.779 0.995-1.849 2.059-4.962 2.372-7.184 0.723l-6.392-4.745c-4.991-3.705-11.818-3.705-16.808 0l-3.004 2.23c-4.461 3.311-10.434 3.743-15.324 1.108l-3.898-2.1c-4.584-2.47-10.147-2.256-14.528 0.558l-1.309 0.841c-4.753 3.053-10.856 3.026-15.581-0.069l-4.942-3.237c-5.091-3.335-11.736-3.086-16.563 0.621l-2.833 2.175c-4.318 3.317-10.254 3.566-14.836 0.622-5.032-3.232-11.625-2.585-15.931 1.565l-0.499 0.481c-4.837 4.662-12.331 5.156-17.739 1.171l-4.755-3.503c-4.351-3.206-10.136-3.689-14.957-1.248l-5.821 2.947c-4.308 2.181-9.426 2.043-13.61-0.368l-4.115-2.37c-4.491-2.586-10.029-2.544-14.479 0.111l-3.394 2.024c-4.269 2.546-9.552 2.696-13.959 0.397l-6.25-3.263c-4.151-2.166-9.098-2.166-13.249 0l-6.377 3.329c-4.338 2.264-9.53 2.156-13.77-0.286l-4.261-2.454c-4.358-2.51-9.715-2.549-14.109-0.103l-3.991 2.222c-4.692 2.612-10.451 2.379-14.917-0.604l-1.72-1.149c-4.108-2.745-9.341-3.177-13.843-1.144l-7.552 3.409c-5.061 2.285-10.986 1.437-15.203-2.175l-1.365-1.169c-4.733-4.054-11.544-4.581-16.844-1.302l-6.293 3.893c-4.477 2.77-10.115 2.859-14.677 0.231l-2.927-1.686c-4.747-2.734-10.637-2.52-15.172 0.551l-6.779 4.591c-5.16 3.494-12.075 2.831-16.477-1.58-4.589-4.6-11.873-5.1-17.048-1.171l-3.665 2.782c-4.747 3.604-11.229 3.89-16.275 0.718l-2.784-1.75c-4.938-3.104-11.267-2.902-15.997 0.512l-1.91 1.379c-4.363 3.149-10.123 3.585-14.911 1.13l-8.655-4.439c-4.496-2.305-9.874-2.070-14.151 0.618l-5.782 3.634c-4.147 2.607-9.34 2.912-13.764 0.81l-11.909-5.66c-4.127-1.961-8.942-1.835-12.96 0.34z"></path>
</svg>
