<!-- Generated by IcoMoon.io -->
<svg version="1.1" xmlns="http://www.w3.org/2000/svg" width="450" height="32" viewBox="0 0 450 32">
<path fill="#2969f6" d="M30.598 7.23l-12.534 6.785c-2.382 1.289-5.316 0.952-7.343-0.844-4.16-3.684-10.721-0.731-10.721 4.826v2.255c0 3.512 2.45 6.549 5.882 7.292l7.712 1.67c3.619 0.783 7.399 0.173 10.587-1.709l9.025-5.33c4.443-2.624 9.937-2.726 14.475-0.27l8.966 4.853c4.25 2.301 9.36 2.366 13.667 0.174l6.942-3.532c3.835-1.951 8.332-2.125 12.306-0.476l11.339 4.708c4.251 1.764 9.081 1.437 13.054-0.884l2.751-1.607c5.013-2.929 11.28-2.634 15.996 0.754l3.795 2.726c4.997 3.59 11.702 3.689 16.803 0.246l5.776-3.898c4.271-2.882 9.739-3.319 14.413-1.15l6.019 2.793c5.047 2.342 10.986 1.634 15.34-1.83l1.843-1.466c5.284-4.203 12.752-4.267 18.108-0.154l0.663 0.509c5.21 4.001 12.444 4.060 17.719 0.144l1.822-1.353c5.071-3.764 11.979-3.87 17.162-0.262l3.392 2.361c5.067 3.526 11.797 3.512 16.848-0.036l6.417-4.506c5.276-3.705 12.352-3.528 17.437 0.435 4.543 3.541 10.738 4.094 15.836 1.413l3.889-2.045c4.349-2.287 9.552-2.25 13.868 0.098l4.234 2.303c4.605 2.505 10.195 2.369 14.672-0.358l5.624-3.425c4.697-2.86 10.597-2.86 15.294 0l5.5 3.349c4.544 2.767 10.229 2.864 14.864 0.252l2.644-1.489c4.786-2.697 10.678-2.5 15.273 0.511l5.415 3.546c5.306 3.476 12.244 3.156 17.208-0.792l1.306-1.039c4.964-3.949 11.901-4.268 17.208-0.792l5.139 3.366c4.739 3.104 10.839 3.209 15.683 0.271l4.936-2.994c2.403-1.458 5.334-1.756 7.982-0.811l1.963 0.701c5.123 1.829 10.512-1.97 10.512-7.41 0-2.678-1.362-5.172-3.615-6.62l-3.63-2.332c-5.519-3.545-12.75-2.835-17.473 1.716-4.968 4.788-12.664 5.296-18.218 1.203l-4.883-3.598c-4.469-3.293-10.409-3.788-15.362-1.282l-5.979 3.026c-4.425 2.24-9.68 2.098-13.978-0.378l-4.227-2.434c-4.612-2.656-10.3-2.613-14.87 0.114l-3.485 2.079c-4.384 2.615-9.81 2.769-14.336 0.407l-6.419-3.351c-4.263-2.225-9.344-2.225-13.607 0l-6.55 3.419c-4.455 2.325-9.788 2.214-14.142-0.293l-4.376-2.521c-4.476-2.578-9.977-2.618-14.49-0.105l-4.099 2.282c-4.819 2.683-10.734 2.443-15.32-0.621l-1.766-1.18c-4.219-2.819-9.593-3.263-14.217-1.175l-7.756 3.502c-5.198 2.346-11.283 1.476-15.614-2.234l-1.402-1.201c-4.861-4.164-11.856-4.704-17.299-1.337l-6.463 3.998c-4.599 2.845-10.388 2.936-15.074 0.237l-3.006-1.732c-4.875-2.808-10.924-2.588-15.582 0.566l-6.962 4.715c-5.3 3.589-12.401 2.907-16.922-1.623-4.714-4.724-12.194-5.238-17.508-1.202l-3.764 2.857c-4.875 3.701-11.533 3.995-16.715 0.738l-2.859-1.797c-5.072-3.188-11.571-2.98-16.429 0.526l-1.962 1.416c-4.481 3.234-10.397 3.682-15.314 1.161l-8.889-4.559c-4.617-2.368-10.14-2.126-14.534 0.635l-5.938 3.733c-4.259 2.678-9.592 2.991-14.136 0.831l-12.231-5.813c-4.238-2.014-9.184-1.885-13.31 0.349z"></path>
</svg>
