<!-- Generated by IcoMoon.io -->
<svg version="1.1" xmlns="http://www.w3.org/2000/svg" width="29" height="32" viewBox="0 0 29 32">
<path stroke-linejoin="round" stroke-linecap="round" stroke-miterlimit="4" stroke-width="0.3168" stroke="#000" fill="#000" d="M8.116 0.651c0.021 0.017 0.047 0.028 0.074 0.032l0.712 0.1c0.247 0.035 0.498-0.007 0.721-0.118l0.102-0.051c0.076-0.038 0.159-0.061 0.245-0.067l0.017-0.001c0.068-0.005 0.137 0.003 0.203 0.022l0.216 0.065c0.049 0.015 0.087 0.053 0.101 0.103 0.016 0.056 0.063 0.098 0.12 0.107l0.209 0.034c0.108 0.018 0.207 0.071 0.28 0.153l0.353 0.391c0.025 0.027 0.061 0.040 0.098 0.034l0.005-0.001c0.059-0.010 0.114 0.032 0.119 0.091s0.061 0.102 0.12 0.091l0.050-0.010c0.040-0.008 0.082 0.002 0.115 0.028 0.043 0.034 0.101 0.040 0.151 0.016l0.157-0.076c0.067-0.032 0.141-0.047 0.215-0.042l0.535 0.037c0.063 0.004 0.124 0.028 0.174 0.068 0.060 0.049 0.136 0.073 0.214 0.068l0.488-0.029c0.031-0.002 0.062-0.012 0.088-0.030 0.115-0.077 0.269 0.001 0.276 0.139l0.009 0.189c0.004 0.092 0.087 0.16 0.178 0.148 0.059-0.008 0.117 0.018 0.151 0.067l0.117 0.171c0.038 0.055 0.094 0.094 0.158 0.109l0.075 0.018c0.061 0.015 0.107 0.065 0.116 0.127 0.011 0.073 0.073 0.128 0.147 0.131l0.466 0.017c0.108 0.004 0.209-0.055 0.259-0.151 0.034-0.065 0.092-0.115 0.162-0.137l0.209-0.068c0.029-0.009 0.051-0.033 0.059-0.062 0.014-0.051 0.069-0.080 0.119-0.061l0.11 0.042c0.024 0.009 0.050 0.014 0.076 0.013l0.602-0.018c0.117-0.003 0.23 0.043 0.31 0.128 0.045 0.048 0.102 0.085 0.164 0.106l0.286 0.099c0.045 0.015 0.084 0.045 0.11 0.085 0.033 0.049 0.045 0.109 0.033 0.167l-0.003 0.014c-0.023 0.114 0.035 0.23 0.14 0.279l0.15 0.070c0.031 0.014 0.055 0.040 0.069 0.071 0.027 0.063 0.096 0.097 0.162 0.080l0.247-0.064c0.134-0.035 0.277-0.003 0.384 0.085l0.040 0.032c0.088 0.072 0.197 0.114 0.31 0.121l0.133 0.007c0.060 0.003 0.119 0.021 0.17 0.053 0.149 0.091 0.342 0.063 0.46-0.067l0.128-0.142c0.108-0.119 0.259-0.19 0.42-0.196l1.136-0.043c0.485-0.018 0.894 0.36 0.913 0.845l0.025 0.615c0.007 0.174 0.16 0.307 0.333 0.289l0.016-0.002c0.069-0.007 0.139 0.014 0.193 0.057 0.101 0.082 0.127 0.224 0.062 0.336l-0.167 0.287c-0.020 0.034-0.031 0.073-0.032 0.113-0.004 0.139 0.11 0.252 0.249 0.246l0.692-0.028c0.065-0.003 0.128-0.028 0.177-0.072 0.086-0.077 0.21-0.094 0.313-0.043l0.112 0.055c0.033 0.016 0.069 0.027 0.105 0.031l0.229 0.026c0.048 0.006 0.092-0.029 0.097-0.077 0.003-0.029 0.022-0.055 0.048-0.068l0.122-0.061c0.058-0.029 0.129-0.008 0.162 0.048l0.003 0.005c0.034 0.059 0.111 0.076 0.167 0.039l0.037-0.024c0.034-0.022 0.079-0.013 0.102 0.020 0.014 0.021 0.017 0.048 0.006 0.071l-0.023 0.052c-0.037 0.082-0.005 0.179 0.074 0.222l0.026 0.014c0.061 0.033 0.137 0.017 0.178-0.039l0.111-0.149c0.026-0.035-0.001-0.085-0.044-0.083-0.028 0.002-0.052-0.019-0.055-0.046l-0.029-0.278c-0.003-0.027 0.006-0.054 0.023-0.074 0.038-0.045 0.107-0.046 0.147-0.003l0.038 0.040c0.051 0.054 0.14 0.045 0.178-0.019 0.033-0.055 0.106-0.071 0.159-0.035l0.502 0.339c0.101 0.068 0.234 0.069 0.336 0.001 0.065-0.043 0.143-0.060 0.22-0.046l0.185 0.033c0.048 0.008 0.092 0.032 0.125 0.067 0.043 0.044 0.101 0.069 0.162 0.070l0.051 0.001c0.111 0.002 0.206 0.077 0.235 0.184 0.010 0.040 0.011 0.081 0.002 0.121l-0.030 0.128c-0.035 0.15-0.115 0.285-0.228 0.389l-0.174 0.16c-0.060 0.055-0.097 0.131-0.104 0.213l-0.010 0.134c-0.003 0.039-0.027 0.072-0.063 0.087-0.046 0.019-0.072 0.069-0.061 0.118l0.014 0.065c0.016 0.071-0.051 0.132-0.121 0.11-0.036-0.011-0.075-0-0.1 0.028l-0.15 0.174c-0.061 0.070-0.145 0.116-0.237 0.13-0.193 0.028-0.334 0.195-0.331 0.39l0.007 0.346c0.001 0.066 0.055 0.118 0.121 0.118 0.052 0 0.098 0.033 0.114 0.082l0.050 0.149c0.037 0.11-0.044 0.225-0.16 0.226-0.062 0.001-0.119-0.032-0.15-0.086l-0.042-0.074c-0.026-0.045-0.062-0.083-0.106-0.11l-0.286-0.18c-0.060-0.038-0.092-0.107-0.082-0.177l0.005-0.037c0.013-0.091-0.059-0.172-0.151-0.169-0.073 0.002-0.134 0.058-0.142 0.131l-0.11 0.948c-0.012 0.101 0.043 0.198 0.136 0.24 0.083 0.037 0.136 0.119 0.138 0.209l0.002 0.137c0.001 0.094-0.027 0.186-0.080 0.263l-0.113 0.162c-0.057 0.082-0.144 0.139-0.243 0.159-0.228 0.045-0.365 0.28-0.294 0.501l0.087 0.266c0.013 0.040 0.002 0.084-0.028 0.114-0.054 0.053-0.041 0.143 0.027 0.178l0.050 0.026c0.043 0.022 0.073 0.063 0.080 0.111l0.001 0.004c0.008 0.053-0.010 0.106-0.049 0.142l-0.424 0.392c-0.089 0.082-0.165 0.177-0.227 0.281l-0.334 0.565c-0.018 0.030-0.022 0.066-0.011 0.099l0.002 0.005c0.017 0.055-0.008 0.114-0.060 0.139-0.041 0.020-0.066 0.061-0.065 0.107l0.006 0.351c0.003 0.193-0.093 0.374-0.255 0.479l-0.036 0.024c-0.105 0.068-0.177 0.176-0.201 0.299l-0.019 0.098c-0.006 0.031-0.002 0.063 0.012 0.092 0.046 0.097-0.023 0.21-0.13 0.213l-0.201 0.006c-0.048 0.001-0.091 0.032-0.108 0.077-0.016 0.044-0.056 0.074-0.103 0.077l-0.289 0.021c-0.118 0.009-0.206 0.111-0.197 0.229l0.002 0.019c0.006 0.078-0.037 0.152-0.109 0.184-0.095 0.043-0.136 0.154-0.091 0.248l0.331 0.699c0.009 0.020 0.014 0.041 0.015 0.062l0 0.006c0.003 0.066-0.037 0.127-0.099 0.15-0.051 0.019-0.088 0.064-0.097 0.117l-0.004 0.025c-0.012 0.069 0.014 0.139 0.067 0.184l0.25 0.211c0.046 0.038 0.057 0.104 0.027 0.156l-0.025 0.043c-0.016 0.029-0.009 0.065 0.017 0.085 0.024 0.019 0.032 0.051 0.020 0.079l-0.038 0.085c-0.018 0.041-0.021 0.086-0.008 0.128l0.007 0.023c0.022 0.071 0.010 0.149-0.031 0.211l-0.055 0.083c-0.046 0.069-0.051 0.158-0.012 0.231 0.024 0.045 0.032 0.097 0.022 0.147l-0.061 0.324c-0.009 0.046 0.007 0.094 0.041 0.127 0.028 0.027 0.044 0.064 0.043 0.103l-0.003 0.159c-0.001 0.086 0.050 0.164 0.129 0.196 0.097 0.039 0.149 0.144 0.123 0.245l-0.009 0.035c-0.012 0.045-0.011 0.093 0.003 0.138l0.032 0.102c0.046 0.144 0.037 0.299-0.025 0.437l-0.159 0.355c-0.054 0.12-0.16 0.207-0.288 0.235l-0.106 0.024c-0.031 0.007-0.059 0.025-0.077 0.051l-0.011 0.015c-0.032 0.045-0.025 0.107 0.016 0.144 0.025 0.023 0.038 0.055 0.036 0.089l-0.010 0.144c-0.004 0.050-0.024 0.098-0.058 0.134-0.090 0.097-0.075 0.252 0.034 0.329l0.052 0.037c0.097 0.069 0.131 0.199 0.078 0.306l-0.011 0.023c-0.026 0.055-0.026 0.119 0.002 0.173 0.058 0.115-0.009 0.253-0.135 0.278l-0.112 0.022c-0.014 0.003-0.028 0.004-0.042 0.005l-0.382 0.017c-0.156 0.007-0.286-0.117-0.287-0.272l-0-0.060c-0-0.055-0.029-0.106-0.075-0.137-0.053-0.034-0.12-0.035-0.173-0.003l-0.279 0.166c-0.065 0.039-0.107 0.106-0.112 0.182-0.010 0.14-0.142 0.238-0.279 0.209l-0.087-0.018c-0.123-0.026-0.245 0.046-0.282 0.166-0.022 0.070-0.074 0.127-0.143 0.154l-0.058 0.023c-0.037 0.015-0.067 0.043-0.083 0.080-0.030 0.067-0.104 0.104-0.176 0.086l-0.345-0.087c-0.041-0.010-0.081-0.028-0.116-0.051-0.163-0.107-0.379-0.074-0.504 0.075l-0.144 0.173c-0.070 0.084-0.196 0.089-0.273 0.012l-0.038-0.039c-0.024-0.024-0.060-0.033-0.093-0.024-0.030 0.009-0.054 0.033-0.063 0.064l-0.020 0.072c-0.027 0.097-0.114 0.164-0.215 0.167l-0.087 0.002c-0.069 0.002-0.13 0.044-0.156 0.107l-0.027 0.064c-0.010 0.024-0.033 0.040-0.059 0.041-0.032 0.001-0.060 0.025-0.064 0.058l-0.015 0.114c-0.009 0.065 0.052 0.117 0.115 0.098l0.063-0.019c0.042-0.012 0.080 0.026 0.068 0.068-0.006 0.019-0.021 0.034-0.041 0.038l-0.32 0.068c-0.067 0.014-0.127-0.043-0.117-0.111l0.011-0.068c0.006-0.038-0.030-0.070-0.067-0.059-0.018 0.005-0.032 0.019-0.037 0.037l-0.068 0.25c-0.007 0.025-0.004 0.051 0.007 0.074l0.026 0.054c0.026 0.054-0.019 0.115-0.079 0.107-0.042-0.006-0.080 0.023-0.085 0.065l-0.038 0.303c-0.007 0.057-0.062 0.094-0.117 0.080-0.051-0.013-0.102 0.018-0.115 0.068l-0.074 0.284c-0.017 0.065-0.081 0.106-0.148 0.094-0.064-0.012-0.127 0.026-0.146 0.089l-0.037 0.12c-0.037 0.123-0.157 0.203-0.285 0.189l-0.036-0.004c-0.144-0.015-0.279 0.071-0.328 0.207l-0.034 0.095c-0.028 0.079-0.088 0.143-0.166 0.175l-0.163 0.068c-0.045 0.019-0.070 0.069-0.056 0.116l0.011 0.039c0.012 0.042-0.019 0.083-0.062 0.084h-0.002c-0.036 0.001-0.065 0.031-0.063 0.067 0.002 0.042-0.037 0.075-0.078 0.066l-0.029-0.006c-0.048-0.010-0.095 0.021-0.105 0.069l-0.013 0.065c-0.007 0.037-0.028 0.070-0.058 0.093l-0.076 0.057c-0.025 0.019-0.033 0.054-0.019 0.082 0.021 0.042-0.007 0.092-0.054 0.095l-0.042 0.003c-0.051 0.003-0.090 0.047-0.087 0.098l0.007 0.112c0.001 0.009 0.006 0.018 0.015 0.023 0.026 0.013 0.016 0.052-0.013 0.051l-0.939-0.022c-0.073-0.002-0.142 0.030-0.189 0.086l-0.019 0.023c-0.049 0.059-0.12 0.096-0.196 0.103-0.060 0.005-0.116 0.029-0.162 0.068l-0.285 0.243c-0.028 0.024-0.054 0.050-0.079 0.078l-0.067 0.077c-0.068 0.077-0.108 0.176-0.113 0.278-0.005 0.084-0.032 0.164-0.079 0.234-0.069 0.1-0.174 0.169-0.293 0.192l-0.283 0.054c-0.087 0.017-0.177-0.009-0.243-0.068-0.011-0.010-0.023-0.020-0.036-0.028l-0.226-0.146c-0.111-0.072-0.154-0.214-0.101-0.335l0.020-0.046c0.013-0.029 0.015-0.062 0.005-0.093-0.027-0.090 0.043-0.179 0.136-0.174l0.012 0.001c0.077 0.004 0.144-0.054 0.15-0.131l0.020-0.227c0.010-0.111-0.084-0.204-0.195-0.193-0.057 0.006-0.107 0.038-0.136 0.087l-0.078 0.132c-0.12 0.205-0.372 0.291-0.593 0.203l-0.502-0.202c-0.129-0.052-0.276-0.032-0.386 0.052l-0.28 0.213c-0.050 0.038-0.122 0.022-0.15-0.034-0.012-0.023-0.033-0.041-0.058-0.050l-0.221-0.073c-0.054-0.018-0.101-0.050-0.138-0.094-0.058-0.070-0.144-0.11-0.235-0.109l-0.020 0c-0.092 0.001-0.18 0.039-0.244 0.105l-0.379 0.393c-0.069 0.071-0.125 0.153-0.166 0.243l-0.049 0.108c-0.064 0.141-0.182 0.251-0.327 0.305l-0.029 0.011c-0.088 0.033-0.184 0.040-0.276 0.019-0.084-0.019-0.171-0.015-0.253 0.011l-0.115 0.037c-0.062 0.020-0.13 0.020-0.192 0l-0.194-0.062c-0.062-0.020-0.128 0.015-0.147 0.078-0.017 0.057-0.074 0.092-0.132 0.081l-0.166-0.030c-0.078-0.014-0.159 0.003-0.225 0.047l-0.307 0.207c-0.13 0.088-0.299 0.090-0.431 0.005l-0.106-0.068c-0.129-0.083-0.301-0.042-0.379 0.090-0.057 0.096-0.167 0.148-0.278 0.129l-0.334-0.056c-0.037-0.006-0.063-0.039-0.060-0.076 0.003-0.038-0.025-0.072-0.064-0.077l-0.129-0.015c-0.056-0.006-0.112 0.010-0.156 0.045l-0.070 0.057c-0.104 0.085-0.162 0.214-0.155 0.349l0.005 0.105c0.002 0.032 0.009 0.062 0.023 0.091 0.033 0.070 0.099 0.121 0.176 0.134l0.101 0.018c0.049 0.009 0.088 0.046 0.099 0.094 0.015 0.063-0.022 0.128-0.084 0.147l-0.165 0.052c-0.066 0.020-0.105 0.087-0.092 0.154 0.009 0.047-0.008 0.096-0.044 0.128l-0.069 0.060c-0.045 0.039-0.078 0.091-0.092 0.149l-0.002 0.009c-0.031 0.124-0.134 0.217-0.26 0.237l-0.309 0.049c-0.125 0.020-0.226 0.113-0.256 0.236l-0.005 0.021c-0.051 0.21-0.3 0.299-0.473 0.169-0.023-0.018-0.044-0.039-0.062-0.063l-1.007-1.38c-0.136-0.186-0.198-0.416-0.175-0.645l0.019-0.189c0.004-0.035 0.016-0.067 0.036-0.096 0.064-0.092 0.042-0.219-0.051-0.283l-0.231-0.16c-0.060-0.041-0.098-0.107-0.105-0.179l-0.008-0.081c-0.004-0.045 0.017-0.088 0.056-0.111 0.046-0.028 0.067-0.083 0.051-0.134l-0.005-0.016c-0.012-0.041-0.005-0.085 0.019-0.12l0.083-0.117c0.020-0.028 0.052-0.044 0.086-0.044 0.057 0 0.104-0.045 0.105-0.102l0.006-0.208c0.004-0.13-0.071-0.249-0.189-0.302l-0.077-0.035c-0.096-0.043-0.205-0.051-0.306-0.021l-0.218 0.063c-0.051 0.015-0.106 0.010-0.154-0.012-0.041-0.019-0.075-0.050-0.098-0.089l-0.037-0.063c-0.029-0.050-0.030-0.112-0.003-0.164l0.017-0.032c0.020-0.038 0.060-0.061 0.103-0.060l0.044 0.001c0.043 0.001 0.078-0.035 0.075-0.078-0.002-0.030 0.015-0.059 0.043-0.071l0.142-0.063c0.121-0.054 0.16-0.206 0.079-0.311-0.021-0.027-0.034-0.059-0.039-0.092l-0.035-0.223c-0.011-0.067 0.021-0.133 0.078-0.168 0.087-0.052 0.201-0.015 0.238 0.079l0.003 0.008c0.027 0.068 0.099 0.108 0.171 0.095 0.049-0.009 0.090-0.041 0.111-0.085l0.036-0.076c0.040-0.084 0.035-0.182-0.014-0.26l-0.027-0.044c-0.032-0.052-0.089-0.084-0.15-0.084-0.093-0.001-0.169-0.073-0.176-0.166l-0.010-0.144c-0.003-0.038-0.015-0.075-0.035-0.107l-0.056-0.088c-0.021-0.033-0.060-0.048-0.098-0.038-0.068 0.018-0.129-0.047-0.107-0.114l0.052-0.158c0.018-0.055-0.006-0.116-0.057-0.144l-0.072-0.039c-0.104-0.057-0.051-0.217 0.067-0.199 0.057 0.009 0.111-0.030 0.121-0.087l0.066-0.373c0.012-0.068 0.003-0.138-0.025-0.201-0.024-0.054-0.062-0.102-0.11-0.137l-0.154-0.115c-0.060-0.045-0.093-0.117-0.088-0.191 0.008-0.114 0.101-0.202 0.215-0.204l0.431-0.007c0.048-0.001 0.092 0.026 0.113 0.069 0.018 0.038 0.055 0.064 0.096 0.068l0.332 0.039c0.042 0.005 0.081 0.024 0.111 0.054 0.040 0.040 0.095 0.060 0.151 0.055l0.169-0.017c0.161-0.016 0.3-0.119 0.364-0.267l0.027-0.064c0.013-0.031 0.035-0.058 0.062-0.079l0.015-0.011c0.056-0.041 0.080-0.113 0.060-0.179l-0.027-0.090c-0.014-0.045-0.063-0.068-0.106-0.049-0.061 0.026-0.124-0.030-0.106-0.093l0.036-0.131c0.008-0.029 0.007-0.060-0.004-0.089l-0.12-0.323c-0.032-0.085 0.032-0.175 0.123-0.174 0.037 0 0.072 0.017 0.096 0.045l0.074 0.086c0.047 0.055 0.115 0.090 0.187 0.096l0.109 0.010c0.031 0.003 0.058 0.022 0.072 0.050 0.016 0.033 0.051 0.053 0.087 0.050l0.060-0.006c0.149-0.014 0.213-0.196 0.105-0.3l-0.047-0.045c-0.021-0.020-0.035-0.046-0.040-0.074l-0.020-0.105c-0.004-0.019-0.022-0.031-0.041-0.027-0.030 0.006-0.053-0.028-0.035-0.053l0.041-0.059c0.014-0.020 0.037-0.030 0.061-0.026l0.032 0.005c0.045 0.007 0.089-0.013 0.113-0.051l0.102-0.156c0.009-0.014 0.012-0.032 0.007-0.048-0.019-0.062 0.063-0.103 0.101-0.051l0.014 0.018c0.009 0.012 0.023 0.021 0.038 0.024l0.558 0.104c0.040 0.007 0.074-0.030 0.062-0.069-0.008-0.026 0.005-0.054 0.030-0.065l0.506-0.222 0.775-0.268c0.018-0.006 0.037-0.004 0.053 0.005 0.047 0.026 0.103-0.012 0.096-0.065l-0.008-0.067c-0.008-0.061 0.042-0.114 0.103-0.112l0.218 0.009c0.030 0.001 0.060-0.002 0.089-0.010l0.355-0.1c0.125-0.035 0.25 0.057 0.253 0.188 0.001 0.050 0.021 0.098 0.055 0.134l0.236 0.246c0.030 0.031 0.031 0.079 0.003 0.112-0.044 0.051-0.013 0.13 0.054 0.137l0.148 0.016c0.022 0.002 0.044 0 0.066-0.006l0.187-0.059c0.094-0.030 0.196-0.015 0.278 0.039 0.051 0.034 0.092 0.081 0.117 0.137l0.252 0.55c0.014 0.031 0.040 0.055 0.073 0.066l0.015 0.005c0.039 0.014 0.083 0.002 0.11-0.030 0.031-0.037 0.033-0.091 0.003-0.129l-0.056-0.071c-0.058-0.073-0.061-0.175-0.007-0.252l0.309-0.442c0.062-0.089 0.107-0.188 0.133-0.293 0.027-0.107 0.033-0.218 0.019-0.326l-0.019-0.145c-0.020-0.158 0.002-0.319 0.064-0.466 0.045-0.108 0.069-0.223 0.071-0.34l0.003-0.203c0.001-0.081 0.018-0.162 0.051-0.236 0.11-0.252 0.376-0.398 0.648-0.357l0.466 0.070c0.171 0.026 0.34-0.059 0.421-0.212l0.024-0.046c0.019-0.036 0.028-0.077 0.026-0.119-0.004-0.059-0.031-0.115-0.075-0.154l-0.162-0.144c-0.026-0.023-0.059-0.038-0.094-0.042-0.094-0.012-0.162-0.097-0.152-0.191l0.090-0.834c0.008-0.079-0.025-0.156-0.088-0.204l-0.037-0.028c-0.125-0.096-0.096-0.293 0.052-0.348 0.017-0.006 0.035-0.010 0.052-0.012l0.6-0.055c0.155-0.014 0.278-0.138 0.291-0.294l0.009-0.108c0.005-0.062 0.046-0.115 0.105-0.135 0.076-0.026 0.12-0.106 0.101-0.184l-0.096-0.404c-0.037-0.156-0.133-0.291-0.268-0.376l-0.305-0.194c-0.159-0.101-0.349-0.144-0.536-0.121l-0.092 0.011c-0.046 0.006-0.093 0.002-0.138-0.010l-0.119-0.033c-0.12-0.034-0.19-0.157-0.158-0.277l0.005-0.021c0.013-0.047 0.005-0.097-0.020-0.139-0.055-0.090-0.020-0.209 0.077-0.254l0.023-0.011c0.034-0.016 0.073-0.022 0.11-0.017l0.175 0.023c0.073 0.010 0.139-0.047 0.14-0.121l0-0.040c0.001-0.051 0.045-0.091 0.096-0.085l0.003 0c0.032 0.003 0.059 0.025 0.070 0.056 0.015 0.045 0.066 0.068 0.11 0.050l0.313-0.131c0.040-0.017 0.066-0.055 0.067-0.099l0-0.019c0.001-0.048 0.040-0.087 0.088-0.088 0.055-0.001 0.096-0.051 0.086-0.106l-0.050-0.269c-0.011-0.061-0.040-0.117-0.083-0.162l-0.487-0.513c-0.078-0.082-0.178-0.138-0.289-0.162l-0.232-0.050c-0.112-0.024-0.194-0.122-0.2-0.237-0.002-0.053-0.022-0.105-0.055-0.146l-0.026-0.032c-0.038-0.047-0.049-0.109-0.030-0.166 0.024-0.071-0-0.15-0.060-0.196l-0.133-0.102c-0.029-0.023-0.065-0.036-0.102-0.038-0.082-0.005-0.151-0.063-0.17-0.144l-0.018-0.077c-0.021-0.089-0.083-0.164-0.166-0.201l-0.142-0.063c-0.068-0.030-0.129-0.073-0.18-0.125l-0.031-0.032c-0.095-0.098-0.145-0.231-0.137-0.368l0.014-0.224c0.001-0.016-0.006-0.031-0.018-0.041-0.029-0.023-0.022-0.068 0.012-0.082l0.058-0.024c0.048-0.020 0.067-0.076 0.042-0.121l-0.018-0.032c-0.035-0.061-0.115-0.079-0.172-0.037l-0.096 0.070c-0.050 0.036-0.114 0.046-0.172 0.025l-0.033-0.012c-0.033-0.012-0.071-0.008-0.1 0.012-0.034 0.022-0.078 0.025-0.114 0.006l-0.088-0.045c-0.062-0.032-0.097-0.099-0.087-0.168 0.014-0.099-0.064-0.186-0.163-0.186l-0.062 0.001c-0.063 0.001-0.121 0.032-0.156 0.085l-0.055 0.083c-0.011 0.017-0.010 0.038 0.002 0.054 0.028 0.036-0.008 0.087-0.051 0.073l-0.008-0.002c-0.017-0.005-0.036-0.001-0.049 0.011-0.033 0.032-0.088 0.006-0.085-0.040l0.005-0.073c0.002-0.031-0.024-0.057-0.055-0.054-0.023 0.002-0.045-0.012-0.053-0.034l-0.039-0.116c-0.014-0.041-0.040-0.076-0.075-0.101l-0.172-0.123c-0.155-0.111-0.247-0.291-0.247-0.482l0.002-0.515c0-0.058-0.049-0.105-0.107-0.102l-0.029 0.001c-0.052 0.003-0.093-0.045-0.082-0.096 0.010-0.049-0.026-0.095-0.076-0.096l-0.048-0.001c-0.051-0.001-0.088-0.050-0.076-0.099 0.013-0.054-0.031-0.105-0.086-0.099l-0.354 0.037c-0.051 0.005-0.098-0.028-0.109-0.078s0.016-0.099 0.064-0.116l0.32-0.117c0.044-0.016 0.073-0.059 0.072-0.106-0.001-0.043-0.027-0.082-0.066-0.099l-0.049-0.021c-0.099-0.043-0.144-0.159-0.099-0.258l0.008-0.019c0.021-0.046 0.057-0.082 0.102-0.104l0.010-0.005c0.069-0.033 0.118-0.096 0.133-0.171l0.018-0.086c0.022-0.106 0.002-0.216-0.057-0.307l-0.091-0.143c-0.029-0.046-0.082-0.071-0.137-0.065-0.069 0.008-0.134-0.035-0.153-0.101l-0.030-0.102c-0.016-0.056-0.081-0.082-0.131-0.053-0.060 0.034-0.135-0.009-0.135-0.078v-0.012c0-0.050 0.039-0.092 0.089-0.096l0.246-0.020c0.033-0.003 0.058 0.028 0.048 0.060-0.008 0.026 0.008 0.053 0.034 0.059l0.017 0.004c0.030 0.007 0.061-0.009 0.072-0.039l0.068-0.18c0.021-0.056 0.082-0.086 0.139-0.069 0.050 0.015 0.103-0.006 0.13-0.050l0.28-0.461c0.045-0.073 0.077-0.153 0.097-0.237l0.063-0.269c0.012-0.053 0.040-0.101 0.080-0.138l0.019-0.018c0.054-0.051 0.080-0.125 0.069-0.199-0.007-0.046 0-0.094 0.022-0.136l0.143-0.283c0.021-0.041 0.023-0.089 0.006-0.131l-0.037-0.092c-0.022-0.055-0.092-0.073-0.137-0.034l-0.007 0.006c-0.022 0.018-0.052 0.022-0.077 0.011-0.037-0.017-0.053-0.060-0.037-0.097l0.037-0.085c0.027-0.062 0.015-0.133-0.032-0.182l-0.127-0.133c-0.070-0.073-0.095-0.178-0.065-0.275l0.014-0.045c0.010-0.034 0.032-0.063 0.061-0.082 0.059-0.039 0.083-0.115 0.057-0.181l-0.048-0.12c-0.036-0.091-0.027-0.193 0.024-0.276l0.092-0.15c0.057-0.093 0.136-0.171 0.23-0.226l0.146-0.085c0.022-0.013 0.041-0.031 0.055-0.052 0.058-0.089 0.017-0.208-0.083-0.243l-0.131-0.045c-0.033-0.011-0.068-0.016-0.103-0.015l-0.155 0.008c-0.141 0.007-0.281-0.030-0.401-0.106l-0.167-0.106c-0.016-0.010-0.028-0.025-0.034-0.042-0.023-0.060 0.026-0.124 0.090-0.117l1.008 0.111c0.083 0.009 0.166 0.004 0.247-0.016l0.406-0.101c0.017-0.004 0.034-0.005 0.051-0.001 0.089 0.017 0.164-0.068 0.136-0.154l-0.043-0.132c-0.019-0.058 0.014-0.119 0.073-0.135 0.018-0.005 0.036-0.005 0.054-0.001l0.305 0.077c0.080 0.020 0.13 0.098 0.116 0.179l-0.001 0.003c-0.010 0.054 0.011 0.11 0.054 0.144z"></path>
</svg>
