<!-- Generated by IcoMoon.io -->
<svg version="1.1" xmlns="http://www.w3.org/2000/svg" width="31" height="32" viewBox="0 0 31 32">
<path stroke-linejoin="round" stroke-linecap="round" stroke-miterlimit="4" stroke-width="1.561" stroke="#000" fill="#000" d="M9.827 1.856c0.264-0.424 0.704-0.708 1.199-0.774 0.371-0.049 0.749 0.027 1.071 0.218l0.292 0.173c0.382 0.226 0.814 0.352 1.257 0.368l2.202 0.077c0.362 0.013 0.709 0.147 0.985 0.38 0.265 0.224 0.451 0.528 0.53 0.867l0.206 0.888c0.113 0.485-0.126 0.983-0.574 1.2-0.189 0.091-0.401 0.125-0.609 0.096l-0.701-0.096c-0.319-0.044-0.64 0.069-0.86 0.304-0.206 0.219-0.302 0.521-0.26 0.819l0.023 0.168c0.044 0.315 0.198 0.604 0.434 0.816l0.143 0.129c0.52 0.467 1.256 0.606 1.91 0.361l1.268-0.475c0.939-0.351 1.985-0.267 2.855 0.229l0.416 0.237c0.557 0.317 0.955 0.854 1.098 1.478l0.090 0.395c0.041 0.181 0.029 0.37-0.037 0.543-0.078 0.207-0.226 0.38-0.418 0.489l-0.419 0.237c-0.691 0.392-1.127 1.115-1.151 1.909l-0.027 0.916c-0.009 0.285 0.061 0.566 0.201 0.814 0.158 0.281 0.4 0.506 0.691 0.645l1.759 0.835c1.434 0.681 2.45 2.013 2.728 3.576 0.113 0.637 0.351 1.245 0.701 1.79l3.086 4.815c0.258 0.403 0.271 0.916 0.033 1.331l-0.029 0.050c-0.211 0.369-0.603 0.596-1.028 0.596h-0.106c-0.23 0-0.454 0.089-0.623 0.245-0.172 0.16-0.278 0.382-0.29 0.617-0.025 0.483-0.427 0.861-0.912 0.854l-0.921-0.013c-0.224-0.003-0.447 0.034-0.658 0.111l-2.374 0.86c-0.305 0.11-0.624 0.175-0.948 0.192l-0.393 0.020c-0.901 0.046-1.761-0.381-2.267-1.128l-0.085-0.126c-0.475-0.7-1.293-1.087-2.135-1.009l-0.31 0.029c-0.284 0.026-0.569-0.038-0.815-0.182-0.313-0.184-0.539-0.486-0.628-0.838l-0.454-1.801c-0.128-0.509-0.369-0.983-0.705-1.387l-0.295-0.355c-0.144-0.174-0.326-0.312-0.532-0.406-0.249-0.113-0.525-0.156-0.797-0.124l-1.058 0.125c-0.698 0.083-1.405-0.013-2.056-0.277l-1.335-0.542c-0.214-0.087-0.455-0.081-0.665 0.015-0.359 0.166-0.786 0.057-1.021-0.261l-1.031-1.389c-0.187-0.252-0.413-0.472-0.669-0.654l-2.347-1.66c-0.131-0.093-0.246-0.206-0.34-0.336l-0.697-0.96c-0.171-0.236-0.088-0.568 0.173-0.696l0.154-0.076c0.237-0.116 0.515 0.055 0.518 0.319l0.006 0.474c0.001 0.107 0.125 0.166 0.209 0.099l0.086-0.069c0.044-0.035 0.109-0.007 0.114 0.049 0.007 0.079 0.12 0.088 0.138 0.010l0.201-0.852c0.033-0.139 0.218-0.166 0.29-0.042 0.093 0.162 0.341 0.055 0.287-0.124l-0.115-0.389c-0.024-0.080 0.003-0.166 0.068-0.219l0.338-0.271c0.101-0.081 0.219-0.138 0.346-0.166l3.822-0.859c0.087-0.020 0.177-0.027 0.266-0.022l2.369 0.135c0.425 0.024 0.593-0.541 0.224-0.753-0.042-0.024-0.088-0.040-0.136-0.048l-1.356-0.22c-0.446-0.073-0.572-0.655-0.196-0.905 0.092-0.061 0.162-0.152 0.197-0.257l0.405-1.218c0.175-0.527 0.245-1.083 0.206-1.637l-0.513-7.157c-0.027-0.378 0.066-0.756 0.267-1.078l0.032-0.051z"></path>
</svg>
