<!-- Generated by IcoMoon.io -->
<svg version="1.1" xmlns="http://www.w3.org/2000/svg" width="53" height="32" viewBox="0 0 53 32">
<path d="M52.794 14.839c0.017 0.013 0.030 0.032 0.035 0.053 0.011 0.042-0.008 0.085-0.046 0.106l-0.083 0.046c-0.033 0.019-0.061 0.045-0.081 0.078l-0.061 0.101c-0.118 0.195-0.327 0.315-0.555 0.32l-0.159 0.003c-0.142 0.003-0.282-0.026-0.411-0.085l-0.275-0.125c-0.094-0.043-0.204-0.039-0.295 0.009-0.087 0.046-0.15 0.129-0.171 0.225l-0.008 0.039c-0.025 0.114 0.025 0.23 0.123 0.292l0.086 0.054c0.107 0.067 0.124 0.217 0.033 0.306-0.024 0.024-0.054 0.041-0.086 0.050l-0.395 0.107c-0.061 0.017-0.117 0.047-0.165 0.089l-0.144 0.127c-0.028 0.025-0.040 0.064-0.030 0.1l0.053 0.201c0.011 0.042 0.071 0.043 0.083 0.001 0.011-0.040 0.067-0.042 0.081-0.003l0.019 0.052c0.006 0.016 0.005 0.033-0.002 0.049l-0.245 0.493c-0.127 0.256-0.168 0.546-0.117 0.828l0.137 0.758c0.016 0.085 0.047 0.167 0.093 0.241 0.199 0.317 0.105 0.735-0.21 0.936l-0.268 0.171c-0.139 0.089-0.297 0.142-0.462 0.154l-0.926 0.071c-0.17 0.013-0.331 0.082-0.458 0.195-0.174 0.155-0.408 0.224-0.638 0.188l-1.998-0.314c-0.086-0.014-0.174-0.013-0.26 0.002l-0.091 0.016c-0.141 0.024-0.268 0.1-0.356 0.214-0.053 0.069-0.121 0.125-0.199 0.163l-0.020 0.010c-0.126 0.062-0.269 0.083-0.407 0.058l-0.167-0.029c-0.137-0.024-0.279-0.009-0.408 0.043l-0.488 0.196c-0.103 0.041-0.219-0.006-0.264-0.108-0.018-0.042-0.050-0.076-0.090-0.098l-0.033-0.018c-0.1-0.054-0.162-0.159-0.161-0.273 0.001-0.080-0.029-0.157-0.085-0.215l-0.272-0.284c-0.072-0.075-0.154-0.142-0.242-0.197l-0.506-0.318c-0.279-0.176-0.582-0.312-0.898-0.405l-0.194-0.057c-0.438-0.129-0.9-0.15-1.347-0.060l-0.014 0.003c-0.255 0.051-0.501 0.139-0.731 0.261l-0.154 0.082c-0.163 0.086-0.311 0.199-0.437 0.334l-0.364 0.389c-0.080 0.085-0.122 0.2-0.114 0.317l0.008 0.139c0.004 0.069 0.045 0.13 0.108 0.16 0.143 0.068 0.144 0.272 0.002 0.342l-0.388 0.19c-0.065 0.032-0.114 0.091-0.132 0.162-0.017 0.067-0.006 0.139 0.032 0.198l0.042 0.065c0.024 0.037 0.058 0.067 0.099 0.087l0.189 0.090c0.033 0.016 0.044 0.058 0.024 0.088-0.016 0.024-0.048 0.033-0.074 0.021l-0.561-0.25c-0.126-0.056-0.265-0.078-0.403-0.064l-0.443 0.045c-0.072 0.008-0.139 0.043-0.186 0.099-0.053 0.064-0.075 0.149-0.060 0.23l0.005 0.027c0.015 0.076 0.002 0.155-0.035 0.223l-0.024 0.044c-0.065 0.12-0.178 0.206-0.311 0.238l-0.244 0.057c-0.094 0.022-0.183 0.058-0.266 0.106-0.169 0.098-0.304 0.246-0.387 0.423l-0.101 0.215c-0.049 0.105-0.081 0.216-0.096 0.331l-0.013 0.102c-0.026 0.203-0.125 0.39-0.28 0.525l-0.22 0.191c-0.087 0.076-0.209 0.1-0.319 0.063l-0.101-0.034c-0.084-0.029-0.138-0.111-0.13-0.2 0.005-0.058-0.016-0.114-0.057-0.155l-0.089-0.087c-0.058-0.057-0.13-0.097-0.209-0.117l-0.184-0.046c-0.044-0.011-0.090-0.003-0.128 0.022-0.053 0.035-0.121 0.036-0.175 0.002l-0.087-0.054c-0.077-0.048-0.17-0.061-0.257-0.037l-0.397 0.112c-0.042 0.012-0.072 0.050-0.073 0.094s-0.030 0.081-0.071 0.093l-0.133 0.041c-0.058 0.018-0.12 0.017-0.178-0.002l-0.087-0.029c-0.077-0.025-0.157-0.034-0.238-0.027l-1.111 0.106c-0.372 0.035-0.733 0.146-1.062 0.324-0.166 0.090-0.341 0.163-0.521 0.218l-0.107 0.032c-0.265 0.080-0.52 0.188-0.762 0.323l-1.165 0.649c-0.261 0.146-0.494 0.338-0.686 0.567-0.164 0.195-0.296 0.415-0.392 0.651l-0.375 0.918c-0.029 0.070-0.081 0.126-0.149 0.159-0.101 0.049-0.167 0.151-0.171 0.263l-0.001 0.020c-0.008 0.203-0.191 0.354-0.392 0.322l-0.019-0.003c-0.082-0.013-0.166 0.003-0.238 0.046l-0.106 0.063c-0.101 0.060-0.185 0.145-0.244 0.246l-0.033 0.057c-0.138 0.235-0.369 0.4-0.636 0.453l-0.069 0.014c-0.348 0.069-0.642 0.3-0.79 0.622l-0.026 0.055c-0.154 0.333-0.462 0.57-0.824 0.632l-0.079 0.014c-0.123 0.021-0.24 0.072-0.34 0.147-0.123 0.093-0.27 0.147-0.422 0.157l-0.261 0.017c-0.066 0.004-0.13 0.027-0.185 0.066-0.078 0.056-0.176 0.078-0.27 0.061l-0.809-0.142c-0.113-0.020-0.193-0.12-0.187-0.235l0-0.004c0.003-0.056 0.028-0.11 0.069-0.148 0.040-0.037 0.093-0.058 0.147-0.058h0.025c0.101 0 0.194-0.054 0.244-0.141l0.007-0.012c0.056-0.098 0.053-0.22-0.008-0.315l-0.731-1.141c-0.083-0.129-0.139-0.273-0.166-0.424-0.066-0.37-0.307-0.686-0.647-0.848l-0.417-0.198c-0.069-0.033-0.126-0.086-0.164-0.153-0.033-0.059-0.050-0.126-0.048-0.193l0.006-0.217c0.006-0.188 0.109-0.36 0.273-0.452l0.099-0.056c0.046-0.026 0.081-0.067 0.099-0.116 0.015-0.041 0.018-0.086 0.009-0.129l-0.021-0.094c-0.034-0.148-0.128-0.275-0.26-0.35l-0.098-0.056c-0.206-0.118-0.454-0.137-0.677-0.054l-0.301 0.112c-0.155 0.058-0.33 0.025-0.453-0.086l-0.034-0.031c-0.056-0.050-0.093-0.119-0.103-0.193l-0.006-0.040c-0.010-0.071 0.013-0.142 0.062-0.194 0.052-0.056 0.128-0.082 0.204-0.072l0.166 0.023c0.049 0.007 0.1-0.001 0.144-0.023 0.106-0.051 0.163-0.169 0.136-0.284l-0.049-0.21c-0.019-0.080-0.063-0.152-0.126-0.206-0.066-0.055-0.148-0.087-0.233-0.090l-0.522-0.018c-0.105-0.004-0.207-0.034-0.298-0.087l-0.128-0.075c-0.039-0.023-0.084-0.032-0.128-0.026-0.129 0.017-0.239-0.091-0.225-0.22l0.008-0.068c0.011-0.1 0.101-0.172 0.201-0.162 0.038 0.004 0.076-0.004 0.109-0.023l0.078-0.044c0.084-0.048 0.151-0.12 0.192-0.208l0.050-0.108c0.037-0.080 0.061-0.165 0.071-0.253l0.030-0.255c0.025-0.211 0.021-0.424-0.009-0.635l-0.098-0.669c-0.013-0.090-0.013-0.182 0.001-0.272 0.023-0.147 0.009-0.297-0.039-0.438l-0.249-0.718c-0.13-0.376-0.317-0.731-0.553-1.052-0.17-0.231-0.365-0.444-0.58-0.633l-0.363-0.319c-0.084-0.074-0.179-0.135-0.281-0.182l-0.285-0.129c-0.221-0.1-0.479-0.067-0.667 0.087-0.107 0.087-0.238 0.137-0.376 0.143l-0.114 0.005c-0.156 0.007-0.299 0.089-0.384 0.221l-0.057 0.089c-0.055 0.086-0.151 0.137-0.253 0.135-0.081-0.002-0.157-0.037-0.211-0.098l-0.159-0.179c-0.1-0.112-0.228-0.196-0.371-0.242l-0.129-0.042c-0.128-0.041-0.25-0.102-0.36-0.18l-0.084-0.059c-0.136-0.096-0.26-0.208-0.369-0.334l-0.62-0.719c-0.197-0.229-0.411-0.444-0.639-0.642l-0.344-0.299c-0.192-0.167-0.397-0.316-0.615-0.448l-0.342-0.206c-0.225-0.136-0.472-0.23-0.731-0.279-0.168-0.032-0.338-0.044-0.508-0.036l-0.391 0.018c-0.393 0.018-0.775 0.14-1.105 0.355l-0.472 0.306c-0.234 0.152-0.522 0.196-0.791 0.12l-1.292-0.362c-0.122-0.034-0.163-0.186-0.076-0.277 0.027-0.028 0.044-0.066 0.046-0.105l0.002-0.037c0.005-0.084-0.029-0.166-0.093-0.221l-0.047-0.040c-0.159-0.136-0.183-0.373-0.055-0.538l0.462-0.594c0.061-0.079 0.132-0.149 0.211-0.21l0.464-0.357 0.927-0.529c0.051-0.029 0.106-0.052 0.163-0.068l0.214-0.061c0.026-0.007 0.054-0.005 0.078 0.006 0.067 0.030 0.144-0.010 0.16-0.081l0.006-0.028c0.008-0.039 0.032-0.072 0.067-0.091l0.835-0.479c0.063-0.036 0.142-0.030 0.199 0.016l0.016 0.013c0.045 0.036 0.106 0.043 0.157 0.016l0.053-0.027c0.025-0.013 0.055-0.008 0.075 0.012 0.029 0.030 0.078 0.024 0.1-0.011l0.157-0.255c0.024-0.039 0.025-0.089 0.002-0.129l-0.003-0.006c-0.021-0.037-0.061-0.059-0.103-0.058l-0.086 0.003c-0.041 0.001-0.071-0.040-0.056-0.079 0.004-0.010 0.010-0.018 0.018-0.024l0.827-0.654c0.185-0.146 0.382-0.275 0.59-0.386l1.904-1.015c0.081-0.043 0.168-0.072 0.259-0.087l0.070-0.011c0.209-0.033 0.39-0.161 0.491-0.347 0.030-0.055 0.052-0.114 0.066-0.175l0.233-1.029-0.032 0.102c-0.039 0.128-0.023 0.266 0.045 0.381 0.033 0.055 0.076 0.103 0.128 0.14l0.267 0.194c0.072 0.052 0.156 0.087 0.244 0.101 0.103 0.016 0.208 0.004 0.304-0.036l1.028-0.423c0.149-0.062 0.287-0.149 0.405-0.259l0.644-0.597c0.063-0.058 0.157-0.068 0.23-0.023l0.063 0.038c0.061 0.037 0.14 0.015 0.173-0.048 0.016-0.030 0.044-0.053 0.077-0.062l0.056-0.015c0.068-0.018 0.116-0.080 0.116-0.151 0-0.056 0.030-0.107 0.078-0.135l0.052-0.030c0.015-0.009 0.033-0.014 0.050-0.016 0.056-0.005 0.108 0.030 0.125 0.084l0.005 0.016c0.024 0.077 0.107 0.118 0.183 0.091l0.095-0.034c0.071-0.025 0.149 0.011 0.176 0.082l0.015 0.041c0.012 0.031 0.042 0.051 0.075 0.050 0.028-0.001 0.053-0.017 0.066-0.042l0.234-0.452c0.026-0.051 0.082-0.079 0.138-0.070 0.040 0.006 0.080-0.006 0.11-0.033l0.152-0.137c0.134-0.121 0.34-0.116 0.469 0.010 0.047 0.046 0.106 0.077 0.17 0.090l0.071 0.014c0.040 0.008 0.075 0.031 0.098 0.065 0.089 0.129 0.291 0.062 0.286-0.095l-0.015-0.447c-0.002-0.076 0.061-0.138 0.136-0.133 0.034 0.002 0.068-0.010 0.093-0.032l0.237-0.211c0.073-0.065 0.172-0.092 0.267-0.074l0.156 0.030c0.039 0.007 0.079-0.011 0.098-0.046 0.015-0.026 0.016-0.058 0.003-0.085l-0.065-0.138c-0.060-0.128-0.185-0.213-0.326-0.222l-0.745-0.048c-0.057-0.004-0.115 0.005-0.169 0.025l-0.178 0.066c-0.022 0.008-0.039 0.028-0.043 0.051-0.008 0.041-0.050 0.065-0.089 0.052l-0.042-0.014c-0.066-0.022-0.094-0.1-0.057-0.16l0.066-0.105c0.026-0.041 0.036-0.089 0.030-0.137l-0.166-1.217c-0.023-0.171 0.017-0.344 0.114-0.487l0.024-0.036c0.113-0.167 0.137-0.378 0.065-0.566l-0.175-0.456c-0.030-0.077 0.011-0.163 0.089-0.19 0.068-0.023 0.109-0.093 0.096-0.164l-0.206-1.138c-0.025-0.136 0.067-0.267 0.204-0.289 0.076-0.012 0.154 0.011 0.21 0.064l0.397 0.373c0.029 0.027 0.065 0.046 0.103 0.055 0.085 0.020 0.151 0.087 0.169 0.172l0.060 0.275c0.013 0.058 0.083 0.081 0.128 0.041 0.022-0.020 0.053-0.025 0.080-0.015l0.007 0.003c0.040 0.015 0.063 0.056 0.057 0.098l-0.020 0.131c-0.011 0.069 0.007 0.138 0.049 0.194l0.029 0.038c0.036 0.047 0.084 0.082 0.14 0.102l0.105 0.038c0.037 0.013 0.078 0.006 0.108-0.020 0.049-0.041 0.122-0.033 0.16 0.019l0.214 0.29c0.010 0.013 0.024 0.024 0.039 0.029 0.034 0.012 0.073-0 0.094-0.030l0.259-0.358c0.047-0.065 0.019-0.158-0.057-0.185-0.039-0.014-0.068-0.047-0.077-0.088l-0.043-0.192c-0.017-0.077 0.016-0.157 0.082-0.199 0.064-0.041 0.147-0.039 0.209 0.004l0.097 0.068c0.035 0.025 0.066 0.056 0.091 0.092l0.174 0.253c0.035 0.051 0.054 0.111 0.054 0.172 0 0.072-0.026 0.142-0.073 0.197l-0.232 0.271c-0.015 0.017-0.017 0.041-0.005 0.061 0.025 0.042-0.016 0.092-0.062 0.076l-0.059-0.020c-0.044-0.015-0.091 0.013-0.099 0.059l-0.001 0.003c-0.008 0.045 0.025 0.087 0.070 0.092l0.205 0.020c0.052 0.005 0.102 0.025 0.143 0.058l0.175 0.14c0.144 0.115 0.25 0.272 0.302 0.448l0.093 0.313c0.006 0.020 0.004 0.042-0.005 0.061l-0.005 0.009c-0.018 0.036-0.062 0.050-0.098 0.032l-0.020-0.010c-0.034-0.017-0.075 0.003-0.081 0.041l-0.010 0.063c-0.007 0.041 0.045 0.064 0.071 0.031 0.015-0.018 0.042-0.020 0.059-0.004l0.091 0.087c0.024 0.023 0.061 0.024 0.085 0.002 0.015-0.013 0.023-0.031 0.023-0.050l-0.007-0.276c-0.002-0.095 0.032-0.188 0.096-0.259l0.019-0.021c0.028-0.031 0.063-0.055 0.102-0.069l0.101-0.038c0.019-0.007 0.040-0.004 0.056 0.008l0.015 0.011c0.031 0.023 0.026 0.071-0.010 0.086-0.022 0.009-0.034 0.033-0.030 0.056l0.025 0.12c0.003 0.012 0.006 0.023 0.011 0.035l0.117 0.284c0.016 0.039 0.051 0.067 0.092 0.075l0.014 0.003c0.020 0.004 0.041 0 0.059-0.010 0.045-0.026 0.057-0.085 0.026-0.126l-0.052-0.070c-0.073-0.098-0.016-0.239 0.105-0.259l0.226-0.037c0.076-0.013 0.106-0.106 0.051-0.16-0.025-0.025-0.062-0.034-0.096-0.023l-0.103 0.034c-0.079 0.026-0.166 0.014-0.236-0.033l-0.125-0.084c-0.084-0.056-0.104-0.171-0.045-0.252 0.028-0.039 0.071-0.065 0.119-0.071l0.479-0.067c0.264-0.037 0.531 0.038 0.737 0.207l0.211 0.173c0.029 0.024 0.065 0.037 0.102 0.038 0.074 0.001 0.139 0.052 0.158 0.124l0.046 0.172c0.035 0.132 0.136 0.238 0.266 0.28l0.108 0.034c0.105 0.034 0.199 0.095 0.272 0.178l0.343 0.391c0.016 0.018 0.036 0.030 0.058 0.037 0.090 0.026 0.119 0.139 0.052 0.205l-0.387 0.383c-0.018 0.018-0.044 0.027-0.070 0.024-0.036-0.004-0.066-0.030-0.074-0.065l-0.012-0.051c-0.017-0.070-0.082-0.118-0.154-0.113-0.107 0.008-0.171 0.122-0.121 0.217l0.090 0.171c0.039 0.074 0.114 0.122 0.198 0.126l0.171 0.008c0.053 0.002 0.092 0.051 0.082 0.103-0.012 0.063 0.046 0.117 0.108 0.1l0.381-0.102c0.027-0.007 0.051-0.024 0.068-0.046l0.026-0.035c0.030-0.040 0.088-0.046 0.126-0.012l0.028 0.025c0.029 0.027 0.076 0.017 0.092-0.019 0.011-0.026 0.003-0.056-0.021-0.072l-0.067-0.045c-0.036-0.024-0.060-0.062-0.067-0.105l-0.087-0.569c-0.009-0.060-0.042-0.114-0.091-0.15l-0.075-0.054c-0.041-0.029-0.056-0.082-0.037-0.129l0.016-0.039c0.017-0.041-0.007-0.087-0.050-0.098l-0.044-0.011c-0.049-0.012-0.087 0.043-0.059 0.085 0.021 0.031 0.006 0.074-0.031 0.084l-0.018 0.005c-0.028 0.008-0.058-0.003-0.075-0.026l-0.315-0.444c-0.025-0.035-0.057-0.066-0.093-0.090l-0.143-0.094c-0.018-0.012-0.042-0.013-0.061-0.003-0.046 0.025-0.099-0.018-0.086-0.068l0.021-0.077c0.017-0.065 0.095-0.091 0.148-0.050l0.191 0.146c0.075 0.057 0.177 0.067 0.262 0.026 0.068-0.033 0.147-0.034 0.216-0.002l0.32 0.149c0.039 0.018 0.083 0.021 0.125 0.009 0.056-0.017 0.116-0.005 0.161 0.032l0.179 0.147c0.042 0.034 0.065 0.086 0.065 0.14l-0.001 0.060c-0.001 0.042-0.029 0.079-0.070 0.090-0.058 0.016-0.086 0.080-0.060 0.134l0.105 0.216c0.016 0.032 0.058 0.040 0.084 0.015 0.016-0.015 0.021-0.038 0.012-0.058l-0.052-0.127c-0.032-0.078-0.023-0.166 0.023-0.236l0.255-0.388c0.042-0.064 0.13-0.078 0.19-0.029 0.043 0.035 0.059 0.094 0.039 0.146l-0.065 0.17c-0.029 0.075-0.030 0.158-0.004 0.234 0.038 0.111 0.129 0.195 0.243 0.224l0.276 0.070c0.021 0.005 0.036 0.023 0.039 0.045 0.004 0.042 0.055 0.061 0.087 0.032l0.061-0.057c0.032-0.030 0.039-0.077 0.017-0.114l-0.033-0.058c-0.015-0.026-0.015-0.058 0-0.084 0.028-0.047 0.003-0.108-0.050-0.123l-0.132-0.038c-0.034-0.010-0.055-0.043-0.049-0.078 0.005-0.031 0.031-0.055 0.063-0.058l0.215-0.019c0.037-0.003 0.072-0.017 0.101-0.040 0.083-0.064 0.202-0.050 0.269 0.031l0.254 0.311c0.042 0.051 0.075 0.109 0.099 0.171l0.067 0.179c0.087 0.231 0.236 0.434 0.432 0.586l0.424 0.329c0.174 0.135 0.249 0.362 0.189 0.574l-0.021 0.073c-0.014 0.048-0.014 0.1-0 0.148l0.006 0.020c0.044 0.155 0.22 0.23 0.362 0.155 0.053-0.028 0.094-0.073 0.117-0.128l0.118-0.288c0.064-0.156 0.249-0.222 0.397-0.142l0.065 0.035c0.049 0.027 0.109 0.025 0.157-0.005 0.065-0.040 0.092-0.122 0.063-0.193l-0.276-0.671c-0.024-0.059-0.014-0.126 0.026-0.176l0.092-0.113c0.006-0.008 0.005-0.019-0.002-0.026-0.017-0.016 0.003-0.042 0.023-0.030l0.867 0.535c0.018 0.011 0.032 0.026 0.042 0.044l0.035 0.064c0.053 0.096 0.065 0.21 0.031 0.315l-0.091 0.284c-0.082 0.256-0.269 0.465-0.514 0.576l-0.363 0.164c-0.116 0.052-0.191 0.167-0.192 0.295-0.001 0.096-0.044 0.186-0.117 0.248l-0.312 0.261c-0.035 0.029-0.059 0.069-0.070 0.113-0.021 0.091-0.1 0.156-0.193 0.162l-0.227 0.013c-0.119 0.007-0.193 0.131-0.143 0.239 0.033 0.071 0.11 0.109 0.186 0.094l0.528-0.106c0.172-0.035 0.33-0.122 0.451-0.249l0.424-0.446c0.116-0.123 0.244-0.234 0.38-0.334l0.024-0.017c0.259-0.189 0.547-0.333 0.854-0.427l0.423-0.13c0.029-0.009 0.056-0.023 0.081-0.041l0.039-0.029c0.107-0.079 0.259-0.048 0.328 0.066l0.023 0.038c0.029 0.049 0.029 0.11-0.001 0.159-0.048 0.078-0.152 0.096-0.224 0.040l-0.060-0.047c-0.068-0.053-0.161-0.062-0.237-0.022l-0.448 0.23c-0.119 0.061-0.204 0.173-0.232 0.304l-0.006 0.028c-0.067 0.324 0.241 0.599 0.555 0.494l0.316-0.106c0.089-0.030 0.184 0.029 0.197 0.122l0.010 0.071c0.007 0.051 0.057 0.084 0.106 0.072 0.030-0.008 0.062 0.002 0.084 0.025l0.047 0.050c0.066 0.070 0.073 0.176 0.018 0.255l-0.12 0.169c-0.026 0.036-0.062 0.064-0.103 0.080-0.073 0.029-0.127 0.094-0.14 0.171-0.016 0.097-0.094 0.172-0.192 0.184l-0.193 0.025c-0.073 0.009-0.142 0.044-0.193 0.097l-0.244 0.254c-0.056 0.058-0.031 0.154 0.046 0.178 0.033 0.010 0.059 0.036 0.070 0.068l0.003 0.007c0.023 0.068 0.099 0.102 0.165 0.073l0.495-0.213c0.046-0.020 0.096-0.025 0.145-0.015 0.067 0.013 0.136-0.002 0.191-0.041l0.181-0.13c0.023-0.017 0.049-0.029 0.077-0.036l0.479-0.125c0.138-0.036 0.226 0.143 0.113 0.231l-0.095 0.073c-0.046 0.035-0.032 0.108 0.024 0.124 0.031 0.009 0.052 0.038 0.051 0.070l-0.002 0.055c-0.003 0.113 0.12 0.184 0.216 0.124l0.171-0.107c0.066-0.042 0.154-0.027 0.203 0.034l0.039 0.048c0.040 0.050 0.026 0.123-0.029 0.155-0.032 0.018-0.052 0.051-0.052 0.088l-0.001 0.052c-0.001 0.056 0.022 0.11 0.064 0.148l0.012 0.011c0.079 0.071 0.197 0.079 0.285 0.019l0.047-0.032c0.035-0.024 0.075-0.040 0.118-0.048l0.306-0.055c0.13-0.023 0.243 0.091 0.219 0.22-0.011 0.060 0.007 0.121 0.049 0.165l0.102 0.108c0.058 0.061 0.131 0.106 0.212 0.129l0.095 0.028c0.216 0.064 0.399 0.211 0.507 0.409l0.465 0.855c0.085 0.156 0.149 0.323 0.19 0.496l0.165 0.695c0.045 0.19-0.004 0.389-0.131 0.537-0.068 0.079-0.156 0.14-0.254 0.175l-0.29 0.105c-0.066 0.024-0.124 0.067-0.166 0.124-0.076 0.103-0.091 0.238-0.040 0.355l0.229 0.525c0.041 0.094 0.092 0.182 0.153 0.264l0.145 0.195c0.096 0.129 0.212 0.24 0.344 0.33l0.348 0.236c0.049 0.033 0.108 0.049 0.167 0.043l0.012-0.001c0.058-0.005 0.112-0.033 0.151-0.077 0.051-0.059 0.129-0.088 0.206-0.076l0.161 0.025c0.068 0.011 0.134 0.035 0.193 0.071l0.691 0.427c0.152 0.094 0.313 0.173 0.48 0.236l0.673 0.254c0.031 0.012 0.058 0.031 0.078 0.057 0.060 0.076 0.050 0.185-0.023 0.248l-0.057 0.049c-0.096 0.083-0.086 0.235 0.019 0.306l0.074 0.050c0.012 0.008 0.019 0.022 0.018 0.036-0.003 0.042 0.053 0.059 0.074 0.023l0.133-0.234c0.014-0.025 0.038-0.043 0.067-0.049l0.868-0.18c0.020-0.004 0.041 0.001 0.057 0.015 0.040 0.036 0.105 0.010 0.108-0.044l0.021-0.287c0.008-0.11-0.072-0.207-0.182-0.22l-0.19-0.022c-0.126-0.015-0.238-0.087-0.302-0.196l-0.161-0.271c-0.089-0.15-0.215-0.276-0.365-0.365l-0.1-0.059c-0.1-0.059-0.182-0.144-0.236-0.247l-0.195-0.365c-0.029-0.055-0.093-0.081-0.152-0.063-0.056 0.017-0.117-0.006-0.149-0.056l-0.978-1.585-0.439-0.571c-0.083-0.108-0.18-0.205-0.289-0.288-0.127-0.097-0.238-0.213-0.329-0.343l-0.723-1.033c-0.045-0.065-0.103-0.12-0.17-0.163-0.097-0.062-0.175-0.152-0.224-0.257l-0.173-0.377c-0.024-0.052-0.056-0.099-0.095-0.141l-0.117-0.125c-0.026-0.028-0.062-0.043-0.1-0.043-0.058 0-0.11-0.037-0.129-0.092l-0.406-1.169c-0.014-0.042-0.035-0.081-0.062-0.117l-0.234-0.313c-0.040-0.054-0.022-0.131 0.039-0.161 0.052-0.026 0.115-0.006 0.142 0.045l1.248 2.315c0.069 0.128 0.148 0.251 0.236 0.367l2.852 3.764 0.973 1.009c0.198 0.205 0.414 0.392 0.646 0.558l0.243 0.174c0.073 0.053 0.152 0.098 0.234 0.136 0.389 0.18 0.837 0.181 1.226 0.001l0.302-0.14c0.129-0.060 0.263-0.106 0.401-0.14l1.021-0.247c0.123-0.030 0.221-0.122 0.259-0.243 0.019-0.061 0.054-0.116 0.102-0.159l0.277-0.252c0.035-0.032 0.058-0.074 0.065-0.12l0.003-0.020c0.007-0.046-0.005-0.093-0.035-0.129-0.058-0.070-0.047-0.175 0.025-0.231l0.636-0.496c0.102-0.080 0.158-0.205 0.149-0.334l-0-0.005c-0.010-0.147 0.066-0.286 0.194-0.359l0.097-0.055c0.042-0.024 0.092-0.026 0.137-0.008 0.105 0.044 0.128 0.182 0.043 0.258l-0.045 0.041c-0.068 0.062-0.084 0.162-0.038 0.242l0.151 0.26c0.033 0.056 0.075 0.106 0.125 0.148l0.436 0.366c0.139 0.117 0.295 0.21 0.463 0.278l0.112 0.045c0.172 0.069 0.358 0.098 0.543 0.084 0.207-0.016 0.407-0.086 0.579-0.202l0.069-0.046c0.067-0.045 0.126-0.102 0.174-0.167l0.014-0.019c0.091-0.122 0.136-0.272 0.128-0.424l-0.008-0.15c-0.006-0.103 0.036-0.203 0.113-0.272 0.033-0.029 0.071-0.052 0.112-0.066l0.562-0.2c0.218-0.077 0.443-0.132 0.672-0.164l1.043-0.143c0.126-0.017 0.254-0 0.371 0.049l0.12 0.051c0.089 0.037 0.188 0.040 0.278 0.006 0.083-0.031 0.174-0.031 0.258-0.002l0.138 0.049c0.068 0.024 0.133 0.058 0.192 0.1l0.125 0.089c0.194 0.139 0.443 0.174 0.668 0.094l0.018-0.006c0.082-0.029 0.169-0.041 0.256-0.036 0.124 0.008 0.242 0.052 0.341 0.126l0.394 0.296c0.069 0.052 0.148 0.088 0.232 0.108l0.118 0.027c0.052 0.012 0.106 0.007 0.154-0.014l0.024-0.010c0.047-0.020 0.083-0.059 0.101-0.107 0.030-0.081 0.111-0.131 0.197-0.121l0.034 0.004c0.061 0.007 0.117 0.039 0.155 0.088l0.099 0.127c0.042 0.054 0.058 0.123 0.044 0.19-0.019 0.088 0.016 0.179 0.087 0.233l0.285 0.215z"></path>
</svg>
