<!-- Generated by IcoMoon.io -->
<svg version="1.1" xmlns="http://www.w3.org/2000/svg" width="241" height="32" viewBox="0 0 241 32">
<path fill="#fff" d="M28.854 12.196c0.618 0.403 1.297 0.706 2.012 0.898v5.428c-2.913 0.785-5.058 3.382-5.058 6.452 0 0.574 0.075 1.141 0.224 1.69l-4.841 2.711c-0.543-0.517-1.167-0.942-1.853-1.261v-6.232c2.37-1.087 3.924-3.404 3.924-6.042 0-0.167-0.007-0.334-0.020-0.501l5.611-3.143zM29.043 10.021l-7.844 4.394c0.14 0.451 0.218 0.93 0.218 1.425 0 2.329-1.677 4.28-3.924 4.779v8.756c1.385 0.309 2.552 1.169 3.244 2.329l7.607-4.258c-0.436-0.725-0.686-1.567-0.686-2.465 0-2.708 2.266-4.905 5.058-4.905v-8.523c-1.45 0-2.75-0.589-3.674-1.532z"></path>
<path fill="#fff" d="M21.253 2.336l4.766 2.67c-0.14 0.536-0.211 1.087-0.211 1.642 0 0.186 0.007 0.372 0.023 0.558l-5.569 3.117c-1.141-0.76-2.506-1.176-3.908-1.176-1.391 0-2.75 0.413-3.888 1.163l-5.585-3.127c0.013-0.176 0.023-0.356 0.023-0.536 0-0.555-0.072-1.106-0.211-1.642l4.763-2.667c1.281 1.248 3.036 1.976 4.896 1.976 1.863 0 3.622-0.731 4.902-1.979zM20.771 0c-0.865 1.504-2.519 2.522-4.421 2.522s-3.556-1.018-4.421-2.518l-7.536 4.217c0.419 0.716 0.663 1.541 0.663 2.424 0 0.507-0.078 0.996-0.228 1.453l7.835 4.384c0.923-0.955 2.233-1.551 3.69-1.551 1.463 0 2.783 0.602 3.706 1.567l7.828-4.381c-0.149-0.466-0.234-0.961-0.234-1.475 0-0.883 0.241-1.708 0.663-2.424l-7.545-4.217z"></path>
<path fill="#fff" d="M3.878 12.183l5.595 3.133c-0.013 0.173-0.020 0.35-0.020 0.526 0 2.635 1.554 4.949 3.917 6.039v6.235c-0.683 0.318-1.31 0.744-1.85 1.258l-4.837-2.708c0.15-0.548 0.224-1.119 0.224-1.693 0-3.073-2.146-5.667-5.058-6.452v-5.425c0.718-0.195 1.408-0.504 2.029-0.914zM3.683 10.005c-0.923 0.952-2.23 1.544-3.683 1.544v8.52c2.793 0 5.058 2.197 5.058 4.904 0 0.898-0.25 1.74-0.686 2.465l7.601 4.255c0.693-1.157 1.856-2.017 3.241-2.326v-8.75c-2.243-0.501-3.917-2.449-3.917-4.778 0-0.504 0.078-0.99 0.224-1.447l-7.838-4.388z"></path>
<path fill="#fff" d="M65.808 22.638v-4.183c0-2.093-1.755-3.795-3.914-3.795h-16.602c-0.068 0-0.136 0.006-0.205 0.016h-0.592c-0.64 0-1.161-0.504-1.161-1.125v-4.183c0-0.621 0.52-1.125 1.161-1.125h19.72c0.761 0 1.378-0.599 1.378-1.336s-0.618-1.336-1.378-1.336h-19.72c-2.159 0-3.914 1.702-3.914 3.795v4.183c0 2.093 1.755 3.795 3.914 3.795h16.602c0.068 0 0.137-0.006 0.205-0.016h0.592c0.641 0 1.161 0.504 1.161 1.125v4.183c0 0.621-0.52 1.125-1.161 1.125h-19.72c-0.761 0-1.378 0.599-1.378 1.336s0.618 1.336 1.378 1.336h19.72c2.159 0 3.914-1.702 3.914-3.795z"></path>
<path fill="#fff" d="M93.883 22.616v-13.087c0-2.093-1.755-3.795-3.914-3.795h-17.327c-2.159 0-3.914 1.702-3.914 3.795v13.087c0 2.093 1.755 3.795 3.914 3.795h17.327c2.159 0 3.914-1.705 3.914-3.795zM71.481 9.529c0-0.621 0.52-1.125 1.16-1.125h17.327c0.64 0 1.16 0.504 1.16 1.125v13.087c0 0.621-0.52 1.125-1.16 1.125h-17.327c-0.64 0-1.16-0.504-1.16-1.125v-13.087z"></path>
<path fill="#fff" d="M240.943 22.616v-13.087c0-2.093-1.756-3.795-3.913-3.795h-17.329c-2.159 0-3.913 1.702-3.913 3.795v13.087c0 2.093 1.754 3.795 3.913 3.795h17.329c2.157 0 3.913-1.705 3.913-3.795zM218.545 9.529c0-0.621 0.52-1.125 1.16-1.125h17.327c0.642 0 1.161 0.504 1.161 1.125v13.087c0 0.621-0.52 1.125-1.161 1.125h-17.327c-0.64 0-1.16-0.504-1.16-1.125v-13.087z"></path>
<path fill="#fff" d="M99.97 25.076v-5.705h12.252c0.761 0 1.379-0.599 1.379-1.336s-0.618-1.336-1.379-1.336h-12.252v-7.168c0-0.621 0.52-1.125 1.161-1.125h16.891c0.761 0 1.379-0.599 1.379-1.336s-0.618-1.336-1.379-1.336h-16.891c-2.159 0-3.914 1.702-3.914 3.795v15.546c0 0.738 0.618 1.336 1.378 1.336 0.761 0.003 1.375-0.596 1.375-1.333z"></path>
<path fill="#fff" d="M123.386 8.405h9.607v16.39c0 0.738 0.617 1.336 1.378 1.336s1.378-0.599 1.378-1.336v-16.39h9.607c0.761 0 1.378-0.599 1.378-1.336s-0.617-1.336-1.378-1.336h-21.967c-0.76 0-1.378 0.599-1.378 1.336-0.003 0.738 0.614 1.336 1.375 1.336z"></path>
<path fill="#fff" d="M161.011 26.058c0.761 0 1.378-0.599 1.378-1.336v-5.352h18.413c2.159 0 3.914-1.702 3.914-3.795v-6.046c0-2.093-1.755-3.795-3.914-3.795h-17.253c-2.158 0-3.913 1.702-3.913 3.795v15.196c-0.004 0.735 0.614 1.333 1.375 1.333zM163.546 8.404h17.253c0.64 0 1.161 0.504 1.161 1.125v6.046c0 0.621-0.521 1.125-1.161 1.125h-18.413v-7.171c0-0.621 0.52-1.125 1.16-1.125z"></path>
<path fill="#fff" d="M189.067 26.058c0.76 0 1.378-0.599 1.378-1.336v-5.352h10.959c0.081 0.151 0.196 0.29 0.337 0.407l7.322 5.904c0.256 0.208 0.568 0.309 0.881 0.309 0.393 0 0.787-0.164 1.060-0.482 0.488-0.567 0.407-1.409-0.179-1.882l-5.28-4.258h3.313c2.159 0 3.913-1.702 3.913-3.795v-6.042c0-2.093-1.754-3.795-3.913-3.795h-17.254c-2.157 0-3.914 1.702-3.914 3.795v15.196c-0.003 0.735 0.616 1.333 1.376 1.333zM191.603 8.404h17.252c0.64 0 1.161 0.504 1.161 1.125v6.046c0 0.621-0.521 1.125-1.161 1.125h-18.413v-7.171c0-0.621 0.52-1.125 1.161-1.125z"></path>
</svg>
