<!-- Generated by IcoMoon.io -->
<svg version="1.1" xmlns="http://www.w3.org/2000/svg" width="9" height="32" viewBox="0 0 9 32">
<path fill="#e0fc52" d="M3.054 6.265c-2.051-0.376-1.858 0.351-1.375 2.172 0.065 0.246 0.136 0.512 0.207 0.798 0.373 0.356 1.122 1.471 1.424 2.378 0.394 1.181 0.382-0.169 0.376-0.907-0.001-0.082-0.001-0.156-0.001-0.218 0-0.524-0.176-0.74-0.49-1.128-0.061-0.075-0.127-0.156-0.197-0.247-0.437-0.563-0.25-0.75 0.062-0.688 0.151 0.030 0.303 0.368 0.404 0.595 0.108 0.242 0.16 0.358 0.096-0.158-0.125-1 0.562-2.313 0.562 0.437 0 1.537 0.371 0.77 0.763-0.042 0.31-0.641 0.633-1.309 0.799-0.896 0.177 0.442-0.077 0.745-0.434 1.171-0.4 0.478-0.93 1.11-1.128 2.266-0.375 2.188 0 2.75 0.812 2 0.467-0.431 1.078-0.986 1.596-1.403 0.037-0.329 0.082-0.653 0.126-0.96 0.077-0.541 0.146-1.033 0.146-1.421 0-0.622 0.272-1.142 0.514-1.607 0.416-0.797 0.748-1.433-0.514-2.143-1.547-0.871-1.486-1.217-1.234-2.633 0.074-0.414 0.163-0.919 0.234-1.555 0.312-2.813-2.749-2.875-2.374 0.75 0.295 2.856 0.312 3.813-0.375 3.437zM2.107 10.206c0.272 1.336 0.467 3.001 0.26 4.996-0.033 0.322-0.108 0.592-0.211 0.829 0.361 0.498 0.751 1.128 1.091 1.831 0.62 1.282 0.556-0.363 0.497-1.912-0.031-0.793-0.060-1.562 0.003-1.9 0.121-0.644-0.691-2.117-1.335-3.285-0.108-0.197-0.212-0.385-0.306-0.559zM1.951 16.416c-0.174 0.274-0.386 0.51-0.604 0.754-0.466 0.521-0.963 1.078-1.199 2.109 0.71 0.548 2.572 3.154 3.161 4.332 0.75 1.5 0.562-2.625 0.437-4.062-0.072-0.831-1.021-2.12-1.796-3.134zM0.051 19.867c-0.068 0.656 0.081 1.606 0.353 2.689 0.646 0.75 1.402 1.714 2.003 2.479 0.441 0.562 0.798 1.017 0.966 1.202 0.497 0.547 0.48 0.104 0.452-0.604-0.007-0.181-0.015-0.38-0.015-0.584 0-0.471-0.125-0.554-0.336-0.693-0.236-0.156-0.58-0.382-0.976-1.307-0.378-0.883-1.012-1.544-1.562-2.118-0.364-0.379-0.691-0.721-0.885-1.065zM0.679 23.561c0.653 2.218 1.666 4.754 2.374 6.452 0.039-0.105 0.093-0.236 0.153-0.384 0.276-0.677 0.697-1.712 0.604-2.267-0.059-0.357-1.237-1.676-2.407-2.988-0.245-0.274-0.49-0.549-0.724-0.814zM3.463 30.985c0.048 0.114 0.093 0.219 0.134 0.315 0.056 0.132 0.105 0.245 0.144 0.339 0.618 1.462 1.793-2.084 2.75-5.723-0.479 0.405-0.909 0.737-1.182 0.883-0.75 0.4-0.854 2.833-0.812 4-0.232 0.464-0.684 0.416-1.034 0.186zM6.753 24.903c0.017-0.067 0.034-0.134 0.050-0.2 0.224-0.896 0.532-1.742 0.848-2.528-0.555 0.467-1.238 1.006-1.967 1.563-1.633 1.247-1.581 1.34-1.39 1.684 0.087 0.156 0.203 0.363 0.203 0.754 0 0.868 1.055-0.133 2.16-1.181 0.032-0.030 0.064-0.061 0.096-0.091zM8.173 20.916c0.873-2.086 1.445-3.628-0.183-4.401-1.409-0.669-1.607-2.113-1.511-3.548-0.695 0.676-1.567 1.423-1.982 1.583-0.62 0.239-0.512 1.751-0.426 2.954 0.027 0.373 0.051 0.717 0.051 0.983 0 0.764 0.548 0.087 1.232-0.759 0.323-0.4 0.677-0.837 1.018-1.178 1.062-1.062 0.75 0.625-1.062 1.938-1.195 0.866-1.167 1.242-1.117 1.918 0.026 0.349 0.058 0.778-0.070 1.395-0.212 1.025 0.755-0.069 1.817-1.27 0.815-0.922 1.685-1.907 2.12-2.042 0.8-0.25 0.333 0.604 0 1.062-1.021 0.833-3.237 2.837-3.936 4.188-0.46 0.888 0.411 0.132 1.54-0.847 0.842-0.73 1.827-1.584 2.511-1.974z"></path>
</svg>
