<!-- Generated by IcoMoon.io -->
<svg version="1.1" xmlns="http://www.w3.org/2000/svg" width="32" height="32" viewBox="0 0 32 32">
<path fill="#2969f6" d="M5.99 1.812c10.172-3.123 20.259-3.387 24.619 9.288s-5.551 18.679-11.52 20.335c-5.969 1.656-10.571-0.060-16.992-11.956-5.137-9.517 0.455-15.743 3.893-17.667zM9.156 1.786c0.206 1.477 0.259 5.162-1.181 8.089s-5.037 3.582-6.655 3.542c-0.582 0.201-0.034 0.86 0.312 1.165 3.96 2.286 7.689-0.529 9.283-2.204s3.283-10.411 2.272-11.219c-0.809-0.646-3.024 0.149-4.031 0.627zM8.15 2.055c-0.345-0.271-1.198 0.472-1.581 0.878 0.451 5.496-3.357 6.744-4.628 7.084-1.017 0.273-1.065 1.534-0.962 2.13-0.144 0.663 0.487 1.481 4.166-0.549 4.598-2.537 3.436-9.204 3.005-9.543zM1.799 9.488c0.838-0.262 2.7-1.189 3.45-2.797s0.472-2.755 0.24-3.128c-1.418 0.777-4.142 3.051-3.69 5.925zM9.689 14.578c-3.506 2.165-6.905 1.34-8.166 0.657-0.703-0.084 0.498 2.212 1.186 3.37 0.786-0.456 3.758-0.928 9.361 0.839 7.004 2.208 6.408 9.516 6.272 10.914-0.109 1.119 1.353 0.318 2.097-0.222-0.974-3.266 0.223-6.549 1.268-9.416v-0l0-0v-0l0-0 0-0c0.148-0.407 0.294-0.805 0.429-1.194 0.962-2.758 6.148-3.078 7.736-3.176v0h0c0.214-0.013 0.362-0.022 0.426-0.033 0.435-0.071-0.113-2.258-0.441-3.343-1.898 0.963-5.246 0.328-8.945-1.404-3.283-1.537-4.501-7.382-4.902-9.307-0.051-0.244-0.088-0.425-0.116-0.526-0.193-0.72-1.272-0.51-1.787-0.315 0.493 1.627-0.038 10.45-4.42 13.156zM3.106 19.236c-0.071 0.019-0.107 0.278 0.312 1.165s0.637 0.964 0.693 0.892c3.093-0.829 5.249 0.319 7.493 1.513h0l0 0c0.329 0.175 0.661 0.352 0.997 0.523 2.628 1.338 2.484 4.611 2.348 6.86-0.108 1.799 1.497 1.282 2.313 0.798 0.26-2.207-0.052-7.271-3.383-9.873s-8.57-2.336-10.774-1.878zM5.515 23.357c0.096 0.013 0.273 0.024 0.511 0.038 1.506 0.093 5.416 0.335 6.147 2.149 0.422 1.048 0.653 2.33 0.842 3.378 0.189 1.052 0.336 1.866 0.591 1.968 0.031 0.013 0.063 0.026 0.096 0.039 0.49 0.198 1.050 0.424 0.957 0.077-0.023-0.086-0.033-0.384-0.047-0.801-0.047-1.386-0.139-4.081-0.894-4.621-0.176-0.125-0.365-0.336-0.598-0.595-1.070-1.189-3.056-3.398-8.836-3.060 0.176 0.445 0.669 1.353 1.234 1.428zM5.727 24.151c1.272 2.136 4.444 6.423 6.955 6.476-0.018-1.338-0.368-4.213-1.626-5.011s-4.077-1.309-5.329-1.465zM16.65 0.741c0.009-0.072 0.032-0.072 0.071 0.016l-0.071-0.016zM16.722 0.758c0.142 0.321 0.498 1.813 1.174 5.267 1.076 5.499 7.348 6.881 10.232 6.846 2.098-0.026 1.902-0.548 1.631-1.265-0.101-0.269-0.213-0.565-0.218-0.873-0.015-0.904-0.334-0.894-0.492-0.776-1.891 1.415-5.019 1.175-7.458-0.725-1.951-1.52-2.67-6.225-2.766-7.996l-2.104-0.479zM19.652 1.355c-0.287 1.893 1.218 6.028 2.37 7.365 2.404 2.788 10.74-0.155 5.819 0.54-4.77 0.674-6.583-6.322-6.831-7.283l-0-0-0-0-0-0-0-0v-0c-0.008-0.030-0.014-0.054-0.019-0.072-0.125-0.466-0.945-0.56-1.339-0.549zM21.923 1.995c0.115 2.125 1.875 7.168 6.758 6.586-0.772-1.892-3.45-6.61-6.758-6.586zM25.502 26.794c0 0-0.327 0.686 0.301 0.487 2.719-0.865 3.845-4.075 4.068-5.573-3.909 0.321-4.541 3.524-4.369 5.086zM25.082 27.133c0.016-0.403-0.024-0.814-0.063-1.221-0.123-1.271-0.241-2.495 1.358-3.268 0.943-0.456 1.783-0.748 2.442-0.977v0c0.815-0.283 1.352-0.47 1.465-0.751 0.030-0.075 0.081-0.173 0.139-0.284v0c0.333-0.638 0.884-1.693-1.147-1.148-0.478 0.128-0.995 0.221-1.521 0.316-2.095 0.376-4.327 0.777-4.77 3.527-0.554 3.439-0.070 5.806 0.387 5.683 0.548-0.071 1.658-0.547 1.71-1.877zM21.357 30.174c0.382-0.197 1.21-0.608 1.464-0.676 0.112-0.030 0.020-0.216-0.133-0.527-0.282-0.573-0.773-1.571-0.587-2.797 0.071-0.47 0.092-1.011 0.114-1.568 0.065-1.685 0.137-3.52 1.628-4.005 0.57-0.186 1.291-0.44 2.042-0.704h0c1.86-0.655 3.903-1.375 4.293-1.278 0.547 0.137 1.439-1.407 0.8-1.463s-5.469-0.293-7.035 1.488c-1.566 1.781-2.521 4.91-2.908 7.361-0.168 1.066-0.419 4.367 0.322 4.169z"></path>
</svg>
