<!-- Generated by IcoMoon.io -->
<svg version="1.1" xmlns="http://www.w3.org/2000/svg" width="26" height="32" viewBox="0 0 26 32">
<path d="M8.277 0.215c0.129 0.031 0.234 0.122 0.285 0.245l0.051 0.124c0.019 0.046 0.014 0.099-0.012 0.141-0.046 0.072-0.024 0.167 0.048 0.213l0.134 0.085c0.024 0.015 0.049 0.027 0.076 0.035l0.198 0.059c0.028 0.008 0.058-0.004 0.071-0.030 0.016-0.031 0.054-0.042 0.084-0.025l0.020 0.011c0.010 0.006 0.019 0.014 0.026 0.023l0.141 0.199c0.053 0.075 0.078 0.167 0.069 0.259l-0.024 0.247c-0.005 0.055 0.032 0.105 0.086 0.116 0.043 0.009 0.076 0.042 0.085 0.086l0.001 0.007c0.009 0.047 0.046 0.084 0.093 0.094l0.105 0.021c0.102 0.021 0.184 0.096 0.212 0.196l0.001 0.003c0.031 0.109 0.123 0.189 0.235 0.204l0.017 0.002c0.116 0.015 0.213 0.095 0.251 0.205l0.008 0.023c0.014 0.041 0.018 0.085 0.012 0.127-0.015 0.1 0.028 0.2 0.111 0.257l0.218 0.151c0.103 0.071 0.156 0.195 0.137 0.319l-0.003 0.021c-0.009 0.057-0.037 0.11-0.079 0.15l-0.052 0.049c-0.048 0.046-0.063 0.116-0.037 0.178l0.004 0.010c0.024 0.057 0.009 0.123-0.038 0.164l-0.159 0.139c-0.037 0.032-0.017 0.093 0.032 0.096 0.020 0.002 0.038 0.014 0.046 0.033l0.111 0.26c0.032 0.076 0.038 0.161 0.014 0.24l-0.001 0.003c-0.015 0.052-0.018 0.108-0.008 0.161l0.011 0.055c0.017 0.090 0.083 0.163 0.171 0.191l0.055 0.017c0.096 0.030 0.151 0.129 0.127 0.226-0.012 0.047-0.005 0.097 0.019 0.14l0.008 0.014c0.042 0.074 0.121 0.118 0.206 0.115l0.054-0.002c0.134-0.004 0.256 0.076 0.306 0.2l0.054 0.135c0.015 0.038 0.039 0.073 0.070 0.101l0.097 0.089c0.024 0.022 0.033 0.057 0.021 0.088-0.015 0.042 0.006 0.089 0.048 0.105l0.134 0.051c0.089 0.034 0.147 0.119 0.146 0.214l-0.001 0.123c-0 0.017-0.006 0.033-0.016 0.045l-0.006 0.007c-0.032 0.040-0.011 0.099 0.039 0.109 0.022 0.004 0.044-0.002 0.060-0.017l0.052-0.049c0.038-0.036 0.089-0.057 0.141-0.057h0.009c0.059 0 0.115 0.023 0.158 0.064l0.141 0.136c0.047 0.045 0.102 0.081 0.163 0.104l0.088 0.034c0.061 0.024 0.111 0.070 0.139 0.129l0.007 0.015c0.028 0.061 0.083 0.105 0.148 0.121 0.038 0.009 0.073 0.028 0.101 0.056l0.049 0.048c0.108 0.104 0.161 0.253 0.142 0.402l-0.006 0.049c-0.020 0.154 0.024 0.31 0.121 0.431l0.020 0.025c0.058 0.073 0.096 0.161 0.107 0.254l0.002 0.013c0.012 0.1-0.008 0.201-0.058 0.288-0.061 0.107-0.162 0.186-0.281 0.218l-0.197 0.055c-0.094 0.026-0.193 0.029-0.289 0.009l-0.202-0.043c-0.104-0.022-0.212 0.017-0.277 0.101-0.040 0.051-0.096 0.086-0.16 0.1l-0.346 0.076c-0.041 0.009-0.084 0.006-0.124-0.008l-0.054-0.019c-0.059-0.021-0.124-0.002-0.162 0.047-0.018 0.023-0.043 0.040-0.072 0.049l-0.239 0.073c-0.067 0.020-0.138 0.026-0.208 0.017l-0.058-0.007c-0.089-0.012-0.18 0.012-0.253 0.065l-0.248 0.182c-0.030 0.022-0.035 0.066-0.011 0.094 0.016 0.018 0.040 0.027 0.064 0.021l0.015-0.003c0.045-0.011 0.091 0.015 0.106 0.059l0.011 0.033c0.014 0.043 0.053 0.073 0.097 0.076l0.051 0.004c0.028 0.002 0.050 0.025 0.051 0.053 0.001 0.032 0.029 0.057 0.061 0.053l0.12-0.012c0.084-0.009 0.162 0.047 0.18 0.13l0.086 0.382c0.017 0.074 0.087 0.123 0.162 0.113l0.022-0.003c0.069-0.009 0.132 0.041 0.14 0.11l0.009 0.083c0.007 0.059 0.075 0.088 0.122 0.053 0.038-0.028 0.092-0.016 0.114 0.026l0.113 0.219c0.018 0.036 0.029 0.075 0.031 0.115l0.006 0.101c0.007 0.125 0.108 0.225 0.232 0.233 0.074 0.005 0.143 0.044 0.184 0.105l0.037 0.055c0.014 0.021 0.019 0.046 0.013 0.070-0.009 0.040-0.045 0.069-0.086 0.070-0.052 0.001-0.093 0.045-0.090 0.097l0.011 0.164c0.006 0.1-0.050 0.194-0.142 0.235-0.034 0.015-0.064 0.038-0.088 0.067l-0.081 0.099c-0.053 0.064-0.071 0.15-0.049 0.23l0.010 0.037c0.013 0.046 0.005 0.094-0.020 0.134l-0.011 0.018c-0.018 0.028-0.047 0.047-0.079 0.053l-0.070 0.013c-0.041 0.007-0.064 0.051-0.047 0.089l0.005 0.011c0.013 0.028-0.001 0.061-0.030 0.072-0.026 0.009-0.041 0.038-0.033 0.065l0.026 0.089c0.020 0.069 0.085 0.114 0.157 0.109l0.010-0.001c0.049-0.004 0.097 0.015 0.131 0.051l0.095 0.1c0.022 0.023 0.053 0.034 0.084 0.029l0.049-0.007c0.041-0.006 0.076 0.030 0.069 0.071s0.027 0.077 0.069 0.071l0.039-0.005c0.018-0.002 0.037 0.001 0.053 0.009l0.181 0.092c0.047 0.024 0.082 0.068 0.095 0.12 0.013 0.054 0.001 0.11-0.032 0.154l-0.136 0.179c-0.028 0.038-0.074 0.058-0.121 0.055l-0.046-0.003c-0.076-0.006-0.134 0.068-0.111 0.14 0.007 0.023 0.007 0.047-0.001 0.070l-0.033 0.092c-0.007 0.019-0.026 0.030-0.046 0.026-0.021-0.004-0.041 0.009-0.047 0.030l-0.018 0.070c-0.010 0.038-0.037 0.068-0.074 0.081l-0.075 0.028c-0.060 0.022-0.089 0.092-0.062 0.15s-0.001 0.127-0.060 0.15l-0.027 0.010c-0.028 0.011-0.050 0.035-0.056 0.065-0.010 0.041 0.010 0.083 0.047 0.102l0.587 0.303c0.054 0.028 0.116 0.040 0.177 0.034 0.068-0.007 0.133-0.037 0.183-0.084l0.197-0.186c0.132-0.125 0.327-0.155 0.491-0.078l0.145 0.069c0.031 0.015 0.067 0.014 0.097-0.001 0.034-0.017 0.075-0.015 0.108 0.005l0.266 0.164c0.034 0.021 0.073 0.035 0.113 0.040l0.088 0.011c0.049 0.006 0.098-0.016 0.127-0.056 0.026-0.037 0.068-0.058 0.112-0.057l0.043 0.001c0.041 0.001 0.082 0.013 0.116 0.036l0.134 0.090c0.098 0.066 0.231 0.042 0.301-0.053 0.050-0.068 0.134-0.101 0.217-0.086l0.113 0.020c0.177 0.032 0.313 0.177 0.332 0.356l0.024 0.217c0.013 0.118 0.074 0.225 0.169 0.296l0.21 0.157c0.047 0.035 0.113 0.031 0.156-0.010 0.029-0.028 0.070-0.040 0.11-0.031l0.277 0.062c0.040 0.009 0.082-0.005 0.109-0.036 0.042-0.049 0.115-0.052 0.162-0.008l0.066 0.063c0.024 0.023 0.055 0.038 0.088 0.043l0.021 0.003c0.074 0.010 0.142-0.040 0.155-0.113 0.005-0.031 0.020-0.059 0.043-0.079l0.138-0.124c0.044-0.039 0.109-0.044 0.157-0.011 0.032 0.022 0.072 0.028 0.109 0.017l0.084-0.026c0.040-0.012 0.076-0.036 0.103-0.069l0.013-0.016c0.038-0.046 0.097-0.070 0.157-0.063l0.021 0.002c0.074 0.009 0.143-0.038 0.163-0.11 0.009-0.034 0.030-0.063 0.059-0.083l0.16-0.113c0.085-0.060 0.188-0.087 0.291-0.077 0.071 0.007 0.138 0.031 0.197 0.070l0.137 0.091c0.023 0.015 0.038 0.039 0.044 0.065 0.015 0.075 0.105 0.108 0.164 0.060l0.042-0.034c0.017-0.014 0.030-0.031 0.038-0.050l0.011-0.026c0.041-0.094 0.135-0.153 0.237-0.15l0.262 0.007c0.027 0.001 0.054 0.006 0.079 0.017 0.113 0.047 0.166 0.177 0.119 0.29l-0.052 0.123c-0.026 0.063-0.034 0.131-0.022 0.198l0.028 0.159c0.006 0.032-0.004 0.064-0.027 0.088-0.037 0.038-0.038 0.098-0.003 0.137l0.034 0.039c0.021 0.024 0.034 0.053 0.038 0.085l0.014 0.116c0.008 0.066 0.049 0.124 0.108 0.154l0.055 0.028c0.068 0.034 0.095 0.117 0.061 0.185-0.024 0.048-0.018 0.107 0.016 0.149l0.048 0.058c0.017 0.021 0.024 0.049 0.018 0.076-0.010 0.048-0.056 0.078-0.104 0.070l-0.045-0.008c-0.020-0.003-0.040 0.006-0.050 0.023-0.020 0.034 0.006 0.076 0.045 0.074l0.012-0.001c0.022-0.002 0.043 0.010 0.053 0.029l0.168 0.316c0.029 0.054 0.076 0.096 0.132 0.118 0.084 0.033 0.179 0.020 0.251-0.035l0.171-0.132c0.034-0.026 0.081-0.030 0.119-0.009l0.061 0.033c0.035 0.019 0.078-0.001 0.086-0.040 0.004-0.020 0.018-0.037 0.038-0.044l0.234-0.083c0.012-0.004 0.021-0.016 0.023-0.029 0.003-0.024 0.029-0.038 0.051-0.027l0.272 0.148c0.045 0.025 0.097 0.034 0.148 0.027l0.056-0.007c0.074-0.010 0.147 0.025 0.186 0.089 0.022 0.036 0.056 0.064 0.096 0.079 0.069 0.026 0.117 0.088 0.125 0.161l0.003 0.030c0.010 0.103-0.047 0.2-0.142 0.24l-0.006 0.002c-0.036 0.015-0.067 0.040-0.090 0.072l-0.017 0.024c-0.040 0.055-0.108 0.081-0.175 0.066-0.142-0.033-0.255 0.118-0.185 0.246l0.061 0.109c0.035 0.063 0.038 0.14 0.006 0.206l-0.143 0.298c-0.016 0.034-0.017 0.072-0.002 0.106 0.018 0.042 0.057 0.072 0.103 0.078l0.193 0.024c0.027 0.003 0.048 0.025 0.051 0.053s0.023 0.049 0.050 0.053l0.083 0.011c0.045 0.006 0.085 0.030 0.111 0.066l0.025 0.035c0.016 0.022 0.026 0.047 0.030 0.074l0.007 0.043c0.008 0.051-0.018 0.101-0.065 0.123-0.065 0.031-0.087 0.113-0.044 0.172l0.026 0.036c0.026 0.036 0.022 0.085-0.009 0.116-0.042 0.042-0.032 0.112 0.019 0.142l0.063 0.036c0.023 0.013 0.041 0.032 0.054 0.054l0.044 0.077c0.046 0.080 0.067 0.171 0.061 0.263l-0.014 0.227c-0.010 0.163 0.063 0.32 0.195 0.418l0.041 0.030c0.060 0.045 0.133 0.068 0.208 0.066l0.078-0.002c0.028-0.001 0.056 0.009 0.078 0.026 0.040 0.032 0.055 0.086 0.039 0.134l-0.112 0.323c-0.008 0.023-0.008 0.048 0.001 0.070 0.016 0.043 0.003 0.091-0.034 0.118l-0.093 0.070c-0.027 0.021-0.040 0.056-0.031 0.089l0.004 0.016c0.006 0.022 0.023 0.038 0.045 0.043 0.035 0.007 0.056 0.044 0.043 0.078l-0.034 0.088c-0.013 0.034-0.012 0.071 0.002 0.104l0.028 0.065c0.021 0.048 0.053 0.090 0.095 0.122l0.095 0.074c0.046 0.036 0.067 0.096 0.054 0.153l-0.002 0.008c-0.023 0.097-0.134 0.142-0.218 0.089-0.037-0.023-0.082-0.029-0.123-0.015l-0.426 0.142c-0.062 0.021-0.108 0.073-0.121 0.137-0.008 0.042-0.001 0.085 0.020 0.123l0.168 0.302c0.050 0.090 0.037 0.201-0.032 0.276-0.095 0.105-0.079 0.269 0.035 0.352l0.034 0.025c0.059 0.043 0.099 0.108 0.11 0.181l0.026 0.167c0.015 0.094 0.049 0.185 0.1 0.265l0.2 0.313c0.059 0.092 0.139 0.169 0.232 0.225l0.59 0.354c0.029 0.017 0.065 0.007 0.081-0.023 0.020-0.038 0.072-0.042 0.097-0.008l0.062 0.083c0.016 0.022 0.025 0.048 0.025 0.075l-0.007 0.724c-0.001 0.066 0.035 0.127 0.093 0.159l0.102 0.057c0.038 0.021 0.050 0.070 0.025 0.106-0.021 0.030-0.016 0.071 0.011 0.096l0.116 0.108c0.030 0.028 0.070 0.044 0.111 0.045l0.212 0.003c0.027 0.001 0.044 0.029 0.032 0.053-0.011 0.021 0.001 0.047 0.024 0.052l0.077 0.018c0.052 0.013 0.084 0.064 0.073 0.117l-0.012 0.054c-0.010 0.043-0.042 0.078-0.085 0.090l-0.003 0.001c-0.039 0.011-0.070 0.043-0.080 0.082-0.013 0.051-0.059 0.087-0.111 0.087h-0.033c-0.027 0-0.053-0.008-0.074-0.023l-0.072-0.050c-0.015-0.010-0.019-0.030-0.010-0.045 0.011-0.020 0-0.045-0.022-0.051l-0.199-0.046c-0.053-0.012-0.108-0.001-0.152 0.031l-0.067 0.049c-0.036 0.026-0.078 0.041-0.122 0.044l-0.257 0.017c-0.080 0.005-0.121 0.098-0.071 0.16 0.026 0.033 0.029 0.079 0.006 0.114l-0.002 0.003c-0.031 0.049-0.095 0.063-0.144 0.033l-0.049-0.030c-0.027-0.017-0.062-0.014-0.086 0.007-0.027 0.024-0.068 0.024-0.095 0l-0.234-0.205c-0.033-0.029-0.075-0.047-0.118-0.051l-0.026-0.002c-0.048-0.004-0.091-0.031-0.117-0.071l-0.006-0.010c-0.052-0.081-0.166-0.091-0.232-0.021-0.027 0.029-0.065 0.046-0.105 0.047l-0.074 0.002c-0.060 0.001-0.107 0.052-0.104 0.112 0.004 0.088-0.094 0.143-0.167 0.093l-0.141-0.098c-0.084-0.058-0.199-0.040-0.261 0.042l-0.107 0.142c-0.048 0.063-0.032 0.154 0.035 0.197 0.083 0.054 0.083 0.176-0 0.23l-0.026 0.017c-0.028 0.018-0.060 0.026-0.092 0.025l-0.077-0.004c-0.12-0.006-0.225 0.077-0.248 0.195l-0.021 0.107c-0.011 0.054-0.059 0.093-0.114 0.091l-0.034-0.001c-0.029-0.001-0.054 0.017-0.064 0.043-0.013 0.036-0.054 0.053-0.089 0.038l-0.221-0.099c-0.033-0.015-0.072 0.001-0.085 0.035s-0.053 0.050-0.086 0.034l-0.168-0.080c-0.091-0.043-0.2-0.024-0.271 0.048l-0.163 0.166c-0.043 0.044-0.095 0.079-0.152 0.102l-0.183 0.076c-0.072 0.030-0.117 0.102-0.111 0.179 0.003 0.044-0.010 0.087-0.037 0.122l-0.186 0.244c-0.021 0.027-0.055 0.040-0.089 0.033-0.038-0.008-0.067-0.041-0.069-0.081l-0.001-0.018c-0.003-0.048-0.036-0.088-0.082-0.101l-0.084-0.023c-0.017-0.005-0.035 0.005-0.041 0.021-0.009 0.025-0.043 0.030-0.060 0.009l-0.011-0.014c-0.007-0.010-0.019-0.016-0.031-0.018l-0.105-0.009c-0.106-0.010-0.188 0.090-0.158 0.192 0.022 0.078-0.021 0.159-0.098 0.185l-0.086 0.028c-0.040 0.013-0.082 0.016-0.122 0.008l-0.722-0.138c-0.047-0.009-0.095 0.004-0.132 0.035-0.031 0.027-0.072 0.040-0.113 0.038l-0.196-0.013c-0.029-0.002-0.056 0.014-0.067 0.041-0.009 0.020-0.026 0.034-0.047 0.039l-0.386 0.091c-0.046 0.011-0.085-0.035-0.067-0.079 0.012-0.030-0.002-0.064-0.031-0.076l-0.043-0.018c-0.030-0.013-0.064-0.010-0.093 0.006l-0.104 0.061c-0.095 0.056-0.154 0.157-0.154 0.267l-0.001 0.248c-0 0.046-0.039 0.081-0.084 0.078l-0.053-0.003c-0.028-0.002-0.046-0.031-0.035-0.057 0.008-0.019 0.001-0.041-0.017-0.051l-0.010-0.006c-0.022-0.013-0.051-0.009-0.068 0.011l-0.052 0.059c-0.027 0.031-0.076 0.030-0.101-0.002-0.019-0.024-0.052-0.031-0.080-0.018l-0.069 0.032c-0.047 0.022-0.102 0.020-0.148-0.005l-0.24-0.133c-0.045-0.025-0.099-0.024-0.142 0.003-0.048 0.029-0.11 0.027-0.156-0.006l-0.103-0.074c-0.045-0.032-0.082-0.075-0.106-0.125l-0.071-0.144c-0.025-0.051-0.030-0.11-0.013-0.164l0.017-0.054c0.014-0.044 0.002-0.092-0.030-0.125-0.047-0.048-0.048-0.125-0.001-0.174l0.212-0.225c0.032-0.034 0.058-0.073 0.075-0.116l0.008-0.020c0.047-0.113 0.031-0.243-0.042-0.342l-0.048-0.064c-0.019-0.026-0.047-0.044-0.079-0.050l-0.090-0.019c-0.023-0.005-0.045 0.010-0.050 0.033-0.006 0.030-0.040 0.043-0.065 0.026l-0.026-0.018c-0.015-0.010-0.024-0.026-0.026-0.043l-0.021-0.16c-0.026-0.193-0.178-0.344-0.37-0.369l-0.084-0.011c-0.102-0.013-0.198-0.055-0.276-0.12l-0.226-0.188-0.012-0.011c-0.063-0.061-0.084-0.153-0.055-0.236s0.008-0.174-0.054-0.235l-0.139-0.138c-0.028-0.028-0.032-0.071-0.011-0.104 0.024-0.036 0.016-0.084-0.018-0.11l-0.742-0.584c-0.24-0.189-0.392-0.47-0.418-0.774l-0.050-0.571c-0.006-0.070-0.041-0.135-0.096-0.179l-0.065-0.052c-0.065-0.052-0.158-0.048-0.218 0.010-0.037 0.036-0.089 0.053-0.14 0.045l-0.085-0.013c-0.066-0.010-0.133-0.001-0.194 0.027l-0.269 0.124c-0.080 0.037-0.133 0.114-0.139 0.202l-0.002 0.029c-0.003 0.048-0.026 0.093-0.064 0.123l-0.052 0.041c-0.037 0.030-0.089 0.028-0.124-0.004-0.037-0.034-0.042-0.090-0.011-0.129l0.013-0.017c0.048-0.063 0.022-0.155-0.052-0.183l-0.155-0.059c-0.042-0.016-0.089-0.011-0.126 0.014l-0.178 0.116c-0.040 0.026-0.091-0.009-0.081-0.056 0.005-0.021-0.004-0.042-0.021-0.055l-0.462-0.333c-0.115-0.083-0.275-0.062-0.365 0.048l-0.044 0.053c-0.079 0.097-0.225 0.102-0.311 0.012-0.039-0.041-0.093-0.064-0.15-0.064h-0.027c-0.035 0-0.070 0.007-0.102 0.020l-0.459 0.187c-0.038 0.015-0.056 0.058-0.042 0.096 0.010 0.027 0.034 0.046 0.062 0.049l0.147 0.017c0.032 0.004 0.061 0.020 0.080 0.046l0.002 0.003c0.027 0.035 0.031 0.081 0.012 0.12-0.013 0.026-0.035 0.046-0.062 0.056l-0.315 0.119c-0.083 0.031-0.161 0.076-0.231 0.132l-0.139 0.111c-0.044 0.035-0.097 0.056-0.153 0.060-0.064 0.004-0.128-0.014-0.18-0.051l-0.058-0.042c-0.047-0.034-0.099-0.058-0.155-0.073l-1.097-0.292c-0.096-0.026-0.197-0.027-0.294-0.004l-0.119 0.029c-0.025 0.006-0.049 0.019-0.068 0.037l-0.008 0.008c-0.055 0.052-0.141 0.050-0.193-0.005l-0.043-0.046c-0.040-0.043-0.111-0.035-0.141 0.015l-0.031 0.052c-0.027 0.046-0.096 0.038-0.112-0.013-0.006-0.019-0.021-0.034-0.041-0.040l-0.052-0.016c-0.035-0.011-0.072-0.010-0.106 0.003l-0.176 0.065c-0.019 0.007-0.032 0.024-0.033 0.044-0.003 0.040-0.048 0.061-0.080 0.038l-0.034-0.025c-0.013-0.009-0.022-0.022-0.027-0.037l-0.021-0.065c-0.027-0.081-0.103-0.134-0.188-0.131l-0.021 0.001c-0.090 0.004-0.166-0.064-0.174-0.153-0.008-0.085-0.078-0.151-0.164-0.153l-0.262-0.005c-0.052-0.001-0.097-0.038-0.108-0.089-0.009-0.041-0.039-0.073-0.079-0.085l-0.033-0.009c-0.032-0.009-0.061-0.028-0.083-0.053l-0.022-0.026c-0.088-0.104-0.238-0.129-0.355-0.060l-0.004 0.002c-0.079 0.046-0.131 0.128-0.14 0.219l-0.015 0.154c-0.006 0.063-0.044 0.119-0.101 0.148-0.040 0.020-0.086 0.026-0.129 0.015l-0.13-0.032c-0.049-0.012-0.092-0.040-0.124-0.079-0.069-0.084-0.186-0.109-0.283-0.062l-0.218 0.107c-0.074 0.036-0.163 0.018-0.217-0.045-0.029-0.034-0.070-0.056-0.114-0.061l-0.118-0.015c-0.083-0.011-0.157-0.059-0.201-0.132-0.060-0.101-0.050-0.229 0.026-0.319l0.288-0.34c0.021-0.025 0.035-0.055 0.041-0.087l0.014-0.076c0.005-0.025 0.023-0.046 0.048-0.052l0.010-0.002c0.053-0.014 0.063-0.084 0.016-0.112-0.025-0.015-0.036-0.045-0.027-0.073l0.136-0.401c0.008-0.023 0.008-0.048-0-0.070-0.018-0.051 0.005-0.108 0.054-0.132l0.090-0.045c0.072-0.036 0.119-0.107 0.123-0.188l0.018-0.346c0.002-0.030-0.005-0.060-0.019-0.087-0.052-0.097 0.003-0.217 0.11-0.24l0.445-0.098c0.024-0.005 0.046-0.015 0.067-0.028l0.145-0.093c0.029-0.019 0.035-0.059 0.013-0.085-0.012-0.014-0.031-0.022-0.050-0.019l-0.051 0.006c-0.049 0.006-0.097-0.021-0.117-0.066-0.019-0.041-0.060-0.067-0.105-0.067h-0.014c-0.050 0-0.096-0.028-0.12-0.072l-0.241-0.45c-0.026-0.049-0.014-0.109 0.029-0.144 0.036-0.030 0.051-0.078 0.037-0.123l-0.059-0.194c-0.021-0.068-0.005-0.142 0.042-0.195l0.133-0.151c0.028-0.032 0.016-0.081-0.023-0.097-0.033-0.013-0.047-0.051-0.032-0.083l0.046-0.095c0.018-0.037 0.021-0.078 0.009-0.117l-0.038-0.124c-0.017-0.054-0.001-0.114 0.041-0.153l0.004-0.004c0.025-0.023 0.059-0.036 0.093-0.036 0.088 0.001 0.153-0.081 0.133-0.166l-0.048-0.203c-0.007-0.030-0.009-0.060-0.007-0.090l0.014-0.188c0.011-0.151-0.112-0.277-0.263-0.269l-0.031 0.002c-0.030 0.002-0.058 0.012-0.082 0.029l-0.024 0.018c-0.031 0.023-0.073 0.027-0.108 0.009-0.025-0.013-0.043-0.035-0.051-0.062l-0.109-0.373c-0.041-0.14-0.202-0.206-0.329-0.135l-0.081 0.045c-0.020 0.011-0.033 0.033-0.034 0.056-0.001 0.046-0.048 0.077-0.090 0.059l-0.111-0.045c-0.072-0.029-0.109-0.109-0.085-0.183l0.089-0.272c0.011-0.035 0.034-0.065 0.064-0.087l0.040-0.028c0.073-0.052 0.077-0.159 0.007-0.215-0.044-0.036-0.061-0.095-0.043-0.149l0.004-0.012c0.030-0.089-0.025-0.184-0.117-0.201l-0.053-0.010c-0.038-0.007-0.067-0.038-0.071-0.076s-0.033-0.070-0.072-0.077l-0.624-0.109c-0.017-0.003-0.034 0.005-0.042 0.020-0.013 0.022-0.042 0.027-0.061 0.011l-0.025-0.021c-0.025-0.022-0.031-0.058-0.014-0.087l0.311-0.509c0.055-0.091 0.039-0.208-0.039-0.28l-0.008-0.007c-0.077-0.071-0.090-0.188-0.031-0.274l0.078-0.115c0.015-0.022 0.011-0.052-0.009-0.070-0.022-0.020-0.024-0.055-0.004-0.077l0.056-0.060c0.024-0.026 0.057-0.041 0.092-0.042l0.244-0.009c0.027-0.001 0.054-0.009 0.076-0.024 0.053-0.035 0.078-0.099 0.063-0.16l-0.019-0.077c-0.021-0.086 0.003-0.176 0.064-0.241l0.164-0.175c0.047-0.050 0.057-0.124 0.025-0.184-0.022-0.042-0.024-0.090-0.007-0.134l0.083-0.208c0.012-0.030-0.006-0.065-0.038-0.071l-0.125-0.027c-0.027-0.006-0.027-0.044 0-0.050 0.021-0.005 0.027-0.032 0.010-0.045l-0.020-0.016c-0.024-0.019-0.017-0.057 0.012-0.065l0.086-0.026c0.023-0.007 0.041-0.023 0.051-0.044l0.039-0.081c0.036-0.074 0.038-0.16 0.007-0.236l-0.044-0.106c-0.023-0.055-0.077-0.091-0.137-0.090-0.085 0.002-0.153-0.069-0.148-0.154l0.006-0.101c0.002-0.041-0.006-0.081-0.023-0.118l-0.081-0.168c-0.043-0.088-0.015-0.194 0.066-0.25l0.086-0.059c0.022-0.015 0.050-0.014 0.071 0.002 0.027 0.022 0.030 0.062 0.006 0.087l-0.035 0.037c-0.048 0.052-0.034 0.135 0.029 0.167l0.032 0.016c0.037 0.019 0.060 0.058 0.058 0.099-0.002 0.052 0.034 0.098 0.085 0.109l0.111 0.023c0.023 0.005 0.048 0.006 0.071 0.002l0.093-0.014c0.055-0.008 0.093-0.058 0.088-0.113l-0-0.005c-0.005-0.047-0.043-0.084-0.090-0.088l-0.022-0.002c-0.020-0.002-0.038-0.013-0.047-0.031-0.021-0.040 0.011-0.088 0.057-0.084l0.058 0.005c0.034 0.003 0.063 0.024 0.076 0.056l0.014 0.033c0.012 0.029 0.040 0.049 0.071 0.051 0.042 0.003 0.079-0.027 0.087-0.068l0.016-0.092c0.007-0.041-0.013-0.082-0.050-0.101-0.053-0.028-0.068-0.097-0.031-0.144l0.012-0.015c0.036-0.046 0.030-0.112-0.013-0.152l-0.033-0.029c-0.040-0.036-0.059-0.089-0.051-0.142l0.041-0.261c0.007-0.046 0.027-0.089 0.056-0.125 0.049-0.059 0.069-0.137 0.055-0.213l-0.012-0.063c-0.005-0.025-0.002-0.051 0.007-0.075l0.022-0.057c0.016-0.042 0.064-0.062 0.105-0.044 0.022 0.009 0.046 0.008 0.067-0.002l0.129-0.066c0.139-0.071 0.218-0.224 0.195-0.379l-0.013-0.086c-0.009-0.061-0.047-0.114-0.101-0.143-0.039-0.021-0.070-0.054-0.087-0.095l-0.078-0.182c-0.009-0.022-0.011-0.046-0.004-0.069 0.013-0.044 0.054-0.073 0.099-0.072l0.312 0.009c0.025 0.001 0.049-0.009 0.066-0.027 0.050-0.051 0.022-0.137-0.048-0.149l-0.079-0.014c-0.029-0.005-0.055-0.019-0.074-0.041l-0.199-0.217c-0.065-0.072-0.104-0.164-0.109-0.26l-0.012-0.215c-0.003-0.051-0.038-0.094-0.087-0.108-0.072-0.020-0.108-0.101-0.074-0.168l0.048-0.096c0.017-0.035 0.025-0.073 0.021-0.112l-0.046-0.51c-0.015-0.165-0.084-0.321-0.197-0.442l-0.037-0.040c-0.053-0.057-0.092-0.126-0.115-0.201l-0.071-0.236c-0.006-0.019-0.020-0.033-0.039-0.038-0.038-0.011-0.053-0.056-0.031-0.088l0.008-0.011c0.014-0.020 0.038-0.031 0.062-0.028l0.016 0.002c0.040 0.004 0.078-0.017 0.096-0.053l0.139-0.289c0.018-0.038 0.050-0.068 0.089-0.085l0.018-0.008c0.075-0.032 0.112-0.117 0.084-0.194l-0.007-0.019c-0.010-0.028-0.032-0.050-0.059-0.062-0.036-0.015-0.061-0.048-0.065-0.086l-0.016-0.138c-0.016-0.133 0.048-0.263 0.163-0.333l0.221-0.133c0.056-0.034 0.091-0.094 0.093-0.159 0.003-0.098 0.080-0.179 0.178-0.186l0.176-0.014c0.031-0.002 0.053-0.030 0.049-0.061s0.019-0.059 0.050-0.061l0.121-0.008c0.046-0.003 0.088-0.026 0.115-0.063 0.037-0.050 0.1-0.073 0.16-0.059l0.073 0.017c0.064 0.015 0.13-0.021 0.15-0.084 0.013-0.040 0.044-0.070 0.084-0.082l0.021-0.006c0.054-0.016 0.113-0.005 0.157 0.031l0.007 0.006c0.035 0.028 0.078 0.043 0.123 0.042l0.008-0c0.089-0.002 0.167-0.061 0.194-0.146l0.075-0.242c0.058-0.185 0.016-0.386-0.11-0.533l-0.129-0.15c-0.024-0.028-0.054-0.050-0.089-0.064l-0.081-0.033c-0.080-0.033-0.116-0.126-0.078-0.204 0.026-0.053 0.080-0.086 0.139-0.085l0.123 0.004c0.088 0.003 0.174-0.029 0.239-0.088l0.164-0.149c0.028-0.025 0.064-0.038 0.101-0.037 0.046 0.002 0.088 0.026 0.113 0.064l0.043 0.066c0.078 0.119 0.23 0.165 0.361 0.11l0.111-0.047c0.029-0.012 0.060-0.019 0.092-0.020l0.033-0.001c0.118-0.003 0.212-0.099 0.213-0.217l0.003-0.406c0-0.034-0.039-0.052-0.064-0.029-0.010 0.009-0.025 0.012-0.038 0.008l-0.262-0.087c-0.014-0.005-0.030-0.005-0.045-0.001l-0.042 0.011c-0.046 0.012-0.086-0.034-0.067-0.077 0.006-0.015 0.006-0.031-0.001-0.046l-0.038-0.086c-0.021-0.047-0.061-0.083-0.11-0.1l-0.074-0.025c-0.042-0.014-0.068-0.057-0.061-0.101 0.006-0.041-0.016-0.081-0.054-0.098l-0.576-0.253c-0.017-0.008-0.037-0.007-0.054 0.003l-0.071 0.041c-0.012 0.007-0.011 0.025 0.001 0.030 0.018 0.008 0.010 0.035-0.010 0.033l-0.047-0.006c-0.014-0.002-0.023-0.015-0.020-0.029l0.038-0.192c0.004-0.019 0.017-0.034 0.036-0.039 0.034-0.010 0.047-0.050 0.027-0.078l-0.131-0.184c-0.019-0.027-0.032-0.058-0.037-0.090l-0.008-0.053c-0.009-0.056 0.010-0.113 0.051-0.153l0.053-0.051c0.038-0.036 0.040-0.096 0.005-0.135-0.045-0.051-0.025-0.132 0.039-0.156l0.118-0.044c0.040-0.015 0.074-0.043 0.095-0.080l0.105-0.181c0.020-0.034 0.023-0.075 0.010-0.111l-0.026-0.072c-0.015-0.043 0.013-0.089 0.058-0.095 0.020-0.003 0.039-0.014 0.050-0.031l0.037-0.055c0.026-0.039 0.039-0.086 0.036-0.133l-0.004-0.063c-0.002-0.035 0.010-0.069 0.034-0.094l0.046-0.050c0.018-0.020 0.018-0.050 0.001-0.070-0.024-0.028-0.013-0.072 0.022-0.084l0.008-0.003c0.032-0.011 0.048-0.048 0.034-0.079l-0.027-0.061c-0.029-0.063 0.003-0.138 0.069-0.161l0.032-0.011c0.041-0.015 0.074-0.046 0.090-0.087l0.082-0.209c0.012-0.030 0.044-0.046 0.075-0.037 0.050 0.015 0.094-0.035 0.075-0.083l-0.005-0.012c-0.009-0.023-0.005-0.050 0.011-0.070l0.068-0.080c0.036-0.043 0.103-0.039 0.133 0.008 0.015 0.023 0.039 0.037 0.066 0.038l0.27 0.011c0.075 0.003 0.14 0.054 0.162 0.126l0.002 0.007c0.014 0.047 0.006 0.098-0.023 0.138-0.025 0.036-0.064 0.060-0.107 0.066l-0.009 0.001c-0.059 0.009-0.109 0.048-0.133 0.103-0.042 0.098 0.014 0.21 0.118 0.235l0.43 0.105c0.049 0.012 0.099-0.013 0.119-0.059l0.019-0.045c0.005-0.013 0.002-0.027-0.008-0.037-0.027-0.026 0.004-0.070 0.037-0.054l0.101 0.050c0.022 0.011 0.049 0.004 0.064-0.016l0.124-0.178c0.046-0.066 0.117-0.111 0.197-0.125l0.273-0.047c0.058-0.010 0.113-0.033 0.161-0.066l0.080-0.056c0.026-0.018 0.045-0.045 0.053-0.076 0.012-0.047 0.050-0.084 0.097-0.096l0.129-0.032c0.054-0.013 0.111-0.001 0.154 0.034 0.049 0.040 0.115 0.050 0.174 0.028l0.294-0.111c0.104-0.039 0.217-0.046 0.325-0.020l0.069 0.017z"></path>
</svg>
