<!-- Generated by IcoMoon.io -->
<svg version="1.1" xmlns="http://www.w3.org/2000/svg" width="22" height="32" viewBox="0 0 22 32">
<path stroke-linejoin="round" stroke-linecap="round" stroke-miterlimit="4" stroke-width="0.3575" stroke="#000" fill="#000" d="M8.332 5.27c-0.213-0.121-0.319-0.368-0.261-0.605 0.052-0.214 0.227-0.375 0.444-0.41l0.223-0.036c0.142-0.023 0.258-0.128 0.293-0.268l0.002-0.010c0.017-0.065 0.053-0.124 0.104-0.168l0.078-0.067c0.041-0.036 0.060-0.091 0.050-0.144-0.015-0.076 0.030-0.151 0.104-0.174l0.186-0.058c0.070-0.022 0.111-0.094 0.095-0.166-0.013-0.055-0.057-0.096-0.112-0.106l-0.114-0.021c-0.087-0.016-0.16-0.072-0.198-0.152-0.015-0.032-0.024-0.067-0.026-0.102l-0.006-0.118c-0.008-0.151 0.057-0.298 0.175-0.393l0.079-0.064c0.049-0.040 0.113-0.058 0.176-0.051l0.146 0.017c0.043 0.005 0.075 0.043 0.072 0.087-0.003 0.042 0.026 0.079 0.068 0.086l0.377 0.063c0.125 0.021 0.249-0.037 0.313-0.146 0.088-0.149 0.282-0.196 0.428-0.102l0.12 0.077c0.149 0.095 0.34 0.093 0.486-0.005l0.347-0.234c0.074-0.050 0.165-0.069 0.254-0.054l0.187 0.034c0.066 0.012 0.13-0.028 0.149-0.092 0.021-0.071 0.096-0.11 0.166-0.088l0.219 0.070c0.070 0.022 0.146 0.022 0.217 0l0.13-0.041c0.092-0.029 0.191-0.034 0.285-0.012 0.104 0.024 0.212 0.016 0.312-0.021l0.032-0.012c0.164-0.061 0.296-0.185 0.369-0.344l0.055-0.121c0.046-0.101 0.109-0.194 0.187-0.275l0.427-0.443c0.072-0.075 0.171-0.118 0.275-0.119l0.022-0c0.102-0.001 0.2 0.044 0.265 0.123 0.041 0.049 0.095 0.086 0.155 0.106l0.249 0.082c0.028 0.009 0.052 0.029 0.065 0.056 0.032 0.063 0.113 0.081 0.17 0.038l0.316-0.24c0.125-0.095 0.29-0.117 0.436-0.059l0.567 0.228c0.249 0.1 0.534 0.003 0.669-0.229l0.088-0.149c0.033-0.055 0.089-0.092 0.153-0.098 0.125-0.013 0.231 0.092 0.22 0.217l-0.023 0.257c-0.008 0.087-0.083 0.152-0.17 0.147l-0.013-0.001c-0.106-0.006-0.185 0.095-0.154 0.196 0.011 0.035 0.008 0.072-0.006 0.105l-0.031 0.071c-0.055 0.126-0.010 0.274 0.105 0.348l0.21 0.136c0.043 0.028 0.049 0.089 0.013 0.125-0.021 0.020-0.029 0.050-0.021 0.078l0.052 0.187c0.009 0.034-0.001 0.071-0.028 0.095-0.038 0.034-0.042 0.092-0.009 0.131l0.071 0.084c0.023 0.027 0.056 0.042 0.092 0.040l0.039-0.002c0.069-0.003 0.116 0.070 0.085 0.131-0.020 0.040-0.009 0.088 0.027 0.114l0.358 0.261c0.036 0.026 0.057 0.067 0.057 0.112 0 0.073-0.056 0.133-0.129 0.138l-0.416 0.027c-0.192 0.013-0.34 0.174-0.336 0.367l0 0.023c0.002 0.104 0.055 0.201 0.142 0.258l0.053 0.035c0.034 0.022 0.058 0.057 0.067 0.097l0.030 0.131c0.007 0.032-0.017 0.062-0.049 0.062-0.027 0-0.049 0.021-0.051 0.048l-0.002 0.039c-0.002 0.048-0.040 0.086-0.088 0.088l-0.097 0.004c-0.032 0.001-0.063 0.013-0.089 0.033-0.095 0.075-0.070 0.225 0.044 0.266l0.009 0.003c0.079 0.029 0.123 0.114 0.099 0.195l-0.035 0.118c-0.029 0.098-0.122 0.162-0.223 0.154l-0.101-0.008c-0.061-0.005-0.116 0.041-0.121 0.102-0.003 0.032-0.019 0.061-0.045 0.081l-0.082 0.061c-0.076 0.056-0.125 0.141-0.136 0.235l-0.009 0.081c-0.009 0.081 0.001 0.163 0.028 0.239l0.095 0.262c0.058 0.16 0.006 0.34-0.129 0.444l-0.104 0.080c-0.031 0.024-0.049 0.061-0.049 0.099 0 0.048 0.028 0.093 0.072 0.113l0.192 0.091c0.034 0.016 0.058 0.048 0.065 0.085s0.030 0.068 0.064 0.084l0.174 0.086c0.139 0.069 0.181 0.247 0.088 0.371-0.065 0.086-0.067 0.203-0.005 0.291l0.262 0.375c0.064 0.091 0.109 0.195 0.132 0.304l0.056 0.259c0.013 0.061 0.051 0.114 0.104 0.146 0.059 0.036 0.099 0.096 0.107 0.164l0.014 0.109c0.024 0.185-0.067 0.366-0.23 0.456l-0.022 0.012c-0.057 0.032-0.105 0.077-0.14 0.131-0.121 0.187-0.065 0.436 0.124 0.553l0.187 0.115c0.047 0.029 0.090 0.065 0.128 0.105l0.275 0.298c0.026 0.028 0.043 0.063 0.050 0.101l0.009 0.047c0.012 0.065-0.023 0.13-0.084 0.156-0.051 0.021-0.084 0.070-0.087 0.125l-0.001 0.015c-0.004 0.093-0.084 0.165-0.177 0.159l-0.004-0c-0.076-0.005-0.147 0.041-0.172 0.113l-0.016 0.045c-0.014 0.040-0.038 0.075-0.070 0.101l-0.080 0.067c-0.114 0.095-0.15 0.254-0.089 0.389l0.032 0.070c0.024 0.053 0.021 0.114-0.008 0.164-0.024 0.041-0.030 0.090-0.018 0.136l0.092 0.342c0.014 0.054-0.015 0.11-0.068 0.127l-0.005 0.002c-0.048 0.016-0.101-0.007-0.122-0.053-0.024-0.054-0.090-0.075-0.141-0.045l-0.109 0.064c-0.032 0.018-0.058 0.045-0.076 0.076l-0.109 0.186c-0.158 0.269-0.106 0.611 0.124 0.821 0.131 0.119 0.208 0.287 0.215 0.464l0.013 0.363c0.006 0.172 0.072 0.336 0.187 0.464l0.18 0.201c0.073 0.082 0.095 0.199 0.055 0.302l-0.041 0.106c-0.028 0.074 0.001 0.158 0.070 0.198l0.033 0.019c0.065 0.038 0.083 0.123 0.039 0.184l-0.011 0.015c-0.023 0.031-0.025 0.072-0.006 0.106l0.034 0.061c0.026 0.046-0.012 0.101-0.065 0.094-0.038-0.005-0.072 0.024-0.073 0.063l-0.002 0.202c-0.001 0.068 0.028 0.134 0.078 0.18l0.098 0.090c0.061 0.056 0.095 0.137 0.091 0.22l-0.003 0.070c-0.001 0.032 0.010 0.063 0.032 0.086l0.059 0.061c0.028 0.029 0.018 0.078-0.019 0.094-0.029 0.012-0.043 0.046-0.031 0.075l0.026 0.065c0.011 0.028-0.013 0.057-0.043 0.052-0.034-0.006-0.058 0.032-0.038 0.060l0.080 0.11c0.027 0.038 0.022 0.090-0.012 0.122l-0.075 0.068c-0.026 0.024-0.040 0.058-0.038 0.094 0.004 0.068-0.051 0.125-0.119 0.125l-0.152-0.002c-0.122-0.002-0.223 0.095-0.228 0.217l-0.004 0.116c-0.001 0.035-0.027 0.065-0.061 0.073-0.046 0.010-0.073 0.059-0.056 0.103l0.009 0.024c0.010 0.025 0.009 0.054-0.003 0.078l-0.042 0.088c-0.042 0.087-0.042 0.189-0.002 0.277l0.031 0.068c0.017 0.037 0.020 0.080 0.007 0.119l-0.015 0.046c-0.013 0.041 0.001 0.085 0.036 0.11l0.056 0.040c0.052 0.036 0.033 0.117-0.030 0.127-0.044 0.006-0.071 0.052-0.056 0.094l0.118 0.318c0.016 0.042 0.005 0.089-0.027 0.12-0.026 0.026-0.038 0.063-0.032 0.099l0.064 0.385c0.009 0.052 0.004 0.106-0.013 0.156l-0.080 0.233c-0.018 0.054 0.013 0.112 0.068 0.125 0.076 0.018 0.1 0.115 0.040 0.166l-0.102 0.087c-0.067 0.058-0.077 0.158-0.022 0.228l0.106 0.134c0.044 0.056 0.050 0.134 0.014 0.195-0.034 0.059-0.031 0.133 0.009 0.188l0.104 0.146c0.023 0.032 0.024 0.074 0.005 0.107-0.023 0.040-0.072 0.059-0.116 0.044l-0.065-0.021c-0.046-0.015-0.096-0.007-0.134 0.021l-0.021 0.015c-0.048 0.035-0.063 0.099-0.036 0.152l0.003 0.006c0.014 0.028 0.040 0.048 0.070 0.055 0.098 0.023 0.11 0.158 0.018 0.2-0.070 0.032-0.085 0.125-0.028 0.176l0.124 0.111c0.073 0.065 0.092 0.171 0.048 0.258l-0.066 0.13c-0.019 0.036-0.026 0.078-0.021 0.118l0.021 0.172c0.004 0.031-0.020 0.059-0.052 0.059-0.040 0-0.065 0.043-0.046 0.078l0.041 0.073c0.030 0.053 0.1 0.068 0.149 0.032l0.070-0.052c0.018-0.013 0.041-0.017 0.063-0.010 0.048 0.016 0.064 0.076 0.029 0.113l-0.080 0.087c-0.036 0.039-0.048 0.095-0.031 0.146l0.038 0.111c0.024 0.071 0.025 0.148 0.002 0.219l-0.056 0.172c-0.026 0.078 0.009 0.162 0.082 0.199 0.037 0.019 0.065 0.050 0.080 0.089l0.161 0.423c0.016 0.042 0.053 0.072 0.097 0.080l0.077 0.013c0.062 0.010 0.090 0.084 0.049 0.133-0.021 0.026-0.056 0.036-0.087 0.026l-0.072-0.023c-0.063-0.020-0.122 0.038-0.104 0.101l0.004 0.014c0.021 0.074-0.066 0.13-0.125 0.081-0.029-0.025-0.072-0.024-0.101 0.001l-0.001 0.001c-0.024 0.021-0.033 0.053-0.024 0.083l0.052 0.169c0.017 0.055 0.061 0.096 0.116 0.11l0.003 0.001c0.087 0.021 0.139 0.113 0.114 0.199-0.018 0.063 0.005 0.131 0.057 0.169l0.063 0.046c0.020 0.014 0.027 0.040 0.018 0.063-0.010 0.025-0.037 0.039-0.063 0.032l-0.003-0.001c-0.055-0.014-0.095 0.051-0.057 0.093l0.087 0.095c0.023 0.025 0.030 0.061 0.020 0.093l-0.117 0.356c-0.016 0.049-0.010 0.102 0.015 0.147l0.003 0.004c0.042 0.073 0.026 0.165-0.037 0.22l-0.058 0.049c-0.029 0.025-0.036 0.066-0.018 0.099 0.016 0.030 0.049 0.046 0.083 0.041l0.031-0.005c0.073-0.011 0.14 0.043 0.144 0.117l0 0.004c0.004 0.072 0.066 0.126 0.137 0.121l0.045-0.003c0.092-0.006 0.166 0.074 0.153 0.165l-0.010 0.067c-0.011 0.073 0.057 0.132 0.128 0.112l0.081-0.023c0.070-0.020 0.124 0.062 0.078 0.119-0.037 0.046-0.009 0.114 0.049 0.121l0.178 0.021c0.026 0.003 0.048 0.019 0.059 0.042 0.019 0.041-0.001 0.089-0.044 0.103l-0.040 0.014c-0.093 0.032-0.104 0.159-0.017 0.206l0.109 0.059c0.030 0.016 0.054 0.041 0.069 0.071l0.185 0.364c0.011 0.022 0.035 0.035 0.060 0.031 0.053-0.008 0.087 0.054 0.053 0.095l-0.084 0.101c-0.044 0.053-0.028 0.133 0.033 0.165l0.136 0.071c0.054 0.029 0.083 0.090 0.069 0.15l-0.018 0.078c-0.011 0.047 0.026 0.091 0.073 0.090 0.030-0.001 0.057-0.020 0.067-0.048l0.020-0.055c0.042-0.116 0.195-0.142 0.273-0.046l0.055 0.067c0.054 0.066 0.142 0.092 0.224 0.067l0.127-0.040c0.035-0.011 0.073 0.004 0.091 0.035 0.029 0.050-0.004 0.113-0.062 0.117l-0.384 0.029c-0.077 0.006-0.15 0.040-0.204 0.095l-0.232 0.236c-0.094 0.096-0.238 0.122-0.36 0.066l-0.026-0.012c-0.067-0.031-0.145-0.031-0.212-0-0.109 0.050-0.237 0.017-0.309-0.078l-0.096-0.128c-0.114-0.151-0.309-0.216-0.491-0.162l-0.447 0.133c-0.080 0.024-0.163 0.029-0.245 0.016-0.147-0.023-0.279-0.103-0.366-0.223l-0.011-0.016c-0.070-0.097-0.111-0.212-0.116-0.331l-0.025-0.567c-0.004-0.098-0.043-0.192-0.11-0.264l-0.125-0.136c-0.059-0.064-0.154-0.079-0.23-0.036-0.044 0.025-0.076 0.068-0.088 0.117l-0.012 0.048c-0.020 0.080-0.006 0.165 0.039 0.234l0.251 0.392c0.027 0.042 0.043 0.089 0.047 0.138 0.009 0.111-0.043 0.218-0.136 0.28-0.136 0.090-0.319 0.060-0.417-0.071l-0.253-0.336c-0.112-0.148-0.116-0.351-0.012-0.505 0.060-0.087 0.085-0.194 0.072-0.299l-0.048-0.382c-0.004-0.035-0.020-0.068-0.044-0.094-0.046-0.049-0.116-0.067-0.179-0.045l-0.024 0.009c-0.068 0.024-0.119 0.081-0.135 0.152l-0.019 0.085c-0.044 0.196-0.249 0.309-0.438 0.24-0.124-0.045-0.263-0.012-0.354 0.083l-0.253 0.265c-0.060 0.063-0.137 0.109-0.221 0.132-0.121 0.033-0.25 0.017-0.359-0.044l-0.179-0.1c-0.036-0.020-0.077-0.028-0.118-0.022-0.121 0.018-0.226-0.085-0.211-0.206l0.011-0.091c0.008-0.067-0.010-0.134-0.052-0.188l-0.486-0.625c-0.046-0.060-0.104-0.11-0.171-0.146l-0.086-0.048c-0.031-0.018-0.067-0.026-0.103-0.025-0.055 0.001-0.107 0.025-0.144 0.066l-0.11 0.12c-0.018 0.020-0.033 0.041-0.045 0.065l-0.036 0.070c-0.091 0.179-0.345 0.183-0.442 0.008-0.036-0.065-0.099-0.111-0.173-0.125l-0.868-0.163c-0.029-0.005-0.055-0.021-0.074-0.044-0.042-0.053-0.034-0.129 0.018-0.172l0.23-0.19c0.030-0.025 0.050-0.061 0.053-0.101 0.005-0.065-0.033-0.126-0.095-0.149l-0.309-0.116c-0.040-0.015-0.070-0.048-0.082-0.089-0.015-0.054 0.005-0.111 0.050-0.144l0.208-0.152c0.027-0.020 0.047-0.048 0.057-0.080 0.021-0.068-0.008-0.142-0.069-0.178l-0.332-0.198c-0.043-0.026-0.084-0.057-0.12-0.092l-0.413-0.403c-0.127-0.124-0.292-0.203-0.468-0.224-0.137-0.017-0.267-0.068-0.378-0.149l-0.408-0.296c-0.026-0.019-0.046-0.044-0.059-0.073-0.028-0.063-0.016-0.137 0.029-0.189l0.025-0.028c0.081-0.092 0.078-0.23-0.006-0.319l-0.012-0.013c-0.025-0.027-0.056-0.048-0.090-0.061l-0.122-0.050c-0.029-0.012-0.062-0.007-0.086 0.012-0.030 0.024-0.040 0.065-0.025 0.101l0.077 0.181c0.019 0.044 0.011 0.095-0.019 0.132-0.035 0.042-0.093 0.058-0.144 0.039l-0.62-0.232c-0.027-0.010-0.056-0.015-0.085-0.014-0.13 0.005-0.228 0.119-0.212 0.248l0.072 0.585c0.006 0.046-0.024 0.089-0.069 0.101-0.035 0.009-0.073-0.004-0.095-0.033l-0.098-0.125c-0.029-0.038-0.072-0.062-0.119-0.069-0.058-0.008-0.117 0.011-0.158 0.053l-0.123 0.124c-0.042 0.043-0.076 0.093-0.098 0.149l-0.049 0.123c-0.045 0.112-0.157 0.18-0.277 0.169-0.082-0.008-0.157-0.053-0.202-0.122l-0.055-0.084c-0.049-0.074-0.066-0.165-0.049-0.252 0.018-0.091 0.072-0.171 0.15-0.222l0.024-0.015c0.065-0.042 0.14-0.064 0.217-0.065l0.404-0.004c0.075-0.001 0.144-0.041 0.181-0.107l0.036-0.063c0.025-0.043 0.018-0.098-0.016-0.134-0.025-0.026-0.061-0.039-0.097-0.035l-0.065 0.009c-0.098 0.013-0.194-0.035-0.243-0.122l-0.027-0.048c-0.045-0.080-0.121-0.137-0.21-0.157l-0.043-0.010c-0.142-0.033-0.29 0.026-0.37 0.147l-0.072 0.109c-0.020 0.030-0.053 0.048-0.089 0.048-0.076 0-0.128-0.077-0.099-0.147l0.165-0.403c0.016-0.039 0.026-0.080 0.029-0.121l0.039-0.528c0.009-0.12-0.119-0.201-0.224-0.143l-0.018 0.010c-0.026 0.014-0.057 0.017-0.085 0.008l-0.023-0.008c-0.072-0.024-0.141 0.044-0.118 0.116 0.011 0.035 0.001 0.074-0.027 0.099l-0.159 0.137c-0.098 0.085-0.15 0.212-0.14 0.342l0.013 0.159c0.004 0.055-0.021 0.109-0.067 0.14-0.040 0.027-0.089 0.034-0.135 0.019l-0.033-0.011c-0.072-0.024-0.127-0.082-0.147-0.156l-0.19-0.718c-0.026-0.098 0.002-0.203 0.074-0.274 0.122-0.121 0.109-0.322-0.027-0.427l-0.117-0.090c-0.048-0.037-0.073-0.097-0.066-0.157l0.018-0.148c0.013-0.109-0.116-0.175-0.196-0.1-0.038 0.036-0.095 0.041-0.14 0.015l-0.657-0.393c-0.092-0.055-0.206-0.060-0.303-0.012l-0.239 0.119c-0.106 0.053-0.23-0.027-0.226-0.145 0.001-0.044-0.016-0.086-0.047-0.117l-0.572-0.558c-0.089-0.087-0.123-0.215-0.088-0.335 0.050-0.171 0.224-0.274 0.398-0.235l0.49 0.111c0.054 0.012 0.104-0.032 0.098-0.087-0.004-0.034-0.028-0.061-0.061-0.070l-0.027-0.007c-0.062-0.016-0.101-0.076-0.090-0.139l0.049-0.27c0.026-0.141-0.045-0.283-0.173-0.348-0.036-0.018-0.076-0.030-0.116-0.034l-0.241-0.024c-0.261-0.025-0.502-0.147-0.679-0.34l-0.168-0.184c-0.062-0.069-0.098-0.157-0.1-0.25-0.002-0.098 0.033-0.193 0.098-0.266l0.237-0.265c0.271-0.304 0.174-0.783-0.194-0.958l-0.132-0.063c-0.105-0.050-0.177-0.149-0.192-0.264l-0.002-0.015c-0.009-0.065-0.038-0.125-0.085-0.172-0.052-0.052-0.083-0.12-0.087-0.193l-0.016-0.265c-0.007-0.112 0.025-0.222 0.089-0.313l0.152-0.215c0.078-0.11 0.049-0.262-0.064-0.336-0.047-0.031-0.081-0.077-0.097-0.13l-0.077-0.256c-0.013-0.043-0.041-0.081-0.078-0.107-0.058-0.040-0.133-0.045-0.196-0.016l-0.051 0.024c-0.060 0.028-0.13 0.028-0.191-0.001-0.063-0.030-0.108-0.088-0.122-0.156l-0.13-0.62c-0.024-0.113-0.060-0.223-0.109-0.328l-0.203-0.434c-0.145-0.311-0.21-0.655-0.187-0.998l0.023-0.34c0.002-0.037-0.002-0.075-0.014-0.11-0.060-0.182 0.070-0.371 0.262-0.38l0.407-0.018c0.083-0.004 0.155-0.060 0.178-0.141 0.017-0.060 0.062-0.109 0.121-0.13l0.242-0.086c0.023-0.008 0.050-0 0.064 0.020 0.033 0.046 0.106 0.019 0.101-0.037l-0.003-0.034c-0.004-0.038 0.026-0.070 0.064-0.071l0.14-0.002c0.054-0.001 0.105-0.027 0.136-0.071l0.020-0.027c0.037-0.051 0.105-0.069 0.162-0.041l0.166 0.080c0.048 0.023 0.1-0.025 0.080-0.075-0.009-0.023-0.003-0.050 0.016-0.066l0.041-0.036c0.036-0.031 0.085-0.041 0.13-0.027l0.189 0.059c0.032 0.010 0.061-0.021 0.050-0.052-0.010-0.028 0.013-0.057 0.042-0.054l0.084 0.010c0.039 0.004 0.076-0.016 0.093-0.051l0.098-0.196c0.032-0.064 0.089-0.113 0.158-0.134 0.098-0.030 0.169-0.114 0.183-0.215l0.107-0.772c0.007-0.051 0.020-0.102 0.038-0.15l0.152-0.399c0.047-0.122 0.182-0.186 0.306-0.144 0.046 0.016 0.086 0.045 0.115 0.083l0.013 0.018c0.115 0.151 0.336 0.168 0.472 0.035l0.066-0.064c0.154-0.151 0.155-0.399 0.001-0.55l-0.051-0.050c-0.099-0.097-0.117-0.251-0.043-0.369 0.037-0.059 0.052-0.128 0.043-0.197l-0.024-0.174c-0.028-0.206 0.166-0.371 0.365-0.312l0.035 0.011c0.109 0.032 0.226-0.016 0.28-0.116 0.045-0.082 0.133-0.131 0.226-0.125l0.061 0.004c0.038 0.002 0.075-0.013 0.101-0.041 0.036-0.039 0.093-0.052 0.142-0.031l0.492 0.21c0.031 0.013 0.064 0.017 0.097 0.012l0.056-0.009c0.055-0.008 0.096-0.056 0.096-0.112 0-0.052 0.035-0.097 0.086-0.11l0.016-0.004c0.032-0.008 0.066-0.004 0.095 0.011l0.036 0.019c0.136 0.072 0.304-0.001 0.344-0.15l0.009-0.034c0.026-0.094 0.1-0.166 0.194-0.19l0.462-0.115c0.176-0.044 0.321-0.169 0.39-0.337l0.053-0.13c0.040-0.098 0.028-0.209-0.032-0.297-0.057-0.083-0.071-0.189-0.037-0.284l0.049-0.135c0.019-0.054 0.062-0.095 0.117-0.112l0.156-0.050c0.088-0.028 0.102-0.146 0.024-0.194-0.040-0.025-0.060-0.073-0.047-0.119l0.041-0.154c0.018-0.068 0.014-0.141-0.013-0.206l-0.017-0.042c-0.039-0.095-0.108-0.173-0.197-0.224l-0.128-0.073z"></path>
</svg>
