<!-- Generated by IcoMoon.io -->
<svg version="1.1" xmlns="http://www.w3.org/2000/svg" width="32" height="32" viewBox="0 0 32 32">
<path stroke-linejoin="round" stroke-linecap="round" stroke-miterlimit="4" stroke-width="0.3497" stroke="#000" fill="#000" d="M5.672 2.679c-0.002-0.071 0.071-0.121 0.137-0.094l0.004 0.002c0.019 0.008 0.040 0.010 0.060 0.005l0.269-0.058c0.081-0.017 0.155-0.059 0.211-0.119 0.071-0.075 0.168-0.12 0.271-0.127l0.075-0.005c0.082-0.005 0.163-0.028 0.236-0.065l0.018-0.009c0.121-0.062 0.258-0.088 0.393-0.073l1.053 0.113c0.078 0.008 0.156 0.010 0.234 0.004l0.037-0.003c0.184-0.013 0.363-0.069 0.521-0.164 0.166-0.1 0.355-0.157 0.549-0.165l0.473-0.022c0.026-0.001 0.051 0.007 0.072 0.024 0.039 0.032 0.096 0.032 0.135-0.001l0.135-0.113c0.022-0.019 0.036-0.046 0.038-0.075 0.007-0.091 0.117-0.133 0.183-0.070l0.026 0.025c0.018 0.017 0.041 0.029 0.066 0.033l0.662 0.108c0.081 0.013 0.161 0.037 0.236 0.071l0.224 0.102c0.12 0.054 0.258 0.051 0.374-0.009 0.099-0.051 0.174-0.139 0.21-0.244l0.036-0.107c0.061-0.182 0.232-0.304 0.424-0.304h0.11c0.079 0 0.153 0.039 0.198 0.104 0.062 0.091 0.178 0.128 0.281 0.089l0.081-0.030c0.152-0.057 0.323-0.001 0.412 0.134l0.246 0.371c0.066 0.1 0.194 0.141 0.306 0.097 0.094-0.036 0.157-0.125 0.163-0.225l0.006-0.122c0.006-0.114 0.085-0.211 0.195-0.241 0.043-0.012 0.089-0.012 0.132-0.001l0.499 0.124c0.065 0.016 0.132 0.016 0.197 0.001l0.1-0.024c0.089-0.021 0.181 0.009 0.242 0.077l0.054 0.061c0.026 0.029 0.065 0.042 0.104 0.034s0.069-0.037 0.080-0.074l0.174-0.576c0.030-0.101 0.125-0.168 0.23-0.164l0.097 0.004c0.051 0.002 0.097-0.032 0.11-0.082 0.010-0.039 0.041-0.069 0.079-0.079l0.39-0.098c0.143-0.036 0.258-0.141 0.308-0.279l0.045-0.127c0.023-0.066 0.080-0.115 0.148-0.129 0.043-0.009 0.088-0.004 0.128 0.015l0.094 0.045c0.072 0.034 0.115 0.11 0.107 0.19-0.007 0.070 0.025 0.138 0.084 0.176l0.5 0.332c0.063 0.042 0.096 0.118 0.082 0.193l-0.027 0.153c-0.009 0.049 0.032 0.092 0.081 0.087 0.035-0.004 0.068 0.018 0.079 0.051l0.038 0.12c0.024 0.075 0.008 0.158-0.044 0.218l-0.104 0.122c-0.065 0.077-0.037 0.195 0.055 0.234 0.056 0.023 0.092 0.078 0.091 0.139l-0.001 0.105c-0.001 0.101 0.048 0.197 0.132 0.254l0.070 0.049c0.153 0.105 0.222 0.296 0.173 0.474-0.018 0.065-0.051 0.125-0.095 0.175l-0.277 0.309c-0.117 0.131-0.106 0.332 0.024 0.45 0.041 0.037 0.072 0.085 0.090 0.137l0.053 0.162c0.021 0.064 0.067 0.117 0.127 0.148 0.136 0.068 0.182 0.239 0.099 0.366l-0.043 0.065c-0.031 0.048-0.047 0.104-0.045 0.161 0.004 0.114 0.078 0.213 0.186 0.249l0.071 0.024c0.045 0.015 0.093 0.022 0.14 0.020l0.87-0.039c0.064-0.003 0.127 0.019 0.174 0.062 0.069 0.062 0.168 0.080 0.254 0.045l0.112-0.045c0.062-0.025 0.128-0.035 0.194-0.030l0.573 0.042c0.067 0.005 0.133-0.014 0.186-0.054l0.12-0.089c0.072-0.054 0.174-0.031 0.218 0.047 0.026 0.047 0.076 0.077 0.13 0.077h0.013c0.089 0 0.162-0.068 0.169-0.157l0.014-0.175c0.015-0.191 0.177-0.337 0.369-0.332l0.177 0.005c0.044 0.001 0.085 0.024 0.11 0.060l0.005 0.008c0.053 0.077 0.166 0.076 0.219-0.001 0.037-0.055 0.108-0.074 0.168-0.045l0.035 0.017c0.088 0.043 0.193 0.006 0.236-0.081l0.187-0.385c0.029-0.059 0.102-0.082 0.16-0.051l0.034 0.019c0.045 0.025 0.101 0.003 0.118-0.045 0.014-0.039 0.055-0.062 0.096-0.054l0.758 0.165c0.035 0.008 0.068 0.022 0.098 0.042l0.036 0.024c0.132 0.089 0.147 0.278 0.030 0.386-0.038 0.035-0.064 0.081-0.074 0.132l-0.029 0.141c-0.033 0.163-0.006 0.332 0.075 0.477l0.132 0.236c0.068 0.121 0.116 0.251 0.145 0.387l0.056 0.27c0.023 0.112 0.082 0.213 0.168 0.289l0.163 0.143c0.023 0.021 0.056 0.029 0.086 0.023l0.012-0.003c0.062-0.013 0.117 0.039 0.109 0.101-0.004 0.031-0.024 0.058-0.053 0.070l-0.257 0.114c-0.077 0.034-0.119 0.116-0.102 0.198 0.009 0.042 0.032 0.079 0.066 0.105l0.098 0.075c0.207 0.158 0.261 0.448 0.124 0.67l-0.074 0.12c-0.068 0.11-0.167 0.198-0.285 0.253l-0.299 0.139c-0.099 0.046-0.169 0.139-0.186 0.247l-0.005 0.030c-0.015 0.099 0.024 0.198 0.102 0.259 0.059 0.046 0.096 0.114 0.104 0.188l0.029 0.276c0.008 0.072 0.035 0.14 0.078 0.197 0.077 0.101 0.2 0.159 0.327 0.153l0.056-0.002c0.091-0.004 0.181 0.017 0.261 0.061l0.253 0.139c0.109 0.060 0.159 0.19 0.117 0.308-0.015 0.043-0.019 0.089-0.010 0.134l0.029 0.149c0.004 0.021 0.021 0.038 0.043 0.040 0.040 0.005 0.058 0.053 0.031 0.084l-0.049 0.055c-0.033 0.038-0.029 0.095 0.009 0.128l0.168 0.142c0.069 0.058 0.159 0.083 0.248 0.068l0.054-0.009c0.052-0.009 0.107 0.003 0.15 0.034 0.108 0.076 0.259 0.029 0.306-0.095l0.013-0.036c0.010-0.027 0.030-0.048 0.055-0.061 0.064-0.031 0.141 0.006 0.156 0.076l0.062 0.289c0.007 0.033 0.028 0.061 0.058 0.076l0.013 0.007c0.055 0.029 0.071 0.102 0.032 0.151l-0.005 0.007c-0.021 0.026-0.055 0.039-0.087 0.032-0.075-0.016-0.133 0.065-0.094 0.131l0.119 0.199c0.023 0.038 0.031 0.083 0.024 0.126l-0.13 0.813c-0.008 0.047-0 0.095 0.021 0.137l0.037 0.075c0.016 0.032 0.048 0.052 0.084 0.052 0.049 0 0.090 0.038 0.093 0.087l0.001 0.019c0.004 0.054-0.031 0.103-0.083 0.118l-0.382 0.107c-0.086 0.024-0.14 0.109-0.126 0.197 0.021 0.129-0.102 0.234-0.226 0.195-0.089-0.028-0.185 0.018-0.218 0.106l-0.181 0.479c-0.015 0.040-0.069 0.046-0.092 0.010l-0.018-0.027c-0.023-0.035-0.078-0.019-0.078 0.023 0 0.018-0.011 0.033-0.027 0.040l-0.012 0.005c-0.035 0.013-0.050 0.055-0.031 0.087l0.276 0.486c0.058 0.103 0.184 0.147 0.294 0.103l0.101-0.040c0.103-0.041 0.216 0.032 0.22 0.143l0.001 0.041c0.001 0.029 0.017 0.056 0.042 0.071 0.043 0.025 0.055 0.082 0.027 0.123l-0.416 0.609c-0.031 0.046-0.025 0.108 0.015 0.147s0.046 0.101 0.014 0.147l-0.014 0.020c-0.038 0.056-0.032 0.131 0.015 0.18l0.255 0.265c0.048 0.050 0.123 0.062 0.184 0.029 0.044-0.024 0.097-0.025 0.141-0.003l0.129 0.063c0.081 0.040 0.099 0.147 0.037 0.211-0.051 0.052-0.050 0.136 0.002 0.187l0.004 0.003c0.019 0.019 0.032 0.043 0.038 0.069l0.073 0.328c0.022 0.101 0.085 0.188 0.173 0.242 0.1 0.062 0.166 0.166 0.179 0.283l0.047 0.43c0.030 0.268 0.215 0.493 0.473 0.573l0.677 0.21c0.043 0.013 0.063 0.062 0.044 0.102-0.012 0.024-0.010 0.051 0.005 0.073l0.148 0.219c0.047 0.069 0.007 0.163-0.075 0.177-0.037 0.006-0.068 0.030-0.084 0.064l-0.067 0.141c-0.022 0.047-0.008 0.104 0.035 0.134l0.027 0.019c0.026 0.019 0.035 0.053 0.022 0.083-0.020 0.044 0.011 0.093 0.059 0.096l0.066 0.003c0.027 0.001 0.053 0.013 0.073 0.032l0.397 0.384c0.038 0.037 0.089 0.059 0.143 0.060l0.073 0.002c0.084 0.003 0.148 0.076 0.141 0.159-0.006 0.069 0.037 0.133 0.103 0.153l0.144 0.044c0.065 0.020 0.113 0.075 0.123 0.142l0.010 0.066c0.007 0.045 0.044 0.078 0.089 0.081 0.059 0.003 0.101 0.059 0.088 0.117l-0.030 0.13c-0.020 0.084-0.090 0.147-0.175 0.158l-0.115 0.015c-0.098 0.012-0.176 0.088-0.192 0.186-0.008 0.052 0.002 0.105 0.030 0.151l0.019 0.031c0.042 0.069 0.108 0.12 0.186 0.142l0.14 0.041c0.183 0.053 0.32 0.203 0.357 0.389l0.108 0.546c0.008 0.041-0.024 0.078-0.065 0.077l-0.087-0.003c-0.044-0.001-0.060 0.056-0.023 0.078 0.015 0.009 0.023 0.025 0.020 0.042l-0.017 0.12c-0.013 0.091-0.080 0.165-0.17 0.187l-0.053 0.013c-0.13 0.031-0.22 0.148-0.217 0.281 0.001 0.051-0.012 0.102-0.037 0.146l-0.060 0.105c-0.080 0.141-0.205 0.25-0.355 0.311l-0.702 0.284c-0.049 0.020-0.072 0.077-0.050 0.126 0.018 0.039 0.007 0.085-0.026 0.112l-0.677 0.553c-0.128 0.105-0.148 0.293-0.045 0.423l0.009 0.012c0.059 0.073 0.076 0.172 0.045 0.26l-0.013 0.039c-0.023 0.067-0.079 0.117-0.149 0.132-0.075 0.016-0.134 0.073-0.153 0.147l-0.061 0.234c-0.011 0.042-0.033 0.080-0.063 0.11l-0.061 0.061c-0.021 0.021-0.052 0.030-0.081 0.023-0.053-0.012-0.104 0.027-0.106 0.081l-0 0.003c-0.001 0.024 0.007 0.048 0.024 0.066l0.14 0.151c0.070 0.075 0.104 0.176 0.095 0.278l-0 0.003c-0.006 0.071 0.009 0.142 0.044 0.204 0.051 0.089 0.060 0.196 0.025 0.292l-0.031 0.084c-0.022 0.060-0.020 0.126 0.006 0.185l0.028 0.064c0.021 0.049 0.013 0.105-0.022 0.146-0.027 0.031-0.065 0.048-0.106 0.048l-0.331-0.004c-0.132-0.001-0.262 0.031-0.378 0.095l-0.251 0.137c-0.029 0.016-0.063 0.019-0.095 0.008-0.1-0.034-0.191 0.069-0.145 0.164l0.091 0.187c0.017 0.035 0.023 0.073 0.019 0.112l-0.067 0.627c-0.002 0.023-0.019 0.042-0.041 0.048l-0.011 0.003c-0.044 0.013-0.051 0.071-0.012 0.094 0.022 0.013 0.031 0.041 0.021 0.065l-0.007 0.016c-0.013 0.031-0.046 0.049-0.079 0.043l-0.153-0.027c-0.061-0.011-0.103-0.067-0.097-0.129 0.006-0.056-0.029-0.108-0.082-0.125l-0.189-0.059c-0.093-0.029-0.191 0.026-0.215 0.12l-0.005 0.018c-0.009 0.037-0.034 0.067-0.068 0.084l-0.051 0.025c-0.034 0.017-0.049 0.057-0.033 0.092 0.021 0.047-0.015 0.101-0.066 0.099l-0.021-0.001c-0.030-0.001-0.058 0.016-0.072 0.043-0.014 0.028-0.044 0.045-0.076 0.042l-0.692-0.060c-0.050-0.004-0.099-0.015-0.145-0.033l-0.113-0.043c-0.059-0.022-0.107-0.067-0.134-0.124-0.046-0.099-0.153-0.154-0.26-0.136l-0.605 0.103c-0.066 0.011-0.125 0.049-0.163 0.104l-0.041 0.060c-0.019 0.027-0.024 0.061-0.013 0.092 0.017 0.051-0.007 0.105-0.055 0.127l-0.053 0.024c-0.023 0.010-0.049 0.003-0.063-0.018-0.015-0.022-0.043-0.029-0.066-0.016l-0.079 0.044c-0.030 0.016-0.067 0.002-0.078-0.030-0.010-0.029-0.041-0.044-0.070-0.034l-0.312 0.11c-0.055 0.019-0.114 0.026-0.172 0.019l-0.219-0.026c-0.042-0.005-0.083-0.018-0.121-0.037l-0.051-0.027c-0.051-0.026-0.089-0.072-0.106-0.127-0.034-0.113-0.153-0.176-0.266-0.142l-0.182 0.055c-0.054 0.016-0.113-0.003-0.146-0.050-0.059-0.083-0.007-0.198 0.094-0.208l0.109-0.011c0.042-0.004 0.078-0.031 0.095-0.069 0.016-0.037 0.050-0.062 0.089-0.068l0.008-0.001c0.080-0.012 0.128-0.094 0.1-0.169-0.028-0.077-0.121-0.107-0.189-0.062l-0.002 0.001c-0.024 0.016-0.054 0.024-0.083 0.021l-0.163-0.016c-0.047-0.004-0.093 0.014-0.124 0.049-0.044 0.050-0.116 0.064-0.175 0.035l-0.121-0.060c-0.023-0.012-0.049-0.017-0.076-0.015l-0.264 0.015c-0.055 0.003-0.083-0.065-0.042-0.101 0.026-0.023 0.026-0.064-0.001-0.087l-0.036-0.032c-0.026-0.022-0.061-0.030-0.094-0.021l-0.022 0.006c-0.048 0.014-0.099 0.002-0.136-0.031l-0.66-0.597c-0.025-0.022-0.060-0.030-0.091-0.018l-0.002 0.001c-0.045 0.016-0.070 0.065-0.055 0.11 0.010 0.032 0.001 0.067-0.023 0.091l-0.057 0.054c-0.050 0.048-0.074 0.116-0.065 0.184l0.019 0.14c0.013 0.093-0.013 0.187-0.072 0.261l-0.078 0.098c-0.031 0.039-0.038 0.092-0.018 0.138l0.013 0.031c0.019 0.044 0.002 0.095-0.038 0.119-0.055 0.034-0.126 0.005-0.143-0.057l-0.085-0.318c-0.018-0.067-0.073-0.118-0.141-0.132l-0.018-0.004c-0.045-0.009-0.093 0.004-0.127 0.035-0.042 0.038-0.102 0.048-0.154 0.026l-0.073-0.030c-0.158-0.065-0.336 0.029-0.371 0.197l-0.080 0.388c-0.043 0.209-0.197 0.379-0.401 0.442l-0.304 0.094c-0.032 0.010-0.056 0.038-0.061 0.071-0.009 0.067-0.088 0.099-0.141 0.056l-0.055-0.045c-0.041-0.033-0.057-0.089-0.040-0.139l0.044-0.13c0.027-0.079 0.021-0.166-0.014-0.242l-0.066-0.14c-0.044-0.093-0.139-0.15-0.241-0.146l-0.073 0.003c-0.045 0.002-0.088-0.020-0.113-0.058-0.031-0.048-0.089-0.069-0.144-0.053l-0.188 0.056c-0.085 0.025-0.176 0.003-0.24-0.059-0.059-0.058-0.144-0.081-0.224-0.063l-0.46 0.106c-0.106 0.024-0.214-0.036-0.248-0.139-0.031-0.093-0.121-0.152-0.218-0.144l-0.14 0.011c-0.040 0.003-0.075-0.023-0.084-0.062-0.006-0.029-0.028-0.052-0.056-0.059l-0.297-0.084c-0.057-0.016-0.109-0.048-0.149-0.092l-0.124-0.135c-0.036-0.039-0.094-0.046-0.138-0.017-0.039 0.026-0.090 0.024-0.126-0.005l-0.010-0.008c-0.045-0.036-0.109-0.036-0.155 0l-0.363 0.289c-0.019 0.015-0.042 0.025-0.066 0.029l-0.060 0.009c-0.079 0.012-0.116 0.105-0.066 0.168 0.036 0.045 0.028 0.11-0.016 0.146l-0.073 0.059c-0.036 0.029-0.060 0.069-0.070 0.114l-0.049 0.234-0.044 0.561c-0.001 0.014 0.002 0.028 0.008 0.040 0.030 0.058-0.024 0.124-0.087 0.105l-0.194-0.059c-0.037-0.011-0.068-0.035-0.089-0.068l-0.354-0.571c-0.079-0.128-0.079-0.29 0.001-0.418 0.060-0.096 0.076-0.214 0.044-0.323l-0.009-0.031c-0.050-0.168-0.2-0.286-0.374-0.298-0.161-0.011-0.315 0.072-0.394 0.213l-0.141 0.251c-0.059 0.105-0.161 0.178-0.279 0.201l-0.075 0.014c-0.057 0.011-0.116-0.001-0.165-0.033-0.067-0.044-0.105-0.12-0.1-0.2l0.005-0.072c0.007-0.111 0.067-0.211 0.162-0.27l0.174-0.109c0.105-0.066 0.192-0.157 0.253-0.265l0.022-0.039c0.068-0.12 0.105-0.256 0.107-0.394l0.002-0.155c0.001-0.051-0.013-0.102-0.039-0.146l-0.007-0.012c-0.076-0.129-0.245-0.169-0.371-0.088l-0.018 0.011c-0.073 0.047-0.165 0.049-0.24 0.006-0.069-0.040-0.154-0.041-0.225-0.003l-0.895 0.483c-0.085 0.046-0.19 0.039-0.269-0.017-0.066-0.047-0.105-0.123-0.105-0.204l-0.002-0.273c-0.001-0.137-0.073-0.263-0.191-0.333l-0.030-0.018c-0.035-0.020-0.074-0.032-0.114-0.035-0.109-0.006-0.209 0.059-0.247 0.161l-0.011 0.028c-0.020 0.053-0.055 0.098-0.1 0.132l-0.154 0.112c-0.049 0.036-0.11 0.052-0.171 0.045-0.082-0.010-0.153-0.061-0.189-0.136l-0.023-0.049c-0.032-0.067-0.041-0.144-0.026-0.217l0.097-0.463c0.027-0.13 0.008-0.266-0.055-0.383-0.054-0.101-0.137-0.183-0.239-0.236l-0.020-0.010c-0.073-0.038-0.152-0.061-0.233-0.069l-0.684-0.065c-0.285-0.027-0.556-0.135-0.781-0.312l-0.082-0.064c-0.162-0.127-0.286-0.296-0.358-0.488l-0.020-0.052c-0.097-0.258-0.296-0.464-0.551-0.569-0.135-0.056-0.256-0.14-0.354-0.248l-0.135-0.148c-0.096-0.105-0.216-0.185-0.35-0.232-0.197-0.070-0.412-0.068-0.607 0.008l-0.218 0.084c-0.146 0.056-0.302 0.080-0.458 0.068l-0.096-0.007c-0.088-0.006-0.174-0.032-0.252-0.074l-0.262-0.143c-0.128-0.070-0.183-0.225-0.127-0.359l0.039-0.095c0.016-0.038 0.009-0.082-0.017-0.113-0.033-0.041-0.090-0.053-0.137-0.029l-0.411 0.206c-0.164 0.082-0.358 0.080-0.52-0.005-0.098-0.052-0.179-0.131-0.233-0.228l-0.037-0.067c-0.076-0.138-0.112-0.295-0.102-0.452l0.006-0.091c0.010-0.152-0.011-0.304-0.061-0.447l-0.16-0.459c-0.076-0.217-0.229-0.399-0.43-0.51l-0.091-0.050c-0.321-0.178-0.481-0.551-0.387-0.906l0.008-0.032c0.022-0.085 0.062-0.164 0.116-0.233l0.038-0.049c0.114-0.145 0.144-0.34 0.080-0.513l-0.053-0.144c-0.023-0.063-0.016-0.133 0.019-0.19 0.051-0.082 0.041-0.188-0.024-0.259l-0.107-0.117c-0.020-0.022-0.032-0.051-0.034-0.081l-0.001-0.016c-0.004-0.061 0.041-0.114 0.102-0.121l0.040-0.005c0.047-0.005 0.079-0.051 0.068-0.097-0.005-0.022-0.001-0.045 0.012-0.064l0.114-0.162c0.072-0.102 0.073-0.238 0.003-0.341-0.049-0.073-0.064-0.163-0.041-0.248l0.021-0.075c0.011-0.040 0.017-0.082 0.017-0.124v-0.132l-0.007-0.477c-0.002-0.161-0.052-0.317-0.142-0.45l-0.004-0.005c-0.098-0.144-0.146-0.316-0.138-0.49l0.007-0.151c0.005-0.113 0.055-0.22 0.138-0.297l0.024-0.022c0.069-0.064 0.11-0.153 0.114-0.248 0.003-0.087-0.026-0.173-0.081-0.24l-0.136-0.165c-0.033-0.039-0.042-0.093-0.024-0.141l0.001-0.003c0.024-0.063-0.001-0.133-0.058-0.168-0.068-0.041-0.088-0.13-0.044-0.196l0.525-0.8c0.053-0.081 0.142-0.132 0.239-0.136l0.307-0.013c0.114-0.005 0.175-0.136 0.106-0.226-0.040-0.053-0.038-0.127 0.006-0.178l0.091-0.104c0.057-0.065 0.075-0.156 0.047-0.238l-0.017-0.049c-0.023-0.067-0.001-0.141 0.053-0.185l0.002-0.002c0.047-0.038 0.112-0.048 0.168-0.024l0.121 0.051c0.060 0.025 0.126-0.023 0.119-0.088-0.007-0.072 0.071-0.12 0.132-0.082l0.235 0.148c0.086 0.054 0.197 0.043 0.27-0.026l0.025-0.024c0.061-0.057 0.091-0.14 0.081-0.222-0.017-0.139 0.079-0.267 0.217-0.29l0.155-0.026c0.027-0.005 0.052-0.019 0.071-0.040 0.040-0.046 0.109-0.055 0.159-0.019l0.483 0.342c0.069 0.049 0.16 0.051 0.231 0.005 0.057-0.037 0.129-0.043 0.191-0.017l0.040 0.017c0.091 0.038 0.196 0.018 0.266-0.050l0.064-0.062c0.026-0.025 0.036-0.062 0.026-0.097-0.012-0.041 0.005-0.084 0.040-0.108l0.194-0.129c0.025-0.017 0.039-0.045 0.038-0.075l-0.004-0.085c-0.003-0.070 0.091-0.096 0.124-0.034 0.019 0.036 0.066 0.046 0.098 0.022l0.128-0.098c0.039-0.030 0.095-0.013 0.111 0.033 0.012 0.032 0.044 0.052 0.078 0.047l0.052-0.008c0.034-0.005 0.068 0.003 0.096 0.022l0.072 0.049c0.088 0.059 0.197 0.077 0.299 0.049l0.105-0.029c0.050-0.014 0.097-0.040 0.134-0.077 0.075-0.072 0.108-0.177 0.089-0.28l-0.036-0.195c-0.005-0.025-0.016-0.049-0.032-0.069-0.033-0.040-0.083-0.060-0.135-0.055l-0.005 0.001c-0.077 0.008-0.149-0.039-0.172-0.112l-0.054-0.169c-0.020-0.061 0-0.129 0.051-0.169 0.070-0.057 0.078-0.16 0.017-0.227l-0.058-0.064c-0.074-0.082-0.083-0.204-0.020-0.295l0.010-0.015c0.028-0.040 0.043-0.087 0.045-0.136l0.006-0.132c0.003-0.072-0.014-0.144-0.050-0.206-0.050-0.087-0.064-0.191-0.037-0.288 0.025-0.091 0.015-0.188-0.029-0.272l-0.071-0.136c-0.040-0.077-0.108-0.137-0.19-0.166l-0.132-0.048c-0.046-0.017-0.078-0.058-0.083-0.107l-0.001-0.016c-0.005-0.056 0.034-0.107 0.090-0.117l0.020-0.003c0.042-0.007 0.072-0.044 0.071-0.086-0.001-0.041-0.031-0.076-0.072-0.082l-0.050-0.008c-0.040-0.007-0.072-0.038-0.078-0.079-0.006-0.043 0.018-0.085 0.058-0.101l0.092-0.036c0.061-0.024 0.108-0.074 0.128-0.136l0.101-0.314c0.028-0.086-0.055-0.166-0.14-0.135-0.041 0.015-0.087 0.004-0.116-0.028l-0.142-0.152c-0.041-0.043-0.104-0.058-0.159-0.037-0.036 0.014-0.076 0.013-0.112-0.003l-0.207-0.092c-0.035-0.016-0.076-0.016-0.111-0.001-0.075 0.031-0.161-0.009-0.188-0.085-0.015-0.045-0.008-0.095 0.021-0.133l0.073-0.096c0.018-0.023 0.032-0.049 0.042-0.076l0.050-0.134c0.017-0.046 0.063-0.076 0.112-0.073l0.007 0c0.043 0.003 0.084-0.022 0.101-0.062 0.024-0.057-0.008-0.123-0.068-0.139l-0.218-0.058c-0.131-0.035-0.222-0.154-0.221-0.29l0.002-0.259c0-0.059 0.033-0.114 0.086-0.142 0.068-0.036 0.152-0.020 0.201 0.039l0.015 0.018c0.069 0.082 0.192 0.092 0.273 0.021l0.004-0.004c0.039-0.034 0.063-0.081 0.067-0.133l0.011-0.132c0.011-0.142-0.044-0.281-0.15-0.376l-0.077-0.069c-0.111-0.1-0.14-0.263-0.069-0.395l0.007-0.013c0.030-0.056 0.077-0.1 0.135-0.125l0.039-0.017c0.049-0.022 0.087-0.064 0.103-0.115l0.050-0.155c0.012-0.036 0.054-0.052 0.087-0.033 0.037 0.022 0.084-0.001 0.089-0.043l0.012-0.096c0.001-0.006 0.001-0.013 0.001-0.019l-0.001-0.037c-0.006-0.185-0.098-0.356-0.249-0.463l-0.131-0.092c-0.098-0.069-0.16-0.178-0.168-0.298l-0.009-0.136c-0.009-0.133 0.087-0.251 0.219-0.268l0.228-0.030c0.049-0.006 0.079-0.058 0.060-0.104-0.012-0.029-0.005-0.061 0.017-0.083l0.178-0.175c0.095-0.093 0.143-0.223 0.133-0.355l-0.008-0.101z"></path>
</svg>
