<!-- Generated by IcoMoon.io -->
<svg version="1.1" xmlns="http://www.w3.org/2000/svg" width="31" height="32" viewBox="0 0 31 32">
<path stroke-linejoin="round" stroke-linecap="round" stroke-miterlimit="4" stroke-width="0.3616" stroke="#000" fill="#000" d="M19.931 0.376c0.117 0.049 0.251 0.054 0.371 0.013 0.151-0.052 0.319-0.031 0.453 0.056l0.497 0.323c0.154 0.1 0.325 0.169 0.505 0.204l0.466 0.090c0.049 0.009 0.093 0.037 0.122 0.077 0.038 0.051 0.097 0.080 0.16 0.080h0.606c0.056 0 0.109-0.028 0.14-0.075 0.048-0.072 0.143-0.096 0.22-0.055l0.017 0.009c0.087 0.047 0.196 0.018 0.25-0.065l0.022-0.035c0.059-0.093 0.176-0.132 0.279-0.094l0.474 0.174c0.067 0.025 0.12 0.077 0.145 0.143 0.019 0.050 0.053 0.092 0.098 0.12l0.149 0.095c0.136 0.087 0.296 0.129 0.457 0.121l0.177-0.009c0.040-0.002 0.080 0.004 0.117 0.017l0.149 0.052c0.114 0.040 0.161 0.176 0.095 0.278-0.016 0.024-0.037 0.045-0.062 0.060l-0.167 0.098c-0.108 0.063-0.198 0.151-0.263 0.258l-0.104 0.171c-0.058 0.095-0.068 0.212-0.027 0.316l0.055 0.137c0.030 0.076 0.003 0.162-0.065 0.207-0.033 0.022-0.058 0.055-0.069 0.093l-0.016 0.051c-0.033 0.11-0.005 0.23 0.075 0.314l0.145 0.152c0.053 0.056 0.067 0.138 0.036 0.208l-0.043 0.097c-0.019 0.042 0 0.092 0.042 0.11 0.029 0.013 0.064 0.008 0.088-0.012l0.008-0.006c0.052-0.044 0.131-0.024 0.157 0.039l0.042 0.106c0.020 0.049 0.017 0.103-0.006 0.15l-0.163 0.323c-0.024 0.048-0.033 0.102-0.025 0.155 0.013 0.084-0.017 0.169-0.079 0.227l-0.021 0.020c-0.045 0.042-0.077 0.097-0.091 0.157l-0.072 0.307c-0.022 0.095-0.060 0.187-0.111 0.271l-0.32 0.526c-0.031 0.050-0.091 0.074-0.148 0.057-0.065-0.019-0.134 0.015-0.159 0.079l-0.078 0.205c-0.012 0.033-0.048 0.052-0.082 0.044l-0.019-0.004c-0.030-0.007-0.048-0.038-0.038-0.067 0.011-0.036-0.017-0.071-0.055-0.068l-0.281 0.023c-0.057 0.005-0.101 0.053-0.101 0.11v0.013c0 0.079 0.085 0.128 0.154 0.089 0.058-0.033 0.131-0.004 0.149 0.060l0.034 0.116c0.022 0.076 0.096 0.125 0.175 0.116 0.062-0.007 0.122 0.021 0.156 0.074l0.104 0.163c0.067 0.104 0.090 0.23 0.065 0.35l-0.020 0.098c-0.018 0.085-0.074 0.157-0.152 0.195l-0.012 0.006c-0.051 0.025-0.092 0.067-0.116 0.119l-0.010 0.021c-0.051 0.113 0 0.245 0.113 0.294l0.056 0.024c0.045 0.020 0.075 0.064 0.076 0.113 0.001 0.054-0.032 0.102-0.083 0.121l-0.365 0.133c-0.054 0.020-0.085 0.076-0.073 0.133s0.066 0.096 0.124 0.089l0.404-0.042c0.063-0.007 0.113 0.051 0.098 0.113-0.014 0.057 0.028 0.112 0.086 0.113l0.054 0.001c0.057 0.001 0.099 0.054 0.087 0.11-0.012 0.058 0.034 0.113 0.093 0.11l0.033-0.002c0.067-0.003 0.122 0.050 0.122 0.117l-0.002 0.588c-0.001 0.218 0.104 0.423 0.282 0.55l0.196 0.14c0.040 0.029 0.070 0.069 0.086 0.116l0.045 0.132c0.009 0.025 0.033 0.041 0.060 0.039 0.036-0.003 0.065 0.026 0.063 0.062l-0.006 0.084c-0.004 0.052 0.059 0.081 0.097 0.045 0.015-0.014 0.036-0.019 0.056-0.013l0.009 0.003c0.050 0.016 0.090-0.042 0.059-0.084-0.014-0.018-0.015-0.043-0.002-0.062l0.062-0.095c0.039-0.060 0.106-0.096 0.178-0.097l0.071-0.001c0.114-0.001 0.202 0.099 0.186 0.212-0.011 0.078 0.029 0.155 0.099 0.191l0.1 0.051c0.041 0.021 0.091 0.019 0.13-0.007 0.034-0.022 0.076-0.027 0.114-0.014l0.038 0.014c0.066 0.024 0.14 0.013 0.196-0.029l0.109-0.080c0.065-0.048 0.157-0.028 0.197 0.042l0.021 0.036c0.029 0.051 0.006 0.116-0.048 0.138l-0.067 0.027c-0.039 0.016-0.046 0.068-0.014 0.094 0.014 0.011 0.021 0.028 0.020 0.046l-0.016 0.256c-0.010 0.156 0.047 0.308 0.156 0.42l0.035 0.036c0.059 0.060 0.129 0.109 0.206 0.143l0.162 0.072c0.096 0.043 0.166 0.127 0.19 0.229l0.021 0.088c0.021 0.091 0.1 0.158 0.194 0.164 0.042 0.003 0.083 0.018 0.116 0.044l0.152 0.117c0.068 0.052 0.095 0.142 0.068 0.223-0.022 0.065-0.009 0.136 0.034 0.19l0.029 0.036c0.038 0.047 0.060 0.106 0.063 0.167 0.006 0.131 0.099 0.242 0.228 0.27l0.265 0.057c0.126 0.027 0.241 0.092 0.329 0.185l0.556 0.585c0.049 0.051 0.082 0.116 0.095 0.185l0.057 0.307c0.012 0.062-0.035 0.119-0.099 0.12-0.055 0.001-0.099 0.045-0.1 0.1l-0 0.022c-0.001 0.049-0.031 0.094-0.077 0.113l-0.357 0.149c-0.050 0.021-0.108-0.005-0.125-0.057-0.012-0.035-0.043-0.060-0.079-0.064l-0.003-0c-0.058-0.006-0.108 0.039-0.109 0.097l-0.001 0.046c-0.001 0.085-0.076 0.149-0.159 0.138l-0.2-0.026c-0.043-0.006-0.087 0.001-0.126 0.019l-0.026 0.012c-0.11 0.051-0.151 0.186-0.087 0.29 0.029 0.047 0.037 0.105 0.023 0.158l-0.006 0.023c-0.037 0.137 0.044 0.278 0.181 0.317l0.136 0.038c0.051 0.014 0.105 0.018 0.157 0.012l0.105-0.013c0.214-0.026 0.43 0.023 0.611 0.139l0.348 0.222c0.154 0.098 0.264 0.252 0.306 0.43l0.109 0.461c0.021 0.089-0.029 0.18-0.115 0.21-0.067 0.023-0.114 0.084-0.12 0.154l-0.010 0.123c-0.014 0.178-0.154 0.319-0.332 0.336l-0.684 0.063c-0.020 0.002-0.041 0.006-0.060 0.014-0.169 0.063-0.202 0.288-0.059 0.397l0.042 0.032c0.072 0.055 0.11 0.143 0.1 0.233l-0.102 0.952c-0.012 0.108 0.066 0.205 0.173 0.218 0.040 0.005 0.077 0.022 0.108 0.048l0.185 0.164c0.051 0.045 0.082 0.108 0.086 0.176 0.003 0.047-0.007 0.094-0.029 0.136l-0.027 0.052c-0.092 0.175-0.285 0.272-0.481 0.242l-0.532-0.080c-0.31-0.047-0.613 0.12-0.739 0.407-0.037 0.085-0.057 0.177-0.058 0.27l-0.003 0.231c-0.002 0.133-0.029 0.265-0.081 0.388-0.071 0.168-0.096 0.351-0.073 0.532l0.021 0.166c0.016 0.125 0.008 0.251-0.022 0.373-0.030 0.12-0.082 0.233-0.152 0.334l-0.353 0.504c-0.061 0.087-0.058 0.204 0.008 0.287l0.064 0.081c0.034 0.043 0.033 0.105-0.003 0.147-0.031 0.036-0.081 0.050-0.126 0.034l-0.018-0.006c-0.037-0.013-0.067-0.040-0.083-0.075l-0.288-0.627c-0.029-0.063-0.075-0.117-0.134-0.156-0.094-0.062-0.21-0.078-0.318-0.044l-0.214 0.067c-0.024 0.008-0.050 0.010-0.075 0.007l-0.169-0.018c-0.076-0.008-0.111-0.098-0.061-0.156 0.032-0.037 0.031-0.092-0.003-0.128l-0.269-0.281c-0.040-0.041-0.062-0.096-0.063-0.153-0.003-0.149-0.146-0.255-0.289-0.214l-0.405 0.114c-0.033 0.009-0.067 0.013-0.102 0.012l-0.249-0.010c-0.070-0.003-0.126 0.058-0.117 0.128l0.009 0.077c0.007 0.061-0.057 0.104-0.11 0.074-0.019-0.010-0.041-0.012-0.061-0.005l-0.885 0.306-0.578 0.253c-0.029 0.013-0.044 0.044-0.035 0.075 0.013 0.044-0.026 0.087-0.071 0.079l-0.637-0.119c-0.017-0.003-0.033-0.013-0.043-0.027l-0.015-0.021c-0.044-0.059-0.137-0.012-0.116 0.058 0.006 0.019 0.003 0.039-0.008 0.055l-0.116 0.179c-0.028 0.043-0.079 0.066-0.129 0.058l-0.037-0.005c-0.027-0.004-0.054 0.008-0.070 0.030l-0.046 0.067c-0.020 0.029 0.005 0.068 0.040 0.061 0.021-0.004 0.043 0.010 0.046 0.031l0.023 0.12c0.006 0.032 0.022 0.062 0.046 0.085l0.054 0.052c0.123 0.118 0.050 0.327-0.12 0.342l-0.069 0.006c-0.042 0.004-0.082-0.019-0.1-0.057-0.015-0.032-0.046-0.054-0.082-0.057l-0.124-0.011c-0.083-0.007-0.159-0.047-0.213-0.11l-0.084-0.098c-0.027-0.032-0.068-0.051-0.11-0.051-0.103-0.001-0.176 0.102-0.14 0.198l0.137 0.368c0.012 0.033 0.014 0.068 0.004 0.101l-0.042 0.149c-0.020 0.072 0.052 0.136 0.121 0.107 0.049-0.021 0.105 0.005 0.121 0.056l0.031 0.102c0.023 0.076-0.004 0.157-0.068 0.204l-0.017 0.012c-0.031 0.023-0.056 0.054-0.071 0.090l-0.031 0.074c-0.072 0.17-0.231 0.287-0.415 0.305l-0.192 0.019c-0.064 0.006-0.128-0.016-0.173-0.062-0.034-0.034-0.079-0.056-0.127-0.062l-0.379-0.045c-0.048-0.006-0.089-0.035-0.11-0.078-0.024-0.049-0.074-0.080-0.129-0.079l-0.491 0.008c-0.13 0.002-0.236 0.103-0.245 0.233-0.006 0.085 0.032 0.167 0.1 0.218l0.176 0.131c0.054 0.041 0.098 0.095 0.125 0.157 0.032 0.072 0.042 0.152 0.028 0.23l-0.075 0.425c-0.011 0.065-0.073 0.109-0.138 0.099-0.134-0.020-0.196 0.162-0.076 0.227l0.082 0.045c0.058 0.032 0.086 0.101 0.065 0.165l-0.059 0.18c-0.025 0.076 0.044 0.15 0.122 0.13 0.043-0.011 0.088 0.006 0.111 0.044l0.064 0.1c0.023 0.037 0.037 0.079 0.040 0.123l0.012 0.164c0.007 0.106 0.095 0.188 0.201 0.189 0.070 0.001 0.134 0.037 0.171 0.096l0.031 0.050c0.055 0.090 0.062 0.202 0.016 0.297l-0.041 0.086c-0.024 0.051-0.072 0.087-0.127 0.097-0.082 0.015-0.164-0.030-0.195-0.108l-0.003-0.009c-0.043-0.108-0.173-0.15-0.272-0.090-0.066 0.040-0.101 0.116-0.090 0.191l0.040 0.255c0.006 0.038 0.022 0.074 0.045 0.105 0.091 0.12 0.047 0.294-0.091 0.355l-0.162 0.072c-0.032 0.014-0.052 0.047-0.049 0.082 0.004 0.049-0.036 0.090-0.085 0.089l-0.051-0.002c-0.049-0.001-0.095 0.025-0.118 0.069l-0.048 0.092c-0.013 0.024-0.012 0.053 0.002 0.076 0.038 0.065-0.027 0.14-0.097 0.113l-0.327-0.128c-0.084-0.033-0.136-0.116-0.128-0.206l0.020-0.234c0.005-0.053-0.004-0.107-0.025-0.155-0.049-0.114-0.16-0.189-0.284-0.193l-0.055-0.002c-0.095-0.003-0.186-0.040-0.257-0.103l-0.708-0.628c-0.072-0.064-0.184-0.052-0.24 0.027-0.024 0.033-0.034 0.074-0.029 0.115l0.026 0.213c0.021 0.171-0.113 0.321-0.285 0.32l-0.166-0.001c-0.070-0-0.125-0.058-0.123-0.127 0.002-0.066-0.048-0.121-0.113-0.127l-0.034-0.003c-0.054-0.005-0.107 0.018-0.141 0.062l-0.008 0.011c-0.031 0.040-0.076 0.066-0.126 0.071l-0.687 0.076c-0.058 0.006-0.114 0.028-0.161 0.063-0.069 0.051-0.154 0.073-0.239 0.063l-0.294-0.036c-0.196-0.024-0.332-0.207-0.298-0.402 0.025-0.143-0.043-0.286-0.169-0.358l-0.585-0.336c-0.026-0.015-0.042-0.043-0.042-0.073 0-0.043-0.033-0.080-0.077-0.083l-0.274-0.023c-0.204-0.017-0.358-0.191-0.35-0.396l0.017-0.414c0.001-0.023-0.010-0.046-0.030-0.059-0.039-0.027-0.040-0.085-0-0.112l0.008-0.005c0.025-0.018 0.037-0.049 0.030-0.079l-0.098-0.384c-0.006-0.025-0-0.051 0.017-0.070l0.017-0.020c0.024-0.027 0.016-0.070-0.017-0.087s-0.072 0.001-0.081 0.037l-0.011 0.045c-0.008 0.034-0.035 0.061-0.069 0.069l-0.117 0.027c-0.050 0.012-0.103-0.001-0.142-0.035-0.037-0.032-0.057-0.079-0.055-0.128l0.010-0.226c0.005-0.117-0.023-0.234-0.080-0.337l-0.199-0.353c-0.034-0.060-0.088-0.105-0.153-0.126-0.071-0.023-0.148-0.017-0.214 0.018l-0.331 0.175c-0.065 0.034-0.138 0.051-0.211 0.049-0.079-0.003-0.157-0.027-0.223-0.071l-0.299-0.199c-0.072-0.048-0.125-0.12-0.149-0.203l-0.017-0.058c-0.017-0.057-0.010-0.118 0.019-0.17 0.047-0.086 0.033-0.193-0.036-0.263l-0.123-0.125c-0.069-0.070-0.182-0.067-0.247 0.005-0.032 0.036-0.079 0.057-0.127 0.056l-0.187-0.001c-0.126-0.001-0.239 0.075-0.286 0.191-0.054 0.133-0.194 0.211-0.336 0.186l-0.441-0.076c-0.119-0.021-0.233-0.066-0.333-0.133l-0.216-0.145c-0.072-0.048-0.127-0.116-0.159-0.196l-0.031-0.077c-0.030-0.076-0.095-0.134-0.174-0.155-0.067-0.018-0.124-0.062-0.158-0.123l-0.27-0.474c-0.083-0.146-0.242-0.233-0.41-0.222l-0.216 0.013c-0.086 0.005-0.164-0.052-0.185-0.135l-0.001-0.004c-0.015-0.059-0.060-0.106-0.119-0.123-0.082-0.024-0.134-0.105-0.123-0.189l0.045-0.334c0.019-0.139-0.105-0.255-0.243-0.227-0.041 0.008-0.083 0.004-0.121-0.012l-0.051-0.022c-0.132-0.057-0.221-0.183-0.231-0.326l-0.012-0.182c-0.001-0.016 0.006-0.033 0.019-0.043l0.009-0.008c0.028-0.022 0.019-0.067-0.015-0.077-0.028-0.009-0.040-0.041-0.024-0.066l0.053-0.084c0.032-0.050 0.022-0.115-0.022-0.154l-0.009-0.008c-0.031-0.027-0.072-0.038-0.113-0.031l-0.216 0.040c-0.083 0.016-0.168-0.011-0.229-0.070-0.026-0.025-0.046-0.055-0.059-0.088l-0.042-0.103c-0.050-0.125-0.065-0.261-0.044-0.394 0.019-0.116 0.065-0.226 0.135-0.32l0.116-0.156c0.046-0.061 0.105-0.112 0.173-0.147l0.024-0.012c0.063-0.032 0.133-0.048 0.203-0.044l0.352 0.017c0.025 0.001 0.044 0.022 0.043 0.047-0.001 0.028 0.023 0.050 0.050 0.047l0.571-0.067c0.094-0.011 0.184-0.047 0.259-0.104l0.259-0.194c0.025-0.019 0.043-0.044 0.053-0.073 0.033-0.095-0.031-0.195-0.13-0.206l-0.088-0.009c-0.049-0.005-0.094-0.026-0.13-0.059l-0.168-0.157c-0.095-0.088-0.215-0.144-0.343-0.159-0.143-0.017-0.276-0.084-0.374-0.19l-0.664-0.716c-0.138-0.149-0.235-0.33-0.281-0.527l-0.078-0.327c-0.015-0.062-0.051-0.117-0.103-0.154l-0.381-0.276c-0.030-0.022-0.021-0.069 0.015-0.079l0.041-0.011c0.034-0.009 0.034-0.058-0.001-0.066-0.011-0.003-0.020-0.010-0.024-0.020l-0.052-0.127c-0.018-0.044-0.008-0.094 0.025-0.128l0.024-0.025c0.050-0.051 0.029-0.138-0.039-0.16-0.037-0.012-0.063-0.046-0.066-0.085l-0.030-0.375c-0.008-0.097-0.065-0.183-0.152-0.226l-0.125-0.063c-0.023-0.012-0.052-0.009-0.072 0.008-0.038 0.032-0.096 0.012-0.106-0.037l-0.033-0.154c-0.009-0.040-0.033-0.076-0.067-0.099l-0.006-0.004c-0.058-0.039-0.087-0.108-0.075-0.177l0.003-0.019c0.011-0.064-0.009-0.13-0.053-0.177l-0.030-0.032c-0.037-0.039-0.048-0.095-0.030-0.145l0.006-0.017c0.016-0.043 0.056-0.073 0.102-0.075 0.057-0.002 0.103-0.046 0.109-0.103l0.013-0.13c0.009-0.091-0.030-0.18-0.103-0.236l-0.152-0.115c-0.045-0.034-0.101-0.049-0.157-0.041-0.091 0.013-0.181-0.035-0.22-0.118l-0.058-0.123c-0.046-0.098-0.133-0.172-0.237-0.202-0.074-0.021-0.139-0.065-0.188-0.124l-0.247-0.303c-0.023-0.028-0.056-0.046-0.093-0.050-0.078-0.008-0.134-0.080-0.122-0.158l0.003-0.019c0.007-0.049-0.009-0.099-0.044-0.134l-0.054-0.054c-0.056-0.057-0.088-0.133-0.090-0.213l-0.002-0.119c-0.002-0.144-0.056-0.282-0.151-0.39l-0.196-0.221c-0.007-0.008-0.011-0.017-0.011-0.027l-0.003-0.065c-0.001-0.024-0.033-0.032-0.045-0.012-0.006 0.009-0.016 0.014-0.027 0.011l-0.298-0.074c-0.030-0.007-0.061 0.004-0.078 0.030-0.023 0.033-0.067 0.042-0.101 0.020l-0.015-0.010c-0.040-0.026-0.054-0.078-0.032-0.12l0.008-0.017c0.020-0.040 0.015-0.088-0.013-0.123l-0.054-0.067c-0.030-0.037-0.048-0.082-0.053-0.13l-0.028-0.275c-0.005-0.054 0.020-0.106 0.065-0.136l0.099-0.065c0.028-0.018 0.031-0.057 0.007-0.080-0.016-0.015-0.020-0.038-0.012-0.058l0.142-0.323c0.019-0.042 0.059-0.071 0.105-0.076l0.017-0.002c0.077-0.008 0.124-0.087 0.095-0.158-0.014-0.035-0.010-0.075 0.010-0.106l0.046-0.071c0.019-0.029 0.011-0.068-0.017-0.088-0.040-0.028-0.036-0.088 0.008-0.11l0.142-0.072c0.051-0.026 0.082-0.079 0.080-0.136l-0.002-0.055c-0.001-0.020-0.012-0.038-0.030-0.047l-0.044-0.022c-0.020-0.010-0.021-0.038-0.002-0.050 0.025-0.014 0.015-0.052-0.014-0.053l-0.025-0.001c-0.011-0-0.021-0.006-0.028-0.015l-0.112-0.155c-0.026-0.036-0.031-0.082-0.014-0.122 0.032-0.075-0.015-0.16-0.095-0.172l-0.149-0.024c-0.078-0.012-0.138-0.075-0.147-0.153-0.008-0.065 0.020-0.128 0.073-0.166l0.113-0.079c0.082-0.058 0.119-0.161 0.093-0.258l-0.002-0.006c-0.009-0.032-0.024-0.061-0.046-0.086-0.055-0.062-0.142-0.086-0.221-0.061l-0.006 0.002c-0.074 0.023-0.155 0.006-0.213-0.045l-0.133-0.117c-0.007-0.006-0.012-0.015-0.013-0.025l-0.011-0.126c-0.002-0.023 0.030-0.030 0.038-0.009 0.002 0.006 0.008 0.011 0.015 0.012l0.449 0.083c0.044 0.008 0.090-0.004 0.123-0.034 0.052-0.046 0.065-0.121 0.031-0.182l-0.287-0.51c-0.086-0.153-0.063-0.344 0.056-0.472l0.027-0.029c0.035-0.038 0.058-0.085 0.067-0.135 0.020-0.114-0.035-0.227-0.136-0.282l-0.102-0.055c-0.075-0.040-0.136-0.102-0.175-0.177l-0.009-0.017c-0.131-0.248-0.028-0.555 0.227-0.674l0.157-0.073c0.050-0.023 0.094-0.059 0.126-0.103 0.075-0.101 0.2-0.151 0.324-0.129l0.071 0.013c0.077 0.014 0.156 0.007 0.23-0.020l0.657-0.238c0.069-0.025 0.147-0.006 0.197 0.048 0.029 0.032 0.046 0.073 0.048 0.117l0.001 0.018c0.006 0.151 0.152 0.257 0.297 0.214l0.069-0.020c0.050-0.014 0.102-0.015 0.152-0.002l0.506 0.129c0.211 0.054 0.289 0.313 0.142 0.474l-0.028 0.031c-0.038 0.042-0.057 0.099-0.050 0.156 0.014 0.12 0.131 0.199 0.247 0.168l0.178-0.048c0.071-0.019 0.145-0.016 0.214 0.009l0.445 0.162c0.219 0.080 0.464 0.011 0.609-0.17 0.044-0.055 0.098-0.101 0.16-0.135l0.202-0.112c0.243-0.135 0.449-0.326 0.602-0.558l0.044-0.066c0.19-0.289 0.451-0.525 0.757-0.686l1.202-0.631c0.111-0.058 0.212-0.134 0.298-0.225l0.058-0.061c0.245-0.257 0.336-0.624 0.24-0.966-0.080-0.282-0.032-0.585 0.13-0.829l0.284-0.426c0.031-0.046 0.040-0.104 0.026-0.158-0.021-0.079 0.009-0.162 0.075-0.209l0.302-0.213c0.123-0.087 0.271-0.133 0.422-0.132l0.675 0.006c0.137 0.001 0.275-0.008 0.411-0.026l0.803-0.111c0.102-0.014 0.202-0.037 0.3-0.068l0.273-0.087c0.201-0.064 0.418-0.060 0.616 0.012l0.026 0.009c0.127 0.046 0.264 0.061 0.399 0.044l0.126-0.017c0.141-0.019 0.284 0.020 0.398 0.107l0.066 0.050c0.051 0.039 0.114 0.061 0.179 0.061 0.059 0 0.116-0.018 0.165-0.051l0.7-0.475c0.033-0.022 0.073-0.030 0.111-0.023 0.053 0.010 0.096 0.048 0.113 0.099l0.007 0.021c0.032 0.095 0.133 0.149 0.229 0.121l0.576-0.167c0.103-0.030 0.213 0.014 0.267 0.106 0.042 0.071 0.119 0.115 0.202 0.115h0.111c0.108 0 0.212-0.041 0.291-0.114l0.163-0.151c0.077-0.072 0.175-0.118 0.28-0.132 0.077-0.011 0.15-0.038 0.215-0.082l0.582-0.388c0.166-0.111 0.361-0.17 0.56-0.172 0.154-0.001 0.306-0.037 0.445-0.105l0.252-0.124c0.138-0.068 0.3-0.072 0.442-0.013z"></path>
</svg>
