<!-- Generated by IcoMoon.io -->
<svg version="1.1" xmlns="http://www.w3.org/2000/svg" width="46" height="32" viewBox="0 0 46 32">
<path stroke-linejoin="round" stroke-linecap="round" stroke-miterlimit="4" stroke-width="0.5333" stroke="#000" fill="#000" d="M9.674 1.461c0.061 0.089 0.145 0.16 0.243 0.206l0.134 0.062c0.138 0.064 0.3 0.038 0.412-0.065 0.090-0.083 0.216-0.117 0.336-0.090l0.619 0.138c0.085 0.019 0.174-0.007 0.236-0.069 0.095-0.096 0.25-0.101 0.351-0.010l0.548 0.495c0.058 0.052 0.134 0.079 0.212 0.074 0.124-0.008 0.239 0.064 0.286 0.179l0.041 0.1c0.080 0.194 0.287 0.305 0.493 0.265l0.274-0.054c0.095-0.019 0.169-0.093 0.187-0.188 0.015-0.078-0.011-0.159-0.068-0.214l-0.166-0.161c-0.045-0.043-0.054-0.111-0.023-0.165 0.037-0.063 0.117-0.086 0.181-0.052l0.448 0.24c0.212 0.114 0.226 0.413 0.025 0.546-0.122 0.080-0.173 0.233-0.125 0.371l0.116 0.332c0.048 0.138-0.053 0.283-0.2 0.285-0.044 0.001-0.088 0.015-0.123 0.041l-0.141 0.103c-0.151 0.111-0.244 0.284-0.251 0.472-0.003 0.092 0.014 0.183 0.051 0.268l0.126 0.288c0.128 0.293 0.325 0.551 0.575 0.752l0.204 0.164c0.074 0.059 0.156 0.107 0.245 0.141 0.298 0.115 0.515 0.377 0.571 0.692l0.019 0.106c0.024 0.133 0.082 0.258 0.169 0.362l0.093 0.112c0.029 0.034 0.066 0.061 0.108 0.076 0.1 0.035 0.212 0.004 0.278-0.079l0.116-0.144c0.059-0.074 0.138-0.13 0.227-0.161l0.129-0.046c0.090-0.032 0.187-0.033 0.278-0.003 0.117 0.039 0.245 0.026 0.351-0.037l0.243-0.143c0.19-0.112 0.425-0.117 0.62-0.013l0.157 0.084c0.096 0.051 0.159 0.148 0.166 0.257l0.003 0.048c0.007 0.114 0.090 0.208 0.202 0.231 0.077 0.015 0.143 0.066 0.177 0.136l0.547 1.118c0.197 0.404 0.614 0.653 1.063 0.637l0.25-0.009c0.099-0.004 0.194-0.041 0.268-0.106 0.155-0.135 0.384-0.142 0.548-0.017l0.224 0.172c0.137 0.106 0.326 0.115 0.473 0.024 0.22-0.137 0.511-0.041 0.606 0.2l0.023 0.057c0.045 0.113 0.132 0.205 0.243 0.255l0.661 0.297 0.475 0.138c0.251 0.073 0.52 0.044 0.75-0.081 0.203-0.11 0.439-0.146 0.666-0.101l0.403 0.080 0.629 0.156c0.1 0.025 0.183 0.093 0.226 0.186 0.054 0.117 0.17 0.193 0.299 0.196l0.094 0.002c0.089 0.002 0.174 0.034 0.241 0.091 0.081 0.068 0.131 0.167 0.137 0.273l0.003 0.055c0.009 0.132 0.067 0.255 0.163 0.346l0.751 0.703c0.211 0.198 0.485 0.314 0.774 0.329l0.223 0.011c0.481 0.025 0.87 0.399 0.913 0.878 0.021 0.23 0.123 0.444 0.288 0.605l0.383 0.373c0.214 0.208 0.516 0.299 0.809 0.243l0.228-0.044c0.198-0.038 0.399 0.038 0.523 0.197 0.095 0.122 0.132 0.28 0.101 0.432l-0.219 1.093c-0.030 0.147-0.005 0.3 0.068 0.431 0.085 0.152 0.23 0.262 0.399 0.303l0.516 0.126c0.065 0.016 0.133 0.001 0.185-0.039 0.067-0.052 0.099-0.138 0.080-0.221l-0.005-0.022c-0.012-0.054-0.006-0.111 0.017-0.161l0.155-0.338c0.113-0.245 0.377-0.383 0.643-0.336 0.156 0.028 0.316-0.008 0.446-0.099l0.279-0.197c0.048-0.034 0.111-0.036 0.161-0.005 0.066 0.041 0.152 0.023 0.196-0.040l0.109-0.156c0.039-0.056 0.094-0.099 0.157-0.124l0.322-0.127c0.085-0.034 0.182-0.014 0.247 0.051 0.076 0.076 0.090 0.194 0.033 0.285l-0.027 0.044c-0.031 0.050-0.047 0.109-0.044 0.169l0.018 0.415c0.003 0.081 0.035 0.158 0.091 0.218 0.11 0.12 0.121 0.3 0.027 0.432l-0.036 0.050c-0.059 0.083-0.086 0.184-0.077 0.285l0.016 0.165c0.011 0.11 0.059 0.214 0.135 0.294 0.102 0.107 0.152 0.254 0.134 0.401l-0.030 0.251c-0.011 0.096 0.023 0.192 0.093 0.259l0.003 0.003c0.070 0.067 0.104 0.164 0.090 0.26-0.016 0.116 0.036 0.231 0.135 0.295l0.325 0.21c0.039 0.025 0.061 0.069 0.058 0.114-0.004 0.063 0.040 0.12 0.102 0.132l0.995 0.197c0.042 0.008 0.081 0.029 0.111 0.059 0.094 0.094 0.25 0.082 0.328-0.026l0.387-0.536c0.030-0.041 0.044-0.092 0.039-0.142-0.013-0.14 0.113-0.253 0.251-0.226l0.563 0.111c0.078 0.015 0.151 0.050 0.213 0.102l0.036 0.030c0.113 0.095 0.164 0.244 0.133 0.387-0.026 0.121 0.006 0.247 0.087 0.342l0.059 0.069c0.051 0.059 0.112 0.107 0.182 0.142l0.331 0.165c0.307 0.154 0.571 0.382 0.767 0.664 0.13 0.187 0.291 0.352 0.475 0.486l0.408 0.298c0.062 0.045 0.114 0.104 0.15 0.172 0.055 0.103 0.073 0.221 0.052 0.335l-0.006 0.032c-0.053 0.284 0.103 0.566 0.372 0.673l0.187 0.075c0.065 0.026 0.123 0.066 0.17 0.118l0.028 0.032c0.144 0.16 0.139 0.405-0.012 0.559l-0.121 0.123c-0.036 0.036-0.047 0.090-0.030 0.138 0.019 0.052 0.004 0.11-0.038 0.146l-0.043 0.038c-0.079 0.068-0.098 0.183-0.045 0.273 0.043 0.074 0.039 0.167-0.011 0.236l-0.077 0.107c-0.096 0.134-0.106 0.311-0.024 0.455l0.281 0.492c0.059 0.104 0.154 0.184 0.266 0.224l0.023 0.009c0.133 0.048 0.237 0.156 0.279 0.292 0.033 0.106 0.104 0.197 0.199 0.254l0.312 0.188c0.167 0.101 0.302 0.247 0.39 0.421l0.010 0.019c0.209 0.418 0.102 0.925-0.259 1.223-0.189 0.155-0.314 0.375-0.353 0.617l-0.137 0.861c-0.012 0.078-0.047 0.15-0.099 0.208-0.085 0.095-0.21 0.146-0.338 0.135l-0.151-0.012c-0.098-0.008-0.194 0.024-0.267 0.089-0.098 0.087-0.236 0.113-0.36 0.069l-0.738-0.265c-0.277-0.099-0.583-0.074-0.839 0.069l-0.049 0.027c-0.199 0.111-0.348 0.296-0.414 0.515l-0.027 0.090c-0.051 0.171-0.17 0.313-0.329 0.395l-0.112 0.058c-0.14 0.072-0.309 0.064-0.441-0.022-0.145-0.094-0.331-0.094-0.477-0.001l-0.369 0.236c-0.127 0.081-0.276 0.12-0.427 0.111l-0.021-0.001c-0.113-0.007-0.226 0.017-0.327 0.069-0.224 0.114-0.494 0.086-0.689-0.073l-0.095-0.077c-0.159-0.129-0.36-0.194-0.565-0.183l-0.677 0.038c-0.287 0.016-0.557-0.135-0.693-0.388-0.058-0.109-0.143-0.201-0.247-0.269l-0.248-0.162c-0.123-0.081-0.273-0.112-0.418-0.089l-0.046 0.007c-0.167 0.027-0.336-0.031-0.451-0.154l-0.093-0.1c-0.092-0.098-0.236-0.128-0.359-0.073l-0.143 0.064c-0.063 0.028-0.137 0.005-0.173-0.054-0.030-0.049-0.088-0.074-0.144-0.062l-0.171 0.035c-0.115 0.024-0.212 0.098-0.266 0.202l-0.011 0.021c-0.065 0.128-0.19 0.215-0.332 0.233l-0.742 0.095c-0.074 0.009-0.144 0.040-0.201 0.088-0.127 0.106-0.308 0.121-0.45 0.035-0.067-0.041-0.12-0.1-0.152-0.171l-0.16-0.354c-0.15-0.332-0.407-0.604-0.729-0.774l-0.039-0.021c-0.179-0.095-0.375-0.153-0.577-0.172-0.158-0.015-0.317-0.006-0.473 0.028l-0.681 0.147c-0.372 0.080-0.761 0.007-1.079-0.202l-0.063-0.041c-0.247-0.163-0.544-0.23-0.837-0.19l-0.281 0.039c-0.103 0.014-0.207-0.009-0.295-0.064l-0.060-0.038c-0.229-0.144-0.532-0.017-0.59 0.247-0.010 0.047-0.029 0.093-0.056 0.133l-0.116 0.175c-0.195 0.294-0.558 0.429-0.898 0.336l-0.068-0.019c-0.107-0.029-0.203-0.089-0.277-0.171l-0.085-0.095c-0.072-0.080-0.178-0.12-0.285-0.108-0.115 0.013-0.229-0.034-0.299-0.126l-0.042-0.055c-0.075-0.097-0.187-0.16-0.309-0.173l-0.048-0.005c-0.121-0.013-0.234-0.065-0.323-0.147l-0.275-0.253c-0.039-0.036-0.091-0.056-0.145-0.055-0.129 0.002-0.229-0.111-0.211-0.239l0.002-0.017c0.016-0.113-0.055-0.219-0.165-0.248l-0.502-0.13c-0.063-0.016-0.12-0.050-0.165-0.098-0.093-0.099-0.118-0.244-0.065-0.369l0.006-0.015c0.063-0.147 0.023-0.318-0.098-0.422l-0.113-0.097c-0.057-0.049-0.093-0.118-0.103-0.192l-0.013-0.102c-0.010-0.077-0.070-0.138-0.147-0.148-0.065-0.008-0.129 0.021-0.165 0.076l-0.011 0.018c-0.043 0.066-0.12 0.101-0.198 0.091l-0.555-0.075c-0.188-0.025-0.348-0.148-0.422-0.323l-0.054-0.127c-0.030-0.072-0.093-0.126-0.169-0.147-0.071-0.019-0.146-0.006-0.207 0.035l-0.095 0.064c-0.079 0.054-0.142 0.128-0.181 0.216l-0.085 0.194c-0.032 0.073-0.090 0.13-0.163 0.161l-0.182 0.078c-0.084 0.036-0.115 0.139-0.065 0.216 0.040 0.060 0.030 0.141-0.024 0.189l-0.098 0.089c-0.083 0.075-0.113 0.194-0.076 0.3l0.004 0.011c0.030 0.085 0.013 0.18-0.044 0.249l-0.056 0.068c-0.048 0.059-0.047 0.144 0.004 0.202 0.049 0.056 0.052 0.138 0.007 0.197l-0.183 0.24c-0.031 0.041-0.023 0.099 0.019 0.13 0.034 0.025 0.047 0.070 0.031 0.109l-0.032 0.076c-0.029 0.070-0.096 0.116-0.171 0.12l-0.788 0.038c-0.1 0.005-0.193 0.049-0.261 0.122-0.128 0.14-0.34 0.163-0.495 0.055l-0.416-0.291c-0.061-0.043-0.141-0.050-0.208-0.018-0.057 0.026-0.123 0.026-0.179-0.001l-0.335-0.161c-0.096-0.046-0.21-0.005-0.256 0.090-0.042 0.088-0.011 0.194 0.072 0.245l0.085 0.053c0.069 0.043 0.118 0.112 0.136 0.191l0.046 0.205c0.062 0.274-0.099 0.55-0.368 0.631l-0.228 0.069c-0.138 0.042-0.284-0.029-0.338-0.162-0.029-0.072-0.087-0.129-0.16-0.156l-0.69-0.259c-0.054-0.020-0.096-0.062-0.116-0.116-0.027-0.071-0.011-0.151 0.041-0.206l0.35-0.37c0.065-0.068 0.111-0.152 0.135-0.243l0.21-0.801c0.017-0.066-0.043-0.125-0.109-0.107-0.049 0.014-0.099-0.016-0.109-0.066l-0.067-0.301c-0.024-0.107-0.092-0.198-0.188-0.251l-0.113-0.062c-0.109-0.060-0.199-0.149-0.26-0.258l-0.101-0.179c-0.039-0.069-0.057-0.149-0.051-0.228l0.018-0.259c0.004-0.055-0.034-0.105-0.088-0.116l-0.003-0.001c-0.044-0.009-0.090 0.011-0.113 0.050l-0.004 0.008c-0.048 0.080-0.169 0.060-0.189-0.031-0.015-0.071-0.098-0.105-0.158-0.064l-0.011 0.007c-0.029 0.019-0.065 0.024-0.098 0.013l-0.122-0.041c-0.069-0.023-0.136 0.042-0.115 0.112 0.012 0.038-0.003 0.079-0.037 0.101l-0.013 0.009c-0.049 0.032-0.114 0.021-0.15-0.026l-0.076-0.1c-0.045-0.059-0.115-0.095-0.189-0.097l-0.116-0.003c-0.094-0.003-0.186 0.022-0.266 0.071l-0.743 0.452c-0.217 0.132-0.479 0.166-0.722 0.094l-0.873-0.258c-0.105-0.031-0.154-0.151-0.101-0.247 0.023-0.042 0.028-0.091 0.013-0.136l-0.15-0.456c-0.014-0.043 0.009-0.090 0.052-0.105 0.051-0.018 0.072-0.078 0.043-0.124l-0.169-0.266c-0.023-0.037-0.066-0.055-0.109-0.047-0.050 0.010-0.099-0.017-0.118-0.064l-0.114-0.288c-0.034-0.087-0.040-0.183-0.017-0.273 0.054-0.207-0.049-0.423-0.244-0.512l-0.197-0.090c-0.116-0.053-0.215-0.136-0.286-0.24l-0.151-0.219c-0.030-0.044-0.045-0.096-0.043-0.15l0.002-0.067c0.003-0.083-0.054-0.155-0.135-0.172l-0.057-0.012c-0.070-0.014-0.111-0.086-0.088-0.153 0.019-0.054-0.005-0.114-0.055-0.141l-0.071-0.039c-0.065-0.036-0.145-0.035-0.209 0.002l-0.162 0.093c-0.172 0.099-0.384 0.097-0.554-0.004l-0.011-0.006c-0.104-0.062-0.226-0.090-0.347-0.078l-0.276 0.027c-0.077 0.007-0.149 0.042-0.203 0.097-0.146 0.149-0.391 0.126-0.507-0.047l-0.402-0.603c-0.087-0.131-0.139-0.282-0.151-0.439l-0.016-0.215c-0.013-0.171-0.083-0.333-0.199-0.459l-0.084-0.091c-0.102-0.111-0.149-0.263-0.127-0.412 0.038-0.262-0.134-0.509-0.394-0.563l-0.201-0.042c-0.173-0.036-0.327-0.135-0.432-0.278l-0.184-0.251c-0.079-0.107-0.082-0.253-0.007-0.363l0.065-0.096c0.109-0.16 0.002-0.377-0.191-0.388-0.049-0.003-0.095-0.020-0.135-0.049l-0.158-0.119c-0.192-0.144-0.451-0.164-0.663-0.050l-0.071 0.038c-0.343 0.185-0.766-0.029-0.821-0.415-0.007-0.048-0.007-0.097-0.002-0.145l0.349-2.955c0.031-0.263 0.101-0.519 0.206-0.762l0.131-0.3c0.082-0.187 0.206-0.352 0.363-0.483l0.271-0.225c0.054-0.045 0.121-0.070 0.19-0.071 0.107-0.002 0.205-0.060 0.259-0.152l0.202-0.347c0.062-0.106 0.143-0.201 0.238-0.278l0.658-0.534c0.096-0.078 0.206-0.137 0.325-0.172 0.302-0.091 0.539-0.326 0.633-0.628l0.235-0.752c0.012-0.040 0.017-0.082 0.014-0.124-0.007-0.094-0.054-0.18-0.129-0.237l-0.037-0.029c-0.103-0.079-0.155-0.208-0.134-0.337 0.009-0.055 0.031-0.107 0.065-0.152l0.308-0.414c0.247-0.332 0.338-0.756 0.247-1.161-0.041-0.183-0.045-0.372-0.013-0.556l0.034-0.192c0.024-0.136 0.073-0.266 0.146-0.383l0.053-0.085c0.062-0.101 0.15-0.183 0.253-0.241 0.177-0.098 0.302-0.268 0.343-0.465l0.11-0.528c0.012-0.058 0.003-0.119-0.025-0.171-0.046-0.085-0.039-0.189 0.018-0.268l0.736-1.015c0.050-0.068 0.084-0.147 0.1-0.229l0.003-0.016c0.033-0.172 0.148-0.318 0.307-0.392l0.013-0.006c0.099-0.046 0.211-0.059 0.319-0.035l0.032 0.007c0.102 0.022 0.208 0.005 0.298-0.047l0.118-0.068c0.112-0.065 0.159-0.201 0.111-0.321-0.041-0.103-0.012-0.22 0.071-0.292l0.014-0.012c0.061-0.053 0.096-0.128 0.098-0.208l0.021-0.825c0.005-0.214 0.088-0.42 0.233-0.578l0.074-0.081c0.041-0.045 0.092-0.081 0.149-0.104 0.122-0.049 0.259-0.037 0.371 0.033l0.316 0.199c0.133 0.083 0.247 0.193 0.336 0.323l0.344 0.504z"></path>
</svg>
