<!-- Generated by IcoMoon.io -->
<svg version="1.1" xmlns="http://www.w3.org/2000/svg" width="34" height="32" viewBox="0 0 34 32">
<path d="M0.432 10.91c-0.28-0.137-0.234-0.55 0.069-0.621 0.018-0.004 0.036-0.010 0.053-0.017l0.343-0.145c0.436-0.184 0.897-0.302 1.368-0.35l0.13-0.013c0.374-0.038 0.743-0.114 1.101-0.228l0.778-0.247c0.246-0.078 0.504-0.109 0.761-0.092 0.203 0.014 0.402 0.057 0.592 0.129l0.22 0.083c0.165 0.062 0.333 0.112 0.505 0.15l1.080 0.238c0.129 0.028 0.261 0.040 0.393 0.036l0.163-0.006c0.1-0.004 0.198-0.027 0.288-0.069l0.143-0.066c0.091-0.042 0.161-0.118 0.195-0.212l0.013-0.036c0.018-0.050 0.020-0.105 0.006-0.157l-0.044-0.155c-0.010-0.036-0.045-0.058-0.082-0.052l-0.062 0.010c-0.045 0.007-0.075-0.046-0.046-0.081 0.021-0.025 0.012-0.063-0.017-0.077l-0.121-0.055c-0.034-0.016-0.033-0.064 0.002-0.079l0.002-0.001c0.016-0.007 0.026-0.023 0.025-0.040l-0.004-0.055c-0.002-0.023 0.027-0.034 0.041-0.016 0.010 0.013 0.030 0.011 0.038-0.002l0.051-0.084c0.013-0.021 0.016-0.046 0.010-0.070l-0.106-0.402c-0.012-0.047-0.056-0.079-0.104-0.076-0.051 0.003-0.096-0.033-0.106-0.083l-0.054-0.283c-0.020-0.105 0.044-0.209 0.148-0.237 0.101-0.028 0.165-0.127 0.149-0.23l-0.031-0.197c-0.012-0.077 0.042-0.149 0.12-0.158 0.072-0.008 0.125-0.071 0.121-0.143l-0.011-0.233c-0.001-0.028 0.016-0.053 0.042-0.063 0.029-0.010 0.046-0.040 0.041-0.070l-0.022-0.134c-0.021-0.124-0.138-0.208-0.262-0.187l-0.125 0.021c-0.194 0.032-0.377-0.099-0.408-0.293l-0.066-0.417c-0.015-0.093 0.025-0.187 0.103-0.241l0.013-0.009c0.068-0.047 0.104-0.128 0.093-0.209l-0.005-0.040c-0.012-0.091-0.091-0.159-0.183-0.155-0.083 0.003-0.158-0.052-0.179-0.132l-0.010-0.037c-0.034-0.129-0.175-0.197-0.297-0.143-0.126 0.056-0.271-0.019-0.3-0.154l-0.052-0.248c-0.032-0.151 0.071-0.297 0.224-0.318l0.155-0.021c0.060-0.008 0.101-0.063 0.093-0.123-0.007-0.051 0.023-0.1 0.071-0.117l0.097-0.035c0.052-0.019 0.11 0.007 0.13 0.059 0.018 0.047 0.068 0.073 0.117 0.063l0.101-0.022c0.116-0.025 0.193-0.135 0.176-0.253l-0.055-0.373c-0.017-0.116-0.12-0.198-0.237-0.19-0.112 0.008-0.213-0.069-0.235-0.179l-0.047-0.234c-0.007-0.035-0.036-0.060-0.072-0.062-0.037-0.002-0.067-0.030-0.072-0.066l-0.042-0.295c-0.015-0.109 0.056-0.211 0.164-0.233 0.11-0.023 0.183-0.129 0.163-0.24l-0.156-0.874c-0.013-0.075 0.043-0.144 0.119-0.146l0.056-0.001c0.025-0.001 0.047 0.016 0.053 0.040 0.007 0.026 0.032 0.043 0.059 0.040l0.118-0.015c0.114-0.015 0.214 0.074 0.214 0.189l-0.001 0.097c-0.001 0.165 0.143 0.294 0.307 0.274l0.395-0.048c0.034-0.004 0.067 0.013 0.083 0.042 0.018 0.033 0.057 0.050 0.093 0.041l0.275-0.068c0.107-0.026 0.201-0.091 0.264-0.182l0.039-0.056c0.076-0.109 0.184-0.192 0.31-0.236l0.102-0.036c0.112-0.040 0.231-0.058 0.35-0.055l0.404 0.011c0.123 0.003 0.245-0.017 0.359-0.061l0.207-0.080c0.101-0.039 0.214-0.035 0.313 0.010 0.091 0.042 0.194 0.048 0.29 0.018l0.069-0.022c0.172-0.054 0.36-0.027 0.51 0.075l0.117 0.080c0.092 0.063 0.196 0.108 0.305 0.133l1.739 0.388c0.056 0.012 0.099 0.058 0.107 0.115 0.014 0.093 0.114 0.145 0.198 0.104l1.402-0.686c0.243-0.119 0.537-0.035 0.681 0.195l0.019 0.031c0.092 0.147 0.259 0.232 0.432 0.219l0.189-0.014c0.131-0.010 0.248 0.081 0.272 0.21 0.027 0.145 0.17 0.238 0.314 0.203l1.286-0.317c0.069-0.017 0.142-0.004 0.2 0.036l0.056 0.038c0.028 0.019 0.045 0.049 0.048 0.082 0.003 0.042-0.017 0.082-0.053 0.103l-0.048 0.029c-0.026 0.016-0.041 0.045-0.039 0.076l0.006 0.072c0.003 0.033 0.041 0.049 0.066 0.029 0.016-0.012 0.038-0.011 0.053 0.002l0.013 0.012c0.023 0.021 0.027 0.055 0.009 0.080l-0.002 0.003c-0.034 0.050 0.010 0.115 0.069 0.102l0.448-0.099c0.13-0.029 0.26 0.050 0.294 0.179l0.038 0.143c0.025 0.095-0.026 0.194-0.119 0.227l-0.053 0.019c-0.072 0.026-0.108 0.107-0.080 0.178 0.016 0.041 0.051 0.071 0.094 0.082l0.040 0.010c0.081 0.020 0.143 0.085 0.16 0.166l0.035 0.172c0.015 0.074-0.021 0.148-0.088 0.182l-0.084 0.042c-0.017 0.009-0.027 0.028-0.023 0.047 0.005 0.026 0.032 0.041 0.056 0.033l0.072-0.024c0.062-0.021 0.128 0.017 0.142 0.080l0.055 0.245c0.020 0.090 0.123 0.132 0.201 0.084l0.017-0.011c0.050-0.032 0.117-0.018 0.151 0.030l0.014 0.020c0.025 0.036 0.019 0.085-0.014 0.114s-0.040 0.076-0.016 0.112l0.101 0.152c0.044 0.066 0.059 0.148 0.041 0.225l-0.063 0.273c-0.027 0.115-0.129 0.197-0.247 0.197h-0.13c-0.085 0-0.151 0.075-0.139 0.16 0.010 0.070 0.070 0.122 0.14 0.121l0.706-0.005c0.027-0 0.054-0.006 0.079-0.016l0.163-0.066c0.097-0.039 0.197 0.049 0.17 0.15-0.012 0.047 0.004 0.097 0.041 0.129l0.013 0.011c0.028 0.023 0.063 0.036 0.099 0.037l0.579 0.002c0.077 0 0.147 0.043 0.183 0.111 0.041 0.077 0.126 0.12 0.212 0.109l0.287-0.039c0.076-0.010 0.133-0.077 0.13-0.154-0.003-0.090 0.073-0.162 0.162-0.155l0.296 0.022c0.041 0.003 0.076 0.032 0.086 0.073s0.043 0.068 0.083 0.072l0.738 0.072c0.059 0.006 0.117 0.005 0.176-0.002l0.521-0.062c0.042-0.005 0.076-0.036 0.084-0.077 0.007-0.037 0.036-0.067 0.072-0.075l0.605-0.146 0.093-0.021c0.066-0.015 0.132 0.025 0.151 0.090 0.006 0.021 0.006 0.044 0.001 0.065l-0.066 0.269c-0.009 0.035-0.036 0.062-0.071 0.069-0.044 0.009-0.075 0.048-0.074 0.093l0.003 0.128c0.003 0.148 0.134 0.26 0.281 0.241l0.212-0.028c0.235-0.031 0.453 0.13 0.492 0.364l0.086 0.517c0.008 0.046 0.046 0.081 0.093 0.083s0.085 0.037 0.093 0.083l0.070 0.41c0.026 0.15 0.164 0.255 0.316 0.24l0.322-0.033c0.107-0.011 0.179 0.108 0.123 0.2-0.029 0.047-0.086 0.071-0.14 0.057l-0.061-0.016c-0.035-0.009-0.070 0.012-0.079 0.047-0.006 0.025-0.027 0.044-0.053 0.048l-0.112 0.017c-0.12 0.018-0.203 0.131-0.183 0.251l0.002 0.010c0.018 0.112 0.123 0.188 0.235 0.171l0.14-0.021c0.045-0.007 0.086 0.026 0.089 0.072 0.003 0.039-0.024 0.073-0.062 0.081l-0.045 0.009c-0.067 0.014-0.112 0.077-0.103 0.145l0.002 0.015c0.007 0.050 0.039 0.093 0.085 0.114l0.037 0.016c0.057 0.026 0.123 0.025 0.18-0.001l0.149-0.068c0.268-0.123 0.585-0.026 0.738 0.226l0.252 0.414c0.104 0.171 0.334 0.214 0.493 0.093l0.119-0.091c0.085-0.065 0.207-0.047 0.27 0.039l0.054 0.073c0.031 0.042 0.090 0.052 0.133 0.023 0.045-0.031 0.106-0.018 0.136 0.027l0.096 0.147c0.045 0.068 0.141 0.078 0.198 0.019s0.155-0.048 0.199 0.021l0.471 0.753c0.018 0.028 0.056 0.033 0.081 0.011 0.020-0.018 0.050-0.019 0.070-0.001l0.516 0.437c0.12 0.101 0.302 0.069 0.38-0.068l0.067-0.117c0.025-0.044 0.079-0.063 0.126-0.043l0.018 0.008c0.034 0.015 0.053 0.051 0.044 0.087-0.011 0.046 0.023 0.091 0.071 0.093l0.224 0.010c0.144 0.006 0.255 0.129 0.247 0.273l-0.010 0.173c-0.002 0.031-0.026 0.055-0.057 0.057-0.023 0.002-0.043 0.016-0.052 0.037l-0.373 0.867c-0.022 0.051-0.024 0.109-0.007 0.162 0.036 0.109-0.014 0.227-0.117 0.277l-0.022 0.011c-0.128 0.062-0.282 0.007-0.343-0.122l-0.108-0.231c-0.036-0.077-0.121-0.117-0.203-0.097-0.097 0.024-0.156 0.122-0.13 0.219l0.037 0.137c0.036 0.136-0.021 0.279-0.141 0.352l-0.208 0.127c-0.028 0.017-0.043 0.051-0.037 0.083 0.007 0.037-0.012 0.074-0.047 0.088l-0.284 0.121c-0.073 0.031-0.157 0.002-0.195-0.067-0.029-0.052-0.085-0.083-0.144-0.079l-0.703 0.043c-0.042 0.003-0.081-0.023-0.095-0.062-0.016-0.043-0.059-0.068-0.104-0.061l-0.008 0.001c-0.060 0.009-0.099 0.067-0.086 0.126l0.298 1.333c0.040 0.177-0.104 0.341-0.284 0.325l-0.445-0.038c-0.022-0.002-0.037 0.021-0.027 0.041 0.010 0.018-0.002 0.040-0.023 0.041l-0.12 0.007c-0.087 0.005-0.13 0.108-0.072 0.173l0.197 0.22c0.023 0.026 0.060 0.036 0.094 0.025 0.038-0.013 0.080 0.002 0.102 0.036l0.026 0.041c0.019 0.030 0.061 0.034 0.086 0.008 0.030-0.033 0.085-0.017 0.093 0.027 0.007 0.037 0.050 0.056 0.082 0.036l0.008-0.005c0.032-0.019 0.073-0.005 0.086 0.030l0.002 0.006c0.010 0.027 0.041 0.041 0.068 0.031 0.022-0.009 0.048-0.001 0.062 0.018l0.311 0.437c0.029 0.041 0.080 0.060 0.129 0.048 0.068-0.016 0.135 0.026 0.15 0.095l0.079 0.377c0.011 0.053-0.013 0.108-0.060 0.136-0.089 0.052-0.082 0.183 0.012 0.225l0.728 0.328c0.061 0.027 0.132 0.019 0.185-0.022 0.074-0.057 0.18-0.048 0.244 0.021l0.027 0.029c0.074 0.079 0.080 0.2 0.015 0.287l-0.105 0.141c-0.089 0.119-0.064 0.288 0.056 0.377l0.056 0.041c0.131 0.097 0.118 0.297-0.024 0.376l-0.111 0.062c-0.023 0.013-0.053 0.009-0.071-0.011-0.021-0.022-0.055-0.024-0.079-0.006l-0.426 0.329c-0.177 0.137-0.219 0.387-0.095 0.574l0.061 0.093c0.099 0.149 0.055 0.351-0.096 0.446-0.036 0.023-0.076 0.037-0.118 0.044l-0.147 0.024c-0.183 0.030-0.356 0.108-0.5 0.226l-0.318 0.26c-0.248 0.202-0.456 0.449-0.614 0.727l-0.222 0.39-0.396 1.002c-0.052 0.132-0.123 0.256-0.21 0.367l-0.45 0.577c-0.012 0.016-0.032 0.025-0.051 0.024-0.060-0.002-0.082-0.081-0.032-0.114l0.128-0.084c0.023-0.015 0.039-0.038 0.046-0.064l0.020-0.074c0.016-0.060 0.049-0.114 0.096-0.155l0.31-0.272c0.041-0.036 0.074-0.082 0.095-0.133 0.038-0.093 0.035-0.197-0.008-0.287l-0.090-0.189c-0.044-0.092-0.105-0.176-0.179-0.246l-0.14-0.133c-0.11-0.104-0.234-0.194-0.368-0.266-0.27-0.146-0.574-0.217-0.88-0.207l-0.292 0.009c-0.243 0.008-0.482 0.071-0.698 0.183-0.082 0.043-0.168 0.078-0.256 0.107l-1.363 0.437c-0.156 0.050-0.305 0.121-0.442 0.21-0.143 0.093-0.272 0.206-0.384 0.335l-0.32 0.37c-0.192 0.221-0.364 0.458-0.517 0.708l-0.911 1.495c-0.024 0.039-0.051 0.075-0.082 0.108l-0.162 0.173c-0.058 0.062-0.145 0.089-0.228 0.071-0.060-0.013-0.123-0.003-0.176 0.029l-0.275 0.165c-0.013 0.008-0.028 0.011-0.043 0.010l-0.008-0.001c-0.036-0.004-0.061-0.037-0.055-0.072 0.006-0.038 0.046-0.062 0.082-0.049l0.054 0.019c0.032 0.011 0.069 0.007 0.097-0.012l0.067-0.045c0.045-0.030 0.080-0.072 0.101-0.122l0.037-0.089c0.033-0.081 0.109-0.135 0.196-0.142 0.043-0.003 0.085-0.018 0.119-0.044l0.22-0.161c0.124-0.091 0.229-0.205 0.31-0.336l0.236-0.385c0.072-0.117 0.111-0.251 0.114-0.388 0.004-0.168-0.048-0.332-0.146-0.467l-0.022-0.030c-0.075-0.103-0.171-0.189-0.282-0.252l-0.13-0.073c-0.138-0.078-0.296-0.115-0.455-0.108-0.089 0.004-0.176 0.023-0.259 0.055l-0.051 0.019c-0.197 0.075-0.411 0.097-0.619 0.062l-0.297-0.050c-0.213-0.036-0.429-0.041-0.643-0.017l-0.219 0.025c-0.332 0.039-0.658 0.12-0.969 0.243l-0.119 0.047-0.898 0.499c-0.468 0.26-0.896 0.588-1.269 0.973l-0.377 0.389c-0.351 0.362-0.766 0.656-1.224 0.867-0.582 0.268-1.093 0.67-1.492 1.172l-0.414 0.521-1.753 2.786c-0.15 0.239-0.343 0.449-0.569 0.618l-0.167 0.125c-0.081 0.061-0.17 0.108-0.265 0.142l-1.044 0.365c-0.126 0.044-0.257-0.050-0.257-0.183 0-0.062 0.030-0.12 0.080-0.157l0.32-0.232c0.045-0.033 0.069-0.088 0.062-0.144-0.008-0.065 0.025-0.127 0.083-0.156l0.181-0.090c0.037-0.019 0.077-0.032 0.119-0.039l0.608-0.108c0.12-0.021 0.237-0.058 0.349-0.109l0.341-0.155c0.205-0.094 0.354-0.279 0.401-0.5 0.021-0.101 0.065-0.197 0.127-0.279l0.583-0.776c0.044-0.058 0.074-0.125 0.089-0.197l0.040-0.189c0.017-0.081 0.080-0.143 0.161-0.159 0.054-0.011 0.101-0.043 0.132-0.089l0.333-0.506c0.020-0.030 0.012-0.070-0.017-0.090-0.020-0.014-0.045-0.016-0.067-0.005l-0.084 0.041c-0.037 0.018-0.065 0.049-0.081 0.086l-0.010 0.024c-0.048 0.114-0.204 0.129-0.272 0.026-0.026-0.039-0.068-0.064-0.115-0.069l-0.082-0.008c-0.146-0.013-0.265-0.122-0.292-0.266l-0.045-0.24c-0.023-0.121 0.005-0.246 0.076-0.345l0.009-0.013c0.052-0.073 0.079-0.161 0.075-0.251l-0.001-0.027c-0.002-0.058-0.021-0.114-0.053-0.163-0.037-0.055-0.091-0.096-0.153-0.118l-0.251-0.089c-0.13-0.046-0.24-0.138-0.309-0.258l-0.091-0.158c-0.013-0.022-0.033-0.039-0.057-0.047l-0.020-0.007c-0.045-0.015-0.069-0.064-0.052-0.109 0.027-0.073-0.051-0.14-0.119-0.102l-0.039 0.022c-0.043 0.024-0.062 0.075-0.046 0.121l0.168 0.469c0.029 0.081 0.079 0.152 0.144 0.207 0.106 0.088 0.168 0.218 0.172 0.355l0.006 0.184c0.005 0.159-0.036 0.316-0.118 0.452-0.069 0.115-0.165 0.211-0.28 0.281l-0.292 0.178c-0.13 0.079-0.233 0.196-0.296 0.334l-0.135 0.298c-0.029 0.065-0.092 0.109-0.162 0.115-0.11 0.010-0.207-0.073-0.214-0.183l-0.164-2.288c-0.011-0.151-0.147-0.263-0.297-0.244-0.058 0.007-0.117-0.005-0.168-0.035l-0.624-0.367c-0.090-0.053-0.196-0.074-0.299-0.059l-0.192 0.027c-0.131 0.019-0.254-0.067-0.282-0.196l-0.034-0.156c-0.010-0.044 0.017-0.087 0.060-0.099 0.041-0.011 0.067-0.051 0.061-0.093l-0.017-0.119c-0.017-0.121-0.13-0.205-0.25-0.186l-0.997 0.151c-0.142 0.022-0.276-0.074-0.302-0.215l-0.015-0.083c-0.015-0.082-0.087-0.14-0.171-0.138s-0.156-0.056-0.171-0.137l-0.029-0.16c-0.026-0.139 0.060-0.274 0.196-0.311 0.13-0.035 0.215-0.161 0.199-0.294l-0.034-0.288c-0.023-0.193-0.198-0.33-0.391-0.307l-0.233 0.028c-0.058 0.007-0.111-0.033-0.12-0.090s-0.061-0.097-0.118-0.091l-0.157 0.017c-0.146 0.016-0.278-0.086-0.3-0.231l-0.019-0.12c-0.016-0.102 0.055-0.196 0.157-0.21l0.075-0.010c0.056-0.008 0.096-0.058 0.090-0.114s0.035-0.107 0.091-0.114l0.701-0.093c0.037-0.005 0.064-0.037 0.064-0.074-0.001-0.039 0.029-0.072 0.069-0.075l0.007-0c0.042-0.003 0.075-0.037 0.076-0.080l0.002-0.177c0-0.042 0.034-0.077 0.076-0.078 0.047-0.002 0.082-0.043 0.075-0.090l-0.035-0.259c-0.023-0.172 0.097-0.331 0.269-0.356l0.016-0.002c0.185-0.027 0.311-0.199 0.282-0.384l-0.035-0.215c-0.025-0.156-0.166-0.267-0.324-0.254-0.159 0.013-0.301-0.099-0.324-0.257l-0.107-0.711c-0.022-0.147-0.159-0.248-0.305-0.226l-0.107 0.016c-0.090 0.014-0.173-0.049-0.184-0.139-0.011-0.088-0.092-0.15-0.18-0.14l-0.352 0.042c-0.091 0.011-0.174-0.054-0.185-0.144l-0.004-0.030c-0.008-0.063-0.061-0.111-0.124-0.114-0.059-0.003-0.11-0.045-0.122-0.103l-0.054-0.253c-0.014-0.066-0.076-0.11-0.143-0.101-0.071 0.009-0.136-0.042-0.145-0.113l-0.118-0.98c-0.012-0.101-0.103-0.175-0.204-0.166-0.1 0.009-0.189-0.062-0.204-0.161l-0.261-1.777c-0.017-0.118 0.063-0.229 0.181-0.25s0.199-0.133 0.18-0.252l-0.002-0.014c-0.002-0.015-0.006-0.029-0.011-0.043l-0.030-0.085c-0.029-0.080-0.111-0.129-0.195-0.117-0.094 0.014-0.182-0.047-0.202-0.14l-0.028-0.132c-0.026-0.122 0.047-0.244 0.167-0.279l0.067-0.019c0.045-0.013 0.079-0.050 0.088-0.096 0.017-0.086-0.059-0.162-0.145-0.146l-0.757 0.141c-0.098 0.018-0.165 0.109-0.153 0.208l0.008 0.067c0.007 0.060-0.033 0.116-0.093 0.128l-0.034 0.007c-0.044 0.009-0.073 0.052-0.064 0.096s-0.020 0.088-0.064 0.096l-0.122 0.024c-0.059 0.012-0.12-0.003-0.167-0.040l-0.022-0.018c-0.056-0.044-0.128-0.064-0.199-0.055l-0.108 0.014c-0.062 0.008-0.12 0.036-0.165 0.080l-0.089 0.087c-0.053 0.052-0.136 0.056-0.194 0.011-0.029-0.022-0.048-0.055-0.054-0.091l-0.195-1.116c-0.007-0.041-0.044-0.071-0.086-0.069s-0.078-0.028-0.086-0.069l-0.158-0.887c-0.020-0.11-0.071-0.211-0.148-0.292l-0.027-0.029c-0.029-0.030-0.062-0.055-0.1-0.073l-0.040-0.020z"></path>
</svg>
