<!-- Generated by IcoMoon.io -->
<svg version="1.1" xmlns="http://www.w3.org/2000/svg" width="26" height="32" viewBox="0 0 26 32">
<path stroke-linejoin="round" stroke-linecap="round" stroke-miterlimit="4" stroke-width="0.2936" stroke="#000" fill="#000" d="M10.804 1c-0.011 0.089 0.066 0.165 0.155 0.153 0.047-0.006 0.094 0.012 0.124 0.048l0.519 0.624c0.038 0.045 0.063 0.1 0.075 0.158l0.014 0.072c0.037 0.191 0.245 0.294 0.419 0.208 0.020-0.010 0.040-0.023 0.057-0.037l0.584-0.485c0.106-0.088 0.243-0.132 0.381-0.121l0.189 0.015c0.046 0.004 0.088 0.028 0.113 0.067 0.024 0.036 0.062 0.061 0.105 0.066l0.164 0.021c0.042 0.005 0.074 0.041 0.075 0.083 0.001 0.046 0.037 0.083 0.083 0.084l0.696 0.019c0.059 0.002 0.076 0.083 0.022 0.107l-0.016 0.007c-0.020 0.009-0.028 0.033-0.019 0.052l0.001 0.002c0.008 0.017 0.028 0.025 0.045 0.018l0.024-0.009c0.031-0.011 0.056 0.027 0.032 0.050-0.008 0.008-0.011 0.019-0.008 0.029l0.387 1.52c0.013 0.052 0.050 0.094 0.099 0.114l0.005 0.002c0.061 0.025 0.131 0.011 0.177-0.036 0.101-0.104 0.278-0.031 0.277 0.114l-0 0.027c-0 0.027 0.006 0.054 0.018 0.079l0.048 0.096c0.044 0.088 0.162 0.107 0.231 0.037 0.024-0.024 0.038-0.055 0.042-0.089l0.024-0.258c0.002-0.023 0.017-0.043 0.038-0.052 0.027-0.011 0.042-0.039 0.038-0.068l-0.036-0.232c-0.007-0.044-0.025-0.085-0.052-0.12-0.064-0.081-0.073-0.192-0.023-0.283l0.438-0.787c0.065-0.116 0.177-0.198 0.308-0.224 0.060-0.012 0.117-0.036 0.167-0.070l0.334-0.228c0.088-0.061 0.193-0.094 0.3-0.097l0.308-0.009c0.076-0.002 0.144 0.048 0.164 0.121 0.021 0.077 0.094 0.127 0.173 0.121l0.038-0.003c0.039-0.003 0.076-0.017 0.107-0.040l0.159-0.117c0.061-0.045 0.116-0.097 0.164-0.156l0.523-0.637c0.123-0.15 0.303-0.24 0.497-0.248l0.241-0.010c0.031-0.001 0.061 0.010 0.083 0.031 0.034 0.033 0.045 0.083 0.026 0.127l-0.052 0.119c-0.024 0.056 0.002 0.122 0.059 0.145l0.008 0.004c0.051 0.021 0.076 0.080 0.054 0.132-0.017 0.042-0.005 0.090 0.031 0.118l0.13 0.101c0.064 0.050 0.106 0.122 0.119 0.202l0.005 0.035c0.019 0.127 0.114 0.229 0.24 0.258 0.128 0.029 0.224 0.135 0.241 0.266l0.029 0.226c0.010 0.079 0.005 0.159-0.014 0.236l-0.046 0.185c-0.035 0.139-0.010 0.287 0.069 0.407l0.052 0.079c0.021 0.032 0.032 0.070 0.032 0.109 0 0.087 0.057 0.164 0.141 0.19l0.067 0.020c0.098 0.030 0.173 0.108 0.198 0.207l0.151 0.59c0.007 0.026 0.009 0.053 0.006 0.079l-0.011 0.119c-0.009 0.103 0.086 0.185 0.187 0.16l0.111-0.027c0.037-0.009 0.073 0.018 0.074 0.056 0.001 0.036 0.033 0.063 0.068 0.058l0.113-0.016c0.093-0.013 0.178 0.056 0.183 0.15l0.026 0.49c0.006 0.116-0.021 0.231-0.078 0.331l-0.309 0.547c-0.023 0.041-0.064 0.069-0.11 0.075l-0.142 0.020c-0.022 0.003-0.041-0.015-0.040-0.037 0.002-0.024-0.022-0.043-0.045-0.036l-0.335 0.103c-0.137 0.042-0.219 0.182-0.19 0.322l0.22 1.041 0.226 0.772c0.005 0.017 0.019 0.031 0.037 0.036 0.030 0.008 0.061-0.013 0.065-0.044l0.034-0.296c0.007-0.063 0.053-0.115 0.115-0.13 0.040-0.010 0.083-0.002 0.118 0.020l0.395 0.257c0.13 0.085 0.243 0.193 0.334 0.319l0.278 0.388c0.030 0.041 0.064 0.079 0.102 0.113 0.249 0.216 0.297 0.585 0.112 0.858l-0.008 0.012c-0.081 0.12-0.121 0.263-0.113 0.407l0.014 0.238c0 0.007 0.003 0.014 0.008 0.019 0.022 0.022-0.002 0.059-0.031 0.048l-0.21-0.078c-0.010-0.004-0.021-0.005-0.032-0.005l-0.036 0.002c-0.128 0.008-0.229 0.112-0.233 0.241l-0.003 0.126c-0.003 0.116 0.070 0.22 0.181 0.256 0.038 0.012 0.072 0.033 0.101 0.060l0.087 0.084c0.076 0.074 0.137 0.162 0.178 0.26l0.069 0.163c0.054 0.127 0.139 0.239 0.249 0.323l0.097 0.075c0.033 0.026 0.060 0.058 0.078 0.096 0.037 0.075 0.037 0.162 0.002 0.237l-0.077 0.162c-0.051 0.108-0.014 0.236 0.086 0.301l0.065 0.042c0.026 0.016 0.058 0.019 0.085 0.007l0.004-0.002c0.047-0.020 0.101 0.004 0.117 0.053 0.020 0.062-0.034 0.124-0.098 0.112l-0.225-0.041c-0.031-0.006-0.062-0.001-0.090 0.014-0.053 0.027-0.082 0.085-0.074 0.144l0.008 0.058c0.005 0.037 0.027 0.070 0.060 0.089l0.074 0.044c0.042 0.025 0.045 0.085 0.005 0.114-0.023 0.016-0.034 0.045-0.027 0.073l0.013 0.049c0.009 0.034-0.014 0.067-0.048 0.071-0.064 0.008-0.068 0.098-0.006 0.113l0.018 0.004c0.015 0.003 0.031 0.001 0.044-0.007l0.119-0.070c0.069-0.040 0.15-0.056 0.229-0.044l0.063 0.010c0.129 0.020 0.225 0.128 0.23 0.258 0.002 0.056 0.022 0.111 0.056 0.156l0.033 0.043c0.1 0.129 0.12 0.303 0.053 0.452l-0.035 0.077c-0.044 0.097-0.113 0.179-0.2 0.24l-0.238 0.164c-0.050 0.035-0.081 0.091-0.084 0.152-0.003 0.066-0.040 0.127-0.098 0.16l-0.065 0.037c-0.050 0.028-0.11 0.031-0.162 0.007l-0.016-0.007c-0.044-0.021-0.096-0.018-0.137 0.008l-0.007 0.004c-0.009 0.005-0.016 0.012-0.023 0.020-0.027 0.033-0.029 0.081-0.004 0.116 0.028 0.038 0.024 0.092-0.010 0.125l-0.099 0.097c-0.011 0.010-0.014 0.026-0.009 0.040 0.010 0.027-0.013 0.055-0.041 0.050l-0.040-0.007c-0.025-0.004-0.045 0.021-0.035 0.044 0.007 0.017-0.001 0.036-0.018 0.043l-0.019 0.007c-0.037 0.014-0.045 0.062-0.015 0.088l0.349 0.296c0.041 0.034 0.072 0.078 0.092 0.127l0.027 0.068c0.037 0.092 0.050 0.191 0.041 0.289l-0.014 0.139c-0.005 0.046-0.020 0.091-0.046 0.13l-0.055 0.085c-0.024 0.037-0.066 0.057-0.11 0.053l-0.058-0.005c-0.064-0.005-0.111 0.060-0.084 0.119 0.009 0.021 0.010 0.044 0.002 0.066l-0.009 0.024c-0.028 0.071 0.004 0.152 0.073 0.185l0.157 0.075c0.106 0.050 0.178 0.153 0.189 0.27l0.008 0.085c0.009 0.095-0.033 0.187-0.111 0.242l-0.054 0.039c-0.053 0.037-0.123 0.040-0.178 0.007l-0.061-0.036c-0.063-0.038-0.145-0.004-0.164 0.067-0.017 0.065 0.028 0.129 0.094 0.137l0.253 0.029c0.054 0.006 0.099 0.045 0.112 0.098 0.010 0.041 0 0.084-0.026 0.116l-0.222 0.266c-0.022 0.026-0.055 0.040-0.089 0.038l-0.005-0c-0.086-0.005-0.141 0.090-0.093 0.162 0.024 0.036 0.067 0.053 0.109 0.044l0.058-0.013c0.048-0.011 0.089-0.039 0.116-0.080l0.006-0.010c0.033-0.049 0.085-0.083 0.144-0.094l0.447-0.080c0.097-0.017 0.197 0.008 0.274 0.068 0.031 0.025 0.058 0.054 0.079 0.088l0.077 0.123c0.029 0.047 0.046 0.101 0.048 0.156l0.004 0.107c0.003 0.079 0.058 0.146 0.134 0.164l0.026 0.006c0.030 0.007 0.055 0.026 0.071 0.052l0.027 0.046c0.015 0.024 0.045 0.034 0.071 0.022 0.047-0.022 0.096 0.027 0.073 0.074l-0.113 0.225c-0.022 0.043-0.020 0.095 0.005 0.137l0.018 0.030c0.027 0.045 0.071 0.078 0.122 0.092l0.358 0.096c0.016 0.004 0.033 0.005 0.050 0.001 0.080-0.019 0.148 0.061 0.117 0.137l-0.065 0.16c-0.019 0.047-0.018 0.1 0.004 0.146l0.034 0.072c0.027 0.058-0.001 0.127-0.061 0.149-0.063 0.023-0.090 0.097-0.058 0.155l0.25 0.451c0.028 0.051 0.006 0.116-0.048 0.139-0.026 0.011-0.046 0.032-0.055 0.059l-0.076 0.219c-0.016 0.048-0.043 0.091-0.077 0.128l-0.027 0.028c-0.123 0.132-0.114 0.34 0.020 0.461 0.13 0.118 0.143 0.318 0.028 0.451l-0.109 0.127c-0.012 0.014-0.019 0.031-0.022 0.048l-0.007 0.050c-0.004 0.027 0.016 0.052 0.043 0.054 0.045 0.003 0.060 0.061 0.023 0.087l-0.084 0.057c-0.042 0.028-0.049 0.087-0.015 0.124l0.283 0.315c0.080 0.089 0.122 0.207 0.115 0.327l-0.009 0.157c-0.003 0.048-0.027 0.093-0.065 0.122-0.064 0.048-0.084 0.136-0.047 0.208l0.118 0.225c0.017 0.032 0.015 0.071-0.004 0.102-0.025 0.039-0.020 0.090 0.011 0.124l0.192 0.208c0.023 0.025 0.028 0.063 0.011 0.093-0.014 0.025-0.014 0.055 0.001 0.079l0.132 0.226c0.040 0.069 0.044 0.153 0.010 0.225-0.023 0.048-0.060 0.087-0.107 0.112l-0.338 0.177c-0.057 0.030-0.057 0.111-0 0.141 0.049 0.026 0.058 0.093 0.016 0.13l-0.292 0.26c-0.027 0.024-0.021 0.068 0.012 0.083 0.031 0.015 0.039 0.056 0.015 0.081l-0.046 0.047c-0.024 0.025-0.063 0.031-0.094 0.014-0.033-0.019-0.075-0.011-0.099 0.019l-0.119 0.15c-0.028 0.035-0.075 0.049-0.118 0.034-0.056-0.019-0.116 0.011-0.135 0.066l-0.002 0.007c-0.012 0.037-0.043 0.064-0.080 0.074l-0.367 0.090c-0.044 0.011-0.079 0.044-0.092 0.087-0.026 0.083-0.125 0.117-0.197 0.067l-0.1-0.069c-0.050-0.035-0.118-0.033-0.166 0.006l-0.010 0.008c-0.040 0.032-0.055 0.086-0.037 0.134 0.013 0.037 0.008 0.077-0.014 0.109l-0.042 0.060c-0.033 0.048-0.104 0.049-0.139 0.002-0.029-0.040-0.086-0.047-0.123-0.015l-0.113 0.094c-0.014 0.011-0.031 0.015-0.049 0.011-0.044-0.010-0.081 0.033-0.065 0.074l0.163 0.421c0.029 0.074 0.026 0.157-0.007 0.229l-0.142 0.307c-0.026 0.055-0.027 0.118-0.006 0.175 0.033 0.085 0.114 0.141 0.205 0.142l0.034 0c0.156 0.002 0.279 0.134 0.269 0.29l-0.015 0.236c-0.004 0.063 0.033 0.121 0.091 0.144l0.025 0.010c0.066 0.027 0.095 0.105 0.062 0.168-0.025 0.049-0.080 0.074-0.133 0.063l-0.59-0.128c-0.034-0.008-0.069 0.012-0.080 0.045-0.014 0.041-0.061 0.059-0.099 0.038l-0.028-0.016c-0.049-0.027-0.11-0.008-0.134 0.042l-0.157 0.323c-0.036 0.074-0.125 0.104-0.198 0.068l-0.029-0.014c-0.050-0.024-0.11-0.008-0.141 0.038-0.044 0.065-0.139 0.065-0.183 0.001l-0.005-0.007c-0.021-0.031-0.055-0.049-0.093-0.050l-0.149-0.004c-0.161-0.005-0.297 0.118-0.31 0.278l-0.011 0.147c-0.006 0.074-0.068 0.132-0.142 0.132h-0.011c-0.045 0-0.087-0.025-0.109-0.064-0.036-0.066-0.122-0.085-0.183-0.040l-0.101 0.075c-0.045 0.033-0.1 0.050-0.156 0.046l-0.481-0.036c-0.056-0.004-0.111 0.005-0.163 0.025l-0.094 0.037c-0.072 0.029-0.155 0.014-0.213-0.038-0.040-0.036-0.093-0.055-0.146-0.052l-0.73 0.033c-0.040 0.002-0.080-0.004-0.118-0.017l-0.060-0.020c-0.090-0.031-0.152-0.114-0.156-0.209-0.002-0.048 0.011-0.095 0.037-0.135l0.036-0.055c0.070-0.107 0.031-0.25-0.083-0.308-0.051-0.025-0.089-0.070-0.107-0.124l-0.045-0.136c-0.015-0.044-0.041-0.084-0.075-0.115-0.11-0.099-0.119-0.267-0.021-0.377l0.233-0.26c0.038-0.042 0.065-0.092 0.080-0.147 0.041-0.15-0.017-0.31-0.145-0.398l-0.059-0.041c-0.070-0.048-0.112-0.128-0.111-0.214l0.001-0.088c0.001-0.051-0.030-0.097-0.076-0.116-0.078-0.033-0.101-0.132-0.047-0.196l0.087-0.102c0.043-0.051 0.057-0.12 0.037-0.183l-0.032-0.101c-0.009-0.028-0.037-0.046-0.066-0.043-0.041 0.004-0.075-0.032-0.068-0.073l0.023-0.128c0.011-0.063-0.016-0.126-0.069-0.162l-0.42-0.279c-0.049-0.033-0.076-0.090-0.070-0.148 0.007-0.067-0.029-0.13-0.090-0.159l-0.079-0.038c-0.033-0.016-0.071-0.021-0.107-0.013-0.057 0.012-0.104 0.053-0.124 0.108l-0.038 0.106c-0.042 0.116-0.138 0.204-0.258 0.235l-0.327 0.082c-0.033 0.008-0.058 0.033-0.067 0.066-0.011 0.042-0.049 0.070-0.093 0.069l-0.082-0.003c-0.088-0.003-0.168 0.053-0.193 0.138l-0.146 0.484c-0.009 0.032-0.035 0.055-0.067 0.062s-0.065-0.004-0.087-0.028l-0.046-0.051c-0.051-0.057-0.129-0.082-0.203-0.064l-0.084 0.020c-0.054 0.013-0.111 0.012-0.166-0.001l-0.419-0.104c-0.036-0.009-0.074-0.009-0.111 0.001-0.093 0.025-0.159 0.107-0.164 0.202l-0.005 0.102c-0.004 0.084-0.058 0.158-0.136 0.189-0.094 0.037-0.201 0.003-0.257-0.082l-0.206-0.312c-0.075-0.113-0.219-0.16-0.346-0.113l-0.068 0.025c-0.087 0.032-0.184 0.001-0.236-0.075-0.037-0.055-0.099-0.088-0.166-0.088h-0.093c-0.161 0-0.304 0.103-0.356 0.256l-0.030 0.090c-0.030 0.088-0.093 0.162-0.176 0.205-0.098 0.051-0.214 0.054-0.314 0.008l-0.188-0.085c-0.063-0.029-0.13-0.049-0.198-0.060l-0.556-0.091c-0.021-0.003-0.040-0.013-0.056-0.028l-0.022-0.021c-0.055-0.053-0.147-0.018-0.153 0.059-0.002 0.024-0.014 0.047-0.032 0.063l-0.113 0.095c-0.033 0.027-0.080 0.028-0.113 0.001-0.017-0.014-0.038-0.021-0.060-0.020l-0.397 0.018c-0.163 0.008-0.321 0.055-0.461 0.139-0.133 0.080-0.283 0.127-0.437 0.138l-0.031 0.002c-0.066 0.005-0.131 0.003-0.197-0.004l-0.884-0.095c-0.114-0.012-0.228 0.009-0.33 0.061l-0.015 0.008c-0.062 0.032-0.129 0.050-0.198 0.055l-0.063 0.004c-0.086 0.006-0.168 0.044-0.227 0.107-0.048 0.050-0.11 0.085-0.178 0.1l-0.226 0.048c-0.017 0.004-0.034 0.002-0.050-0.005l-0.045-0.018c-0.036-0.015-0.075 0.012-0.074 0.051 0.001 0.026-0.018 0.049-0.043 0.054l-0.063 0.012c-0.049 0.010-0.087 0.046-0.1 0.093l-0.011 0.042c-0.018 0.066-0.073 0.116-0.141 0.126-0.055 0.009-0.11-0.009-0.15-0.048l-0.47-0.467c-0.026-0.025-0.058-0.043-0.094-0.049-0.12-0.023-0.183-0.156-0.125-0.263l0.009-0.017c0.063-0.118-0.008-0.263-0.14-0.285l-0.273-0.045c-0.034-0.006-0.068 0.010-0.085 0.040-0.032 0.055-0.112 0.055-0.144-0l-0.241-0.413c-0.033-0.057-0.044-0.124-0.030-0.188 0.011-0.049 0.007-0.101-0.011-0.148l-0.093-0.248c-0.012-0.031-0.009-0.066 0.008-0.095 0.046-0.080-0.019-0.178-0.11-0.166l-0.007 0.001c-0.038 0.005-0.075-0.010-0.101-0.038l-0.153-0.174c-0.036-0.042-0.101-0.043-0.139-0.003-0.022 0.024-0.056 0.034-0.088 0.027l-0.004-0.001c-0.046-0.010-0.079-0.050-0.079-0.097l-0.004-0.294c-0-0.030 0.021-0.056 0.051-0.062 0.027-0.005 0.048-0.027 0.051-0.054l0.006-0.062c0.004-0.039 0.030-0.072 0.068-0.084 0.054-0.018 0.082-0.078 0.061-0.131l-0.195-0.501c-0.011-0.028-0.017-0.058-0.018-0.088l-0.005-0.176c-0.001-0.037 0.026-0.070 0.063-0.074 0.027-0.004 0.050-0.022 0.059-0.048l0.004-0.010c0.014-0.038 0.050-0.062 0.091-0.059l0.032 0.002c0.022 0.001 0.043 0.008 0.062 0.020l0.074 0.046c0.134 0.084 0.31 0.044 0.395-0.089l0.066-0.102c0.049-0.077 0.151-0.099 0.228-0.050l0.011 0.007c0.065 0.041 0.151 0.027 0.199-0.033 0.029-0.036 0.040-0.082 0.031-0.127l-0.076-0.359c-0.022-0.105-0.102-0.189-0.206-0.218l-0.144-0.039c-0.106-0.029-0.157-0.149-0.104-0.245l0.013-0.024c0.013-0.023 0.016-0.050 0.009-0.075l-0.016-0.061c-0.008-0.028 0.011-0.056 0.040-0.059 0.042-0.005 0.057-0.059 0.023-0.084l-0.035-0.026c-0.020-0.015-0.030-0.040-0.025-0.064l0.028-0.138c0.018-0.090 0.080-0.165 0.164-0.201l0.171-0.073c0.089-0.038 0.116-0.151 0.053-0.225-0.021-0.024-0.033-0.056-0.034-0.088l-0.004-0.118c-0.003-0.082-0.083-0.139-0.162-0.116l-0.016 0.005c-0.056 0.017-0.089 0.075-0.073 0.132l0.005 0.017c0.014 0.054-0.022 0.108-0.077 0.116-0.047 0.006-0.091-0.024-0.102-0.070l-0.126-0.525c-0.008-0.034-0.041-0.055-0.075-0.048-0.041 0.008-0.079-0.025-0.077-0.067l0.012-0.222c0.009-0.165-0.15-0.289-0.308-0.239l-0.095 0.030c-0.079 0.025-0.145 0.081-0.182 0.155l-0.057 0.114c-0.017 0.034-0.051 0.056-0.089 0.059-0.024 0.001-0.047-0.005-0.066-0.018l-0.18-0.124c-0.051-0.035-0.090-0.084-0.112-0.141l-0.008-0.020c-0.035-0.088-0.112-0.151-0.205-0.168l-0.121-0.021c-0.058-0.010-0.1-0.060-0.101-0.119l-0-0.015c-0.001-0.054-0.043-0.099-0.097-0.104l-0.080-0.007c-0.014-0.001-0.027 0.009-0.028 0.024-0.002 0.021-0.026 0.031-0.042 0.017l-0.206-0.176c-0.024-0.021-0.007-0.060 0.024-0.057 0.025 0.003 0.043-0.023 0.033-0.046l-0.002-0.004c-0.009-0.019 0.001-0.041 0.020-0.047l0.032-0.011c0.046-0.016 0.059-0.075 0.024-0.11l-0.277-0.27-0.079-0.059c-0.062-0.046-0.138-0.072-0.216-0.073l-0.031-0.001c-0.192-0.003-0.343-0.164-0.335-0.356 0.005-0.127-0.060-0.247-0.171-0.31l-0.216-0.124c-0.175-0.101-0.266-0.302-0.226-0.499 0.011-0.054 0.031-0.106 0.060-0.153l0.253-0.411c0.025-0.042 0.042-0.088 0.049-0.136l0.036-0.25c0.014-0.097-0.065-0.182-0.163-0.175-0.075 0.005-0.143-0.044-0.16-0.118l-0.022-0.095c-0.017-0.073-0.065-0.136-0.131-0.172l-0.293-0.163c-0.069-0.038-0.121-0.101-0.145-0.176l-0.056-0.174c-0.027-0.084 0.025-0.174 0.112-0.191 0.096-0.019 0.148-0.125 0.103-0.213l-0.019-0.037c-0.026-0.050-0.026-0.109-0.001-0.16l0.010-0.021c0.048-0.1 0.018-0.22-0.073-0.284l-0.048-0.034c-0.101-0.071-0.115-0.215-0.031-0.305 0.032-0.034 0.051-0.078 0.054-0.124l0.009-0.133c0.002-0.031-0.010-0.061-0.033-0.082-0.038-0.034-0.044-0.092-0.015-0.134l0.010-0.014c0.017-0.024 0.043-0.041 0.071-0.047l0.099-0.022c0.119-0.026 0.218-0.107 0.267-0.218l0.147-0.329c0.057-0.128 0.065-0.272 0.023-0.405l-0.030-0.094c-0.013-0.041-0.014-0.086-0.003-0.128l0.008-0.032c0.024-0.093-0.024-0.19-0.114-0.227-0.074-0.030-0.121-0.102-0.12-0.181l0.003-0.148c0.001-0.036-0.014-0.071-0.040-0.096-0.032-0.030-0.046-0.074-0.038-0.117l0.056-0.3c0.009-0.047 0.002-0.095-0.020-0.137-0.036-0.068-0.031-0.15 0.011-0.214l0.051-0.077c0.038-0.057 0.049-0.129 0.029-0.195l-0.006-0.021c-0.012-0.039-0.009-0.082 0.007-0.119l0.035-0.079c0.011-0.026 0.004-0.056-0.018-0.073-0.024-0.019-0.031-0.053-0.015-0.079l0.023-0.040c0.028-0.048 0.017-0.109-0.025-0.145l-0.232-0.196c-0.050-0.042-0.073-0.107-0.062-0.171l0.004-0.023c0.009-0.050 0.043-0.091 0.090-0.109 0.057-0.022 0.094-0.078 0.092-0.139l-0-0.006c-0.001-0.020-0.006-0.040-0.014-0.058l-0.306-0.648c-0.041-0.087-0.003-0.191 0.085-0.23 0.066-0.030 0.106-0.098 0.101-0.17l-0.001-0.018c-0.009-0.109 0.073-0.204 0.182-0.212l0.268-0.020c0.043-0.003 0.080-0.031 0.095-0.071 0.016-0.042 0.055-0.070 0.1-0.072l0.186-0.006c0.1-0.003 0.163-0.107 0.121-0.197-0.012-0.026-0.016-0.056-0.011-0.085l0.017-0.091c0.022-0.114 0.089-0.214 0.186-0.277l0.034-0.022c0.15-0.097 0.239-0.265 0.236-0.444l-0.006-0.325c-0.001-0.042 0.023-0.080 0.061-0.099 0.048-0.023 0.072-0.078 0.056-0.129l-0.001-0.005c-0.010-0.031-0.006-0.064 0.011-0.092l0.309-0.523c0.057-0.096 0.128-0.184 0.21-0.26l0.393-0.363c0.036-0.033 0.053-0.083 0.046-0.131l-0.001-0.004c-0.007-0.044-0.035-0.083-0.074-0.103l-0.046-0.024c-0.062-0.032-0.075-0.116-0.025-0.165 0.028-0.027 0.038-0.068 0.026-0.105l-0.080-0.246c-0.067-0.205 0.061-0.422 0.272-0.464 0.091-0.018 0.172-0.071 0.225-0.147l0.104-0.15c0.050-0.072 0.076-0.157 0.075-0.244l-0.002-0.127c-0.001-0.084-0.051-0.16-0.127-0.194-0.086-0.039-0.137-0.129-0.126-0.222l0.102-0.878c0.008-0.067 0.064-0.119 0.132-0.121 0.085-0.003 0.152 0.072 0.14 0.157l-0.005 0.034c-0.010 0.065 0.020 0.129 0.076 0.164l0.265 0.167c0.041 0.026 0.074 0.061 0.098 0.102l0.039 0.068c0.028 0.050 0.082 0.080 0.139 0.080 0.108-0.001 0.183-0.107 0.149-0.209l-0.047-0.138c-0.015-0.045-0.058-0.076-0.106-0.076-0.061 0-0.111-0.049-0.112-0.11l-0.006-0.321c-0.004-0.181 0.128-0.336 0.306-0.362 0.085-0.012 0.163-0.055 0.219-0.12l0.139-0.161c0.023-0.026 0.059-0.037 0.092-0.026l0.039 0.012c0.047 0.015 0.092-0.027 0.081-0.075-0.013-0.059 0.056-0.101 0.103-0.063l0.548 0.445c0.034 0.027 0.074 0.044 0.118 0.049 0.097 0.011 0.19-0.042 0.231-0.13l0.231-0.5c0.061-0.133 0.186-0.226 0.331-0.245l0.069-0.009c0.032-0.004 0.061-0.017 0.086-0.037 0.063-0.050 0.084-0.137 0.051-0.211l-0.108-0.242c-0.045-0.101-0.053-0.214-0.022-0.32l0.070-0.241c0.013-0.045-0.004-0.093-0.042-0.12-0.063-0.045-0.061-0.139 0.003-0.181l0.103-0.069c0.051-0.034 0.116-0.042 0.174-0.022l0.414 0.145c0.069 0.024 0.128 0.073 0.164 0.136l0.008 0.014c0.026 0.045 0.037 0.096 0.033 0.147l-0.012 0.154c-0.007 0.090 0.074 0.163 0.163 0.146 0.038-0.007 0.072-0.031 0.092-0.064l0.067-0.111c0.016-0.026 0.044-0.042 0.075-0.042 0.068 0.001 0.108 0.077 0.071 0.134l-0.079 0.118c-0.077 0.116 0.017 0.27 0.156 0.253l0.525-0.063c0.061-0.007 0.12-0.028 0.171-0.061l0.151-0.097c0.061-0.039 0.132-0.056 0.204-0.050 0.12 0.010 0.236-0.047 0.302-0.148l0.104-0.16c0.045-0.069 0.117-0.115 0.198-0.128 0.083-0.013 0.156-0.061 0.2-0.131l0.035-0.055c0.034-0.054 0.056-0.115 0.064-0.178l0.002-0.013c0.018-0.144 0.098-0.273 0.22-0.352l0.589-0.382c0.041-0.026 0.095-0.022 0.13 0.011 0.025 0.023 0.038 0.057 0.033 0.091l-0.075 0.614z"></path>
</svg>
